<?xml version="1.0" standalone="no"?>
<!DOCTYPE svg PUBLIC "-//W3C//DTD SVG 1.1//EN" "http://www.w3.org/Graphics/SVG/1.1/DTD/svg11.dtd" >
<svg>
<metadata>
Created by FontForge 20090622 at Sat Oct  3 18:34:12 2015
 By deploy user
Copyright (c) 1998-2008 Senamirmir Project. All Right Reserved.  Released under the SIL Open Font License; http://scripts.sil.org/OFL
</metadata>
<defs>
<font id="EthiopicTint" horiz-adv-x="624" >
  <font-face 
    font-family="Ethiopic Tint"
    font-weight="400"
    font-stretch="normal"
    units-per-em="1000"
    panose-1="2 0 5 0 0 0 0 0 0 0"
    ascent="800"
    descent="-200"
    x-height="447"
    cap-height="586"
    bbox="-50 -192 1283 922"
    underline-thickness="50"
    underline-position="-114"
    unicode-range="U+0014-U+2122"
  />
<missing-glyph horiz-adv-x="500" 
 />
    <glyph glyph-name=".notdef" horiz-adv-x="500" 
 />
    <glyph glyph-name=".null" horiz-adv-x="0" 
 />
    <glyph glyph-name="nonmarkingreturn" horiz-adv-x="500" 
 />
    <glyph glyph-name="FL20" horiz-adv-x="520" 
 />
    <glyph glyph-name="space" unicode=" " horiz-adv-x="289" 
 />
    <glyph glyph-name="space" unicode="&#xa0;" horiz-adv-x="289" 
 />
    <glyph glyph-name="exclam" unicode="!" 
d="M288 201l-19 393h87l-20 -393h-48zM312 110q31 0 51.5 -18.5t20.5 -45.5t-21 -45.5t-51 -18.5t-51 19t-21 46t21 45t51 18z" />
    <glyph glyph-name="quotedbl" unicode="&#x22;" 
d="M252 293h-77l-12 293h99zM449 293h-77l-10 293h99z" />
    <glyph glyph-name="numbersign" unicode="#" 
d="M245 472h151l13 213h49l-13 -213h98v-67h-101l-10 -174h111v-68h-115l-12 -222h-49l13 222h-152l-12 -222h-49l12 222h-98v68h102l10 174h-112v67h116l12 213h49zM232 231h151l10 174h-151z" />
    <glyph glyph-name="dollar" unicode="$" 
d="M495 569q-1 -11 -1.5 -22.5t-0.5 -27.5q0 -50 4 -88t7 -64l-47 -5q-8 51 -22.5 81.5t-31.5 47.5t-35.5 23t-32.5 9v-212q32 -9 64 -19.5t56.5 -26.5t40 -41t15.5 -63q0 -33 -13.5 -58.5t-37.5 -44t-56.5 -29.5t-68.5 -14v-156h-50v156q-8 0 -15 0.5t-16.5 3l-22.5 6
t-32 9.5q-12 4 -16.5 5t-6.5 1q-11 0 -12.5 -6.5t-2.5 -24.5h-49q3 58 0 104t-10 98h49q3 -18 9 -41t20 -45t39 -38.5t66 -22.5v207l-55 17t-53.5 26t-40.5 43t-16 66q0 66 45 105.5t120 45.5v108h50v-108q35 -4 72 -22q13 -6 16.5 -7.5t8.5 -1.5q8 0 10 5t4 21h49zM285 524
q-13 -2 -31.5 -6t-36 -15t-30.5 -29t-13 -49q0 -25 9.5 -41t25.5 -27t35.5 -18t40.5 -13v198zM335 64q17 2 37.5 6.5t39.5 15.5t32 29t13 45q0 24 -11 40t-28.5 27t-39 18.5t-43.5 13.5v-195z" />
    <glyph glyph-name="percent" unicode="%" 
d="M417 263q36 0 64 -12.5t46.5 -32.5t28 -45t9.5 -49q0 -25 -10 -49.5t-28.5 -44.5t-46.5 -32.5t-63 -12.5q-36 0 -63 12.5t-46 33t-28.5 45t-9.5 48.5q0 23 9.5 48t28 45t46 33t63.5 13zM417 214q-22 0 -38.5 -7.5t-28 -20t-17.5 -29t-6 -32.5q0 -36 23 -63.5t67 -27.5
q22 0 39 8t29 21t18 29t6 33q0 15 -6 31.5t-17.5 29.5t-28.5 20.5t-40 7.5zM193 639q36 0 63.5 -12.5t46 -33t28.5 -45t10 -49.5t-10 -50t-28.5 -44.5t-46 -31.5t-63.5 -12q-34 0 -61.5 12.5t-46 31.5t-28.5 44t-10 50q0 24 9.5 49t28 45.5t45.5 33t63 12.5zM194 590
q-22 0 -39.5 -8t-29 -21t-17 -29t-5.5 -33q0 -16 6 -32.5t17.5 -29t29 -20t38.5 -7.5q44 0 67.5 27t23.5 62t-23.5 63t-67.5 28zM111 201l-21 49l423 187l21 -49z" />
    <glyph glyph-name="ampersand" unicode="&#x26;" 
d="M550 242h-62q-19 -55 -32.5 -83.5t-21.5 -43.5l45 -66h78v-49h-118l-43 62q-9 -10 -21.5 -22t-30 -23t-40.5 -18t-51 -7q-37 0 -65 13t-47 34.5t-29 48.5t-10 56q0 53 32 99.5t92 68.5q0 3 -4 7l-29 43t-17 30.5t-8.5 24.5t-2.5 26q0 51 36 85t99 34q22 0 42 -5t40 -13
q22 -8 29 -10t13 -2q13 0 23 3.5l16 5.5l-48 -75q-20 14 -48 30t-67 16q-22 0 -36 -6.5t-22.5 -16.5t-11.5 -21t-3 -21q0 -19 10.5 -37t29.5 -47l135 -201q10 20 15.5 32.5l10.5 25t10 28.5l13 43h99v-49zM254 275q-15 -7 -29.5 -17t-26.5 -25t-19.5 -34t-7.5 -43
q0 -19 5 -38.5t17 -35.5t29.5 -26t42.5 -10q20 0 36.5 6t29 15.5t22 19.5t15.5 17z" />
    <glyph glyph-name="quotesingle" unicode="'" 
d="M350 292h-78l-19 294h118z" />
    <glyph glyph-name="parenleft" unicode="(" 
d="M482 675l-38 -74.5t-39.5 -92t-31 -106t-12.5 -115.5t12.5 -115.5t31 -106t39.5 -92t38 -73.5h-54q-29 44 -52.5 94t-41 101t-27 100t-9.5 92q0 42 9 91t26 100t41 101.5t54 95.5h54z" />
    <glyph glyph-name="parenright" unicode=")" 
d="M142 -100q16 28 37 69.5t40 92t32 108t13 117.5t-13 117t-32 107t-40 92l-37 72h55q64 -100 97 -203.5t33 -184.5q0 -43 -9 -91t-25.5 -98.5t-41 -101t-54.5 -96.5h-55z" />
    <glyph glyph-name="asterisk" unicode="*" 
d="M341 433l146 53l22 -67l-150 -41l97 -121l-58 -43l-86 130l-86 -130l-58 43l97 121l-150 41l22 67l146 -53l-6 153h70z" />
    <glyph glyph-name="plus" unicode="+" 
d="M338 341h217v-52h-217v-213h-52v213h-217v52h217v213h52v-213z" />
    <glyph glyph-name="comma" unicode="," 
d="M258 -113h-74l79 251h108z" />
    <glyph glyph-name="hyphen" unicode="-" 
d="M202 330h220v-58h-220v58z" />
    <glyph glyph-name="period" unicode="." 
d="M312 124q16 0 30 -5.5t25.5 -14.5t18 -22t6.5 -29q0 -17 -7 -30t-18.5 -22t-25.5 -14t-29 -5q-14 0 -28 5t-26 13.5t-19 21.5t-7 31q0 17 7 30t18.5 22t25.5 14t29 5z" />
    <glyph glyph-name="slash" unicode="/" 
d="M139 -138l-44 20l390 848l44 -19z" />
    <glyph glyph-name="zero" unicode="0" 
d="M312 646q63 0 102 -33t60 -82t28.5 -107t7.5 -109t-7.5 -108.5t-28.5 -107t-60 -82t-102 -32.5t-102 33t-60 82t-28.5 107t-7.5 108q0 51 7.5 109t28.5 107t60 82t102 33zM312 599q-47 0 -75 -29t-43 -71.5t-19.5 -92t-4.5 -90.5t4.5 -90.5t19.5 -93t43 -72t74 -28.5
q47 0 75 29t43.5 72t20 93t4.5 90q0 42 -4.5 91.5t-19.5 92t-43 71t-75 28.5z" />
    <glyph glyph-name="one" unicode="1" 
d="M347 646v-597h178v-49h-411v49h181v537l-166 -77l-21 45l206 92h33z" />
    <glyph glyph-name="two" unicode="2" 
d="M491 0h-406v55l52.5 46l77.5 69l85 78t74 72q38 38 50 68.5t12 67.5t-15 63t-37 42.5t-47 24.5t-45 8q-14 0 -37.5 -5t-45 -17t-36.5 -33t-13 -53h-54v67q29 35 60 54t57.5 27.5t45.5 10t25 1.5q37 0 72 -13.5t63.5 -38.5t45.5 -61t17 -80q0 -33 -8.5 -59t-26.5 -56
q-13 -20 -42 -51.5t-69.5 -70t-89.5 -81l-101 -84.5v-2h287v103h49v-152z" />
    <glyph glyph-name="three" unicode="3" 
d="M107 82q40 -19 84.5 -33.5t88.5 -14.5q28 0 55.5 9t49.5 27t35 44.5t13 61.5q0 36 -12.5 60t-27.5 38t-29.5 20.5t-17.5 7.5q-27 9 -51.5 10t-49.5 -1v49q23 0 49.5 3t50.5 19q26 17 40 44t14 58q0 53 -35 83t-88 30q-41 0 -74.5 -17t-56.5 -32l-19 -11l-26 40
q44 28 85.5 48.5t91.5 20.5q33 0 64.5 -11t56.5 -32t40 -50.5t15 -67.5q0 -35 -9.5 -60t-23 -42t-26.5 -26.5t-21 -13.5q17 -6 36 -19.5t36.5 -34t29 -48.5t11.5 -63q0 -44 -16.5 -80t-45 -61t-66.5 -38.5t-81 -13.5q-24 0 -44.5 3.5t-41.5 10t-46 16l-58 21.5z" />
    <glyph glyph-name="four" unicode="4" 
d="M499 202v-50h-93v-103h93v-49h-284v49h141v103h-279v60l258 434h71v-444h93zM356 586h-2l-226 -384h228v384z" />
    <glyph glyph-name="five" unicode="5" 
d="M478 580h-300v-210q24 11 54 20t72 9q46 0 84 -16t64.5 -43.5t41.5 -65t15 -78.5q0 -32 -10.5 -69t-36 -68t-67.5 -52.5t-105 -21.5q-28 0 -52 3.5t-47.5 9.5t-46.5 15l-49 19l18 47l31 -12.5t40.5 -13.5t48.5 -11t53 -5q43 0 74 12t52 33.5t30.5 49.5t9.5 61
q0 32 -10 60.5t-30.5 50.5t-49.5 34t-67 12q-39 0 -72.5 -13t-65.5 -36l-26 14v315h347v-50z" />
    <glyph glyph-name="six" unicode="6" 
d="M505 594q-58 3 -114 -1t-103 -31t-79.5 -86.5t-44.5 -166.5l2 -2q7 7 19 20.5t30.5 26t43.5 22t58 9.5q41 0 74.5 -16.5t57.5 -45t37 -64.5t13 -76q0 -39 -13.5 -75t-38 -63t-58 -43.5t-74.5 -16.5q-31 0 -68 13.5t-68 46.5t-52 87.5t-21 137.5q0 25 5 74t24.5 103.5
t59 104t108.5 74.5q11 4 27 8.5t39.5 7.5t57 4.5t78.5 -0.5v-52zM164 220q3 -54 20 -89t39 -56t47 -29.5t45 -8.5q25 0 48 10t41 29t28.5 46t10.5 61q0 29 -9.5 56.5t-25.5 48t-39.5 33t-51.5 12.5q-8 0 -27 -2.5t-41 -13.5t-45 -33.5t-40 -63.5z" />
    <glyph glyph-name="seven" unicode="7" 
d="M508 581l-202 -581h-61l211 581h-306v-95h-51v144h409v-49z" />
    <glyph glyph-name="eight" unicode="8" 
d="M216 321q-10 6 -26 18.5t-30.5 31.5t-25.5 45t-11 59q0 36 14.5 66.5t40 54t59.5 37t75 13.5t75 -13.5t59.5 -37t40 -54t14.5 -66.5q0 -41 -22 -84t-71 -70q28 -12 47.5 -31t32.5 -40t19 -43.5t6 -42.5q0 -29 -12 -60.5t-37 -57.5t-63 -43.5t-89 -17.5q-52 0 -89.5 17.5
t-62.5 43.5t-37 57.5t-12 60.5q0 49 29.5 93t75.5 64zM312 597q-36 0 -61.5 -12t-41.5 -30.5t-23 -40t-7 -40.5q0 -24 9.5 -46.5t26.5 -41t42 -30t55 -11.5q25 0 49 9t42.5 26t30 40.5t11.5 53.5q0 31 -12 54t-30.5 38t-42.5 23t-48 8zM312 296q-36 0 -63 -12t-45.5 -31
t-27.5 -42.5t-9 -46.5q0 -26 11 -49t31 -41.5t46 -29t57 -10.5t57 10.5t46 29t31 41.5t11 49q0 23 -9.5 47t-28 42.5t-45.5 30.5t-62 12z" />
    <glyph glyph-name="nine" unicode="9" 
d="M84 37q60 -3 115.5 1.5t101.5 31.5t79 86t45 166l-2 2q-6 -8 -18 -21t-30.5 -25.5t-44 -22t-58.5 -9.5q-40 0 -74 17t-58 45t-37 64.5t-13 75.5q0 40 14 76t38 63t58 43t75 16q31 0 68 -13.5t68 -46.5t52 -88t21 -137q0 -25 -5.5 -74t-24.5 -103.5t-58.5 -104
t-108.5 -74.5q-11 -4 -27.5 -8.5t-39.5 -8t-56.5 -4.5t-79.5 1v52zM425 411q-3 54 -19.5 89.5t-39 56t-47.5 29t-44 8.5q-25 0 -48 -10t-41.5 -28.5t-28.5 -45.5t-10 -62q0 -30 9 -57t25.5 -47.5t39.5 -33t51 -12.5q8 0 26.5 2.5t41.5 13t46 33.5t39 64z" />
    <glyph glyph-name="colon" unicode=":" 
d="M312 406q15 0 29 -5t25.5 -14t18.5 -22t7 -30t-7 -30t-18.5 -22t-26 -14t-28.5 -5t-28 5t-26 13.5t-19 21.5t-7 31q0 17 7 30t18.5 22t25.5 14t29 5zM312 124q15 0 29 -5t25.5 -14t18.5 -22t7 -30t-7 -30t-18.5 -22t-26 -14t-28.5 -5t-28 5t-26 13.5t-19 21.5t-7 31
q0 17 7 30t18.5 22t25.5 14t29 5z" />
    <glyph glyph-name="semicolon" unicode=";" 
d="M262 -112h-74l80 251h107zM312 406q15 0 29 -5t25.5 -14t18.5 -22t7 -30t-7 -30t-18.5 -22t-26 -14t-28.5 -5t-28 5t-26 13.5t-19 21.5t-7 31q0 17 7 30t18.5 22t25.5 14t29 5z" />
    <glyph glyph-name="less" unicode="&#x3c;" 
d="M547 553l21 -47l-396 -186l396 -182l-21 -45l-491 227z" />
    <glyph glyph-name="equal" unicode="=" 
d="M557 384h-490v52h490v-52zM557 196h-490v52h490v-52z" />
    <glyph glyph-name="greater" unicode="&#x3e;" 
d="M77 87l-21 47l396 186l-396 182l21 46l491 -228z" />
    <glyph glyph-name="question" unicode="?" 
d="M125 558q27 10 48 16.5t40.5 11.5t38.5 7t41 2q50 0 87.5 -14.5t62.5 -38t37.5 -54.5t12.5 -64q0 -45 -20 -76t-48.5 -50.5t-61 -31t-58.5 -18.5v-63h-51v101q2 1 8.5 2.5t12.5 2.5q26 6 55 15t53 24t40 38.5t16 58.5q0 16 -6.5 36.5t-22.5 38.5t-44 30t-72 12
q-38 0 -64.5 -7.5t-52.5 -17.5v-67h-52v106zM277 110q30 0 50.5 -18t20.5 -45q0 -28 -21 -46.5t-50 -18.5t-50.5 18.5t-21.5 46.5q0 27 20.5 45t51.5 18z" />
    <glyph glyph-name="at" unicode="@" 
d="M554 59q-1 0 -3 -1.5t-3 -1.5q-53 -30 -116.5 -50.5t-131.5 -20.5q-69 0 -119 24t-82.5 63.5t-49 91t-16.5 106.5q0 63 19.5 117t56 94t90.5 63.5t122 23.5q58 0 106.5 -17t84.5 -50.5t57 -82t21 -109.5q0 -44 -11 -81t-31.5 -63t-48 -40.5t-60.5 -14.5q-12 0 -18.5 1
t-13.5 5t-15.5 10l-23.5 16q-8 7 -9.5 11.5t-1.5 9.5q-7 -7 -15.5 -16.5t-21 -18t-28 -14.5t-34.5 -6q-9 0 -23.5 5t-27.5 16t-21.5 32t-8.5 52q0 35 12 71.5t32.5 67t48 49.5t60.5 19q26 0 39 -15t20 -26l9 36h54l-44 -162q0 -4 -5.5 -22t-5.5 -30t12 -27t36 -15
q20 0 37 12.5t30 34t20.5 49.5t7.5 60q0 51 -17.5 89.5t-47.5 64t-70 38t-86 12.5q-62 0 -105.5 -22t-72 -56.5t-41.5 -79.5t-13 -92q0 -41 11.5 -82.5t37 -75.5t66.5 -55.5t101 -21.5q65 0 117.5 19t89.5 39l15 8q1 0 3.5 1.5t3.5 1.5zM263 159q20 0 37.5 16t31 39.5
t21.5 51t8 50.5q0 24 -11.5 38t-26.5 14q-17 0 -34.5 -16t-30.5 -40t-20.5 -52t-7.5 -51q0 -7 1.5 -15.5t5.5 -16t10.5 -13t15.5 -5.5z" />
    <glyph glyph-name="A" unicode="A" 
d="M561 49h53v-49h-214v49h106l-59 144h-271l-58 -144h106v-49h-214v49h56l200 488h-148v49h223zM194 239h236l-118 285z" />
    <glyph glyph-name="B" unicode="B" 
d="M331 586q61 0 94.5 -12t55 -32t35 -47t13.5 -60q0 -28 -8.5 -50t-21.5 -37.5t-27 -26t-25 -15.5q56 -17 87.5 -53.5t31.5 -92.5q0 -44 -20.5 -78.5t-53.5 -52.5q-17 -9 -32.5 -15t-34.5 -9t-43.5 -4t-60.5 -1h-274v49h86v488h-86v49h284zM185 329h138q51 0 81.5 12.5
t46 29.5t20 35t4.5 31q0 37 -19.5 57.5t-45 30t-49.5 11t-32 1.5h-144v-208zM185 49h134q28 0 61.5 1.5t62.5 12t49 33t20 64.5q0 32 -15 55t-41 37t-62.5 21t-78.5 7h-130v-231z" />
    <glyph glyph-name="C" unicode="C" 
d="M618 103q-44 -42 -85.5 -65.5t-77.5 -36t-64 -16t-44 -3.5q-68 0 -120.5 25.5t-88 69.5t-53.5 101t-18 122q0 67 21 123t58.5 96.5t88.5 62t110 21.5q31 0 54.5 -5.5t40.5 -13.5t26 -15t12 -11q11 -8 13.5 -9.5t4.5 -1.5q3 0 5.5 5t4.5 13t3.5 16.5t2.5 15.5h38
q-2 -66 1.5 -111.5t9.5 -87.5l-49 -8q-3 18 -10 45.5t-25 54.5q-14 22 -45.5 41.5t-88.5 19.5q-52 0 -92.5 -19.5t-69 -54t-43.5 -80t-15 -96.5q0 -40 9.5 -86.5t35 -86.5t69 -67t110.5 -27q71 0 128 31t108 75z" />
    <glyph glyph-name="D" unicode="D" 
d="M295 586q35 0 64.5 -3t55 -10.5t49 -23t45.5 -41.5q22 -29 35 -59t19.5 -58t8 -51t1.5 -36q0 -94 -26.5 -152.5t-59.5 -91.5q-24 -23 -52 -34.5t-55 -17.5t-50.5 -7t-38.5 -1h-256v49h83v488h-83v49h260zM170 49h121q14 0 32.5 0.5t40 5t43 14.5t40.5 29q28 28 49 79.5
t21 123.5q-1 48 -10 82.5t-21.5 58t-26.5 38.5t-25 24q-27 21 -60 27t-78 6h-126v-488z" />
    <glyph glyph-name="E" unicode="E" 
d="M557 394h-47l-11 143h-299v-203h168v76h48v-200h-48v75h-168v-236h310l5 142h48v-191h-504v49h89v488h-89v49h494z" />
    <glyph glyph-name="F" unicode="F" 
d="M568 398h-47l-12 139h-298v-203h169v76h47v-200h-47v75h-169v-236h135v-49h-271v49h84v488h-84v49h488z" />
    <glyph glyph-name="G" unicode="G" 
d="M543 597q-1 -3 -1.5 -10.5t-0.5 -9.5q0 -4 -0.5 -14t-1.5 -22.5t-1.5 -25t-0.5 -22.5q0 -26 2 -51t4 -44l-45 -8q-3 18 -9.5 45.5t-25 53t-51 44t-88.5 18.5q-45 0 -84.5 -19t-69.5 -53.5t-47 -82.5t-17 -105q0 -53 14 -99.5t43 -81.5t73 -55.5t103 -20.5q26 0 62 6.5
t97 27.5v140h-154v49h257v-49h-50v-175q-118 -51 -213 -51q-80 0 -135 29t-89 74t-49 99t-15 106q0 60 18 116.5t53.5 100t87 70t118.5 26.5q37 0 68 -10.5t62 -34.5q8 -8 12 -10t8 -2q9 0 10.5 8.5t5.5 42.5h50z" />
    <glyph glyph-name="H" unicode="H" 
d="M249 537h-78v-210h282v210h-78v49h209v-49h-79v-488h79v-49h-209v49h78v229h-282v-229h78v-49h-208v49h78v488h-78v49h208v-49z" />
    <glyph glyph-name="I" unicode="I" 
d="M520 537h-182v-488h182v-49h-416v49h182v488h-182v49h416v-49z" />
    <glyph glyph-name="J" unicode="J" 
d="M602 537h-132v-325q0 -44 -4.5 -87.5t-25.5 -75.5q-13 -18 -30.5 -31t-36 -20.5t-38 -11.5t-35.5 -4q-63 0 -114.5 19.5t-95.5 39.5l-19 8l-10 225h51l4 -101q2 -40 10 -64t39 -42q31 -19 63.5 -26t59.5 -7q48 0 74.5 16.5t39 42t14.5 57t2 62.5v325h-205v49h389v-49z
" />
    <glyph glyph-name="K" unicode="K" 
d="M290 537h-88v-255l262 255h-85v49h202v-49h-46l-226 -220q20 -10 43 -26.5t49 -47t55 -77t60 -117.5h96v-49h-134q-16 44 -36 83t-31 57q-30 52 -61 85.5t-76 56.5l-72 -69v-164h88v-49h-228v49h88v488h-88v49h228v-49z" />
    <glyph glyph-name="L" unicode="L" 
d="M345 537h-128v-488h295l14 210h49l-11 -259h-503v49h104v488h-104v49h284v-49z" />
    <glyph glyph-name="M" unicode="M" 
d="M301 233h18l129 353h168v-49h-74l18 -488h63v-49h-221v49h112l-16 488h-19l-145 -387h-54l-135 387h-19l-16 -488h112v-49h-221v49h63l18 488h-74v49h174z" />
    <glyph glyph-name="N" unicode="N" 
d="M480 44h19v493h-116v49h232v-49h-68v-551h-93l-278 551h-18v-488h118v-49h-247v49h81v488h-81v49h178z" />
    <glyph glyph-name="O" unicode="O" 
d="M45 292q0 65 18.5 121.5t53.5 98.5t84.5 66.5t110.5 24.5q62 0 111.5 -25t84.5 -67.5t53 -98.5t18 -120q0 -62 -18.5 -119t-53 -99t-84 -67t-111.5 -25q-61 0 -110.5 24.5t-84.5 66.5t-53.5 98.5t-18.5 120.5zM101 293q0 -47 13.5 -93t40 -83t66 -60t91.5 -23
q51 0 90.5 22.5t66.5 59t40.5 82.5t13.5 95t-14 96t-41 83t-66 57.5t-90 21.5q-54 0 -93.5 -23.5t-65.5 -60t-39 -83t-13 -91.5z" />
    <glyph glyph-name="P" unicode="P" 
d="M312 586q56 0 91 -6t63 -22q39 -21 64 -64t25 -90q0 -22 -5.5 -43.5t-15.5 -40t-24 -34.5t-31 -25q-18 -11 -36.5 -17.5t-41 -9.5t-54.5 -3.5t-79 -0.5h-58v-181h153v-49h-289v49h84v488h-84v49h238zM210 279h59q64 0 111.5 3t75.5 25q14 11 28.5 36t14.5 63
q0 42 -20.5 70.5t-41.5 39.5q-10 5 -20 8.5t-24 6.5t-33.5 4.5t-47.5 1.5h-102v-258z" />
    <glyph glyph-name="Q" unicode="Q" 
d="M569 -92q-18 -12 -43.5 -26.5t-61.5 -14.5q-24 0 -43 6.5t-46 18t-44 16.5t-37 5q-34 0 -60 -11t-62 -32l-24 38q18 13 34 27t27 26t18 21t9 11q-44 13 -79 41.5t-60 67.5t-38.5 87.5t-13.5 102.5q0 74 21.5 132t58.5 98t85.5 60.5t100.5 20.5q56 0 105 -22.5t85.5 -63.5
t57 -99t20.5 -130q0 -53 -14 -107.5t-47 -99.5t-88 -72.5t-136 -26.5q-4 -5 -6 -7l-10 -10q-1 -2 -2 -3.5t0 1.5h-2v-3q5 0 9.5 1t12.5 1q19 0 42 -5t50 -16q19 -8 29.5 -12t18 -6.5t12.5 -3t12 -0.5q26 0 44 9t33 18zM101 293q0 -47 13.5 -93t40 -83t66 -60t91.5 -23
q51 0 90.5 22.5t66.5 59t40.5 82.5t13.5 95t-14 96t-41 83t-66 57.5t-90 21.5q-54 0 -93.5 -23.5t-65.5 -60t-39 -83t-13 -91.5z" />
    <glyph glyph-name="R" unicode="R" 
d="M314 586q50 0 82 -5t59.5 -23.5t45.5 -54.5t18 -75q0 -22 -8 -48t-26.5 -49t-49 -40t-75.5 -22q13 -14 32.5 -40.5t39.5 -58l40.5 -64l36.5 -57.5h91v-49h-130q-12 26 -27.5 54l-29.5 52.5l-26 44l-17 27.5l-26.5 41t-23.5 28t-26 16t-35 5h-75v-219h93v-49h-230v49h85
v488h-85v49h267zM184 317h97q21 0 52 1.5t59.5 12t49.5 34t21 67.5q0 26 -11.5 49t-32.5 38q-6 4 -13 7t-18.5 5.5t-29.5 4t-46 1.5h-128v-220z" />
    <glyph glyph-name="S" unicode="S" 
d="M527 597q-5 -24 -7 -39.5t-2 -35.5q0 -18 2 -48.5t7 -75.5l-47 -8q-2 17 -8 44t-24 54q-6 9 -16 20t-25.5 20.5t-37.5 16t-53 6.5q-40 0 -70 -12t-49 -30t-28.5 -39.5t-9.5 -41.5q0 -36 17.5 -57t42.5 -32t52 -15.5t46 -6.5q58 -6 91.5 -13t60.5 -24.5t46 -46.5t19 -74
q0 -46 -19.5 -79t-49.5 -55t-68 -32.5t-77 -10.5q-31 0 -54.5 5.5t-40.5 13t-28.5 15.5t-18.5 14q-1 1 -3.5 2.5t-4.5 1.5q-4 0 -6.5 -3t-4.5 -5q-2 -7 -3.5 -14t-5.5 -33h-47q5 25 7 48t2 34v11q0 8 -1 22t-2.5 30l-3 31.5l-2.5 26.5h47q4 -20 10.5 -45t24.5 -48
q15 -18 43.5 -36.5t84.5 -18.5q48 0 79.5 11.5t50.5 29.5t26.5 39t7.5 41q0 34 -15 54.5t-36.5 31.5t-47 15t-45.5 6q-30 3 -70 9.5t-75.5 23t-60 47t-24.5 82.5q0 36 15.5 68t43 57t65.5 39.5t83 14.5q28 0 50 -5t37.5 -12t26 -14t15.5 -11q12 -10 16.5 -12.5t7.5 -2.5
q7 0 8.5 6t6.5 31q2 11 2 14h47z" />
    <glyph glyph-name="T" unicode="T" 
d="M579 340l-50 -6l-14 203h-177v-488h126v-49h-304v49h126v488h-177l-14 -203l-50 6l17 246h500z" />
    <glyph glyph-name="U" unicode="U" 
d="M258 537h-106v-294q0 -32 2.5 -68.5t17.5 -66.5q14 -31 46.5 -52.5t92.5 -21.5q61 0 94 18.5t47 47.5q16 28 18.5 63t2.5 70v304h-106v49h233v-49h-75v-304q0 -40 -2.5 -67.5t-7.5 -47.5t-12 -34t-15 -26q-9 -12 -24.5 -25t-37.5 -24.5t-51 -19t-63 -7.5q-19 0 -42.5 3.5
t-47 12.5t-46.5 24.5t-41 40.5q-13 19 -20.5 43t-10.5 48.5t-3.5 48t-0.5 40.5v294h-75v49h233v-49z" />
    <glyph glyph-name="V" unicode="V" 
d="M229 537h-98l184 -479l187 479h-106v49h222v-49h-66l-206 -537h-64l-204 537h-72v49h223v-49z" />
    <glyph glyph-name="W" unicode="W" 
d="M207 537h-105l58 -437h2l134 378h36l131 -378h2l60 437h-106v49h203v-49h-48l-78 -537h-52l-132 379h-2l-134 -379h-52l-73 537h-49v49h205v-49z" />
    <glyph glyph-name="X" unicode="X" 
d="M256 537h-85l142 -191l146 191h-79v49h190v-49h-53l-175 -229l194 -259h54v-49h-210v49h93l-160 220l-167 -220h110v-49h-222v49h53l197 259l-175 229h-55v49h202v-49z" />
    <glyph glyph-name="Y" unicode="Y" 
d="M237 537h-79l157 -258l155 258h-81v49h202v-49h-66l-186 -310v-178h123v-49h-299v49h124v178l-188 310h-66v49h204v-49z" />
    <glyph glyph-name="Z" unicode="Z" 
d="M513 543l-363 -494h338v168h49v-217h-450v49l359 488h-302v-152h-49v201h418v-43z" />
    <glyph glyph-name="bracketleft" unicode="[" 
d="M504 628h-131v-674h131v-52h-183v778h183v-52z" />
    <glyph glyph-name="backslash" unicode="\" 
d="M487 -145l-390 858l44 20l390 -857z" />
    <glyph glyph-name="bracketright" unicode="]" 
d="M120 -46h131v674h-131v52h183v-778h-183v52z" />
    <glyph glyph-name="asciicircum" unicode="^" 
d="M76 160l198 426h76l198 -426h-66l-170 363l-170 -363h-66z" />
    <glyph glyph-name="underscore" unicode="_" 
d="M674 -130h-724v52h724v-52z" />
    <glyph glyph-name="grave" unicode="`" 
d="M389 523h-54l-137 120h111z" />
    <glyph glyph-name="a" unicode="a" 
d="M572 49v-49h-145v75q-15 -15 -36.5 -31t-46.5 -29t-54 -21.5t-61 -8.5q-40 0 -70.5 13t-52.5 34t-33.5 47t-11.5 53q0 21 10.5 48t35.5 51.5t67.5 41t107.5 16.5q3 0 17.5 -0.5t35 -2t45 -4t47.5 -6.5v32q0 12 -2 31t-13.5 36.5t-37.5 30t-72 12.5q-28 0 -72 -8.5
t-106 -35.5l-20 47q33 15 84.5 31t114.5 16q66 0 102 -19t52.5 -46t19 -53.5t2.5 -41.5v-259h93zM427 228q-17 3 -54 7t-81 4q-64 0 -99.5 -15t-52 -34t-19.5 -37t-3 -22q0 -20 8.5 -37t24 -30t35.5 -21t42 -8q12 0 32.5 3.5t46.5 14t56.5 32.5t63.5 60v83z" />
    <glyph glyph-name="b" unicode="b" 
d="M153 360h2q32 44 76.5 67.5t101.5 23.5q48 0 90.5 -18t74 -49t50 -74t18.5 -91q0 -43 -17 -84t-47 -73.5t-72 -52t-93 -19.5q-43 0 -73 10t-52 24t-36 30l-23 26v-80h-135v49h83v552l-96 -5v49l148 9v-294zM154 222q0 -37 14 -69.5t38 -57t57 -39t73 -14.5
q38 0 70.5 14.5t55.5 39.5t35.5 57t12.5 67q0 36 -13 68.5t-36.5 57t-56 39t-69.5 14.5q-39 0 -71.5 -14.5t-57 -39t-38.5 -56.5t-14 -67z" />
    <glyph glyph-name="c" unicode="c" 
d="M544 456l-5.5 -42.5t-3.5 -53.5q0 -28 3 -69l-48 -7l-4 18q-3 10 -9.5 28.5t-22.5 36.5t-46 31t-80 13t-87.5 -16t-62 -42.5t-36.5 -60t-12 -66.5t11 -66t34.5 -60.5t59.5 -45t88 -17.5q57 0 110.5 24.5t110.5 64.5l27 -40l-42.5 -29t-57.5 -33.5t-70.5 -27.5t-82.5 -11
q-55 0 -99.5 19t-77 51.5t-50 76t-17.5 93.5q0 41 15 84t45.5 77t77.5 55.5t110 21.5q31 0 68.5 -9t84.5 -46q3 -3 4 -3q5 0 7.5 8.5t3.5 13.5q1 13 6 34z" />
    <glyph glyph-name="d" unicode="d" 
d="M516 49h88v-49h-140v77h-2q-24 -33 -51.5 -51t-53 -26t-45 -9t-26.5 -1q-49 0 -91 18.5t-73.5 49.5t-49 73.5t-17.5 88.5q0 54 20 96.5t52.5 72.5t73 46t83.5 16q49 0 99 -22.5t79 -66.5h2v234l-168 -10l-3 46l223 20v-603zM462 218q0 32 -11.5 63.5t-33.5 58t-54.5 43
t-76.5 16.5q-34 0 -66 -12.5t-56 -35.5t-38.5 -56t-14.5 -73t14 -73.5t38 -57t56 -36.5t67 -13t67 13.5t56.5 36.5t38.5 55.5t14 70.5z" />
    <glyph glyph-name="e" unicode="e" 
d="M581 59q-20 -11 -48.5 -24t-61 -24t-69 -18.5t-72.5 -7.5q-64 0 -111 20t-79 52.5t-47.5 76t-15.5 89.5q0 47 17 91t49 77t77.5 52.5t102.5 19.5q60 0 104 -19t73.5 -49t44.5 -67t15 -72q0 -13 -1.5 -27.5t-1.5 -19.5h-424q1 -21 9.5 -50.5t30 -56.5t59.5 -47t99 -20
q32 0 66 8t64 19t55 23l41 20zM503 258q0 25 -10.5 52.5t-32.5 50.5t-56 37.5t-81 14.5q-52 0 -86.5 -17.5t-56.5 -42t-33 -51t-14 -44.5h370z" />
    <glyph glyph-name="f" unicode="f" 
d="M209 493q0 32 4.5 60.5t21 50t49 34t88.5 12.5q44 0 82.5 -5t71.5 -12l-22 -52q-34 9 -73 13t-72 4q-37 0 -56.5 -9t-29 -24t-11 -34.5t-1.5 -40.5v-55h222v-49h-222v-337h222v-49h-382v49h108v337h-108v49h108v58z" />
    <glyph glyph-name="g" unicode="g" 
d="M575 398h-84v-367q0 -48 -11 -84t-38.5 -60.5t-73.5 -37t-115 -12.5h-66v49q66 0 113 2.5t78 16.5t46 43.5t15 82.5v61h-2q-5 -9 -18.5 -22.5t-34.5 -27t-49.5 -23t-63.5 -9.5q-47 0 -88 18t-70.5 48.5t-46.5 70.5t-17 84q0 48 18.5 88.5t49.5 69.5t71 45.5t83 16.5
q5 0 23 -1t42.5 -8.5t51.5 -24t49 -46.5h2v76h136v-49zM439 229q0 38 -13.5 70t-36.5 54t-53 34t-62 12q-34 0 -64 -12.5t-53.5 -34t-37.5 -52.5t-14 -68q0 -36 13.5 -67t36.5 -54t53.5 -36t65.5 -13q36 0 66.5 14t52.5 37t34 53.5t12 62.5z" />
    <glyph glyph-name="h" unicode="h" 
d="M179 389l36.5 25t41.5 24t47 18t53 7q35 0 63.5 -12.5t49 -35.5t31 -54.5t10.5 -69.5v-242h87v-49h-228v49h89v238q0 56 -26.5 90t-73.5 34q-25 0 -49 -7.5t-47.5 -19.5t-44 -26.5t-39.5 -29.5v-279h82v-49h-221v49h87v552l-97 -8l-4 49l153 12v-265z" />
    <glyph glyph-name="i" unicode="i" 
d="M340 49h180v-49h-415v49h183v349h-153v49h205v-398zM340 682v-124h-75v124h75z" />
    <glyph glyph-name="j" unicode="j" 
d="M406 42q0 -21 -3.5 -55t-21.5 -65.5t-57.5 -55t-112.5 -23.5q-41 0 -75.5 5.5t-64.5 12.5l11 50q21 -6 57 -11t75 -5q52 0 80.5 15.5t41.5 39t15.5 50.5t2.5 49v349h-266v49h318v-405zM385 682v-124h-75v124h75z" />
    <glyph glyph-name="k" unicode="k" 
d="M192 249l195 147v2h-58v49h217v-49h-81l-175 -134l62.5 -58.5l59 -59l50 -54t36.5 -43.5h88v-49h-217v49h67q-16 19 -33 37l-38.5 39.5l-49 48l-64.5 61.5l-59 -45v-190h-138v49h86v551l-98 -8l-5 49l155 13v-405z" />
    <glyph glyph-name="l" unicode="l" 
d="M338 49h181v-49h-414v49h181v537l-170 -13l-5 48l227 14v-586z" />
    <glyph glyph-name="m" unicode="m" 
d="M119 411l13 11q1 1 8.5 7t19 12.5t27.5 12t35 5.5q33 0 61 -17.5t43 -48.5q22 27 52 46.5t66 19.5q27 0 53 -12t40 -33q7 -12 12 -22.5t8.5 -24.5t5 -34.5t1.5 -49.5v-234h59v-49h-111v283q0 22 -1 43.5t-7.5 40t-20 29.5t-38.5 11q-22 0 -47.5 -14t-54.5 -55v-289h65
v-49h-117v287q0 17 -1 38t-7 39t-20 30.5t-40 12.5q-19 0 -34.5 -6.5t-28 -15.5t-22 -18.5t-15.5 -18.5v-299h70v-49h-193v49h71v349h-71v49h119v-36z" />
    <glyph glyph-name="n" unicode="n" 
d="M173 389q16 12 36 25t42.5 24t47 18t53.5 7q35 0 63.5 -12.5t49 -35.5t31 -54.5t10.5 -69.5v-242h84v-49h-225v49h89v238q0 57 -27.5 90.5t-73.5 33.5q-13 0 -29.5 -2.5t-38.5 -11.5t-49.5 -25t-62.5 -44v-279h87v-49h-225v49h86v349h-86v49h138v-58z" />
    <glyph glyph-name="o" unicode="o" 
d="M54 227q0 47 16.5 90.5t49 76.5t81 53.5t111.5 20.5q66 0 114 -21t80 -55t48 -77.5t16 -87.5q0 -45 -16 -88t-48 -77.5t-80 -55.5t-114 -21q-63 0 -111.5 20.5t-81 54.5t-49 77t-16.5 90zM110 227q0 -37 13 -71t38.5 -60.5t63.5 -42.5t87 -16q50 0 88 16.5t63 43t38 60
t13 70.5q0 35 -13 69.5t-38 61t-63 42.5t-88 16q-49 0 -86.5 -15.5t-63.5 -42t-39 -60.5t-13 -71z" />
    <glyph glyph-name="p" unicode="p" 
d="M157 373h2q6 10 19 24.5t35 28.5t52.5 24.5t72.5 10.5q53 0 95.5 -20t73.5 -52.5t47 -74.5t16 -86q0 -52 -20.5 -95.5t-52.5 -74.5t-73.5 -48t-83.5 -17q-6 0 -25 1.5t-45 9.5t-55 26.5t-56 51.5h-2v-196h155v-49h-292v49h85v512h-85v49h137v-74zM153 231q0 -46 17.5 -81
t44.5 -58t60 -35t63 -12q35 0 67 14t56 38.5t38.5 58t14.5 73.5q0 32 -11 64.5t-33 57.5t-54.5 41.5t-76.5 16.5q-41 0 -75 -14.5t-58.5 -38.5t-38.5 -57t-14 -68z" />
    <glyph glyph-name="q" unicode="q" 
d="M519 398v-512h85v-49h-292v49h155v196h-2q-27 -33 -56 -51.5t-55 -26.5t-45 -9.5t-25 -1.5q-43 0 -84 17t-73 48t-52.5 74.5t-20.5 95.5q0 44 16 86t47 74.5t73.5 52.5t95.5 20q42 0 72.5 -10.5t52.5 -24.5t35 -28.5t19 -24.5h2v74h137v-49h-85zM471 231q0 35 -14 68
t-38.5 57t-58.5 38.5t-75 14.5q-44 0 -76.5 -16.5t-54.5 -41.5t-33 -57.5t-11 -64.5q0 -40 14 -73.5t38.5 -58t56.5 -38.5t67 -14q30 0 63 12t60 35t44.5 58t17.5 81z" />
    <glyph glyph-name="r" unicode="r" 
d="M259 343l39.5 38.5t48 38.5t58.5 30t69 12q24 0 42.5 -5.5t32.5 -13.5t23.5 -18l18.5 -20l-55 -41l-3 3t-2 4q-4 7 -8.5 13.5t-12 12t-18 9.5t-26.5 4q-34 0 -65.5 -15t-58.5 -36.5t-48.5 -44.5l-34.5 -37v-228h198v-49h-379v49h129v349h-121v49h173v-104z" />
    <glyph glyph-name="s" unicode="s" 
d="M501 461q-3 -17 -6 -38.5t-3 -51.5q0 -22 1.5 -37t3.5 -28l-46 -5q-3 15 -8.5 34t-21.5 35t-47.5 27.5t-85.5 11.5q-62 0 -95.5 -22.5t-33.5 -54.5q0 -28 16 -44.5t45.5 -25t68.5 -11.5t84 -6q10 0 34.5 -3t50.5 -14.5t46 -34.5t20 -64q0 -37 -18 -65t-47 -45.5t-64 -26
t-69 -8.5q-29 0 -52.5 5t-43.5 12t-34 14.5l-23 12.5l-1 1q-2 1 -5 1q-7 0 -11 -13t-9 -31h-46l4 27t2 39q0 33 -2 59t-4 44l46 5q2 -13 8 -34t23.5 -40.5t49.5 -34.5t86 -15q16 0 42 3.5t51 12.5t43 27t18 48q0 23 -11 36.5t-30.5 20t-47 8.5t-60.5 4q-21 1 -57 4.5
t-71.5 16.5t-61.5 39.5t-26 73.5q0 28 13.5 52t37.5 41.5t58 27.5t75 10q47 0 76 -11t44 -19q2 -3 9 -6.5t14 -3.5q8 0 12 10l6 15q2 11 3 14t3 8z" />
    <glyph glyph-name="t" unicode="t" 
d="M232 433h252v-49h-252v-197q0 -29 1.5 -56t11.5 -48t32.5 -33.5t62.5 -12.5q13 0 29 2t39 7t55 16t78 30l19 -47q-50 -23 -107 -41.5t-108 -18.5q-50 0 -81 15.5t-48 31.5q-27 27 -31.5 65t-4.5 90v197h-71v49h71v153h52v-153z" />
    <glyph glyph-name="u" unicode="u" 
d="M171 172q0 -11 1.5 -33.5t11 -44.5t30.5 -39.5t61 -17.5q43 0 83 22t84 69v270h-89v49h141v-398h84v-49h-136v57l-27 -21.5t-36 -23.5t-45 -19t-55 -8q-49 0 -80.5 18t-49 45t-24 59.5t-6.5 64.5v226h-86v49h138v-275z" />
    <glyph glyph-name="v" unicode="v" 
d="M243 398h-84l156 -338l158 338h-82v49h211v-49h-77l-188 -398h-49l-189 398h-77v49h221v-49z" />
    <glyph glyph-name="w" unicode="w" 
d="M188 398h-86l91 -315h3l101 283h37l103 -287h2l93 319h-87v49h177v-49h-41l-116 -398h-54l-99 268l-97 -268h-51l-117 398h-45v49h186v-49z" />
    <glyph glyph-name="x" unicode="x" 
d="M243 398h-63l130 -130l130 130h-60v49h191v-49h-63l-164 -164l187 -185h66v-49h-211v49h74l-150 152l-151 -152h73v-49h-205v49h65l183 185l-166 164h-66v49h200v-49z" />
    <glyph glyph-name="y" unicode="y" 
d="M219 398h-71l164 -316l181 316h-71v49h191v-49h-61l-291 -508h93v-49h-312v49h160l80 138l-194 370h-63v49h194v-49z" />
    <glyph glyph-name="z" unicode="z" 
d="M516 402l-337 -353h288v96h49v-145h-408v49l334 349h-275v-92h-48v141h397v-45z" />
    <glyph glyph-name="braceleft" unicode="{" 
d="M479 628q-18 0 -39 -1.5t-38 -9.5t-28.5 -23.5t-11.5 -43.5q0 -16 2 -33.5t10 -50.5l9 -36q1 -6 3 -20t2 -26q0 -19 -5 -33.5t-13.5 -25.5t-19 -20t-19.5 -16l19 -15.5t19 -19.5t14 -25.5t5 -32.5q0 -13 -2 -27t-3 -19l-9 -37q-8 -33 -10 -50t-2 -35q0 -28 12 -43.5
t30 -23t38.5 -9t36.5 -1.5v-50h-41q-19 0 -44 9q-41 13 -63.5 46t-22.5 74q0 7 1 20.5t5 31.5q0 3 1 9t2.5 12.5l3 12.5t2.5 9q4 16 7 35.5t3 37.5q0 20 -11 32.5t-25.5 19.5t-29.5 9.5t-23 3.5v53q40 4 64.5 20t24.5 48q0 9 -1 19.5t-2.5 21t-3.5 18l-3 11.5q-4 22 -7 35.5
t-4.5 23t-2.5 17t-1 16.5q0 52 23 79t52.5 39t57.5 13t38 1v-50z" />
    <glyph glyph-name="bar" unicode="|" 
d="M285 -192v892h55v-892h-55z" />
    <glyph glyph-name="braceright" unicode="}" 
d="M145 -49q18 0 39 1.5t38 9.5t28.5 23.5t11.5 43.5q0 17 -2 34t-10 50l-9 37q-1 5 -3 19t-2 27q0 18 5 32.5t13.5 25.5t19 20t19.5 16q-18 14 -37.5 35t-19.5 59q0 12 2 26t3 20l9 36q8 33 10 50.5t2 34.5q0 28 -12.5 43.5t-30 23t-38 9t-36.5 1.5v50h40q20 0 45 -8
q41 -14 63.5 -46.5t22.5 -74.5q0 -7 -1 -20.5t-5 -31.5q0 -3 -1 -8.5t-2.5 -12.5t-3 -12.5t-2.5 -9.5q-4 -16 -7 -35.5t-3 -36.5q0 -21 11 -33.5t25.5 -19.5t29 -9.5t23.5 -3.5v-53q-40 -4 -64.5 -19.5t-24.5 -47.5q0 -10 1 -20.5t2.5 -20.5t3.5 -18l3 -12q4 -22 7 -35.5
t4.5 -23t2.5 -16.5t1 -17q0 -52 -23 -79.5t-52.5 -39t-57.5 -12.5t-38 -1v50z" />
    <glyph glyph-name="asciitilde" unicode="~" 
d="M536 363l-17.5 -28t-27 -32.5t-37 -27t-46.5 -11.5q-4 0 -10 0.5t-16.5 3t-27.5 8.5t-44 17l-39.5 17t-24 9t-16 4t-14.5 1q-31 0 -50.5 -24t-41.5 -62l-35 41l23 36t27 34t33.5 25t43.5 10q23 0 46 -8t64 -26l33.5 -13l22 -8t14 -4.5t11.5 -1.5t15.5 2.5t21.5 9.5
t25 20.5t26 37.5q0 2 2 5t3 4z" />
    <glyph glyph-name="exclamdown" unicode="&#xa1;" 
d="M336 250l19 -394h-87l20 394h48zM312 340q-31 0 -51.5 19t-20.5 46t21 45t51 18t51 -18.5t21 -45.5q0 -28 -21 -46t-51 -18z" />
    <glyph glyph-name="cent" unicode="&#xa2;" 
d="M345 141l40 9t34.5 10t37 16.5t47.5 28.5l25 -43q-1 0 -3 -1.5t-3 -1.5q-25 -17 -44 -27.5t-38.5 -18t-42 -12.5t-53.5 -11v-149h-51v149q-29 7 -50 13.5t-37.5 16t-29.5 22.5t-25 31q-16 24 -26.5 53t-10.5 66t12 70.5t34.5 60.5t56 46t76.5 26v141h51v-141
q25 -2 44.5 -8.5t32.5 -13t20.5 -13.5t9.5 -9q2 -1 3.5 -2.5t3.5 -1.5q3 0 4.5 3.5t3 8t1.5 8.5q1 3 1 4q2 11 2 13l49 -6q-3 -18 -6 -40.5t-3 -43.5q0 -10 0.5 -24t2.5 -38l-49 -6q0 9 -1 21.5t-5.5 25.5t-12 26t-21.5 22q-20 15 -43 20.5t-37 5.5v-306zM294 444
q-46 -10 -71.5 -33.5t-37 -48.5t-13.5 -45.5t-2 -23.5q0 -23 8 -50t27 -51q21 -27 43.5 -35.5t45.5 -14.5v302z" />
    <glyph glyph-name="sterling" unicode="&#xa3;" 
d="M194 353q-15 41 -21 65t-6 48q0 36 15.5 67.5t41.5 54t59 35.5t71 13q39 0 67.5 -8t50.5 -16q2 -2 6 -3t6 -1t3.5 2t4.5 9h47q-9 -29 -13.5 -54t-6.5 -63l-47 -5q1 13 1.5 21.5t0.5 12.5q0 7 -2.5 15.5t-10.5 14.5q-12 6 -42 15.5t-63 9.5q-34 0 -60 -10.5t-43 -28
t-26 -38.5t-9 -42q0 -11 2 -21t5 -23t8 -30t13 -40h253v-49h-238q5 -21 7 -37.5t2 -38.5q0 -35 -5 -62t-13.5 -48t-17.5 -38t-19 -29l2 -2q15 7 32.5 13.5t41.5 6.5q19 0 35.5 -4t44.5 -15q23 -8 35.5 -12t24.5 -4q25 0 44 11t44 32l30 -37q-7 -8 -18 -17t-25 -17.5
t-32 -14.5t-40 -6q-15 0 -31.5 3.5t-41.5 12.5q-29 10 -43.5 14.5t-31.5 4.5q-21 0 -47.5 -8t-70.5 -33l-34 45q30 31 48 61.5t26.5 57.5t11 47.5t2.5 33.5q0 40 -13 80h-109v49h94z" />
    <glyph glyph-name="currency" unicode="&#xa4;" 
d="M510 63l-85 84q-32 -26 -64 -32.5t-49 -6.5q-6 0 -18 1t-27 5t-33 11.5t-35 21.5l-85 -84l-36 36l85 83q-27 40 -31.5 68t-4.5 36q0 50 12.5 77t23.5 43l-85 84l36 34l85 -83q32 25 62 31.5t51 6.5q23 0 41 -4t32 -10t24 -13l16 -11l85 83l36 -34l-85 -84
q26 -37 31.5 -65t5.5 -39q0 -25 -4 -44.5t-10 -33.5t-12 -24.5t-11 -17.5l85 -83zM449 294q0 26 -9 50.5t-27.5 44t-44 31t-56.5 11.5q-32 0 -57 -12t-43 -31.5t-27 -44t-9 -49.5q0 -27 9 -51.5t26.5 -43.5t43 -30.5t56.5 -11.5t57 11.5t44 30.5t27.5 43.5t9.5 51.5z" />
    <glyph glyph-name="yen" unicode="&#xa5;" 
d="M464 49v-49h-298v49h124v96h-153v48h153v61h-153v49h153v13l-193 252h-64v49h205v-49h-79l156 -203l153 203h-79v49h202v-49h-63l-188 -252v-13h150v-49h-150v-61h150v-48h-150v-96h124z" />
    <glyph glyph-name="brokenbar" unicode="&#xa6;" 
d="M285 312v388h55v-388h-55zM285 -192v388h55v-388h-55z" />
    <glyph glyph-name="section" unicode="&#xa7;" 
d="M439 447v90h-120q-8 0 -21 -1t-25.5 -7t-21.5 -18t-9 -35q0 -20 11.5 -35.5t26.5 -26.5l143 -110l35 -28.5t27.5 -27.5t18 -30t6.5 -36q0 -12 -4.5 -28t-14 -30.5t-26.5 -26t-42 -16.5q5 -8 12.5 -22.5t7.5 -39.5q0 -53 -38.5 -83.5t-103.5 -30.5h-165v150h49v-101h122
q13 0 28 4t26.5 11t19.5 19t8 30q0 14 -7.5 28t-35.5 35l-139 107q-33 26 -55.5 50.5t-22.5 61.5q0 17 6.5 35t18 32.5t27 24.5t32.5 14q-17 19 -21 41t-4 28q0 34 15.5 56t32.5 34q24 14 52 17.5t46 3.5h154v-139h-49zM258 366q-28 -3 -43 -13t-22.5 -21t-8.5 -20t-1 -11
q0 -14 9.5 -28.5t42.5 -39.5l141 -109q25 1 40.5 7.5t24 15.5t12 19t3.5 16q0 9 -3 17.5t-10 17.5t-19.5 20t-32.5 26z" />
    <glyph glyph-name="dieresis" unicode="&#xa8;" 
d="M282 646v-112h-75v112h75zM417 646v-112h-75v112h75z" />
    <glyph glyph-name="copyright" unicode="&#xa9;" 
d="M418 356q-2 23 -3.5 38.5t-6.5 23.5q-9 14 -30.5 22.5t-48.5 8.5q-33 0 -57 -11.5t-41 -31t-25 -45.5t-8 -55q0 -30 8.5 -58t25.5 -48.5t40 -32.5t54 -12q24 0 42 8t30 19t19.5 23.5t13.5 23.5l25 -11q-10 -25 -25 -42.5t-34 -29.5t-41.5 -17.5t-44.5 -5.5
q-39 0 -69.5 14.5t-52.5 39t-33 56.5t-11 69q0 34 11 66t33.5 56.5t56.5 39.5t78 15q26 0 61 -6.5t62 -15.5v-101h-29zM312 603q62 0 117.5 -23.5t96 -64.5t64.5 -96t24 -117q0 -63 -24 -118t-64.5 -96t-96 -65t-117.5 -24t-117 24t-96 65t-65 96t-24 118t24 118t65 95.5
t96.5 64t116.5 23.5zM312 564q-54 0 -101.5 -20.5t-83 -56.5t-56.5 -83.5t-21 -102.5t21 -102.5t56.5 -83t83 -56.5t101.5 -21t101.5 21t83 56.5t56.5 83t21 102.5q0 54 -21 102t-56 83.5t-83 56.5t-102 21z" />
    <glyph glyph-name="ordfeminine" unicode="&#xaa;" 
d="M199 577q36 15 59 20.5t47 5.5q94 0 94 -83v-123h45v-37h-84v29q-27 -21 -47.5 -28.5t-44.5 -7.5q-36 0 -62 22t-26 56q0 37 31 60.5t84 23.5q16 0 29 -1t36 -4v7q0 26 -13 37.5t-43 11.5q-20 0 -41 -6t-50 -18zM360 472q-22 3 -34.5 4t-24.5 1q-37 0 -59.5 -12.5
t-22.5 -33.5q0 -17 15 -29t34 -12q48 0 92 50v32zM439 277h-254v37h254v-37z" />
    <glyph glyph-name="guillemotleft" unicode="&#xab;" horiz-adv-x="554" 
d="M390 52l-140 228l140 226h112l-140 -226l140 -228h-112zM192 52l-140 228l140 226h114l-141 -226l141 -228h-114z" />
    <glyph glyph-name="logicalnot" unicode="&#xac;" 
d="M540 176h-52v228h-394v52h446v-280z" />
    <glyph glyph-name="FL00ADh" unicode="&#xad;" 
d="M202 330h220v-58h-220v58z" />
    <glyph glyph-name="registered" unicode="&#xae;" 
d="M310 485q8 0 28 -1.5t40.5 -10t36.5 -27t16 -50.5q0 -5 -2 -16.5t-9 -25.5t-23 -27t-45 -20q16 -12 27.5 -33.5t28.5 -59.5q8 -18 13.5 -28t12 -15t15 -5.5t21.5 -0.5v-25h-42q-30 0 -44 21.5t-27 57.5q-11 29 -18 44t-15.5 22.5t-19.5 9t-29 1.5h-19v-104q0 -13 1 -16.5
t6 -7.5q2 -1 14.5 -2t20.5 -2v-24h-132v24q2 1 8 1t7 1q19 2 23.5 5.5t4.5 20.5v243q0 12 -0.5 15t-5.5 6q-1 1 -7 1q-3 0 -10.5 0.5t-19.5 1.5v26h144zM280 321q47 0 75.5 16t28.5 56q0 24 -9.5 37.5t-23 20t-28 8t-25.5 1.5q-29 0 -35.5 -3.5t-6.5 -18.5v-117h24zM312 603
q62 0 117 -23.5t96 -64t65 -95.5t24 -118t-24 -117.5t-64.5 -95.5t-96 -65t-117.5 -24t-117.5 24t-96 65t-64.5 95.5t-24 117.5t24 118t65 95.5t96.5 64t116.5 23.5zM312 564q-54 0 -101.5 -20.5t-83 -56.5t-56.5 -83.5t-21 -101.5t20 -101.5t56 -83.5t83.5 -56.5
t102.5 -20.5q54 0 102 20.5t84 56.5t56 83.5t20 101.5q0 55 -21 102.5t-56.5 83t-83.5 56t-101 20.5z" />
    <glyph glyph-name="macron" unicode="&#xaf;" 
d="M489 564h-354v52h354v-52z" />
    <glyph glyph-name="degree" unicode="&#xb0;" 
d="M153 486q0 33 12.5 62t33.5 51t50.5 34.5t62.5 12.5q34 0 63.5 -13t50.5 -35t33 -51t12 -61q0 -33 -12.5 -61.5t-33.5 -50t-50.5 -34t-62.5 -12.5t-62.5 12.5t-50.5 33.5t-33.5 49.5t-12.5 62.5zM210 487q0 -44 29 -73t73 -29q22 0 40.5 7.5t32 21.5t21.5 32.5t8 40.5
q0 43 -29 72.5t-73 29.5q-22 0 -40 -8t-32 -21.5t-22 -32t-8 -40.5z" />
    <glyph glyph-name="plusminus" unicode="&#xb1;" 
d="M338 395h217v-52h-217v-204h-52v204h-217v52h217v204h52v-204zM555 32h-486v52h486v-52z" />
    <glyph glyph-name="twosuperior" unicode="&#xb2;" 
d="M422 258h-248v40l9 9l26 23l32.5 29l32 29l26.5 24l42 40t23.5 28.5t10.5 23.5t3 25q0 32 -23 53.5t-55 21.5q-30 0 -50.5 -15.5t-21.5 -36.5l1 -12h-44v49q45 57 116 57q25 0 47 -9.5t39 -25t26 -37t9 -46.5q0 -19 -5 -35.5t-17.5 -34.5t-35 -40l-56.5 -53l-72 -65h145
v59h40v-101z" />
    <glyph glyph-name="threesuperior" unicode="&#xb3;" 
d="M180 602q38 25 61.5 34.5t49.5 9.5q47 0 78 -28t31 -72q0 -48 -39 -81q58 -37 58 -98q0 -53 -36 -85.5t-92 -32.5q-23 0 -43 5t-56 20l-19 8l16 38q34 -15 58 -22.5t46 -7.5q37 0 59.5 22t22.5 55q0 34 -21.5 52.5t-62.5 18.5h-25v41q28 1 40.5 4t24.5 11q26 20 26 51
q0 26 -19 42.5t-47 16.5q-17 0 -33.5 -5t-40.5 -22l-15 -10z" />
    <glyph glyph-name="acute" unicode="&#xb4;" 
d="M224 523l92 120h111l-148 -120h-55z" />
    <glyph glyph-name="mu" unicode="&#xb5;" 
d="M175 203q0 -25 1 -43t3.5 -31t7 -22t12.5 -19q19 -26 48.5 -38.5t58.5 -12.5t61 12.5t50 35.5q9 13 15 25t9 25.5t4 30t1 37.5v201h-85v43h137v-404h86v-43h-137v55h-2l-8 -12q-20 -27 -56.5 -42.5t-72.5 -15.5q-19 0 -36.5 5t-32.5 11t-25.5 13t-14.5 12q-10 9 -13 12.5
t-12 10.5v-204h-51v559h-86v43h138v-244z" />
    <glyph glyph-name="paragraph" unicode="&#xb6;" 
d="M516 -49v-31h-121v31h20v603h-85v-603h19v-31h-131v31h65v320q-30 -2 -61.5 4.5t-57.5 24t-42.5 49.5t-16.5 82q0 57 17.5 88.5t45.5 46t61.5 17.5t66.5 3h216v-32h-50v-603h54zM283 554q-18 0 -34.5 -2t-29.5 -11t-21.5 -27.5t-8.5 -52.5v-63q0 -6 2 -22.5t11.5 -34
t28.5 -29.5t52 -9v251z" />
    <glyph glyph-name="periodcentered" unicode="&#xb7;" 
d="M312 386q16 0 30 -5.5t25.5 -14.5t18 -22t6.5 -29q0 -17 -7 -30t-18.5 -22t-25.5 -14t-29 -5q-14 0 -28 5t-26 13.5t-19 21.5t-7 31q0 17 7 30t18.5 22t25.5 14t29 5z" />
    <glyph glyph-name="cedilla" unicode="&#xb8;" 
d="M335 -26q26 -4 40.5 -13.5t22 -20t9 -19t1.5 -11.5q0 -6 -2 -15.5t-10 -19.5t-25 -18t-47 -8q-38 0 -68.5 6.5l-45.5 9.5l7 46q17 -5 45 -10t61 -5h10q8 0 17 3t9 11q0 14 -22.5 18.5t-52.5 7.5l7 62h47z" />
    <glyph glyph-name="onesuperior" unicode="&#xb9;" 
d="M339 646v-346h104v-42h-253v42h106v294l-94 -42l-17 38l127 56h27z" />
    <glyph glyph-name="ordmasculine" unicode="&#xba;" 
d="M179 477q0 57 37 91.5t96 34.5t96 -34.5t37 -91.5q0 -56 -37 -90t-96 -34t-96 34t-37 90zM220 478q0 -39 25.5 -63.5t66.5 -24.5t66.5 24.5t25.5 63.5t-25.5 63.5t-66.5 24.5t-66.5 -24.5t-25.5 -63.5zM439 277h-254v37h254v-37z" />
    <glyph glyph-name="guillemotright" unicode="&#xbb;" horiz-adv-x="554" 
d="M164 52h-112l141 228l-141 226h112l142 -226zM362 52h-112l139 228l-139 226h112l140 -226z" />
    <glyph glyph-name="onequarter" unicode="&#xbc;" 
d="M612 48v-39h-56v-52h56v-37h-165v37h70v52h-165v42l154 257h50v-260h56zM515 251l-120 -203h122v203h-2zM159 647v-349h79v-39h-198v39h80v300l-76 -31l-17 35l107 45h25zM92 -94l-30 23l531 729l29 -20z" />
    <glyph glyph-name="onehalf" unicode="&#xbd;" 
d="M152 647v-349h79v-39h-199v39h80v300l-76 -31l-16 35l108 45h24zM78 -94l-29 23l529 729l30 -20zM614 -80h-239v40l4.5 4.5t4.5 3.5t15 13l36 33l44.5 42l31.5 30.5l22 21t17 18.5q15 18 19.5 32.5t4.5 31.5q0 34 -22.5 55.5t-56.5 21.5q-27 0 -48.5 -15t-21.5 -36
q0 -2 0.5 -4.5t0.5 -7.5h-39v47q45 56 110 56q25 0 47 -9t37.5 -24.5t24.5 -37t9 -46.5q0 -36 -21.5 -70.5t-77.5 -84.5l-65 -57l-19 -19h146v60h36v-99z" />
    <glyph glyph-name="threequarters" unicode="&#xbe;" 
d="M522 251l-120 -203h122v203h-2zM619 48v-39h-55v-52h55v-37h-165v37h70v52h-165v42l155 257h50v-260h55zM30 604q38 24 61.5 33.5t49.5 9.5q23 0 43.5 -8t35.5 -21t23.5 -31t8.5 -39q0 -26 -10 -45t-32 -37q60 -34 60 -98q0 -52 -36 -84.5t-93 -32.5q-11 0 -21 1t-21.5 4
t-25 7.5t-31.5 12.5l-19 7l15 36q36 -16 59.5 -22.5t46.5 -6.5q37 0 61 21.5t24 56.5q0 36 -22 56t-66 18l-22 -1v38q27 1 40 4t24 11q27 19 27 53q0 27 -19 43.5t-50 16.5q-17 0 -34 -6t-41 -21l-16 -9zM99 -94l-29 23l530 729l29 -20z" />
    <glyph glyph-name="questiondown" unicode="&#xbf;" 
d="M493 -109q-27 -10 -48.5 -16.5t-40.5 -11t-38.5 -7t-41.5 -2.5q-49 0 -86.5 15t-62.5 38t-37.5 54t-12.5 64q0 46 19.5 76.5t48.5 50.5t61.5 31t58.5 19v62h51v-101q-2 -1 -9 -2.5l-12 -2.5q-26 -6 -55 -15t-53 -24t-40 -38.5t-16 -58.5q0 -16 6 -36t22.5 -38.5
t44.5 -30.5t71 -12q39 0 65.5 7.5t52.5 17.5v67h52v-106zM342 340q-30 0 -51 18t-21 46t21.5 46t50.5 18t50.5 -18t21.5 -46t-21 -46t-51 -18z" />
    <glyph glyph-name="Agrave" unicode="&#xc0;" 
d="M561 49h53v-49h-214v49h106l-59 144h-271l-58 -144h106v-49h-214v49h56l200 488h-148v49h223zM194 239h236l-118 285zM389 661h-54l-137 120h111z" />
    <glyph glyph-name="Aacute" unicode="&#xc1;" 
d="M561 49h53v-49h-214v49h106l-59 144h-271l-58 -144h106v-49h-214v49h56l200 488h-148v49h223zM194 239h236l-118 285zM224 661l92 120h111l-148 -120h-55z" />
    <glyph glyph-name="Acircumflex" unicode="&#xc2;" 
d="M561 49h53v-49h-214v49h106l-59 144h-271l-58 -144h106v-49h-214v49h56l200 488h-148v49h223zM194 239h236l-118 285zM445 686l-33 -26l-105 69l-95 -69l-34 25l91 99h80z" />
    <glyph glyph-name="Atilde" unicode="&#xc3;" 
d="M561 49h53v-49h-214v49h106l-59 144h-271l-58 -144h106v-49h-214v49h56l200 488h-148v49h223zM194 239h236l-118 285zM478 769q-2 -3 -2 -8q-12 -43 -40 -65.5t-62 -22.5q-17 0 -33.5 7t-39.5 26q-25 19 -35.5 24.5t-22.5 5.5q-20 0 -32.5 -16.5t-21.5 -37.5q0 -1 -1 -4
l-1 -2l-41 15q14 39 36.5 65.5t60.5 26.5q25 0 43 -10.5t34 -24.5q20 -15 33 -21.5t25 -6.5q13 0 23 6.5t17 16.5t11.5 20.5t7.5 18.5z" />
    <glyph glyph-name="Adieresis" unicode="&#xc4;" 
d="M561 49h53v-49h-214v49h106l-59 144h-271l-58 -144h106v-49h-214v49h56l200 488h-148v49h223zM194 239h236l-118 285zM282 784v-112h-75v112h75zM417 784v-112h-75v112h75z" />
    <glyph glyph-name="Aring" unicode="&#xc5;" 
d="M561 49h53v-49h-214v49h106l-59 144h-271l-58 -144h106v-49h-214v49h56l200 488h-148v49h223zM194 239h236l-118 285zM312 806q33 0 56 -23t23 -56t-23 -56t-56 -23t-56 23t-23 56t23 56t56 23zM313 766q-17 0 -29 -10t-12 -29q0 -17 12 -28.5t29 -11.5t28 11.5t11 28.5
t-11 28t-28 11z" />
    <glyph glyph-name="AE" unicode="&#xc6;" 
d="M571 398h-47l-9 139h-149v-202h68v76h48v-201h-48v76h-68v-237h158l6 144h48v-193h-264v191h-128l-59 -142h92v-49h-199v49h55l196 488h-107v49h407v-188zM312 524l-108 -284h110v284h-2z" />
    <glyph glyph-name="Ccedilla" unicode="&#xc7;" 
d="M368 -26q11 0 23.5 -4t23 -12.5t18.5 -20.5t8 -27q0 -5 -2 -14.5t-10 -20t-25 -18.5t-46 -8q-39 0 -69.5 6.5l-45.5 9.5l8 46q20 -6 46 -10.5t62 -4.5h7q8 0 17 3t9 11q0 14 -22.5 18.5t-52.5 7.5l6 46q-73 8 -122.5 41t-79 79.5t-42 99t-12.5 98.5q0 67 21 123
t58.5 96.5t88.5 62t110 21.5q17 0 49 -4.5t66 -25.5q2 -2 7 -6l11 -9t11 -8t7 -3q3 0 5.5 5t4.5 13t3.5 16.5t2.5 15.5h38q-2 -66 1.5 -111.5t9.5 -87.5l-49 -8q-3 18 -10 45.5t-24 53t-49 44t-86 18.5q-39 0 -78 -15t-71 -45.5t-51.5 -78t-19.5 -111.5q0 -50 12.5 -98
t40 -85.5t70 -60.5t101.5 -23q44 0 81.5 12t67 29.5t52 35.5l35.5 29l35 -37q-53 -50 -115.5 -82t-134.5 -39v-8z" />
    <glyph glyph-name="Egrave" unicode="&#xc8;" 
d="M557 394h-47l-11 143h-299v-203h168v76h48v-200h-48v75h-168v-236h310l5 142h48v-191h-504v49h89v488h-89v49h494zM389 661h-54l-137 120h111z" />
    <glyph glyph-name="Eacute" unicode="&#xc9;" 
d="M557 394h-47l-11 143h-299v-203h168v76h48v-200h-48v75h-168v-236h310l5 142h48v-191h-504v49h89v488h-89v49h494zM224 661l92 120h111l-148 -120h-55z" />
    <glyph glyph-name="Ecircumflex" unicode="&#xca;" 
d="M557 394h-47l-11 143h-299v-203h168v76h48v-200h-48v75h-168v-236h310l5 142h48v-191h-504v49h89v488h-89v49h494zM445 686l-33 -26l-105 69l-95 -69l-34 25l91 99h80z" />
    <glyph glyph-name="Edieresis" unicode="&#xcb;" 
d="M557 394h-47l-11 143h-299v-203h168v76h48v-200h-48v75h-168v-236h310l5 142h48v-191h-504v49h89v488h-89v49h494zM282 784v-112h-75v112h75zM417 784v-112h-75v112h75z" />
    <glyph glyph-name="Igrave" unicode="&#xcc;" 
d="M520 537h-182v-488h182v-49h-416v49h182v488h-182v49h416v-49zM389 661h-54l-137 120h111z" />
    <glyph glyph-name="Iacute" unicode="&#xcd;" 
d="M520 537h-182v-488h182v-49h-416v49h182v488h-182v49h416v-49zM224 661l92 120h111l-148 -120h-55z" />
    <glyph glyph-name="Icircumflex" unicode="&#xce;" 
d="M520 537h-182v-488h182v-49h-416v49h182v488h-182v49h416v-49zM445 686l-33 -26l-105 69l-95 -69l-34 25l91 99h80z" />
    <glyph glyph-name="Idieresis" unicode="&#xcf;" 
d="M520 537h-182v-488h182v-49h-416v49h182v488h-182v49h416v-49zM282 784v-112h-75v112h75zM417 784v-112h-75v112h75z" />
    <glyph glyph-name="Eth" unicode="&#xd0;" 
d="M35 334h83v203h-83v49h260q35 0 64.5 -3t55 -10.5t49 -23t45.5 -41.5q22 -29 35 -59t19.5 -58t8 -51t1.5 -36q0 -94 -26.5 -152.5t-59.5 -91.5q-24 -23 -52 -34.5t-55 -17.5t-50.5 -7t-38.5 -1h-256v49h83v236h-83v49zM170 49h121q14 0 32.5 0.5t40 5t43 14.5t40.5 29
q28 28 49 79.5t21 123.5q-1 48 -10 82.5t-21.5 58t-26.5 38.5t-25 24q-27 21 -60 27t-78 6h-126v-203h172v-49h-172v-236z" />
    <glyph glyph-name="Ntilde" unicode="&#xd1;" 
d="M480 44h19v493h-116v49h232v-49h-68v-551h-93l-278 551h-18v-488h118v-49h-247v49h81v488h-81v49h178zM478 769q-2 -3 -2 -8q-12 -43 -40 -65.5t-62 -22.5q-17 0 -33.5 7t-39.5 26q-25 19 -35.5 24.5t-22.5 5.5q-20 0 -32.5 -16.5t-21.5 -37.5q0 -1 -1 -4l-1 -2l-41 15
q14 39 36.5 65.5t60.5 26.5q25 0 43 -10.5t34 -24.5q20 -15 33 -21.5t25 -6.5q13 0 23 6.5t17 16.5t11.5 20.5t7.5 18.5z" />
    <glyph glyph-name="Ograve" unicode="&#xd2;" 
d="M45 292q0 65 18.5 121.5t53.5 98.5t84.5 66.5t110.5 24.5q62 0 111.5 -25t84.5 -67.5t53 -98.5t18 -120q0 -62 -18.5 -119t-53 -99t-84 -67t-111.5 -25q-61 0 -110.5 24.5t-84.5 66.5t-53.5 98.5t-18.5 120.5zM101 293q0 -47 13.5 -93t40 -83t66 -60t91.5 -23
q51 0 90.5 22.5t66.5 59t40.5 82.5t13.5 95t-14 96t-41 83t-66 57.5t-90 21.5q-54 0 -93.5 -23.5t-65.5 -60t-39 -83t-13 -91.5zM389 661h-54l-137 120h111z" />
    <glyph glyph-name="Oacute" unicode="&#xd3;" 
d="M45 292q0 65 18.5 121.5t53.5 98.5t84.5 66.5t110.5 24.5q62 0 111.5 -25t84.5 -67.5t53 -98.5t18 -120q0 -62 -18.5 -119t-53 -99t-84 -67t-111.5 -25q-61 0 -110.5 24.5t-84.5 66.5t-53.5 98.5t-18.5 120.5zM101 293q0 -47 13.5 -93t40 -83t66 -60t91.5 -23
q51 0 90.5 22.5t66.5 59t40.5 82.5t13.5 95t-14 96t-41 83t-66 57.5t-90 21.5q-54 0 -93.5 -23.5t-65.5 -60t-39 -83t-13 -91.5zM224 661l92 120h111l-148 -120h-55z" />
    <glyph glyph-name="Ocircumflex" unicode="&#xd4;" 
d="M45 292q0 65 18.5 121.5t53.5 98.5t84.5 66.5t110.5 24.5q62 0 111.5 -25t84.5 -67.5t53 -98.5t18 -120q0 -62 -18.5 -119t-53 -99t-84 -67t-111.5 -25q-61 0 -110.5 24.5t-84.5 66.5t-53.5 98.5t-18.5 120.5zM101 293q0 -47 13.5 -93t40 -83t66 -60t91.5 -23
q51 0 90.5 22.5t66.5 59t40.5 82.5t13.5 95t-14 96t-41 83t-66 57.5t-90 21.5q-54 0 -93.5 -23.5t-65.5 -60t-39 -83t-13 -91.5zM445 686l-33 -26l-105 69l-95 -69l-34 25l91 99h80z" />
    <glyph glyph-name="Otilde" unicode="&#xd5;" 
d="M45 292q0 65 18.5 121.5t53.5 98.5t84.5 66.5t110.5 24.5q62 0 111.5 -25t84.5 -67.5t53 -98.5t18 -120q0 -62 -18.5 -119t-53 -99t-84 -67t-111.5 -25q-61 0 -110.5 24.5t-84.5 66.5t-53.5 98.5t-18.5 120.5zM101 293q0 -47 13.5 -93t40 -83t66 -60t91.5 -23
q51 0 90.5 22.5t66.5 59t40.5 82.5t13.5 95t-14 96t-41 83t-66 57.5t-90 21.5q-54 0 -93.5 -23.5t-65.5 -60t-39 -83t-13 -91.5zM478 769q-2 -3 -2 -8q-12 -43 -40 -65.5t-62 -22.5q-17 0 -33.5 7t-39.5 26q-25 19 -35.5 24.5t-22.5 5.5q-20 0 -32.5 -16.5t-21.5 -37.5
q0 -1 -1 -4l-1 -2l-41 15q14 39 36.5 65.5t60.5 26.5q25 0 43 -10.5t34 -24.5q20 -15 33 -21.5t25 -6.5q13 0 23 6.5t17 16.5t11.5 20.5t7.5 18.5z" />
    <glyph glyph-name="Odieresis" unicode="&#xd6;" 
d="M45 292q0 65 18.5 121.5t53.5 98.5t84.5 66.5t110.5 24.5q62 0 111.5 -25t84.5 -67.5t53 -98.5t18 -120q0 -62 -18.5 -119t-53 -99t-84 -67t-111.5 -25q-61 0 -110.5 24.5t-84.5 66.5t-53.5 98.5t-18.5 120.5zM101 293q0 -47 13.5 -93t40 -83t66 -60t91.5 -23
q51 0 90.5 22.5t66.5 59t40.5 82.5t13.5 95t-14 96t-41 83t-66 57.5t-90 21.5q-54 0 -93.5 -23.5t-65.5 -60t-39 -83t-13 -91.5zM282 784v-112h-75v112h75zM417 784v-112h-75v112h75z" />
    <glyph glyph-name="multiply" unicode="&#xd7;" 
d="M160 508l152 -152l152 152l37 -37l-153 -153l153 -152l-37 -37l-152 153l-152 -153l-37 37l153 152l-153 153z" />
    <glyph glyph-name="Oslash" unicode="&#xd8;" 
d="M67 4l52 68q-14 17 -27.5 38.5t-24 48t-16.5 59.5t-6 73q0 65 18.5 121.5t53.5 99t84.5 67t111.5 24.5q35 0 61.5 -6.5t47 -16.5t34.5 -21.5t26 -19.5l40 51l36 -27l-45 -59q25 -30 38.5 -64t19.5 -65.5t7 -54.5t1 -30q0 -61 -18 -117.5t-52.5 -98.5t-83.5 -67t-109 -25
q-31 0 -73 9.5t-89 46.5l-52 -62zM184 81q7 -6 18 -14t26.5 -15t36 -12.5t47.5 -5.5q48 0 87 20.5t66.5 55.5t42.5 81.5t15 99.5q0 92 -46 168zM448 496q-15 18 -33.5 29t-36.5 16.5t-36 7.5t-31 2q-50 0 -89 -21.5t-66 -57.5t-41 -82.5t-14 -95.5q0 -14 2 -36.5t8.5 -47.5
t16.5 -50t26 -44z" />
    <glyph glyph-name="Ugrave" unicode="&#xd9;" 
d="M258 537h-106v-294q0 -32 2.5 -68.5t17.5 -66.5q14 -31 46.5 -52.5t92.5 -21.5q61 0 94 18.5t47 47.5q16 28 18.5 63t2.5 70v304h-106v49h233v-49h-75v-304q0 -40 -2.5 -67.5t-7.5 -47.5t-12 -34t-15 -26q-9 -12 -24.5 -25t-37.5 -24.5t-51 -19t-63 -7.5q-19 0 -42.5 3.5
t-47 12.5t-46.5 24.5t-41 40.5q-13 19 -20.5 43t-10.5 48.5t-3.5 48t-0.5 40.5v294h-75v49h233v-49zM389 661h-54l-137 120h111z" />
    <glyph glyph-name="Uacute" unicode="&#xda;" 
d="M258 537h-106v-294q0 -32 2.5 -68.5t17.5 -66.5q14 -31 46.5 -52.5t92.5 -21.5q61 0 94 18.5t47 47.5q16 28 18.5 63t2.5 70v304h-106v49h233v-49h-75v-304q0 -40 -2.5 -67.5t-7.5 -47.5t-12 -34t-15 -26q-9 -12 -24.5 -25t-37.5 -24.5t-51 -19t-63 -7.5q-19 0 -42.5 3.5
t-47 12.5t-46.5 24.5t-41 40.5q-13 19 -20.5 43t-10.5 48.5t-3.5 48t-0.5 40.5v294h-75v49h233v-49zM224 661l92 120h111l-148 -120h-55z" />
    <glyph glyph-name="Ucircumflex" unicode="&#xdb;" 
d="M258 537h-106v-294q0 -32 2.5 -68.5t17.5 -66.5q14 -31 46.5 -52.5t92.5 -21.5q61 0 94 18.5t47 47.5q16 28 18.5 63t2.5 70v304h-106v49h233v-49h-75v-304q0 -40 -2.5 -67.5t-7.5 -47.5t-12 -34t-15 -26q-9 -12 -24.5 -25t-37.5 -24.5t-51 -19t-63 -7.5q-19 0 -42.5 3.5
t-47 12.5t-46.5 24.5t-41 40.5q-13 19 -20.5 43t-10.5 48.5t-3.5 48t-0.5 40.5v294h-75v49h233v-49zM445 686l-33 -26l-105 69l-95 -69l-34 25l91 99h80z" />
    <glyph glyph-name="Udieresis" unicode="&#xdc;" 
d="M258 537h-106v-294q0 -32 2.5 -68.5t17.5 -66.5q14 -31 46.5 -52.5t92.5 -21.5q61 0 94 18.5t47 47.5q16 28 18.5 63t2.5 70v304h-106v49h233v-49h-75v-304q0 -40 -2.5 -67.5t-7.5 -47.5t-12 -34t-15 -26q-9 -12 -24.5 -25t-37.5 -24.5t-51 -19t-63 -7.5q-19 0 -42.5 3.5
t-47 12.5t-46.5 24.5t-41 40.5q-13 19 -20.5 43t-10.5 48.5t-3.5 48t-0.5 40.5v294h-75v49h233v-49zM282 784v-112h-75v112h75zM417 784v-112h-75v112h75z" />
    <glyph glyph-name="Yacute" unicode="&#xdd;" 
d="M237 537h-79l157 -258l155 258h-81v49h202v-49h-66l-186 -310v-178h123v-49h-299v49h124v178l-188 310h-66v49h204v-49zM224 661l92 120h111l-148 -120h-55z" />
    <glyph glyph-name="Thorn" unicode="&#xde;" 
d="M328 0h-254v49h84v488h-84v49h254v-49h-118v-53h57q48 0 81 -1t56 -5t40.5 -10t33.5 -17q34 -20 55.5 -58t21.5 -86q0 -47 -21.5 -88t-55.5 -60q-18 -11 -36 -17.5t-41 -9.5t-55 -3.5t-79 -0.5h-57v-79h118v-49zM210 177h59q64 0 111.5 3t75.5 25q14 11 28.5 36t14.5 63
q0 42 -20.5 71t-41.5 39q-10 5 -20 8.5t-24 6.5t-33.5 4.5t-47.5 1.5h-102v-258z" />
    <glyph glyph-name="germandbls" unicode="&#xdf;" 
d="M147 469q0 42 14 75.5t37.5 57t53.5 36t63 12.5q34 0 62 -12t46.5 -32t29 -47.5t10.5 -57.5q0 -47 -25 -82t-62 -50q15 -5 41.5 -16t52 -33.5t45 -59t19.5 -93.5q0 -34 -11 -65.5t-33 -55.5t-53.5 -38.5t-73.5 -14.5q-51 0 -79 13t-41 21v54q19 -11 48 -23.5t71 -12.5
q19 0 39 6.5t37.5 21.5t28 39.5t10.5 60.5q0 158 -210 166v48q11 1 34 4t47 14.5t42.5 33.5t18.5 61q0 42 -24 70t-72 28q-20 0 -40 -7t-37 -22.5t-27 -42t-10 -65.5v-461h-131v49h79v420z" />
    <glyph glyph-name="agrave" unicode="&#xe0;" 
d="M572 49v-49h-145v75q-15 -15 -36.5 -31t-46.5 -29t-54 -21.5t-61 -8.5q-40 0 -70.5 13t-52.5 34t-33.5 47t-11.5 53q0 21 10.5 48t35.5 51.5t67.5 41t107.5 16.5q3 0 17.5 -0.5t35 -2t45 -4t47.5 -6.5v32q0 12 -2 31t-13.5 36.5t-37.5 30t-72 12.5q-28 0 -72 -8.5
t-106 -35.5l-20 47q33 15 84.5 31t114.5 16q66 0 102 -19t52.5 -46t19 -53.5t2.5 -41.5v-259h93zM427 228q-17 3 -54 7t-81 4q-64 0 -99.5 -15t-52 -34t-19.5 -37t-3 -22q0 -20 8.5 -37t24 -30t35.5 -21t42 -8q12 0 32.5 3.5t46.5 14t56.5 32.5t63.5 60v83zM389 523h-54
l-137 120h111z" />
    <glyph glyph-name="aacute" unicode="&#xe1;" 
d="M572 49v-49h-145v75q-15 -15 -36.5 -31t-46.5 -29t-54 -21.5t-61 -8.5q-40 0 -70.5 13t-52.5 34t-33.5 47t-11.5 53q0 21 10.5 48t35.5 51.5t67.5 41t107.5 16.5q3 0 17.5 -0.5t35 -2t45 -4t47.5 -6.5v32q0 12 -2 31t-13.5 36.5t-37.5 30t-72 12.5q-28 0 -72 -8.5
t-106 -35.5l-20 47q33 15 84.5 31t114.5 16q66 0 102 -19t52.5 -46t19 -53.5t2.5 -41.5v-259h93zM427 228q-17 3 -54 7t-81 4q-64 0 -99.5 -15t-52 -34t-19.5 -37t-3 -22q0 -20 8.5 -37t24 -30t35.5 -21t42 -8q12 0 32.5 3.5t46.5 14t56.5 32.5t63.5 60v83zM224 523l92 120
h111l-148 -120h-55z" />
    <glyph glyph-name="acircumflex" unicode="&#xe2;" 
d="M572 49v-49h-145v75q-15 -15 -36.5 -31t-46.5 -29t-54 -21.5t-61 -8.5q-40 0 -70.5 13t-52.5 34t-33.5 47t-11.5 53q0 21 10.5 48t35.5 51.5t67.5 41t107.5 16.5q3 0 17.5 -0.5t35 -2t45 -4t47.5 -6.5v32q0 12 -2 31t-13.5 36.5t-37.5 30t-72 12.5q-28 0 -72 -8.5
t-106 -35.5l-20 47q33 15 84.5 31t114.5 16q66 0 102 -19t52.5 -46t19 -53.5t2.5 -41.5v-259h93zM427 228q-17 3 -54 7t-81 4q-64 0 -99.5 -15t-52 -34t-19.5 -37t-3 -22q0 -20 8.5 -37t24 -30t35.5 -21t42 -8q12 0 32.5 3.5t46.5 14t56.5 32.5t63.5 60v83zM425 548l-33 -26
l-105 69l-95 -69l-34 25l92 99h80z" />
    <glyph glyph-name="atilde" unicode="&#xe3;" 
d="M572 49v-49h-145v75q-15 -15 -36.5 -31t-46.5 -29t-54 -21.5t-61 -8.5q-40 0 -70.5 13t-52.5 34t-33.5 47t-11.5 53q0 21 10.5 48t35.5 51.5t67.5 41t107.5 16.5q3 0 17.5 -0.5t35 -2t45 -4t47.5 -6.5v32q0 12 -2 31t-13.5 36.5t-37.5 30t-72 12.5q-28 0 -72 -8.5
t-106 -35.5l-20 47q33 15 84.5 31t114.5 16q66 0 102 -19t52.5 -46t19 -53.5t2.5 -41.5v-259h93zM427 228q-17 3 -54 7t-81 4q-64 0 -99.5 -15t-52 -34t-19.5 -37t-3 -22q0 -20 8.5 -37t24 -30t35.5 -21t42 -8q12 0 32.5 3.5t46.5 14t56.5 32.5t63.5 60v83zM478 630
q-2 -2 -2 -7q-12 -44 -40 -66t-62 -22q-17 0 -33.5 7t-39.5 26q-25 19 -35.5 24.5t-22.5 5.5q-20 0 -32.5 -16.5t-21.5 -37.5q0 -1 -1 -4l-1 -2l-41 14q14 40 36.5 66.5t60.5 26.5q25 0 43 -10.5t34 -25.5q20 -14 33 -21t25 -7q13 0 23 7t17 17t11.5 20t7.5 19z" />
    <glyph glyph-name="adieresis" unicode="&#xe4;" 
d="M572 49v-49h-145v75q-15 -15 -36.5 -31t-46.5 -29t-54 -21.5t-61 -8.5q-40 0 -70.5 13t-52.5 34t-33.5 47t-11.5 53q0 21 10.5 48t35.5 51.5t67.5 41t107.5 16.5q3 0 17.5 -0.5t35 -2t45 -4t47.5 -6.5v32q0 12 -2 31t-13.5 36.5t-37.5 30t-72 12.5q-28 0 -72 -8.5
t-106 -35.5l-20 47q33 15 84.5 31t114.5 16q66 0 102 -19t52.5 -46t19 -53.5t2.5 -41.5v-259h93zM427 228q-17 3 -54 7t-81 4q-64 0 -99.5 -15t-52 -34t-19.5 -37t-3 -22q0 -20 8.5 -37t24 -30t35.5 -21t42 -8q12 0 32.5 3.5t46.5 14t56.5 32.5t63.5 60v83zM262 646v-112
h-75v112h75zM397 646v-112h-75v112h75z" />
    <glyph glyph-name="aring" unicode="&#xe5;" 
d="M572 49v-49h-145v75q-15 -15 -36.5 -31t-46.5 -29t-54 -21.5t-61 -8.5q-40 0 -70.5 13t-52.5 34t-33.5 47t-11.5 53q0 21 10.5 48t35.5 51.5t67.5 41t107.5 16.5q3 0 17.5 -0.5t35 -2t45 -4t47.5 -6.5v32q0 12 -2 31t-13.5 36.5t-37.5 30t-72 12.5q-28 0 -72 -8.5
t-106 -35.5l-20 47q33 15 84.5 31t114.5 16q66 0 102 -19t52.5 -46t19 -53.5t2.5 -41.5v-259h93zM427 228q-17 3 -54 7t-81 4q-64 0 -99.5 -15t-52 -34t-19.5 -37t-3 -22q0 -20 8.5 -37t24 -30t35.5 -21t42 -8q12 0 32.5 3.5t46.5 14t56.5 32.5t63.5 60v83zM312 668
q33 0 56 -23t23 -56q0 -34 -23 -56.5t-56 -22.5t-56 22.5t-23 56.5q0 33 23 56t56 23zM313 628q-17 0 -29 -10.5t-12 -28.5q0 -17 12 -28.5t29 -11.5t28 11.5t11 28.5q0 16 -11 27.5t-28 11.5z" />
    <glyph glyph-name="ae" unicode="&#xe6;" 
d="M333 211q2 -45 7 -75t26 -57q24 -31 49 -37.5t39 -6.5q32 0 62 7.5t56 15.5l19 -44q-56 -20 -90.5 -24.5t-48.5 -4.5q-31 0 -54 9.5t-39 22t-26 25.5l-15 20q-24 -24 -46 -39.5t-42 -23.5t-36.5 -11.5t-30.5 -3.5q-31 0 -55 11.5t-40.5 31t-25 44t-8.5 50.5t10.5 54
t31 50.5t51.5 37t74 14.5q17 0 34 -3t46 -7v37q0 27 -3 48t-11.5 35.5t-23 22.5t-38.5 8q-27 0 -54 -6t-71 -22l-14 46q43 16 75.5 24t64.5 8q28 0 47 -6t31.5 -17t20.5 -25t13 -30q9 10 19.5 24t26 25.5t34.5 20t44 8.5q4 0 17 -1.5t30 -9t35.5 -23t33 -44t23 -72
t5.5 -107.5h-253zM281 217q-27 6 -44.5 8t-34.5 2q-36 0 -58 -11.5t-35 -27.5t-18 -35t-5 -32q0 -16 5 -31t14 -27.5t23 -20.5t34 -8q19 0 37 6.5t33.5 16t27.5 19t21 17.5v124zM534 260q-3 78 -26 118t-67 40q-27 0 -46 -14t-30 -28q-23 -28 -27 -55.5t-5 -60.5h201z" />
    <glyph glyph-name="ccedilla" unicode="&#xe7;" 
d="M343 -27q22 -5 32.5 -22.5t10.5 -34.5q0 -9 -3 -20t-10 -21.5t-19 -17.5t-31 -7q-20 0 -33.5 7.5t-26.5 15.5l23 39q17 -12 21.5 -14t11.5 -2q13 0 16.5 7t3.5 12q0 13 -9 15t-13 2q-8 0 -13.5 -0.5t-10.5 -1.5l4 56q-40 2 -80 18.5t-72 47t-51.5 74.5t-19.5 99
q0 41 15 83t45 76.5t77 56.5t111 22q41 0 72 -10t64 -33q1 -1 4.5 -3.5l7 -5l6.5 -4.5q2 -1 3 -2q4 0 6 5.5t3 7.5l8 43l48 -5l-5.5 -42.5t-3.5 -53.5q0 -28 3 -69l-48 -7q-8 35 -15.5 55.5t-27.5 36.5q-14 12 -31 18.5t-33 10.5t-30.5 5t-24.5 1q-50 0 -87 -16t-62 -42.5
t-37 -59.5t-12 -67t11.5 -67t35 -60t59.5 -44.5t87 -17.5q57 0 110.5 24.5t110.5 64.5l27 -40q-29 -22 -56 -38.5t-54 -29t-56 -20.5t-62 -12v-13z" />
    <glyph glyph-name="egrave" unicode="&#xe8;" 
d="M581 59q-20 -11 -48.5 -24t-61 -24t-69 -18.5t-72.5 -7.5q-64 0 -111 20t-79 52.5t-47.5 76t-15.5 89.5q0 47 17 91t49 77t77.5 52.5t102.5 19.5q60 0 104 -19t73.5 -49t44.5 -67t15 -72q0 -13 -1.5 -27.5t-1.5 -19.5h-424q1 -21 9.5 -50.5t30 -56.5t59.5 -47t99 -20
q32 0 66 8t64 19t55 23l41 20zM503 258q0 25 -10.5 52.5t-32.5 50.5t-56 37.5t-81 14.5q-52 0 -86.5 -17.5t-56.5 -42t-33 -51t-14 -44.5h370zM407 523h-54l-138 120h112z" />
    <glyph glyph-name="eacute" unicode="&#xe9;" 
d="M581 59q-20 -11 -48.5 -24t-61 -24t-69 -18.5t-72.5 -7.5q-64 0 -111 20t-79 52.5t-47.5 76t-15.5 89.5q0 47 17 91t49 77t77.5 52.5t102.5 19.5q60 0 104 -19t73.5 -49t44.5 -67t15 -72q0 -13 -1.5 -27.5t-1.5 -19.5h-424q1 -21 9.5 -50.5t30 -56.5t59.5 -47t99 -20
q32 0 66 8t64 19t55 23l41 20zM503 258q0 25 -10.5 52.5t-32.5 50.5t-56 37.5t-81 14.5q-52 0 -86.5 -17.5t-56.5 -42t-33 -51t-14 -44.5h370zM224 523l92 120h111l-148 -120h-55z" />
    <glyph glyph-name="ecircumflex" unicode="&#xea;" 
d="M581 59q-20 -11 -48.5 -24t-61 -24t-69 -18.5t-72.5 -7.5q-64 0 -111 20t-79 52.5t-47.5 76t-15.5 89.5q0 47 17 91t49 77t77.5 52.5t102.5 19.5q60 0 104 -19t73.5 -49t44.5 -67t15 -72q0 -13 -1.5 -27.5t-1.5 -19.5h-424q1 -21 9.5 -50.5t30 -56.5t59.5 -47t99 -20
q32 0 66 8t64 19t55 23l41 20zM503 258q0 25 -10.5 52.5t-32.5 50.5t-56 37.5t-81 14.5q-52 0 -86.5 -17.5t-56.5 -42t-33 -51t-14 -44.5h370zM445 548l-33 -26l-105 69l-95 -69l-34 25l91 99h80z" />
    <glyph glyph-name="edieresis" unicode="&#xeb;" 
d="M581 59q-20 -11 -48.5 -24t-61 -24t-69 -18.5t-72.5 -7.5q-64 0 -111 20t-79 52.5t-47.5 76t-15.5 89.5q0 47 17 91t49 77t77.5 52.5t102.5 19.5q60 0 104 -19t73.5 -49t44.5 -67t15 -72q0 -13 -1.5 -27.5t-1.5 -19.5h-424q1 -21 9.5 -50.5t30 -56.5t59.5 -47t99 -20
q32 0 66 8t64 19t55 23l41 20zM503 258q0 25 -10.5 52.5t-32.5 50.5t-56 37.5t-81 14.5q-52 0 -86.5 -17.5t-56.5 -42t-33 -51t-14 -44.5h370zM282 646v-112h-75v112h75zM417 646v-112h-75v112h75z" />
    <glyph glyph-name="igrave" unicode="&#xec;" 
d="M389 523h-54l-137 120h111zM340 49h180v-49h-415v49h183v349h-153v49h205v-398z" />
    <glyph glyph-name="iacute" unicode="&#xed;" 
d="M224 523l92 120h111l-148 -120h-55zM340 49h180v-49h-415v49h183v349h-153v49h205v-398z" />
    <glyph glyph-name="icircumflex" unicode="&#xee;" 
d="M445 548l-33 -26l-105 69l-95 -69l-34 25l91 99h80zM340 49h180v-49h-415v49h183v349h-153v49h205v-398z" />
    <glyph glyph-name="idieresis" unicode="&#xef;" 
d="M282 646v-112h-75v112h75zM417 646v-112h-75v112h75zM340 49h180v-49h-415v49h183v349h-153v49h205v-398z" />
    <glyph glyph-name="eth" unicode="&#xf0;" 
d="M177 537l52 79l-34.5 16t-27.5 12t-25.5 9l-28.5 9l18 51q20 -6 35 -11t29 -11l29 -12.5t34 -16.5l43 70l44 -29l-40 -64l41 -27t56 -41.5t59.5 -57.5t54 -74.5t39.5 -92t15 -110.5t-20 -107t-54.5 -78.5t-82 -48.5t-101.5 -17q-64 0 -112.5 21t-81 55t-48.5 77t-16 89
q0 57 21 101.5t55.5 76t79.5 47.5t93 16q40 0 79.5 -8.5t62.5 -19.5l2 2q-14 19 -28.5 36t-34 35t-45.5 37t-63 41l-54 -86zM110 227q0 -38 13 -72t39 -61t63.5 -43.5t86.5 -16.5q50 0 88 17t63 44t38 61t13 71q0 35 -13 70t-38.5 62t-63 43.5t-87.5 16.5q-49 0 -86.5 -16
t-63 -42.5t-39 -61.5t-13.5 -72z" />
    <glyph glyph-name="ntilde" unicode="&#xf1;" 
d="M173 389q16 12 36 25t42.5 24t47 18t53.5 7q35 0 63.5 -12.5t49 -35.5t31 -54.5t10.5 -69.5v-242h84v-49h-225v49h89v238q0 57 -27.5 90.5t-73.5 33.5q-13 0 -29.5 -2.5t-38.5 -11.5t-49.5 -25t-62.5 -44v-279h87v-49h-225v49h86v349h-86v49h138v-58zM478 630
q-2 -2 -2 -7q-12 -44 -40 -66t-62 -22q-17 0 -33.5 7t-39.5 26q-25 19 -35.5 24.5t-22.5 5.5q-20 0 -32.5 -16.5t-21.5 -37.5q0 -1 -1 -4l-1 -2l-41 14q14 40 36.5 66.5t60.5 26.5q25 0 43 -10.5t34 -25.5q20 -14 33 -21t25 -7q13 0 23 7t17 17t11.5 20t7.5 19z" />
    <glyph glyph-name="ograve" unicode="&#xf2;" 
d="M54 227q0 47 16.5 90.5t49 76.5t81 53.5t111.5 20.5q66 0 114 -21t80 -55t48 -77.5t16 -87.5q0 -45 -16 -88t-48 -77.5t-80 -55.5t-114 -21q-63 0 -111.5 20.5t-81 54.5t-49 77t-16.5 90zM110 227q0 -37 13 -71t38.5 -60.5t63.5 -42.5t87 -16q50 0 88 16.5t63 43t38 60
t13 70.5q0 35 -13 69.5t-38 61t-63 42.5t-88 16q-49 0 -86.5 -15.5t-63.5 -42t-39 -60.5t-13 -71zM389 523h-54l-137 120h111z" />
    <glyph glyph-name="oacute" unicode="&#xf3;" 
d="M54 227q0 47 16.5 90.5t49 76.5t81 53.5t111.5 20.5q66 0 114 -21t80 -55t48 -77.5t16 -87.5q0 -45 -16 -88t-48 -77.5t-80 -55.5t-114 -21q-63 0 -111.5 20.5t-81 54.5t-49 77t-16.5 90zM110 227q0 -37 13 -71t38.5 -60.5t63.5 -42.5t87 -16q50 0 88 16.5t63 43t38 60
t13 70.5q0 35 -13 69.5t-38 61t-63 42.5t-88 16q-49 0 -86.5 -15.5t-63.5 -42t-39 -60.5t-13 -71zM224 523l92 120h111l-148 -120h-55z" />
    <glyph glyph-name="ocircumflex" unicode="&#xf4;" 
d="M54 227q0 47 16.5 90.5t49 76.5t81 53.5t111.5 20.5q66 0 114 -21t80 -55t48 -77.5t16 -87.5q0 -45 -16 -88t-48 -77.5t-80 -55.5t-114 -21q-63 0 -111.5 20.5t-81 54.5t-49 77t-16.5 90zM110 227q0 -37 13 -71t38.5 -60.5t63.5 -42.5t87 -16q50 0 88 16.5t63 43t38 60
t13 70.5q0 35 -13 69.5t-38 61t-63 42.5t-88 16q-49 0 -86.5 -15.5t-63.5 -42t-39 -60.5t-13 -71zM445 548l-33 -26l-105 69l-95 -69l-34 25l91 99h80z" />
    <glyph glyph-name="otilde" unicode="&#xf5;" 
d="M54 227q0 47 16.5 90.5t49 76.5t81 53.5t111.5 20.5q66 0 114 -21t80 -55t48 -77.5t16 -87.5q0 -45 -16 -88t-48 -77.5t-80 -55.5t-114 -21q-63 0 -111.5 20.5t-81 54.5t-49 77t-16.5 90zM110 227q0 -37 13 -71t38.5 -60.5t63.5 -42.5t87 -16q50 0 88 16.5t63 43t38 60
t13 70.5q0 35 -13 69.5t-38 61t-63 42.5t-88 16q-49 0 -86.5 -15.5t-63.5 -42t-39 -60.5t-13 -71zM478 630q-2 -2 -2 -7q-12 -44 -40 -66t-62 -22q-17 0 -33.5 7t-39.5 26q-25 19 -35.5 24.5t-22.5 5.5q-20 0 -32.5 -16.5t-21.5 -37.5q0 -1 -1 -4l-1 -2l-41 14
q14 40 36.5 66.5t60.5 26.5q25 0 43 -10.5t34 -25.5q20 -14 33 -21t25 -7q13 0 23 7t17 17t11.5 20t7.5 19z" />
    <glyph glyph-name="odieresis" unicode="&#xf6;" 
d="M54 227q0 47 16.5 90.5t49 76.5t81 53.5t111.5 20.5q66 0 114 -21t80 -55t48 -77.5t16 -87.5q0 -45 -16 -88t-48 -77.5t-80 -55.5t-114 -21q-63 0 -111.5 20.5t-81 54.5t-49 77t-16.5 90zM110 227q0 -37 13 -71t38.5 -60.5t63.5 -42.5t87 -16q50 0 88 16.5t63 43t38 60
t13 70.5q0 35 -13 69.5t-38 61t-63 42.5t-88 16q-49 0 -86.5 -15.5t-63.5 -42t-39 -60.5t-13 -71zM282 646v-112h-75v112h75zM417 646v-112h-75v112h75z" />
    <glyph glyph-name="divide" unicode="&#xf7;" 
d="M312 549q19 0 33 -13t14 -34q0 -18 -13 -32t-34 -14q-20 0 -33.5 14t-13.5 32q0 21 14.5 34t32.5 13zM555 289h-486v52h486v-52zM312 175q18 0 32.5 -13t14.5 -34t-14.5 -34t-32.5 -13q-19 0 -33 13.5t-14 33.5q0 21 14 34t33 13z" />
    <glyph glyph-name="oslash" unicode="&#xf8;" 
d="M62 24l48 48q-17 22 -28 44t-17.5 43t-8.5 38.5t-2 30.5q0 44 16 88t49 77t81 54t112 21q36 0 80.5 -10t77.5 -37l51 52l40 -39l-48 -48q18 -22 29.5 -45.5t17.5 -44.5t8 -39.5t2 -29.5q0 -47 -16.5 -90.5t-49.5 -77.5t-81 -54t-109 -20q-5 0 -21.5 0.5t-39.5 5.5t-50 15
t-52 27l-48 -48zM191 71q10 -7 19.5 -12.5t23.5 -10t32.5 -8t45.5 -3.5q50 0 88 16.5t63 43t38 60t13 70.5q0 67 -42 118zM432 384l-24.5 11.5t-24.5 10.5t-30 7.5t-41 2.5q-50 0 -88 -16.5t-63.5 -43t-38 -60.5t-12.5 -69q0 -21 8 -54.5t32 -63.5z" />
    <glyph glyph-name="ugrave" unicode="&#xf9;" 
d="M171 172q0 -11 1.5 -33.5t11 -44.5t30.5 -39.5t61 -17.5q43 0 83 22t84 69v270h-89v49h141v-398h84v-49h-136v57l-27 -21.5t-36 -23.5t-45 -19t-55 -8q-49 0 -80.5 18t-49 45t-24 59.5t-6.5 64.5v226h-86v49h138v-275zM389 523h-54l-137 120h111z" />
    <glyph glyph-name="uacute" unicode="&#xfa;" 
d="M171 172q0 -11 1.5 -33.5t11 -44.5t30.5 -39.5t61 -17.5q43 0 83 22t84 69v270h-89v49h141v-398h84v-49h-136v57l-27 -21.5t-36 -23.5t-45 -19t-55 -8q-49 0 -80.5 18t-49 45t-24 59.5t-6.5 64.5v226h-86v49h138v-275zM224 523l92 120h111l-148 -120h-55z" />
    <glyph glyph-name="ucircumflex" unicode="&#xfb;" 
d="M171 172q0 -11 1.5 -33.5t11 -44.5t30.5 -39.5t61 -17.5q43 0 83 22t84 69v270h-89v49h141v-398h84v-49h-136v57l-27 -21.5t-36 -23.5t-45 -19t-55 -8q-49 0 -80.5 18t-49 45t-24 59.5t-6.5 64.5v226h-86v49h138v-275zM445 548l-33 -26l-105 69l-95 -69l-34 25l91 99h80z
" />
    <glyph glyph-name="udieresis" unicode="&#xfc;" 
d="M171 172q0 -11 1.5 -33.5t11 -44.5t30.5 -39.5t61 -17.5q43 0 83 22t84 69v270h-89v49h141v-398h84v-49h-136v57l-27 -21.5t-36 -23.5t-45 -19t-55 -8q-49 0 -80.5 18t-49 45t-24 59.5t-6.5 64.5v226h-86v49h138v-275zM282 646v-112h-75v112h75zM417 646v-112h-75v112h75
z" />
    <glyph glyph-name="yacute" unicode="&#xfd;" 
d="M219 398h-71l164 -316l181 316h-71v49h191v-49h-61l-291 -508h93v-49h-312v49h160l80 138l-194 370h-63v49h194v-49zM224 523l92 120h111l-148 -120h-55z" />
    <glyph glyph-name="thorn" unicode="&#xfe;" 
d="M159 373q6 10 19 24.5t35 28.5t52.5 24.5t72.5 10.5q53 0 95.5 -20t73 -52t47 -74.5t16.5 -86.5q0 -53 -20.5 -96.5t-52.5 -74t-73.5 -47.5t-83.5 -17q-6 0 -25 1.5t-45 9.5t-55 26.5t-56 51.5h-2v-196h155v-49h-292v49h85v714l-93 -4v49l145 9v-281h2zM153 231
q0 -46 17.5 -81t44.5 -58t60 -35t63 -12q35 0 67 14t56 38.5t38.5 58t14.5 73.5q0 32 -11 64.5t-33 57.5t-54.5 41.5t-76.5 16.5q-41 0 -75 -14.5t-58.5 -38.5t-38.5 -57t-14 -68z" />
    <glyph glyph-name="ydieresis" unicode="&#xff;" 
d="M25 447v-49h63l194 -370l-80 -138h-160v-49h312v49h-93l291 508h61v49h-191v-49h71l-181 -316l-164 316h71v49h-194zM207 534h75v112h-75v-112zM342 534h75v112h-75v-112z" />
    <glyph glyph-name="OE" unicode="&#x152;" 
d="M558 398h-45l-10 139h-137v-202h68v76h48v-201h-48v76h-68v-237h152l6 143h48v-192h-320q-62 0 -106 28t-72.5 70.5t-42.5 93t-14 96.5q0 62 19.5 116.5t55.5 95t86.5 63.5t111.5 23h268v-188zM287 537q-52 0 -92 -20t-67 -53.5t-41 -78.5t-14 -94q0 -38 11 -81t34 -78.5
t60 -59t90 -23.5h46v488h-27z" />
    <glyph glyph-name="oe" unicode="&#x153;" 
d="M333 213q-1 -54 11 -89t30.5 -54.5t39.5 -27.5t38 -8q34 0 66.5 8.5t53.5 14.5l19 -45q-56 -18 -89 -23t-48 -5q-9 0 -26.5 3t-38 12t-41 28.5t-36.5 53.5q-4 -9 -13 -25t-25.5 -32.5t-41.5 -28t-62 -11.5q-41 0 -68 14t-44.5 35.5t-27 47.5t-14.5 50.5t-5.5 44.5
t-0.5 29q0 50 9.5 97t30 84.5t53 60t80.5 22.5q31 0 54 -11t38.5 -25t24.5 -28.5t12 -21.5q24 43 59.5 64t69.5 21q41 0 68.5 -21.5t44.5 -53t25 -67.5t8 -65q0 -12 -0.5 -26.5t-2.5 -21.5h-251zM281 219q0 66 -8.5 105.5t-22.5 61t-31 27.5t-36 6q-32 0 -54 -19t-36 -50
t-20 -68.5t-6 -73.5q0 -29 4.5 -59.5t16 -56t31 -42t49.5 -16.5q29 0 48 11t31.5 29t19.5 39t10 42t3.5 38t0.5 26zM535 259q0 29 -5.5 57.5t-17 51.5t-29 36.5t-42.5 13.5q-8 0 -25.5 -5t-35.5 -21.5t-32 -48t-15 -84.5h202z" />
    <glyph glyph-name="Scaron" unicode="&#x160;" 
d="M527 597q-5 -24 -7 -39.5t-2 -35.5q0 -18 2 -48.5t7 -75.5l-47 -8q-2 17 -8 44t-24 54q-6 9 -16 20t-25.5 20.5t-37.5 16t-53 6.5q-40 0 -70 -12t-49 -30t-28.5 -39.5t-9.5 -41.5q0 -36 17.5 -57t42.5 -32t52 -15.5t46 -6.5q58 -6 91.5 -13t60.5 -24.5t46 -46.5t19 -74
q0 -46 -19.5 -79t-49.5 -55t-68 -32.5t-77 -10.5q-31 0 -54.5 5.5t-40.5 13t-28.5 15.5t-18.5 14q-1 1 -3.5 2.5t-4.5 1.5q-4 0 -6.5 -3t-4.5 -5q-2 -7 -3.5 -14t-5.5 -33h-47q5 25 7 48t2 34v11q0 8 -1 22t-2.5 30l-3 31.5l-2.5 26.5h47q4 -20 10.5 -45t24.5 -48
q15 -18 43.5 -36.5t84.5 -18.5q48 0 79.5 11.5t50.5 29.5t26.5 39t7.5 41q0 34 -15 54.5t-36.5 31.5t-47 15t-45.5 6q-30 3 -70 9.5t-75.5 23t-60 47t-24.5 82.5q0 36 15.5 68t43 57t65.5 39.5t83 14.5q28 0 50 -5t37.5 -12t26 -14t15.5 -11q12 -10 16.5 -12.5t7.5 -2.5
q7 0 8.5 6t6.5 31q2 11 2 14h47zM178 765l33 25l105 -67l96 68l33 -26l-91 -97h-79z" />
    <glyph glyph-name="scaron" unicode="&#x161;" 
d="M501 461q-3 -17 -6 -38.5t-3 -51.5q0 -22 1.5 -37t3.5 -28l-46 -5q-3 15 -8.5 34t-21.5 35t-47.5 27.5t-85.5 11.5q-62 0 -95.5 -22.5t-33.5 -54.5q0 -28 16 -44.5t45.5 -25t68.5 -11.5t84 -6q10 0 34.5 -3t50.5 -14.5t46 -34.5t20 -64q0 -37 -18 -65t-47 -45.5t-64 -26
t-69 -8.5q-29 0 -52.5 5t-43.5 12t-34 14.5l-23 12.5l-1 1q-2 1 -5 1q-7 0 -11 -13t-9 -31h-46l4 27t2 39q0 33 -2 59t-4 44l46 5q2 -13 8 -34t23.5 -40.5t49.5 -34.5t86 -15q16 0 42 3.5t51 12.5t43 27t18 48q0 23 -11 36.5t-30.5 20t-47 8.5t-60.5 4q-21 1 -57 4.5
t-71.5 16.5t-61.5 39.5t-26 73.5q0 28 13.5 52t37.5 41.5t58 27.5t75 10q47 0 76 -11t44 -19q2 -3 9 -6.5t14 -3.5q8 0 12 10l6 15q2 11 3 14t3 8zM178 627l33 25l105 -68l96 69l33 -26l-91 -98h-79z" />
    <glyph glyph-name="Ydieresis" unicode="&#x178;" 
d="M237 537h-79l157 -258l155 258h-81v49h202v-49h-66l-186 -310v-178h123v-49h-299v49h124v178l-188 310h-66v49h204v-49zM282 784v-112h-75v112h75zM417 784v-112h-75v112h75z" />
    <glyph glyph-name="Zcaron" unicode="&#x17d;" 
d="M513 543l-363 -494h338v168h49v-217h-450v49l359 488h-302v-152h-49v201h418v-43zM178 765l33 25l105 -67l96 68l33 -26l-91 -97h-79z" />
    <glyph glyph-name="zcaron" unicode="&#x17e;" 
d="M516 402l-337 -353h288v96h49v-145h-408v49l334 349h-275v-92h-48v141h397v-45zM178 627l33 25l105 -68l96 69l33 -26l-91 -98h-79z" />
    <glyph glyph-name="florin" unicode="&#x192;" 
d="M524 633q-13 3 -31.5 6t-43.5 3q-59 0 -90.5 -15t-47 -37t-18 -46.5t-2.5 -44.5v-57h183v-44h-183v-345q0 -36 -8 -62.5t-38 -48.5q-34 -26 -78.5 -35.5t-89.5 -9.5q-14 0 -27.5 1t-24.5 3l4 52q16 -2 34.5 -4t36.5 -2q34 0 70.5 9.5t53.5 28.5q11 15 13 35t2 40v338
h-111v44h111v62q0 23 5.5 55.5t27.5 61.5t67 49.5t124 20.5q46 0 66 -5z" />
    <glyph glyph-name="circumflex" unicode="&#x2c6;" 
d="M445 548l-33 -26l-105 69l-95 -69l-34 25l91 99h80z" />
    <glyph glyph-name="tilde" unicode="&#x2dc;" 
d="M478 630q-2 -2 -2 -7q-12 -44 -40 -66t-62 -22q-17 0 -33.5 7t-39.5 26q-25 19 -35.5 24.5t-22.5 5.5q-20 0 -32.5 -16.5t-21.5 -37.5q0 -1 -1 -4l-1 -2l-41 14q14 40 36.5 66.5t60.5 26.5q25 0 43 -10.5t34 -25.5q20 -14 33 -21t25 -7q13 0 23 7t17 17t11.5 20t7.5 19z
" />
    <glyph glyph-name="uni1200" unicode="&#x1200;" horiz-adv-x="655" 
d="M94 624l-52 54l78 51l104 -103v-495l97 -63l111 61v496l-52 52l78 52l104 -105v-520l52 -51l-78 -52l-104 104v13l-208 -117l-130 78v545z" />
    <glyph glyph-name="uni1201" unicode="&#x1201;" horiz-adv-x="846" 
d="M562 380l86 31v60l-26 26l52 26l104 -52v-130l26 -26l-52 -26l-104 52v60l-86 -31v-267l52 -51l-78 -52l-104 104v12l-208 -116l-130 78v545l-52 54l78 51l104 -103v-495l97 -63l111 61v496l-52 52l78 52l104 -105v-243z" />
    <glyph glyph-name="uni1202" unicode="&#x1202;" horiz-adv-x="837" 
d="M540 105l48 -48l52 33v56l-26 26l52 26l104 -52v-130l26 -26l-52 -26l-104 52v63l-124 -79l-106 104v276l-186 -117l-130 78v281l-52 54l78 51l104 -103v-231l97 -58l89 56v232l-52 52l78 52l104 -105v-517z" />
    <glyph glyph-name="uni1203" unicode="&#x1203;" horiz-adv-x="633" 
d="M94 625l-52 54l78 51l104 -103v-206l97 -58l89 56v207l-52 52l78 52l104 -105v-518l52 -51l-78 -52l-104 104v300l-186 -117l-130 78v256z" />
    <glyph glyph-name="uni1204" unicode="&#x1204;" horiz-adv-x="728" 
d="M589 41v218l-24 9l-25 -9v-200l30 -29zM540 264l64 24l66 -29v-230l16 -14l-33 -15l-64 29v5l-66 -34l-113 76v332l-186 -117l-130 78v252l-52 54l78 51l104 -103v-202l91 -60l95 58v203l-52 52l78 52l104 -105v-357z" />
    <glyph glyph-name="uni1205" unicode="&#x1205;" horiz-adv-x="655" 
d="M224 625v-495l97 -63l111 61v496l-52 52l78 52l104 -105v-520l52 -51l-78 -52l-104 104v12l-208 -116l-130 78v250l117 37v46l-117 36v176l-52 54l78 51z" />
    <glyph glyph-name="uni1206" unicode="&#x1206;" horiz-adv-x="790" 
d="M562 462v-359l52 -51l-78 -52l-104 104v12l-208 -116l-130 78v545l-52 54l78 51l104 -103v-495l97 -63l111 61v465l-52 52l279 99l68 -59v-203l22 -19l-45 -19l-87 38v7zM562 700v-226l55 24v179l-30 31z" />
    <glyph glyph-name="uni1208" unicode="&#x1208;" horiz-adv-x="635" 
d="M542 92l52 -47l-79 -44l-104 88v285l-95 52l-91 -50v-286l53 -44l-79 -45l-105 91v544l-52 44l79 45l104 -90v-249l186 100l131 -67v-327z" />
    <glyph glyph-name="uni1209" unicode="&#x1209;" horiz-adv-x="803" 
d="M537 289l68 25v52l-25 23l51 22l104 -45v-112l26 -23l-52 -23l-104 46v52l-68 -25v-189l52 -48l-78 -44l-104 89v289l-94 52l-89 -50v-290l51 -45l-77 -45l-104 92v551l-52 43l78 46l104 -90v-253l183 101l130 -68v-133z" />
    <glyph glyph-name="uni120A" unicode="&#x120a;" horiz-adv-x="833" 
d="M538 86l45 -42l52 29v49l-26 22l52 22l104 -44v-113l26 -23l-52 -22l-104 45v54l-123 -67l-104 88v288l-94 53l-90 -51v-289l52 -44l-78 -45l-104 90v552l-52 43l78 46l104 -91v-252l184 102l130 -68v-332z" />
    <glyph glyph-name="uni120B" unicode="&#x120b;" horiz-adv-x="629" 
d="M536 89l52 -47l-78 -44l-103 89v288l-94 52l-90 -49v-160l52 -44l-78 -45l-103 90v422l-52 43l78 46l103 -90v-253l184 101l129 -68v-331z" />
    <glyph glyph-name="uni120C" unicode="&#x120c;" horiz-adv-x="816" 
d="M541 266l103 36l105 -45v-210l26 -23l-52 -22l-105 45v8l-103 -53l-105 88v286l-95 52l-90 -49v-287l52 -45l-78 -45l-105 91v547l-52 43l78 45l105 -89v-251l185 101l131 -68v-155zM618 63v194l-38 15l-39 -13v-167l49 -43z" />
    <glyph glyph-name="uni120D" unicode="&#x120d;" horiz-adv-x="727" 
d="M685 42l-81 -42l-103 88v278l-119 66l-159 -54v-112l103 35l104 -45v-211l26 -22l-52 -23l-104 45v8l-22 -10l-80 -43l-104 90v549l-52 44l78 45l103 -89v-252l278 101l129 -68l-1 -331zM274 49l26 12v195l-38 14l-39 -13v-168z" />
    <glyph glyph-name="uni120E" unicode="&#x120e;" horiz-adv-x="981" 
d="M631 314l-95 -28v-196l52 -46l-78 -44l-103 89v287l-94 52l-90 -49v-290l52 -44l-78 -45l-103 90v551l-52 44l78 45l103 -90v-252l184 101l129 -68v-124l95 29v59l-35 12l58 19l88 -32v-8l87 24l88 -31v-168l22 -17l-45 -16l-87 33v6l-18 -9l-69 -30l-89 66v80zM785 203
l22 9v157l-31 12l-34 -11v-137z" />
    <glyph glyph-name="uni120F" unicode="&#x120f;" horiz-adv-x="766" 
d="M603 17v-62l99 -42l49 21l-25 21v107l-98 42l-49 -21l24 -21v-33l-67 -6v386l-129 67l-184 -101v253l-103 91l-78 -46l52 -44v-421l103 -90l78 44l-52 45v159l90 50l94 -52v-354l-54 -4v49l-98 42l-49 -21l25 -21v-107l98 -43l49 22l-25 21v45z" />
    <glyph glyph-name="uni1210" unicode="&#x1210;" horiz-adv-x="833" 
d="M343 414l-135 -62v-263l52 -44l-78 -45l-104 90v283l-52 29l78 45l104 -75v-11l135 62v216l-52 44l78 45l104 -89v-253l146 89l130 -67v-318l52 -46l-78 -44l-104 88v275l-89 49l-57 -36v-287l52 -44l-78 -45l-104 90v324z" />
    <glyph glyph-name="uni1211" unicode="&#x1211;" horiz-adv-x="1014" 
d="M749 259l87 35v52l-26 22l52 23l104 -45v-112l26 -23l-52 -22l-104 45v52l-87 -35v-161l52 -46l-78 -44l-104 88v275l-89 49l-57 -36v-287l52 -44l-78 -45l-104 90v324l-135 -62v-263l52 -44l-78 -45l-104 90v283l-52 29l78 45l104 -75v-11l135 62v216l-52 44l78 45
l104 -89v-253l146 89l130 -67v-149z" />
    <glyph glyph-name="uni1212" unicode="&#x1212;" horiz-adv-x="1033" 
d="M749 86l46 -41l52 29v48l-26 23l52 22l104 -45v-113l26 -23l-52 -22l-104 45v55l-124 -69l-104 90v277l-89 49l-57 -36v-289l52 -45l-78 -46l-104 91v328l-135 -64v-264l52 -45l-78 -46l-104 91v286l-52 30l78 45l104 -76v-11l135 63v218l-52 44l78 46l104 -90v-255
l146 89l130 -67v-322z" />
    <glyph glyph-name="uni1213" unicode="&#x1213;" horiz-adv-x="833" 
d="M343 414l-135 -62v-164l52 -44l-78 -45l-104 90v184l-52 29l78 45l104 -75v-11l135 62v216l-52 44l78 45l104 -89v-253l146 89l130 -67v-318l52 -46l-78 -44l-104 88v275l-89 49l-57 -36v-188l52 -44l-78 -45l-104 90v225z" />
    <glyph glyph-name="uni1214" unicode="&#x1214;" horiz-adv-x="1014" 
d="M821 62v194l-38 15l-38 -13v-168l47 -43zM745 265l102 36l103 -45v-211l26 -22l-52 -23l-103 45v8l-102 -53l-104 88v276l-88 48l-57 -36v-287l52 -44l-78 -45l-103 90v325l-134 -63v-263l52 -44l-78 -45l-103 90v283l-52 31l78 44l103 -76v-10l134 61v217l-52 44l78 45
l103 -90v-252l145 88l130 -66v-144z" />
    <glyph glyph-name="uni1215" unicode="&#x1215;" horiz-adv-x="832" 
d="M343 626l-29 27l-70 -27v-58l26 -23l-52 -23l-104 46v116l-26 23l52 23l104 -46v-45l146 64l83 -78v-226l146 92l130 -69v-328l52 -48l-78 -46l-104 92v283l-89 50l-57 -36v-296l52 -46l-78 -47l-104 94v334l-135 -65v-270l52 -46l-78 -47l-104 94v292l-52 30l78 47
l104 -78v-12l135 65v188z" />
    <glyph glyph-name="uni1216" unicode="&#x1216;" horiz-adv-x="833" 
d="M342 416l-134 -63v-263l51 -45l-77 -45l-104 90v284l-52 31l78 44l104 -76v-10l134 61v218l-52 43l78 46l104 -90v-253l145 89l130 -67v-220l52 -46l-78 -45l-104 89v177l-88 48l-57 -35v-189l52 -45l-78 -45l-104 91v226z" />
    <glyph glyph-name="Uni1217" unicode="&#x1217;" horiz-adv-x="983" 
d="M816 15v-62l99 -42l49 21l-25 21v107l-98 42l-49 -21l24 -21v-33l-67 -6v387l-130 67l-146 -89v253l-104 89l-78 -45l52 -44v-216l-135 -62v11l-104 75l-78 -45l52 -29v-184l104 -90l78 45l-52 44v164l135 62v-206l104 -90l78 44l-52 45v169l57 36l89 -49v-355l-53 -4v49
l-98 42l-49 -21l25 -21v-107l98 -43l49 22l-25 21v45z" />
    <glyph glyph-name="uni1218" unicode="&#x1218;" horiz-adv-x="1076" 
d="M738 610v-480l45 -34l79 42v471l-72 39zM738 619l124 88l130 -58v-519l43 -34l-69 -45l-104 79l-150 -79l-104 78v480l-73 41l-58 -37v-483l43 -34l-69 -45l-104 79l-149 -79l-104 79v499l-52 40l78 38l104 -79v-9l123 88l130 -58v-25l131 83l130 -58v-30zM347 138v471
l-71 39l-52 -38v-481l44 -33z" />
    <glyph glyph-name="uni1219" unicode="&#x1219;" horiz-adv-x="1259" 
d="M992 412l70 32v60l-26 26l52 26l104 -52v-130l26 -26l-52 -26l-104 52v61l-70 -33v-272l43 -34l-69 -45l-104 79l-150 -79l-104 78v480l-73 41l-58 -37v-483l43 -34l-69 -45l-104 79l-149 -79l-104 79v499l-52 40l78 38l104 -79v-9l123 88l130 -58v-25l131 83l130 -58
v-30l124 88l130 -58v-237zM347 138v471l-71 39l-52 -38v-481l44 -33zM738 610v-480l45 -34l79 42v471l-72 39z" />
    <glyph glyph-name="uni121A" unicode="&#x121a;" horiz-adv-x="1284" 
d="M990 99l46 -46l51 32v53l-26 25l52 25l104 -50v-124l26 -25l-52 -25l-104 50v61l-123 -76l-104 101v235l-150 -76l-103 75v296l-73 40l-58 -37v-312l43 -33l-69 -43l-104 76l-148 -76l-104 76v329l-52 37l78 38l104 -76v-9l122 85l130 -56v-24l131 80l129 -56v-29l124 85
l130 -56v-570zM346 329v301l-71 38l-51 -37v-311l43 -32zM736 631v-296l45 -33l79 41v287l-72 38z" />
    <glyph glyph-name="uni121B" unicode="&#x121b;" horiz-adv-x="1092" 
d="M739 639v-299l45 -33l80 40v291l-73 37zM348 334v304l-72 37l-52 -36v-315l44 -32zM864 340l-151 -77l-104 76v299l-73 39l-58 -36v-315l43 -34l-69 -43l-104 77l-150 -77l-104 77v331l-52 39l78 36l104 -76v-9l124 85l130 -56v-24l131 80l130 -56v-29l125 85l130 -56
v-575l56 -54l-81 -47l-104 100z" />
    <glyph glyph-name="uni121C" unicode="&#x121c;" horiz-adv-x="1179" 
d="M962 0l-101 89v247l-150 -75l-104 74v293l-72 39l-58 -36v-309l43 -33l-69 -41l-104 74l-149 -74l-104 74v325l-52 38l78 37l104 -76v-8l123 84l130 -56v-23l130 79l130 -56v-28l124 84l130 -56v-380l65 22l65 -27v-253l17 -14l-34 -14l-64 28v4zM1040 38v243l-24 8
l-25 -8v-225l30 -27zM737 629v-293l45 -32l79 40v284l-72 38zM347 330v298l-71 38l-52 -37v-308l44 -32z" />
    <glyph glyph-name="uni121D" unicode="&#x121d;" horiz-adv-x="1043" 
d="M236 86l56 -54l-81 -46l-105 99v124l241 93v66l-149 -76l-104 76v286l-52 39l78 37l104 -77v-8l123 85l130 -56v-25l98 81l130 -56v-29l124 85l130 -56v-314l43 -33l-75 -58l-98 68l-150 -75l-104 75v298l-60 32l-38 -27v-305l-241 -89v-160zM347 376v259l-71 38l-52 -37
v-269l44 -31zM705 636v-298l45 -32l79 40v289l-72 38z" />
    <glyph glyph-name="uni121E" unicode="&#x121e;" horiz-adv-x="1044" 
d="M705 634v-260l45 -33l80 42v250l-73 38zM348 375v258l-72 38l-52 -37v-268l44 -31zM348 85v282l-150 -76l-104 76v285l-52 39l78 37l104 -77v-8l124 85l130 -56v-24l97 80l130 -56v-29l125 85l130 -56v-277l43 -32l-75 -57l-98 66l-151 -74l-104 75v260l-59 32l-38 -27
v-552l57 -54l-82 -46z" />
    <glyph glyph-name="uni121F" unicode="&#x121f;" horiz-adv-x="1207" 
d="M1047 21v-62l99 -42l49 22l-25 20v108l-98 41l-49 -21l24 -20v-34l-53 -5v648l-130 56l-125 -85v29l-130 56l-131 -80v24l-130 56l-124 -85v9l-104 76l-78 -36l52 -39v-331l104 -77l150 77l104 -77l69 43l-43 34v315l58 36l73 -39v-299l104 -76l151 77v-323l-58 -7v49
l-98 42l-49 -21l25 -21v-107l98 -42l49 21l-25 21v45zM348 334l-80 -42l-44 32v315l52 36l72 -37v-304zM739 639l52 36l73 -37v-291l-80 -40l-45 33v299z" />
    <glyph glyph-name="uni1220" unicode="&#x1220;" horiz-adv-x="833" 
d="M348 83l-140 -83l-130 58v487l-52 42l78 37l104 -77v-449l76 -42l64 39v450l-52 42l78 37l104 -77v-449l75 -37l67 40v445l-52 40l78 38l104 -79v-467l52 -40l-78 -38l-104 79v9l-142 -88l-130 58v25z" />
    <glyph glyph-name="uni1221" unicode="&#x1221;" horiz-adv-x="1012" 
d="M754 303l82 38v60l-26 26l52 26l104 -52v-130l26 -26l-52 -26l-104 52v61l-82 -39v-215l52 -40l-78 -38l-104 79v9l-141 -88l-130 58v25l-141 -83l-130 58v487l-52 42l78 37l104 -77v-449l76 -42l65 39v450l-52 42l78 37l104 -77v-449l74 -40l67 43v445l-52 40l78 38
l104 -79v-242z" />
    <glyph glyph-name="uni1222" unicode="&#x1222;" horiz-adv-x="1018" 
d="M751 103l46 -47l52 32v54l-26 26l52 26l104 -52v-127l26 -25l-52 -26l-104 51v62l-124 -78l-104 102v265l-143 -86l-130 57v24l-140 -81l-130 57v314l-52 42l78 36l104 -76v-278l76 -40l64 37v279l-52 42l78 36l104 -76v-278l76 -39l67 43v273l-52 40l78 37l104 -78v-548
z" />
    <glyph glyph-name="uni1223" unicode="&#x1223;" horiz-adv-x="857" 
d="M348 362l-140 -82l-130 57v314l-52 42l78 36l104 -76v-278l76 -40l64 37v279l-52 42l78 36l103 -76v-278l75 -39l67 43v273l-52 40l78 37l104 -78v-574l52 -40l-78 -37l-104 78v289l-142 -87l-129 57v25z" />
    <glyph glyph-name="uni1224" unicode="&#x1224;" horiz-adv-x="1011" 
d="M821 71v220l-38 18l-38 -16v-190l47 -50zM745 302l102 40l103 -51v-240l26 -25l-52 -26l-103 51v9l-102 -60l-104 101v265l-141 -87l-129 57v25l-139 -82l-129 57v314l-52 41l78 36l103 -75v-278l75 -40l64 37v279l-52 41l78 36l103 -75v-278l75 -39l66 43v273l-51 39
l77 37l104 -77v-348z" />
    <glyph glyph-name="uni1225" unicode="&#x1225;" horiz-adv-x="840" 
d="M208 312l140 59v279l-52 41l78 36l103 -75v-278l75 -39l67 43v273l-52 39l78 37l104 -77v-302l52 -38l-78 -39l-104 78v17l-142 -87l-129 57v25l-140 -64v-220l52 -40l-78 -37l-104 78v572l-52 41l78 36l104 -75v-340z" />
    <glyph glyph-name="uni1226" unicode="&#x1226;" horiz-adv-x="832" 
d="M347 85v277l-139 -82l-130 57v314l-52 42l78 36l104 -76v-278l76 -40l64 37v279l-52 42l78 36l103 -76v-343l142 69v273l-52 40l78 37l104 -78v-294l52 -40l-78 -37l-104 78v9l-142 -66v-224l52 -40l-78 -37z" />
    <glyph glyph-name="uni1227" unicode="&#x1227;" horiz-adv-x="962" 
d="M801 15v-62l99 -42l48 21l-24 21v107l-98 42l-49 -21l24 -21v-33l-52 -5v629l-104 78l-78 -37l52 -40v-273l-67 -43l-75 39v278l-103 76l-78 -36l52 -42v-279l-64 -37l-76 40v278l-104 76l-78 -36l52 -42v-314l130 -57l140 82v-25l129 -57l142 87v-357l-69 -6v49l-98 42
l-48 -21l24 -21v-107l98 -43l49 22l-25 21v45z" />
    <glyph glyph-name="uni1228" unicode="&#x1228;" horiz-adv-x="623" 
d="M172 100l64 -65l189 51v53l-26 25l52 25l104 -50v-125l26 -25l-52 -25l-104 50v61l-279 -76l-104 99v256l256 121v186l-50 36l78 34l104 -47v-160l-258 -122v-302z" />
    <glyph glyph-name="uni1229" unicode="&#x1229;" horiz-adv-x="681" 
d="M397 248v-179l52 -24l-78 -45l-104 58v158l-121 -29l-104 91v161l255 111v114l-51 32l78 32l104 -43v-91l-256 -110v-205l63 -59l250 59v48l-26 22l51 23l104 -45v-114l26 -23l-52 -23l-103 46v55z" />
    <glyph glyph-name="uni122A" unicode="&#x122a;" horiz-adv-x="598" 
d="M556 108l-410 -108l-104 99v251l256 122v184l-50 35l78 35l104 -47v-159l-258 -121v-298l64 -66l189 51v184l-51 35l78 35l104 -47v-185z" />
    <glyph glyph-name="uni122B" unicode="&#x122b;" horiz-adv-x="753" 
d="M404 251l44 -41v-129l-302 -81l-104 99v253l256 121v184l-50 36l78 35l104 -47v-160l-258 -121v-299l66 -64l79 22v128l-51 40l289 79v32l-26 25l52 25l104 -50v-125l26 -25l-52 -25l-104 50v78z" />
    <glyph glyph-name="uni122C" unicode="&#x122c;" horiz-adv-x="745" 
d="M394 114v164l-34 14l57 21l87 -36v-8l110 55l67 -55v-233l22 -18l-45 -18l-87 36v7l-19 -10l-69 -33l-89 73v25l-248 -98l-104 99v254l256 121v185l-50 36l78 35l102 -48v-159l-256 -122v-300l56 -55zM548 40l23 12v209l-23 22l-44 -22v-189z" />
    <glyph glyph-name="uni122D" unicode="&#x122d;" horiz-adv-x="706" 
d="M220 596l227 60v22l-26 25l52 25l104 -50v-127l26 -25l-52 -25l-104 50v91l-227 -59v-481l58 -60l231 80v51l-26 25l52 25l104 -50v-127l26 -25l-52 -25l-104 50v62l-315 -108l-104 101v523l-48 43l72 40l106 -71v-40z" />
    <glyph glyph-name="uni122E" unicode="&#x122e;" horiz-adv-x="758" 
d="M562 480l22 12v172l-22 21l-44 -21v-151zM408 641l-188 -65v-475l58 -59l232 78v51l-26 25l52 24l104 -49v-125l26 -25l-52 -25l-104 50v60l-316 -106l-104 99v517l-48 41l72 41l106 -70v-40l188 64v29l-35 14l58 21l87 -36v-8l109 56l68 -56v-196l22 -17l-45 -18l-88 35
v8l-18 -11l-70 -32l-88 72v128z" />
    <glyph glyph-name="uni122F" unicode="&#x122f;" horiz-adv-x="753" 
d="M497 668v-62l99 -42l49 22l-25 20v107l-98 42l-49 -21l24 -21v-33l-292 -23v49l-98 42l-49 -21l25 -21v-107l98 -43l49 22l-25 21v45l93 7v-178l-256 -121v-253l104 -99l302 81v129l-44 41l151 40v-78l104 -50l52 25l-26 25v125l-104 50l-52 -25l26 -25v-32l-289 -79
l51 -40v-128l-79 -22l-66 64v299l258 121v140z" />
    <glyph glyph-name="uni1230" unicode="&#x1230;" horiz-adv-x="675" 
d="M250 504v162l-52 32l78 31l104 -43v-126l84 45l117 -61v-454l52 -46l-78 -44l-103 89v443l-52 25l-183 -77v-391l52 -44l-77 -45l-104 90v439l-46 31l72 27l103 -59v-37z" />
    <glyph glyph-name="uni1231" unicode="&#x1231;" horiz-adv-x="863" 
d="M583 362l83 29v52l-26 22l52 23l104 -45v-112l26 -23l-52 -22l-104 45v52l-83 -29v-264l52 -46l-78 -44l-104 88v443l-52 24l-183 -76v-390l52 -44l-78 -45l-104 90v438l-46 30l72 28l104 -59v-37l33 12v163l-52 31l78 31l104 -43v-126l84 45l118 -61v-180z" />
    <glyph glyph-name="uni1232" unicode="&#x1232;" horiz-adv-x="875" 
d="M580 86l46 -41l52 29v48l-26 23l52 22l103 -45v-114l26 -22l-52 -22l-103 44v56l-124 -69l-103 90v446l-52 25l-182 -77v-394l52 -44l-78 -46l-103 91v442l-46 30l72 28l103 -59v-38l33 13v164l-52 31l78 32l103 -43v-128l84 46l117 -61v-457z" />
    <glyph glyph-name="uni1233" unicode="&#x1233;" horiz-adv-x="675" 
d="M250 508v162l-52 31l78 32l104 -42v-128l84 45l117 -61v-455l52 -47l-78 -45l-103 89v447l-52 25l-183 -77v-227l52 -46l-77 -45l-104 92v274l-46 31l72 28l103 -60v-37z" />
    <glyph glyph-name="uni1234" unicode="&#x1234;" horiz-adv-x="854" 
d="M657 62v195l-37 15l-40 -13v-167l49 -45zM580 266l103 36l103 -45v-212l26 -22l-52 -23l-103 45v8l-103 -53l-103 89v446l-52 23l-182 -75v-393l52 -45l-78 -45l-103 92v438l-46 32l72 27l103 -59v-38l33 13v163l-52 32l78 31l103 -43v-126l84 44l117 -61v-279z" />
    <glyph glyph-name="uni1235" unicode="&#x1235;" horiz-adv-x="675" 
d="M271 518l-69 151l-55 24l73 38l107 -31l61 -134l80 38l113 -59v-453l52 -48l-78 -44l-103 89v446l-52 23l-183 -75v-393l52 -45l-77 -45l-104 92v438l-46 32l72 27l103 -59v-38z" />
    <glyph glyph-name="uni1236" unicode="&#x1236;" horiz-adv-x="667" 
d="M248 504v162l-52 32l76 31l102 -43v-126l84 45l116 -61v-283l51 -46l-76 -44l-103 89v272l-51 25l-180 -77v-391l51 -44l-76 -45l-103 90v439l-45 31l71 27l102 -59v-37z" />
    <glyph glyph-name="uni1237" unicode="&#x1237;" horiz-adv-x="808" 
d="M645 15v-62l99 -42l48 21l-24 21v107l-98 42l-49 -21l24 -21v-33l-64 -6v526l-117 61l-84 -45v128l-104 42l-78 -32l52 -31v-162l-33 -14v37l-103 60l-72 -28l46 -31v-274l104 -92l77 45l-52 46v227l183 77l52 -25v-527l-58 -5v49l-98 42l-48 -21l24 -21v-107l98 -43
l49 22l-25 21v45z" />
    <glyph glyph-name="uni1238" unicode="&#x1238;" horiz-adv-x="682" 
d="M230 681l-33 -10v-57l26 -22l-51 -23l-104 45v112l-26 22l52 23l103 -45v-44l127 40l75 -58l87 22v52l-26 22l51 23l104 -45v-112l26 -22l-52 -23l-103 45v51l-87 -24l-1 -114l72 39l118 -61v-427l52 -46l-78 -44l-103 88v418l-52 24l-183 -76v-365l52 -44l-78 -45
l-103 90v413l-47 31l73 27l103 -59v-37l44 19l1 161z" />
    <glyph glyph-name="uni1239" unicode="&#x1239;" horiz-adv-x="857" 
d="M580 355l82 26v51l-26 22l51 22l103 -44v-112l25 -22l-51 -22l-102 44v52l-82 -26v-256l51 -46l-76 -44l-103 88v417l-51 24l-179 -76v-364l50 -44l-76 -45l-102 90v411l-46 31l72 26l102 -58v-37l43 19l1 162l-38 35l-34 -9v-57l26 -23l-50 -22l-102 45v111l-26 23
l51 22l101 -45v-44l126 40l74 -59l85 23v52l-26 23l51 22l103 -45v-111l25 -23l-51 -22l-102 45v50l-85 -23l-1 -114l71 38l116 -60v-161z" />
    <glyph glyph-name="uni123A" unicode="&#x123a;" horiz-adv-x="882" 
d="M587 87l46 -40l52 28v48l-26 23l52 21l103 -44v-113l26 -21l-52 -23l-103 44v56l-123 -69l-104 89v419l-52 24l-182 -76v-366l52 -45l-78 -45l-103 90v415l-47 30l73 28l103 -59v-38l44 20l1 162l-39 35l-33 -9v-57l26 -23l-52 -23l-103 46v112l-26 22l52 23l103 -45v-45
l127 40l74 -59l87 24v52l-26 22l52 23l103 -45v-112l26 -23l-52 -22l-103 45v50l-87 -23l-1 -115l72 39l118 -61v-429z" />
    <glyph glyph-name="uni123B" unicode="&#x123b;" horiz-adv-x="686" 
d="M232 679l-33 -9v-57l26 -23l-53 -22l-104 45v111l-26 23l52 22l105 -45v-44l128 40l74 -59l87 23v52l-26 23l53 22l104 -45v-111l26 -23l-52 -22l-105 45v50l-87 -23l-1 -114l72 38l120 -60v-426l52 -46l-78 -44l-105 88v417l-52 24l-183 -76v-197l52 -45l-78 -45
l-105 91v244l-47 31l73 26l105 -58v-37l44 19l1 162z" />
    <glyph glyph-name="uni123C" unicode="&#x123c;" horiz-adv-x="860" 
d="M587 263l103 37l102 -45v-210l26 -23l-52 -22l-102 45v8l-103 -53l-103 88v417l-52 24l-182 -76v-364l52 -44l-78 -45l-103 90v411l-47 31l73 26l103 -58v-37l44 19l1 162l-39 35l-33 -9v-57l26 -23l-52 -22l-103 45v111l-26 23l52 22l103 -45v-44l127 40l74 -59l87 23
v52l-26 23l52 22l103 -45v-111l26 -23l-52 -22l-103 45v50l-87 -23l-1 -114l72 38l118 -60v-253zM664 61v194l-38 14l-39 -13v-166l48 -43z" />
    <glyph glyph-name="uni123D" unicode="&#x123d;" horiz-adv-x="743" 
d="M243 687l-46 -16v-61l26 -21l-52 -23l-103 44v112l-26 23l52 21l103 -44v-44l91 30l108 -50l88 25v51l-25 23l51 22l104 -45v-111l25 -22l-51 -23l-104 45v50l-86 -23l63 -114l70 39l118 -60v-426l52 -45l-77 -44l-104 88v416l-52 24l-181 -76v-363l51 -44l-77 -45
l-104 89v411l-46 30l72 27l104 -58v-37l58 25z" />
    <glyph glyph-name="uni123E" unicode="&#x123e;" horiz-adv-x="684" 
d="M231 679l-33 -9v-57l26 -23l-52 -22l-104 45v111l-26 23l52 22l104 -45v-44l128 40l74 -59l87 23v52l-26 23l52 22l104 -45v-111l26 -23l-52 -22l-104 45v50l-87 -23l-1 -114l72 38l119 -60v-257l52 -47l-78 -44l-104 89v248l-52 24l-183 -76v-364l52 -44l-78 -45
l-104 90v411l-47 31l73 26l104 -58v-37l44 19l1 162z" />
    <glyph glyph-name="uni123F" unicode="&#x123f;" horiz-adv-x="810" 
d="M649 15v-62l99 -42l49 21l-25 21v107l-98 42l-49 -21l24 -21v-33l-57 -5v494l-120 60l-71 -38v114l87 23v-50l105 -45l52 22l-26 23v111l-104 45l-53 -22l26 -23v-52l-87 -23l-74 59l-128 -40v44l-105 45l-52 -22l26 -23v-111l104 -45l53 22l-26 23v57l33 9l39 -35
l-1 -162l-44 -19v37l-105 58l-73 -26l47 -31v-244l105 -91l78 45l-52 45v197l183 76l52 -24v-496l-63 -5v49l-97 42l-49 -21l25 -21v-107l97 -43l49 22l-25 21v45z" />
    <glyph glyph-name="uni1240" unicode="&#x1240;" horiz-adv-x="693" 
d="M290 295v224l-82 -34v-178l45 -28zM290 289l-108 -50l-104 48v203l-36 18l70 33l94 -51l84 35v117l-52 44l78 45l104 -90v-135l101 35l104 -45v-212l26 -22l-52 -23l-104 45v8l-75 -38v-164l52 -45l-78 -45l-104 92v197zM420 264l75 38v194l-37 15l-38 -12v-235z" />
    <glyph glyph-name="uni1241" unicode="&#x1241;" horiz-adv-x="697" 
d="M416 148l85 37v52l-26 23l51 22l103 -45v-111l26 -23l-51 -22l-103 45v52l-85 -39v-50l52 -44l-77 -45l-103 90v231l-107 -49l-103 48v202l-36 18l69 33l93 -51l84 34v83l-52 44l77 45l103 -89v-101l100 35l103 -45v-211l26 -22l-51 -23l-103 45v9l-75 -39v-139zM416 297
l75 37v194l-38 15l-37 -13v-233zM288 328v222l-82 -34v-176l45 -29z" />
    <glyph glyph-name="uni1242" unicode="&#x1242;" horiz-adv-x="712" 
d="M418 85l46 -40l52 29v48l-26 22l52 22l103 -44v-114l26 -22l-52 -22l-103 44v55l-123 -68l-105 91v199l-107 -50l-103 48v203l-36 18l70 34l93 -52l83 35v118l-51 43l77 46l104 -90v-136l100 36l103 -46v-212l26 -22l-51 -23l-104 45v8l-74 -38v-165zM418 260l74 37v195
l-38 16l-36 -13v-235zM288 291v224l-81 -35v-177l45 -29z" />
    <glyph glyph-name="uni1243" unicode="&#x1243;" horiz-adv-x="693" 
d="M420 288l75 36v195l-37 15l-38 -13v-233zM290 312l-108 -50l-104 48v203l-36 17l70 34l94 -51l84 34v94l-52 44l78 45l104 -90v-112l101 36l104 -45v-211l26 -23l-52 -23l-104 46v7l-75 -38v-40l-189 -65v-83l52 -44l-78 -45l-104 90v51l189 64v107zM290 318v223l-82 -35
v-176l45 -28z" />
    <glyph glyph-name="uni1244" unicode="&#x1244;" horiz-adv-x="696" 
d="M422 254l97 33l98 -42v-195l24 -20l-48 -21l-99 41v8l-105 -49l-98 83v226l-108 -49l-105 47v201l-36 18l70 33l95 -51l84 35v86l-52 43l78 45l105 -90v-102l101 34l105 -45v-209l26 -23l-52 -22l-105 45v7l-75 -38v-29zM494 67v178l-34 15l-38 -12v-154l46 -42zM422 294
l75 37v192l-37 16l-38 -13v-232zM291 324v222l-82 -34v-176l45 -28z" />
    <glyph glyph-name="uni1245" unicode="&#x1245;" horiz-adv-x="697" 
d="M342 701l83 -74v-157l100 34l104 -43v-207l26 -22l-52 -23l-103 45v7l-75 -37v-136l52 -44l-78 -44l-104 88v170l-107 -49l-104 47v198l-36 18l71 32l92 -50l84 35v139l-29 26l-68 -26v-55l25 -22l-51 -22l-104 44v110l-26 22l52 22l104 -44v-43zM425 234l75 36v191
l-37 14l-38 -12v-229zM295 264v219l-82 -34v-173l45 -28z" />
    <glyph glyph-name="uni1246" unicode="&#x1246;" horiz-adv-x="693" 
d="M420 541v-71l101 34l104 -44v-209l26 -23l-52 -22l-104 45v8l-75 -39v-131l52 -44l-78 -45l-104 90v165l-108 -49l-104 47v200l-36 19l70 32l94 -51l84 36v146l-52 44l251 47l73 -22v-158l19 -9l-39 -9l-76 25zM420 549l45 13v137l-22 10l-23 -5v-155zM420 231l75 36v193
l-37 15l-38 -12v-232zM290 261v222l-82 -35v-176l45 -28z" />
    <glyph glyph-name="uni1248" unicode="&#x1248;" horiz-adv-x="768" 
d="M400 137l87 35v47l-29 10l47 14l71 -25v-5l89 40l55 -40v-164l18 -13l-37 -12l-71 25v5l-14 -7l-58 -23l-71 51v85l-87 -33v-37l52 -45l-78 -45l-104 92v198l-108 -50l-104 48v203l-36 18l71 34l93 -52l84 35v118l-52 43l78 46l104 -90v-135l101 35l104 -46v-212l26 -22
l-52 -23l-104 45v8l-75 -38v-118zM612 51l18 9v148l-18 14l-36 -14v-134zM400 265l75 38v194l-37 16l-38 -13v-235zM270 296v224l-82 -34v-178l45 -29z" />
    <glyph glyph-name="uni124A" unicode="&#x124a;" horiz-adv-x="1011" 
d="M610 368l68 22v124l-26 22l52 22l105 -44v-77l47 19l104 -35v-83l26 -22l-52 -23l-104 45v94l-220 -76v-72l26 -23l-52 -22l-104 45v7l-74 -38v-164l52 -44l-78 -45l-104 90v198l-109 -49l-104 47v202l-36 18l71 34l93 -52l85 35v117l-52 44l78 45l104 -90v-135l100 36
l104 -45v-127zM406 264l74 37v194l-37 15l-37 -13v-233zM276 294v223l-83 -34v-177l45 -28z" />
    <glyph glyph-name="uni124B" unicode="&#x124b;" horiz-adv-x="681" 
d="M405 256l74 37v197l-37 15l-37 -12v-237zM275 110v170l-109 -50l-104 49v205l-36 18l71 34l93 -52l85 35v120l-52 44l78 46l104 -91v-138l100 36l104 -46v-214l26 -23l-52 -23l-104 46v8l-74 -40v-98l148 36v-219l55 -26l-81 -43l-104 66v177l-209 -55v-57l26 -23
l-52 -23l-104 46v84l-26 23l52 23l104 -46v-16zM275 287v226l-83 -35v-180l45 -29z" />
    <glyph glyph-name="Uni124C" unicode="&#x124c;" horiz-adv-x="698" 
d="M482 28v191l-38 15l-39 -14v-164l48 -42zM405 269l74 37v190l-37 16l-37 -13v-230zM405 228l103 35l104 -44v-208l26 -21l-52 -22l-104 43v9l-103 -52l-105 88l-61 -14v-57l26 -21l-52 -22l-104 43v83l-26 22l52 22l104 -44v-16l61 17l1 224l-109 -49l-104 47v199l-36 18
l71 33l93 -51l85 34v116l-52 42l78 45l104 -88v-133l100 35l104 -45v-207l26 -23l-52 -22l-104 45v7l-74 -37v-31zM275 300v218l-83 -33v-174l45 -28z" />
    <glyph glyph-name="uni124D" unicode="&#x124d;" horiz-adv-x="1036" 
d="M605 362l76 31v52l-26 23l52 22l105 -45v-105l71 31l104 -34v-82l26 -23l-52 -22l-104 45v94l-176 -65v102l-76 -32v-71l26 -22l-52 -23l-104 45v8l-75 -38v-164l52 -44l-78 -45l-104 90v198l-108 -50l-104 48v202l-36 17l71 34l93 -51l84 34v117l-52 44l78 45l104 -89
v-136l101 36l104 -45v-132zM400 263l75 38v193l-37 16l-38 -14v-233zM270 294v222l-82 -33v-177l45 -29z" />
    <glyph glyph-name="uni1250" unicode="&#x1250;" horiz-adv-x="728" 
d="M297 286v231l-82 -35v-184l45 -30zM297 671l-45 43l-70 -16v-91l26 -23l-52 -23l-104 46v117l-26 23l52 23l104 -46v-15l171 41l74 -60l105 27v15l-26 23l52 23l104 -46v-116l26 -23l-52 -24l-104 47v90l-105 -27v-176l101 37l104 -47v-218l26 -23l-52 -23l-104 46v8
l-75 -40v-150l52 -46l-78 -47l-104 94v186l-108 -51l-104 49v209l-36 18l71 35l93 -53l84 36v148zM427 255l75 37v201l-37 16l-38 -13v-241z" />
    <glyph glyph-name="uni1251" unicode="&#x1251;" horiz-adv-x="729" 
d="M426 255l75 37v201l-37 16l-38 -13v-241zM426 112v-19l52 -46l-78 -47l-104 94v186l-107 -51l-104 49v209l-36 18l71 35l92 -53l84 36v148l-45 43l-69 -16v-91l25 -23l-51 -23l-104 46v117l-26 23l52 23l104 -46v-15l170 41l74 -60l105 27v15l-26 23l51 23l104 -46v-116
l26 -23l-52 -24l-103 47v90l-105 -27v-176l101 37l103 -47v-218l26 -23l-52 -23l-103 46v8l-75 -40v-124l76 29v44l-26 20l52 19l103 -39v-95l26 -20l-52 -20l-103 40v44zM296 286v231l-82 -35v-184l45 -30z" />
    <glyph glyph-name="uni1252" unicode="&#x1252;" horiz-adv-x="719" 
d="M425 254l74 38v204l-37 16l-37 -14v-244zM295 92v188l-107 -52l-103 50v211l-36 19l70 35l93 -54l83 37v149l-44 45l-70 -17v-91l26 -24l-52 -23l-103 47v117l-26 24l52 23l103 -47v-15l169 41l75 -61l104 28v15l-26 24l52 23l103 -47v-117l26 -24l-52 -23l-103 47v91
l-104 -27v-178l100 37l103 -47v-221l26 -23l-51 -24l-104 47v8l-74 -40v-153l46 -42l52 30v50l-26 24l52 23l103 -47v-118l26 -22l-52 -24l-103 46v58l-123 -71zM295 286v233l-81 -35v-186l45 -30z" />
    <glyph glyph-name="uni1253" unicode="&#x1253;" horiz-adv-x="713" 
d="M296 163v115l-107 -52l-104 50v212l-36 18l71 35l92 -53l84 36v149l-45 45l-69 -17v-92l25 -23l-51 -23l-104 46v118l-26 24l52 23l104 -47v-15l170 41l74 -60l105 27v15l-26 24l51 23l104 -47v-117l26 -23l-52 -24l-103 47v91l-105 -27v-178l101 37l103 -47v-220l26 -24
l-52 -24l-103 48v8l-76 -38v-48l-184 -69v-86l52 -47l-78 -47l-103 95v53zM426 253l75 38v203l-37 16l-38 -13v-244zM296 284v233l-82 -35v-186l45 -30z" />
    <glyph glyph-name="uni1254" unicode="&#x1254;" horiz-adv-x="735" 
d="M437 251l75 38v202l-38 15l-37 -12v-243zM307 276l-107 -51l-104 50v210l-37 18l71 35l93 -53l84 36v148l-46 43l-69 -16v-91l25 -23l-51 -24l-104 47v117l-26 24l52 23l104 -47v-14l170 41l75 -62l105 27v16l-26 24l51 23l104 -47v-116l26 -23l-52 -24l-103 47v90
l-105 -27v-176l101 37l103 -47v-220l26 -22l-52 -24l-103 46v12l-75 -40v-34l97 34l95 -42v-205l24 -21l-48 -22l-96 43v8l-105 -51l-97 87v236zM307 283v231l-82 -36v-184l44 -29zM509 12v189l-35 14l-37 -12v-162l46 -43z" />
    <glyph glyph-name="uni1255" unicode="&#x1255;" horiz-adv-x="884" 
d="M391 747l128 17v16l-26 24l52 23l103 -47v-86l26 -23l-52 -23l-103 46v60l-128 -18v-132l145 64l82 -78v-129l101 35l103 -46v-218l26 -23l-52 -24l-103 47v8l-75 -39v-144l52 -46l-77 -46l-104 93v178l-107 -51l-104 50v208l-36 19l70 34l94 -53l83 36v112l-29 28
l-69 -28v-22l26 -23l-52 -24l-103 47l-1 153l-80 -8v-43l26 -23l-52 -24l-103 47v115l-26 23l52 23l103 -46v-59zM618 211l75 39v200l-38 16l-37 -14v-241zM489 243v230l-81 -35v-183l43 -29z" />
    <glyph glyph-name="uni1256" unicode="&#x1256;" horiz-adv-x="703" 
d="M295 733l-114 -31v-93l26 -22l-52 -24l-103 46v119l-26 24l52 23l103 -47v-15l246 66l139 -32v-169l20 -9l-40 -8l-76 27l-45 -14v-76l100 38l103 -48v-223l26 -23l-52 -24l-103 47v10l-74 -41v-139l51 -48l-77 -47l-104 96v174l-107 -52l-103 50v214l-36 18l70 36
l93 -54l83 36v215zM425 771v-189l45 14v163zM425 244l74 40v204l-37 16l-37 -13v-247zM295 277v235l-81 -37v-186l45 -30z" />
    <glyph glyph-name="uni1258" unicode="&#x1258;" horiz-adv-x="806" 
d="M440 678v-151l101 37l104 -47v-221l26 -22l-52 -24l-104 46v9l-75 -41v-120l86 35v49l-29 9l48 16l71 -25v-6l88 41l55 -41v-171l19 -14l-38 -13l-70 27v5l-15 -7l-57 -25l-72 54v88l-86 -34v-37l52 -48l-78 -47l-104 95v206l-108 -51l-104 50v211l-37 18l71 35l94 -53
l84 36v123l-46 43l-70 -17v-91l26 -24l-52 -23l-104 47v118l-26 23l52 24l104 -47v-15l171 41l75 -61l105 26v17l-26 24l52 23l104 -47v-117l26 -23l-52 -24l-104 47v91zM310 308v233l-82 -36v-186l44 -29zM440 277l75 37v203l-38 15l-37 -13v-242zM651 53l19 10v152l-19 16
l-35 -16v-138z" />
    <glyph glyph-name="uni125A" unicode="&#x125a;" horiz-adv-x="1080" 
d="M439 680v-151l101 37l104 -47v-133l67 24v129l-26 23l52 24l105 -47v-80l98 30l104 -37v-86l26 -23l-52 -24l-104 47v98l-270 -92v-75l26 -23l-52 -23l-104 46v9l-75 -41v-171l52 -47l-78 -47l-104 95v208l-108 -52l-104 50v211l-37 18l71 36l94 -54l84 37v122l-46 45
l-70 -17v-92l26 -24l-52 -23l-104 47v118l-26 23l52 24l104 -47v-15l171 41l75 -61l105 28v15l-26 24l52 23l104 -47v-117l26 -24l-52 -23l-104 47v91zM309 309v233l-82 -36v-185l44 -30zM439 277l75 38v204l-38 16l-37 -14v-244z" />
    <glyph glyph-name="uni125B" unicode="&#x125b;" horiz-adv-x="736" 
d="M440 677v-153l101 38l104 -48v-223l26 -24l-52 -24l-104 48v9l-75 -41v-103l149 37v-228l55 -26l-81 -45l-104 70v183l-209 -58v-59l26 -24l-52 -24l-104 48v88l-26 23l52 24l104 -47v-17l60 18v176l-108 -52l-104 50v215l-37 18l71 36l94 -54l84 36v124l-46 44l-70 -16
v-93l26 -24l-52 -24l-104 48v119l-26 24l52 24l104 -48v-14l171 41l75 -63l105 28v16l-26 24l52 24l104 -48v-118l26 -23l-52 -24l-104 47v92zM310 303v235l-82 -37v-186l44 -31zM440 270l75 39v205l-38 16l-37 -13v-247z" />
    <glyph glyph-name="uni125C" unicode="&#x125c;" horiz-adv-x="795" 
d="M434 684v-153l101 38l104 -48v-223l26 -22l-52 -24l-104 46v10l-75 -41v-123l86 36v50l-29 9l48 17l70 -27v-5l89 41l55 -41v-173l19 -14l-38 -12l-70 26v6l-15 -8l-57 -24l-72 54v88l-86 -34v-38l52 -48l-78 -47l-104 96v208l-108 -52l-104 50v213l-37 19l71 35l93 -54
l85 36v124l-46 44l-70 -17v-92l26 -23l-52 -24l-104 47v118l-26 24l52 24l104 -48v-14l171 41l75 -61l105 27v16l-26 23l52 24l104 -47v-118l26 -24l-52 -24l-104 48v91zM645 54l19 9v154l-19 16l-36 -16v-139zM434 278l75 39v204l-38 17l-37 -14v-246zM304 310v235l-82 -36
v-187l44 -30z" />
    <glyph glyph-name="uni125D" unicode="&#x125d;" horiz-adv-x="1005" 
d="M437 679l105 26v-91l104 -47l52 24l-26 23v117l-104 47l-52 -23l26 -24v-15l-105 -28l-75 61l-171 -41v15l-104 47l-52 -23l26 -24v-118l104 -47l52 24l-26 23v92l70 16l46 -43v-123l-84 -36l-94 53l-71 -35l37 -18v-211l104 -50l108 52v-207l104 -95l78 47l-52 47v171
l75 40v-9l104 -46l52 24l-26 22v75l76 33v-107l106 38v-100l104 -47l52 24l-26 23v86l-105 35v111l-105 47l-52 -24l26 -23v-55l-76 -32v137l-104 47l-101 -37v152zM307 308l-38 -18l-44 30v185l82 36v-233zM437 276v244l37 14l38 -17v-203z" />
    <glyph glyph-name="uni1260" unicode="&#x1260;" horiz-adv-x="655" 
d="M562 101l52 -52l-78 -49l-104 99v504l-98 61l-110 -59v-505l52 -50l-78 -50l-104 101v528l-52 49l78 50l104 -100v-12l208 112l130 -75v-552z" />
    <glyph glyph-name="uni1261" unicode="&#x1261;" horiz-adv-x="841" 
d="M558 375v-275l52 -51l-78 -49l-102 98v502l-98 60l-109 -59v-502l52 -49l-78 -50l-103 100v525l-52 49l78 50l103 -100v-11l207 111l128 -75v-264l87 33v57l-26 25l52 25l103 -50v-123l26 -25l-52 -24l-103 49v58z" />
    <glyph glyph-name="uni1262" unicode="&#x1262;" horiz-adv-x="859" 
d="M537 -1l-104 99v506l-98 62l-111 -60v-507l53 -50l-79 -50l-104 101v530l-52 49l78 51l104 -101v-11l209 112l130 -76v-554l45 -46l53 31v53l-26 26l52 25l104 -51v-124l26 -25l-52 -25l-104 50v61z" />
    <glyph glyph-name="uni1263" unicode="&#x1263;" horiz-adv-x="655" 
d="M562 101l52 -52l-78 -49l-104 99v505l-98 62l-110 -60v-310l52 -50l-78 -49l-104 100v333l-52 49l78 51l104 -101v-11l208 112l130 -76v-553z" />
    <glyph glyph-name="uni1264" unicode="&#x1264;" horiz-adv-x="834" 
d="M636 59l-101 -59l-104 99v504l-98 61l-109 -59v-505l51 -50l-77 -50l-104 101v528l-52 49l78 50l104 -100v-12l207 112l130 -75v-359l101 40l104 -50v-234l26 -25l-52 -25l-104 50v9zM636 69v215l-36 17l-39 -15v-185l48 -49z" />
    <glyph glyph-name="uni1265" unicode="&#x1265;" horiz-adv-x="867" 
d="M306 411l-108 -32v-64l26 -25l-52 -25l-104 50v125l-26 25l52 25l104 -50v-49l108 33v206l-52 49l78 51l104 -101v-11l208 112l130 -76v-553l52 -52l-78 -49l-104 99v505l-98 62l-110 -60v-506l52 -50l-78 -50l-104 101v310z" />
    <glyph glyph-name="uni1266" unicode="&#x1266;" horiz-adv-x="653" 
d="M560 261l52 -51l-78 -49l-103 98v344l-98 61l-110 -59v-505l52 -50l-78 -50l-103 101v528l-52 49l78 50l103 -100v-11l208 111l129 -75v-392z" />
    <glyph glyph-name="uni1267" unicode="&#x1267;" horiz-adv-x="780" 
d="M621 18v-62l99 -42l49 22l-25 20v107l-98 42l-49 -21l24 -21v-33l-59 -5v629l-130 76l-208 -112v11l-104 101l-78 -51l52 -49v-333l104 -100l78 49l-52 50v310l110 60l98 -62v-592l-62 -5v49l-98 42l-48 -21l25 -21v-107l97 -43l49 22l-25 21v45z" />
    <glyph glyph-name="uni1268" unicode="&#x1268;" horiz-adv-x="658" 
d="M435 714l-245 -95v-16l25 -23l-51 -24l-103 47v116l-26 24l52 22l103 -46v-94l245 97v10l-26 23l51 23l104 -46v-116l25 -23l-51 -23l-103 46v98zM560 94l50 -48l-76 -46l-103 92v369l-98 56l-109 -54v-370l52 -46l-77 -47l-104 94v391l-36 38l62 30l103 -69v-12l207 104
l129 -70v-412z" />
    <glyph glyph-name="uni1269" unicode="&#x1269;" horiz-adv-x="833" 
d="M565 330v-236l52 -48l-78 -46l-104 92v369l-98 56l-111 -54v-370l53 -46l-79 -47l-104 94v391l-37 38l63 30l104 -69v-12l209 104l130 -70v-168l84 31v53l-26 24l52 23l104 -47v-115l26 -23l-52 -24l-104 47v54zM439 714l-248 -95v-16l26 -23l-52 -24l-104 47v116l-26 24
l52 22l104 -46v-94l248 97v10l-26 23l52 23l104 -46v-116l26 -23l-52 -23l-104 46v98z" />
    <glyph glyph-name="uni126A" unicode="&#x126a;" horiz-adv-x="840" 
d="M427 88v372l-95 57l-109 -55v-373l52 -46l-77 -47l-103 94v395l-36 38l62 30l102 -69v-12l204 105l129 -71v-416l45 -42l51 29v50l-25 24l51 23l103 -47v-117l25 -24l-51 -22l-103 46v58l-122 -72zM432 716l-243 -96v-16l25 -24l-51 -23l-102 47v117l-26 23l51 24
l103 -47v-95l243 98v9l-25 24l51 23l103 -47v-116l25 -23l-51 -24l-103 47v99z" />
    <glyph glyph-name="uni126B" unicode="&#x126b;" horiz-adv-x="678" 
d="M536 94l52 -48l-78 -46l-103 92v369l-98 56l-109 -54v-231l52 -47l-78 -46l-103 94v252l-37 38l63 30l103 -69v-12l207 104l129 -70v-412zM411 714l-246 -95v-16l26 -23l-52 -24l-103 47v116l-26 24l52 22l103 -46v-94l246 97v10l-26 23l52 23l103 -46v-116l26 -23
l-52 -23l-103 46v98z" />
    <glyph glyph-name="uni126D" unicode="&#x126d;" horiz-adv-x="828" 
d="M561 275l103 37l102 -47v-218l26 -24l-52 -23l-102 47v8l-103 -55l-103 93v370l-98 57l-109 -55v-371l52 -47l-78 -47l-103 94v393l-37 38l63 31l103 -69v-12l207 104l129 -69v-235zM436 719l-246 -97v-16l26 -23l-52 -23l-103 46v117l-26 23l52 24l103 -47v-94l246 97
v10l-26 23l52 23l103 -46v-116l26 -24l-52 -23l-103 47v99zM638 64v201l-38 16l-39 -14v-173l48 -45z" />
    <glyph glyph-name="uni126E" unicode="&#x126e;" horiz-adv-x="851" 
d="M607 722l-245 -92v-15l26 -23l-52 -22l-103 45v112l-26 22l52 23l103 -45v-91l245 93v10l-26 22l52 23l103 -45v-112l26 -23l-51 -22l-104 45v95zM289 316l-108 -29v-57l26 -23l-52 -22l-103 45v112l-26 22l52 23l103 -45v-45l108 32v145l-52 45l78 45l103 -91v-10
l207 101l129 -68v-406l52 -46l-78 -44l-103 88v363l-98 55l-109 -53v-364l52 -44l-78 -45l-103 90v226z" />
    <glyph glyph-name="Uni126F" unicode="&#x126f;" horiz-adv-x="650" 
d="M558 261l54 -48l-80 -46l-106 92v202l-98 56l-112 -54v-370l52 -46l-79 -47l-105 94v391l-37 38l63 30l106 -69v-12l210 104l132 -70v-245zM431 714l-250 -95v-16l26 -23l-52 -24l-106 47v116l-26 24l53 22l105 -46v-94l250 97v10l-26 23l53 23l105 -46v-116l27 -23
l-53 -23l-106 46v98z" />
    <glyph glyph-name="uni1270" unicode="&#x1270;" horiz-adv-x="705" 
d="M288 440l-90 -29v-51l26 -24l-52 -24l-104 48v83l-26 24l52 24l104 -48v-23l90 29v187l-52 47l78 47l104 -94v-217l90 26v21l-26 24l52 24l104 -48v-84l26 -23l-52 -24l-104 47v55l-90 -26v-316l52 -48l-78 -47l-104 96v344z" />
    <glyph glyph-name="uni1271" unicode="&#x1271;" horiz-adv-x="701" 
d="M416 205l86 30v55l-26 23l52 24l103 -47v-118l26 -24l-52 -23l-103 47v55l-86 -30v-102l51 -48l-77 -47l-104 96v344l-89 -29v-51l26 -24l-52 -24l-103 48v83l-26 24l52 24l103 -48v-23l89 29v187l-51 47l77 47l104 -94v-217l88 26v21l-26 24l52 24l103 -48v-84l26 -23
l-52 -24l-103 47v55l-88 -26v-206z" />
    <glyph glyph-name="uni1272" unicode="&#x1272;" horiz-adv-x="710" 
d="M416 92l46 -43l52 30v50l-26 24l52 23l103 -47v-119l26 -22l-52 -24l-103 46v59l-123 -72l-105 96v344l-89 -29v-51l26 -24l-52 -23l-103 47v84l-26 24l52 23l103 -47v-24l89 29v188l-51 47l77 47l104 -95v-217l88 27v21l-26 24l52 23l103 -47v-84l26 -24l-52 -24
l-103 48v55l-88 -27v-316z" />
    <glyph glyph-name="uni1273" unicode="&#x1273;" horiz-adv-x="705" 
d="M288 437l-90 -29v-50l26 -24l-52 -23l-104 47v83l-26 24l52 23l104 -47v-23l90 28v187l-52 46l78 47l104 -94v-215l90 26v21l-26 23l52 24l104 -47v-84l26 -23l-52 -24l-104 47v55l-90 -27v-144l-214 -73v-97l52 -47l-78 -47l-104 95v68l214 72v202z" />
    <glyph glyph-name="uni1274" unicode="&#x1274;" horiz-adv-x="707" 
d="M493 70v188l-34 16l-38 -14v-162l44 -42zM289 96v343l-91 -29v-51l27 -23l-53 -24l-104 47v84l-26 23l52 24l104 -47v-24l91 29v187l-52 46l78 47l104 -94v-216l90 26v21l-26 24l53 23l104 -47v-83l26 -24l-52 -23l-105 47v54l-90 -26v-142l99 34l98 -44v-205l24 -22
l-48 -22l-99 44v8l-105 -52z" />
    <glyph glyph-name="uni1275" unicode="&#x1275;" horiz-adv-x="709" 
d="M294 627l-28 28l-69 -28v-57l26 -23l-52 -24l-103 47v116l-26 23l52 23l103 -46v-45l144 64l83 -78v-214l89 26v21l-26 23l52 22l103 -45v-84l26 -22l-52 -24l-103 46v55l-89 -26v-312l51 -46l-77 -47l-104 94v340l-89 -29v-50l26 -24l-52 -23l-103 47v82l-26 24l52 23
l103 -47v-23l89 29v184z" />
    <glyph glyph-name="uni1276" unicode="&#x1276;" horiz-adv-x="703" 
d="M417 543l45 12v145l-22 11l-23 -5v-163zM417 535v-118l89 26v21l-26 23l51 24l104 -47v-83l26 -24l-52 -24l-103 48v54l-89 -26v-315l52 -47l-78 -47l-104 95v343l-89 -29v-51l25 -24l-51 -23l-104 47v83l-26 24l52 23l104 -47v-23l89 29v186l-52 46l251 49l71 -22v-167
l20 -10l-39 -8l-75 26z" />
    <glyph glyph-name="uni1277" unicode="&#x1277;" horiz-adv-x="705" 
d="M478 19v-62l99 -42l49 22l-25 20v107l-98 42l-49 -21l24 -21v-33l-60 -5v385l90 26v-55l104 -47l52 24l-26 23v84l-104 48l-52 -24l26 -24v-21l-90 -26v217l-104 94l-78 -47l52 -47v-187l-90 -29v23l-104 48l-52 -24l26 -24v-83l104 -48l52 24l-26 24v51l90 29v-426
l-60 -6v49l-98 42l-49 -21l25 -21v-107l98 -43l49 22l-25 21v45z" />
    <glyph glyph-name="uni1278" unicode="&#x1278;" horiz-adv-x="701" 
d="M416 633v-222l88 26v21l-26 22l52 24l103 -46v-83l26 -23l-52 -23l-103 46v53l-88 -26v-309l51 -46l-77 -47l-104 94v338l-89 -30v-49l26 -23l-52 -23l-103 46v83l-26 23l52 23l103 -46v-24l89 29v184l-40 39l-32 -12v-59l26 -23l-52 -23l-103 46v115l-26 24l52 23
l103 -47v-44l127 40l75 -60l85 24v54l-26 23l52 23l103 -46v-116l26 -24l-52 -22l-103 46v51z" />
    <glyph glyph-name="uni1279" unicode="&#x1279;" horiz-adv-x="707" 
d="M419 642v-226l90 26v21l-26 24l53 23l104 -47v-83l26 -23l-52 -24l-105 47v54l-90 -26v-204l87 29v55l-26 23l54 24l104 -47v-117l26 -23l-52 -24l-106 47v54l-87 -31v-100l52 -47l-78 -47l-104 95v342l-91 -29v-51l27 -23l-53 -24l-104 47v84l-26 23l52 24l104 -47v-24
l91 29v186l-40 39l-33 -11v-60l26 -24l-53 -23l-104 47v118l-26 22l52 24l105 -46v-47l128 41l75 -61l86 25v54l-26 24l53 23l104 -47v-116l26 -24l-52 -24l-105 48v52z" />
    <glyph glyph-name="uni127A" unicode="&#x127a;" horiz-adv-x="706" 
d="M285 624l-41 37l-31 -10v-60l26 -23l-52 -23l-103 46v116l-25 24l51 23l103 -47v-46l126 42l74 -60l85 24v54l-25 23l51 22l103 -45v-117l25 -24l-51 -23l-103 47v52l-85 -24v-222l88 26v21l-25 22l51 23l103 -45v-84l25 -24l-51 -22l-103 46v54l-88 -26v-312l47 -41
l51 29v50l-26 23l52 23l102 -46v-117l26 -24l-51 -22l-103 46v57l-122 -71l-104 94v340l-89 -29v-51l26 -22l-52 -23l-102 45v84l-26 23l51 23l103 -46v-23l89 28v185z" />
    <glyph glyph-name="uni127B" unicode="&#x127b;" horiz-adv-x="701" 
d="M416 633v-222l88 26v21l-26 22l52 24l103 -46v-83l26 -23l-52 -23l-103 46v53l-88 -26v-142l-213 -71v-96l52 -46l-78 -47l-103 94v67l212 72v199l-89 -30v-49l26 -23l-52 -23l-103 46v83l-26 23l52 23l103 -46v-24l89 29v184l-40 39l-32 -12v-59l26 -23l-52 -23l-103 46
v115l-26 24l52 23l103 -47v-44l127 40l75 -60l85 24v54l-26 23l52 23l103 -46v-116l26 -24l-52 -22l-103 46v51z" />
    <glyph glyph-name="uni127C" unicode="&#x127c;" horiz-adv-x="705" 
d="M418 643v-225l90 26v21l-26 23l52 24l104 -47v-84l26 -23l-52 -24l-104 47v55l-90 -26v-142l99 34l97 -44v-205l24 -22l-48 -22l-98 44v8l-105 -52l-99 87v343l-90 -29v-51l26 -24l-52 -23l-104 47v83l-26 24l52 23l104 -47v-23l90 29v186l-40 39l-33 -12v-59l26 -24
l-52 -23l-104 47v117l-26 24l52 23l104 -47v-46l128 41l75 -61l86 25v54l-26 24l52 23l104 -47v-117l26 -23l-52 -24l-104 47v53zM492 70v188l-34 16l-38 -14v-162l44 -42z" />
    <glyph glyph-name="uni127D" unicode="&#x127d;" horiz-adv-x="876" 
d="M397 650v-84l112 62l82 -76v-210l88 26v20l-26 23l52 23l103 -46v-81l26 -23l-52 -23l-103 46v53l-88 -26v-242l52 -46l-78 -46l-103 92v271l-90 -29v-49l25 -23l-51 -23l-103 46v81l-26 23l51 23l104 -46v-23l90 28v182l-29 21l-36 -21v-32l26 -23l-51 -23l-104 46v121
l-39 37l-32 -11v-59l26 -22l-52 -23l-103 45v115l-26 22l52 23l103 -45v-45l126 40l74 -60l181 46v31l-26 23l52 23l103 -46v-114l26 -23l-52 -22l-103 45v73z" />
    <glyph glyph-name="uni127E" unicode="&#x127e;" horiz-adv-x="699" 
d="M414 683v-139l45 13v145l-15 8zM410 692l51 41l93 -26v-167l20 -10l-39 -8l-75 26l-46 -12v-118l89 26v21l-26 24l51 23l103 -47v-84l26 -23l-51 -24l-103 47v55l-89 -26v-316l52 -47l-77 -47l-103 95v344l-89 -29v-51l25 -24l-51 -24l-103 48v83l-26 24l52 23l103 -47
v-23l89 29v187l-41 41l-32 -14v-60l26 -24l-51 -23l-103 47v118l-26 24l51 22l103 -46v-46l134 61z" />
    <glyph glyph-name="uni127F" unicode="&#x127f;" horiz-adv-x="701" 
d="M477 20v-62l99 -42l49 22l-25 20v108l-98 41l-49 -21l24 -20v-34l-61 -6v376l88 26v-53l103 -46l52 23l-26 23v83l-103 46l-52 -24l26 -22v-21l-88 -26v222l85 24v-51l103 -46l52 22l-26 24v116l-103 46l-52 -23l26 -23v-54l-85 -24l-75 60l-127 -40v44l-103 47l-52 -23
l26 -24v-115l103 -46l52 23l-26 23v59l32 12l40 -39v-184l-89 -29v24l-103 46l-52 -23l26 -23v-83l103 -46l52 23l-26 23v49l89 30v-417l-59 -6v49l-98 42l-49 -21l25 -21v-107l98 -43l49 22l-25 21v45z" />
    <glyph glyph-name="uni1280" unicode="&#x1280;" horiz-adv-x="714" 
d="M612 566v-466l52 -50l-78 -50l-103 101v407l-136 -48v100l-140 -37v-80l26 -25l-52 -25l-103 50v129l-26 12l52 25l103 -37v-34l140 34v102l-43 20l59 36l95 -54v-163z" />
    <glyph glyph-name="uni1281" unicode="&#x1281;" horiz-adv-x="869" 
d="M616 387l84 33v57l-26 25l52 25l104 -50v-123l26 -25l-52 -25l-104 50v57l-84 -32v-279l53 -50l-79 -50l-104 101v407l-137 -48v100l-141 -37v-80l26 -25l-52 -25l-104 50v129l-26 12l52 25l104 -37v-34l141 34v102l-43 20l59 36l96 -54v-163l155 53v-179z" />
    <glyph glyph-name="uni1282" unicode="&#x1282;" horiz-adv-x="895" 
d="M617 99l45 -46l52 32v52l-26 25l52 25l106 -50v-123l26 -25l-52 -25l-106 50v60l-123 -76l-104 101v406l-138 -47v98l-140 -35v-81l26 -24l-53 -25l-104 49v130l-26 11l52 25l105 -36v-35l140 35v101l-43 20l59 36l96 -54v-163l156 53v-464z" />
    <glyph glyph-name="uni1283" unicode="&#x1283;" horiz-adv-x="677" 
d="M601 236l-347 -118v-103l52 -50l-78 -50l-104 101v72l347 121v295l-136 -47v99l-142 -36v-80l26 -25l-52 -25l-104 50v129l-26 12l52 25l104 -37v-34l142 34v102l-45 20l60 36l96 -54v-163l155 53v-327z" />
    <glyph glyph-name="uni1284" unicode="&#x1284;" horiz-adv-x="867" 
d="M690 68v213l-37 16l-39 -14v-183l47 -49zM484 98v404l-137 -46v98l-139 -35v-80l26 -25l-52 -25l-104 50v128l-26 11l52 25l104 -36v-35l139 35v101l-43 19l59 36l96 -53v-162l155 52v-269l102 39l104 -49v-232l26 -24l-52 -25l-104 49v9l-102 -58z" />
    <glyph glyph-name="uni1285" unicode="&#x1285;" 
d="M181 486l-24 8q30 63 113 63v-98l138 47v-406l104 -100l78 50l-52 49v465l-155 -52v162l-97 54l-59 -36l43 -20v-101q-65 0 -102 -16t-56 -45l-35 12l-52 -25l26 -11v-103l104 -50l52 25l-26 25v103z" />
    <glyph glyph-name="uni1286" unicode="&#x1286;" horiz-adv-x="875" 
d="M312 518l-129 -33v-79l26 -25l-51 -25l-104 50v128l-26 11l52 25l103 -36v-35l129 31v114l-52 21l78 49l103 -71v-13l187 38v15l-26 25l52 25l103 -50v-122l26 -24l-52 -25l-103 49v94l-187 -36v-291l272 65l53 -45v-249l52 -50l-78 -49l-102 100v220l-31 35l-244 -63
l-51 49v177z" />
    <glyph glyph-name="uni1288" unicode="&#x1288;" horiz-adv-x="993" 
d="M586 393l80 38v100l-36 14l58 21l88 -36v-8l109 55l68 -55v-231l21 -19l-44 -17l-88 36v6l-18 -9l-70 -33l-88 73v87l-80 -35v-281l52 -49l-78 -50l-104 100v406l-137 -47v98l-140 -35v-80l26 -25l-52 -25l-104 50v129l-26 11l52 25l104 -36v-35l140 35v101l-43 20l59 36
l96 -54v-162l155 52v-171zM820 294l22 13v207l-22 22l-44 -22v-187z" />
    <glyph glyph-name="uni128A" unicode="&#x128a;" horiz-adv-x="994" 
d="M590 346l74 27v136l-26 26l52 25l105 -51v-84l46 20l104 -37v-93l26 -24l-52 -25l-104 49v99l-225 -77v-237l52 -51l-78 -49l-104 101v404l-137 -46v99l-140 -35v-81l26 -25l-52 -25l-104 50v129l-26 11l52 25l104 -36v-34l140 34v102l-43 20l59 35l96 -53v-164l155 53
v-218z" />
    <glyph glyph-name="uni128B" unicode="&#x128b;" horiz-adv-x="833" 
d="M471 130v374l-136 -47v99l-141 -35v-81l26 -25l-52 -25l-104 50v130l-26 11l52 25l104 -36v-35l141 35v102l-44 20l59 36l96 -54v-164l155 53v-393l149 38v-239l55 -28l-81 -47l-104 73v192l-315 -92v-63l26 -25l-52 -25l-104 50v93l-26 25l52 25l104 -50v-18z" />
    <glyph glyph-name="uni128C" unicode="&#x128c;" horiz-adv-x="855" 
d="M669 86v216l-38 16l-39 -15v-184l49 -49zM461 132l1 372l-136 -46v98l-141 -35v-81l26 -25l-52 -24l-104 49v130l-26 11l52 25l104 -36v-35l141 35v101l-44 20l59 36l96 -54v-163l155 53v-252l103 39l104 -48v-234l26 -25l-52 -25l-104 50v9l-103 -59l-105 101l-148 -51
v-63l26 -25l-52 -25l-104 50v93l-26 25l52 24l104 -49v-19z" />
    <glyph glyph-name="uni128D" unicode="&#x128d;" horiz-adv-x="1018" 
d="M591 404l76 34v58l-26 25l52 24l105 -49v-117l70 34l104 -38v-91l26 -25l-52 -25l-104 50v105l-175 -73v114l-76 -36v-294l52 -50l-78 -50l-104 101v407l-137 -48v100l-140 -37v-80l26 -25l-52 -25l-104 50v129l-26 12l52 25l104 -37v-34l140 34v102l-43 20l59 36l96 -54
v-163l155 53v-162z" />
    <glyph glyph-name="uni1290" unicode="&#x1290;" horiz-adv-x="524" 
d="M269 453l-124 -45l-51 45v176l-52 49l78 50l105 -100v-179l151 56l55 -44v-361l52 -50l-78 -50l-105 101v332z" />
    <glyph glyph-name="uni1291" unicode="&#x1291;" horiz-adv-x="707" 
d="M426 326l85 28v58l-26 24l52 25l103 -49v-125l26 -24l-52 -25l-103 49v58l-85 -29v-217l52 -49l-78 -50l-103 100v332l-30 20l-122 -40l-51 40v175l-52 49l78 50l103 -100v-178l150 56l53 -45v-133z" />
    <glyph glyph-name="uni1292" unicode="&#x1292;" horiz-adv-x="728" 
d="M431 97l46 -47l52 31v52l-26 25l52 25l105 -50v-123l26 -25l-52 -25l-105 50v60l-123 -75l-106 101v331l-31 21l-124 -40l-51 40v176l-52 48l78 50l105 -99v-178l153 56l53 -45v-359z" />
    <glyph glyph-name="uni1293" unicode="&#x1293;" horiz-adv-x="642" 
d="M223 628l187 38v15l-26 24l52 25l103 -49v-123l26 -24l-52 -24l-103 48v94l-187 -35v-290l272 65l53 -46v-248l52 -49l-78 -49l-103 99v220l-30 34l-244 -62l-51 49v301l-52 21l78 49l103 -71v-12z" />
    <glyph glyph-name="uni1294" unicode="&#x1294;" horiz-adv-x="706" 
d="M508 69v214l-38 18l-39 -16v-184l48 -49zM300 99v334l-31 20l-124 -45l-51 45v176l-52 49l78 50l105 -100v-179l153 56l53 -44v-168l103 40l105 -50v-233l26 -25l-52 -25l-105 50v8l-103 -58z" />
    <glyph glyph-name="uni1295" unicode="&#x1295;" horiz-adv-x="668" 
d="M350 635l-42 34l-111 -35v-78l26 -24l-52 -24l-103 48v124l-26 24l52 25l103 -49v-34l231 71l65 -56l-71 -217l151 56l53 -46l-78 -356l51 -49l-77 -49l-104 99l79 328l-30 21l-123 -43l-51 43z" />
    <glyph glyph-name="uni1296" unicode="&#x1296;" horiz-adv-x="720" 
d="M522 486l23 11v169l-23 20l-44 -20v-149zM368 653v29l-36 14l59 21l87 -36v-8l111 55l67 -55v-191l22 -18l-45 -18l-88 36v7l-19 -11l-69 -32l-89 72v125l-143 -27v-296l274 71l53 -45v-248l53 -49l-79 -49l-104 99v219l-30 34l-247 -62l-51 49v300l-52 21l78 49l105 -71
v-12z" />
    <glyph glyph-name="uni1297" unicode="&#x1297;" horiz-adv-x="752" 
d="M591 12v-61l99 -43l48 22l-25 21v107l-97 42l-49 -21l24 -21v-33l-43 -4v325l-53 46l-272 -65v290l187 35v-94l103 -48l52 24l-26 24v123l-103 49l-52 -25l26 -24v-15l-187 -38v12l-103 71l-78 -49l52 -21v-301l51 -49l244 62l30 -34v-310l-79 -7v49l-98 42l-49 -21
l25 -21v-107l98 -43l49 22l-25 21v45z" />
    <glyph glyph-name="uni1298" unicode="&#x1298;" horiz-adv-x="693" 
d="M396 630v-206l151 53l52 -43v-340l52 -47l-77 -47l-104 95v313l-30 19l-123 -42l-50 42v194l-37 39l-33 -11v-62l26 -23l-52 -24l-103 47v118l-26 23l52 24l103 -47v-46l126 41l75 -60l86 24v54l-26 22l52 24l103 -46v-118l26 -23l-51 -24l-104 47v53z" />
    <glyph glyph-name="uni1299" unicode="&#x1299;" horiz-adv-x="885" 
d="M603 310l84 24v56l-26 24l52 24l104 -48v-120l26 -24l-52 -23l-104 47v56l-84 -24v-206l52 -48l-78 -48l-104 97v319l-30 21l-124 -45l-51 45v195l-37 41l-33 -11v-63l26 -24l-52 -24l-104 48v120l-26 24l52 23l104 -47v-47l128 42l74 -62l87 25v55l-26 24l52 24l104 -48
v-119l26 -24l-52 -24l-104 48v54l-89 -24v-210l152 54l53 -44v-133z" />
    <glyph glyph-name="uni129A" unicode="&#x129a;" horiz-adv-x="892" 
d="M469 93v319l-29 20l-123 -44l-51 44v195l-37 40l-32 -11v-62l25 -24l-51 -24l-103 48v118l-26 24l52 24l103 -48v-45l126 41l74 -62l86 25v55l-26 24l52 24l103 -48v-119l26 -24l-52 -23l-103 47v53l-88 -22v-211l151 56l52 -45v-345l47 -46l51 30v50l-25 24l51 24
l103 -48v-119l26 -24l-51 -24l-104 48v59l-123 -73z" />
    <glyph glyph-name="uni129B" unicode="&#x129b;" horiz-adv-x="701" 
d="M284 512v141l-39 34l-33 -9v-54l26 -21l-52 -22l-104 43v106l-26 21l52 21l104 -42v-42l128 37l75 -55l86 23v49l-26 20l52 22l104 -42v-107l26 -19l-52 -22l-104 41v48l-86 -22v-125l88 16v14l-26 21l52 21l104 -42v-106l26 -20l-52 -22l-104 42v82l-279 -52v-225
l273 56l53 -38v-199l52 -41l-78 -43l-104 85v174l-30 29l-245 -54l-51 43v235l-52 17l78 43l104 -61v-11z" />
    <glyph glyph-name="uni129C" unicode="&#x129c;" horiz-adv-x="863" 
d="M400 632l89 23v-53l105 -47l52 23l-26 24v118l-105 46l-52 -22l26 -24v-54l-87 -25l-75 61l-128 -42v46l-105 48l-52 -24l26 -24v-117l105 -47l52 24l-26 23v62l33 10l37 -39v-192l51 -44l114 41l23 -18v-315l105 -95l103 58v-8l105 -50l52 25l-26 25v233l-105 50
l-103 -40v143l-54 42l-134 -50v205zM665 68l-29 -17l-48 49v184l39 16l38 -18v-214z" />
    <glyph glyph-name="uni129D" unicode="&#x129d;" horiz-adv-x="714" 
d="M260 700l-62 -15v-21l26 -22l-52 -23l-104 45v112l-26 22l52 23l104 -45v-80l290 63v29l-26 22l52 23l104 -45v-112l26 -22l-52 -23l-104 45v74l-96 -22v-141l82 19l65 -51l-71 -197l152 51l53 -41l-86 -279l52 -44l-78 -45l-104 90l86 253l-30 19l-124 -40l-52 40
l58 170l-43 33l-141 -34v-70l26 -22l-52 -23l-104 45v112l-26 22l52 23l104 -45v-31l49 12v146z" />
    <glyph glyph-name="uni129E" unicode="&#x129e;" horiz-adv-x="800" 
d="M267 523v161l-38 36l-32 -10v-57l26 -22l-52 -22l-103 44v111l-26 22l52 22l103 -44v-43l126 38l74 -57l86 23v51l-25 23l51 22l103 -45v-110l26 -22l-51 -22l-104 44v50l-86 -23v-147l55 10v25l-35 13l57 19l88 -32v-7l108 49l66 -49v-174l22 -15l-45 -16l-86 31v7
l-19 -9l-68 -29l-88 65v112l-228 -41v-238l270 64l53 -41v-202l51 -43l-77 -45l-103 89v176l-30 30l-243 -56l-50 45v243l-52 19l77 45l104 -65v-10zM604 405l23 10v152l-23 20l-42 -20v-134z" />
    <glyph glyph-name="uni129F" unicode="&#x129f;" horiz-adv-x="770" 
d="M607 17v-62l99 -42l49 21l-25 21v107l-98 42l-49 -21l24 -21v-33l-57 -5v259l-53 38l-273 -56v225l279 52v-82l104 -42l52 22l-26 20v106l-104 42l-52 -21l26 -21v-14l-88 -16v125l86 22v-48l104 -41l52 22l-26 19v107l-104 42l-52 -22l26 -20v-49l-86 -23l-75 55
l-128 -37v42l-104 42l-52 -21l26 -21v-106l104 -43l52 22l-26 21v54l33 9l39 -34v-141l-60 -12v11l-104 61l-78 -43l52 -17v-235l51 -43l245 54l30 -29v-248l-63 -5v49l-98 42l-49 -21l25 -21v-107l98 -43l49 22l-25 21v45z" />
    <glyph glyph-name="uni12A0" unicode="&#x12a0;" horiz-adv-x="708" 
d="M340 541v20l-168 -70l-79 50v120l-51 34l78 33l103 -45v-132l19 -19l107 40v-40l-66 -61v-75l211 121l118 -65v-356l55 -51l-81 -45l-103 95v324l-76 38l-124 -71v-290l52 -48l-78 -48l-103 96v273z" />
    <glyph glyph-name="uni12A1" unicode="&#x12a1;" horiz-adv-x="884" 
d="M614 310l72 22v56l-26 23l52 24l104 -47v-120l26 -24l-52 -24l-104 48v55l-72 -21v-206l55 -51l-81 -45l-104 95v324l-76 38l-124 -71v-290l52 -48l-78 -48l-104 96v273l187 172v20l-169 -70l-79 50v120l-51 34l78 33l104 -45v-132l19 -19l107 40v-40l-66 -61v-75
l211 121l119 -65v-142z" />
    <glyph glyph-name="uni12A2" unicode="&#x12a2;" horiz-adv-x="903" 
d="M609 94l46 -44l51 30v51l-26 24l52 24l103 -48v-120l26 -23l-52 -24l-103 47v59l-123 -73l-103 95v327l-75 39l-123 -73v-292l52 -48l-78 -48l-103 97v275l186 173v20l-168 -70l-78 50v122l-51 33l77 33l104 -45v-133l19 -20l106 41v-41l-66 -61v-75l210 122l117 -66
v-358z" />
    <glyph glyph-name="uni12A3" unicode="&#x12a3;" horiz-adv-x="708" 
d="M340 544v20l-168 -70l-79 50v122l-51 33l78 33l103 -45v-133l19 -18l107 39v-39l-66 -62v-76l211 122l118 -66v-357l55 -52l-81 -45l-103 95v326l-76 39l-124 -72v-178l52 -48l-78 -48l-103 96v161z" />
    <glyph glyph-name="uni12A4" unicode="&#x12a4;" horiz-adv-x="888" 
d="M614 283l103 37l104 -48v-224l26 -24l-52 -24l-104 48v8l-103 -56l-104 95v326l-76 39l-124 -72v-292l52 -48l-78 -48l-104 97v274l187 173v20l-169 -70l-79 50v122l-51 33l78 33l104 -45v-133l19 -18l107 39v-39l-66 -62v-76l211 122l119 -66v-171zM691 67v205l-38 17
l-39 -14v-178l48 -47z" />
    <glyph glyph-name="uni12A5" unicode="&#x12a5;" horiz-adv-x="771" 
d="M400 524v19l-141 -61l-80 20l1 77l-87 -37v123l-51 32l78 32l105 -43v-91l86 38v-93l20 -19l79 33v-38l-68 -59v-73l212 117l120 -63v-344l55 -50l-81 -44l-105 92v314l-76 37l-125 -70v-280l53 -47l-79 -46l-104 94v264z" />
    <glyph glyph-name="uni12A6" unicode="&#x12a6;" horiz-adv-x="710" 
d="M341 539v21l-169 -70l-79 49v120l-51 34l78 33l104 -45v-132l19 -19l107 41v-41l-66 -60v-75l211 121l119 -65v-217l55 -52l-81 -45l-104 95v186l-76 38l-124 -71v-290l52 -47l-78 -48l-104 96v272z" />
    <glyph glyph-name="uni12A7" unicode="&#x12a7;" horiz-adv-x="808" 
d="M417 698v-62l99 -42l49 22l-25 20v108l-98 41l-49 -21l24 -20v-34l-251 -23v49l-97 42l-49 -21l25 -21v-107l97 -42l49 21l-25 21v45l52 5v-138l79 -50l169 70v-20l-186 -172v-273l103 -96l78 48l-52 48v290l123 71l76 -38v-324l103 -95l81 45l-55 51v356l-117 65
l-211 -121v75l66 61v40l-107 -40l-20 19v141z" />
    <glyph glyph-name="uni12A8" unicode="&#x12a8;" horiz-adv-x="824" 
d="M268 453l-30 -14l-145 63v156l-51 35l78 35l104 -47v-222l17 -8l27 15v62l130 63v-81l210 125l119 -67v-468l55 -53l-81 -47l-104 98v458l-52 33l-147 -91v-399l51 -49l-77 -50l-104 100v353z" />
    <glyph glyph-name="uni12A9" unicode="&#x12a9;" horiz-adv-x="1002" 
d="M729 360l75 29v57l-26 25l52 25l104 -50v-124l26 -25l-52 -25l-104 50v58l-75 -30v-250l56 -53l-82 -47l-104 98v458l-54 31l-146 -89v-399l52 -49l-78 -50l-105 100v353l-30 -14l-145 63v156l-51 35l78 35l104 -47v-222l17 -8l27 15v62l131 63v-81l211 125l119 -67v-208
z" />
    <glyph glyph-name="uni12AA" unicode="&#x12aa;" horiz-adv-x="1025" 
d="M729 99l47 -46l52 31v53l-26 25l52 24l104 -49v-123l26 -25l-52 -25l-104 50v60l-125 -76l-104 99v457l-54 30l-146 -87v-399l52 -50l-78 -50l-105 101v352l-30 -14l-145 63v156l-51 35l78 35l104 -47v-222l17 -8l27 15v62l131 63v-81l211 125l119 -67v-467z" />
    <glyph glyph-name="uni12AB" unicode="&#x12ab;" horiz-adv-x="824" 
d="M268 451l-30 -13l-145 63v155l-51 35l78 35l104 -47v-221l17 -9l27 16v62l130 63v-81l210 124l119 -66v-467l55 -53l-81 -47l-104 98v456l-54 32l-145 -89v-252l51 -49l-77 -49l-104 99v205z" />
    <glyph glyph-name="uni12AC" unicode="&#x12ac;" horiz-adv-x="1000" 
d="M803 69v214l-38 18l-38 -16v-184l48 -49zM727 293l102 40l104 -50v-233l26 -25l-52 -25l-104 50v8l-102 -58l-104 99v458l-56 30l-144 -87v-400l52 -50l-78 -50l-103 101v353l-30 -14l-145 64v156l-51 35l78 35l104 -47v-222l17 -9l27 15v62l129 64v-82l211 127l119 -68
v-277z" />
    <glyph glyph-name="uni12AD" unicode="&#x12ad;" horiz-adv-x="824" 
d="M268 454l-30 -14l-145 64v156l-51 35l78 35l104 -47v-222l17 -9l27 15v62l130 64v-82l210 127l119 -68v-469l55 -54l-81 -47l-104 99v458l-56 30l-143 -87v-400l51 -50l-77 -50l-104 101v169l118 38v23l-118 58v65z" />
    <glyph glyph-name="uni12AE" unicode="&#x12ae;" horiz-adv-x="824" 
d="M268 451l-30 -13l-145 63v155l-51 35l78 35l104 -47v-221l17 -9l27 16v62l130 63v-81l210 124l119 -66v-280l55 -54l-81 -46l-104 98v269l-54 32l-145 -89v-398l51 -49l-77 -50l-104 100v351z" />
    <glyph glyph-name="uni12B0" unicode="&#x12b0;" horiz-adv-x="1119" 
d="M705 347v-246l55 -54l-81 -47l-104 99v458l-52 34l-148 -91v-400l52 -50l-78 -50l-104 101v353l-30 -14l-145 64v156l-51 35l78 35l104 -47v-222l17 -9l27 15v62l130 64v-82l212 127l118 -68v-210l85 42v101l-35 14l58 21l88 -36v-8l109 56l67 -56v-232l22 -18l-44 -17
l-88 35v7l-19 -10l-69 -32l-89 73v87zM944 266l23 13v207l-23 22l-43 -22v-188z" />
    <glyph glyph-name="uni12B2" unicode="&#x12b2;" horiz-adv-x="1144" 
d="M708 374l76 36v57l-26 25l52 25l105 -50v-110l71 28l104 -38v-91l26 -25l-52 -25l-104 50v105l-176 -73v112l-76 -34v-266l55 -53l-81 -47l-104 98v458l-52 33l-147 -91v-399l52 -49l-78 -50l-104 100v353l-31 -14l-145 63v156l-51 35l78 35l104 -47v-222l18 -8l27 15v62
l130 63v-81l211 125l118 -67v-194z" />
    <glyph glyph-name="uni12B3" unicode="&#x12b3;" horiz-adv-x="939" 
d="M723 159l-209 -59v-64l26 -25l-52 -25l-104 50v93l-26 25l52 25l104 -50v-18l60 19v425l-54 31l-146 -89v-234l39 -18l-65 -48l-104 67v187l-30 -13l-145 63v156l-51 36l78 35l104 -48v-222l17 -9l27 15v63l130 63v-81l212 125l118 -67v-397l149 38v-239l55 -28l-81 -47
l-104 73v192z" />
    <glyph glyph-name="uni12B4" unicode="&#x12b4;" horiz-adv-x="969" 
d="M711 312l103 40l104 -50v-233l26 -25l-52 -24l-104 49v9l-103 -58l-105 100l-60 -17v-62l26 -25l-52 -25l-104 50v91l-26 25l52 25l104 -50v-18l60 19v423l-54 31l-145 -89v-233l38 -16l-64 -50l-104 67v186l-31 -13l-145 63v156l-51 35l78 35l104 -47v-222l18 -8l27 15
v62l130 63v-81l211 125l119 -67v-256zM788 87v215l-37 17l-40 -15v-184l49 -49z" />
    <glyph glyph-name="uni12B5" unicode="&#x12b5;" horiz-adv-x="1116" 
d="M708 287v-187l55 -53l-81 -47l-104 98v455l-52 34l-147 -91v-397l52 -50l-78 -49l-104 100v351l-31 -14l-145 63v155l-51 35l78 35l104 -47v-221l18 -8l27 15v62l130 63v-81l211 124l118 -66v-266l86 30v135l-26 25l52 24l105 -49v-84l46 19l104 -37v-91l26 -24l-52 -24
l-104 48v98z" />
    <glyph glyph-name="uni12B8" unicode="&#x12b8;" horiz-adv-x="988" 
d="M249 602l-67 -25v-14l26 -22l-52 -21l-104 43v108l-26 22l52 21l104 -43v-88l246 90v10l-26 21l52 22l104 -43v-108l26 -22l-52 -22l-104 44v92l-48 -18v-249l17 -7l27 14v54l130 54v-71l211 110l119 -59v-408l55 -46l-81 -41l-104 85v400l-52 29l-148 -79v-349l52 -42
l-78 -44l-104 87v308l-30 -12l-145 55v164z" />
    <glyph glyph-name="uni12B9" unicode="&#x12b9;" horiz-adv-x="1140" 
d="M380 652v-251l17 -6l27 13v55l130 54v-71l211 110l119 -59v-182l74 25v51l-26 21l52 22l104 -43v-109l26 -22l-52 -21l-104 43v51l-74 -26v-220l55 -46l-81 -41l-104 86v401l-54 27l-146 -77v-351l52 -42l-78 -44l-104 87v309l-30 -11l-145 55v164l-67 -24v-15l26 -21
l-52 -22l-104 43v109l-26 22l52 21l104 -43v-88l246 90v9l-26 22l52 22l104 -44v-108l26 -22l-52 -21l-104 43v93z" />
    <glyph glyph-name="uni12BA" unicode="&#x12ba;" horiz-adv-x="1162" 
d="M380 695v-269l17 -7l27 15v58l130 58v-76l211 118l119 -63v-439l46 -43l52 30v49l-26 24l52 23l104 -47v-116l26 -24l-52 -22l-104 46v57l-124 -71l-104 92v430l-54 29l-146 -83v-375l52 -46l-78 -47l-104 94v331l-30 -13l-145 60v176l-67 -26v-17l26 -23l-52 -23
l-104 46v117l-26 24l52 22l104 -46v-94l246 97v10l-26 23l52 23l104 -46v-116l26 -23l-52 -24l-104 47v98z" />
    <glyph glyph-name="uni12BB" unicode="&#x12bb;" horiz-adv-x="963" 
d="M249 647l-67 -26v-16l26 -24l-52 -23l-104 47v116l-26 24l52 23l104 -47v-94l246 97v10l-26 23l52 23l104 -46v-116l26 -23l-52 -24l-104 47v99l-48 -19v-267l17 -9l27 15v58l130 58v-76l211 119l119 -64v-438l55 -50l-81 -44l-104 92v429l-54 29l-146 -83v-236l52 -47
l-78 -47l-104 94v193l-30 -12l-145 59v176z" />
    <glyph glyph-name="uni12BC" unicode="&#x12bc;" horiz-adv-x="1144" 
d="M961 64v201l-37 16l-40 -14v-173l49 -45zM249 648l-67 -26v-16l26 -23l-52 -23l-104 46v117l-26 23l52 24l104 -47v-94l246 97v10l-26 23l52 23l104 -46v-116l26 -24l-52 -23l-104 47v99l-48 -19v-268l17 -8l27 14v58l130 59v-77l211 119l119 -63v-259l103 37l104 -47
v-218l26 -24l-52 -23l-104 47v8l-103 -55l-104 93v429l-56 27l-144 -80v-375l52 -47l-78 -47l-104 94v331l-30 -12l-145 59v176z" />
    <glyph glyph-name="uni12BD" unicode="&#x12bd;" horiz-adv-x="963" 
d="M249 644l-67 -26v-16l26 -23l-52 -23l-104 46v116l-26 24l52 22l104 -46v-93l246 96v10l-26 23l52 23l104 -46v-115l26 -24l-52 -23l-104 47v97l-48 -18v-267l17 -7l27 14v58l130 58v-76l211 118l119 -63v-436l55 -50l-81 -44l-104 92v427l-56 27l-144 -80v-373l52 -47
l-78 -46l-104 94v158l118 35v21l-118 54v61l-30 -13l-145 59v175z" />
    <glyph glyph-name="uni12BE" unicode="&#x12be;" horiz-adv-x="963" 
d="M249 645l-67 -26v-16l26 -23l-52 -24l-104 47v116l-26 24l52 22l104 -46v-94l246 97v10l-26 23l52 23l104 -46v-116l26 -23l-52 -23l-104 46v98l-48 -18v-266l17 -9l27 15v58l130 58v-76l211 118l119 -63v-263l55 -50l-81 -43l-104 92v253l-54 28l-146 -82v-373l52 -46
l-78 -47l-104 94v329l-30 -12l-145 59v175z" />
    <glyph glyph-name="Uni12C0" unicode="&#x12c0;" horiz-adv-x="1285" 
d="M240 681v-177l146 -64l30 14v-353l104 -101l78 50l-52 50v400l148 91l52 -34v-458l104 -99l81 47l-55 54v246l85 40v-87l88 -73l70 32l19 10v-7l87 -35l45 17l-22 18v232l-68 56l-109 -56v8l-87 36l-58 -21l35 -14v-101l-85 -42v210l-119 68l-211 -127v82l-130 -64v-62
l-27 -15l-18 9v271l49 19v-99l104 -46l52 23l-26 23v117l-104 45l-52 -23l26 -22v-11l-246 -97v94l-104 47l-52 -23l26 -24v-115l104 -47l52 24l-26 23v15zM1115 266l-44 32v188l44 22l23 -22v-207z" />
    <glyph glyph-name="Uni12C2" unicode="&#x12c2;" horiz-adv-x="1304" 
d="M239 697l1 -195l146 -63l30 14v-353l104 -100l78 50l-52 49v399l148 91l52 -33v-458l104 -98l81 47l-55 53v266l76 34v-112l175 73v-105l104 -50l52 25l-26 25v91l-104 38l-70 -28v110l-105 50l-52 -25l26 -25v-57l-76 -36v194l-119 67l-211 -125v81l-130 -63v-62
l-27 -15l-18 8v289l48 18v-98l104 -46l52 23l-26 23v116l-104 46l-52 -23l26 -23v-10l-246 -97v94l-104 46l-52 -22l26 -24v-116l104 -47l52 24l-26 23v16z" />
    <glyph glyph-name="Uni12C3" unicode="&#x12c3;" horiz-adv-x="1101" 
d="M248 703v-202l145 -63l30 13v-187l104 -67l65 48l-39 18v234l146 89l54 -31v-425l-60 -19v18l-104 50l-52 -25l26 -25v-93l104 -50l52 25l-26 25v64l209 59v-192l104 -73l81 47l-55 28v239l-149 -38v397l-119 67l-211 -125v81l-130 -63v-63l-27 -15l-17 9v296l48 19v-99
l104 -46l52 23l-26 23v116l-104 46l-52 -23l26 -23v-10l-246 -97v94l-104 47l-52 -23l26 -24v-116l104 -46l52 24l-26 22v16z" />
    <glyph glyph-name="Uni12C4" unicode="&#x12c4;" horiz-adv-x="1134" 
d="M243 703v-205l146 -63l30 13v-186l104 -68l65 50l-39 17v233l146 88l54 -30v-423l-61 -19v18l-104 50l-52 -25l26 -25v-92l104 -50l52 25l-26 25v63l61 16l105 -99l103 58v-10l104 -48l52 24l-26 24v233l-104 50l-103 -39v256l-120 67l-211 -126v82l-130 -63v-62l-27 -15
l-18 7v300l49 19v-99l104 -46l52 23l-26 23v116l-104 46l-52 -23l26 -23v-10l-246 -97v94l-104 47l-52 -23l26 -24v-116l104 -46l52 24l-26 22v16zM957 83l-28 -16l-49 48v185l39 15l38 -18v-214z" />
    <glyph glyph-name="Uni12C5" unicode="&#x12c5;" horiz-adv-x="1279" 
d="M236 683v-183l146 -63l30 14v-351l104 -100l78 49l-52 50v397l148 88l52 -31v-455l104 -98l81 47l-55 53v187l237 83v-98l104 -48l52 24l-26 24v91l-104 37l-47 -19v84l-105 49l-52 -24l26 -25v-135l-85 -28v264l-119 66l-211 -124v81l-130 -63v-62l-27 -15l-18 8v277
l49 19v-99l104 -46l52 23l-26 23v117l-104 45l-52 -22l26 -23v-11l-246 -96v93l-104 47l-52 -23l26 -24v-115l104 -47l52 24l-26 23v15z" />
    <glyph glyph-name="uni12C8" unicode="&#x12c8;" horiz-adv-x="824" 
d="M600 139v470l-72 39l-51 -35v-483l43 -34zM600 129l-149 -78l-104 79l-149 -79l-104 79v499l-52 40l78 38l104 -79v-9l123 88l130 -58v-25l123 83l130 -58v-519l52 -42l-78 -37zM347 138v471l-71 39l-52 -38v-481l44 -33z" />
    <glyph glyph-name="uni12C9" unicode="&#x12c9;" horiz-adv-x="1014" 
d="M730 152l86 21v60l-26 26l52 26l104 -52v-130l26 -26l-52 -26l-104 52v60l-86 -21v-12l52 -42l-78 -37l-104 78l-149 -78l-104 79l-149 -79l-104 79v499l-52 40l78 38l104 -79v-9l123 88l130 -58v-25l123 83l130 -58v-497zM347 138v471l-71 39l-52 -38v-481l44 -33z
M600 139v470l-72 39l-51 -35v-483l43 -34z" />
    <glyph glyph-name="uni12CA" unicode="&#x12ca;" horiz-adv-x="720" 
d="M423 100l46 -46l52 32v53l-26 25l53 25l104 -50v-125l26 -25l-52 -25l-105 50v61l-124 -76l-104 99v272l-122 -57l-87 57v301l-42 28l63 28l86 -57v-6l102 63l130 -42v-18l102 60l107 -42v-315l44 -29l-64 -28l-87 56l-102 -43v-226zM293 376v280l-58 28l-44 -27v-288
l39 -23zM423 333l102 43v280l-59 28l-43 -25v-326z" />
    <glyph glyph-name="uni12CB" unicode="&#x12cb;" horiz-adv-x="719" 
d="M293 370l-121 -56l-88 56v302l-42 28l63 28l87 -57v-7l101 64l131 -43v-18l102 61l107 -43v-315l44 -28l-64 -28l-87 56l-102 -43v-226l55 -54l-81 -47l-105 99v271zM424 334l102 42v280l-59 28l-43 -25v-325zM293 376v280l-58 28l-43 -27v-287l38 -24z" />
    <glyph glyph-name="uni12CC" unicode="&#x12cc;" horiz-adv-x="711" 
d="M490 40v192l-23 10l-47 -13v-172l31 -32zM290 376v280l-57 28l-43 -27v-287l38 -24zM420 334l101 42v280l-59 28l-42 -25v-325zM420 236l85 24l66 -28v-204l17 -14l-34 -14l-64 28v5l-86 -33l-114 73v297l-120 -56l-86 56v302l-42 28l63 28l85 -57v-7l100 64l130 -43v-18
l101 61l105 -43v-315l44 -28l-65 -28l-84 56l-101 -43v-91z" />
    <glyph glyph-name="uni12CD" unicode="&#x12cd;" horiz-adv-x="1018" 
d="M730 461l91 28v60l-26 26l52 26l104 -52v-130l26 -26l-52 -26l-104 52v60l-91 -28v-321l52 -42l-78 -37l-104 78l-149 -78l-104 79l-149 -79l-104 79v499l-52 40l78 38l104 -79v-9l123 88l130 -58v-25l123 83l130 -58v-188zM347 138v471l-71 39l-52 -38v-481l44 -33z
M600 139v470l-72 39l-51 -35v-483l43 -34z" />
    <glyph glyph-name="uni12CE" unicode="&#x12ce;" horiz-adv-x="724" 
d="M295 376v280l-59 28l-43 -27v-287l38 -24zM427 334l103 42v280l-60 28l-43 -25v-325zM295 370l-122 -56l-88 56v302l-43 28l64 28l87 -57v-7l102 64l132 -43v-18l103 61l108 -43v-315l44 -28l-65 -28l-87 56l-103 -43v-42l-222 -72v-112l56 -54l-82 -47l-106 99v82
l222 71v118z" />
    <glyph glyph-name="uni12D0" unicode="&#x12d0;" horiz-adv-x="616" 
d="M405 87v544l-72 53l-114 -52v-556l45 -40zM577 44l-68 -44l-104 77l-212 -77l-104 77v574l-52 39l78 37l104 -77v-9l186 86l130 -56v-594z" />
    <glyph glyph-name="uni12D1" unicode="&#x12d1;" horiz-adv-x="789" 
d="M538 391l81 34v59l-26 26l52 25l105 -51v-127l26 -25l-52 -25l-105 50v59l-81 -33v-306l42 -33l-68 -44l-105 77l-213 -77l-105 77v573l-52 38l78 38l105 -77v-9l187 86l131 -56v-279zM407 87v544l-91 45l-96 -44v-556l52 -40z" />
    <glyph glyph-name="uni12D2" unicode="&#x12d2;" horiz-adv-x="986" 
d="M404 379v255l-98 42l-88 -41v-267l45 -38zM718 98l45 -45l52 31v53l-26 25l52 24l104 -49v-123l26 -25l-52 -25l-104 50v60l-123 -76l-104 99v297l-135 -59l-49 34l-212 -76l-104 76v284l-52 38l78 37l104 -76v-8l186 84l128 -56v-287l186 82v-369z" />
    <glyph glyph-name="uni12D3" unicode="&#x12d3;" horiz-adv-x="814" 
d="M587 393l-136 -59l-49 33l-211 -75l-103 75v282l-52 37l78 37l103 -75v-9l185 84l129 -55v-285l185 81v-366l52 -49l-78 -49l-103 99v294zM402 376v254l-97 42l-88 -41v-265l45 -38z" />
    <glyph glyph-name="uni12D4" unicode="&#x12d4;" horiz-adv-x="891" 
d="M713 297l65 23l65 -28v-254l17 -14l-33 -14l-65 28v6l-78 -34l-101 91v297l-135 -60l-50 34l-211 -76l-104 76v285l-52 38l78 37l104 -76v-9l185 85l130 -56v-288l185 82v-173zM762 49v243l-24 10l-25 -10v-225l31 -27zM398 382v257l-97 41l-88 -40v-269l45 -38z" />
    <glyph glyph-name="uni12D5" unicode="&#x12d5;" horiz-adv-x="619" 
d="M347 539l58 25l130 -53v-439l42 -31l-68 -41l-104 72l-212 -72l-104 72v421l-52 35l78 36l104 -72v-8l17 7v184l-44 19l60 34l95 -51v-138zM405 81v393l-72 50l-114 -49v-404l45 -37z" />
    <glyph glyph-name="uni12D6" unicode="&#x12d6;" horiz-adv-x="615" 
d="M282 326l-90 -33l-104 76v284l-52 38l78 37l104 -76v-8l186 84l130 -56v-287l-81 -50l-49 34l-66 -24l-158 -96v-195l52 -49l-78 -50l-104 100v136zM404 379v255l-98 42l-88 -41v-267l45 -39z" />
    <glyph glyph-name="uni12D8" unicode="&#x12d8;" horiz-adv-x="629" 
d="M406 425v204l-52 49l78 50l104 -100v-528l52 -50l-78 -50l-104 101v313l-182 -53v-261l52 -50l-78 -50l-104 101v528l-52 49l78 50l104 -100v-257z" />
    <glyph glyph-name="uni12D9" unicode="&#x12d9;" horiz-adv-x="815" 
d="M534 394l85 29v59l-26 24l52 25l103 -49v-125l26 -25l-52 -25l-103 50v58l-85 -30v-285l52 -50l-78 -50l-103 101v314l-182 -53v-262l52 -50l-78 -50l-103 101v530l-52 49l78 50l103 -100v-258l182 54v205l-52 49l78 50l103 -100v-236z" />
    <glyph glyph-name="uni12DA" unicode="&#x12da;" horiz-adv-x="823" 
d="M530 99l46 -46l51 32v53l-26 25l52 25l102 -50v-124l26 -25l-51 -25l-103 50v61l-123 -76l-102 99v316l-180 -53v-262l50 -50l-76 -50l-103 101v530l-51 50l77 50l103 -100v-258l180 54v204l-52 50l77 50l103 -100v-531z" />
    <glyph glyph-name="uni12DB" unicode="&#x12db;" horiz-adv-x="627" 
d="M405 458v173l-52 49l78 50l103 -100v-530l52 -50l-78 -50l-103 101v344l-182 -52v-166l52 -50l-78 -50l-103 101v403l-52 49l78 50l103 -100v-226z" />
    <glyph glyph-name="uni12DC" unicode="&#x12dc;" horiz-adv-x="807" 
d="M610 69v216l-37 17l-39 -15v-186l48 -49zM405 101v315l-182 -53v-263l52 -50l-78 -50l-103 101v531l-52 49l78 51l103 -101v-258l182 54v205l-52 49l78 51l103 -101v-336l102 40l103 -50v-235l26 -25l-52 -25l-103 50v9l-102 -59z" />
    <glyph glyph-name="uni12DD" unicode="&#x12dd;" horiz-adv-x="849" 
d="M267 664l-69 -50v-63l26 -24l-52 -25l-104 49v125l-26 25l52 25l104 -50v-49l141 101l104 -100v-257l183 54v204l-52 49l77 50l104 -100v-528l52 -50l-78 -50l-103 101v313l-183 -53v-261l52 -50l-78 -50l-104 101v528z" />
    <glyph glyph-name="uni12DE" unicode="&#x12de;" horiz-adv-x="630" 
d="M407 459v170l-52 49l78 50l104 -100v-411l52 -49l-78 -49l-104 99v228l-183 -53v-293l52 -50l-78 -50l-104 101v528l-52 49l78 50l104 -100v-223z" />
    <glyph glyph-name="uni12DF" unicode="&#x12df;" horiz-adv-x="769" 
d="M608 9v-61l99 -43l49 22l-25 21v107l-98 42l-49 -21l24 -21v-33l-74 -7v615l-103 100l-78 -50l52 -49v-173l-182 -54v226l-103 100l-78 -50l52 -49v-403l103 -101l78 50l-52 50v166l182 52v-442l-47 -4v49l-98 41l-49 -20l25 -21v-107l98 -43l49 22l-25 21v44z" />
    <glyph glyph-name="uni12E0" unicode="&#x12e0;" horiz-adv-x="933" 
d="M257 646l-80 -25v-51l26 -24l-52 -24l-104 48v83l-26 24l52 24l104 -48v-23l210 66v-342l161 51v220l201 49v8l-26 23l52 24l104 -47v-84l26 -24l-52 -24l-104 48v67l-71 -17v-553l52 -48l-78 -47l-104 96v297l-161 -50v-248l52 -48l-78 -47l-104 96v550z" />
    <glyph glyph-name="uni12E1" unicode="&#x12e1;" horiz-adv-x="931" 
d="M678 349l74 27v56l-26 24l52 22l104 -46v-118l26 -24l-52 -24l-104 48v54l-74 -27v-246l52 -48l-78 -47l-104 96v297l-161 -50v-248l52 -48l-78 -47l-104 96v550l-80 -25v-51l26 -24l-52 -24l-104 48v83l-26 24l52 24l104 -48v-23l210 66v-342l161 51v220l201 49v8
l-26 23l52 24l104 -47v-84l26 -24l-52 -24l-104 48v67l-71 -17v-299z" />
    <glyph glyph-name="uni12E2" unicode="&#x12e2;" horiz-adv-x="953" 
d="M548 92v300l-161 -50v-250l52 -47l-78 -48l-104 96v555l-80 -26v-52l26 -23l-52 -24l-104 47v85l-26 24l52 24l104 -48v-24l210 67v-345l161 51v222l201 49v8l-26 24l52 24l104 -48v-84l26 -24l-52 -24l-104 48v68l-71 -18v-557l46 -43l52 31v50l-26 24l52 24l104 -48
v-119l26 -23l-52 -24l-104 47v59l-124 -73z" />
    <glyph glyph-name="uni12E3" unicode="&#x12e3;" horiz-adv-x="931" 
d="M257 644l-80 -26v-51l26 -23l-52 -24l-104 47v84l-26 23l52 24l104 -47v-24l210 66v-319l161 51v198l201 48v8l-26 24l52 23l104 -47v-84l26 -23l-52 -24l-104 47v67l-71 -17v-551l52 -47l-78 -47l-104 95v319l-161 -50v-177l52 -47l-78 -46l-104 94v456z" />
    <glyph glyph-name="uni12E4" unicode="&#x12e4;" horiz-adv-x="933" 
d="M755 66v202l-37 17l-40 -15v-174l49 -47zM548 96v296l-161 -50v-247l52 -48l-78 -47l-104 96v549l-80 -25v-51l26 -24l-52 -23l-104 47v84l-26 23l52 24l104 -47v-24l210 66v-342l161 51v220l201 49v8l-26 23l52 24l104 -47v-84l26 -24l-52 -23l-104 47v67l-71 -17v-368
l103 37l104 -48v-221l26 -23l-52 -24l-104 47v9l-103 -56z" />
    <glyph glyph-name="uni12E5" unicode="&#x12e5;" horiz-adv-x="958" 
d="M363 569l64 19v-277l162 51v224l200 48v9l-26 24l52 24l104 -48v-85l26 -23l-52 -24l-104 47v68l-70 -18v-559l52 -48l-78 -48l-104 97v300l-162 -49v-252l52 -48l-78 -48l-104 97v487l-80 -25v-52l26 -24l-52 -24l-104 48v85l-26 24l52 24l104 -48v-24l36 14v131
l-72 -10v-17l26 -24l-52 -24l-104 48v91l-26 24l52 24l104 -48v-62l278 32v30l-26 24l52 24l104 -48v-91l26 -24l-52 -24l-104 48v51l-96 -12v-109z" />
    <glyph glyph-name="uni12E6" unicode="&#x12e6;" horiz-adv-x="931" 
d="M257 648l-80 -26v-51l26 -24l-52 -23l-104 47v84l-26 24l52 24l104 -48v-24l210 67v-308l161 51v186l201 48v9l-26 23l52 24l104 -47v-85l26 -23l-52 -24l-104 47v68l-71 -17v-433l52 -46l-78 -48l-104 95v212l-161 -50v-285l52 -47l-78 -48l-104 96v552z" />
    <glyph glyph-name="uni12E7" unicode="&#x12e7;" horiz-adv-x="931" 
d="M745 6v-61l98 -43l49 22l-25 21v107l-97 42l-49 -21l24 -21v-33l-67 -7v633l71 17v-67l104 -47l52 24l-26 23v84l-104 47l-52 -23l26 -24v-8l-201 -48v-198l-161 -51v319l-210 -66v24l-104 47l-52 -24l26 -23v-84l104 -47l52 24l-26 23v51l80 26v-420l104 -95l78 47
l-52 47v141l161 50l-1 -414l-53 -4v49l-98 41l-49 -20l25 -21v-107l98 -43l49 22l-25 21v44z" />
    <glyph glyph-name="uni12E8" unicode="&#x12e8;" horiz-adv-x="562" 
d="M315 295v-194l52 -51l-78 -50l-104 101v182l-92 96v283l-51 36l78 34l103 -47v-10l168 57l103 -50v-231l26 -25l-52 -25l-103 50v10l-142 -66v-14zM223 664v-258l142 65v211l-37 18z" />
    <glyph glyph-name="uni12E9" unicode="&#x12e9;" horiz-adv-x="598" 
d="M315 248l86 26v57l-26 25l52 25l103 -50v-125l26 -25l-52 -25l-103 50v58l-86 -26v-138l52 -50l-78 -50l-104 101v180l-92 94v282l-51 36l78 35l103 -47v-10l168 57l103 -50v-230l26 -25l-52 -25l-103 50v10l-142 -65v-15l92 -85v-45zM223 658v-256l142 65v211l-37 17z
" />
    <glyph glyph-name="uni12EA" unicode="&#x12ea;" horiz-adv-x="723" 
d="M504 253l47 19l104 -37v-90l26 -24l-52 -25l-104 49v97l-152 -45v73l-57 -21v-137l52 -49l-78 -48l-104 98v178l-93 94v277l-51 35l78 34l104 -47v-9l168 56l104 -49v-225l26 -25l-52 -25l-104 50v8l-142 -64v-14l92 -84v-45l57 22v56l-26 25l52 25l105 -50v-83zM224 664
v-253l142 65v206l-37 17z" />
    <glyph glyph-name="uni12EB" unicode="&#x12eb;" horiz-adv-x="650" 
d="M315 123q-20 13 -43 45.5t-43 70.5t-33.5 75.5t-13.5 60.5v284l-51 36l78 35l103 -48v-9l167 57l103 -51v-230l26 -25l-52 -25l-103 50v9l-141 -65v-15q0 -25 12 -56t30 -61.5t38.5 -56.5t37.5 -41l-233 -103v-64l26 -25l-52 -25l-103 50v126l-26 25l52 25l103 -50v-50z
M312 660v-258l141 66v211l-37 18z" />
    <glyph glyph-name="uni12EC" unicode="&#x12ec;" horiz-adv-x="682" 
d="M515 141l17 10v155l-26 11l-27 -10v-135zM315 236l75 27v57l-28 14l47 18l70 -32v-7l71 24l73 -31v-166l18 -16l-37 -16l-72 32v6l-14 -9l-56 -29l-72 64v79l-75 -26v-125l52 -50l-78 -50l-103 101v181l-93 94v283l-51 36l78 35l103 -48v-9l168 57l104 -51v-230l25 -25
l-51 -25l-104 50v10l-142 -65v-15l92 -85v-58zM223 660v-256l142 65v210l-37 18z" />
    <glyph glyph-name="uni12ED" unicode="&#x12ed;" horiz-adv-x="684" 
d="M296 139l-98 -71v-72l26 -25l-52 -25l-104 50v126l-26 25l52 25l104 -50v-41l90 66l-124 198v314l-51 36l78 35l104 -48v-9l169 57l104 -51v-249l26 -25l-52 -25l-104 50v9l-143 -66l122 -217h95v121l-51 35l78 34l104 -46v-129l-124 -32h-223zM295 660v-276l143 65v230
l-38 18z" />
    <glyph glyph-name="uni12EE" unicode="&#x12ee;" horiz-adv-x="772" 
d="M495 531l79 32v58l-25 25l51 25l104 -50v-125l26 -25l-52 -25l-104 50v58l-79 -32v-74l26 -25l-52 -25l-104 50v10l-142 -65v-15l92 -85v-193l52 -50l-78 -50l-103 101v180l-93 94v282l-51 36l78 35l103 -47v-10l168 57l104 -50v-147zM223 658v-256l142 65v211l-37 17z
" />
    <glyph glyph-name="uni12F0" unicode="&#x12f0;" horiz-adv-x="655" 
d="M220 656v-208l142 67v161l-38 18zM220 669l167 58l103 -51v-181l25 -25l-51 -26l-102 51v9l-142 -66v-15l138 -157l72 43l116 -70v-157l68 -48l-94 -34l-102 62v165l-52 28l-146 -88v-86l54 -50l-78 -31l-103 61v162l-46 37l72 28l101 -66v-43l51 34l-179 199v244l-50 36
l104 36l74 -49v-10z" />
    <glyph glyph-name="uni12F1" unicode="&#x12f1;" horiz-adv-x="808" 
d="M220 669v10l-74 49l-104 -36l50 -36v-244l179 -199l-51 -34v43l-101 66l-72 -28l46 -37v-162l103 -61l78 31l-54 50v86l146 88l52 -28v-165l102 -62l94 34l-68 48v119l64 26v-71l104 -46l52 23l-26 23v116l-104 46l-50 -23l24 -23v-36l-64 -27v30l-116 70l-72 -43
l-138 157v15l142 66v-9l102 -51l51 26l-25 25v181l-103 51zM220 656l104 38l38 -18v-161l-142 -67v208z" />
    <glyph glyph-name="uni12F2" unicode="&#x12f2;" horiz-adv-x="842" 
d="M220 669v10l-74 49l-104 -36l50 -36v-244l179 -199l-51 -34v43l-101 66l-72 -28l46 -37v-162l103 -61l78 31l-54 50v86l146 88l52 -28v-165l102 -62l124 54v-62l105 -51l52 26l-26 25v128l-105 51l-52 -25l26 -26v-54l-46 -20l-52 36v157l-116 70l-72 -43l-138 157v15
l142 66v-9l102 -51l51 26l-25 25v181l-103 51zM220 656l104 38l38 -18v-161l-142 -67v208z" />
    <glyph glyph-name="uni12F3" unicode="&#x12f3;" horiz-adv-x="655" 
d="M220 656v-208l142 67v161l-38 18zM220 669l167 58l103 -51v-181l25 -25l-51 -26l-102 51v9l-142 -66v-15l138 -157l72 43l116 -70v-157l68 -48l-94 -34l-102 62v165l-52 28l-146 -88v-22l54 -50l-78 -32l-103 62v98l-46 37l72 28l101 -66v-43l51 34l-179 199v244l-50 36
l104 36l74 -49v-10z" />
    <glyph glyph-name="uni12F4" unicode="&#x12f4;" horiz-adv-x="733" 
d="M546 200v39l-116 70l-72 -43l-138 157v15l142 66v-9l102 -51l51 26l-25 25v181l-103 51l-167 -58v10l-74 49l-104 -36l50 -36v-244l179 -199l-51 -34v43l-101 66l-72 -28l46 -37v-162l103 -61l78 31l-54 50v86l146 88l52 -28v-165l102 -62l76 27l62 -27l34 15l-17 13v166
l-65 30zM220 656l104 38l38 -18v-161l-142 -67v208zM571 204l24 -10v-158l-49 36v122z" />
    <glyph glyph-name="uni12F5" unicode="&#x12f5;" horiz-adv-x="751" 
d="M220 669v10l-74 49l-104 -36l50 -36v-244l179 -199l-51 -34v43l-101 66l-72 -28l46 -37v-162l103 -61l78 31l-54 50v86l146 88l52 -28v-165l102 -62l94 34l-68 48v157l-116 70l-72 -43l-138 157v15l142 66v-9l102 -51l51 26l-25 25v49l63 26v-59l104 -51l52 25l-26 26
v127l-104 50l-53 -24l27 -26v-60l-63 -25v123l-103 51zM220 656l104 38l38 -18v-161l-142 -67v208z" />
    <glyph glyph-name="uni12F6" unicode="&#x12f6;" horiz-adv-x="655" 
d="M220 656v-208l142 67v161l-38 18zM220 669l167 58l103 -51v-181l25 -25l-51 -26l-102 51v9l-142 -66v-15l138 -157l72 43l116 -70v-81l68 -48l-94 -34l-102 62v89l-52 28l-146 -88v-86l54 -50l-78 -31l-103 61v162l-46 37l72 28l101 -66v-43l51 34l-179 199v244l-50 36
l104 36l74 -49v-10z" />
    <glyph glyph-name="uni12F7" unicode="&#x12f7;" horiz-adv-x="761" 
d="M607 14v-62l99 -42l49 21l-25 21v107l-98 42l-49 -21l24 -21v-33l-61 -5v218l-116 70l-72 -43l-138 157v15l142 66v-9l102 -51l51 26l-25 25v181l-103 51l-167 -58v10l-74 49l-104 -36l50 -36v-244l179 -199l-51 -34v43l-101 66l-72 -28l46 -37v-98l103 -62l78 32l-54 50
v22l146 88l52 -28v-218l-35 -3v28l-98 42l-49 -21l25 -21v-86l98 -43l49 22l-25 21v45zM220 656l104 38l38 -18v-161l-142 -67v208z" />
    <glyph glyph-name="uni12F8" unicode="&#x12f8;" horiz-adv-x="619" 
d="M349 763l-111 61l-67 -58l49 -28v-112l-12 -4v10l-75 49l-104 -36l50 -36v-244l180 -152l-51 -34v43l-102 66l-72 -28l46 -37v-162l103 -61l78 31l-53 50v86l146 88l52 -28v-165l102 -62l93 34l-67 48v157l-117 70l-72 -43l-137 118v14l141 60v-10l102 -51l51 26l-25 25
v181l-103 51l-25 -9v92zM208 609l104 38l37 -18v-161l-141 -59v200z" />
    <glyph glyph-name="uni12F9" unicode="&#x12f9;" horiz-adv-x="770" 
d="M349 763l-111 61l-67 -58l49 -28v-112l-12 -4v10l-75 49l-104 -36l50 -36v-244l180 -152l-51 -34v43l-102 66l-72 -28l46 -37v-162l103 -61l78 31l-53 50v86l146 88l52 -28v-165l102 -62l93 34l-67 48v70l63 26v-71l104 -46l52 23l-26 23v117l-104 45l-51 -23l25 -22v-37
l-63 -27v79l-117 70l-72 -43l-137 118v14l141 60v-10l102 -51l51 26l-25 25v181l-103 51l-25 -9v92zM208 609l104 38l37 -18v-161l-141 -59v200z" />
    <glyph glyph-name="uni12FA" unicode="&#x12fa;" horiz-adv-x="794" 
d="M622 44v-63l105 -51l52 26l-26 25v128l-105 51l-52 -25l26 -26v-54l-32 -12l-59 39v157l-116 70l-72 -43l-137 118v14l141 60v-10l102 -51l51 26l-25 25v181l-103 51l-25 -9v92l-111 61l-68 -58l50 -28v-112l-12 -4v10l-75 49l-104 -36l50 -36v-244l180 -152l-51 -34v43
l-102 66l-72 -28l46 -37v-162l103 -61l78 31l-53 50v86l146 88l52 -28v-165l101 -62zM206 609l104 38l37 -18v-161l-141 -59v200z" />
    <glyph glyph-name="uni12FB" unicode="&#x12fb;" horiz-adv-x="615" 
d="M343 763l-111 61l-68 -58l50 -28v-112l-12 -4v10l-75 49l-104 -36l50 -36v-244l180 -152l-51 -34v43l-102 66l-72 -28l46 -37v-100l103 -62l78 32l-53 49v25l145 88l52 -28v-165l102 -62l94 34l-68 48v157l-116 70l-72 -43l-137 118v14l141 60v-10l102 -51l51 26l-25 25
v181l-103 51l-25 -9v92zM202 609l104 38l37 -18v-161l-141 -59v200z" />
    <glyph glyph-name="uni12FC" unicode="&#x12fc;" horiz-adv-x="697" 
d="M525 200v39l-116 70l-72 -43l-95 110v21l142 60v-10l102 -51l51 26l-25 25v181l-103 51l-25 -9v92l-112 61l-67 -58l50 -28v-112l-13 -4v10l-75 49l-104 -36l50 -36v-244l1 -1l137 -150l-51 -34v43l-102 66l-72 -28l46 -37v-162l103 -61l78 31l-53 50v86l145 88l52 -28
v-165l102 -62l76 27l63 -27l33 15l-17 13v166l-64 30zM242 608l104 38l38 -18v-161l-142 -59v200zM550 204l24 -10v-158l-49 36v122z" />
    <glyph glyph-name="uni12FD" unicode="&#x12fd;" horiz-adv-x="703" 
d="M468 529l63 26v-59l104 -51l52 25l-26 26v127l-104 51l-53 -25l27 -26v-59l-63 -25v90l-103 51l-25 -9v92l-111 61l-68 -58l50 -28v-112l-12 -4v10l-75 49l-104 -36l50 -36v-244l180 -152l-51 -34v43l-102 66l-72 -28l46 -37v-162l103 -61l78 31l-53 50v86l145 88l52 -28
v-165l102 -62l94 34l-68 48v157l-116 70l-72 -43l-137 118v14l141 60v-10l102 -51l51 26l-25 25v81zM199 609l104 38l37 -18v-161l-141 -59v200z" />
    <glyph glyph-name="uni12FE" unicode="&#x12fe;" horiz-adv-x="615" 
d="M343 763l-111 61l-68 -58l50 -28v-112l-12 -4v10l-75 49l-104 -36l50 -36v-244l180 -152l-51 -34v43l-102 66l-72 -28l46 -37v-162l103 -61l78 31l-53 50v86l145 88l52 -28v-83l102 -63l94 34l-68 48v76l-116 70l-72 -43l-137 118v14l141 60v-10l102 -51l51 26l-25 25
v181l-103 51l-25 -9v92zM202 609l104 38l37 -18v-161l-141 -59v200z" />
    <glyph glyph-name="uni12FF" unicode="&#x12ff;" horiz-adv-x="749" 
d="M588 15v-62l98 -42l49 21l-25 21v107l-97 42l-49 -21l24 -21v-33l-61 -7v219l-116 70l-72 -43l-137 118v14l141 60v-10l102 -51l51 26l-25 25v181l-103 51l-25 -9v92l-111 61l-68 -58l50 -28v-112l-12 -4v10l-75 49l-104 -36l50 -36v-244l180 -152l-51 -34v43l-102 66
l-72 -28l46 -37v-100l103 -62l78 32l-53 49v25l145 88l52 -28v-220l-41 -3v26l-98 42l-49 -21l25 -21v-84l98 -43l49 22l-25 21v45zM202 609l104 38l37 -18v-161l-141 -59v200z" />
    <glyph glyph-name="uni1300" unicode="&#x1300;" horiz-adv-x="685" 
d="M380 610l47 16l104 -47v-163l26 -24l-52 -23l-104 47v8l-142 -60v-15l138 -92l73 37l119 -63v-137l55 -50l-81 -44l-104 92v128l-52 25l-148 -79v-73l52 -47l-78 -46l-104 94v122l-47 33l73 27l104 -61v-38l64 35l-195 129v220l-51 32l78 33l104 -44v-9l10 3v152l-71 -8
v-45l26 -23l-52 -24l-104 47v115l-26 23l52 24l104 -47v-60l277 31v29l-26 23l52 24l104 -47v-115l26 -23l-52 -24l-104 47v76l-95 -12v-129zM259 562v-189l142 61v145l-37 16z" />
    <glyph glyph-name="uni1301" unicode="&#x1301;" horiz-adv-x="864" 
d="M592 178l74 24v33l-26 21l52 21l105 -42v-105l26 -21l-52 -21l-105 42v63l-74 -23v-76l55 -50l-81 -44l-105 92v127l-52 25l-149 -78v-73l52 -47l-78 -46l-105 94v122l-47 32l74 28l104 -61v-38l64 34l-196 130v219l-51 32l79 32l104 -44v-8l10 3v151l-71 -8v-45l26 -23
l-52 -23l-105 46v115l-26 23l52 24l105 -47v-60l278 31v29l-26 23l52 24l105 -47v-115l26 -23l-52 -23l-105 46v76l-95 -12v-128l48 15l104 -46v-163l27 -24l-53 -23l-104 47v8l-144 -60v-14l139 -93l73 37l120 -62v-53zM260 561v-189l144 60v146l-38 16z" />
    <glyph glyph-name="uni1302" unicode="&#x1302;" horiz-adv-x="890" 
d="M593 89l46 -42l53 30v49l-26 24l52 23l105 -47v-116l26 -24l-52 -22l-105 46v57l-125 -71l-106 96l1 125l-52 25l-149 -79v-74l52 -46l-79 -47l-104 94v123l-48 32l74 29l105 -61v-39l65 35l-197 130v221l-52 32l79 33l105 -44v-9l10 3v152l-72 -8v-45l26 -23l-52 -24
l-105 47v116l-26 23l52 23l105 -46v-60l279 30v30l-26 23l52 23l105 -46v-116l26 -23l-52 -24l-105 47v76l-96 -11v-130l49 16l105 -47v-164l26 -24l-53 -23l-104 47v8l-144 -60v-15l139 -93l73 38l120 -63v-140zM261 561v-190l144 61v146l-39 16z" />
    <glyph glyph-name="uni1303" unicode="&#x1303;" horiz-adv-x="681" 
d="M258 560v-189l141 60v145l-37 16zM378 608l46 15l104 -47v-162l26 -23l-52 -24l-103 47v8l-141 -60v-14l137 -93l72 38l117 -63v-137l56 -49l-80 -44l-104 92v127l-51 25l-147 -79v-39l51 -20l-77 -46l-104 67v88l-46 31l72 29l104 -61v-38l63 35l-194 129v218l-50 33
l77 32l104 -44v-9l10 4v150l-71 -8v-44l26 -24l-52 -23l-103 47v114l-26 23l52 24l103 -47v-59l275 30v29l-26 23l52 24l103 -47v-114l26 -24l-51 -23l-104 47v75l-94 -11v-128z" />
    <glyph glyph-name="uni1304" unicode="&#x1304;" horiz-adv-x="779" 
d="M640 36v156l-24 9l-25 -9v-139l30 -26zM260 562v-189l142 61v145l-37 16zM591 198l64 20l66 -26v-166l16 -14l-33 -12l-64 26v4l-67 -30l-113 68v152l-52 25l-148 -79v-73l52 -47l-78 -46l-105 94v122l-47 33l73 27l105 -61v-38l64 35l-196 129v220l-51 32l78 33l105 -44
v-9l10 3v152l-72 -8v-45l27 -23l-53 -24l-104 47v115l-26 23l52 24l104 -47v-60l278 31v29l-26 23l52 24l105 -47v-115l26 -23l-52 -24l-105 47v76l-95 -12v-129l47 16l104 -47v-163l26 -24l-52 -23l-104 47v8l-142 -60v-15l138 -92l73 37l120 -63v-33z" />
    <glyph glyph-name="uni1305" unicode="&#x1305;" horiz-adv-x="800" 
d="M527 463l76 30v53l-25 23l51 23l103 -46v-115l26 -23l-51 -23l-104 46v54l-76 -31v-40l26 -23l-52 -24l-103 47v8l-141 -60v-14l137 -93l73 38l117 -63v-137l55 -49l-81 -44l-102 92v127l-52 25l-147 -79v-72l52 -47l-78 -46l-103 93v122l-46 31l72 29l103 -61v-38l64 35
l-194 129v218l-50 33l77 32l103 -44v-9l10 4v150l-70 -8v-44l26 -24l-52 -23l-103 47v114l-26 23l52 24l103 -47v-59l274 30v29l-25 23l51 24l103 -47v-114l26 -24l-51 -23l-104 47v75l-95 -11v-128l48 15l103 -47v-113zM257 560v-189l141 60v145l-37 16z" />
    <glyph glyph-name="uni1306" unicode="&#x1306;" horiz-adv-x="679" 
d="M257 560v-189l140 60v145l-36 16zM376 608l47 15l103 -47v-162l26 -23l-52 -24l-103 47v8l-140 -60v-14l137 -93l72 38l117 -63v-85l55 -25l-81 -43l-103 65v77l-52 25l-145 -79v-72l51 -47l-77 -46l-103 93v122l-46 31l72 29l103 -61v-38l63 35l-193 129v218l-50 33
l77 32l103 -44v-9l10 4v150l-71 -8v-44l26 -24l-51 -23l-103 47v114l-26 23l51 24l103 -47v-59l275 30v29l-26 23l52 24l103 -47v-114l25 -24l-51 -23l-103 47v75l-95 -11v-128z" />
    <glyph glyph-name="uni1307" unicode="&#x1307;" horiz-adv-x="797" 
d="M643 4v-61l99 -43l48 22l-25 21v107l-97 42l-49 -21l24 -21v-33l-59 -7v220l-117 63l-72 -38l-137 93v14l141 60v-8l103 -47l52 24l-26 23v162l-104 47l-46 -15v128l94 11v-75l104 -47l51 23l-26 24v114l-103 47l-52 -24l26 -23v-29l-275 -30v59l-103 47l-52 -24l26 -23
v-114l103 -47l52 23l-26 24v44l71 8v-150l-10 -4v9l-104 44l-77 -32l50 -33v-218l194 -129l-63 -35v38l-104 61l-72 -29l46 -31v-88l104 -67l77 46l-51 20v39l147 79l51 -25v-220l-41 -4v29l-98 42l-49 -21l25 -21v-87l98 -43l49 22l-25 21v44zM258 560l104 32l37 -16v-145
l-141 -60v189z" />
    <glyph glyph-name="uni1308" unicode="&#x1308;" horiz-adv-x="633" 
d="M540 99l52 -49l-78 -50l-105 100v527l-54 52l-156 -70v-80l26 -25l-53 -25l-104 50v143l-26 25l52 25l105 -50v-49l236 103l105 -100v-527z" />
    <glyph glyph-name="uni1309" unicode="&#x1309;" horiz-adv-x="825" 
d="M540 394l86 26v57l-26 25l52 25l105 -50v-123l26 -25l-52 -24l-105 49v58l-86 -26v-287l52 -49l-78 -50l-105 100v527l-54 52l-156 -70v-80l26 -25l-52 -25l-105 50v143l-26 25l52 25l105 -50v-49l237 103l104 -100v-232z" />
    <glyph glyph-name="uni130A" unicode="&#x130a;" horiz-adv-x="829" 
d="M407 99v528l-54 52l-156 -70v-80l26 -25l-52 -25l-103 50v143l-26 25l52 25l103 -50v-49l235 103l104 -100v-528l44 -45l52 32v52l-26 25l52 25l103 -50v-123l26 -25l-52 -25l-103 50v60l-123 -76z" />
    <glyph glyph-name="uni130B" unicode="&#x130b;" horiz-adv-x="581" 
d="M214 100l52 -50l-78 -50l-105 101v93l326 102v333l-54 52l-156 -69v-82l26 -25l-52 -23l-105 48v144l-26 25l52 25l105 -50v-49l237 103l104 -100v-304l-326 -101v-123z" />
    <glyph glyph-name="uni130C" unicode="&#x130c;" horiz-adv-x="812" 
d="M538 293l103 40l104 -50v-233l26 -25l-52 -25l-104 50v8l-103 -58l-104 101v528l-54 52l-156 -69v-82l26 -25l-52 -23l-104 48v144l-26 25l52 25l104 -50v-49l236 103l104 -100v-335zM615 69v214l-38 18l-39 -16v-184l49 -49z" />
    <glyph glyph-name="uni130D" unicode="&#x130d;" horiz-adv-x="748" 
d="M204 644l347 82l103 -100v-527l52 -49l-78 -50l-103 100v527l-71 65l-121 -27l67 -30v-247l25 -19l-51 -17l-96 36v6l-22 -9l-76 -33l-99 72v228l-39 14l64 20l98 -35v-7zM252 391l26 9v224l-37 20l-37 -11v-210z" />
    <glyph glyph-name="uni130E" unicode="&#x130e;" horiz-adv-x="670" 
d="M244 547v167l-52 34l77 34l104 -46v-144l100 37l103 -97v-435l52 -48l-77 -49l-104 98v434l-53 54l-197 -70v-79l26 -24l-52 -24l-103 48v139l-26 25l52 24l103 -49v-47z" />
    <glyph glyph-name="uni1310" unicode="&#x1310;" horiz-adv-x="936" 
d="M760 347l23 13v207l-23 22l-43 -22v-187zM517 442l89 42v99l-35 15l58 21l88 -37v-7l109 55l67 -55v-232l22 -17l-45 -18l-87 35v7l-19 -10l-69 -32l-89 73v87l-89 -41v-328l52 -49l-78 -50l-104 100v528l-54 52l-156 -70v-80l26 -25l-52 -25l-104 50v143l-26 25l52 25
l104 -50v-49l236 103l104 -100v-185z" />
    <glyph glyph-name="uni1312" unicode="&#x1312;" horiz-adv-x="950" 
d="M517 402l76 35v58l-26 25l52 25l105 -50v-110l71 31l104 -42v-91l26 -25l-52 -25l-104 50v105l-176 -73v113l-76 -35v-293l52 -50l-78 -50l-104 101v529l-54 52l-156 -69v-82l26 -25l-52 -24l-104 49v144l-26 25l52 25l104 -50v-49l236 103l104 -100v-227z" />
    <glyph glyph-name="uni1313" unicode="&#x1313;" horiz-adv-x="726" 
d="M496 439l-196 -115v-78l26 -24l-52 -24l-104 48v144l-26 25l52 25l104 -50v-49l118 68v221l-54 52l-156 -67v-84l26 -25l-52 -24l-104 49v144l-26 25l52 25l104 -50v-49l236 103l104 -100v-158l78 21v-392l52 -50l-78 -50l-104 101v338z" />
    <glyph glyph-name="uni1314" unicode="&#x1314;" horiz-adv-x="792" 
d="M607 85v216l-37 16l-40 -14v-187l49 -48zM530 310l103 40l104 -49v-235l26 -25l-52 -25l-104 50v9l-103 -59l-105 100l-132 -29v-62l26 -25l-52 -25l-104 50v93l-26 24l52 25l104 -49v-18l132 31v497l-54 51l-156 -70v-80l26 -25l-52 -25l-104 50v144l-26 25l52 25
l104 -50v-49l236 103l105 -100v-317z" />
    <glyph glyph-name="uni1315" unicode="&#x1315;" horiz-adv-x="926" 
d="M517 410l85 30v129l-26 25l52 25l105 -50v-84l25 14l104 -37v-92l26 -25l-52 -25l-104 50v99l-215 -76v-293l52 -50l-78 -50l-104 101v529l-54 52l-156 -69v-82l26 -25l-52 -24l-104 49v144l-26 25l52 25l104 -50v-49l236 103l104 -100v-219z" />
    <glyph glyph-name="Uni1338" unicode="&#x1318;" horiz-adv-x="633" 
d="M540 81l52 -49l-78 -50l-105 100v442l-54 52l-156 -70v-80l26 -25l-53 -25l-104 50v143l-26 25l52 25l105 -50v-49l236 103l105 -100v-442zM320 670l148 65v-56l99 -43l49 22l-25 21v107l-98 42l-49 -21l24 -21v-33l-84 -36l-71 66l-141 -50v46l-98 42l-49 -21l25 -21
v-107l98 -43l49 22l-25 21v45l66 23z" />
    <glyph glyph-name="Uni1319" unicode="&#x1319;" horiz-adv-x="825" 
d="M540 317l86 26v57l-26 25l52 25l105 -50v-123l26 -25l-52 -24l-105 49v58l-86 -26v-224l52 -49l-78 -50l-105 100v464l-54 52l-156 -70v-80l26 -25l-52 -25l-105 50v143l-26 25l52 25l105 -50v-49l237 103l104 -100v-232zM338 679l148 66v-57l98 -42l49 22l-25 20v108
l-97 41l-49 -21l24 -20v-34l-85 -36l-70 66l-142 -49v45l-97 42l-49 -21l25 -21v-107l97 -42l49 21l-25 21v45l67 24z" />
    <glyph glyph-name="Uni131A" unicode="&#x131a;" horiz-adv-x="829" 
d="M407 99v454l-54 52l-156 -69v-80l26 -25l-52 -25l-103 50v142l-26 25l52 25l103 -50v-49l235 103l104 -100v-454l44 -45l52 32v52l-26 25l52 25l103 -50v-123l26 -25l-52 -25l-103 50v60l-123 -76zM334 682l148 66v-56l98 -43l49 22l-25 21v107l-98 41l-48 -20l24 -21
v-34l-85 -36l-70 67l-142 -50v45l-98 42l-49 -21l25 -21v-107l98 -42l49 22l-25 20v45l67 24z" />
    <glyph glyph-name="Uni131B" unicode="&#x131b;" horiz-adv-x="636" 
d="M214 50l52 -50l-78 -50l-105 101v64l326 97v317l-54 52l-156 -69v-81l26 -25l-52 -24l-105 49v143l-26 25l52 25l105 -50v-49l237 103l104 -100v-288l-326 -96v-94zM313 665l148 65v-56l99 -43l48 22l-25 21v107l-97 42l-49 -21l24 -21v-33l-85 -37l-70 67l-142 -50v46
l-97 41l-49 -20l25 -21v-107l97 -43l49 22l-25 21v44l67 24z" />
    <glyph glyph-name="Uni131C" unicode="&#x131c;" horiz-adv-x="812" 
d="M538 280l103 39l104 -50v-233l26 -25l-52 -25l-104 50v9l-103 -59l-104 101v465l-54 52l-156 -69v-82l26 -25l-52 -23l-104 48v144l-26 25l52 25l104 -50v-49l236 103l104 -100v-271zM615 55v214l-38 18l-39 -16v-184l49 -49zM348 672l148 65v-56l99 -42l49 21l-25 21
v107l-98 42l-49 -21l24 -21v-33l-84 -36l-71 66l-141 -50v46l-98 42l-49 -21l25 -21v-107l98 -43l49 22l-25 21v45l66 24z" />
    <glyph glyph-name="Uni131D" unicode="&#x131d;" horiz-adv-x="748" 
d="M211 576l340 82l103 -100v-476l52 -49l-78 -50l-103 100v477l-71 64l-114 -27l68 -29v-231l25 -19l-51 -17l-97 36v6l-22 -9l-76 -33l-99 72v211l-39 14l64 21l98 -36v-7zM259 340l26 9v207l-36 20l-38 -10v-194zM382 672l147 65v-56l99 -42l49 21l-25 21v107l-98 42
l-49 -21l24 -21v-33l-84 -36l-71 66l-141 -50v46l-98 42l-49 -21l25 -21v-107l98 -43l49 22l-25 21v45l67 24z" />
    <glyph glyph-name="Uni131E" unicode="&#x131e;" horiz-adv-x="670" 
d="M244 493v135l-52 33l77 35l104 -46v-112l100 37l103 -97v-397l52 -48l-77 -49l-104 98v396l-53 53l-197 -69v-79l26 -24l-52 -24l-103 48v139l-26 25l52 24l103 -49v-47zM305 694l147 65v-56l99 -43l49 22l-25 21v107l-98 42l-49 -21l24 -21v-33l-84 -37l-71 67l-141 -50
v46l-98 41l-49 -20l25 -21v-107l98 -43l49 22l-25 21v44l67 24z" />
    <glyph glyph-name="uni1320" unicode="&#x1320;" horiz-adv-x="824" 
d="M477 541l123 83l130 -58v-487l52 -42l-78 -37l-104 77v449l-72 39l-51 -36v-450l52 -42l-78 -37l-104 77v449l-71 39l-52 -38v-449l52 -40l-78 -38l-104 79v467l-52 40l78 38l104 -79v-9l123 88l130 -58v-25z" />
    <glyph glyph-name="uni1321" unicode="&#x1321;" horiz-adv-x="1038" 
d="M730 341l110 28v61l-26 26l52 26l104 -52v-130l26 -26l-52 -26l-104 52v60l-110 -28v-253l52 -42l-78 -37l-104 77v449l-72 39l-51 -36v-450l52 -42l-78 -37l-104 77v449l-71 39l-52 -38v-449l52 -40l-78 -38l-104 79v467l-52 40l78 38l104 -79v-9l123 88l130 -58v-25
l123 83l130 -58v-225z" />
    <glyph glyph-name="uni1322" unicode="&#x1322;" horiz-adv-x="1025" 
d="M730 105l46 -48l52 33v56l-26 26l52 26l104 -52v-130l26 -26l-52 -26l-104 52v63l-124 -79l-104 103v423l-72 39l-51 -36v-450l52 -42l-78 -37l-104 77v449l-71 39l-52 -38v-449l52 -40l-78 -38l-104 79v467l-52 40l78 38l104 -79v-9l123 88l130 -58v-25l123 83l130 -58
v-461z" />
    <glyph glyph-name="uni1323" unicode="&#x1323;" horiz-adv-x="824" 
d="M477 541l123 83l130 -58v-487l52 -42l-78 -37l-104 77v449l-72 39l-51 -36v-294l52 -42l-78 -37l-104 77v293l-71 39l-52 -38v-293l52 -40l-78 -38l-104 79v311l-52 40l78 38l104 -79v-9l123 88l130 -58v-25z" />
    <glyph glyph-name="uni1324" unicode="&#x1324;" horiz-adv-x="1005" 
d="M807 72v224l-37 18l-40 -16v-193l49 -51zM730 307l103 41l104 -52v-244l26 -26l-52 -26l-104 52v9l-103 -61l-104 103v423l-72 39l-51 -36v-450l52 -42l-78 -37l-104 77v449l-71 39l-52 -38v-449l52 -40l-78 -38l-104 79v467l-52 40l78 38l104 -79v-9l123 88l130 -58v-25
l123 83l130 -58v-259z" />
    <glyph glyph-name="uni1325" unicode="&#x1325;" horiz-adv-x="823" 
d="M476 648l123 80l130 -56v-281l52 -41l-78 -35l-104 74v244l-72 38l-51 -35v-203l78 -85v-272l52 -41l-78 -35l-104 74v268l-77 72v219l-71 38l-52 -37v-244l52 -38l-78 -37l-104 76v262l-52 38l78 37l104 -76v-9l123 85l129 -56v-24z" />
    <glyph glyph-name="uni1326" unicode="&#x1326;" horiz-adv-x="824" 
d="M477 541l123 83l130 -58v-332l52 -42l-78 -37l-104 77v294l-72 39l-51 -36v-295l52 -42l-78 -37l-104 77v294l-71 39l-52 -38v-449l52 -40l-78 -38l-104 79v467l-52 40l78 38l104 -79v-9l123 88l130 -58v-25z" />
    <glyph glyph-name="uni1327" unicode="&#x1327;" horiz-adv-x="946" 
d="M783 19v-62l99 -42l49 22l-25 20v107l-98 42l-49 -21l24 -21v-33l-53 -5v540l-130 58l-123 -83v25l-130 58l-123 -88v9l-104 79l-78 -38l52 -40v-311l104 -79l78 38l-52 40v293l52 38l71 -39v-293l104 -77l78 37l-52 42v294l51 36l72 -39v-511l-68 -7v49l-97 42l-49 -21
l25 -21v-107l98 -43l48 22l-25 21v45z" />
    <glyph glyph-name="uni1328" unicode="&#x1328;" horiz-adv-x="1038" 
d="M899 38v255l-24 10l-25 -10v-236l30 -29zM586 38v255l-24 10l-25 -10v-236l30 -29zM272 41v254l-23 10l-25 -10v-236l30 -29zM224 301l64 23l66 -29v-266l16 -14l-33 -15l-65 29v5l-78 -34l-100 95v467l-52 39l78 39l104 -79v-10l183 89l130 -59v-25l183 84l130 -59v-283
l64 24l66 -29v-266l16 -15l-33 -14l-64 29v5l-78 -34l-101 95v449l-77 52l-106 -49v-247l64 24l66 -29v-266l16 -15l-33 -14l-64 29v5l-78 -34l-101 95v449l-78 52l-105 -51v-242z" />
    <glyph glyph-name="uni1329" unicode="&#x1329;" horiz-adv-x="1155" 
d="M850 341l108 27v60l-26 26l52 26l104 -52v-130l26 -26l-52 -26l-104 52v61l-108 -27v-253l52 -42l-78 -37l-104 77v465l-77 52l-106 -49v-247l64 24l66 -29v-266l16 -15l-33 -14l-64 29v5l-78 -34l-101 95v449l-78 52l-105 -51v-242l64 23l66 -29v-266l16 -14l-33 -15
l-65 29v5l-78 -34l-100 95v467l-52 39l78 39l104 -79v-10l183 89l130 -59v-25l183 84l130 -59v-240zM272 41v254l-23 10l-25 -10v-236l30 -29zM586 38v255l-24 10l-25 -10v-236l30 -29z" />
    <glyph glyph-name="uni132A" unicode="&#x132a;" horiz-adv-x="1145" 
d="M586 38v255l-24 10l-25 -10v-236l30 -29zM272 41v254l-23 10l-25 -10v-236l30 -29zM850 105l45 -48l52 33v56l-26 26l52 26l104 -52v-130l26 -26l-52 -26l-104 52v63l-123 -79l-104 103v439l-77 52l-106 -49v-247l64 24l66 -29v-266l16 -15l-33 -14l-64 29v5l-78 -34
l-101 95v449l-78 52l-105 -51v-242l64 23l66 -29v-266l16 -14l-33 -15l-65 29v5l-78 -34l-100 95v467l-52 39l78 39l104 -79v-10l183 89l130 -59v-25l183 84l130 -59v-476z" />
    <glyph glyph-name="uni132B" unicode="&#x132b;" horiz-adv-x="1038" 
d="M224 387l64 24l66 -29v-267l16 -14l-33 -15l-65 29v6l-78 -35l-100 95v381l-52 39l78 39l104 -79v-10l183 89l130 -59v-25l183 84l130 -59v-283l64 24l66 -29v-266l16 -15l-33 -14l-64 29v5l-78 -34l-101 95v449l-77 52l-106 -49v-160l64 24l66 -29v-267l16 -14l-33 -15
l-64 29v6l-78 -35l-101 95v363l-78 52l-105 -51v-156zM272 127v255l-23 9l-25 -9v-236l30 -30zM586 125v255l-24 9l-25 -9v-236l30 -30zM899 38v255l-24 10l-25 -10v-236l30 -29z" />
    <glyph glyph-name="uni132C" unicode="&#x132c;" horiz-adv-x="1165" 
d="M850 422l57 27v73l-25 10l40 15l62 -26v-5l77 40l47 -40v-169l15 -12l-31 -14l-61 26v6l-14 -8l-49 -24l-61 53v64l-57 -26v-121l64 24l66 -29v-266l16 -15l-33 -14l-64 29v5l-78 -34l-101 94v450l-77 52l-106 -49v-247l64 24l66 -29v-266l16 -15l-33 -14l-64 29v5
l-78 -34l-101 94v450l-78 52l-105 -51v-243l64 24l66 -29v-266l16 -15l-33 -14l-65 29v5l-78 -34l-100 94v467l-52 40l78 38l104 -79v-9l183 88l130 -58v-25l183 83l130 -58v-152zM1015 350l16 9v151l-16 16l-31 -16v-137zM272 33v255l-23 9l-25 -9v-236l30 -29zM586 31v255
l-24 9l-25 -9v-236l30 -29zM899 31v255l-24 9l-25 -9v-236l30 -29z" />
    <glyph glyph-name="uni132D" unicode="&#x132d;" horiz-adv-x="1003" 
d="M224 543l64 23l66 -28v-205l16 -14l-33 -14l-65 28v5l-78 -33l-100 91v258l-52 39l78 37l104 -77v-8l183 85l130 -56v-24l147 80l130 -56v-127l65 23l65 -28v-211l17 -14l-33 -14l-65 28v5l-78 -33l-101 91v241l-77 42l-70 -38v-204l66 -51v-97l65 23l65 -28v-256l17 -15
l-33 -13l-65 28v5l-78 -33l-101 90v296l-66 51v200l-78 50l-105 -49v-93zM272 344v194l-23 9l-25 -9v-176l30 -28zM652 36v246l-24 9l-25 -9v-227l30 -28zM863 342v200l-24 9l-25 -9v-182l30 -28z" />
    <glyph glyph-name="uni132E" unicode="&#x132e;" horiz-adv-x="1038" 
d="M899 164v255l-24 9l-25 -9v-236l30 -29zM586 164v255l-24 9l-25 -9v-236l30 -29zM272 41v254l-23 10l-25 -10v-236l30 -29zM224 301l64 23l66 -29v-266l16 -14l-33 -15l-65 29v5l-78 -34l-100 95v467l-52 39l78 39l104 -79v-10l183 89l130 -59v-25l183 84l130 -59v-157
l64 24l66 -29v-266l16 -15l-33 -14l-64 29v5l-78 -34l-101 94v324l-77 52l-106 -49v-121l64 24l66 -29v-266l16 -15l-33 -14l-64 29v5l-78 -34l-101 94v324l-78 52l-105 -51v-242z" />
    <glyph glyph-name="uni132F" unicode="&#x132f;" horiz-adv-x="1069" 
d="M906 12v-61l99 -43l49 22l-25 21v107l-98 42l-49 -21l24 -21v-33l-56 -5v561l-130 59l-183 -84v25l-130 59l-183 -89v10l-104 79l-78 -39l52 -39v-381l100 -95l78 35v-6l65 -29l33 15l-16 14v267l-66 29l-64 -24v156l105 51l78 -52v-334l101 -95l78 35v-6l64 -29l33 15
l-16 14v267l-66 29l-64 -24v131l106 49l77 -52v-535l-65 -5v49l-98 42l-48 -21l25 -21v-107l97 -43l49 22l-25 21v45zM272 127l-18 -11l-30 30v236l25 9l23 -9v-255zM586 154l-19 -10l-30 29v236l25 9l24 -9v-255z" />
    <glyph glyph-name="uni1330" unicode="&#x1330;" horiz-adv-x="623" 
d="M285 340l91 50v207l-37 16l-105 -35v-217zM506 373l-140 -72l154 -52v-151l55 -52l-81 -46l-104 96v183l-38 13l-126 -65v-130l52 -49l-78 -48l-104 98v153l175 82l-168 68v176l-51 35l78 33l104 -46v-9l7 2v122l-52 34l78 34l104 -46v-102l31 11l104 -48v-224z" />
    <glyph glyph-name="uni1331" unicode="&#x1331;" horiz-adv-x="781" 
d="M520 179l87 30v34l-26 21l52 22l104 -43v-109l26 -22l-52 -22l-104 44v66l-87 -29v-74l55 -52l-81 -45l-104 95v182l-38 13l-126 -65v-129l52 -48l-78 -48l-104 97v152l175 81l-168 68v174l-51 33l78 34l104 -45v-10l7 3v121l-52 34l78 33l104 -45v-102l31 11l104 -48
v-221l-140 -73l154 -52v-66zM285 337l91 50v204l-37 16l-105 -34v-215z" />
    <glyph glyph-name="uni1332" unicode="&#x1332;" horiz-adv-x="792" 
d="M520 95l46 -45l52 31v51l-26 24l52 24l104 -48v-121l26 -23l-52 -24l-104 47v60l-124 -74l-104 96v183l-38 13l-126 -65v-130l52 -48l-78 -49l-104 98v153l175 82l-168 67v176l-51 33l78 35l104 -46v-9l7 2v121l-52 35l78 33l104 -46v-102l31 12l104 -49v-222l-140 -74
l154 -52v-149zM285 336l91 50v206l-37 16l-105 -34v-217z" />
    <glyph glyph-name="uni1333" unicode="&#x1333;" horiz-adv-x="623" 
d="M506 367l-140 -73l154 -51v-147l55 -51l-81 -45l-104 94v180l-38 13l-126 -64v-78l52 -24l-78 -48l-104 72v101l175 81l-168 67v173l-51 33l78 33l104 -44v-10l7 2v120l-52 33l78 34l104 -45v-100l31 10l104 -47v-219zM285 334l91 49v203l-37 16l-105 -34v-213z" />
    <glyph glyph-name="uni1334" unicode="&#x1334;" horiz-adv-x="701" 
d="M569 37v163l-24 8l-25 -8v-145l30 -27zM520 204l64 23l66 -27v-173l17 -13l-34 -14l-64 27v4l-66 -31l-113 70v208l-38 12l-126 -64v-130l52 -48l-78 -48l-104 97v153l175 81l-168 68v174l-51 34l78 34l104 -45v-10l7 2v121l-52 35l78 33l104 -45v-102l31 11l104 -48
v-222l-140 -73l154 -52v-42zM285 338l91 50v205l-37 16l-105 -35v-215z" />
    <glyph glyph-name="uni1335" unicode="&#x1335;" horiz-adv-x="768" 
d="M285 338l91 50v205l-37 16l-105 -35v-215zM241 588v121l-52 35l78 33l104 -45v-102l31 11l104 -48v-116l74 22v56l-26 24l52 24l104 -48v-119l26 -24l-52 -24l-104 48v55l-74 -22v-98l-140 -73l154 -52v-149l55 -52l-81 -45l-104 95v183l-38 12l-126 -64v-130l52 -48
l-78 -48l-104 97v153l175 81l-168 68v174l-51 34l78 34l104 -45v-10z" />
    <glyph glyph-name="uni1336" unicode="&#x1336;" horiz-adv-x="634" 
d="M506 371l-140 -73l154 -52v-83l55 -33l-81 -45l-104 76v117l-38 12l-126 -64v-130l52 -48l-78 -48l-104 97v153l175 81l-168 68v174l-51 34l78 34l104 -45v-10l7 2v121l-52 35l78 33l104 -45v-102l31 11l104 -48v-222zM285 338l91 50v205l-37 16l-105 -35v-215z" />
    <glyph glyph-name="uni1338" unicode="&#x1338;" horiz-adv-x="604" 
d="M274 404l91 53v217l-37 18l-105 -37v-230zM340 354l-126 -70v-182l52 -51l-78 -51l-103 103v207l175 86l-167 72v186l-51 36l78 35l103 -48v-10l168 58l103 -51v-235l-139 -77l153 -55v-204l55 -55l-81 -48l-103 101v238z" />
    <glyph glyph-name="uni1339" unicode="&#x1339;" horiz-adv-x="798" 
d="M512 234l88 21v34l-27 26l53 25l104 -51v-128l26 -25l-52 -26l-104 51v84l-88 -20v-121l55 -56l-81 -48l-105 102v238l-39 15l-127 -70v-182l53 -52l-79 -51l-104 104v207l177 86l-169 73v186l-51 36l78 35l105 -48v-9l168 57l105 -51v-236l-141 -77l155 -55v-74z
M276 405l91 53v218l-37 18l-105 -37v-231z" />
    <glyph glyph-name="uni133A" unicode="&#x133a;" horiz-adv-x="804" 
d="M510 101l44 -46l52 33v54l-26 25l52 26l104 -51v-127l26 -25l-52 -26l-104 51v62l-123 -78l-103 103v237l-39 14l-126 -69v-183l52 -51l-78 -51l-104 103v207l176 87l-168 72v186l-51 36l78 35l104 -48v-10l168 58l104 -51v-235l-140 -78l154 -55v-205zM275 404l91 52
v218l-37 18l-105 -37v-230z" />
    <glyph glyph-name="uni133B" unicode="&#x133b;" horiz-adv-x="606" 
d="M341 354l-126 -70v-94l52 -51l-78 -51l-104 103v119l176 86l-168 72v186l-51 36l78 35l104 -48v-10l168 58l104 -51v-235l-140 -77l154 -55v-204l55 -55l-81 -48l-104 101v238zM275 404l91 53v217l-37 18l-105 -37v-230z" />
    <glyph glyph-name="uni133C" unicode="&#x133c;" horiz-adv-x="693" 
d="M554 40v172l-24 10l-25 -10v-154l31 -29zM505 217l65 23l64 -28v-184l17 -13l-33 -15l-64 28v5l-65 -33l-113 74v265l-36 16l-126 -71v-182l51 -51l-77 -51l-103 103v207l174 86l-166 72v186l-51 36l77 35l104 -48v-10l166 58l103 -51v-235l-138 -77l151 -55v-90z
M272 404l91 53v217l-36 18l-104 -37v-230z" />
    <glyph glyph-name="uni133D" unicode="&#x133d;" horiz-adv-x="765" 
d="M495 552l73 23v59l-25 26l51 25l104 -51v-126l26 -26l-52 -25l-104 51v59l-73 -24v-104l-140 -77l154 -55v-204l55 -55l-81 -48l-104 101v238l-39 15l-125 -70v-182l51 -51l-77 -51l-104 103v207l175 86l-167 72v186l-51 36l78 35l103 -48v-10l168 58l104 -51v-122z
M274 404l91 53v217l-37 18l-105 -37v-230z" />
    <glyph glyph-name="uni133E" unicode="&#x133e;" horiz-adv-x="606" 
d="M341 354l-126 -70v-182l52 -51l-78 -51l-104 103v207l176 86l-168 68v190l-51 36l78 35l104 -48v-10l168 58l104 -51v-235l-140 -77l154 -45v-107l55 -55l-81 -48l-104 101v131zM275 404l91 53v217l-37 18l-105 -37v-232z" />
    <glyph glyph-name="uni133F" unicode="&#x133f;" horiz-adv-x="739" 
d="M576 14v-62l99 -42l49 21l-25 21v107l-98 42l-49 -21l24 -21v-33l-66 -6v287l-154 55l140 77v235l-104 51l-168 -58v10l-104 48l-78 -35l51 -36v-186l168 -72l-176 -86v-119l104 -103l78 51l-52 51v94l126 70l39 -15v-332l-54 -4v28l-98 42l-49 -21l25 -21v-86l98 -43
l48 22l-24 21v45zM275 404l-51 21v230l105 37l37 -18v-217z" />
    <glyph glyph-name="uni1340" unicode="&#x1340;" horiz-adv-x="615" 
d="M405 427l-186 -75v-276l45 -40l141 51v340zM405 442v189l-72 52l-114 -51v-266zM577 44l-68 -44l-104 77l-212 -77l-104 77v573l-52 38l78 38l104 -77v-9l186 86l130 -56v-593z" />
    <glyph glyph-name="uni1341" unicode="&#x1341;" horiz-adv-x="806" 
d="M535 393l81 34v59l-26 25l52 27l104 -52v-128l26 -25l-52 -25l-104 50v60l-81 -33v-307l42 -34l-68 -44l-104 78l-212 -78l-104 78v574l-52 40l78 37l104 -78v-8l186 86l130 -56v-280zM405 444v189l-72 54l-114 -53v-267zM405 428l-186 -75v-276l45 -41l141 52v340z" />
    <glyph glyph-name="uni1342" unicode="&#x1342;" horiz-adv-x="806" 
d="M534 98l45 -45l52 31v53l-26 24l52 25l104 -49v-123l26 -25l-52 -25l-104 50v60l-123 -76l-104 100v270l-212 -75l-104 75v284l-52 38l78 37l104 -76v-8l186 84l130 -56v-573zM404 542v91l-98 42l-88 -41v-151zM404 530l-186 -61v-102l45 -38l141 50v151z" />
    <glyph glyph-name="uni1343" unicode="&#x1343;" horiz-adv-x="618" 
d="M404 531l-186 -61v-101l45 -38l141 49v151zM404 543v91l-98 42l-88 -41v-151zM404 370l-212 -76l-104 76v283l-52 38l78 37l104 -76v-8l186 84l130 -56v-573l52 -49l-78 -50l-104 100v270z" />
    <glyph glyph-name="uni1344" unicode="&#x1344;" horiz-adv-x="798" 
d="M534 293l102 40l104 -49v-232l26 -25l-52 -25l-104 50v8l-102 -58l-104 98v270l-212 -76l-104 76v283l-52 38l78 37l104 -76v-8l186 84l130 -56v-379zM610 71v213l-37 17l-39 -15v-184l48 -49zM404 543v91l-98 42l-88 -41v-151zM404 531l-186 -60v-102l45 -38l141 49v151
z" />
    <glyph glyph-name="uni1345" unicode="&#x1345;" horiz-adv-x="613" 
d="M405 348l-186 -54v-222l45 -38l141 48v266zM405 361v116l-72 50l-114 -49v-171zM347 542l58 25l130 -53v-442l42 -31l-68 -41l-104 72l-212 -72l-104 72v423l-52 36l78 36l104 -72v-9l17 8v185l-44 19l60 34l95 -51v-139z" />
    <glyph glyph-name="uni1346" unicode="&#x1346;" horiz-adv-x="638" 
d="M423 536l-185 -56v-113l45 -38l140 50v157zM423 546v87l-97 42l-88 -41v-144zM302 324l-90 -31l-104 75v284l-52 38l78 37l104 -76v-8l185 84l130 -56v-287l-80 -49l-50 33l-65 -24l-158 -95v-195l52 -49l-78 -50l-104 100v136z" />
    <glyph glyph-name="uni1348" unicode="&#x1348;" horiz-adv-x="717" 
d="M171 281l142 56l104 -47v-218l103 25v48l-26 25l52 26l103 -51v-125l26 -25l-52 -25l-103 50v61l-375 -82l-103 99v255l254 121v185l-50 36l77 35l104 -48v-160l-256 -121v-120zM171 267v-167l64 -65l51 11v221l-43 28z" />
    <glyph glyph-name="uni1349" unicode="&#x1349;" horiz-adv-x="675" 
d="M265 229v178l-42 21l-53 -15v-132l55 -63zM395 260l84 20v49l-25 23l51 22l103 -45v-115l25 -23l-51 -23l-103 46v55l-86 -23l-81 -178l53 -25l-93 -45l-89 58l73 157l-111 -25l-103 91v163l253 111v115l-51 32l77 32l103 -44v-91l-254 -110v-63l122 37l102 -37z" />
    <glyph glyph-name="uni134A" unicode="&#x134a;" horiz-adv-x="669" 
d="M627 142l-86 -50l-396 -92l-103 97v249l255 121v193l-51 35l78 34l103 -47v-168l-256 -119v-118l119 55l103 -46v-214l104 22v219l-51 34l78 35l103 -46v-194zM171 263v-164l55 -65l37 10v219l-39 27z" />
    <glyph glyph-name="uni134B" unicode="&#x134b;" horiz-adv-x="679" 
d="M397 258l86 21v48l-26 22l52 23l103 -45v-114l26 -23l-52 -23l-103 46v55l-87 -20v-179l51 -24l-77 -45l-103 58v158l-122 -29l-103 91v161l254 111v114l-50 32l77 32l103 -43v-91l-255 -110v-62l122 37l104 -37v-164zM267 228v177l-43 21l-53 -15v-132l64 -59z" />
    <glyph glyph-name="uni134C" unicode="&#x134c;" horiz-adv-x="868" 
d="M673 -31l23 11v210l-23 22l-44 -22v-190zM520 80l-375 -82l-103 99v255l254 122v185l-50 36l77 34l104 -47v-160l-256 -122v-120l142 56l104 -47v-218l103 25v111l-35 15l58 20l86 -36v-8l109 56l67 -56v-233l22 -19l-45 -18l-86 37v6l-19 -9l-70 -34l-87 73v79zM171 266
v-167l64 -66l51 12v221l-43 28z" />
    <glyph glyph-name="uni134D" unicode="&#x134d;" horiz-adv-x="728" 
d="M314 232v181l-44 23l-53 -16v-135l65 -60zM219 595l-2 -164l124 37l104 -37v-167l86 20v50l-26 23l51 23l104 -46v-117l26 -23l-52 -23l-103 46v57l-87 -21v-182l52 -25l-78 -46l-104 59v163l-122 -31l-104 92v348l-46 39l72 38l105 -65v-38l229 55v21l-26 23l52 23
l103 -46v-116l26 -23l-52 -24l-103 47v83z" />
    <glyph glyph-name="uni134E" unicode="&#x134e;" horiz-adv-x="758" 
d="M220 328v-227l58 -59l43 15v264l-43 28zM220 342l128 50l103 -48v-243l59 19v51l-26 25l52 24l104 -49v-125l26 -25l-52 -25l-104 50v61l-316 -107l-104 99v519l-48 40l72 42l106 -71v-39l188 63v29l-35 15l58 21l87 -37v-7l109 56l68 -56v-197l22 -17l-45 -18l-88 35v8
l-18 -11l-70 -32l-88 73v128l-188 -66v-235zM562 482l22 12v172l-22 21l-44 -21v-152z" />
    <glyph glyph-name="uni134F" unicode="&#x134f;" horiz-adv-x="679" 
d="M471 683v-61l99 -43l49 22l-25 21v107l-98 42l-49 -21l24 -21v-33l-251 -23v49l-97 41l-49 -20l25 -21v-107l98 -43l48 22l-25 21v44l76 8v-117l-254 -111v-161l103 -91l122 29v-158l103 -58l77 45l-51 24v179l87 20v-55l103 -46l52 23l-26 23v114l-103 45l-52 -23
l26 -22v-48l-86 -21v164l-104 37l-122 -37v62l255 110v85zM267 228l-32 -8l-64 59v132l53 15l43 -21v-177z" />
    <glyph glyph-name="uni1350" unicode="&#x1350;" horiz-adv-x="746" 
d="M313 101v507l-46 47l-69 -17v-97l26 -25l-52 -25l-104 50v125l-26 25l52 25l104 -50v-16l170 44l75 -66l105 29v17l-26 25l52 26l104 -51v-125l26 -25l-52 -25l-104 50v98l-105 -29v-518l52 -50l-78 -50z" />
    <glyph glyph-name="uni1351" unicode="&#x1351;" horiz-adv-x="746" 
d="M443 327l82 25v58l-26 25l52 25l104 -50v-126l26 -25l-52 -25l-104 50v58l-82 -25v-216l52 -51l-78 -50l-104 102v510l-46 47l-69 -18v-97l26 -25l-52 -26l-104 51v125l-26 26l52 25l104 -51v-15l170 43l75 -65l105 29v17l-26 25l52 25l104 -50v-126l26 -25l-52 -25
l-104 50v98l-105 -29v-294z" />
    <glyph glyph-name="uni1352" unicode="&#x1352;" horiz-adv-x="744" 
d="M442 100l45 -46l52 32v53l-26 26l51 25l104 -51v-125l26 -25l-52 -25l-103 50v61l-124 -76l-103 102v511l-46 47l-68 -18v-98l25 -25l-51 -25l-104 50v126l-26 26l52 25l104 -51v-15l169 43l75 -65l105 29v17l-26 25l51 25l104 -50v-126l26 -25l-52 -25l-103 50v98
l-105 -29v-521z" />
    <glyph glyph-name="uni1353" unicode="&#x1353;" horiz-adv-x="744" 
d="M90 102v69l222 138v303l-46 47l-68 -18v-97l25 -25l-51 -26l-104 51v125l-26 26l52 25l104 -51v-15l169 43l75 -65l105 29v17l-26 25l51 25l104 -50v-126l26 -25l-52 -25l-103 50v98l-105 -29v-257l-223 -133v-130l52 -51l-77 -50z" />
    <glyph glyph-name="uni1354" unicode="&#x1354;" horiz-adv-x="744" 
d="M519 70v216l-37 18l-40 -16v-186l49 -50zM442 296l103 41l103 -51v-236l26 -25l-52 -25l-103 50v9l-103 -59l-104 102v510l-46 47l-68 -18v-97l25 -25l-51 -26l-104 51v125l-26 26l52 25l104 -51v-15l169 43l75 -65l105 29v17l-26 25l51 25l104 -50v-126l26 -25l-52 -25
l-103 50v98l-105 -29v-325z" />
    <glyph glyph-name="uni1355" unicode="&#x1355;" horiz-adv-x="746" 
d="M412 102v284l-99 64v162l-46 47l-69 -18v-97l26 -25l-52 -26l-104 51v125l-26 26l52 25l104 -51v-15l170 43l75 -65l105 29v17l-26 25l52 25l104 -50v-126l26 -25l-52 -25l-104 50v98l-105 -29v-173l99 -62v-285l52 -51l-78 -50z" />
    <glyph glyph-name="uni1356" unicode="&#x1356;" horiz-adv-x="746" 
d="M66 102v173l247 163v176l-46 47l-69 -18v-98l26 -25l-52 -25l-104 50v126l-26 25l52 26l104 -51v-15l170 43l75 -66l105 29v18l-26 25l52 25l104 -50v-126l26 -25l-52 -26l-104 51v98l-105 -29v-115l-247 -169v-238l52 -51l-78 -50z" />
    <glyph glyph-name="Uni1358" unicode="&#x1358;" horiz-adv-x="598" 
d="M556 108l-410 -108l-104 99v251l256 122v184l-50 35l78 35l104 -47v-159l-258 -121v-298l64 -66l189 51v184l-51 35l78 35l104 -47v-185z" />
    <glyph glyph-name="Uni1359" unicode="&#x1359;" horiz-adv-x="1092" 
d="M739 639v-299l45 -33l80 40v291l-73 37zM348 334v304l-72 37l-52 -36v-315l44 -32zM864 340l-151 -77l-104 76v299l-73 39l-58 -36v-315l43 -34l-69 -43l-104 77l-150 -77l-104 77v331l-52 39l78 36l104 -76v-9l124 85l130 -56v-24l131 80l130 -56v-29l125 85l130 -56
v-575l56 -54l-81 -47l-104 100z" />
    <glyph glyph-name="Uni135A" unicode="&#x135a;" horiz-adv-x="717" 
d="M471 681v-61l99 -43l49 22l-25 21v107l-98 42l-49 -21l24 -21v-33l-251 -23v49l-97 41l-49 -21l25 -20v-107l98 -43l48 22l-25 21v44l76 8v-191l-254 -121v-255l103 -99l375 82v-61l103 -50l52 25l-26 25v125l-103 51l-52 -26l26 -25v-48l-103 -25v218l-104 47l-142 -56
v120l256 121v155zM171 267l72 28l43 -28v-221l-51 -11l-64 65v167z" />
    <glyph glyph-name="uni1361" unicode="&#x1361;" horiz-adv-x="340" 
d="M222 232l-135 42l-49 -21l25 -21v-117l135 -42l48 22l-24 20v117zM222 477l-135 42l-49 -21l25 -21v-116l135 -43l48 22l-24 21v116z" />
    <glyph glyph-name="uni1362" unicode="&#x1362;" horiz-adv-x="566" 
d="M213 234l-134 42l-49 -21l25 -21v-116l134 -43l49 22l-25 21v116zM213 479l-134 42l-49 -21l25 -21v-116l134 -43l49 22l-25 21v116zM480 231l-134 41l-49 -20l25 -21v-117l135 -42l48 22l-25 20v117zM480 476l-134 42l-49 -21l25 -21v-116l135 -43l48 22l-25 21v116z
" />
    <glyph glyph-name="uni1363" unicode="&#x1363;" horiz-adv-x="527" 
d="M405 613v-47h-319v47h319zM335 234l-134 42l-49 -21l25 -21v-116l134 -43l49 22l-25 21v116zM335 479l-134 42l-49 -21l25 -21v-116l134 -43l49 22l-25 21v116z" />
    <glyph glyph-name="uni1364" unicode="&#x1364;" horiz-adv-x="538" 
d="M453 670v-47h-371v47h371zM343 289l-134 42l-49 -21l25 -21v-116l134 -43l49 22l-25 21v116zM343 535l-134 41l-49 -21l25 -20v-117l134 -43l49 22l-25 21v117zM454 88v-46h-371v46h371z" />
    <glyph glyph-name="uni1365" unicode="&#x1365;" horiz-adv-x="445" 
d="M387 372v-46h-318v46h318zM296 207l-134 42l-49 -21l25 -21v-117l134 -42l49 22l-25 20v117zM296 576l-134 42l-49 -21l25 -21v-116l134 -43l49 22l-25 21v116z" />
    <glyph glyph-name="uni1366" unicode="&#x1366;" horiz-adv-x="736" 
d="M540 362v-47h-318v47h318zM251 206l-135 42l-48 -21l25 -21v-117l134 -42l49 22l-25 20v117zM251 575l-135 42l-48 -21l25 -21v-116l134 -43l49 22l-25 21v116z" />
    <glyph glyph-name="Uni1367" unicode="&#x1367;" horiz-adv-x="364" 
d="M251 205l-135 41l-48 -20l25 -21v-117l134 -42l49 22l-25 20v117zM259 440l-134 42l-49 -21l25 -21v-117l134 -42l49 22l-25 20v117zM259 678l-134 42l-49 -21l25 -21v-116l134 -43l49 22l-25 21v116z" />
    <glyph glyph-name="Uni1368" unicode="&#x1368;" horiz-adv-x="649" 
d="M583 296l-105 38l-38 -19l20 -19v-104l105 -37l38 20l-20 17v104zM583 531l-105 38l-38 -19l20 -19v-101l105 -39l38 20l-20 19v101zM185 296l-105 38l-38 -19l19 -19v-104l104 -37l40 20l-20 17v104zM188 531l-106 38l-37 -19l18 -19v-101l105 -39l39 20l-19 19v101z
M386 157l-105 36l-38 -17l19 -19v-102l105 -38l38 18l-19 20v102zM386 411l-105 37l-38 -18l19 -19v-103l105 -38l38 19l-19 19v103zM386 671l-105 35l-38 -18l19 -17v-104l105 -38l38 19l-19 19v104z" />
    <glyph glyph-name="uni1369" unicode="&#x1369;" horiz-adv-x="656" 
d="M407 176v202l-166 -65v-176l37 -33zM440 17l-247 -107v-18l26 -26l-52 -26l-104 52v130l-26 11l52 39l104 -65v-90l247 108v-3l-26 26l52 37l104 -63v-116l26 -26l-52 -26l-104 52v111zM446 789l-246 -107v-17l26 -26l-52 -33l-104 76v113l-26 26l52 26l104 -52v-105
l246 108v11l-26 26l52 26l104 -52v-130l26 -26l-52 -26l-104 52v110zM407 162l-192 -103l-104 79v260l213 101v129l-52 40l78 38l104 -79v-84l-213 -99v-123l166 65v11l-26 26l52 26l104 -52v-235l26 -26l-52 -26z" />
    <glyph glyph-name="uni136A" unicode="&#x136a;" horiz-adv-x="651" 
d="M399 439v129l-60 41l-98 -31v-199zM111 550l314 96l104 -79v-84l-288 -115v-118l166 64v12l-26 26l52 26l104 -52v-164l26 -26l-52 -26l-104 52l-192 -103l-104 79v412zM446 789l-246 -107v-17l26 -26l-52 -33l-104 76v113l-26 26l52 26l104 -52v-105l246 108v11l-26 26
l52 26l104 -52v-130l26 -26l-52 -26l-104 52v110zM440 17l-247 -107v-18l26 -26l-52 -26l-104 52v130l-26 11l52 39l104 -65v-90l247 108v-3l-26 26l52 37l104 -63v-116l26 -26l-52 -26l-104 52v111zM407 176v130l-166 -65v-104l37 -33z" />
    <glyph glyph-name="uni136B" unicode="&#x136b;" horiz-adv-x="651" 
d="M268 97l-70 -38l-104 79v399l-52 39l78 39l104 -79v-10l165 65v11l-26 26l52 26l104 -52v-130l26 -26l-52 -26l-104 52v110l-165 -64v-381zM467 789l-247 -107v-17l26 -26l-52 -33l-104 76v113l-26 26l52 26l104 -52v-105l247 108v11l-26 26l52 26l104 -52v-130l26 -26
l-52 -26l-104 52v110zM422 17l-246 -107v-18l26 -26l-52 -26l-104 52v130l-26 11l52 39l104 -65v-90l246 108v-3l-26 26l52 37l104 -63v-116l26 -26l-52 -26l-104 52v111z" />
    <glyph glyph-name="uni136C" unicode="&#x136c;" horiz-adv-x="676" 
d="M438 17l-247 -107v-18l26 -26l-52 -26l-104 52v130l-26 11l52 39l104 -65v-90l247 108v-3l-26 26l52 37l104 -63v-116l26 -26l-52 -26l-104 52v111zM483 789l-247 -107v-17l26 -26l-52 -33l-104 76v113l-26 26l52 26l104 -52v-105l247 108v11l-26 26l52 26l104 -52v-130
l26 -26l-52 -26l-104 52v110zM597 104l-69 -45l-104 79l-211 -79l-104 79v399l-52 39l78 39l104 -79v-10l185 89l130 -59v-418zM424 149v368l-71 54l-114 -53v-381l45 -40z" />
    <glyph glyph-name="uni136D" unicode="&#x136d;" horiz-adv-x="656" 
d="M278 100l182 85v12l-26 26l52 26l104 -52v-92l26 -26l-52 -28l-104 67v59l-248 -118l-104 79v260l213 101v129l-52 40l78 38l104 -79v-84l-213 -99v-102l166 65v11l-26 26l52 26l104 -52v-91l26 -26l-52 -26l-104 52v71l-166 -64v-197zM443 789l-246 -107v-17l26 -26
l-52 -33l-104 76v113l-26 26l52 26l104 -52v-105l246 108v11l-26 26l52 26l104 -52v-130l26 -26l-52 -26l-104 52v110zM437 17l-247 -107v-18l26 -26l-52 -26l-104 52v130l-26 11l52 39l104 -65v-90l247 108v-3l-26 26l52 37l104 -63v-116l26 -26l-52 -26l-104 52v111z" />
    <glyph glyph-name="uni136E" unicode="&#x136e;" horiz-adv-x="650" 
d="M372 109l44 173l-21 14l-24 -6l-50 -159l31 -27zM379 308l48 14l66 -60l-46 -157l29 -21l-52 -30l-55 44l1 5l-77 -31l-86 69l124 382l-25 37l-109 -64v-44l26 -26l-52 -32l-104 76v85l-26 26l52 26l104 -52v-52l178 97l73 -84zM448 789l-246 -107v-17l26 -26l-52 -33
l-104 58v131l-26 26l52 26l104 -52v-105l246 108v11l-26 26l52 26l104 -52v-130l26 -26l-52 -26l-104 52v110zM492 17l-247 -107v-18l26 -26l-52 -26l-104 52v130l-26 11l52 39l104 -65v-90l247 108v-3l-26 26l52 37l104 -63v-116l26 -26l-52 -26l-104 52v111z" />
    <glyph glyph-name="uni136F" unicode="&#x136f;" horiz-adv-x="743" 
d="M441 600l75 -100l-205 -363l39 -37l182 85v12l-26 26l52 26l104 -52v-92l26 -26l-52 -28l-104 67v59l-247 -118l-104 79l215 385l-25 37l-157 -64v-44l26 -26l-52 -32l-104 76v85l-26 26l52 26l104 -52v-52zM510 17l-247 -107v-18l26 -26l-52 -26l-104 52v130l-26 11
l52 39l104 -65v-90l247 108v-3l-26 26l52 37l104 -63v-116l26 -26l-52 -26l-104 52v111zM466 789l-247 -107v-17l26 -26l-52 -33l-104 58v131l-26 26l52 26l104 -52v-105l247 108v11l-26 26l52 26l104 -52v-130l26 -26l-52 -26l-104 52v110z" />
    <glyph glyph-name="uni1370" unicode="&#x1370;" horiz-adv-x="795" 
d="M469 851l-200 -107v-18l26 -26l-52 -32l-104 57v131l-26 26l52 26l104 -52v-105l200 108v11l-26 26l52 26l104 -52v-130l26 -26l-52 -26l-104 52v111zM512 17l-200 -107v-18l26 -26l-52 -26l-104 52v130l-26 11l52 39l104 -65v-90l200 108v-3l-26 26l52 37l104 -63v-116
l26 -26l-52 -26l-104 52v111zM448 192l130 17v33l-26 26l52 26l104 -52v-100l26 -26l-52 -26l-104 52v56l-376 -47v-20l26 -26l-52 -26l-104 52v100l-26 26l52 26l104 -52v-68l115 14v374l-115 -13v-20l26 -26l-52 -26l-104 52v100l-26 26l52 26l104 -52v-68l393 49v33
l-26 26l52 26l104 -52v-100l26 -26l-52 -26l-104 52v56l-147 -21v-375z" />
    <glyph glyph-name="uni1371" unicode="&#x1371;" horiz-adv-x="651" 
d="M424 374l-185 -41v-196l45 -40l140 52v225zM424 386v131l-74 44l74 54l130 -59v-418l43 -34l-69 -45l-104 79l-211 -79l-104 79v399l-52 39l78 39l104 -79v-193zM483 789l-247 -107v-17l26 -26l-52 -33l-104 76v113l-26 26l52 26l104 -52v-105l247 108v11l-26 26l52 26
l104 -52v-130l26 -26l-52 -26l-104 52v110zM438 17l-247 -107v-18l26 -26l-52 -26l-104 52v130l-26 11l52 39l104 -65v-90l245 107l2 1v-3l-2 2l-24 24l52 37l104 -63v-116l26 -26l-52 -26l-104 52v111z" />
    <glyph glyph-name="uni1372" unicode="&#x1372;" horiz-adv-x="726" 
d="M523 17l-246 -107v-18l26 -26l-52 -26l-104 52v130l-26 11l52 39l104 -65v-90l246 108v-3l-26 26l52 37l104 -63v-116l26 -26l-52 -26l-104 52v111zM439 789l-247 -107v-17l26 -26l-52 -33l-104 76v113l-26 26l52 26l104 -52v-105l247 108v11l-26 26l52 26l104 -52v-130
l26 -26l-52 -26l-104 52v110zM426 563v-451l45 -40l-71 -38l-104 79v451l-52 39l78 39z" />
    <glyph glyph-name="uni1373" unicode="&#x1373;" horiz-adv-x="656" 
d="M215 43l-104 66v289l213 101v129l-52 40l78 38l104 -79v-84l-213 -99v-123l166 65v11l-26 26l52 26l104 -52v-251l26 -26l-52 -41l-104 65v234l-166 -65v-192l54 -39zM446 789l-246 -107v-17l26 -26l-52 -33l-104 76v113l-26 26l52 26l104 -52v-105l246 108v11l-26 26
l52 26l104 -52v-130l26 -26l-52 -26l-104 52v110zM440 17l-247 -107v-18l26 -26l-52 -26l-104 52v130l-26 11l52 39l104 -65v-90l247 108v-3l-26 26l52 37l104 -63v-116l26 -26l-52 -26l-104 52v111z" />
    <glyph glyph-name="uni1374" unicode="&#x1374;" horiz-adv-x="731" 
d="M459 17l-247 -107v-18l26 -26l-52 -26l-104 52v130l-26 11l52 39l104 -65v-90l247 108v-3l-26 26l52 37l104 -63v-116l26 -26l-52 -26l-104 52v111zM465 789l-247 -107v-17l26 -26l-52 -33l-104 76v113l-26 26l52 26l104 -52v-105l247 108v11l-26 26l52 26l104 -52v-130
l26 -26l-52 -26l-104 52v110zM512 184v335l-36 23l-70 -32v-312l56 -26l-56 -44l-98 42v17l-106 -59l-98 42v349l-40 29l60 27l78 -55v-322l57 -30l49 28v323l-40 29l59 27l79 -55l125 55l78 -56v-335l40 -29l-59 -27z" />
    <glyph glyph-name="uni1375" unicode="&#x1375;" horiz-adv-x="748" 
d="M318 324l-118 -59l-108 42v227l-45 29l65 27l88 -55v-200l64 -30l54 28v201l-43 29l65 27l88 -55v-200l63 -29l56 31v198l-44 28l66 27l87 -56v-415l44 -29l-66 -27l-87 57v208l-119 -63l-110 42v17zM475 789l-246 -107v-17l26 -26l-52 -33l-104 68v121l-26 26l52 26
l104 -52v-105l246 108v11l-26 26l52 26l104 -52v-130l26 -26l-52 -26l-104 52v110zM469 17l-246 -107v-18l26 -26l-52 -26l-104 52v130l-26 11l52 39l104 -65v-90l246 108v-3l-26 26l52 37l104 -63v-116l26 -26l-52 -26l-104 52v111z" />
    <glyph glyph-name="uni1376" unicode="&#x1376;" horiz-adv-x="751" 
d="M561 17l-247 -107v-18l26 -26l-52 -26l-104 52v130l-26 11l52 39l104 -65v-90l247 108v-3l-26 26l52 37l104 -63v-116l26 -26l-52 -26l-104 52v111zM444 789l-246 -107v-17l26 -26l-52 -33l-104 68v121l-26 26l52 26l104 -52v-105l246 108v11l-26 26l52 26l104 -52v-130
l26 -26l-52 -26l-104 52v110zM201 309v227l-44 29l66 41l88 -69v-200l62 -29l57 31v198l-44 28l65 27l88 -56v-406l34 -27l-56 -37l-87 56v208l-119 -63z" />
    <glyph glyph-name="uni1377" unicode="&#x1377;" horiz-adv-x="905" 
d="M448 192l130 17v33l-26 26l52 26l104 -52v-100l26 -26l-52 -26l-104 52v56l-376 -47v-20l26 -26l-52 -26l-104 52v100l-26 26l52 26l104 -52v-68l115 14l63 251l-87 -22l24 145l-115 -13v-20l26 -26l-52 -26l-104 52v100l-26 26l52 26l104 -52v-68l393 49v33l-26 26
l52 26l104 -52v-100l26 -26l-52 -26l-104 52v56l-147 -21l-24 -161l87 22zM512 17l-200 -107v-18l26 -26l-52 -26l-104 52v130l-26 11l52 39l104 -65v-90l200 108v-3l-26 26l52 37l104 -63v-116l26 -26l-52 -26l-104 52v111zM469 851l-200 -107v-18l26 -26l-52 -32l-104 57
v131l-26 26l52 26l104 -52v-105l200 108v11l-26 26l52 26l104 -52v-130l26 -26l-52 -26l-104 52v111z" />
    <glyph glyph-name="uni1378" unicode="&#x1378;" horiz-adv-x="753" 
d="M469 17l-246 -107v-18l26 -26l-52 -26l-104 52v130l-26 11l52 39l104 -65v-90l246 108v-3l-26 26l52 37l104 -63v-116l26 -26l-52 -26l-104 52v111zM475 789l-246 -107v-17l26 -26l-52 -33l-104 68v121l-26 26l52 26l104 -52v-105l246 108v11l-26 26l52 26l104 -52v-130
l26 -26l-52 -26l-104 52v110zM391 548l-164 -47v-342l51 -41l204 56v36l-23 18l44 17l92 -35v-89l23 -19l-46 -18l-90 37v43l-277 -77l-92 71v372l-43 30l64 29l93 -50v-28l164 45v21l-30 10l50 15l77 -26v-6l95 40l60 -40v-140l19 -13l-39 -12l-77 25v5l-16 -8l-61 -22
l-78 52v91zM526 433l20 8v124l-20 15l-38 -15v-109z" />
    <glyph glyph-name="uni1379" unicode="&#x1379;" horiz-adv-x="861" 
d="M639 553v-393l25 -26l-52 -26l-104 52v377l-132 -15v-390l25 -26l-52 -26l-104 52v374l-52 -7v-20l26 -26l-52 -26l-104 52v100l-26 26l52 26l104 -52v-67l476 57v33l-26 26l52 26l104 -52v-100l26 -26l-52 -26l-104 52v55zM530 17l-199 -107v-18l26 -26l-52 -26l-104 52
v130l-26 11l52 39l104 -65v-90l197 107l2 1v-3l-2 2l-24 24l52 37l104 -63v-116l26 -26l-52 -26l-104 52v111zM515 810l-200 -107v-18l26 -26l-52 -32l-104 57v131l-26 26l52 26l104 -52v-105l200 108v12l-26 26l52 26l104 -52v-130l26 -26l-52 -26l-104 52v110z" />
    <glyph glyph-name="uni137A" unicode="&#x137a;" horiz-adv-x="734" 
d="M441 789l-247 -107v-17l26 -26l-52 -33l-104 68v121l-26 26l52 26l104 -52v-105l247 108v11l-26 26l52 26l104 -52v-130l26 -26l-52 -26l-104 52v110zM552 17l-246 -107v-18l26 -26l-52 -26l-104 52v130l-26 11l52 39l104 -65v-90l246 108v-3l-26 26l52 37l104 -63v-116
l26 -26l-52 -26l-104 52v111zM306 540l-32 28l-87 -29v-65l20 -20l-40 -20l-79 40v102l-20 12l40 20l79 -41v-18l179 58l50 -45l-54 -181l116 46l41 -38l-60 -296l39 -41l-60 -42l-79 84l60 272l-23 18l-94 -37l-40 37z" />
    <glyph glyph-name="uni137B" unicode="&#x137b;" horiz-adv-x="653" 
d="M440 789l-247 -107v-17l26 -26l-52 -33l-104 68v121l-26 26l52 26l104 -52v-105l247 108v11l-26 26l52 26l104 -52v-130l26 -26l-52 -26l-104 52v110zM448 17l-246 -107v-18l26 -26l-52 -26l-104 52v130l-26 11l52 39l104 -65v-90l246 108v-3l-26 26l52 37l104 -63v-116
l26 -26l-52 -26l-104 52v111zM275 526v-196l117 50v161l-31 13zM350 245v-148l44 -39l-64 -38l-87 77v139l-77 73v217l-42 27l64 26l87 -35v-8l139 43l85 -38v-176l22 -20l-43 -18l-86 38v6l-117 -50v-11z" />
    <glyph glyph-name="uni137C" unicode="&#x137c;" horiz-adv-x="916" 
d="M290 191v-94l44 -39l-65 -38l-86 77v139l-77 73v217l-43 27l65 26l86 -35v-8l140 43l85 -38v-176l22 -20l-43 -18l-86 38v6l-118 -50v-11l76 -65v-45l273 59l-53 50v217l-43 27l64 26l87 -35v-8l139 43l85 -38v-176l22 -20l-42 -18l-87 38v6l-117 -50v-11l76 -65v-148
l43 -39l-64 -38l-86 64v152l-16 15zM618 526v-196l117 50v161l-31 13zM214 526v-196l118 50v161l-31 13zM545 -5l-302 -95v-18l26 -26l-52 -26l-104 52v130l-26 12l52 38l104 -64v-91l300 95l2 1v-3l-2 2l-24 24l52 37l104 -72v-106l26 -26l-52 -26l-104 52v110zM606 749
l-390 -67v-17l26 -26l-52 -33l-104 68v121l-26 26l52 26l104 -52v-105l390 67v12l-26 26l52 26l104 -52v-130l26 -26l-52 -26l-104 52v110z" />
    <glyph glyph-name="endash" unicode="&#x2013;" 
d="M532 272h-440v58h440v-58z" />
    <glyph glyph-name="emdash" unicode="&#x2014;" 
d="M674 272h-724v58h724v-58z" />
    <glyph glyph-name="quoteleft" unicode="&#x2018;" 
d="M295 586h74l-79 -253h-107z" />
    <glyph glyph-name="quoteright" unicode="&#x2019;" 
d="M258 333h-74l79 253h108z" />
    <glyph glyph-name="quotesinglbase" unicode="&#x201a;" 
d="M258 -113h-74l79 251h108z" />
    <glyph glyph-name="quotedblleft" unicode="&#x201c;" 
d="M456 586h73l-79 -253h-107zM277 586h73l-80 -253h-107z" />
    <glyph glyph-name="quotedblright" unicode="&#x201d;" 
d="M168 333h-73l79 253h108zM347 333h-73l80 253h107z" />
    <glyph glyph-name="quotedblbase" unicode="&#x201e;" 
d="M168 -113h-73l79 251h108zM347 -113h-73l80 251h107z" />
    <glyph glyph-name="dagger" unicode="&#x2020;" 
d="M341 442h116v-51h-116v-441h-57v441h-117v51h117v144h57v-144z" />
    <glyph glyph-name="daggerdbl" unicode="&#x2021;" 
d="M340 440h114v-49h-114v-166h114v-49h-114v-226h-55v226h-114v49h114v166h-114v49h114v146h55v-146z" />
    <glyph glyph-name="bullet" unicode="&#x2022;" 
d="M312 397q-22 0 -41 -8t-33 -22t-22 -33t-8 -41q0 -43 30 -73.5t74 -30.5q22 0 40.5 8t32.5 22t22.5 33t8.5 41t-8.5 41t-22.5 33t-32.5 22t-40.5 8z" />
    <glyph glyph-name="ellipsis" unicode="&#x2026;" 
d="M312 124q16 0 30 -5.5t25.5 -14.5t18 -22t6.5 -29q0 -17 -7 -30t-18.5 -22t-25.5 -14t-29 -5q-14 0 -28 5t-26 13.5t-19 21.5t-7 31q0 17 7 30t18.5 22t25.5 14t29 5zM520 124q16 0 30 -5.5t25.5 -14.5t18 -22t6.5 -29q0 -17 -7 -30t-18.5 -22t-25.5 -14t-29 -5
q-14 0 -28 5t-26 13.5t-19 21.5t-7 31q0 17 7 30t18.5 22t25.5 14t29 5zM104 124q16 0 30 -5.5t25.5 -14.5t18 -22t6.5 -29q0 -17 -7 -30t-18.5 -22t-25.5 -14t-29 -5q-14 0 -28 5t-26 13.5t-19 21.5t-7 31q0 17 7 30t18.5 22t25.5 14t29 5z" />
    <glyph glyph-name="perthousand" unicode="&#x2030;" 
d="M225 263q28 0 49.5 -12t37.5 -31.5t23.5 -44.5t7.5 -51q0 -25 -7.5 -50t-23.5 -45t-37.5 -32t-49.5 -12t-50 12.5t-37.5 32t-23.5 44.5t-8 50t8 50t23 44.5t37.5 32t50.5 12.5zM225 214q-15 0 -26.5 -7.5t-19.5 -20t-12.5 -29t-4.5 -32.5q0 -35 17.5 -63t45.5 -28
q15 0 26.5 8.5t19.5 21.5t12 29t4 32q0 15 -4 31.5t-12 29t-19.5 20.5t-26.5 8zM128 638q28 0 50 -12t37.5 -32t23 -44.5t7.5 -50.5t-8 -51t-23 -44t-37 -31t-50 -12t-50 12.5t-37.5 31.5t-23.5 44t-8 50t8 49.5t23 44.5t37.5 32.5t50.5 12.5zM128 589q-15 0 -27 -8
t-19.5 -20.5t-11.5 -28.5t-4 -33q0 -16 4 -32.5t12 -29t19.5 -20t26.5 -7.5q29 0 45.5 27.5t16.5 61.5q0 35 -16.5 62.5t-45.5 27.5zM496 263q28 0 50 -12t37 -31.5t23.5 -44.5t8.5 -51t-8.5 -51t-24 -44.5t-37.5 -31.5t-49 -12q-29 0 -51 12.5t-37 32.5t-22.5 45t-7.5 49
t7.5 49t22.5 45t37 32.5t51 12.5zM496 214q-14 0 -26 -7.5t-20 -20t-12 -29t-4 -32.5q0 -35 16.5 -63t45.5 -28q15 0 27 8t19.5 21t11.5 29t4 33q0 16 -4 32.5t-11.5 29t-19.5 20t-27 7.5zM41 227l-21 41l423 188l21 -42z" />
    <glyph glyph-name="guilsinglleft" unicode="&#x2039;" 
d="M249 236l198 -173l-31 -36l-243 209l243 211l34 -37z" />
    <glyph glyph-name="guilsinglright" unicode="&#x203a;" 
d="M207 27l-30 36l198 173l-201 174l33 37l244 -211z" />
    <glyph glyph-name="trademark" unicode="&#x2122;" 
d="M622 561q-14 0 -24 -0.5t-10 -9.5v-231q0 -10 5 -11.5t29 -3.5v-25h-114v25q20 1 28 2.5t8 12.5v201h-2l-100 -241h-15l-97 241h-2v-195q0 -15 5.5 -17.5t30.5 -3.5v-25h-98v25q21 0 27.5 2t6.5 8v235q0 7 -9.5 9t-19.5 2v25h76l95 -232l102 232h78v-25zM243 522v-17h-27
q-1 27 -6 40t-33 13h-32v-244q0 -5 3.5 -7t24.5 -2h15v-25h-131v25h25q10 0 14 1.5t5 4.5t1 9v238q-25 0 -38.5 -1.5t-21 -7t-9.5 -16t-4 -28.5h-27l3.5 30t1.5 30v21h236l-2 -30z" />
  </font>
</defs>
</svg>
