<?xml version="1.0" standalone="no"?>
<!DOCTYPE svg PUBLIC "-//W3C//DTD SVG 1.1//EN" "http://www.w3.org/Graphics/SVG/1.1/DTD/svg11.dtd" >
<svg>
<metadata>
Created by FontForge 20090622 at Sat Oct  3 19:05:14 2015
 By deploy user
Copyright (c) 1998-2008 Senamirmir Project. All Right Reserved.  Released under the SIL Open Font License; http://scripts.sil.org/OFL
</metadata>
<defs>
<font id="EthiopicYigezuBisratGothic" horiz-adv-x="600" >
  <font-face 
    font-family="Ethiopic Yigezu Bisrat Gothic"
    font-weight="400"
    font-stretch="normal"
    units-per-em="1000"
    panose-1="0 0 5 9 3 0 0 2 0 4"
    ascent="800"
    descent="-200"
    x-height="430"
    cap-height="563"
    bbox="-1038 -185 1487 858"
    underline-thickness="50"
    underline-position="-175"
    unicode-range="U+0020-U+2122"
  />
<missing-glyph horiz-adv-x="500" 
 />
    <glyph glyph-name=".notdef" horiz-adv-x="500" 
 />
    <glyph glyph-name=".null" horiz-adv-x="0" 
 />
    <glyph glyph-name="nonmarkingreturn" horiz-adv-x="500" 
 />
    <glyph glyph-name="space" unicode=" " horiz-adv-x="279" 
 />
    <glyph glyph-name="space" unicode="&#xa0;" horiz-adv-x="279" 
 />
    <glyph glyph-name="exclam" unicode="!" 
d="M277 193l-18 378h83l-19 -378h-46zM300 106q30 0 49.5 -18t19.5 -44t-20 -43.5t-49 -17.5t-49 18t-20 44t20 43.5t49 17.5z" />
    <glyph glyph-name="quotedbl" unicode="&#x22;" 
d="M242 282h-74l-11 281h95zM432 282h-74l-10 281h95z" />
    <glyph glyph-name="numbersign" unicode="#" 
d="M236 454h145l12 205h47l-12 -205h94v-65h-97l-10 -167h107v-65h-110l-12 -214h-47l12 214h-146l-11 -214h-47l11 214h-94v65h98l10 167h-108v65h111l12 205h47zM223 222h145l10 167h-145z" />
    <glyph glyph-name="dollar" unicode="$" 
d="M476 547q-1 -10 -1.5 -21.5t-0.5 -26.5q0 -48 4 -84.5t7 -61.5l-46 -5q-7 49 -21 78.5t-30.5 45.5t-34 22t-31.5 9v-204q31 -9 61.5 -19t54.5 -25.5t38.5 -39.5t14.5 -60q0 -32 -13 -56.5t-36 -42.5t-54 -28.5t-66 -13.5v-150h-48v150q-8 0 -14.5 0.5t-15.5 3l-21.5 6
t-31.5 9.5q-11 4 -15.5 4.5t-6.5 0.5q-10 0 -11.5 -6t-2.5 -23h-47q3 55 0 99.5t-10 94.5h47q3 -17 9 -39.5t19.5 -43.5t37.5 -37t63 -21v199q-25 7 -53 16t-51.5 25t-39 41t-15.5 64q0 63 43.5 101t115.5 44v104h48v-104q34 -5 69 -21q13 -6 16.5 -7.5t7.5 -1.5q8 0 10 5
t4 20h47zM274 504q-12 -2 -30 -6t-35 -14.5t-29.5 -28t-12.5 -46.5q0 -24 9.5 -39.5t24.5 -26t34 -17.5t39 -13v191zM322 62q16 1 36 5.5t38 15t30.5 28t12.5 43.5q0 23 -10.5 38.5t-27 26t-37.5 17.5t-42 13v-187z" />
    <glyph glyph-name="percent" unicode="%" 
d="M401 253q35 0 61.5 -12t44.5 -31.5t27 -43.5t9 -47q0 -24 -9.5 -47.5t-27.5 -42.5t-44.5 -31t-60.5 -12q-35 0 -61 12t-44 31.5t-27 43t-9 46.5q0 22 9 46t26.5 43.5t44 32t61.5 12.5zM401 206q-21 0 -37 -7.5t-27 -19.5t-17 -27.5t-6 -31.5q0 -34 22.5 -60.5t64.5 -26.5
q21 0 37.5 7.5t28 20t17 28t5.5 31.5q0 15 -5.5 30.5t-16.5 28t-27.5 20t-38.5 7.5zM186 614q34 0 60.5 -12t44.5 -31.5t27.5 -43t9.5 -47.5t-9.5 -48t-27.5 -43t-44.5 -30.5t-60.5 -11.5q-33 0 -59.5 12t-44.5 30.5t-27.5 42.5t-9.5 48q0 23 9 47t27 43.5t44 31.5t61 12z
M187 567q-22 0 -38.5 -7.5t-27.5 -20t-16.5 -28t-5.5 -31.5t6 -31.5t17 -27.5t27.5 -19.5t37.5 -7.5q42 0 64.5 26t22.5 60q0 33 -22.5 60t-64.5 27zM107 193l-20 47l406 180l20 -47z" />
    <glyph glyph-name="ampersand" unicode="&#x26;" 
d="M529 233h-60q-18 -53 -31 -80.5t-21 -41.5l44 -64h75v-47h-114l-41 60l-21 -21t-29 -22.5t-39 -17.5t-49 -7q-35 0 -62 12.5t-45.5 33.5t-28 47t-9.5 53q0 51 31 96t88 66q0 3 -4 7l-27.5 41t-16.5 29t-8 24t-2 25q0 49 34.5 81.5t94.5 32.5q22 0 41 -4.5t38 -12.5
q21 -8 28 -9.5t13 -1.5q12 0 21.5 3l15.5 5l-46 -72q-19 14 -46 29t-65 15q-21 0 -34.5 -6t-21.5 -15.5t-11 -20.5t-3 -20q0 -18 10 -35.5t29 -45.5l130 -193l14.5 31t10 24t9.5 27.5l13 41.5h95v-47zM244 264q-14 -6 -28 -16t-25.5 -24t-19 -32.5t-7.5 -41.5q0 -18 5 -37
t16.5 -34.5t28.5 -25t41 -9.5q19 0 35 6t28 15t21 18.5t15 16.5z" />
    <glyph glyph-name="quotesingle" unicode="'" 
d="M337 281h-75l-19 282h114z" />
    <glyph glyph-name="parenleft" unicode="(" 
d="M463 649l-36 -71.5t-38 -88.5t-30 -102t-12 -111t12 -111t30 -102t38 -88.5l36 -70.5h-51q-28 42 -51 90t-39.5 97t-25.5 96.5t-9 88.5q0 40 8.5 87.5t25 96.5t39.5 97.5t52 91.5h51z" />
    <glyph glyph-name="parenright" unicode=")" 
d="M137 -96q15 27 35 67t38.5 88.5t31 103.5t12.5 113t-12.5 112.5t-31 102.5t-38.5 88.5l-35 69.5h52q31 -48 54.5 -97.5t39 -98t23.5 -93.5t8 -84q0 -41 -8.5 -87.5t-24.5 -95t-39.5 -97t-52.5 -92.5h-52z" />
    <glyph glyph-name="asterisk" unicode="*" 
d="M328 416l140 51l21 -64l-144 -40l93 -116l-55 -41l-83 125l-83 -125l-55 41l93 116l-144 40l21 64l140 -51l-6 147h68z" />
    <glyph glyph-name="plus" unicode="+" 
d="M325 328h209v-50h-209v-205h-50v205h-209v50h209v205h50v-205z" />
    <glyph glyph-name="comma" unicode="," 
d="M248 -109h-71l76 242h104z" />
    <glyph glyph-name="hyphen" unicode="-" 
d="M194 317h212v-55h-212v55z" />
    <glyph glyph-name="hyphen" unicode="&#xad;" 
d="M194 317h212v-55h-212v55z" />
    <glyph glyph-name="period" unicode="." 
d="M300 119q15 0 28.5 -5t24.5 -14t17.5 -21.5t6.5 -27.5q0 -16 -7 -28.5t-18 -21.5t-25 -13.5t-27 -4.5t-26.5 4.5t-25 13t-18.5 21t-7 29.5q0 16 7 28.5t18 21.5t24.5 13.5t27.5 4.5z" />
    <glyph glyph-name="slash" unicode="/" 
d="M134 -133l-43 20l375 815l43 -18z" />
    <glyph glyph-name="zero" unicode="0" 
d="M300 621q61 0 98.5 -31.5t57.5 -79t27 -103t7 -104.5t-7 -104.5t-27 -103t-57.5 -78.5t-98.5 -31t-98.5 31.5t-57.5 78.5t-27 103t-7 104q0 49 7 104.5t27 103t57.5 79t98.5 31.5zM300 576q-45 0 -72 -28t-41.5 -69t-19 -88.5t-4.5 -86.5q0 -40 4.5 -87.5t19 -89
t41.5 -69t71 -27.5q45 0 72 28t42 69t19.5 89t4.5 87q0 40 -4.5 87.5t-19 88.5t-41.5 68.5t-72 27.5z" />
    <glyph glyph-name="one" unicode="1" 
d="M334 621v-574h171v-47h-395v47h174v516l-160 -74l-20 44l198 88h32z" />
    <glyph glyph-name="two" unicode="2" 
d="M472 0h-390v53l50 44l74.5 66.5l82 75t71.5 69.5q36 36 47.5 65.5t11.5 64.5q0 36 -14.5 61t-35.5 41t-45 23.5t-43 7.5q-14 0 -36 -4.5t-43 -16.5t-35.5 -32t-12.5 -51h-52v65q28 33 57.5 51.5t55 26.5t44 9.5t24.5 1.5q35 0 69 -13t61 -37t43.5 -58.5t16.5 -76.5
q0 -32 -8 -57t-26 -54q-12 -19 -40 -49.5t-67 -67.5l-86 -78l-97 -81v-2h276v99h47v-146z" />
    <glyph glyph-name="three" unicode="3" 
d="M103 79q38 -18 81 -32t85 -14q27 0 53.5 8.5t47.5 26t33.5 43t12.5 58.5q0 35 -12 58t-26.5 36.5t-28 19.5t-16.5 7q-26 9 -49.5 10t-47.5 -1v47q22 0 47.5 3t48.5 18q25 17 38.5 43t13.5 55q0 51 -34 80t-85 29q-39 0 -71 -16.5t-55 -30.5l-18 -11l-25 39q42 27 82 46.5
t88 19.5q32 0 62.5 -10.5t54.5 -30.5t38.5 -48.5t14.5 -65.5q0 -33 -9.5 -57t-22.5 -40.5t-26 -25.5l-19 -13q16 -6 34.5 -19t35 -32.5t27.5 -46.5t11 -61q0 -42 -15.5 -76.5t-43 -58.5t-64 -37t-78.5 -13q-23 0 -42.5 3t-40 9.5t-44.5 15.5l-55 21z" />
    <glyph glyph-name="four" unicode="4" 
d="M480 194v-48h-90v-99h90v-47h-273v47h135v99h-268v58l248 417h68v-427h90zM342 563h-2l-217 -369h219v369z" />
    <glyph glyph-name="five" unicode="5" 
d="M460 558h-289v-202q23 10 52 19t69 9q45 0 81.5 -15.5t62 -42t39.5 -62.5t14 -76q0 -30 -10 -65.5t-34.5 -65.5t-65 -50.5t-100.5 -20.5q-53 0 -95.5 12.5t-92.5 32.5l18 45l29.5 -12t39 -13t46.5 -10.5t51 -4.5q41 0 71 11.5t50 32t29.5 47.5t9.5 59q0 30 -10 57.5
t-29.5 48.5t-47.5 33t-64 12q-38 0 -70 -12.5t-63 -35.5l-25 14v303h334v-48z" />
    <glyph glyph-name="six" unicode="6" 
d="M486 571q-56 3 -110 -1t-99 -30t-76.5 -83t-42.5 -160l2 -2l17.5 20t29.5 25t42 21t56 9q39 0 71.5 -16t55.5 -43t35.5 -62t12.5 -73t-13 -72.5t-36.5 -60.5t-56 -41.5t-71.5 -15.5q-30 0 -65.5 13t-65.5 44.5t-50 84t-20 132.5q0 24 5 71t23.5 99.5t56.5 100t104 71.5
q11 4 26.5 8t38 7t54.5 4.5t76 -0.5v-50zM158 212q3 -52 19 -86t37.5 -54t45.5 -28t43 -8q24 0 46 9.5t39.5 27.5t27.5 44t10 59q0 28 -9 54.5t-24.5 46t-38 31.5t-49.5 12q-8 0 -26 -2.5t-39.5 -13t-43.5 -32t-38 -60.5z" />
    <glyph glyph-name="seven" unicode="7" 
d="M488 559l-194 -559h-58l202 559h-294v-92h-49v139h393v-47z" />
    <glyph glyph-name="eight" unicode="8" 
d="M208 309q-10 5 -25.5 17t-29.5 30.5t-24.5 43.5t-10.5 57q0 34 14 63.5t38.5 52t57.5 35.5t72 13t72 -13t57.5 -35.5t38.5 -52t14 -63.5q0 -40 -21.5 -81t-68.5 -67q27 -12 46 -30t31.5 -38.5t18 -42t5.5 -40.5q0 -28 -11.5 -58.5t-35.5 -55.5t-60.5 -41.5t-85.5 -16.5
q-50 0 -86 16.5t-60 41.5t-35.5 55.5t-11.5 58.5q0 47 28 89t73 62zM300 574q-35 0 -59.5 -11.5t-39.5 -29.5t-22 -38.5t-7 -38.5q0 -23 9 -45t25.5 -39.5t40.5 -28.5t53 -11q24 0 47 8.5t41 25t29 39t11 51.5q0 30 -11.5 52t-29.5 36.5t-41 22t-46 7.5zM300 285
q-35 0 -61 -11.5t-43.5 -30t-26 -41t-8.5 -44.5q0 -25 10.5 -47.5t29.5 -40t44 -27.5t55 -10t55 10t44 27.5t29.5 40t10.5 47.5q0 22 -9 45t-26.5 41t-43.5 29.5t-60 11.5z" />
    <glyph glyph-name="nine" unicode="9" 
d="M81 36q57 -3 110.5 1t98 30t76 83t43.5 160l-2 2q-6 -8 -17.5 -20.5t-29.5 -24.5t-42.5 -21t-55.5 -9q-39 0 -71.5 16t-55.5 43t-35.5 62t-12.5 73t13 72.5t36.5 60.5t56 41.5t71.5 15.5q30 0 65.5 -13t65.5 -44.5t50 -84.5t20 -132q0 -24 -5 -71t-23.5 -99.5t-56.5 -100
t-104 -71.5q-11 -4 -26.5 -8.5t-38 -7.5t-54.5 -4t-76 1v50zM409 395q-3 52 -19 86t-37.5 54t-45.5 28t-43 8q-24 0 -46 -9.5t-39.5 -27.5t-27.5 -44t-10 -59q0 -29 9 -55t24.5 -45.5t38 -31.5t49.5 -12q7 0 25 2t40 12.5t44 32.5t38 61z" />
    <glyph glyph-name="colon" unicode=":" 
d="M300 390q13 0 27 -4.5t25 -13.5t18 -21.5t7 -28.5t-7 -28.5t-18 -21.5t-25 -13.5t-27 -4.5t-26.5 4.5t-25 13t-18.5 21t-7 29.5q0 16 7 28.5t18 21.5t24.5 13.5t27.5 4.5zM300 119q13 0 27 -4.5t25 -13.5t18 -21.5t7 -28.5t-7 -28.5t-18 -21.5t-25 -13.5t-27 -4.5
t-26.5 4.5t-25 13t-18.5 21t-7 29.5q0 16 7 28.5t18 21.5t24.5 13.5t27.5 4.5z" />
    <glyph glyph-name="semicolon" unicode=";" 
d="M252 -108h-71l77 242h103zM300 390q13 0 27 -4.5t25 -13.5t18 -21.5t7 -28.5t-7 -28.5t-18 -21.5t-25 -13.5t-27 -4.5t-26.5 4.5t-25 13t-18.5 21t-7 29.5q0 16 7 28.5t18 21.5t24.5 13.5t27.5 4.5z" />
    <glyph glyph-name="less" unicode="&#x3c;" 
d="M526 532l20 -45l-381 -179l381 -175l-20 -44l-472 219z" />
    <glyph glyph-name="equal" unicode="=" 
d="M536 369h-472v50h472v-50zM536 188h-472v50h472v-50z" />
    <glyph glyph-name="greater" unicode="&#x3e;" 
d="M74 84l-20 45l381 179l-381 175l20 44l472 -219z" />
    <glyph glyph-name="question" unicode="?" 
d="M120 537l46.5 15.5t39 11t37 6.5t39.5 2q48 0 84 -14t60 -36.5t36 -52.5t12 -61q0 -44 -19 -73.5t-46.5 -48.5t-59 -30t-56.5 -18v-60h-49v97q2 1 8.5 2.5t11.5 2.5q25 6 53 14.5t51 23t38.5 37t15.5 56.5q0 15 -6 34.5t-21.5 37t-42.5 29t-69 11.5q-37 0 -62.5 -7
t-50.5 -17v-64h-50v102zM266 106q29 0 49 -17.5t20 -43.5q0 -27 -20.5 -44.5t-48.5 -17.5t-48.5 17.5t-20.5 44.5q0 26 20 43.5t49 17.5z" />
    <glyph glyph-name="at" unicode="@" 
d="M533 57q-1 0 -3 -1.5t-3 -1.5q-51 -29 -112 -48.5t-127 -19.5t-114 23t-79.5 61t-47 87.5t-15.5 102.5q0 60 18.5 112t53.5 90.5t87 61t118 22.5q55 0 102 -16.5t81.5 -48.5t54.5 -78.5t20 -105.5q0 -42 -10.5 -77.5t-30 -60.5t-46 -39t-58.5 -14q-11 0 -17.5 1t-13 4.5
t-15 9.5l-22.5 16q-8 6 -9.5 10.5t-1.5 9.5q-6 -7 -14.5 -16t-20.5 -17.5t-27 -14t-33 -5.5q-9 0 -22.5 4.5t-26 15.5t-21 31t-8.5 50q0 33 11.5 68.5t31.5 64.5t46.5 47.5t57.5 18.5q25 0 37.5 -14.5t19.5 -25.5l9 35h52l-43 -156q0 -4 -5 -21t-5 -29q0 -11 11.5 -25.5
t34.5 -14.5q19 0 35.5 12t29 32.5t19.5 47.5t7 58q0 49 -16.5 86t-45.5 61.5t-67.5 36.5t-82.5 12q-60 0 -102 -21t-69 -54.5t-39.5 -76.5t-12.5 -88q0 -40 11 -80t35.5 -72.5t64 -53t96.5 -20.5q63 0 113.5 18t85.5 37l15 8q1 0 3.5 1.5t3.5 1.5zM253 153q19 0 36 15.5
t30 38t20.5 49t7.5 48.5q0 23 -11 36.5t-25 13.5q-17 0 -33.5 -15.5t-29 -38.5t-20 -50t-7.5 -49q0 -7 1.5 -15t5.5 -15.5t10 -12.5t15 -5z" />
    <glyph glyph-name="A" unicode="A" 
d="M539 47h51v-47h-205v47h102l-57 139h-261l-56 -139h102v-47h-205v47h53l193 469h-143v47h215zM187 230h226l-113 274z" />
    <glyph glyph-name="B" unicode="B" 
d="M318 563q59 0 91 -11.5t53 -30.5t34 -45t13 -58q0 -27 -8.5 -48t-21 -36t-26 -25t-23.5 -15q54 -16 84 -51t30 -89q0 -42 -19.5 -75.5t-51.5 -50.5q-16 -9 -31 -14.5t-33.5 -8.5t-42 -4t-57.5 -1h-264v47h83v469h-83v47h273zM178 316h133q49 0 78 12t44 28.5t19.5 34
t4.5 29.5q0 36 -19 55.5t-43.5 28.5t-47.5 10.5t-31 1.5h-138v-200zM178 47h129q27 0 59 1.5t60 11.5t47 31.5t19 62.5q0 31 -14.5 53t-39.5 35.5t-60 20t-75 6.5h-125v-222z" />
    <glyph glyph-name="C" unicode="C" 
d="M594 99q-42 -40 -82 -63t-74.5 -35t-61.5 -15t-42 -3q-66 0 -116.5 24.5t-84.5 66.5t-51.5 97t-17.5 117q0 65 20.5 119t56.5 92.5t85 59.5t106 21q30 0 52.5 -5.5t38.5 -13t25 -14.5t12 -10q10 -8 12.5 -9.5t4.5 -1.5q3 0 5.5 5t4 12.5l3 15.5t2.5 15h37
q-2 -63 1.5 -107t8.5 -84l-47 -8q-3 17 -9.5 43.5t-23.5 52.5q-14 21 -44 40t-85 19q-50 0 -89 -19t-66.5 -52t-42 -77t-14.5 -93q0 -38 9.5 -82.5t34 -83t66 -64.5t106.5 -26q68 0 123 29.5t104 72.5z" />
    <glyph glyph-name="D" unicode="D" 
d="M284 563q33 0 61.5 -2.5t53 -10t47 -22.5t43.5 -40q22 -27 34.5 -56t18.5 -56t7.5 -49t1.5 -35q0 -45 -7 -81.5t-18.5 -65t-26.5 -50.5t-31 -37q-23 -22 -50 -33.5t-53 -17t-48.5 -6.5t-36.5 -1h-246v47h79v469h-79v47h250zM163 47h117q13 0 31 0.5t38.5 5t41.5 14
t39 27.5q27 27 47 76.5t20 118.5q-1 47 -9.5 80t-20.5 56t-25.5 37t-24.5 23q-26 20 -57.5 25.5t-74.5 5.5h-122v-469z" />
    <glyph glyph-name="E" unicode="E" 
d="M536 379h-46l-10 137h-288v-195h162v73h46v-192h-46v72h-162v-227h298l5 137h46v-184h-484v47h85v469h-85v47h475z" />
    <glyph glyph-name="F" unicode="F" 
d="M546 383h-45l-12 133h-286v-195h162v73h46v-192h-46v72h-162v-227h130v-47h-261v47h81v469h-81v47h469z" />
    <glyph glyph-name="G" unicode="G" 
d="M522 574q-1 -3 -1.5 -10t-0.5 -9q0 -4 -0.5 -13.5t-1.5 -21.5t-1.5 -24t-0.5 -22q0 -25 2 -49t4 -42l-43 -8q-3 17 -9.5 43.5t-24 51t-49 42.5t-84.5 18q-44 0 -82 -18.5t-66.5 -51.5t-45 -79t-16.5 -101q0 -51 13.5 -96t41.5 -78.5t70 -53t99 -19.5q25 0 59.5 6t93.5 26
v135h-148v47h247v-47h-48v-168q-113 -49 -205 -49q-77 0 -130 27.5t-85.5 71t-47 95.5t-14.5 102q0 58 17.5 112t51.5 96t83.5 67.5t113.5 25.5q36 0 66 -10t59 -33q8 -8 12 -10t8 -2q8 0 9.5 8t5.5 41h48z" />
    <glyph glyph-name="H" unicode="H" 
d="M239 516h-75v-202h272v202h-75v47h201v-47h-76v-469h76v-47h-201v47h75v220h-272v-220h75v-47h-200v47h75v469h-75v47h200v-47z" />
    <glyph glyph-name="I" unicode="I" 
d="M500 516h-175v-469h175v-47h-400v47h175v469h-175v47h400v-47z" />
    <glyph glyph-name="J" unicode="J" 
d="M579 516h-127v-312q0 -42 -4.5 -84t-24.5 -73q-12 -17 -29 -29.5t-35 -20t-36.5 -11t-34.5 -3.5q-60 0 -109.5 18.5t-91.5 37.5l-19 8l-9 216h49l4 -97q1 -38 9 -61t38 -41q29 -18 60.5 -24.5t57.5 -6.5q46 0 71.5 15.5t37.5 40t14 55t2 60.5v312h-197v47h374v-47z" />
    <glyph glyph-name="K" unicode="K" 
d="M279 516h-85v-245l252 245h-82v47h195v-47h-45l-217 -211q19 -10 41.5 -26t47.5 -45t52.5 -74t57.5 -113h92v-47h-128q-16 42 -35 79.5t-30 55.5q-29 50 -58.5 82t-73.5 54l-69 -66v-158h85v-47h-219v47h84v469h-84v47h219v-47z" />
    <glyph glyph-name="L" unicode="L" 
d="M332 516h-123v-469h283l14 202h47l-11 -249h-483v47h100v469h-100v47h273v-47z" />
    <glyph glyph-name="M" unicode="M" 
d="M289 224h18l124 339h161v-47h-71l17 -469h61v-47h-212v47h107l-15 469h-18l-140 -372h-52l-130 372h-18l-15 -469h107v-47h-212v47h61l17 469h-71v47h167z" />
    <glyph glyph-name="N" unicode="N" 
d="M462 42h18v474h-112v47h223v-47h-65v-529h-89l-268 529h-17v-469h113v-47h-237v47h78v469h-78v47h171z" />
    <glyph glyph-name="O" unicode="O" 
d="M43 281q0 62 18 116.5t51.5 95t81 64t106.5 23.5q60 0 107.5 -24t81 -65t51 -95t17.5 -115q0 -60 -18 -114.5t-51 -95t-80.5 -64.5t-107.5 -24q-59 0 -106.5 23.5t-81 64t-51.5 94.5t-18 116zM97 282q0 -45 13 -89.5t38.5 -80t63.5 -57.5t88 -22q49 0 87 21.5t64 56.5
t39 79.5t13 91.5t-13.5 92t-39.5 79.5t-63.5 55.5t-86.5 21q-52 0 -90 -22.5t-63 -58t-37.5 -80t-12.5 -87.5z" />
    <glyph glyph-name="P" unicode="P" 
d="M300 563q54 0 87.5 -5.5t60.5 -20.5q38 -21 62 -62t24 -87q0 -21 -5.5 -41.5t-15 -38.5t-23 -33t-29.5 -24q-18 -11 -35.5 -17t-39.5 -9t-52.5 -3.5t-75.5 -0.5h-56v-174h147v-47h-278v47h81v469h-81v47h229zM202 268h57q61 0 107 3t72 24q14 11 28 35t14 60
q0 41 -20 68.5t-40 37.5q-9 5 -19 8.5t-23.5 6t-32 4t-45.5 1.5h-98v-248z" />
    <glyph glyph-name="Q" unicode="Q" 
d="M547 -88q-17 -12 -41.5 -26t-59.5 -14q-23 0 -41 6.5t-44 17.5t-42.5 15.5t-35.5 4.5q-33 0 -58 -10.5t-60 -30.5l-23 37q18 12 33 25.5t26 25t17.5 20t8.5 10.5q-42 13 -76 40.5t-58 65t-37 84t-13 98.5q0 71 21 126.5t56.5 94t82 58.5t96.5 20q54 0 101 -21.5t82 -61
t55 -95.5t20 -125q0 -51 -13.5 -103.5t-45.5 -95.5t-84.5 -69.5t-130.5 -25.5q-4 -5 -6 -7l-10 -10q-1 -2 -2 -3t0 1h-2v-2q5 0 9.5 0.5t12.5 0.5q18 0 40 -4.5t48 -15.5l28.5 -11l17.5 -6.5t12 -3t11 -0.5q25 0 42.5 8.5t31.5 17.5zM97 282q0 -45 13 -89.5t38.5 -80
t63.5 -57.5t88 -22q49 0 87 21.5t64 56.5t39 79.5t13 91.5t-13.5 92t-39.5 79.5t-63.5 55.5t-86.5 21q-52 0 -90 -22.5t-63 -58t-37.5 -80t-12.5 -87.5z" />
    <glyph glyph-name="R" unicode="R" 
d="M302 563q48 0 79 -4.5t57 -22.5t43.5 -52.5t17.5 -71.5q0 -22 -7.5 -47t-25.5 -47t-47.5 -38.5t-72.5 -20.5q13 -14 31.5 -40l38 -56l39 -60.5l34.5 -55.5h88v-47h-125q-12 25 -26.5 52l-28 50.5l-25 42l-16.5 26.5l-26 39.5t-22.5 27t-25 15.5t-33.5 5h-72v-211h89v-47
h-221v47h82v469h-82v47h257zM177 305h93q20 0 50 1.5t57.5 11.5t47.5 32.5t20 64.5q0 25 -11 47.5t-31 36.5q-6 4 -12.5 7t-17.5 5t-28.5 3.5t-44.5 1.5h-123v-211z" />
    <glyph glyph-name="S" unicode="S" 
d="M507 574q-5 -23 -7 -38t-2 -34q0 -17 2 -46.5t7 -72.5l-45 -8q-2 16 -8 42t-23 52q-6 9 -15.5 19.5t-24.5 19.5t-36 15.5t-51 6.5q-39 0 -67.5 -11.5t-47 -29t-27.5 -38t-9 -39.5q0 -35 17 -55t41 -31t50 -15t44 -6q56 -6 88 -12.5t58 -23.5t44 -45t18 -71
q0 -44 -18.5 -76t-47.5 -53t-65.5 -31t-73.5 -10q-30 0 -52.5 5t-39 12.5t-27.5 15t-18 13.5q-1 1 -3.5 2.5t-4.5 1.5q-3 0 -5.5 -3t-4.5 -5q-2 -7 -3.5 -13.5t-5.5 -31.5h-45q5 24 7 46t2 33v10q0 8 -1 21.5t-2.5 29l-3 30t-2.5 25.5h45q4 -19 10.5 -43t23.5 -46
q14 -18 41.5 -35.5t81.5 -17.5q46 0 76.5 11t48.5 28t25.5 37.5t7.5 39.5q0 33 -14.5 52.5t-35.5 30t-45.5 14.5t-43.5 6q-29 3 -67.5 9t-72.5 22t-57.5 45.5t-23.5 79.5q0 34 15 65t41.5 55t63 38t79.5 14q27 0 48 -5t36 -11.5t25 -13.5t15 -11q12 -9 16 -11.5t7 -2.5
q7 0 8.5 6t6.5 30q1 5 1.5 8t0.5 5h45z" />
    <glyph glyph-name="T" unicode="T" 
d="M557 327l-48 -6l-14 195h-170v-469h121v-47h-292v47h121v469h-170l-14 -195l-48 6l17 236h480z" />
    <glyph glyph-name="U" unicode="U" 
d="M248 516h-102v-282q0 -31 2.5 -66t16.5 -64q14 -30 45 -50.5t89 -20.5q59 0 90.5 17.5t45.5 45.5q15 27 17.5 60.5t2.5 67.5v292h-102v47h224v-47h-72v-292q0 -38 -2.5 -64.5t-7.5 -46t-11.5 -33t-14.5 -24.5q-8 -12 -23 -24.5t-36.5 -23.5t-49 -18t-60.5 -7
q-18 0 -40.5 3t-45.5 12t-45 24t-39 39q-13 18 -20 41t-10 46.5t-3.5 46t-0.5 39.5v282h-72v47h224v-47z" />
    <glyph glyph-name="V" unicode="V" 
d="M220 516h-94l177 -460l180 460h-102v47h213v-47h-63l-198 -516h-62l-196 516h-69v47h214v-47z" />
    <glyph glyph-name="W" unicode="W" 
d="M199 516h-101l56 -420h2l129 364h34l126 -364h2l58 420h-102v47h195v-47h-46l-75 -516h-50l-127 364h-2l-129 -364h-50l-70 516h-47v47h197v-47z" />
    <glyph glyph-name="X" unicode="X" 
d="M246 516h-82l137 -183l140 183h-76v47h183v-47h-51l-168 -220l186 -249h52v-47h-202v47h90l-154 212l-161 -212h106v-47h-213v47h51l189 249l-168 220h-53v47h194v-47z" />
    <glyph glyph-name="Y" unicode="Y" 
d="M228 516h-76l151 -248l149 248h-78v47h194v-47h-63l-179 -298v-171h118v-47h-287v47h119v171l-181 298h-63v47h196v-47z" />
    <glyph glyph-name="Z" unicode="Z" 
d="M493 522l-349 -475h325v162h47v-209h-432v47l345 469h-291v-146h-47v193h402v-41z" />
    <glyph glyph-name="bracketleft" unicode="[" 
d="M485 604h-126v-648h126v-50h-176v748h176v-50z" />
    <glyph glyph-name="backslash" unicode="\" 
d="M468 -139l-375 825l43 19l375 -824z" />
    <glyph glyph-name="bracketright" unicode="]" 
d="M115 -44h126v648h-126v50h176v-748h-176v50z" />
    <glyph glyph-name="asciicircum" unicode="^" 
d="M73 154l190 409h74l190 -409h-64l-163 349l-163 -349h-64z" />
    <glyph glyph-name="underscore" unicode="_" 
d="M648 -125h-696v50h696v-50z" />
    <glyph glyph-name="grave" unicode="`" 
d="M374 503h-52l-132 115h107z" />
    <glyph glyph-name="a" unicode="a" 
d="M550 47v-47h-139v72q-15 -14 -35.5 -29.5t-44.5 -28t-52 -20.5t-59 -8q-38 0 -67.5 12.5t-50.5 32.5t-32 45t-11 51q0 20 10 46t34 49.5t65 39.5t103 16q3 0 17 -0.5t33.5 -2t43 -4t46.5 -6.5v31q0 12 -2 30t-13 35t-36 29t-70 12q-27 0 -69 -8t-102 -34l-19 45
q32 14 81.5 29.5t109.5 15.5q64 0 98.5 -18.5t50.5 -44t18.5 -51t2.5 -40.5v-249h89zM411 219q-17 3 -52.5 7t-77.5 4q-62 0 -96 -14.5t-50 -33t-19 -35.5t-3 -21q0 -19 8.5 -35.5t23.5 -29t34 -20t40 -7.5q12 0 31.5 3t44.5 13.5t54.5 31.5t61.5 57v80z" />
    <glyph glyph-name="b" unicode="b" 
d="M147 346h2q31 42 73.5 65t97.5 23q46 0 87 -17.5t71.5 -47.5t48 -71t17.5 -87q0 -42 -16 -81.5t-45 -70.5t-69.5 -50t-89.5 -19q-41 0 -70 10t-50 23.5t-34.5 28.5l-22.5 25v-77h-130v47h80v531l-92 -5v47l142 9v-283zM148 213q0 -35 13.5 -66.5t36.5 -55t55 -37.5
t70 -14q37 0 68 14t53 38t34 55t12 65t-12.5 65.5t-35 55t-53.5 37.5t-67 14q-37 0 -68.5 -14t-55 -37.5t-37 -54.5t-13.5 -65z" />
    <glyph glyph-name="c" unicode="c" 
d="M523 438l-5.5 -40.5t-3.5 -51.5q0 -27 3 -66l-46 -7l-4 17q-3 10 -9 28t-21.5 35t-44.5 29.5t-77 12.5t-84 -15.5t-59.5 -41t-35 -57.5t-11.5 -64q0 -31 10.5 -63t33 -58.5t57.5 -43t85 -16.5q54 0 105.5 23.5t106.5 61.5l26 -38q-16 -12 -40.5 -28.5t-55.5 -32t-68 -26
t-79 -10.5q-53 0 -96 18t-74 49.5t-48 73t-17 89.5q0 40 14.5 81t44 74t74.5 53.5t106 20.5q29 0 65.5 -8.5t81.5 -44.5q3 -3 4 -3q4 0 6.5 8.5t3.5 13.5q2 13 6 32z" />
    <glyph glyph-name="d" unicode="d" 
d="M496 47h85v-47h-135v74h-2q-23 -32 -49.5 -49t-51 -25t-43 -9t-25.5 -1q-47 0 -87.5 18t-70.5 48t-47 70.5t-17 85.5q0 51 19 92t50.5 70t70.5 44.5t80 15.5q48 0 95.5 -22t75.5 -64h2v225l-161 -10l-3 45l214 19v-580zM444 210q0 30 -11 60.5t-32 56t-52.5 41.5
t-73.5 16q-33 0 -63.5 -12t-53.5 -34.5t-37 -54t-14 -70.5q0 -38 13.5 -70t36.5 -55t53.5 -35.5t64.5 -12.5t64.5 13t54 35.5t37 53.5t13.5 68z" />
    <glyph glyph-name="e" unicode="e" 
d="M559 57q-20 -11 -47 -23.5t-58.5 -23t-66.5 -17.5t-70 -7q-61 0 -106.5 19t-76 50.5t-45.5 73t-15 85.5q0 46 16.5 88t47 74t74.5 50.5t99 18.5q57 0 99.5 -18t71 -47t42.5 -64.5t14 -69.5q0 -12 -1 -26t-1 -19h-408q1 -20 9 -48.5t29 -54.5t57.5 -45t94.5 -19
q31 0 63.5 7.5t61.5 18t53 22l40 19.5zM484 248q0 24 -10.5 50.5t-31.5 48.5t-53.5 36t-77.5 14q-50 0 -83.5 -17t-54.5 -40.5t-31.5 -49t-13.5 -42.5h356z" />
    <glyph glyph-name="f" unicode="f" 
d="M201 474q0 31 4.5 58.5t20 48t47 32.5t85.5 12q42 0 79 -5t69 -11l-21 -50q-33 8 -70.5 12t-69.5 4q-35 0 -54 -8.5t-28 -23t-10.5 -33.5t-1.5 -39v-53h213v-47h-213v-324h213v-47h-367v47h104v324h-104v47h104v56z" />
    <glyph glyph-name="g" unicode="g" 
d="M553 383h-81v-353q0 -46 -10.5 -81t-37 -58.5t-70.5 -35.5t-111 -12h-63v47q63 0 108.5 2.5t75 16t44 42t14.5 79.5v58h-2q-5 -8 -18 -21t-33 -26t-47.5 -22t-60.5 -9q-46 0 -85 17t-67.5 46.5t-45 68t-16.5 80.5q0 46 18 85t47.5 67t68 44t80.5 16q4 0 21.5 -1t41 -8.5
t49.5 -23t47 -44.5h2v73h131v-47zM422 220q0 37 -13 67.5t-35 52t-51 33t-60 11.5q-32 0 -61 -12t-51.5 -33t-36 -50.5t-13.5 -65.5q0 -35 13 -64.5t35 -51.5t51.5 -34.5t62.5 -12.5q35 0 64.5 13.5t50.5 35.5t32.5 51t11.5 60z" />
    <glyph glyph-name="h" unicode="h" 
d="M172 374q16 12 35 24.5t40 23t45 17t51 6.5q34 0 61.5 -12t47 -34t29.5 -52.5t10 -66.5v-233h84v-47h-219v47h85v229q0 54 -25.5 86.5t-70.5 32.5q-24 0 -47 -7t-45.5 -18.5t-42.5 -25.5t-38 -29v-268h79v-47h-213v47h84v531l-93 -8l-4 47l147 12v-255z" />
    <glyph glyph-name="i" unicode="i" 
d="M327 47h173v-47h-399v47h176v336h-147v47h197v-383zM327 656v-119h-72v119h72z" />
    <glyph glyph-name="j" unicode="j" 
d="M390 40q0 -20 -3 -52.5t-20.5 -63t-55.5 -53t-108 -22.5q-40 0 -73 5.5t-62 11.5l11 48q20 -5 54.5 -10t72.5 -5q50 0 77.5 15t40 37.5t14.5 48.5t2 47v336h-255v47h305v-390zM370 656v-119h-72v119h72z" />
    <glyph glyph-name="k" unicode="k" 
d="M185 239l187 142v2h-56v47h209v-47h-78l-168 -129l60 -56.5l56.5 -57t48 -52l35.5 -41.5h84v-47h-208v47h64l-31 35.5t-37 38l-47.5 46l-62.5 59.5l-56 -43v-183h-133v47h83v530l-95 -8l-4 47l149 13v-390z" />
    <glyph glyph-name="l" unicode="l" 
d="M325 47h174v-47h-398v47h174v516l-163 -12l-5 46l218 14v-564z" />
    <glyph glyph-name="m" unicode="m" 
d="M114 395l13 11q1 1 8 6.5t18 12t26.5 11.5t33.5 5q32 0 59 -16.5t41 -46.5q22 26 50.5 44.5t63.5 18.5q26 0 51 -11.5t38 -31.5q7 -11 12 -21.5t8 -24t4.5 -33t1.5 -47.5v-225h57v-47h-107v272q0 21 -1 42t-7 38.5t-19 28t-37 10.5q-21 0 -45.5 -13.5t-52.5 -52.5v-278
h62v-47h-112v276q0 16 -1 36.5t-7 37.5t-19.5 29t-38.5 12q-18 0 -33 -6t-27 -14.5t-21 -18t-15 -17.5v-288h68v-47h-186v47h68v336h-68v47h114v-35z" />
    <glyph glyph-name="n" unicode="n" 
d="M166 374q16 12 35 24.5t40.5 23t45.5 17t51 6.5q34 0 61.5 -12t47 -34t30 -52.5t10.5 -66.5v-233h80v-47h-216v47h86v229q0 55 -26.5 87t-71.5 32q-12 0 -28 -2.5t-37 -11t-47.5 -24t-60.5 -42.5v-268h84v-47h-216v47h82v336h-82v47h132v-56z" />
    <glyph glyph-name="o" unicode="o" 
d="M52 218q0 45 16 87t47 74t77.5 51.5t107.5 19.5q63 0 109.5 -20t77 -53t46 -74.5t15.5 -84.5t-15.5 -84.5t-46 -74.5t-77 -53t-109.5 -20q-61 0 -107.5 19.5t-77.5 52t-47 74t-16 86.5zM106 218q0 -35 12.5 -68t37 -58.5t61 -40.5t83.5 -15q48 0 84.5 15.5t60.5 41
t36.5 58t12.5 67.5q0 34 -12.5 67t-36.5 58.5t-60.5 41t-84.5 15.5q-47 0 -83 -15t-61 -40.5t-37.5 -58t-12.5 -68.5z" />
    <glyph glyph-name="p" unicode="p" 
d="M151 359h2q6 9 18.5 23t33.5 27.5t50.5 23.5t69.5 10q51 0 92 -19t70.5 -50.5t45 -71.5t15.5 -83q0 -50 -19.5 -91.5t-50.5 -71.5t-71 -46.5t-80 -16.5q-6 0 -24 1.5t-43 9.5t-53 25.5t-54 49.5h-2v-189h149v-47h-281v47h82v493h-82v47h132v-71zM147 222q0 -44 17 -77.5
t43 -56t57.5 -34t60.5 -11.5q34 0 64.5 13.5t53.5 37t37 56t14 70.5q0 31 -10.5 62t-31.5 55.5t-52.5 40t-73.5 15.5q-39 0 -72 -14t-56.5 -37t-37 -54.5t-13.5 -65.5z" />
    <glyph glyph-name="q" unicode="q" 
d="M499 383v-493h82v-47h-281v47h149v189h-2q-26 -32 -54 -49.5t-53 -25.5t-43 -9.5t-24 -1.5q-41 0 -80.5 16.5t-70.5 46.5t-50.5 71.5t-19.5 91.5q0 43 15.5 83t45 71.5t70.5 50.5t92 19q40 0 69.5 -10t50.5 -23.5t33.5 -27.5t18.5 -23h2v71h132v-47h-82zM453 222
q0 34 -13.5 65.5t-37 54.5t-56.5 37t-72 14q-42 0 -73.5 -15.5t-52.5 -40t-31.5 -55.5t-10.5 -62q0 -38 13.5 -70.5t37 -56t54 -37t64.5 -13.5q29 0 60.5 11.5t57.5 34t43 56t17 77.5z" />
    <glyph glyph-name="r" unicode="r" 
d="M249 330l38 37t46.5 37t56 28.5t66.5 11.5q23 0 40.5 -5t31 -13t23 -17.5t17.5 -19.5l-53 -39q-1 1 -2.5 3t-1.5 4l-8.5 12.5t-11.5 12t-17.5 9t-25.5 3.5q-33 0 -63.5 -14.5t-56 -35t-46 -42.5l-33.5 -36v-219h190v-47h-364v47h124v336h-116v47h166v-100z" />
    <glyph glyph-name="s" unicode="s" 
d="M482 443q-3 -16 -6 -36.5t-3 -49.5q0 -21 1.5 -35.5t3.5 -27.5l-44 -5q-3 15 -8.5 33t-21 33.5t-45.5 26.5t-82 11q-60 0 -92 -21.5t-32 -52.5q0 -27 15.5 -42.5t43.5 -24t65.5 -11.5t81.5 -5q9 0 32.5 -3t48.5 -14t44.5 -33.5t19.5 -61.5q0 -36 -17.5 -62.5t-45.5 -43.5
t-61.5 -25t-66.5 -8q-27 0 -50 4.5t-42 11.5t-32.5 14l-22.5 12l-2 1q-1 1 -3 1q-7 0 -11 -12.5l-9 -29.5h-44l4 25.5t2 37.5q0 32 -2 57t-4 42l44 5q2 -13 8 -33t22.5 -39t47.5 -33t83 -14q15 0 40 3t49 12t41.5 26t17.5 46q0 22 -10.5 35t-29.5 19.5t-45.5 8.5t-57.5 3
q-20 1 -55 4.5t-69 16t-59 38t-25 70.5q0 27 13 50t36 40t56 26.5t72 9.5q45 0 73 -10.5t42 -18.5q2 -2 9 -5.5t13 -3.5q8 0 12 9.5l6 14.5q2 10 3 13t3 8z" />
    <glyph glyph-name="t" unicode="t" 
d="M223 416h242v-47h-242v-189q0 -28 1.5 -54t11 -46t31 -32t60.5 -12q12 0 27.5 1.5t37.5 6.5t53 15.5t75 28.5l18 -45q-48 -22 -102.5 -39.5t-103.5 -17.5q-48 0 -78 14.5t-46 30.5q-26 26 -30.5 62.5t-4.5 86.5v189h-68v47h68v147h50v-147z" />
    <glyph glyph-name="u" unicode="u" 
d="M164 165q0 -10 1.5 -31.5t11 -43t29.5 -38t58 -16.5q42 0 80.5 21t80.5 66v260h-86v47h136v-383h81v-47h-131v55l-26 -21t-34.5 -22.5t-43.5 -18t-53 -7.5q-47 0 -77 17t-47 43t-23.5 57.5t-6.5 61.5v218h-82v47h132v-265z" />
    <glyph glyph-name="v" unicode="v" 
d="M234 383h-81l150 -325l152 325h-79v47h203v-47h-74l-181 -383h-47l-182 383h-74v47h213v-47z" />
    <glyph glyph-name="w" unicode="w" 
d="M181 383h-83l88 -303h2l98 272h35l99 -276h2l90 307h-84v47h170v-47h-39l-112 -383h-52l-95 258l-93 -258h-49l-113 383h-43v47h179v-47z" />
    <glyph glyph-name="x" unicode="x" 
d="M234 383h-61l125 -125l125 125h-58v47h184v-47h-61l-157 -158l180 -178h63v-47h-203v47h71l-144 146l-145 -146h70v-47h-197v47h62l176 178l-159 158h-64v47h193v-47z" />
    <glyph glyph-name="y" unicode="y" 
d="M211 383h-69l158 -304l174 304h-68v47h183v-47h-58l-280 -489h89v-47h-300v47h154l77 133l-186 356h-61v47h187v-47z" />
    <glyph glyph-name="z" unicode="z" 
d="M496 387l-324 -340h277v92h47v-139h-392v47l321 336h-264v-89h-47v136h382v-43z" />
    <glyph glyph-name="braceleft" unicode="{" 
d="M461 604q-18 0 -38 -1.5t-36.5 -9t-27.5 -22.5t-11 -42q0 -16 2 -32.5t10 -48.5l8 -35q1 -5 3 -18.5t2 -25.5q0 -18 -5 -32t-13 -24.5t-18 -19l-19 -15.5l18.5 -15t18 -18.5t13.5 -24.5t5 -32q0 -12 -2 -25.5t-3 -18.5l-8 -35q-8 -32 -10 -48.5t-2 -33.5q0 -27 11.5 -42
t29 -22t37 -8.5t35.5 -1.5v-48h-40q-16 0 -42 8q-40 13 -61.5 44.5t-21.5 71.5q0 7 1 20t5 30q0 6 3.5 20.5t5.5 20.5q3 16 6 34.5t3 35.5q0 20 -10.5 32t-24.5 18.5t-28.5 9t-21.5 3.5v51q38 4 61.5 19t23.5 46q0 9 -1 19t-2.5 20t-3 17.5t-2.5 11.5q-4 21 -7 34t-4.5 22
t-2.5 16t-1 16q0 50 22 76t50.5 37.5t55.5 12.5t37 1v-48z" />
    <glyph glyph-name="bar" unicode="|" 
d="M274 -185v858h53v-858h-53z" />
    <glyph glyph-name="braceright" unicode="}" 
d="M139 -47q18 0 38 1.5t36.5 9t27.5 22.5t11 42q0 16 -2 32.5t-10 48.5l-8 35q-1 5 -3 18.5t-2 25.5q0 18 5 32t13 24.5t18 19l19 15.5q-18 13 -36.5 33.5t-18.5 56.5q0 12 2 25.5t3 18.5l8 35q8 32 10 48.5t2 33.5q0 27 -12 42t-29 22t-36.5 8.5t-35.5 1.5v48h39
q17 0 43 -8q40 -13 61.5 -44.5t21.5 -71.5q0 -7 -1 -20t-5 -30q0 -6 -3.5 -20.5t-5.5 -20.5q-3 -16 -6 -34.5t-3 -35.5q0 -20 10.5 -32t24.5 -18.5t28 -9t22 -3.5v-51q-38 -4 -61.5 -19t-23.5 -46q0 -9 1 -19t2.5 -20t3 -17.5t2.5 -11.5q4 -21 7 -34t4.5 -22t2.5 -16t1 -16
q0 -50 -22 -76.5t-50.5 -37.5t-55.5 -12t-37 -1v48z" />
    <glyph glyph-name="asciitilde" unicode="~" 
d="M515 349q-6 -11 -16.5 -27t-26 -31t-35.5 -26t-45 -11q-4 0 -9.5 0.5t-15.5 3t-26.5 8t-42.5 16.5l-38 16t-23 9t-15.5 4t-13.5 1q-30 0 -49 -23.5t-40 -59.5l-33 39l21.5 35t26 32.5t32.5 24t42 9.5q22 0 44 -7.5t61 -24.5l33 -13l21 -8t13.5 -4t10.5 -1q6 0 15 2
t20.5 9t24 20t25.5 36q0 2 2 5t3 4z" />
    <glyph glyph-name="exclamdown" unicode="&#xa1;" 
d="M323 240l18 -378h-83l19 378h46zM300 327q-30 0 -49.5 18t-19.5 44t20 43.5t49 17.5t49 -18t20 -44t-20 -43.5t-49 -17.5z" />
    <glyph glyph-name="cent" unicode="&#xa2;" 
d="M332 136q22 4 38.5 8t33 10t35.5 16t46 27l24 -41q-1 0 -3 -1.5t-3 -1.5q-24 -16 -42.5 -26.5t-37 -17.5t-40 -12t-51.5 -10v-144h-49v144q-28 6 -48.5 12.5t-36 15.5t-28 21.5t-24.5 29.5q-15 23 -25 51t-10 64q0 35 11.5 67.5t33 58.5t53.5 44t74 25v136h49v-136
q24 -2 42.5 -8t31 -12.5t20 -13t9.5 -8.5q2 -1 3 -2.5t3 -1.5q3 0 4.5 3.5t3 7.5t1.5 8q1 3 1 4q1 5 1.5 8t0.5 4l47 -5q-3 -18 -6 -39.5t-3 -41.5q0 -10 0.5 -23.5t2.5 -36.5l-47 -6q0 9 -1 21t-5 24.5t-11.5 25t-20.5 21.5q-20 14 -42 19.5t-35 5.5v-294zM283 427
q-45 -10 -69.5 -32.5t-35.5 -46.5t-13 -43.5t-2 -22.5q0 -22 8 -48t26 -49q20 -26 42 -34.5t44 -13.5v290z" />
    <glyph glyph-name="sterling" unicode="&#xa3;" 
d="M187 339q-15 40 -20.5 63t-5.5 46q0 35 14.5 65t39.5 52t57 34.5t68 12.5q38 0 65.5 -8t48.5 -16q2 -1 5.5 -2t5.5 -1t3.5 1.5t4.5 8.5h45q-8 -28 -12.5 -52t-6.5 -60l-45 -5q1 12 1.5 20.5t0.5 12.5q0 6 -2.5 14.5t-10.5 13.5q-11 6 -40 15t-61 9t-57 -10t-41.5 -26.5
t-25 -37t-8.5 -40.5q0 -11 1.5 -20.5t4.5 -22t8 -28.5t13 -39h243v-47h-229q5 -20 7 -36t2 -37q0 -65 -17.5 -106t-35.5 -64l2 -2q14 7 31 13t40 6q18 0 34 -3.5t43 -14.5q22 -8 34 -11.5t23 -3.5q24 0 42.5 10.5t42.5 30.5l29 -36q-7 -7 -17.5 -16t-24 -17t-31 -13.5
t-38.5 -5.5q-14 0 -30 3t-40 12q-28 10 -42 14t-30 4q-20 0 -45.5 -7.5t-67.5 -31.5l-33 43q29 30 46 59.5t25.5 55t10.5 45.5t2 32q0 39 -12 77h-105v47h91z" />
    <glyph glyph-name="currency" unicode="&#xa4;" 
d="M490 61l-81 80q-31 -25 -62 -31t-47 -6q-6 0 -17.5 1t-26 4.5t-31.5 11t-34 20.5l-81 -80l-35 34l82 80q-26 38 -30.5 65t-4.5 35q0 48 12 74t23 41l-82 81l35 33l81 -80q31 24 60 30.5t49 6.5q22 0 39.5 -4t31 -10t23 -12.5l15.5 -10.5l81 80l35 -33l-82 -81
q25 -35 30.5 -62t5.5 -38q0 -48 -13 -74.5t-23 -40.5l82 -80zM432 283q0 25 -9 48.5t-26.5 42t-42 29.5t-54.5 11q-31 0 -55 -11.5t-41 -30t-26 -42t-9 -47.5q0 -26 9 -49.5t25.5 -42t41 -29.5t54.5 -11t55 11t42 29.5t26.5 42t9.5 49.5z" />
    <glyph glyph-name="yen" unicode="&#xa5;" 
d="M446 47v-47h-286v47h119v92h-147v47h147v58h-147v47h147v13l-186 242h-61v47h197v-47h-76l150 -195l147 195h-76v47h194v-47h-60l-181 -242v-13h144v-47h-144v-58h144v-47h-144v-92h119z" />
    <glyph glyph-name="brokenbar" unicode="&#xa6;" 
d="M274 300v373h53v-373h-53zM274 -185v373h53v-373h-53z" />
    <glyph glyph-name="section" unicode="&#xa7;" 
d="M422 430v86h-115q-8 0 -20.5 -1t-24.5 -6.5t-20.5 -17t-8.5 -33.5q0 -20 11 -34.5t25 -25.5l138 -106l33.5 -27t26.5 -26.5t17 -29t6 -34.5q0 -12 -4 -27t-13.5 -29t-25.5 -25t-40 -16q5 -8 12 -22t7 -38q0 -51 -37 -80t-100 -29h-158v144h47v-97h117q13 0 27.5 3.5
t25.5 10.5t18.5 18.5t7.5 28.5q0 14 -7 27.5t-34 33.5l-134 103q-32 25 -53.5 48.5t-21.5 58.5q0 17 6.5 34t17.5 31t25.5 24t31.5 13q-17 19 -20.5 40t-3.5 27q0 32 15 53.5t31 32.5q23 14 50 17t44 3h148v-133h-47zM248 352q-27 -3 -41.5 -12.5t-21.5 -20t-8 -19.5t-1 -11
q0 -13 9 -27t41 -38l136 -105q24 1 38.5 7.5t23 15t11.5 18t3 15.5q0 9 -2.5 17t-9.5 16.5t-19 19t-31 25.5z" />
    <glyph glyph-name="dieresis" unicode="&#xa8;" 
d="M271 621v-108h-72v108h72zM401 621v-108h-72v108h72z" />
    <glyph glyph-name="copyright" unicode="&#xa9;" 
d="M402 342q-2 22 -3.5 37t-6.5 23q-8 13 -29 21.5t-47 8.5q-31 0 -54.5 -11t-39.5 -30t-24 -44t-8 -53q0 -29 8.5 -55.5t24.5 -46.5t38.5 -31.5t51.5 -11.5q24 0 41 7.5t28.5 18.5t19 23t12.5 22l24 -10q-18 -48 -56.5 -70t-82.5 -22q-37 0 -66.5 14t-50.5 37.5t-32 54.5
t-11 66q0 33 11 64t32.5 54.5t54 38t75.5 14.5q25 0 58.5 -6.5t59.5 -15.5v-97h-28zM300 580q60 0 113 -22.5t92 -62t62 -92.5t23 -113t-23 -113t-62 -92.5t-92 -62.5t-113 -23t-112.5 23t-92 62.5t-62.5 92.5t-23 113q0 61 23 114t62.5 92t92.5 61.5t112 22.5zM300 542
q-52 0 -97.5 -19.5t-80 -54t-54.5 -80.5t-20 -99q0 -52 20 -98t54.5 -80t80 -54t97.5 -20t97.5 20t80 54t54.5 80t20 98t-20 98.5t-54 80.5t-80 54t-98 20z" />
    <glyph glyph-name="ordfeminine" unicode="&#xaa;" 
d="M191 555q35 14 57 19.5t45 5.5q91 0 91 -80v-118h43v-36h-81v28q-26 -20 -45.5 -27.5t-42.5 -7.5q-35 0 -60 21.5t-25 53.5q0 36 30 58.5t81 22.5q15 0 27.5 -1t34.5 -4v7q0 25 -12.5 36t-41.5 11q-19 0 -39 -5.5t-48 -17.5zM346 454q-21 3 -33 4t-24 1q-35 0 -56.5 -12
t-21.5 -33q0 -16 14 -27.5t33 -11.5q46 0 88 48v31zM422 266h-244v36h244v-36z" />
    <glyph glyph-name="guillemotleft" unicode="&#xab;" horiz-adv-x="533" 
d="M201 575h95l-147 -226l119 -182q4 -6 14 -15t19 -10v-22q-12 0 -27.5 -6.5t-30.5 -16t-27 -19.5t-16 -17l-60 76l7 12l9 -13l28 29l-128 187zM368 574h94l-146 -226l118 -182q4 -6 14 -15t19 -10v-22q-12 0 -27.5 -6.5t-30 -16t-26.5 -19.5t-16 -17l-51 68l36 36
l-130 186z" />
    <glyph glyph-name="logicalnot" unicode="&#xac;" 
d="M519 169h-50v219h-379v50h429v-269z" />
    <glyph glyph-name="registered" unicode="&#xae;" 
d="M298 466q8 0 27 -1.5t39 -9.5t35 -25.5t15 -48.5q0 -5 -1.5 -16t-8.5 -24.5t-22.5 -26t-43.5 -19.5q16 -11 27 -32t27 -57q8 -18 13.5 -27.5t11.5 -14t14 -5t21 -0.5v-24h-40q-29 0 -42.5 20.5t-26.5 55.5q-10 27 -17 41.5t-15 22t-18.5 9t-28.5 1.5h-18v-100
q0 -13 1 -16.5t6 -6.5q2 -1 14 -2t20 -2v-23h-127v23q1 1 7 1t7 1q18 2 22.5 5t4.5 20v233q0 12 -0.5 15t-5.5 5q-1 1 -7 1q-2 0 -9.5 0.5t-18.5 1.5v25h138zM269 309q45 0 72.5 15t27.5 54q0 23 -9 36t-22 19t-27 7.5t-24 1.5q-28 0 -34.5 -3t-6.5 -18v-112h23zM300 580
q60 0 112.5 -22.5t92 -61.5t62.5 -92t23 -114q0 -60 -23 -112.5t-62 -92t-92 -62.5t-113 -23t-113 23t-92 62.5t-62 92t-23 112.5q0 61 23 114t62.5 92t92.5 61.5t112 22.5zM300 542q-52 0 -97.5 -19.5t-80 -54t-54.5 -80.5t-20 -98t19.5 -97.5t54 -80t80 -54.5t98.5 -20
q52 0 98 20t80.5 54.5t54 80t19.5 97.5q0 53 -20 99t-54.5 80t-80.5 53.5t-97 19.5z" />
    <glyph glyph-name="macron" unicode="&#xaf;" 
d="M470 542h-340v50h340v-50z" />
    <glyph glyph-name="degree" unicode="&#xb0;" 
d="M147 467q0 32 12 60t32.5 49t48.5 33t60 12q33 0 61 -12.5t48.5 -33.5t32 -49t11.5 -59t-12 -58.5t-32.5 -48.5t-48.5 -33t-60 -12t-60 12t-48.5 32.5t-32.5 48t-12 59.5zM202 468q0 -42 28 -70t70 -28q21 0 39 7.5t31 21t20.5 31t7.5 38.5q0 42 -28 70t-70 28
q-21 0 -38.5 -7.5t-31 -20.5t-21 -31t-7.5 -39z" />
    <glyph glyph-name="plusminus" unicode="&#xb1;" 
d="M325 380h209v-50h-209v-196h-50v196h-209v50h209v196h50v-196zM534 31h-468v50h468v-50z" />
    <glyph glyph-name="twosuperior" unicode="&#xb2;" 
d="M406 248h-239v39l9 8l25 22.5l31 28l31 28l25 22.5q25 23 40.5 38.5t23 27.5t10 22.5t2.5 24.5q0 30 -22 51t-53 21q-28 0 -48 -15t-21 -35l1 -12h-42v47q43 55 111 55q24 0 45.5 -9t37.5 -24t25 -35.5t9 -44.5q0 -19 -5 -34.5t-17 -33t-33.5 -38.5l-54.5 -51l-69 -63
h139v57h39v-97z" />
    <glyph glyph-name="threesuperior" unicode="&#xb3;" 
d="M173 579q37 24 59.5 33t47.5 9q45 0 75 -27t30 -69q0 -46 -38 -78q56 -35 56 -94q0 -51 -34.5 -82.5t-88.5 -31.5q-22 0 -41.5 5t-53.5 19l-19 8l16 37q32 -15 55.5 -22t44.5 -7q35 0 57 21t22 53q0 33 -21 50.5t-60 17.5h-24v40q27 1 39 3.5t23 10.5q25 19 25 49
q0 25 -18 41t-45 16q-17 0 -32.5 -5t-38.5 -21l-15 -10z" />
    <glyph glyph-name="acute" unicode="&#xb4;" 
d="M215 503l89 115h107l-143 -115h-53z" />
    <glyph glyph-name="mu" unicode="&#xb5;" 
d="M168 195q0 -24 1 -41t3.5 -29.5t7 -21.5t11.5 -18q19 -25 47 -37t56 -12t59 12t48 34q9 12 14.5 23.5t8.5 24.5t4 29t1 36v193h-82v42h132v-389h83v-41h-132v53h-2l-8 -12q-19 -26 -54 -40.5t-70 -14.5q-18 0 -35 4.5t-31.5 10.5t-24.5 12.5t-14 11.5l-12 12t-12 10v-196
h-49v537h-82v42h132v-235z" />
    <glyph glyph-name="paragraph" unicode="&#xb6;" 
d="M496 -47v-30h-116v30h19v580h-82v-580h19v-30h-126v30h62v308q-29 -2 -59 4t-55 23t-41 47.5t-16 78.5q0 55 17 85.5t43.5 44.5t59 16.5t64.5 2.5h207v-30h-48v-580h52zM272 533q-17 0 -33 -2t-28.5 -10.5t-20.5 -26.5t-8 -51v-60q0 -6 2 -22t11 -32.5t27 -28.5t50 -9
v242z" />
    <glyph glyph-name="periodcentered" unicode="&#xb7;" 
d="M300 371q15 0 28.5 -5t24.5 -14t17.5 -21.5t6.5 -27.5q0 -16 -7 -28.5t-18 -21.5t-25 -13.5t-27 -4.5t-26.5 4.5t-25 13t-18.5 21t-7 29.5q0 16 7 28.5t18 21.5t24.5 13.5t27.5 4.5z" />
    <glyph glyph-name="cedilla" unicode="&#xb8;" 
d="M322 -25q25 -4 39 -13t21 -19t8.5 -18.5t1.5 -11.5q0 -5 -2 -14.5t-9.5 -19t-24 -17t-44.5 -7.5q-37 0 -66.5 6l-43.5 9l7 44q16 -4 43 -9t59 -5h9q8 0 16.5 3t8.5 10q0 14 -21.5 18.5t-50.5 6.5l7 60h45z" />
    <glyph glyph-name="onesuperior" unicode="&#xb9;" 
d="M326 621v-333h100v-40h-243v40h102v283l-91 -40l-16 36l122 54h26z" />
    <glyph glyph-name="ordmasculine" unicode="&#xba;" 
d="M172 459q0 54 35.5 87.5t92.5 33.5t92.5 -33.5t35.5 -87.5t-35.5 -87t-92.5 -33t-92.5 33t-35.5 87zM212 460q0 -38 24.5 -61.5t63.5 -23.5t63.5 23.5t24.5 61.5q0 37 -24.5 60.5t-63.5 23.5t-63.5 -23.5t-24.5 -60.5zM422 266h-244v36h244v-36z" />
    <glyph glyph-name="guillemotright" unicode="&#xbb;" horiz-adv-x="533" 
d="M336 575h-95l147 -226l-119 -182q-4 -6 -14 -15t-19 -10v-22q12 0 27.5 -6.5t30.5 -16t26.5 -19.5t16.5 -17l60 76l-7 12l-9 -13l-28 29l128 187zM169 574h-94l146 -226l-118 -182q-4 -6 -14 -15t-19 -10v-22q12 0 27.5 -6.5t30 -16t26 -19.5t16.5 -17l51 68l-36 36
l130 186z" />
    <glyph glyph-name="onequarter" unicode="&#xbc;" 
d="M588 46v-37h-53v-50h53v-36h-158v36h67v50h-159v40l149 247h48v-250h53zM495 241l-115 -195h117v195h-2zM153 622v-335h76v-38h-191v38h77v288l-73 -30l-16 34l103 43h24zM88 -90l-28 22l510 701l28 -20z" />
    <glyph glyph-name="onehalf" unicode="&#xbd;" 
d="M146 622v-335h76v-38h-191v38h77v288l-73 -30l-16 34l104 43h23zM75 -90l-28 22l509 701l29 -20zM590 -77h-229v39l3.5 3.5t4.5 3.5t14.5 12.5l34.5 31.5l43 41l30.5 29l21 20.5t16.5 17.5q14 17 18.5 31t4.5 31q0 32 -21.5 53t-54.5 21q-26 0 -46.5 -14.5t-20.5 -34.5
q0 -2 0.5 -4.5t0.5 -7.5h-38v45q43 54 106 54q24 0 45 -8.5t36 -23.5t23.5 -35.5t8.5 -44.5q0 -35 -20.5 -68t-74.5 -81l-62 -55l-19 -18h141v57h34v-95z" />
    <glyph glyph-name="threequarters" unicode="&#xbe;" 
d="M502 241l-115 -195h117v195h-2zM595 46v-37h-53v-50h53v-36h-158v36h67v50h-159v40l149 247h48v-250h53zM29 581q36 23 59 32t48 9q22 0 41.5 -7.5t34 -20t22.5 -30t8 -37.5q0 -25 -9.5 -43.5t-30.5 -35.5q58 -33 58 -94q0 -51 -35 -82t-89 -31q-11 0 -20.5 1t-20.5 4
t-24 7.5t-31 11.5l-18 7l15 35q34 -16 56.5 -22t44.5 -6q36 0 59 20.5t23 54.5t-21 53.5t-63 17.5l-22 -1v37q26 1 38.5 3.5t23.5 10.5q26 18 26 51q0 26 -18.5 42t-47.5 16q-17 0 -33 -6t-40 -20l-15 -9zM95 -90l-28 22l510 701l28 -20z" />
    <glyph glyph-name="questiondown" unicode="&#xbf;" 
d="M474 -105l-46.5 -15.5t-39 -11t-37 -6.5t-39.5 -2q-48 0 -84 14t-60 36.5t-36 52t-12 61.5q0 44 19 73.5t46.5 48.5t59 30t56.5 18v60h49v-97q-2 -1 -8.5 -2.5t-11.5 -2.5q-25 -6 -53 -14.5t-51 -23t-38.5 -37t-15.5 -56.5q0 -15 6 -34.5t21.5 -37t42.5 -29t69 -11.5
q37 0 62.5 7t50.5 17v64h50v-102zM329 327q-29 0 -49 17.5t-20 43.5q0 27 20.5 44.5t48.5 17.5t48.5 -17.5t20.5 -44.5q0 -26 -20 -43.5t-49 -17.5z" />
    <glyph glyph-name="Agrave" unicode="&#xc0;" 
d="M539 47h51v-47h-205v47h102l-57 139h-261l-56 -139h102v-47h-205v47h53l193 469h-143v47h215zM187 230h226l-113 274zM374 636h-52l-132 115h107z" />
    <glyph glyph-name="Aacute" unicode="&#xc1;" 
d="M539 47h51v-47h-205v47h102l-57 139h-261l-56 -139h102v-47h-205v47h53l193 469h-143v47h215zM187 230h226l-113 274zM215 636l89 115h107l-143 -115h-53z" />
    <glyph glyph-name="Acircumflex" unicode="&#xc2;" 
d="M539 47h51v-47h-205v47h102l-57 139h-261l-56 -139h102v-47h-205v47h53l193 469h-143v47h215zM187 230h226l-113 274zM428 660l-32 -25l-101 66l-91 -66l-33 24l88 95h77z" />
    <glyph glyph-name="Atilde" unicode="&#xc3;" 
d="M539 47h51v-47h-205v47h102l-57 139h-261l-56 -139h102v-47h-205v47h53l193 469h-143v47h215zM187 230h226l-113 274zM460 739q-2 -2 -2 -7q-12 -42 -39 -63.5t-59 -21.5q-17 0 -32.5 7t-38.5 25q-24 18 -34 23.5t-21 5.5q-20 0 -32 -16t-20 -36q0 -1 -1 -3l-1 -3l-40 14
q14 38 35.5 63.5t58.5 25.5q24 0 41 -10t33 -24q19 -14 31.5 -20.5t23.5 -6.5q13 0 22.5 6.5t16 16t11 19.5t7.5 18z" />
    <glyph glyph-name="Adieresis" unicode="&#xc4;" 
d="M539 47h51v-47h-205v47h102l-57 139h-261l-56 -139h102v-47h-205v47h53l193 469h-143v47h215zM187 230h226l-113 274zM271 754v-108h-72v108h72zM401 754v-108h-72v108h72z" />
    <glyph glyph-name="Aring" unicode="&#xc5;" 
d="M539 47h51v-47h-205v47h102l-57 139h-261l-56 -139h102v-47h-205v47h53l193 469h-143v47h215zM187 230h226l-113 274zM300 775q32 0 54 -22t22 -54t-22 -54t-54 -22t-54 22t-22 54t22 54t54 22zM301 737q-16 0 -27.5 -10t-11.5 -28q0 -16 11.5 -27t27.5 -11t26.5 11
t10.5 27t-10.5 27t-26.5 11z" />
    <glyph glyph-name="AE" unicode="&#xc6;" 
d="M549 383h-45l-9 133h-143v-194h65v73h46v-193h-46v73h-65v-228h152l6 139h46v-186h-254v184h-123l-57 -137h89v-47h-192v47h53l189 469h-103v47h391v-180zM300 504l-104 -273h106v273h-2z" />
    <glyph glyph-name="Ccedilla" unicode="&#xc7;" 
d="M354 -25q10 0 22 -4t22.5 -12t18 -19.5t7.5 -26.5q0 -4 -2 -13.5t-9.5 -19.5t-24 -17.5t-44.5 -7.5q-37 0 -66.5 6l-43.5 9l7 44q20 -5 45 -9.5t59 -4.5h7q8 0 16.5 3t8.5 10q0 14 -21.5 18.5t-50.5 6.5l6 45q-71 7 -118.5 39t-76 76.5t-40.5 95t-12 94.5q0 65 20.5 119
t56.5 92.5t85 59.5t106 21q16 0 47 -4.5t63 -24.5q2 -2 7 -6l10.5 -8.5t10.5 -7.5t7 -3q3 0 5.5 5t4 12.5l3 15.5t2.5 15h37q-2 -63 1.5 -107t8.5 -84l-47 -8q-3 17 -9.5 43.5t-23 51t-47 42.5t-82.5 18q-38 0 -75.5 -14.5t-68 -44t-49.5 -75t-19 -107.5q0 -48 12 -94
t38.5 -82t67.5 -58t98 -22q42 0 78 11.5t64.5 28t49.5 34l35 28.5l33 -36q-51 -48 -111 -79t-129 -37v-8z" />
    <glyph glyph-name="Egrave" unicode="&#xc8;" 
d="M536 379h-46l-10 137h-288v-195h162v73h46v-192h-46v72h-162v-227h298l5 137h46v-184h-484v47h85v469h-85v47h475zM374 636h-52l-132 115h107z" />
    <glyph glyph-name="Eacute" unicode="&#xc9;" 
d="M536 379h-46l-10 137h-288v-195h162v73h46v-192h-46v72h-162v-227h298l5 137h46v-184h-484v47h85v469h-85v47h475zM215 636l89 115h107l-143 -115h-53z" />
    <glyph glyph-name="Ecircumflex" unicode="&#xca;" 
d="M536 379h-46l-10 137h-288v-195h162v73h46v-192h-46v72h-162v-227h298l5 137h46v-184h-484v47h85v469h-85v47h475zM428 660l-32 -25l-101 66l-91 -66l-33 24l88 95h77z" />
    <glyph glyph-name="Edieresis" unicode="&#xcb;" 
d="M536 379h-46l-10 137h-288v-195h162v73h46v-192h-46v72h-162v-227h298l5 137h46v-184h-484v47h85v469h-85v47h475zM271 754v-108h-72v108h72zM401 754v-108h-72v108h72z" />
    <glyph glyph-name="Igrave" unicode="&#xcc;" 
d="M500 516h-175v-469h175v-47h-400v47h175v469h-175v47h400v-47zM374 636h-52l-132 115h107z" />
    <glyph glyph-name="Iacute" unicode="&#xcd;" 
d="M500 516h-175v-469h175v-47h-400v47h175v469h-175v47h400v-47zM215 636l89 115h107l-143 -115h-53z" />
    <glyph glyph-name="Icircumflex" unicode="&#xce;" 
d="M500 516h-175v-469h175v-47h-400v47h175v469h-175v47h400v-47zM428 660l-32 -25l-101 66l-91 -66l-33 24l88 95h77z" />
    <glyph glyph-name="Idieresis" unicode="&#xcf;" 
d="M500 516h-175v-469h175v-47h-400v47h175v469h-175v47h400v-47zM271 754v-108h-72v108h72zM401 754v-108h-72v108h72z" />
    <glyph glyph-name="Eth" unicode="&#xd0;" 
d="M34 321h79v195h-79v47h250q33 0 61.5 -2.5t53 -10t47 -22.5t43.5 -40q22 -27 34.5 -56t18.5 -56t7.5 -49t1.5 -35q0 -45 -7 -81.5t-18.5 -65t-26.5 -50.5t-31 -37q-23 -22 -50 -33.5t-53 -17t-48.5 -6.5t-36.5 -1h-246v47h79v227h-79v47zM163 47h117q13 0 31 0.5t38.5 5
t41.5 14t39 27.5q27 27 47 76.5t20 118.5q-1 47 -9.5 80t-20.5 56t-25.5 37t-24.5 23q-26 20 -57.5 25.5t-74.5 5.5h-122v-195h166v-47h-166v-227z" />
    <glyph glyph-name="Ntilde" unicode="&#xd1;" 
d="M462 42h18v474h-112v47h223v-47h-65v-529h-89l-268 529h-17v-469h113v-47h-237v47h78v469h-78v47h171zM460 739q-2 -2 -2 -7q-12 -42 -39 -63.5t-59 -21.5q-17 0 -32.5 7t-38.5 25q-24 18 -34 23.5t-21 5.5q-20 0 -32 -16t-20 -36q0 -1 -1 -3l-1 -3l-40 14
q14 38 35.5 63.5t58.5 25.5q24 0 41 -10t33 -24q19 -14 31.5 -20.5t23.5 -6.5q13 0 22.5 6.5t16 16t11 19.5t7.5 18z" />
    <glyph glyph-name="Ograve" unicode="&#xd2;" 
d="M43 281q0 62 18 116.5t51.5 95t81 64t106.5 23.5q60 0 107.5 -24t81 -65t51 -95t17.5 -115q0 -60 -18 -114.5t-51 -95t-80.5 -64.5t-107.5 -24q-59 0 -106.5 23.5t-81 64t-51.5 94.5t-18 116zM97 282q0 -45 13 -89.5t38.5 -80t63.5 -57.5t88 -22q49 0 87 21.5t64 56.5
t39 79.5t13 91.5t-13.5 92t-39.5 79.5t-63.5 55.5t-86.5 21q-52 0 -90 -22.5t-63 -58t-37.5 -80t-12.5 -87.5zM374 636h-52l-132 115h107z" />
    <glyph glyph-name="Oacute" unicode="&#xd3;" 
d="M43 281q0 62 18 116.5t51.5 95t81 64t106.5 23.5q60 0 107.5 -24t81 -65t51 -95t17.5 -115q0 -60 -18 -114.5t-51 -95t-80.5 -64.5t-107.5 -24q-59 0 -106.5 23.5t-81 64t-51.5 94.5t-18 116zM97 282q0 -45 13 -89.5t38.5 -80t63.5 -57.5t88 -22q49 0 87 21.5t64 56.5
t39 79.5t13 91.5t-13.5 92t-39.5 79.5t-63.5 55.5t-86.5 21q-52 0 -90 -22.5t-63 -58t-37.5 -80t-12.5 -87.5zM215 636l89 115h107l-143 -115h-53z" />
    <glyph glyph-name="Ocircumflex" unicode="&#xd4;" 
d="M43 281q0 62 18 116.5t51.5 95t81 64t106.5 23.5q60 0 107.5 -24t81 -65t51 -95t17.5 -115q0 -60 -18 -114.5t-51 -95t-80.5 -64.5t-107.5 -24q-59 0 -106.5 23.5t-81 64t-51.5 94.5t-18 116zM97 282q0 -45 13 -89.5t38.5 -80t63.5 -57.5t88 -22q49 0 87 21.5t64 56.5
t39 79.5t13 91.5t-13.5 92t-39.5 79.5t-63.5 55.5t-86.5 21q-52 0 -90 -22.5t-63 -58t-37.5 -80t-12.5 -87.5zM428 660l-32 -25l-101 66l-91 -66l-33 24l88 95h77z" />
    <glyph glyph-name="Otilde" unicode="&#xd5;" 
d="M43 281q0 62 18 116.5t51.5 95t81 64t106.5 23.5q60 0 107.5 -24t81 -65t51 -95t17.5 -115q0 -60 -18 -114.5t-51 -95t-80.5 -64.5t-107.5 -24q-59 0 -106.5 23.5t-81 64t-51.5 94.5t-18 116zM97 282q0 -45 13 -89.5t38.5 -80t63.5 -57.5t88 -22q49 0 87 21.5t64 56.5
t39 79.5t13 91.5t-13.5 92t-39.5 79.5t-63.5 55.5t-86.5 21q-52 0 -90 -22.5t-63 -58t-37.5 -80t-12.5 -87.5zM460 739q-2 -2 -2 -7q-12 -42 -39 -63.5t-59 -21.5q-17 0 -32.5 7t-38.5 25q-24 18 -34 23.5t-21 5.5q-20 0 -32 -16t-20 -36q0 -1 -1 -3l-1 -3l-40 14
q14 38 35.5 63.5t58.5 25.5q24 0 41 -10t33 -24q19 -14 31.5 -20.5t23.5 -6.5q13 0 22.5 6.5t16 16t11 19.5t7.5 18z" />
    <glyph glyph-name="Odieresis" unicode="&#xd6;" 
d="M43 281q0 62 18 116.5t51.5 95t81 64t106.5 23.5q60 0 107.5 -24t81 -65t51 -95t17.5 -115q0 -60 -18 -114.5t-51 -95t-80.5 -64.5t-107.5 -24q-59 0 -106.5 23.5t-81 64t-51.5 94.5t-18 116zM97 282q0 -45 13 -89.5t38.5 -80t63.5 -57.5t88 -22q49 0 87 21.5t64 56.5
t39 79.5t13 91.5t-13.5 92t-39.5 79.5t-63.5 55.5t-86.5 21q-52 0 -90 -22.5t-63 -58t-37.5 -80t-12.5 -87.5zM271 754v-108h-72v108h72zM401 754v-108h-72v108h72z" />
    <glyph glyph-name="multiply" unicode="&#xd7;" 
d="M154 488l146 -146l146 146l36 -35l-147 -147l147 -146l-36 -36l-146 147l-146 -147l-36 36l147 146l-147 147z" />
    <glyph glyph-name="Oslash" unicode="&#xd8;" 
d="M64 4l50 65q-13 17 -26 37.5t-23 46t-16 57t-6 70.5q0 62 18 116.5t51.5 95.5t81 64.5t107.5 23.5q34 0 59.5 -6.5t44.5 -16t33 -20.5l25 -19l39 49l35 -26l-44 -56q24 -29 37 -62t19 -63t7 -52t1 -29q0 -59 -17.5 -113t-50.5 -94.5t-80 -64.5t-105 -24q-30 0 -70.5 9
t-85.5 45l-50 -60zM177 78q7 -6 17.5 -13.5t25.5 -14.5t34.5 -12t45.5 -5q46 0 83.5 19.5t64 53t41 78.5t14.5 96q0 87 -44 161zM431 477q-15 17 -32.5 27.5t-35 16t-34.5 7.5t-30 2q-48 0 -85.5 -21t-63.5 -55.5t-39.5 -79t-13.5 -91.5q0 -14 2 -35.5t8 -45.5t16 -48
t25 -42z" />
    <glyph glyph-name="Ugrave" unicode="&#xd9;" 
d="M248 516h-102v-282q0 -31 2.5 -66t16.5 -64q14 -30 45 -50.5t89 -20.5q59 0 90.5 17.5t45.5 45.5q15 27 17.5 60.5t2.5 67.5v292h-102v47h224v-47h-72v-292q0 -38 -2.5 -64.5t-7.5 -46t-11.5 -33t-14.5 -24.5q-8 -12 -23 -24.5t-36.5 -23.5t-49 -18t-60.5 -7
q-18 0 -40.5 3t-45.5 12t-45 24t-39 39q-13 18 -20 41t-10 46.5t-3.5 46t-0.5 39.5v282h-72v47h224v-47zM374 636h-52l-132 115h107z" />
    <glyph glyph-name="Uacute" unicode="&#xda;" 
d="M248 516h-102v-282q0 -31 2.5 -66t16.5 -64q14 -30 45 -50.5t89 -20.5q59 0 90.5 17.5t45.5 45.5q15 27 17.5 60.5t2.5 67.5v292h-102v47h224v-47h-72v-292q0 -38 -2.5 -64.5t-7.5 -46t-11.5 -33t-14.5 -24.5q-8 -12 -23 -24.5t-36.5 -23.5t-49 -18t-60.5 -7
q-18 0 -40.5 3t-45.5 12t-45 24t-39 39q-13 18 -20 41t-10 46.5t-3.5 46t-0.5 39.5v282h-72v47h224v-47zM215 636l89 115h107l-143 -115h-53z" />
    <glyph glyph-name="Ucircumflex" unicode="&#xdb;" 
d="M248 516h-102v-282q0 -31 2.5 -66t16.5 -64q14 -30 45 -50.5t89 -20.5q59 0 90.5 17.5t45.5 45.5q15 27 17.5 60.5t2.5 67.5v292h-102v47h224v-47h-72v-292q0 -38 -2.5 -64.5t-7.5 -46t-11.5 -33t-14.5 -24.5q-8 -12 -23 -24.5t-36.5 -23.5t-49 -18t-60.5 -7
q-18 0 -40.5 3t-45.5 12t-45 24t-39 39q-13 18 -20 41t-10 46.5t-3.5 46t-0.5 39.5v282h-72v47h224v-47zM428 660l-32 -25l-101 66l-91 -66l-33 24l88 95h77z" />
    <glyph glyph-name="Udieresis" unicode="&#xdc;" 
d="M248 516h-102v-282q0 -31 2.5 -66t16.5 -64q14 -30 45 -50.5t89 -20.5q59 0 90.5 17.5t45.5 45.5q15 27 17.5 60.5t2.5 67.5v292h-102v47h224v-47h-72v-292q0 -38 -2.5 -64.5t-7.5 -46t-11.5 -33t-14.5 -24.5q-8 -12 -23 -24.5t-36.5 -23.5t-49 -18t-60.5 -7
q-18 0 -40.5 3t-45.5 12t-45 24t-39 39q-13 18 -20 41t-10 46.5t-3.5 46t-0.5 39.5v282h-72v47h224v-47zM271 754v-108h-72v108h72zM401 754v-108h-72v108h72z" />
    <glyph glyph-name="Yacute" unicode="&#xdd;" 
d="M228 516h-76l151 -248l149 248h-78v47h194v-47h-63l-179 -298v-171h118v-47h-287v47h119v171l-181 298h-63v47h196v-47zM215 636l89 115h107l-143 -115h-53z" />
    <glyph glyph-name="Thorn" unicode="&#xde;" 
d="M315 0h-244v47h81v469h-81v47h244v-47h-113v-51h55q46 0 77.5 -1t54 -4.5t39 -9.5t32.5 -16q32 -20 53 -56.5t21 -82.5q0 -45 -21 -84.5t-53 -57.5q-18 -11 -35 -17t-39.5 -9t-53 -3.5t-75.5 -0.5h-55v-76h113v-47zM202 170h57q61 0 107 3t72 24q14 11 28 35t14 60
q0 41 -20 68.5t-40 37.5q-9 5 -19 8.5t-23.5 6t-32 4t-45.5 1.5h-98v-248z" />
    <glyph glyph-name="germandbls" unicode="&#xdf;" 
d="M141 451q0 40 13.5 72.5t36 55t51.5 34.5t61 12q33 0 59.5 -11.5t44.5 -31t28 -45.5t10 -55q0 -45 -24 -79t-59 -48q14 -5 39.5 -15.5t50 -32t43 -57t18.5 -89.5q0 -33 -10.5 -63.5t-31.5 -53.5t-51.5 -37t-70.5 -14q-49 0 -76 12.5t-39 20.5v52q18 -11 46 -23t68 -12
q18 0 37.5 6.5t36 21t27 38t10.5 57.5q0 153 -202 160v46q10 1 32.5 4t45.5 14t40.5 32t17.5 59q0 40 -23 67t-69 27q-19 0 -38.5 -6.5t-35.5 -21.5t-26 -40.5t-10 -63.5v-443h-126v47h76v404z" />
    <glyph glyph-name="agrave" unicode="&#xe0;" 
d="M550 47v-47h-139v72q-15 -14 -35.5 -29.5t-44.5 -28t-52 -20.5t-59 -8q-38 0 -67.5 12.5t-50.5 32.5t-32 45t-11 51q0 20 10 46t34 49.5t65 39.5t103 16q3 0 17 -0.5t33.5 -2t43 -4t46.5 -6.5v31q0 12 -2 30t-13 35t-36 29t-70 12q-27 0 -69 -8t-102 -34l-19 45
q32 14 81.5 29.5t109.5 15.5q64 0 98.5 -18.5t50.5 -44t18.5 -51t2.5 -40.5v-249h89zM411 219q-17 3 -52.5 7t-77.5 4q-62 0 -96 -14.5t-50 -33t-19 -35.5t-3 -21q0 -19 8.5 -35.5t23.5 -29t34 -20t40 -7.5q12 0 31.5 3t44.5 13.5t54.5 31.5t61.5 57v80zM374 503h-52
l-132 115h107z" />
    <glyph glyph-name="aacute" unicode="&#xe1;" 
d="M550 47v-47h-139v72q-15 -14 -35.5 -29.5t-44.5 -28t-52 -20.5t-59 -8q-38 0 -67.5 12.5t-50.5 32.5t-32 45t-11 51q0 20 10 46t34 49.5t65 39.5t103 16q3 0 17 -0.5t33.5 -2t43 -4t46.5 -6.5v31q0 12 -2 30t-13 35t-36 29t-70 12q-27 0 -69 -8t-102 -34l-19 45
q32 14 81.5 29.5t109.5 15.5q64 0 98.5 -18.5t50.5 -44t18.5 -51t2.5 -40.5v-249h89zM411 219q-17 3 -52.5 7t-77.5 4q-62 0 -96 -14.5t-50 -33t-19 -35.5t-3 -21q0 -19 8.5 -35.5t23.5 -29t34 -20t40 -7.5q12 0 31.5 3t44.5 13.5t54.5 31.5t61.5 57v80zM215 503l89 115h107
l-143 -115h-53z" />
    <glyph glyph-name="acircumflex" unicode="&#xe2;" 
d="M550 47v-47h-139v72q-15 -14 -35.5 -29.5t-44.5 -28t-52 -20.5t-59 -8q-38 0 -67.5 12.5t-50.5 32.5t-32 45t-11 51q0 20 10 46t34 49.5t65 39.5t103 16q3 0 17 -0.5t33.5 -2t43 -4t46.5 -6.5v31q0 12 -2 30t-13 35t-36 29t-70 12q-27 0 -69 -8t-102 -34l-19 45
q32 14 81.5 29.5t109.5 15.5q64 0 98.5 -18.5t50.5 -44t18.5 -51t2.5 -40.5v-249h89zM411 219q-17 3 -52.5 7t-77.5 4q-62 0 -96 -14.5t-50 -33t-19 -35.5t-3 -21q0 -19 8.5 -35.5t23.5 -29t34 -20t40 -7.5q12 0 31.5 3t44.5 13.5t54.5 31.5t61.5 57v80zM410 527l-32 -25
l-101 66l-91 -66l-33 24l88 95h77z" />
    <glyph glyph-name="atilde" unicode="&#xe3;" 
d="M550 47v-47h-139v72q-15 -14 -35.5 -29.5t-44.5 -28t-52 -20.5t-59 -8q-38 0 -67.5 12.5t-50.5 32.5t-32 45t-11 51q0 20 10 46t34 49.5t65 39.5t103 16q3 0 17 -0.5t33.5 -2t43 -4t46.5 -6.5v31q0 12 -2 30t-13 35t-36 29t-70 12q-27 0 -69 -8t-102 -34l-19 45
q32 14 81.5 29.5t109.5 15.5q64 0 98.5 -18.5t50.5 -44t18.5 -51t2.5 -40.5v-249h89zM411 219q-17 3 -52.5 7t-77.5 4q-62 0 -96 -14.5t-50 -33t-19 -35.5t-3 -21q0 -19 8.5 -35.5t23.5 -29t34 -20t40 -7.5q12 0 31.5 3t44.5 13.5t54.5 31.5t61.5 57v80zM460 606
q-2 -2 -2 -7q-12 -42 -39 -63.5t-59 -21.5q-17 0 -32.5 7t-38.5 25q-24 18 -34 23.5t-21 5.5q-20 0 -32 -16t-20 -36q0 -1 -1 -3l-1 -3l-40 14q14 38 35.5 63.5t58.5 25.5q24 0 41 -10t33 -24q19 -14 31.5 -20.5t23.5 -6.5q13 0 22.5 6.5t16 16t11 19.5t7.5 18z" />
    <glyph glyph-name="adieresis" unicode="&#xe4;" 
d="M550 47v-47h-139v72q-15 -14 -35.5 -29.5t-44.5 -28t-52 -20.5t-59 -8q-38 0 -67.5 12.5t-50.5 32.5t-32 45t-11 51q0 20 10 46t34 49.5t65 39.5t103 16q3 0 17 -0.5t33.5 -2t43 -4t46.5 -6.5v31q0 12 -2 30t-13 35t-36 29t-70 12q-27 0 -69 -8t-102 -34l-19 45
q32 14 81.5 29.5t109.5 15.5q64 0 98.5 -18.5t50.5 -44t18.5 -51t2.5 -40.5v-249h89zM411 219q-17 3 -52.5 7t-77.5 4q-62 0 -96 -14.5t-50 -33t-19 -35.5t-3 -21q0 -19 8.5 -35.5t23.5 -29t34 -20t40 -7.5q12 0 31.5 3t44.5 13.5t54.5 31.5t61.5 57v80zM253 621v-108h-72
v108h72zM383 621v-108h-72v108h72z" />
    <glyph glyph-name="aring" unicode="&#xe5;" 
d="M550 47v-47h-139v72q-15 -14 -35.5 -29.5t-44.5 -28t-52 -20.5t-59 -8q-38 0 -67.5 12.5t-50.5 32.5t-32 45t-11 51q0 20 10 46t34 49.5t65 39.5t103 16q3 0 17 -0.5t33.5 -2t43 -4t46.5 -6.5v31q0 12 -2 30t-13 35t-36 29t-70 12q-27 0 -69 -8t-102 -34l-19 45
q32 14 81.5 29.5t109.5 15.5q64 0 98.5 -18.5t50.5 -44t18.5 -51t2.5 -40.5v-249h89zM411 219q-17 3 -52.5 7t-77.5 4q-62 0 -96 -14.5t-50 -33t-19 -35.5t-3 -21q0 -19 8.5 -35.5t23.5 -29t34 -20t40 -7.5q12 0 31.5 3t44.5 13.5t54.5 31.5t61.5 57v80zM300 642
q32 0 54 -22t22 -54t-22 -54t-54 -22t-54 22t-22 54t22 54t54 22zM301 604q-16 0 -27.5 -10t-11.5 -28q0 -16 11.5 -27t27.5 -11t26.5 11t10.5 27t-10.5 27t-26.5 11z" />
    <glyph glyph-name="ae" unicode="&#xe6;" 
d="M320 203q2 -43 7 -72t25 -55q23 -30 47 -36t38 -6q30 0 59 7t54 15l18 -43q-54 -19 -87 -23t-46 -4q-30 0 -52 9t-37.5 21t-25 24.5l-14.5 19.5q-23 -23 -44.5 -38t-40.5 -23t-35 -11t-29 -3q-30 0 -53 11t-39 29.5t-24 42t-8 48.5t10 52t29.5 48.5t49.5 35.5t71 14
q17 0 33 -2.5t44 -6.5v35q0 52 -14 81t-59 29q-26 0 -52 -6t-68 -21l-14 44q42 16 73 23.5t62 7.5q27 0 45.5 -6t30.5 -16.5t19.5 -24t12.5 -28.5l18.5 23.5t25 24.5t33 19t42.5 8q4 0 16.5 -1.5t29 -8.5t34 -22t31.5 -42.5t22 -69.5t5 -103h-243zM270 209q-26 5 -42.5 7
t-33.5 2q-34 0 -55.5 -11t-34 -26.5t-17 -33.5t-4.5 -31q0 -15 4.5 -29.5t13.5 -26.5t22.5 -19.5t32.5 -7.5q18 0 35.5 6t32 15t26.5 18.5t20 16.5v120zM513 250q-5 152 -89 152q-26 0 -44 -13.5t-29 -26.5q-22 -27 -26 -53.5t-5 -58.5h193z" />
    <glyph glyph-name="ccedilla" unicode="&#xe7;" 
d="M330 -26q21 -5 31 -21.5t10 -33.5q0 -8 -3 -19t-9.5 -21t-18 -16.5t-29.5 -6.5q-20 0 -33 7t-25 15l22 37q16 -11 20.5 -13t11.5 -2q12 0 15.5 6.5t3.5 11.5q0 13 -8.5 15t-12.5 2q-8 0 -13 -0.5t-10 -1.5l4 54q-39 1 -77.5 17t-69 45.5t-49.5 71.5t-19 95
q0 40 14.5 80.5t43.5 73.5t74 54t107 21q39 0 69 -9.5t61 -31.5q1 -1 6.5 -5l9.5 -7t5 -3q3 0 5 5.5t3 7.5l8 41l46 -5l-5.5 -40.5t-3.5 -51.5q0 -27 3 -66l-46 -7q-8 34 -15 53.5t-26 35.5q-14 11 -30 17.5t-31.5 10t-29.5 4.5t-24 1q-48 0 -83.5 -15.5t-59.5 -41
t-35.5 -57t-11.5 -64.5q0 -32 11 -64t33.5 -58t57.5 -42.5t84 -16.5q54 0 105.5 23.5t106.5 61.5l26 -38q-55 -42 -105.5 -66t-113.5 -30v-13z" />
    <glyph glyph-name="egrave" unicode="&#xe8;" 
d="M559 57q-20 -11 -47 -23.5t-58.5 -23t-66.5 -17.5t-70 -7q-61 0 -106.5 19t-76 50.5t-45.5 73t-15 85.5q0 46 16.5 88t47 74t74.5 50.5t99 18.5q57 0 99.5 -18t71 -47t42.5 -64.5t14 -69.5q0 -12 -1 -26t-1 -19h-408q1 -20 9 -48.5t29 -54.5t57.5 -45t94.5 -19
q31 0 63.5 7.5t61.5 18t53 22l40 19.5zM484 248q0 24 -10.5 50.5t-31.5 48.5t-53.5 36t-77.5 14q-50 0 -83.5 -17t-54.5 -40.5t-31.5 -49t-13.5 -42.5h356zM391 503h-52l-132 115h107z" />
    <glyph glyph-name="eacute" unicode="&#xe9;" 
d="M559 57q-20 -11 -47 -23.5t-58.5 -23t-66.5 -17.5t-70 -7q-61 0 -106.5 19t-76 50.5t-45.5 73t-15 85.5q0 46 16.5 88t47 74t74.5 50.5t99 18.5q57 0 99.5 -18t71 -47t42.5 -64.5t14 -69.5q0 -12 -1 -26t-1 -19h-408q1 -20 9 -48.5t29 -54.5t57.5 -45t94.5 -19
q31 0 63.5 7.5t61.5 18t53 22l40 19.5zM484 248q0 24 -10.5 50.5t-31.5 48.5t-53.5 36t-77.5 14q-50 0 -83.5 -17t-54.5 -40.5t-31.5 -49t-13.5 -42.5h356zM215 503l89 115h107l-143 -115h-53z" />
    <glyph glyph-name="ecircumflex" unicode="&#xea;" 
d="M559 57q-20 -11 -47 -23.5t-58.5 -23t-66.5 -17.5t-70 -7q-61 0 -106.5 19t-76 50.5t-45.5 73t-15 85.5q0 46 16.5 88t47 74t74.5 50.5t99 18.5q57 0 99.5 -18t71 -47t42.5 -64.5t14 -69.5q0 -12 -1 -26t-1 -19h-408q1 -20 9 -48.5t29 -54.5t57.5 -45t94.5 -19
q31 0 63.5 7.5t61.5 18t53 22l40 19.5zM484 248q0 24 -10.5 50.5t-31.5 48.5t-53.5 36t-77.5 14q-50 0 -83.5 -17t-54.5 -40.5t-31.5 -49t-13.5 -42.5h356zM428 527l-32 -25l-101 66l-91 -66l-33 24l88 95h77z" />
    <glyph glyph-name="edieresis" unicode="&#xeb;" 
d="M559 57q-20 -11 -47 -23.5t-58.5 -23t-66.5 -17.5t-70 -7q-61 0 -106.5 19t-76 50.5t-45.5 73t-15 85.5q0 46 16.5 88t47 74t74.5 50.5t99 18.5q57 0 99.5 -18t71 -47t42.5 -64.5t14 -69.5q0 -12 -1 -26t-1 -19h-408q1 -20 9 -48.5t29 -54.5t57.5 -45t94.5 -19
q31 0 63.5 7.5t61.5 18t53 22l40 19.5zM484 248q0 24 -10.5 50.5t-31.5 48.5t-53.5 36t-77.5 14q-50 0 -83.5 -17t-54.5 -40.5t-31.5 -49t-13.5 -42.5h356zM271 621v-108h-72v108h72zM401 621v-108h-72v108h72z" />
    <glyph glyph-name="igrave" unicode="&#xec;" 
d="M374 503h-52l-132 115h107zM327 47h173v-47h-399v47h176v336h-147v47h197v-383z" />
    <glyph glyph-name="iacute" unicode="&#xed;" 
d="M215 503l89 115h107l-143 -115h-53zM327 47h173v-47h-399v47h176v336h-147v47h197v-383z" />
    <glyph glyph-name="icircumflex" unicode="&#xee;" 
d="M428 527l-32 -25l-101 66l-91 -66l-33 24l88 95h77zM327 47h173v-47h-399v47h176v336h-147v47h197v-383z" />
    <glyph glyph-name="idieresis" unicode="&#xef;" 
d="M271 621v-108h-72v108h72zM401 621v-108h-72v108h72zM327 47h173v-47h-399v47h176v336h-147v47h197v-383z" />
    <glyph glyph-name="eth" unicode="&#xf0;" 
d="M170 516l50 76l-33 15.5t-26.5 11.5t-24.5 9l-27 9l17 49q19 -6 33.5 -11t28 -10.5l28 -12t32.5 -15.5l41 67l43 -28l-39 -62q15 -9 40 -25.5t53.5 -40t57 -55t52 -71.5t38 -88.5t14.5 -106.5t-19 -103t-52.5 -75.5t-79 -46.5t-97.5 -16q-62 0 -108.5 20t-77.5 52.5
t-46.5 74t-15.5 85.5q0 55 20 98t53.5 73t76.5 45.5t89 15.5q39 0 77 -8t60 -19l2 2l-28 34.5t-32.5 34t-43.5 35.5t-61 39l-52 -82zM106 218q0 -36 12.5 -69t37.5 -59t61 -41.5t83 -15.5q48 0 84.5 16t60.5 42t36.5 59t12.5 68q0 34 -12.5 67.5t-37 59.5t-60.5 42t-84 16
q-47 0 -83 -15.5t-60.5 -41t-37.5 -59t-13 -69.5z" />
    <glyph glyph-name="ntilde" unicode="&#xf1;" 
d="M166 374q16 12 35 24.5t40.5 23t45.5 17t51 6.5q34 0 61.5 -12t47 -34t30 -52.5t10.5 -66.5v-233h80v-47h-216v47h86v229q0 55 -26.5 87t-71.5 32q-12 0 -28 -2.5t-37 -11t-47.5 -24t-60.5 -42.5v-268h84v-47h-216v47h82v336h-82v47h132v-56zM460 606q-2 -2 -2 -7
q-12 -42 -39 -63.5t-59 -21.5q-17 0 -32.5 7t-38.5 25q-24 18 -34 23.5t-21 5.5q-20 0 -32 -16t-20 -36q0 -1 -1 -3l-1 -3l-40 14q14 38 35.5 63.5t58.5 25.5q24 0 41 -10t33 -24q19 -14 31.5 -20.5t23.5 -6.5q13 0 22.5 6.5t16 16t11 19.5t7.5 18z" />
    <glyph glyph-name="ograve" unicode="&#xf2;" 
d="M52 218q0 45 16 87t47 74t77.5 51.5t107.5 19.5q63 0 109.5 -20t77 -53t46 -74.5t15.5 -84.5t-15.5 -84.5t-46 -74.5t-77 -53t-109.5 -20q-61 0 -107.5 19.5t-77.5 52t-47 74t-16 86.5zM106 218q0 -35 12.5 -68t37 -58.5t61 -40.5t83.5 -15q48 0 84.5 15.5t60.5 41
t36.5 58t12.5 67.5q0 34 -12.5 67t-36.5 58.5t-60.5 41t-84.5 15.5q-47 0 -83 -15t-61 -40.5t-37.5 -58t-12.5 -68.5zM374 503h-52l-132 115h107z" />
    <glyph glyph-name="oacute" unicode="&#xf3;" 
d="M52 218q0 45 16 87t47 74t77.5 51.5t107.5 19.5q63 0 109.5 -20t77 -53t46 -74.5t15.5 -84.5t-15.5 -84.5t-46 -74.5t-77 -53t-109.5 -20q-61 0 -107.5 19.5t-77.5 52t-47 74t-16 86.5zM106 218q0 -35 12.5 -68t37 -58.5t61 -40.5t83.5 -15q48 0 84.5 15.5t60.5 41
t36.5 58t12.5 67.5q0 34 -12.5 67t-36.5 58.5t-60.5 41t-84.5 15.5q-47 0 -83 -15t-61 -40.5t-37.5 -58t-12.5 -68.5zM215 503l89 115h107l-143 -115h-53z" />
    <glyph glyph-name="ocircumflex" unicode="&#xf4;" 
d="M52 218q0 45 16 87t47 74t77.5 51.5t107.5 19.5q63 0 109.5 -20t77 -53t46 -74.5t15.5 -84.5t-15.5 -84.5t-46 -74.5t-77 -53t-109.5 -20q-61 0 -107.5 19.5t-77.5 52t-47 74t-16 86.5zM106 218q0 -35 12.5 -68t37 -58.5t61 -40.5t83.5 -15q48 0 84.5 15.5t60.5 41
t36.5 58t12.5 67.5q0 34 -12.5 67t-36.5 58.5t-60.5 41t-84.5 15.5q-47 0 -83 -15t-61 -40.5t-37.5 -58t-12.5 -68.5zM428 527l-32 -25l-101 66l-91 -66l-33 24l88 95h77z" />
    <glyph glyph-name="otilde" unicode="&#xf5;" 
d="M52 218q0 45 16 87t47 74t77.5 51.5t107.5 19.5q63 0 109.5 -20t77 -53t46 -74.5t15.5 -84.5t-15.5 -84.5t-46 -74.5t-77 -53t-109.5 -20q-61 0 -107.5 19.5t-77.5 52t-47 74t-16 86.5zM106 218q0 -35 12.5 -68t37 -58.5t61 -40.5t83.5 -15q48 0 84.5 15.5t60.5 41
t36.5 58t12.5 67.5q0 34 -12.5 67t-36.5 58.5t-60.5 41t-84.5 15.5q-47 0 -83 -15t-61 -40.5t-37.5 -58t-12.5 -68.5zM460 606q-2 -2 -2 -7q-12 -42 -39 -63.5t-59 -21.5q-17 0 -32.5 7t-38.5 25q-24 18 -34 23.5t-21 5.5q-20 0 -32 -16t-20 -36q0 -1 -1 -3l-1 -3l-40 14
q14 38 35.5 63.5t58.5 25.5q24 0 41 -10t33 -24q19 -14 31.5 -20.5t23.5 -6.5q13 0 22.5 6.5t16 16t11 19.5t7.5 18z" />
    <glyph glyph-name="odieresis" unicode="&#xf6;" 
d="M52 218q0 45 16 87t47 74t77.5 51.5t107.5 19.5q63 0 109.5 -20t77 -53t46 -74.5t15.5 -84.5t-15.5 -84.5t-46 -74.5t-77 -53t-109.5 -20q-61 0 -107.5 19.5t-77.5 52t-47 74t-16 86.5zM106 218q0 -35 12.5 -68t37 -58.5t61 -40.5t83.5 -15q48 0 84.5 15.5t60.5 41
t36.5 58t12.5 67.5q0 34 -12.5 67t-36.5 58.5t-60.5 41t-84.5 15.5q-47 0 -83 -15t-61 -40.5t-37.5 -58t-12.5 -68.5zM271 621v-108h-72v108h72zM401 621v-108h-72v108h72z" />
    <glyph glyph-name="divide" unicode="&#xf7;" 
d="M300 528q18 0 31.5 -12.5t13.5 -32.5q0 -18 -12.5 -31.5t-32.5 -13.5q-19 0 -32 13.5t-13 31.5q0 20 14 32.5t31 12.5zM534 278h-468v50h468v-50zM300 168q17 0 31 -12.5t14 -32.5t-14 -32.5t-31 -12.5q-18 0 -31.5 13t-13.5 32q0 20 13.5 32.5t31.5 12.5z" />
    <glyph glyph-name="oslash" unicode="&#xf8;" 
d="M60 23l46 46q-17 21 -27.5 42.5t-16.5 41.5t-8 37t-2 29q0 43 15.5 85t47 74t77.5 52t108 20q35 0 77.5 -9.5t74.5 -35.5l49 50l38 -38l-46 -46q18 -21 29 -43.5t16.5 -43t7.5 -38t2 -28.5q0 -45 -16 -87t-47.5 -74.5t-77.5 -51.5t-105 -19q-5 0 -21 0.5t-38 5t-48 14
t-50 26.5l-46 -46zM184 68q9 -6 18.5 -11.5t22.5 -10t31 -7.5t44 -3q48 0 84.5 15.5t60.5 41t36.5 58t12.5 67.5q0 65 -40 114zM415 369l-23 11.5t-23.5 10t-29 7t-39.5 2.5q-48 0 -84.5 -16t-61 -41.5t-36.5 -58t-12 -66.5q0 -20 7.5 -52t30.5 -61z" />
    <glyph glyph-name="ugrave" unicode="&#xf9;" 
d="M164 165q0 -10 1.5 -31.5t11 -43t29.5 -38t58 -16.5q42 0 80.5 21t80.5 66v260h-86v47h136v-383h81v-47h-131v55l-26 -21t-34.5 -22.5t-43.5 -18t-53 -7.5q-47 0 -77 17t-47 43t-23.5 57.5t-6.5 61.5v218h-82v47h132v-265zM374 503h-52l-132 115h107z" />
    <glyph glyph-name="uacute" unicode="&#xfa;" 
d="M164 165q0 -10 1.5 -31.5t11 -43t29.5 -38t58 -16.5q42 0 80.5 21t80.5 66v260h-86v47h136v-383h81v-47h-131v55l-26 -21t-34.5 -22.5t-43.5 -18t-53 -7.5q-47 0 -77 17t-47 43t-23.5 57.5t-6.5 61.5v218h-82v47h132v-265zM215 503l89 115h107l-143 -115h-53z" />
    <glyph glyph-name="ucircumflex" unicode="&#xfb;" 
d="M164 165q0 -10 1.5 -31.5t11 -43t29.5 -38t58 -16.5q42 0 80.5 21t80.5 66v260h-86v47h136v-383h81v-47h-131v55l-26 -21t-34.5 -22.5t-43.5 -18t-53 -7.5q-47 0 -77 17t-47 43t-23.5 57.5t-6.5 61.5v218h-82v47h132v-265zM428 527l-32 -25l-101 66l-91 -66l-33 24l88 95
h77z" />
    <glyph glyph-name="udieresis" unicode="&#xfc;" 
d="M164 165q0 -10 1.5 -31.5t11 -43t29.5 -38t58 -16.5q42 0 80.5 21t80.5 66v260h-86v47h136v-383h81v-47h-131v55l-26 -21t-34.5 -22.5t-43.5 -18t-53 -7.5q-47 0 -77 17t-47 43t-23.5 57.5t-6.5 61.5v218h-82v47h132v-265zM271 621v-108h-72v108h72zM401 621v-108h-72
v108h72z" />
    <glyph glyph-name="yacute" unicode="&#xfd;" 
d="M211 383h-69l158 -304l174 304h-68v47h183v-47h-58l-280 -489h89v-47h-300v47h154l77 133l-186 356h-61v47h187v-47zM215 503l89 115h107l-143 -115h-53z" />
    <glyph glyph-name="thorn" unicode="&#xfe;" 
d="M153 359q6 9 18.5 23t33.5 27.5t50.5 23.5t69.5 10q51 0 92 -19t70 -50t45 -71.5t16 -83.5q0 -51 -19.5 -92.5t-50.5 -71t-71 -46t-80 -16.5q-6 0 -24 1.5t-43 9.5t-53 25.5t-54 49.5h-2v-189h149v-47h-281v47h82v687l-89 -4v47l139 9v-270h2zM147 222q0 -44 17 -77.5
t43 -56t57.5 -34t60.5 -11.5q34 0 64.5 13.5t53.5 37t37 56t14 70.5q0 31 -10.5 62t-31.5 55.5t-52.5 40t-73.5 15.5q-39 0 -72 -14t-56.5 -37t-37 -54.5t-13.5 -65.5z" />
    <glyph glyph-name="ydieresis" unicode="&#xff;" 
d="M24 430v-47h61l186 -356l-77 -133h-154v-47h300v47h-89l280 489h58v47h-183v-47h68l-174 -304l-158 304h69v47h-187zM199 513h72v108h-72v-108zM329 513h72v108h-72v-108z" />
    <glyph glyph-name="OE" unicode="&#x152;" 
d="M537 383h-44l-9 133h-132v-194h65v73h46v-193h-46v73h-65v-228h146l6 138h46v-185h-308q-59 0 -101.5 27t-70 68t-41 89.5t-13.5 92.5q0 60 19 112t53.5 91t83 61t107.5 22h258v-180zM276 516q-50 0 -88.5 -19t-64.5 -51.5t-39.5 -75.5t-13.5 -90q0 -37 10.5 -78
t33 -75.5t58 -57t86.5 -22.5h44v469h-26z" />
    <glyph glyph-name="oe" unicode="&#x153;" 
d="M320 205q-1 -52 10.5 -85.5t29.5 -52.5t38 -26.5t37 -7.5q32 0 63.5 8t51.5 14l18 -43q-54 -18 -85.5 -22.5t-45.5 -4.5q-9 0 -26 2.5t-36.5 11.5t-39.5 27.5t-35 51.5q-4 -9 -12.5 -24.5t-24.5 -31t-40 -26.5t-60 -11q-39 0 -65 13.5t-43 34t-26 45.5t-13.5 48.5
t-5 42.5t-0.5 28q0 48 9 93.5t28.5 81.5t51 57.5t77.5 21.5q30 0 52 -10.5t37 -24t23.5 -27.5t11.5 -21q23 42 57 62t67 20q39 0 65.5 -20.5t43 -51t24 -65t7.5 -62.5q0 -12 -0.5 -25.5t-1.5 -20.5h-242zM270 211q0 63 -8 101t-21.5 58.5t-30 26.5t-34.5 6q-31 0 -52 -18.5
t-34.5 -48t-19.5 -65.5t-6 -71q0 -28 4.5 -57.5t15.5 -54t30 -40t48 -15.5q27 0 45.5 10.5t30.5 27.5t18.5 37.5t9.5 40.5t3.5 36.5t0.5 25.5zM514 249q0 28 -5 55.5t-16 49.5t-28 35t-41 13q-8 0 -24.5 -5t-34 -20.5t-31 -46t-14.5 -81.5h194z" />
    <glyph glyph-name="Scaron" unicode="&#x160;" 
d="M507 574q-5 -23 -7 -38t-2 -34q0 -17 2 -46.5t7 -72.5l-45 -8q-2 16 -8 42t-23 52q-6 9 -15.5 19.5t-24.5 19.5t-36 15.5t-51 6.5q-39 0 -67.5 -11.5t-47 -29t-27.5 -38t-9 -39.5q0 -35 17 -55t41 -31t50 -15t44 -6q56 -6 88 -12.5t58 -23.5t44 -45t18 -71
q0 -44 -18.5 -76t-47.5 -53t-65.5 -31t-73.5 -10q-30 0 -52.5 5t-39 12.5t-27.5 15t-18 13.5q-1 1 -3.5 2.5t-4.5 1.5q-3 0 -5.5 -3t-4.5 -5q-2 -7 -3.5 -13.5t-5.5 -31.5h-45q5 24 7 46t2 33v10q0 8 -1 21.5t-2.5 29l-3 30t-2.5 25.5h45q4 -19 10.5 -43t23.5 -46
q14 -18 41.5 -35.5t81.5 -17.5q46 0 76.5 11t48.5 28t25.5 37.5t7.5 39.5q0 33 -14.5 52.5t-35.5 30t-45.5 14.5t-43.5 6q-29 3 -67.5 9t-72.5 22t-57.5 45.5t-23.5 79.5q0 34 15 65t41.5 55t63 38t79.5 14q27 0 48 -5t36 -11.5t25 -13.5t15 -11q12 -9 16 -11.5t7 -2.5
q7 0 8.5 6t6.5 30q1 5 1.5 8t0.5 5h45zM171 736l32 24l101 -65l92 66l32 -25l-88 -94h-76z" />
    <glyph glyph-name="scaron" unicode="&#x161;" 
d="M482 443q-3 -16 -6 -36.5t-3 -49.5q0 -21 1.5 -35.5t3.5 -27.5l-44 -5q-3 15 -8.5 33t-21 33.5t-45.5 26.5t-82 11q-60 0 -92 -21.5t-32 -52.5q0 -27 15.5 -42.5t43.5 -24t65.5 -11.5t81.5 -5q9 0 32.5 -3t48.5 -14t44.5 -33.5t19.5 -61.5q0 -36 -17.5 -62.5t-45.5 -43.5
t-61.5 -25t-66.5 -8q-27 0 -50 4.5t-42 11.5t-32.5 14l-22.5 12l-2 1q-1 1 -3 1q-7 0 -11 -12.5l-9 -29.5h-44l4 25.5t2 37.5q0 32 -2 57t-4 42l44 5q2 -13 8 -33t22.5 -39t47.5 -33t83 -14q15 0 40 3t49 12t41.5 26t17.5 46q0 22 -10.5 35t-29.5 19.5t-45.5 8.5t-57.5 3
q-20 1 -55 4.5t-69 16t-59 38t-25 70.5q0 27 13 50t36 40t56 26.5t72 9.5q45 0 73 -10.5t42 -18.5q2 -2 9 -5.5t13 -3.5q8 0 12 9.5l6 14.5q2 10 3 13t3 8zM171 603l32 24l101 -65l92 66l32 -25l-88 -94h-76z" />
    <glyph glyph-name="Ydieresis" unicode="&#x178;" 
d="M228 516h-76l151 -248l149 248h-78v47h194v-47h-63l-179 -298v-171h118v-47h-287v47h119v171l-181 298h-63v47h196v-47zM271 754v-108h-72v108h72zM401 754v-108h-72v108h72z" />
    <glyph glyph-name="Zcaron" unicode="&#x17d;" 
d="M493 522l-349 -475h325v162h47v-209h-432v47l345 469h-291v-146h-47v193h402v-41zM171 736l32 24l101 -65l92 66l32 -25l-88 -94h-76z" />
    <glyph glyph-name="zcaron" unicode="&#x17e;" 
d="M496 387l-324 -340h277v92h47v-139h-392v47l321 336h-264v-89h-47v136h382v-43zM171 603l32 24l101 -65l92 66l32 -25l-88 -94h-76z" />
    <glyph glyph-name="florin" unicode="&#x192;" 
d="M504 609q-13 3 -30.5 5.5t-41.5 2.5q-57 0 -87.5 -14.5t-45 -35.5t-17 -44.5t-2.5 -42.5v-55h176v-42h-176v-332q0 -35 -8 -60.5t-36 -46.5q-33 -25 -76 -34t-86 -9q-13 0 -26 1t-24 3l4 50q15 -2 33 -4t35 -2q33 0 68 9t51 28q11 14 13 33t2 39v325h-107v42h107v60
q0 22 5 53t26.5 59t64.5 47.5t119 19.5q22 0 38 -1t26 -3z" />
    <glyph glyph-name="circumflex" unicode="&#x2c6;" 
d="M428 527l-32 -25l-101 66l-91 -66l-33 24l88 95h77z" />
    <glyph glyph-name="tilde" unicode="&#x2dc;" 
d="M460 606q-2 -2 -2 -7q-12 -42 -39 -63.5t-59 -21.5q-17 0 -32.5 7t-38.5 25q-24 18 -34 23.5t-21 5.5q-20 0 -32 -16t-20 -36q0 -1 -1 -3l-1 -3l-40 14q14 38 35.5 63.5t58.5 25.5q24 0 41 -10t33 -24q19 -14 31.5 -20.5t23.5 -6.5q13 0 22.5 6.5t16 16t11 19.5t7.5 18z
" />
    <glyph glyph-name="FL1200h" unicode="&#x1200;" horiz-adv-x="596" 
d="M381 59v-20q13 0 30.5 -6t34 -14.5t29.5 -17.5t18 -15l71 72l-8 11l-18 -16l-27 26v459q31 0 53 21t22 49q0 22 -11 31.5t-26 14.5l-5 -7q11 -2 19 -10t8 -17q0 -12 -11 -20.5t-27 -8.5q-14 0 -31 7.5t-33.5 20t-29.5 29.5t-17 36h-16q-5 -23 -25.5 -47t-43.5 -36v-13
q9 0 19 -3t19 -7.5t15 -11t6 -12.5v-457l-119 -57l-57 40v483q0 35 -9 58.5t-25 37.5t-37 19.5t-45 5.5q-18 0 -36.5 -8t-33.5 -21t-24.5 -30t-9.5 -34q0 -12 2 -16h5q0 18 17 29.5t37 11.5q18 0 30.5 -14.5t12.5 -43.5v-458q0 -20 -15 -20v-20q17 0 34 -8t33 -19.5t30 -24
l25 -21.5l185 93v-1q0 -20 -15 -20z" />
    <glyph glyph-name="FL1201h" unicode="&#x1201;" horiz-adv-x="746" 
d="M381 57v-20q13 0 30.5 -6t34 -14.5t29.5 -17.5t18 -15l71 72l-8 11l-18 -16l-27 26v271l41 28l44 -36q-5 -7 -6 -22t-1 -20q0 -15 6 -28t16 -23.5t23 -16.5t27 -6q36 0 55.5 10t19.5 36q0 11 -2 15.5t-5 7.5h-13q2 -3 4.5 -9.5t2.5 -10.5q0 -11 -9 -15.5t-20 -4.5
q-10 0 -19 15.5t-9 34.5q0 11 11 29.5t29 32.5v13q-9 0 -24 6.5t-29.5 15t-25.5 17.5t-11 15h-14l-91 -61v167q31 0 53 21t22 49q0 22 -11 31.5t-26 14.5l-5 -7q11 -2 19 -10t8 -17q0 -12 -11 -20.5t-27 -8.5q-14 0 -31 7.5t-33.5 20t-29.5 29.5t-17 36h-16
q-5 -23 -25.5 -47t-43.5 -36v-12q9 0 19 -3t19 -7.5t15 -11t6 -12.5v-454l-119 -61l-57 40v483q0 35 -9 58.5t-25 37.5t-37 19.5t-45 5.5q-18 0 -36.5 -8t-33.5 -21t-24.5 -30t-9.5 -34q0 -12 2 -16h5q0 18 17 29.5t37 11.5q18 0 30.5 -14.5t12.5 -43.5v-458q0 -20 -15 -20
v-20q17 0 34 -8t33 -19.5t30 -24l25 -21.5l185 97v-7q0 -20 -15 -20z" />
    <glyph glyph-name="FL1202h" unicode="&#x1202;" horiz-adv-x="671" 
d="M353 79v-19q8 0 25.5 -10.5t35.5 -23.5t31.5 -25t13.5 -15h15l53 39.5t48.5 32.5t39 22t24.5 8v13q-9 7 -17.5 17.5t-14.5 21.5t-10 21t-4 16q0 26 8 39.5t18 13.5q11 0 19 -7.5t8 -18.5v-1h15v1q0 16 -7 24t-14 13t-19 8.5t-41 3.5q-14 0 -26 -7t-21 -17.5t-14 -22.5
t-5 -21q0 -16 5 -35t12.5 -36t16.5 -30t18 -17l-45 -28q-15 0 -25.5 8t-10.5 19v509q31 0 53 21t22 49q0 22 -11 31.5t-26 14.5l-5 -7q11 -2 19 -10t8 -17q0 -12 -11 -20.5t-27 -8.5q-14 0 -31 7.5t-33.5 20t-29.5 29.5t-17 36h-16q-5 -23 -25.5 -47t-43.5 -36v-13
q9 0 19 -3t19 -7.5t15 -11t6 -12.5v-215l-94 -36l-56 45v215q0 35 -9 58.5t-25 37.5t-37 19.5t-45 5.5q-18 0 -36.5 -8t-33.5 -21t-24.5 -30t-9.5 -34q0 -12 2 -16h5q0 18 17 29.5t37 11.5q18 0 30.5 -14.5t12.5 -43.5v-190q0 -20 -15 -20v-20q17 0 34 -8t33 -19.5t30 -24
l25 -21.5l159 62v-253q0 -14 -4.5 -18t-12.5 -4z" />
    <glyph glyph-name="FL1203h" unicode="&#x1203;" horiz-adv-x="570" 
d="M355 60v-20q13 0 30.5 -6t34 -14.5t29.5 -17.5t18 -15l71 72l-8 11l-18 -16l-27 26v493q31 0 53 21t22 49q0 22 -11 31.5t-26 14.5l-5 -7q11 -2 19 -10t8 -17q0 -12 -11 -20.5t-27 -8.5q-14 0 -31 7.5t-33.5 20t-29.5 29.5t-17 36h-16q-5 -23 -25.5 -47t-43.5 -36v-13
q9 0 19 -3t19 -7.5t15 -11t6 -12.5v-215l-94 -34l-56 43v215q0 35 -9 58.5t-25 37.5t-37 19.5t-45 5.5q-18 0 -36.5 -8t-33.5 -21t-24.5 -30t-9.5 -34q0 -12 2 -16h5q0 18 17 29.5t37 11.5q18 0 30.5 -14.5t12.5 -43.5v-190q0 -20 -15 -20v-20q17 0 34 -8t33 -19.5t30 -24
l25 -21.5l159 62v-272q0 -20 -15 -20z" />
    <glyph glyph-name="FL1204h" unicode="&#x1204;" horiz-adv-x="622" 
d="M355 79v-20q8 0 25 -10.5l35.5 -23t33.5 -24.5t18 -15l145 66v13q-5 -4 -15 -5v154q-3 0 -11 2t-16 6t-14.5 10t-6.5 13h-15q0 -3 -5.5 -8t-13.5 -11t-16.5 -11t-13.5 -7v366q31 0 53 21t22 49q0 22 -11 31.5t-26 14.5l-5 -7q11 -2 19 -10t8 -17q0 -12 -11 -20.5
t-27 -8.5q-14 0 -31 7.5t-33.5 20t-29.5 29.5t-17 36h-16q-5 -23 -25.5 -47t-43.5 -36v-13q9 0 19 -3t19 -7.5t15 -11t6 -12.5v-215l-94 -35l-56 44v215q0 35 -9 58.5t-25 37.5t-37 19.5t-45 5.5q-18 0 -36.5 -8t-33.5 -21t-24.5 -30t-9.5 -34q0 -12 2 -16h5q0 18 17 29.5
t37 11.5q18 0 30.5 -14.5t12.5 -43.5v-190q0 -20 -15 -20v-20q17 0 34 -8t33 -19.5t30 -24l25 -21.5l159 62v-253q0 -9 -3.5 -15t-11.5 -6zM551 192v-137l-10 -4q-26 0 -41 5.5t-15 25.5v110q14 6 23.5 12t18.5 11z" />
    <glyph glyph-name="FL1205h" unicode="&#x1205;" horiz-adv-x="596" 
d="M381 57v-20q13 0 30.5 -6t34 -14.5t29.5 -17.5t18 -15l71 72l-8 11l-18 -16l-27 26v461q31 0 53 21t22 49q0 22 -11 31.5t-26 14.5l-5 -7q11 -2 19 -10t8 -17q0 -12 -11 -20.5t-27 -8.5q-14 0 -31 7.5t-33.5 20t-29.5 29.5t-17 36h-16q-5 -23 -25.5 -47t-43.5 -36v-13
q9 0 19 -3t19 -7.5t15 -11t6 -12.5v-455l-119 -60l-57 41v483q0 35 -9 58.5t-25 37.5t-37 19.5t-45 5.5q-18 0 -36.5 -8t-33.5 -21t-24.5 -30t-9.5 -34q0 -12 2 -16h5q0 18 17 29.5t37 11.5q18 0 30.5 -14.5t12.5 -43.5v-93q11 0 26.5 -9.5t30 -25t24.5 -35t10 -39.5
q-8 13 -20.5 22.5t-25.5 16t-25.5 10t-19.5 3.5v-308q0 -20 -15 -20v-20q17 0 34 -8t33 -19.5t30 -24l25 -21.5l185 95v-5q0 -20 -15 -20z" />
    <glyph glyph-name="FL1206h" unicode="&#x1206;" horiz-adv-x="647" 
d="M381 54v-20q13 0 30.5 -6t34 -14.5t29.5 -17.5t18 -15l71 72l-8 11l-18 -16l-27 26v284q5 4 23 13t39 18t39.5 16t24.5 7v10q-15 0 -15 20v159q-18 0 -50 4t-64 13.5t-57 25.5t-29 40h-16q-2 -12 -8.5 -25.5t-16 -25.5t-21 -21t-23.5 -11v-12q9 0 19 -3t19 -7.5t15 -11
t6 -12.5v-456l-119 -58l-57 40v483q0 35 -9 58.5t-25 37.5t-37 19.5t-45 5.5q-18 0 -36.5 -8t-33.5 -21t-24.5 -30t-9.5 -34q0 -12 2 -16h5q0 18 17 29.5t37 11.5q18 0 30.5 -14.5t12.5 -43.5v-458q0 -20 -15 -20v-20q17 0 34 -8t33 -19.5t30 -24l25 -21.5l185 94v-8
q0 -20 -15 -20zM576 405l-65 -31v142q0 38 19 51t46 13v-175z" />
    <glyph glyph-name="FL1208h" unicode="&#x1208;" horiz-adv-x="579" 
d="M103 63q0 -20 -15 -20v-20q13 0 30.5 -6t34 -14.5t30 -17.5t18.5 -15l71 72l-8 11l-18 -16l-27 26v273q0 7 9.5 21t24.5 27.5t33 23.5t35 10l54 -345q0 -10 -4 -26t-26 -33l44 8q17 -17 47 -26t59 -9q32 0 53 23t21 65q0 11 -2.5 19t-4.5 12l-9 -2l2.5 -13t1.5 -10
q0 -15 -10 -23t-18 -8q-16 0 -26 9.5t-12 23.5l-18 126l-16 109.5l-12 80.5t-6 40q-5 24 -21 52t-38 54.5t-46 49.5t-45 37l-47.5 36t-26.5 18h-26q0 -8 -9 -22.5t-23 -29t-32.5 -25.5t-36.5 -11q-10 0 -23 3t-13 12q0 6 2 12h-11q-1 -2 -3 -5t-2 -9q0 -21 22 -30t55 -9
q31 0 51.5 2t34.5 7t24 12t21 18q4 -1 16.5 -15t26.5 -34q4 -8 8.5 -25.5t8.5 -36.5t7 -37t5 -27q-11 0 -27 -5.5t-31.5 -14.5t-27 -20t-13.5 -22q0 16 -11.5 32t-29 28t-37.5 19.5t-38 7.5t-36 -7t-33 -19t-24.5 -28t-9.5 -33q0 -6 2.5 -13.5t7.5 -7.5v2q-3 1 -3.5 5
t-0.5 5q0 18 17 27t37 9q18 0 30.5 -15.5t12.5 -37.5v-285z" />
    <glyph glyph-name="FL1209h" unicode="&#x1209;" horiz-adv-x="668" 
d="M103 63q0 -20 -15 -20v-20q13 0 30.5 -6t34 -15t30 -18t18.5 -15l71 52l-8 11l-19 -15l-26 25v294q0 7 9.5 21t24.5 27.5t33 23.5t35 10l54 -345q0 -10 -4 -26t-26 -33l44 8q17 -17 47 -26t59 -9q32 0 53 23t21 65q0 11 -2.5 19t-4.5 12l-9 -2l2.5 -13t1.5 -10
q0 -15 -10 -23t-18 -8q-16 0 -26 9.5t-12 23.5l-25.5 172.5l-18.5 130.5l27 19l44 -36q-5 -7 -6 -22t-1 -20q0 -15 6 -28t16 -23.5t23 -16.5t27 -6q36 0 55.5 10t19.5 36q0 11 -2 15.5t-5 7.5h-13q2 -3 4.5 -9.5t2.5 -10.5q0 -11 -9 -15.5t-20 -4.5q-10 0 -19 15.5t-9 34.5
q0 11 11 29.5t29 32.5v13q-9 0 -24 6.5t-29.5 15t-25.5 17.5t-11 15h-14l-80 -55l-5 33q-1 20 -17.5 47t-39.5 54t-48.5 52t-44.5 40l-47 35.5t-27 18.5h-26q0 -8 -9 -22.5t-23 -29t-32.5 -25.5t-36.5 -11q-10 0 -23 3t-13 12q0 6 2 12h-11q-1 -2 -3 -5t-2 -9
q0 -21 22 -33.5t55 -12.5q31 0 51.5 3t34.5 9t24 14.5t21 19.5q4 -1 18.5 -14.5t24.5 -34.5q6 -13 10.5 -30.5t8 -35.5t6 -34.5t4.5 -25.5q-11 0 -27 -5.5t-31.5 -14.5t-27 -20t-13.5 -22q0 16 -11.5 32t-29 28t-37.5 19.5t-38 7.5t-36 -7t-33 -19t-24.5 -28t-9.5 -33
q0 -6 2.5 -13.5t7.5 -7.5v2q-3 1 -3.5 5t-0.5 5q0 18 17 27t37 9q18 0 30.5 -15.5t12.5 -37.5v-285z" />
    <glyph glyph-name="FL120Ah" unicode="&#x120a;" horiz-adv-x="685" 
d="M460 -13h15q27 21 56 40t55 33.5t45.5 23t27.5 8.5v13q-19 14 -34.5 36t-15.5 39q0 22 8 38t19 16q9 0 17 -7.5t8 -18.5h14q0 29 -15.5 39t-58.5 10q-27 0 -47 -19.5t-20 -48.5q0 -40 14.5 -73t36.5 -42l-44 -26q-16 6 -30.5 23.5t-16.5 30.5q-1 7 -2.5 15l-4 22t-6 36.5
l-9 57.5l-14 85.5l-19.5 120.5q-4 25 -20.5 53t-38 54t-46 49t-45.5 37l-47.5 36t-26.5 18h-26q0 -8 -9 -22.5t-23 -29t-32.5 -25.5t-36.5 -11q-10 0 -23 3t-13 12q0 6 2 12h-11q-1 -2 -3 -5t-2 -9q0 -21 22 -30t55 -9q31 0 51.5 2t34.5 7t24 12t21 18q4 -1 16.5 -15
t26.5 -34q4 -8 8.5 -25.5t8.5 -36.5t7 -37t5 -27q-11 0 -27 -5.5t-31.5 -14.5t-27 -20t-13.5 -22q0 16 -11.5 32t-29 28t-37.5 19.5t-38 7.5t-36 -7t-33 -19t-24.5 -28t-9.5 -33q0 -6 2.5 -13.5t7.5 -7.5v2q-3 1 -3.5 5t-0.5 5q0 18 17 27t37 9q18 0 30.5 -15.5t12.5 -37.5
v-286q0 -20 -15 -20v-20q13 0 30.5 -6t34 -14t30 -17t18.5 -15l71 52l-8 11l-19 -15l-26 25v293q0 7 9.5 21t24.5 27.5t33 23.5t35 10l55 -326q0 -15 -8.5 -32.5t-19.5 -26.5q64 -14 88 -28t24 -18z" />
    <glyph glyph-name="FL120Bh" unicode="&#x120b;" horiz-adv-x="579" 
d="M103 178q0 -20 -15 -20v-20q13 0 30.5 -7t34 -16t30 -19t18.5 -16l71 52l-8 11l-22 -15l-23 25v183q0 7 9.5 21t24.5 27.5t33 23.5t35 10l54 -345q0 -10 -4 -26t-26 -33l44 8q17 -17 47 -26t59 -9q32 0 53 23t21 65q0 11 -2.5 19t-4.5 12l-9 -2l2.5 -13t1.5 -10
q0 -15 -10 -23t-18 -8q-16 0 -26 9.5t-12 23.5l-18 126l-16 109.5l-12 80.5t-6 40q-5 24 -21 52t-38 54.5t-46 49.5t-45 37l-47.5 36t-26.5 18h-26q0 -8 -9 -22.5t-23 -29t-32.5 -25.5t-36.5 -11q-10 0 -23 3t-13 12q0 6 2 12h-11q-1 -2 -3 -5t-2 -9q0 -21 22 -30t55 -9
q31 0 51.5 2t34.5 7t24 12t21 18q4 -1 16.5 -15t26.5 -34q4 -8 8.5 -25.5t8.5 -36.5t7 -37t5 -27q-11 0 -27 -5.5t-31.5 -14.5t-27 -20t-13.5 -22q0 16 -11.5 32t-29 28t-37.5 19.5t-38 7.5t-36 -7t-33 -19t-24.5 -28t-9.5 -33q0 -6 2.5 -13.5t7.5 -7.5v2q-3 1 -3.5 5
t-0.5 5q0 18 17 27t37 9q18 0 30.5 -15.5t12.5 -37.5v-170z" />
    <glyph glyph-name="FL120Ch" unicode="&#x120c;" horiz-adv-x="635" 
d="M487 -13q18 20 40 35.5t42 26t35.5 16t20.5 5.5v10q-7 0 -14 8.5t-7 17.5l-16 106q0 10 10 24t10 23q0 12 -1 16.5t-3 7.5h-7q0 -40 -48 -40q-26 0 -42.5 4.5t-26 11.5t-13.5 16t-5 18l-23 146q-4 24 -20.5 52t-38 54.5t-46 49.5t-45.5 37l-47.5 36t-26.5 18h-26
q0 -8 -9 -22.5t-23 -29t-32.5 -25.5t-36.5 -11q-10 0 -23 3t-13 12q0 6 2 12h-11q-1 -2 -3 -5t-2 -9q0 -21 22 -30t55 -9q31 0 51.5 2t34.5 7t24 12t21 18q4 -1 16.5 -15t26.5 -34q4 -8 8.5 -25.5t8.5 -36.5t7 -37t5 -27q-11 0 -27 -5.5t-31.5 -14.5t-27 -20t-13.5 -22
q0 16 -11.5 32t-29 28t-37.5 19.5t-38 7.5t-36 -7t-33 -19t-24.5 -28t-9.5 -33q0 -6 2.5 -13.5t7.5 -7.5v2q-3 1 -3.5 5t-0.5 5q0 18 17 27t37 9q18 0 30.5 -15.5t12.5 -37.5v-285q0 -20 -15 -20v-20q13 0 30.5 -6t34 -14.5t30 -17.5t18.5 -15l71 52l-8 11l-22 -16l-23 26
v293q0 7 9.5 21t24.5 27.5t33 23.5t35 10l56 -329q0 -10 -6 -26.5t-28 -33.5q10 0 27.5 -3.5t35.5 -9t34 -13t22 -16.5h25zM503 24l-26 168q0 12 8 18.5t18.5 10t22 4t18.5 0.5l22 -160q-17 -8 -32.5 -19z" />
    <glyph glyph-name="FL120Dh" unicode="&#x120d;" horiz-adv-x="594" 
d="M103 63q0 -20 -15 -20v-20q13 0 30.5 -6t34 -15t30 -18t18.5 -15l129 85l-8 14l-15 -10v174q-11 -5 -17.5 -7.5t-22.5 -2.5q-20 0 -34 15t-14 26v75q0 7 12 21t29.5 27.5t38 23.5t37.5 10l54 -345q0 -10 -4 -26t-26 -33l44 8q17 -17 47 -26t59 -9q32 0 53 23t21 65
q0 11 -2.5 19t-4.5 12l-9 -2l2.5 -13t1.5 -10q0 -15 -10 -23t-18 -8q-16 0 -26 9.5t-12 23.5l-18 126l-16 109.5l-12 80.5t-6 40q-5 24 -21 52t-38 54.5t-46 49.5t-45 37l-47.5 36t-26.5 18h-26q0 -8 -9 -22.5t-23 -29t-32.5 -25.5t-36.5 -11q-10 0 -23 3t-13 12q0 6 2 12
h-11q-1 -2 -3 -5t-2 -9q0 -21 22 -30t55 -9q31 0 51.5 2t34.5 7t24 12t21 18q4 -1 16.5 -15t26.5 -34q4 -8 8.5 -25.5t8.5 -36.5t7 -37t5 -27q-11 0 -29.5 -5.5t-36.5 -14.5t-32 -20t-16 -22q0 16 -11.5 32t-29 28t-37.5 19.5t-38 7.5t-36 -7t-33 -19t-24.5 -28t-9.5 -33
q0 -6 2.5 -13.5t7.5 -7.5v2q-3 1 -3.5 5t-0.5 5q0 18 17 27t37 9q18 0 30.5 -15.5t12.5 -37.5v-287zM243 16l-24 26v108q0 20 4.5 31t12 16.5t15.5 7t16 1.5v-174z" />
    <glyph glyph-name="FL120Eh" unicode="&#x120e;" horiz-adv-x="699" 
d="M103 63q0 -20 -15 -20v-20q13 0 30.5 -6t34 -14.5t30 -17.5t18.5 -15l71 52l-8 11l-22 -15l-23 25v293q0 7 9.5 21t24.5 27.5t33 23.5t35 10l54 -345q0 -10 -4 -26t-26 -33l44 8q17 -17 47 -26t59 -9q32 0 53 23t21 65q0 11 -2.5 19t-4.5 12l-9 -2l2.5 -13t1.5 -10
q0 -15 -10 -23t-18 -8q-16 0 -26 9.5t-12 23.5l-18 126l-16 109.5l-12 80.5t-6 40q-2 13 -8.5 27t-14.5 29l38 12q23 0 39.5 -11t16.5 -25v-108q0 -14 -4 -19t-9 -5v-20q7 0 19.5 -5.5t23.5 -12t19.5 -13t8.5 -8.5h19l102 45v135q-13 0 -25.5 10t-15.5 21h-13
q0 -8 -10.5 -17.5t-31.5 -16.5v54q-9 0 -23.5 5.5t-28.5 13.5t-24 16t-10 13h-14q0 -8 -24.5 -22.5t-60.5 -29.5q-24 38 -58.5 71.5t-60.5 53.5l-47.5 36t-26.5 18h-26q0 -8 -9 -22.5t-23 -29t-32.5 -25.5t-36.5 -11q-10 0 -23 3t-13 12q0 6 2 12h-11q-1 -2 -3 -5t-2 -9
q0 -21 22 -30t55 -9q31 0 51.5 2t34.5 7t24 12t21 18q4 -1 18 -13.5t25 -35.5q4 -8 8 -25t8 -36.5l7.5 -37.5t5.5 -27q-11 0 -27 -5.5t-31.5 -14.5t-27 -20t-13.5 -22q0 16 -11.5 32t-29 28t-37.5 19.5t-38 7.5t-36 -7t-33 -19t-24.5 -28t-9.5 -33q0 -6 2.5 -13.5t7.5 -7.5
v2q-3 1 -3.5 5t-0.5 5q0 18 17 27t37 9q18 0 30.5 -15.5t12.5 -37.5v-285zM640 446v-125l-21 -10q-16 0 -21 15t-5 29v85q8 0 21 7.5t18 11.5z" />
    <glyph glyph-name="l8" unicode="&#x120f;" horiz-adv-x="716" 
d="M586 -67q0 12 7.5 31.5t18.5 38t23.5 32t23.5 13.5q14 0 21 -7.5t7 -13.5t-3.5 -13.5t-7.5 -14t-8 -10.5l-4 -4l1 -13q3 0 10 4.5t13.5 11t12 16t5.5 20.5q0 20 -9 33.5t-22 22t-28 12t-26 3.5q-12 0 -28.5 -8t-31 -22.5t-24.5 -34t-10 -42.5l-24 13l-46 312t-18 126
q-5 24 -21 52t-38 54.5t-46 49.5t-45 37l-47.5 36t-26.5 18h-26q0 -8 -9 -22.5t-23 -29t-32.5 -25.5t-36.5 -11q-10 0 -23 3t-13 12q0 6 2 12h-11q-1 -2 -3 -5t-2 -9q0 -21 22 -30t55 -9q31 0 51.5 2t34.5 7t24 12t21 18q4 -1 16.5 -15t26.5 -34q4 -8 8.5 -25.5t8.5 -36.5
t7 -37t5 -27q-11 0 -27 -5.5t-31.5 -14.5t-27 -20t-13.5 -22q0 16 -11.5 32t-29 28t-37.5 19.5t-38 7.5t-36 -7t-33 -19t-24.5 -28t-9.5 -33q0 -6 2.5 -13.5t7.5 -7.5v2q-3 1 -3.5 5t-0.5 5q0 18 17 27t37 9q18 0 30.5 -15.5t12.5 -37.5v-173q0 -20 -15 -20v-20
q13 0 30.5 -6.5t34 -15t30 -18t18.5 -15.5l71 52l-8 11l-23 -15l-22 25v183q0 7 9.5 21t24.5 27.5t33 23.5t35 10l60 -372q-38 16 -64 28.5t-26 20.5h-16q0 -13 -5.5 -34.5t-14 -42.5t-19 -36t-20.5 -15q-11 0 -19 7.5t-10 26.5l-7 -1v-7q0 -4 1 -9q5 -35 25 -48t44 -13
q12 0 28.5 10t32 26t26.5 36t11 39q21 -11 59 -26l75.5 -30t65 -27.5t27.5 -18.5z" />
    <glyph glyph-name="hh1" unicode="&#x1210;" horiz-adv-x="679" 
d="M486 60v-20q13 0 30.5 -6t34 -14.5t29.5 -17.5t18 -15l71 72l-8 11l-18 -16l-27 26v288q0 20 10.5 32t23.5 12v14q-16 0 -38.5 4.5t-43 11.5t-35 16t-14.5 17h-14q0 -10 -12.5 -20.5t-29.5 -19t-34.5 -14t-27.5 -5.5v153q0 13 11 23t24 10v23q-14 0 -35 8.5t-40.5 20.5
t-34 24t-14.5 19h-16q0 -7 -8.5 -18t-20 -21.5t-23 -18t-17.5 -7.5v-13q6 0 16 -3t19.5 -7.5t16.5 -11t7 -12.5v-169h-100q0 14 -8 27.5t-22 24t-33 17t-40 6.5q-38 0 -60.5 -14t-22.5 -37v-10t2 -10h9q1 14 8.5 23.5t20.5 9.5q12 0 21 -11.5t9 -41.5v-322q0 -20 -15 -20
v-20q13 0 30.5 -6t34 -14.5t30 -17.5t18.5 -15l71 72l-8 11l-18 -16l-27 26v324h100v-376l104 -39l61 83l-11 8l-11 -15l-28 17v322q9 0 20 2t21.5 5.5t18 7t10.5 6.5l30 -18v-325q0 -20 -15 -20z" />
    <glyph glyph-name="hh2" unicode="&#x1211;" horiz-adv-x="837" 
d="M486 59v-20q13 0 30.5 -6t34 -14.5t29.5 -17.5t18 -15l71 72l-8 11l-18 -16l-27 26v205l27 19l44 -36q-5 -7 -6 -22t-1 -20q0 -15 6 -28.5t16 -24t23 -16.5t27 -6q36 0 55.5 10.5t19.5 36.5q0 11 -2 15.5t-5 7.5h-13q2 -3 4.5 -9.5t2.5 -10.5q0 -11 -9 -15.5t-20 -4.5
q-10 0 -19 15.5t-9 34.5q0 11 11 29.5t29 32.5v13q-9 0 -24 6.5t-29.5 15t-25.5 17.5t-11 15h-14l-77 -52v61q0 20 10.5 32t23.5 12v14q-16 0 -38.5 4.5t-43 11.5t-35 16t-14.5 17h-14q0 -10 -12.5 -20.5t-29.5 -19t-34.5 -14t-27.5 -5.5v153q0 13 11 23t24 10v23
q-14 0 -35 8.5t-40.5 20.5t-34 24t-14.5 19h-16q0 -7 -8.5 -18t-20 -21.5t-23 -18t-17.5 -7.5v-13q6 0 16 -3t19.5 -7.5t16.5 -11t7 -12.5v-169h-100q0 14 -8 27.5t-22 24t-33 17t-40 6.5q-38 0 -60.5 -14t-22.5 -37v-10t2 -10h9q1 14 8.5 23.5t20.5 9.5q12 0 21 -11.5
t9 -41.5v-322q0 -20 -15 -20v-20q13 0 30.5 -6t34 -14.5t30 -17.5t18.5 -15l71 72l-8 11l-18 -16l-27 26v324h100v-376l104 -39l61 83l-11 8l-11 -15l-28 17v322q9 0 20 2t21.5 5.5t18 7t10.5 6.5l30 -18v-326q0 -20 -15 -20z" />
    <glyph glyph-name="hh3" unicode="&#x1212;" horiz-adv-x="802" 
d="M484 61v-19q8 0 27.5 -7.5t40 -17t36 -18.5t15.5 -12q66 42 108.5 72t58.5 30v13q-9 7 -17.5 17.5t-14.5 21.5t-10 21t-4 16q0 26 8 39.5t18 13.5q11 0 19 -7.5t8 -18.5v-1h15v1q0 16 -7 24t-14 13t-19 8.5t-41 3.5q-14 0 -26 -7t-21 -17.5t-14 -22.5t-5 -21q0 -16 5 -35
t12.5 -36t16.5 -30t18 -17l-45 -28q-15 0 -25.5 8t-10.5 19v301q0 20 10.5 32t23.5 12v14q-16 0 -38.5 4.5t-43 11.5t-35 16t-14.5 17h-14q0 -10 -12.5 -20.5t-29.5 -19t-34.5 -14t-27.5 -5.5v153q0 13 11 23t24 10v23q-14 0 -35 8.5t-40.5 20.5t-34 24t-14.5 19h-16
q0 -7 -8.5 -18t-20 -21.5t-23 -18t-17.5 -7.5v-13q6 0 16 -3t19.5 -7.5t16.5 -11t7 -12.5v-169h-100q0 14 -8 27.5t-22 24t-33 17t-40 6.5q-38 0 -60.5 -14t-22.5 -37v-10t2 -10h9q1 14 8.5 23.5t20.5 9.5q12 0 21 -11.5t9 -41.5v-322q0 -20 -15 -20v-20q13 0 30.5 -6
t34 -14.5t30 -17.5t18.5 -15l71 72l-8 11l-18 -16l-27 26v324h100v-376l104 -39l61 83l-11 8l-11 -15l-28 17v322q9 0 20 2t21.5 5.5t18 7t10.5 6.5l30 -18v-322q0 -14 -4.5 -18t-12.5 -4z" />
    <glyph glyph-name="hh4" unicode="&#x1213;" horiz-adv-x="679" 
d="M486 59v-20q13 0 30.5 -6t34 -14.5t29.5 -17.5t18 -15l71 72l-8 11l-18 -16l-27 26v289q0 20 10.5 32t23.5 12v14q-16 0 -38.5 4.5t-43 11.5t-35 16t-14.5 17h-14q0 -10 -12.5 -20.5t-29.5 -19t-34.5 -14t-27.5 -5.5v153q0 13 11 23t24 10v23q-14 0 -35 8.5t-40.5 20.5
t-34 24t-14.5 19h-16q0 -7 -8.5 -18t-20 -21.5t-23 -18t-17.5 -7.5v-13q6 0 16 -3t19.5 -7.5t16.5 -11t7 -12.5v-169h-100q0 14 -8 27.5t-22 24t-33 17t-40 6.5q-38 0 -60.5 -14t-22.5 -37v-10t2 -10h9q1 14 8.5 23.5t20.5 9.5q12 0 21 -11.5t9 -41.5v-186q0 -20 -15 -20
v-20q13 0 30.5 -6t34 -14.5t30 -17.5t18.5 -15l71 72l-8 11l-18 -16l-27 26v188h100v-240l104 -39l61 83l-11 8l-11 -15l-28 17v186q9 0 20 2t21.5 5.5t18 7t10.5 6.5l30 -18v-326q0 -20 -15 -20z" />
    <glyph glyph-name="hh5" unicode="&#x1214;" horiz-adv-x="753" 
d="M486 63v-20q8 0 25 -8l35.5 -17.5t33.5 -19t18 -12.5l145 66v13q-5 -4 -15 -5v154q-3 0 -11 2t-16 6t-14.5 10t-6.5 13h-15q0 -3 -5.5 -8t-13.5 -11t-16.5 -11t-13.5 -7v160q0 20 10.5 32t23.5 12v14q-16 0 -38.5 4.5t-43 11.5t-35 16t-14.5 17h-14q0 -10 -12.5 -20.5
t-29.5 -19t-34.5 -14t-27.5 -5.5v153q0 13 11 23t24 10v23q-14 0 -35 8.5t-40.5 20.5t-34 24t-14.5 19h-16q0 -7 -8.5 -18t-20 -21.5t-23 -18t-17.5 -7.5v-13q6 0 16 -3t19.5 -7.5t16.5 -11t7 -12.5v-169h-100q0 14 -8 27.5t-22 24t-33 17t-40 6.5q-38 0 -60.5 -14
t-22.5 -37v-10t2 -10h9q1 14 8.5 23.5t20.5 9.5q12 0 21 -11.5t9 -41.5v-322q0 -20 -15 -20v-20q13 0 30.5 -6t34 -14.5t30 -17.5t18.5 -15l71 72l-8 11l-18 -16l-27 26v324h100v-376l104 -39l61 83l-11 8l-11 -15l-28 17v322q9 0 20 2t21.5 5.5t18 7t10.5 6.5l30 -18v-321
q0 -9 -3.5 -15t-11.5 -6zM682 192v-137l-23 -12q-26 0 -34.5 9.5t-8.5 29.5v110q14 6 23.5 12t18.5 11z" />
    <glyph glyph-name="hh6" unicode="&#x1215;" horiz-adv-x="679" 
d="M486 59v-20q13 0 30.5 -6t34 -14.5t29.5 -17.5t18 -15l71 72l-8 11l-18 -16l-27 26v289q0 20 10.5 32t23.5 12v14q-16 0 -38.5 4.5t-43 11.5t-35 16t-14.5 17h-14q0 -10 -12.5 -20.5t-29.5 -19t-34.5 -14t-27.5 -5.5v206q-5 0 -18.5 5.5t-31 14l-36.5 18.5t-34.5 20.5
t-25.5 19t-10 13.5h-14q0 -8 -7 -23t-19 -30t-28 -26.5t-34 -11.5q-20 0 -35 6.5t-15 13.5q0 9 2 12t3 5h-12q-5 -7 -5 -19q0 -21 22 -37t55 -16q36 0 64 4t64 23v-198h-100q0 14 -8 27.5t-22 24t-33 17t-40 6.5q-38 0 -60.5 -14t-22.5 -37v-10t2 -10h9q1 14 8.5 23.5
t20.5 9.5q12 0 21 -11.5t9 -41.5v-322q0 -20 -15 -20v-20q13 0 30.5 -6t34 -14.5t30 -17.5t18.5 -15l71 72l-8 11l-18 -16l-27 26v324h100v-376l104 -39l61 83l-11 8l-11 -15l-28 17v322q9 0 20 2t21.5 5.5t18 7t10.5 6.5l30 -18v-326q0 -20 -15 -20z" />
    <glyph glyph-name="hh7" unicode="&#x1216;" horiz-adv-x="679" 
d="M486 193v-20q13 0 30.5 -6t34 -14.5t29.5 -17.5t18 -15l71 72l-8 11l-18 -16l-27 26v155q0 20 10.5 32t23.5 12v14q-16 0 -38.5 4.5t-43 11.5t-35 16t-14.5 17h-14q0 -10 -12.5 -20.5t-29.5 -19t-34.5 -14t-27.5 -5.5v153q0 13 11 23t24 10v23q-14 0 -35 8.5t-40.5 20.5
t-34 24t-14.5 19h-16q0 -7 -8.5 -18t-20 -21.5t-23 -18t-17.5 -7.5v-13q6 0 16 -3t19.5 -7.5t16.5 -11t7 -12.5v-169h-100q0 14 -8 27.5t-22 24t-33 17t-40 6.5q-38 0 -60.5 -14t-22.5 -37v-10t2 -10h9q1 14 8.5 23.5t20.5 9.5q12 0 21 -11.5t9 -41.5v-322q0 -20 -15 -20
v-20q13 0 30.5 -6t34 -14.5t30 -17.5t18.5 -15l71 72l-8 11l-18 -16l-27 26v324h100v-242l104 -39l61 83l-11 8l-11 -15l-28 17v188q9 0 20 2t21.5 5.5t18 7t10.5 6.5l30 -18v-192q0 -20 -15 -20z" />
    <glyph glyph-name="FL1217h" unicode="&#x1217;" horiz-adv-x="836" 
d="M706 -63q0 12 7.5 31.5t18.5 38t23.5 32t23.5 13.5q14 0 21 -7.5t7 -13.5t-3.5 -13.5t-7.5 -14t-8 -10.5l-4 -4l1 -13q3 0 10 4.5t13.5 11t12 16t5.5 20.5q0 20 -9 33.5t-22 22t-28 12t-26 3.5q-12 0 -28.5 -8t-31 -22.5t-24.5 -34t-10 -42.5l-31 13v363q0 20 10.5 32
t23.5 12v14q-16 0 -38.5 4.5t-43 11.5t-35 16t-14.5 17h-14q0 -10 -12.5 -20.5t-29.5 -19t-34.5 -14t-27.5 -5.5v153q0 13 11 23t24 10v23q-14 0 -35 8.5t-40.5 20.5t-34 24t-14.5 19h-16q0 -7 -8.5 -18t-20 -21.5t-23 -18t-17.5 -7.5v-13q6 0 16 -3t19.5 -7.5t16.5 -11
t7 -12.5v-169h-100q0 14 -8 27.5t-22 24t-33 17t-40 6.5q-38 0 -60.5 -14t-22.5 -37v-10t2 -10h9q1 14 8.5 23.5t20.5 9.5q12 0 21 -11.5t9 -41.5v-186q0 -20 -15 -20v-20q13 0 30.5 -6t34 -14.5t30 -17.5t18.5 -15l71 72l-8 11l-18 -16l-27 26v188h100v-240l104 -39l61 83
l-11 8l-11 -15l-28 17v186q9 0 20 2t21.5 5.5t18 7t10.5 6.5l30 -18v-355q-38 16 -64 28.5t-26 20.5h-16q0 -13 -5.5 -34.5t-14 -42.5t-19 -36t-20.5 -15q-11 0 -19 7.5t-10 26.5l-7 -1v-7q0 -4 1 -9q5 -35 25 -48t44 -13q12 0 28.5 10t32 26t26.5 36t11 39q21 -11 59 -26
l75.5 -30t65 -27.5t27.5 -18.5z" />
    <glyph glyph-name="FL1218h" unicode="&#x1218;" horiz-adv-x="792" 
d="M83 612q-38 0 -60.5 -14t-22.5 -37v-10t2 -10h9q1 14 8.5 23.5t20.5 9.5q12 0 21 -11.5t9 -41.5v-435q0 -20 -15 -20v-20q13 0 30.5 -6t34 -14.5t30 -17.5t18.5 -15l86 69v-19q9 -6 22.5 -13l27 -14t24.5 -13.5l16 -9.5l52 44l-26 18v474q3 0 8 2.5t11 6t11 7t7 5.5
l42 -29v-435q0 -11 -3 -15t-9 -4v-20q6 0 24.5 -6.5t38 -15.5t35 -18t15.5 -14l83 51q28 -4 52 -15t34 -22l58 57l-8 11l-9 -10l-12 10v429q0 20 10.5 32t23.5 12v14q-16 0 -38.5 4.5t-43 11.5t-35 16t-14.5 17h-14q0 -6 -8.5 -17t-20.5 -22t-24 -19t-19 -8q-5 0 -18 8
t-29 19.5t-31.5 24.5t-24.5 22q-6 -10 -18.5 -23t-26.5 -24.5t-27 -19.5t-20 -8q-9 0 -23.5 7.5t-31 18.5t-33 24.5l-29.5 24.5q-15 -23 -30.5 -44t-36.5 -38q0 14 -8 27.5t-22 24t-33 17t-40 6.5zM565 68v462q3 0 9.5 3t13 6.5t12 7.5t6.5 6l27 -12v-472l-37 -24zM186 86
v427l26 26l42 -23v-434l-34 -25z" />
    <glyph glyph-name="FL1219h" unicode="&#x1219;" horiz-adv-x="977" 
d="M640 43q28 -4 52 -15t34 -22l58 57l-8 11l-9 -10l-12 10v286l28 20l44 -37q-5 -7 -6 -22t-1 -20q0 -15 6 -28t16 -23.5t23 -16.5t27 -6q36 0 55.5 10t19.5 36q0 11 -2 15.5t-5 7.5h-13q2 -3 4.5 -9.5t2.5 -10.5q0 -11 -9 -15.5t-20 -4.5q-10 0 -19 15.5t-9 34.5
q0 11 11 29.5t29 32.5v13q-9 0 -24 6.5t-29.5 15t-25.5 17.5t-11 15h-14l-78 -53v123q0 20 10.5 32t23.5 12v14q-16 0 -38.5 4.5t-43 11.5t-35 16t-14.5 17h-14q0 -6 -8.5 -17t-20.5 -22t-24 -19t-19 -8q-5 0 -18 8t-29 19.5t-31.5 24.5t-24.5 22q-6 -10 -19.5 -23
t-29 -24.5t-29.5 -19.5t-21 -8q-9 0 -23.5 7.5t-31 18.5t-33 24.5l-29.5 24.5q-15 -23 -30.5 -44t-36.5 -38q0 14 -8 27.5t-22 24t-33 17t-40 6.5q-38 0 -60.5 -14t-22.5 -37v-10t2 -10h9q1 14 8.5 23.5t20.5 9.5q12 0 21 -11.5t9 -41.5v-437q0 -20 -15 -20v-20
q13 0 30.5 -6t34 -14.5t30 -17.5t18.5 -15l86 69v-19q9 -6 22.5 -13l27 -14t24.5 -13.5l16 -9.5l52 44l-26 18v476q3 0 9.5 2.5t13.5 6t13 7t8 5.5l42 -29v-437q0 -11 -3 -15t-9 -4v-20q6 0 24.5 -6.5t38 -15.5t35 -18t15.5 -14zM613 554l27 -12v-474l-37 -24l-31 23v464
q3 0 9.5 3t13 6.5t12 7.5t6.5 6zM186 85v429l26 26l42 -23v-436l-34 -25z" />
    <glyph glyph-name="FL121Ah" unicode="&#x121a;" horiz-adv-x="936" 
d="M618 80v-19q8 0 25.5 -10.5t35.5 -23.5t31.5 -25t13.5 -15h15l53 39.5t48.5 32.5t39 22t24.5 8v13q-9 7 -17.5 17.5t-14.5 21.5t-10 21t-4 16q0 26 8 39.5t18 13.5q11 0 19 -7.5t8 -18.5v-1h15v1q0 16 -7 24t-14 13t-19 8.5t-41 3.5q-14 0 -26 -7t-21 -17.5t-14 -22.5
t-5 -21q0 -16 5 -35t12.5 -36t16.5 -30t18 -17l-45 -28q-15 0 -25.5 8t-10.5 19v509q0 20 10.5 32t23.5 12v14q-16 0 -38.5 4.5t-43 11.5t-35 16t-14.5 17h-14q0 -6 -8.5 -17t-20.5 -22t-24 -19t-19 -8q-5 0 -18 8t-29 19.5t-31.5 24.5t-24.5 22q-6 -10 -19 -23t-27 -24.5
t-27.5 -19.5t-20.5 -8q-9 0 -23.5 7.5t-31 18.5t-33 24.5l-29.5 24.5q-15 -23 -30.5 -44t-36.5 -38q0 14 -8 27.5t-22 24t-33 17t-40 6.5q-38 0 -60.5 -14t-22.5 -37v-10t2 -10h9q1 14 8.5 23.5t20.5 9.5q12 0 21 -11.5t9 -41.5v-246q0 -20 -15 -20v-20q13 0 30.5 -6
t34 -14.5t30 -17.5t18.5 -15l86 69v-19q9 -6 22.5 -13l27 -14t24.5 -13.5l16 -9.5l52 44l-26 18v285q3 0 8.5 2.5t11.5 6l11.5 7t7.5 5.5l42 -29v-246q0 -11 -3 -15t-9 -4v-20q6 0 24.5 -6.5t38 -15.5t35 -18t15.5 -14l83 55v-207q0 -14 -4.5 -18t-12.5 -4zM608 625l27 -20
v-276l-37 -23l-31 23v273q3 0 9.5 3t13 6.5t12 7.5t6.5 6zM186 347v238l26 26l42 -23v-245l-34 -25z" />
    <glyph glyph-name="FL121Bh" unicode="&#x121b;" horiz-adv-x="814" 
d="M620 61v-20q13 0 30.5 -6t34 -14.5t30 -17.5t18.5 -15l71 72l-8 11l-18 -16l-28 26v496q0 20 10.5 32t23.5 12v14q-16 0 -38.5 4.5t-43 11.5t-35 16t-14.5 17h-14q0 -6 -8.5 -17t-20.5 -22t-24 -19t-19 -8q-5 0 -18 8t-29 19.5t-31.5 24.5t-24.5 22q-6 -10 -19 -23
t-27 -24.5t-27.5 -19.5t-20.5 -8q-9 0 -23.5 7.5t-31 18.5t-33 24.5l-29.5 24.5q-15 -23 -30.5 -44t-36.5 -38q0 14 -8 27.5t-22 24t-33 17t-40 6.5q-38 0 -60.5 -14t-22.5 -37v-10t2 -10h9q1 14 8.5 23.5t20.5 9.5q12 0 21 -11.5t9 -41.5v-246q0 -20 -15 -20v-20
q13 0 30.5 -6t34 -14.5t30 -17.5t18.5 -15l86 69v-19q9 -6 22.5 -13l27 -14t24.5 -13.5l16 -9.5l52 44l-26 18v285q3 0 8.5 2.5t11.5 6l11.5 7t7.5 5.5l42 -29v-246q0 -11 -3 -15t-9 -4v-20q6 0 24.5 -6.5t38 -15.5t35 -18t15.5 -14l83 55v-229q0 -20 -15 -20zM608 626
l27 -12v-284l-37 -23l-31 23v273q3 0 9.5 3t13 6.5t12 7.5t6.5 6zM186 348v238l26 26l42 -23v-245l-34 -25z" />
    <glyph glyph-name="FL121Ch" unicode="&#x121c;" horiz-adv-x="885" 
d="M618 79v-20q8 0 25 -10.5l35.5 -23t33.5 -24.5t18 -15l145 66v13q-5 -4 -15 -5v154q-3 0 -11 2t-16 6t-14.5 10t-6.5 13h-15q0 -3 -5.5 -8t-13.5 -11t-16.5 -11t-13.5 -7v368q0 20 10.5 32t23.5 12v14q-16 0 -38.5 4.5t-43 11.5t-35 16t-14.5 17h-14q0 -6 -8.5 -17
t-20.5 -22t-24 -19t-19 -8q-5 0 -18 8t-29 19.5t-31.5 24.5t-24.5 22q-6 -10 -18.5 -23t-26.5 -24.5t-27 -19.5t-20 -8q-9 0 -23.5 7.5t-31 18.5t-33 24.5l-29.5 24.5q-15 -23 -30.5 -44t-36.5 -38q0 14 -8 27.5t-22 24t-33 17t-40 6.5q-38 0 -60.5 -14t-22.5 -37v-10t2 -10
h9q1 14 8.5 23.5t20.5 9.5q12 0 21 -11.5t9 -41.5v-246q0 -20 -15 -20v-20q13 0 30.5 -6t34 -14.5t30 -17.5t18.5 -15l86 69v-19q9 -6 22.5 -13l27 -14t24.5 -13.5l16 -9.5l52 44l-26 18v285q3 0 8 2.5t11 6t11 7t7 5.5l42 -29v-246q0 -11 -3 -15t-9 -4v-20q6 0 24.5 -6.5
t38 -15.5t35 -18t15.5 -14l83 55v-209q0 -9 -3.5 -15t-11.5 -6zM606 625l27 -12v-284l-37 -23l-31 23v273q3 0 9.5 3t13 6.5t12 7.5t6.5 6zM186 347v238l26 26l42 -23v-245l-34 -25zM814 192v-137l-10 -4q-26 0 -41 5.5t-15 25.5v110q14 6 23.5 12t18.5 11z" />
    <glyph glyph-name="FL121Dh" unicode="&#x121d;" horiz-adv-x="795" 
d="M42 64v-20q13 0 30.5 -6t34 -14.5t30 -17.5t18.5 -15l71 72l-8 11l-18 -16l-27 26v68l197 135v316q3 0 8.5 2.5t12 6t12 7t7.5 5.5l42 -29v-233q0 -11 -3 -15t-9 -4v-20q6 0 24.5 -6.5t38 -15.5t35 -18t15.5 -14l83 52q28 -4 52 -15t34 -22l58 57l-8 11l-9 -10l-12 10
v226q0 20 10.5 32t23.5 12v14q-16 0 -38.5 4.5t-43 11.5t-35 16t-14.5 17h-14q0 -6 -8.5 -17t-20.5 -22t-24 -19t-19 -8q-5 0 -18 8t-29 19.5t-31.5 24.5t-24.5 22q-6 -10 -19 -23t-27.5 -24.5t-28 -19.5t-20.5 -8q-9 0 -23.5 7.5t-31 18.5t-33 24.5l-29.5 24.5
q-15 -23 -30.5 -44t-36.5 -38q0 14 -8 27.5t-22 24t-33 17t-40 6.5q-38 0 -60.5 -14t-22.5 -37v-10t2 -10h9q1 14 8.5 23.5t20.5 9.5q12 0 21 -11.5t9 -41.5v-217q0 -20 -15 -20v-20q13 0 30.5 -6t34 -14.5t30 -17.5t18.5 -15l86 69v-40l-197 -150v-80q0 -20 -15 -20z
M609 627l27 -12v-274l-37 -20l-31 23v260q3 0 9.5 3t13 6.5t12 7.5t6.5 6zM186 378v209l26 26l42 -23v-216l-34 -25z" />
    <glyph glyph-name="FL121Eh" unicode="&#x121e;" horiz-adv-x="795" 
d="M239 58v-20q13 0 30.5 -6t34 -14.5t30 -17.5t18.5 -15l71 72l-8 11l-18 -16l-27 26v525q3 0 8.5 2.5t12 6t12 7t7.5 5.5l42 -29v-243q0 -11 -3 -15t-9 -4v-20q6 0 24.5 -6.5t38 -15.5t35 -18t15.5 -14l83 52q28 -4 52 -15t34 -22l58 57l-8 11l-9 -10l-12 10v236
q0 20 10.5 32t23.5 12v14q-16 0 -38.5 4.5t-43 11.5t-35 16t-14.5 17h-14q0 -6 -8.5 -17t-20.5 -22t-24 -19t-19 -8q-5 0 -18 8t-29 19.5t-31.5 24.5t-24.5 22q-7 -10 -20 -23t-27.5 -24.5t-27.5 -19.5t-20 -8q-9 0 -23.5 7.5t-31 18.5t-33 24.5l-29.5 24.5
q-15 -23 -30.5 -44t-36.5 -38q0 14 -8 27.5t-22 24t-33 17t-40 6.5q-38 0 -60.5 -14t-22.5 -37v-10t2 -10h9q1 14 8.5 23.5t20.5 9.5q12 0 21 -11.5t9 -41.5v-227q0 -20 -15 -20v-20q13 0 30.5 -6t34 -14.5t30 -17.5t18.5 -15l86 69v-266q0 -20 -15 -20zM609 627l27 -12
v-282l-37 -22l-31 23v270q3 0 9.5 3t13 6.5t12 7.5t6.5 6zM186 368v222l26 23l42 -23v-226l-34 -25z" />
    <glyph glyph-name="m8" unicode="&#x121f;" horiz-adv-x="970" 
d="M840 -49q0 12 7.5 31.5t18.5 38t23.5 32t23.5 13.5q14 0 21 -7.5t7 -13.5t-3.5 -13.5t-7.5 -14t-8 -10.5l-4 -4l1 -13q3 0 10 4.5t13.5 11t12 16t5.5 20.5q0 20 -9 33.5t-22 22t-28 12t-26 3.5q-12 0 -28.5 -8t-31 -22.5t-24.5 -34t-10 -42.5l-31 13v557q0 20 10.5 32
t23.5 12v14q-16 0 -38.5 4.5t-43 11.5t-35 16t-14.5 17h-14q0 -6 -8.5 -17t-20.5 -22t-24 -19t-19 -8q-5 0 -18 8t-29 19.5t-31.5 24.5t-24.5 22q-6 -10 -19 -23t-27 -24.5t-27.5 -19.5t-20.5 -8q-9 0 -23.5 7.5t-31 18.5t-33 24.5l-29.5 24.5q-15 -23 -30.5 -44t-36.5 -38
q0 14 -8 27.5t-22 24t-33 17t-40 6.5q-38 0 -60.5 -14t-22.5 -37v-10t2 -10h9q1 14 8.5 23.5t20.5 9.5q12 0 21 -11.5t9 -41.5v-246q0 -20 -15 -20v-20q13 0 30.5 -6t34 -14.5t30 -17.5t18.5 -15l86 69v-19q9 -6 22.5 -13l27 -14t24.5 -13.5l16 -9.5l52 44l-26 18v285
q3 0 8.5 2.5t11.5 6l11.5 7t7.5 5.5l42 -29v-246q0 -11 -3 -15t-9 -4v-20q6 0 24.5 -6.5t38 -15.5t35 -18t15.5 -14l83 55v-245q-38 16 -64 28.5t-26 20.5h-16q0 -13 -5.5 -34.5t-14 -42.5t-19 -36t-20.5 -15q-11 0 -19 7.5t-10 26.5l-7 -1v-8q0 -3 1 -8q5 -35 25 -48
t44 -13q12 0 28.5 10t32 26t26.5 36t11 39q21 -11 59 -26l75.5 -30t65 -27.5t27.5 -18.5zM608 625l27 -12v-284l-37 -23l-31 23v273q3 0 9.5 3t13 6.5t12 7.5t6.5 6zM186 347v238l26 26l42 -23v-245l-34 -25z" />
    <glyph glyph-name="cc1" unicode="&#x1220;" horiz-adv-x="816" 
d="M601 62v-20q13 0 30.5 -6t34 -14.5t30 -17.5t18.5 -15l71 72l-8 11l-18 -16l-27 26v451q31 0 52.5 21t21.5 49q0 22 -11 31.5t-26 14.5l-5 -7q11 -2 19 -10t8 -17q0 -12 -11 -20.5t-27 -8.5q-14 0 -31 7.5t-33.5 20t-29.5 29.5t-17 36h-16q-5 -23 -25.5 -47t-43.5 -36
v-13q9 0 19 -3t19 -7.5t15 -11t6 -12.5v-454l-100 -53l-41 38v502q0 11 6.5 19t14.5 9v10q-8 0 -25.5 5.5t-35.5 13.5t-31.5 18.5t-13.5 20.5h-16q0 -10 -6.5 -20.5t-15.5 -19.5t-18 -14.5t-14 -5.5v-16q14 0 27 -5.5t13 -27.5v-481l-91 -51l-49 43v467q0 35 -9 58.5
t-25 37.5t-37 19.5t-45 5.5q-18 0 -36.5 -8t-33.5 -21t-24.5 -30t-9.5 -34q0 -12 2 -16h5q0 18 17 29.5t37 11.5q18 0 30.5 -14.5t12.5 -43.5v-442q0 -20 -15 -20v-20q17 0 34 -8t33 -19.5t30 -24l25 -21.5l149 82v-22q9 0 21.5 -7t25.5 -17t24.5 -20t17.5 -16l167 92
q-1 -17 -15 -17z" />
    <glyph glyph-name="cc2" unicode="&#x1221;" horiz-adv-x="953" 
d="M601 59v-20q13 0 30.5 -6t34 -14.5t30 -17.5t18.5 -15l71 72l-8 11l-18 -16l-28 26v346l28 19l44 -36q-5 -7 -6 -22t-1 -20q0 -15 6 -28t16 -23.5t23 -16.5t27 -6q36 0 55.5 10t19.5 36q0 11 -2 15.5t-5 7.5h-13q2 -3 4.5 -9.5t2.5 -10.5q0 -11 -9 -15.5t-20 -4.5
q-10 0 -19 15.5t-9 34.5q0 11 11 29.5t29 32.5v13q-9 0 -24 6.5t-29.5 15t-25.5 17.5t-11 15h-14l-78 -53v90q31 0 53 21t22 49q0 22 -11 31.5t-26 14.5l-5 -7q11 -2 19 -10t8 -17q0 -12 -11 -20.5t-27 -8.5q-14 0 -31 7.5t-33.5 20t-29.5 29.5t-17 36h-16q-5 -23 -25.5 -47
t-43.5 -36v-13q9 0 19 -3t19 -7.5t15 -11t6 -12.5v-454l-100 -57l-41 38v506q0 11 6.5 19t14.5 9v10q-8 0 -25.5 5.5t-35.5 13.5t-31.5 18.5t-13.5 20.5h-16q0 -10 -6.5 -20.5t-15.5 -19.5t-18 -14.5t-14 -5.5v-16q14 0 27 -5.5t13 -27.5v-485l-91 -51l-49 43v471
q0 35 -9 58.5t-25 37.5t-37 19.5t-45 5.5q-18 0 -36.5 -8t-33.5 -21t-24.5 -30t-9.5 -34q0 -12 2 -16h5q0 18 17 29.5t37 11.5q18 0 30.5 -14.5t12.5 -43.5v-446q0 -20 -15 -20v-20q17 0 34 -8t33 -19.5t30 -24l25 -21.5l149 82v-22q9 0 21.5 -7t25.5 -17t24.5 -20t17.5 -16
l167 94v-5q0 -17 -15 -17z" />
    <glyph glyph-name="cc3" unicode="&#x1222;" horiz-adv-x="894" 
d="M576 80v-19q8 0 25.5 -10.5t35.5 -23.5t31.5 -25t13.5 -15h15l53 39.5t48.5 32.5t39 22t24.5 8v13q-9 7 -17.5 17.5t-14.5 21.5t-10 21t-4 16q0 26 8 39.5t18 13.5q11 0 19 -7.5t8 -18.5v-1h15v1q0 16 -7 24t-14 13t-19 8.5t-41 3.5q-14 0 -26 -7t-21 -17.5t-14 -22.5
t-5 -21q0 -16 5 -35t12.5 -36t16.5 -30t18 -17l-45 -28q-15 0 -25.5 8t-10.5 19v489q31 0 53 21t22 49q0 22 -11 31.5t-26 14.5l-5 -7q11 -2 19 -10t8 -17q0 -12 -11 -20.5t-27 -8.5q-14 0 -31 7.5t-33.5 20t-29.5 29.5t-17 36h-16q-5 -23 -25.5 -47t-43.5 -36v-13
q9 0 19 -3t19 -7.5t15 -11t6 -12.5v-183l-93 -56l-38 36v219q0 11 6.5 19t14.5 9v10q-8 0 -25.5 5.5t-35.5 13.5t-31.5 18.5t-13.5 20.5h-16q0 -10 -6.5 -20.5t-15.5 -19.5t-18 -14.5t-14 -5.5v-16q14 0 27 -5.5t13 -27.5v-188l-84 -55l-43 37v190q0 35 -9 58.5t-25 37.5
t-37 19.5t-45 5.5q-18 0 -36.5 -8t-33.5 -21t-24.5 -30t-9.5 -34q0 -12 2 -16h5q0 18 17 29.5t37 11.5q18 0 30.5 -14.5t12.5 -43.5v-175q0 -20 -15 -20v-20q17 0 34 -6.5t33 -16t30 -20.5l25 -20l136 92v-32q9 0 21.5 -7t25.5 -17t24.5 -20t17.5 -16l157 95v-269
q0 -14 -4.5 -18t-12.5 -4z" />
    <glyph glyph-name="cc4" unicode="&#x1223;" horiz-adv-x="793" 
d="M578 58v-20q13 0 30.5 -6t34 -14.5t30 -17.5t18.5 -15l71 72l-8 11l-18 -16l-28 26v478q31 0 53 21t22 49q0 22 -11 31.5t-26 14.5l-5 -7q11 -2 19 -10t8 -17q0 -12 -11 -20.5t-27 -8.5q-14 0 -31 7.5t-33.5 20t-29.5 29.5t-17 36h-16q-5 -23 -25.5 -47t-43.5 -36v-13
q9 0 19 -3t19 -7.5t15 -11t6 -12.5v-183l-93 -56l-38 36v219q0 11 6.5 19t14.5 9v10q-8 0 -25.5 5.5t-35.5 13.5t-31.5 18.5t-13.5 20.5h-16q0 -10 -6.5 -20.5t-15.5 -19.5t-18 -14.5t-14 -5.5v-16q14 0 27 -5.5t13 -27.5v-188l-84 -55l-43 37v190q0 35 -9 58.5t-25 37.5
t-37 19.5t-45 5.5q-18 0 -36.5 -8t-33.5 -21t-24.5 -30t-9.5 -34q0 -12 2 -16h5q0 18 17 29.5t37 11.5q18 0 30.5 -14.5t12.5 -43.5v-175q0 -20 -15 -20v-20q17 0 34 -6.5t33 -16t30 -20.5l25 -20l136 92v-32q9 0 21.5 -7t25.5 -17t24.5 -20t17.5 -16l157 95v-293
q0 -20 -15 -20z" />
    <glyph glyph-name="cc5" unicode="&#x1224;" horiz-adv-x="845" 
d="M578 80v-20q8 0 25 -10.5l35.5 -23t33.5 -24.5t18 -15l145 66v13q-5 -4 -15 -5v154q-3 0 -11 2t-16 6t-14.5 10t-6.5 13h-15q0 -3 -5.5 -8t-13.5 -11t-16.5 -11t-13.5 -7v353q31 0 53 21t22 49q0 22 -11 31.5t-26 14.5l-5 -7q11 -2 19 -10t8 -17q0 -12 -11 -20.5
t-27 -8.5q-14 0 -31 7.5t-33.5 20t-29.5 29.5t-17 36h-16q-5 -23 -25.5 -47t-43.5 -36v-13q9 0 19 -3t19 -7.5t15 -11t6 -12.5v-183l-93 -56l-38 36v219q0 11 6.5 19t14.5 9v10q-8 0 -25.5 5.5t-35.5 13.5t-31.5 18.5t-13.5 20.5h-16q0 -10 -6.5 -20.5t-15.5 -19.5
t-18 -14.5t-14 -5.5v-16q14 0 27 -5.5t13 -27.5v-184l-87 -60l-40 38v190q0 35 -9 58.5t-25 37.5t-37 19.5t-45 5.5q-18 0 -36.5 -8t-33.5 -21t-24.5 -30t-9.5 -34q0 -12 2 -16h5q0 18 17 29.5t37 11.5q18 0 30.5 -14.5t12.5 -43.5v-175q0 -20 -15 -20v-20q17 0 34 -6.5
t33 -16t30 -20.5l25 -20l136 96v-36q9 0 21.5 -7t25.5 -17t24.5 -20t17.5 -16l157 95v-276q0 -9 -3.5 -15t-11.5 -6zM774 193v-137l-27 -13q-23 0 -31 10t-8 30v110q14 6 23.5 12t18.5 11z" />
    <glyph glyph-name="cc6" unicode="&#x1225;" horiz-adv-x="810" 
d="M757 677l-5 -7q11 -2 19 -10t8 -17q0 -12 -11 -20.5t-27 -8.5q-14 0 -31 7.5t-33.5 20t-29.5 29.5t-17 36h-16q-5 -23 -25.5 -47t-43.5 -36v-13q9 0 19 -3t19 -7.5t15 -11t6 -12.5v-205l-97 -55l-34 35v241q0 11 6.5 19t14.5 9v10q-8 0 -25.5 5.5t-35.5 13.5t-31.5 18.5
t-13.5 20.5h-16q0 -10 -6.5 -20.5t-15.5 -19.5t-18 -14.5t-14 -5.5v-16q14 0 27 -5.5t13 -27.5v-210l-84 -55l-43 37v212q0 35 -9 58.5t-25 37.5t-37 19.5t-45 5.5q-18 0 -36.5 -8t-33.5 -21t-24.5 -30t-9.5 -34q0 -12 2 -16h5q0 18 17 29.5t37 11.5q18 0 30.5 -14.5
t12.5 -43.5v-187q0 -20 -15 -20v-20q20 0 40 -11q-19 -12 -41.5 -24.5t-42 -27t-33 -30.5t-13.5 -34v-125q0 -11 -2.5 -14.5t-7.5 -3.5v-20q8 0 24.5 -7.5t33.5 -17.5t29.5 -19t12.5 -12h16l68 49v13q-6 -3 -14 -6t-14 -3q-15 0 -23 8t-8 19v140q0 11 3.5 25t9 27.5t12.5 26
t14 21.5q17 -11 32 -24.5t26 -22.5l136 92v-32q9 0 21.5 -7t25.5 -17t24.5 -20t17.5 -16l157 95v-14q0 -27 21 -51t68 -24q22 0 41.5 9t34 22.5t23 30t8.5 31.5q0 31 -4.5 40.5t-10.5 15.5h-8q5 -7 8 -17.5t3 -20.5q0 -15 -12 -28t-24 -13q-16 0 -24.5 14.5t-8.5 29.5v182
q31 0 53 21t22 49q0 22 -11 31.5t-26 14.5z" />
    <glyph glyph-name="cc7" unicode="&#x1226;" horiz-adv-x="799" 
d="M245 195v-125q0 -11 -2.5 -14.5t-7.5 -3.5v-20q8 0 24.5 -7.5t33.5 -17.5t29.5 -19t12.5 -12h16l68 49v13q-6 -3 -14 -6t-14 -3q-15 0 -23 8t-8 19v140q0 19 5.5 33t12.5 24t14.5 16.5t12.5 11.5l18 -14.5t13 -11.5l157 95v-14q0 -27 21 -51t68 -24q22 0 41.5 9t34 22.5
t23 30t8.5 31.5q0 31 -4.5 40.5t-10.5 15.5h-8q5 -7 8 -17.5t3 -20.5q0 -15 -12 -28t-24 -13q-16 0 -24.5 14.5t-8.5 29.5v182q31 0 53 21t22 49q0 22 -11 31.5t-26 14.5l-5 -7q11 -2 19 -10t8 -17q0 -12 -11 -20.5t-27 -8.5q-14 0 -31 7.5t-33.5 20t-29.5 29.5t-17 36h-16
q-5 -23 -25.5 -47t-43.5 -36v-13q9 0 19 -3t19 -7.5t15 -11t6 -12.5v-205l-97 -55l-34 35v241q0 11 6.5 19t14.5 9v10q-8 0 -25.5 5.5t-35.5 13.5t-31.5 18.5t-13.5 20.5h-16q0 -10 -6.5 -20.5t-15.5 -19.5t-18 -14.5t-14 -5.5v-16q14 0 27 -5.5t13 -27.5v-210l-84 -55
l-43 37v212q0 35 -9 58.5t-25 37.5t-37 19.5t-45 5.5q-18 0 -36.5 -8t-33.5 -21t-24.5 -30t-9.5 -34q0 -12 2 -16h5q0 18 17 29.5t37 11.5q18 0 30.5 -14.5t12.5 -43.5v-197q0 -20 -15 -20v-20q6 0 23.5 -8t37.5 -19l37.5 -21.5t23.5 -14.5l136 92v-32q7 0 16 -4.5t19 -11.5
q-18 -10 -42 -21.5t-45 -24.5t-35.5 -27.5t-14.5 -30.5z" />
    <glyph glyph-name="FL1227h" unicode="&#x1227;" horiz-adv-x="928" 
d="M798 -41q0 12 7.5 31.5t18.5 38t23.5 32t23.5 13.5q14 0 21 -7.5t7 -13.5q0 -10 -3.5 -18t-7.5 -13.5t-8 -7.5q-3 -2 -4 -3l1 -13q3 0 10 4t13.5 11t12 16.5t5.5 20.5q0 21 -9 34.5t-22 21.5t-28 11.5t-26 3.5q-12 0 -28.5 -8t-31 -22.5t-24.5 -34t-10 -42.5l-31 13v531
q31 0 53 21t22 49q0 22 -11 31.5t-26 14.5l-5 -7q11 -2 19 -10t8 -17q0 -12 -11 -20.5t-27 -8.5q-14 0 -31 7.5t-33.5 20t-29.5 29.5t-17 36h-16q-5 -23 -25.5 -47t-43.5 -36v-13q9 0 19 -3t19 -7.5t15 -11t6 -12.5v-183l-93 -56l-38 36v219q0 11 6.5 19t14.5 9v10
q-8 0 -25.5 5.5t-35.5 13.5t-31.5 18.5t-13.5 20.5h-16q0 -10 -6.5 -20.5t-15.5 -19.5t-18 -14.5t-14 -5.5v-16q14 0 27 -5.5t13 -27.5v-188l-84 -55l-43 37v190q0 35 -9 58.5t-25 37.5t-37 19.5t-45 5.5q-18 0 -36.5 -8t-33.5 -21t-24.5 -30t-9.5 -34q0 -12 2 -16h5
q0 18 17 29.5t37 11.5q18 0 30.5 -14.5t12.5 -43.5v-175q0 -20 -15 -20v-20q17 0 34 -6.5t33 -16t30 -20.5l25 -20l136 92v-32q9 0 22 -7.5t25.5 -18l24 -21t17.5 -16.5l157 98v-301q-38 16 -64 28.5t-26 20.5h-16q0 -13 -5.5 -34.5t-14 -42.5t-19 -36t-20.5 -15
q-11 0 -19 7.5t-10 26.5l-7 -1v-8q0 -3 1 -8q5 -35 25 -48t44 -13q12 0 28.5 10t32 26t26.5 36t11 39q21 -11 59 -26l75.5 -30t65 -27.5t27.5 -18.5z" />
    <glyph glyph-name="FL1228h" unicode="&#x1228;" horiz-adv-x="563" 
d="M368 55v-20q13 0 31 -6t34.5 -14.5t30 -17.5t18.5 -15l71 72l-8 11l-18 -16l-28 26v99q0 15 6 24t20 10v15q-18 0 -34.5 6.5t-29 16t-20 20.5t-7.5 21h-17q0 -8 -6.5 -19t-16.5 -21.5t-20.5 -17.5t-18.5 -7v-14q16 0 22 -1.5t6 -8.5v-24l-116 -99l-48 29v256
q0 8 8.5 19.5t22.5 22.5t32.5 19t38.5 8q28 0 55 -1t48.5 -5t34.5 -10.5t13 -16.5q0 -17 -8 -23.5t-15 -6.5v-4q12 0 21 6.5t15 16.5t8.5 20.5t2.5 18.5q0 19 -17 29.5t-37 18l-37 14t-17 16.5v86q0 25 3.5 31t15.5 6v14q-9 0 -29.5 5.5t-42 13.5t-38 16.5t-16.5 14.5h-12
v-1q0 -6 -6 -16t-14.5 -20t-16.5 -17t-12 -7v-14q7 0 17 -1.5t18.5 -5.5t14.5 -11t6 -17v-103l-8 -6v-7l51 -20q-32 -1 -59.5 -14.5t-38.5 -32.5l-2 -4q0 23 -9.5 38.5t-26 25.5t-37.5 14t-43 4q-18 0 -36 -6t-33 -16.5t-24.5 -25t-9.5 -31.5h8q13 31 51 31q17 0 30.5 -17.5
t13.5 -40.5v-281q0 -16 -3 -20.5t-12 -4.5v-20q8 0 26.5 -7t38 -16.5t34.5 -19t17 -13.5l179 157v-68q0 -20 -15 -20z" />
    <glyph glyph-name="FL1229h" unicode="&#x1229;" horiz-adv-x="696" 
d="M308 56v-20q13 0 30.5 -6t34 -14.5t30 -17.5t18.5 -15l71 72l-8 11l-18 -16l-27 26v178q10 0 29 3t36 16q1 -24 6 -41.5t16 -29t30 -17t48 -5.5q15 0 29 5t25.5 13.5t19 20t8.5 24.5l-8 2q-2 -10 -9 -16.5t-15 -6.5q-24 0 -38 13t-21.5 32t-9.5 39.5t-2 35.5h-17
q-3 -8 -15.5 -19.5t-30 -22t-38 -18.5t-39.5 -8q-11 0 -28.5 3t-34 10t-29 17t-12.5 25v5l-16 -3v-89l-52 -37l-52 33v193q0 8 8.5 19.5t22.5 22.5t32.5 19t38.5 8q28 0 55 -1t48.5 -5t34.5 -10.5t13 -16.5q0 -17 -8 -23.5t-15 -6.5v-4q12 0 21 6.5t15 16.5t8.5 20.5
t2.5 18.5q0 19 -17 29.5t-37 18l-37 14t-17 16.5v86q0 25 3.5 31t15.5 6v14q-9 0 -29.5 5.5t-42 13.5t-38 16.5t-16.5 14.5h-12v-1q0 -6 -6 -16t-14.5 -20t-16.5 -17t-12 -7v-14q7 0 17 -1.5t18.5 -5.5t14.5 -11t6 -17v-103l-8 -6v-7l51 -20q-32 -1 -59.5 -14.5t-38.5 -32.5
l-2 -4q0 23 -9.5 38.5t-26 25.5t-37.5 14t-43 4q-18 0 -36 -6t-33 -16.5t-24.5 -25t-9.5 -31.5h8q13 31 51 31q17 0 30.5 -17.5t13.5 -40.5v-218q0 -16 -3 -20.5t-12 -4.5v-20q8 0 26.5 -7t38 -16.5t34.5 -19t17 -13.5l119 91v-135q0 -20 -15 -20z" />
    <glyph glyph-name="FL122Ah" unicode="&#x122a;" horiz-adv-x="555" 
d="M511 224q0 60 -29 82t-97 22q-34 0 -56.5 -10.5t-36 -27t-19.5 -36t-6 -36.5q0 -7 0.5 -19t2.5 -15h9q0 9 4.5 22t12.5 25t19.5 20.5t26.5 8.5q20 0 30.5 -3.5t15.5 -11t6 -18.5t1 -25v-45l-128 -79l-48 27v255q0 8 8.5 19.5t22.5 22.5t32.5 19t38.5 8q28 0 55 -1
t48.5 -5t34.5 -10.5t13 -16.5q0 -17 -8 -23.5t-15 -6.5v-4q12 0 21 6.5t15 16.5t8.5 20.5t2.5 18.5q0 19 -17 29.5t-37 18l-37 14t-17 16.5v86q0 25 3.5 31t15.5 6v14q-9 0 -29.5 5.5t-42 13.5t-38 16.5t-16.5 14.5h-12v-1q0 -6 -6 -16t-14.5 -20t-16.5 -17t-12 -7v-14
q7 0 17 -1.5t18.5 -5.5t14.5 -11t6 -17v-103l-8 -6v-7l51 -20q-32 -1 -59.5 -14.5t-38.5 -32.5l-2 -4q0 23 -9.5 38.5t-26 25.5t-37.5 14t-43 4q-18 0 -36 -6t-33 -16.5t-24.5 -25t-9.5 -31.5h8q13 31 51 31q17 0 30.5 -17.5t13.5 -40.5v-280q0 -16 -3 -20.5t-12 -4.5v-20
q8 0 26.5 -7t38 -16.5t34.5 -19t17 -13.5l191 139v-99l105 -39l45 65l-34 16v155z" />
    <glyph glyph-name="FL122Bh" unicode="&#x122b;" horiz-adv-x="714" 
d="M499 270q4 -47 17 -74t30 -40.5t35 -17t33 -3.5q31 0 49 5.5t27 14t11.5 19t2.5 20.5v4h-17q-1 -16 -11.5 -22t-19.5 -6q-14 0 -24 12t-17.5 30.5t-12.5 40t-8 41.5q-63 0 -107.5 1.5t-72.5 4.5t-41 8t-13 13h-16q0 -7 -8 -17.5t-18.5 -20.5t-21 -17t-16.5 -7v-13
q6 0 15 -3.5t18 -8.5t15 -12t6 -13v-75l-67 -64l-48 35v255q0 8 8.5 19.5t22.5 22.5t32.5 19t38.5 8q28 0 55 -1t48.5 -5t34.5 -10.5t13 -16.5q0 -17 -8 -23.5t-15 -6.5l-16 -27q12 0 23.5 10.5t20.5 24.5t14 28t5 22q0 19 -17 29.5t-37 18l-37 14t-17 16.5v86q0 25 3.5 31
t15.5 6v14q-9 0 -29.5 5.5t-42 13.5t-38 16.5t-16.5 14.5h-12v-1q0 -6 -6 -16t-14.5 -20t-16.5 -17t-12 -7v-14q7 0 17 -1.5t18.5 -5.5t14.5 -11t6 -17v-103l-8 -6v-7l51 -20q-32 -1 -59.5 -14.5t-38.5 -32.5l-2 -4q0 23 -9.5 38.5t-26 25.5t-37.5 14t-43 4q-18 0 -36 -6
t-33 -16.5t-24.5 -25t-9.5 -31.5h8q13 31 51 31q17 0 30.5 -17.5t13.5 -40.5v-280q0 -16 -3 -20.5t-12 -4.5v-20q8 0 26.5 -7t38 -16.5t34.5 -19t17 -13.5l130 116v-74l104 -39l45 48l-34 16v139q0 32 4 54.5t17 22.5h29z" />
    <glyph glyph-name="FL122Ch" unicode="&#x122c;" horiz-adv-x="652" 
d="M385 76v-20q8 0 25 -10.5l35.5 -23t33.5 -24.5t18 -15l145 66v13q-5 -4 -15 -5v121q-3 0 -11 2t-16 6t-14.5 10t-6.5 13h-15q0 -3 -5.5 -8t-13.5 -11t-16.5 -11t-13.5 -7v41q0 12 3.5 17.5t17.5 6.5v15q-18 0 -35 6t-30.5 14.5t-21.5 18t-8 16.5h-17q0 -14 -13.5 -27
t-29.5 -13v-13q11 0 15 -4t4 -15v-44l-133 -113l-48 27v255q0 8 8.5 19.5t22.5 22.5t32.5 19t38.5 8q28 0 55 -1t48.5 -5t34.5 -10.5t13 -16.5q0 -17 -8 -23.5t-15 -6.5v-4q12 0 21 6.5t15 16.5t8.5 20.5t2.5 18.5q0 19 -17 29.5t-37 18l-37 14t-17 16.5v86q0 25 3.5 31
t15.5 6v14q-9 0 -29.5 5.5t-42 13.5t-38 16.5t-16.5 14.5h-12v-1q0 -6 -6 -16t-14.5 -20t-16.5 -17t-12 -7v-14q7 0 17 -1.5t18.5 -5.5t14.5 -11t6 -17v-103l-8 -6v-7l51 -20q-32 -1 -59.5 -14.5t-38.5 -32.5l-2 -4q0 23 -9.5 38.5t-26 25.5t-37.5 14t-43 4q-18 0 -36 -6
t-33 -16.5t-24.5 -25t-9.5 -31.5h8q13 31 51 31q17 0 30.5 -17.5t13.5 -40.5v-280q0 -16 -3 -20.5t-12 -4.5v-20q8 0 26.5 -7t38 -16.5t34.5 -19t17 -13.5l196 175v-65q0 -9 -3.5 -15t-11.5 -6zM581 156v-104l-19 -10q-26 0 -36.5 8.5t-10.5 28.5v77q14 6 23.5 12t18.5 11z
" />
    <glyph glyph-name="FL122Dh" unicode="&#x122d;" horiz-adv-x="566" 
d="M368 57v-20q13 0 30.5 -6t34 -14.5t30 -17.5t18.5 -15l71 72l-8 11l-18 -16l-27 26v98q0 15 6 24t20 10v15q-18 0 -34.5 6.5t-29 16t-20 20.5t-7.5 21h-17q0 -8 -6.5 -19t-16.5 -21.5t-20.5 -17.5t-18.5 -7v-14q16 0 22 -1.5t6 -8.5v-24l-116 -99l-48 29v441q0 9 7.5 21
t19.5 23t27.5 18.5t32.5 7.5q20 0 36.5 5t27.5 10l4 -5l12 -11.5t15 -13t16 -10.5q-5 -7 -7.5 -22t-2.5 -20q0 -9 6 -21.5t15.5 -24.5t22.5 -20t27 -8q46 0 62 14t16 40h-12q0 -11 -9 -18t-20 -7t-18.5 15.5t-7.5 37.5q0 11 10 28t28 31v13q-9 0 -24 6.5t-29.5 15
t-25.5 17.5t-11 15h-14q0 -6 -12 -15t-28.5 -16.5t-33.5 -13t-27 -5.5q-34 0 -60 -13t-43 -42q0 23 -9.5 38.5t-26 25.5t-37.5 14t-43 4q-18 0 -36 -6t-33 -16.5t-24.5 -25t-9.5 -31.5h8q13 31 51 31q17 0 30.5 -17.5t13.5 -40.5v-466q0 -16 -3 -20.5t-12 -4.5v-20
q8 0 26.5 -7t38 -16.5t34.5 -19t17 -13.5l179 157v-67q0 -20 -15 -20z" />
    <glyph glyph-name="FL122Eh" unicode="&#x122e;" horiz-adv-x="584" 
d="M368 58v-20q13 0 30.5 -6t34 -14.5t30 -17.5t18.5 -15l71 72l-8 11l-18 -16l-27 26v97q0 15 6 24t20 10v15q-18 0 -34.5 6.5t-29 16t-20 20.5t-7.5 21h-17q0 -8 -6.5 -19t-16.5 -21.5t-20.5 -17.5t-18.5 -7v-14q16 0 22 -1.5t6 -8.5v-24l-116 -99l-48 29v448q0 10 11 23
t28.5 24.5t40 19.5t46.5 8q17 0 33.5 -11.5t16.5 -24.5v-108q0 -14 -4 -19t-9 -5v-20q7 0 19.5 -5.5t23.5 -12t19.5 -13t8.5 -8.5h19l102 45v135q-13 0 -25.5 10t-15.5 21h-13q0 -8 -10.5 -17.5t-31.5 -16.5v54q-9 0 -23.5 5.5t-28.5 13.5t-24 16t-10 13h-14q0 -7 -15.5 -20
t-41.5 -20q-31 -8 -58 -17t-44 -38q0 23 -9.5 38.5t-26 25.5t-37.5 14t-43 4q-18 0 -36 -6t-33 -16.5t-24.5 -25t-9.5 -31.5h8q13 31 51 31q17 0 30.5 -17.5t13.5 -40.5v-473q0 -16 -3 -20.5t-12 -4.5v-20q8 0 26.5 -7t38 -16.5t34.5 -19t17 -13.5l179 157v-66
q0 -20 -15 -20zM525 567v-125l-21 -10q-16 0 -21 15t-5 29v85q8 0 21 7.5t18 11.5z" />
    <glyph glyph-name="r8" unicode="&#x122f;" horiz-adv-x="714" 
d="M475 564v5q0 9 6 24.5t15.5 30.5t21 26t22.5 11q13 0 19.5 -7.5t6.5 -12.5q0 -14 -5.5 -24.5t-20.5 -10.5v-7q18 0 31 13t13 31q0 26 -23 44t-55 18q-12 0 -27.5 -5.5t-30 -16.5t-25.5 -27t-15 -37l-93 51q-1 1 -6 1q-6 0 -6 -6q0 -8 2 -10l12.5 -19t10.5 -19
q-20 9 -43 22.5l-43.5 26.5t-35 23.5t-17.5 13.5h-21q0 -9 -6 -26t-15 -34.5t-20.5 -30t-21.5 -12.5q-9 0 -16 9t-7 26h-6q-1 -4 -1 -14v-9q0 -23 16 -38.5t40 -15.5h2q21 1 40.5 6t35 15t25 25.5t9.5 37.5l29 -17v-152l-8 -6v-7l55 -20q-32 -1 -59.5 -14.5t-38.5 -32.5
l-2 -4q0 23 -9.5 38.5t-26 25.5t-37.5 14t-43 4q-18 0 -36 -6t-33 -16.5t-24.5 -25t-9.5 -31.5h8q13 31 51 31q17 0 30.5 -17.5t13.5 -40.5v-280q0 -16 -3 -20.5t-12 -4.5v-20q8 0 26.5 -7t38 -16.5t34.5 -19t17 -13.5l130 116v-74l104 -39l45 48l-34 16v139q0 32 4 54.5
t17 22.5h29q4 -47 17 -74t30 -40.5t35 -17t33 -3.5q31 0 49 5.5t27 14t11.5 19t2.5 20.5v4h-17q-1 -16 -11.5 -22t-19.5 -6q-14 0 -24 12t-17.5 30.5t-12.5 40t-8 41.5q-63 0 -107.5 1.5t-72.5 4.5t-41 8t-13 13h-16q0 -7 -8 -17.5t-18.5 -20.5t-21 -17t-16.5 -7v-13
q6 0 15 -3.5t18 -8.5t15 -12t6 -13v-75l-67 -64l-48 35v255q0 8 8.5 19.5t22.5 22.5t32.5 19t38.5 8q28 0 55 -1t48.5 -5t34.5 -10.5t13 -16.5q0 -17 -8 -23.5t-15 -6.5l-16 -27q12 0 23.5 10.5t20.5 24.5t14 28t5 22q0 19 -17 29.5t-37 18l-37 14t-17 16.5v108
q9 -3 21 -9.5l23.5 -13l20.5 -12t12 -8.5h10z" />
    <glyph glyph-name="FL1230h" unicode="&#x1230;" horiz-adv-x="525" 
d="M331 58v-20q13 0 30.5 -6t34 -14.5t30 -17.5t18.5 -15l71 72l-8 11l-18 -16l-28 26v400q0 18 4.5 25t18.5 7v12q-9 0 -27.5 5t-37 13.5t-33 18.5t-14.5 20h-16q0 -10 -8.5 -20.5t-20 -18.5t-23.5 -13.5t-18 -5.5q-3 0 -13.5 0.5t-13.5 1.5v42q0 17 6.5 33t21.5 21
q28 10 47.5 24.5t19.5 27.5q0 5 -1 10t-3 10h-12q2 -2 2.5 -3.5t0.5 -6.5q0 -9 -9.5 -12t-20.5 -3q-16 0 -36.5 10t-39 22.5t-31 25.5t-12.5 19h-16q0 -14 -7 -29t-18.5 -27t-26.5 -20t-31 -8v-16q15 0 38.5 -4.5t46 -14t38.5 -24.5t16 -36v-45l-46 -17q0 29 -30 50.5
t-73 21.5q-38 0 -60.5 -14t-22.5 -37v-10t2 -10h9q1 14 8.5 23.5t20.5 9.5q12 0 21 -11.5t9 -41.5v-402q0 -20 -15 -20v-20q13 0 30.5 -6t34 -14.5t30 -17.5t18.5 -15l71 72l-8 11l-18 -16l-27 26v396q16 11 37.5 18t40.5 7q34 0 58 -10t24 -36v-378q0 -20 -15 -20z" />
    <glyph glyph-name="FL1231h" unicode="&#x1231;" horiz-adv-x="685" 
d="M331 58v-20q13 0 30.5 -6t34 -14.5t30 -17.5t18.5 -15l71 72l-8 11l-18 -16l-28 26v275l30 21l44 -36q-5 -7 -6 -22t-1 -20q0 -15 6 -28t16 -23.5t23 -16.5t27 -6q36 0 55.5 10t19.5 36q0 11 -2 15.5t-5 7.5h-13q2 -3 4.5 -9.5t2.5 -10.5q0 -11 -9 -15.5t-20 -4.5
q-10 0 -19 15.5t-9 34.5q0 11 11 29.5t29 32.5v13q-9 0 -24 6.5t-29.5 15t-25.5 17.5t-11 15h-14l-80 -54v101q0 18 4.5 25t18.5 7v12q-9 0 -27.5 5t-37 13.5t-33 18.5t-14.5 20h-16q0 -10 -8.5 -20.5t-20 -18.5t-23.5 -13.5t-18 -5.5q-3 0 -13.5 0.5t-13.5 1.5v42
q0 17 6.5 33t21.5 21q28 10 47.5 24.5t19.5 27.5q0 5 -1 10t-3 10h-12q2 -2 2.5 -3.5t0.5 -6.5q0 -9 -9.5 -12t-20.5 -3q-16 0 -36.5 10t-39 22.5t-31 25.5t-12.5 19h-16q0 -14 -7 -29t-18.5 -27t-26.5 -20t-31 -8v-16q15 0 38.5 -4.5t46 -14t38.5 -24.5t16 -36v-45l-46 -17
q0 29 -30 50.5t-73 21.5q-38 0 -60.5 -14t-22.5 -37v-10t2 -10h9q1 14 8.5 23.5t20.5 9.5q12 0 21 -11.5t9 -41.5v-402q0 -20 -15 -20v-20q13 0 30.5 -6t34 -14.5t30 -17.5t18.5 -15l71 72l-8 11l-18 -16l-27 26v396q16 11 37.5 18t40.5 7q34 0 58 -10t24 -36v-377
q0 -20 -15 -20z" />
    <glyph glyph-name="FL1232h" unicode="&#x1232;" horiz-adv-x="647" 
d="M329 80v-19q8 0 25.5 -10.5t35.5 -23.5t31.5 -25t13.5 -15h15l53 39.5t48.5 32.5t39 22t24.5 8v13q-9 7 -17.5 17.5t-14.5 21.5t-10 21t-4 16q0 26 8 39.5t18 13.5q11 0 19 -7.5t8 -18.5v-1h15v1q0 16 -7 24t-14 13t-19 8.5t-41 3.5q-14 0 -26 -7t-21 -17.5t-14 -22.5
t-5 -21q0 -16 5 -35t12.5 -36t16.5 -30t18 -17l-45 -28q-15 0 -25.5 8t-10.5 19v410q0 18 4.5 25t18.5 7v12q-9 0 -27.5 5t-37 13.5t-33 18.5t-14.5 20h-16q0 -10 -8.5 -20.5t-20 -18.5t-23.5 -13.5t-18 -5.5q-3 0 -13.5 0.5t-13.5 1.5v42q0 17 6.5 33t21.5 21
q28 10 47.5 24.5t19.5 27.5q0 5 -1 10t-3 10h-12q2 -2 2.5 -3.5t0.5 -6.5q0 -9 -9.5 -12t-20.5 -3q-16 0 -36.5 10t-39 22.5t-31 25.5t-12.5 19h-16q0 -14 -7 -29t-18.5 -27t-26.5 -20t-31 -8v-16q15 0 38.5 -4.5t46 -14t38.5 -24.5t16 -36v-45l-46 -17q0 29 -30 50.5
t-73 21.5q-38 0 -60.5 -14t-22.5 -37v-10t2 -10h9q1 14 8.5 23.5t20.5 9.5q12 0 21 -11.5t9 -41.5v-402q0 -20 -15 -20v-20q13 0 30.5 -6t34 -14.5t30 -17.5t18.5 -15l71 72l-8 11l-18 -16l-27 26v396q16 11 37.5 18t40.5 7q34 0 58 -10t24 -36v-353q0 -14 -4.5 -18
t-12.5 -4z" />
    <glyph glyph-name="FL1233h" unicode="&#x1233;" horiz-adv-x="525" 
d="M331 59v-20q13 0 30.5 -6t34 -14.5t30 -17.5t18.5 -15l71 72l-8 11l-18 -16l-28 26v398q0 18 4.5 25t18.5 7v12q-9 0 -27.5 5t-37 13.5t-33 18.5t-14.5 20h-16q0 -10 -8.5 -20.5t-20 -18.5t-23.5 -13.5t-18 -5.5q-3 0 -13.5 0.5t-13.5 1.5v42q0 17 6.5 33t21.5 21
q28 10 47.5 24.5t19.5 27.5q0 5 -1 10t-3 10h-12q2 -2 2.5 -3.5t0.5 -6.5q0 -9 -9.5 -12t-20.5 -3q-16 0 -36.5 10t-39 22.5t-31 25.5t-12.5 19h-16q0 -14 -7 -29t-18.5 -27t-26.5 -20t-31 -8v-16q15 0 38.5 -4.5t46 -14t38.5 -24.5t16 -36v-45l-46 -17q0 29 -30 50.5
t-73 21.5q-38 0 -60.5 -14t-22.5 -37v-10t2 -10h9q1 14 8.5 23.5t20.5 9.5q12 0 21 -11.5t9 -41.5v-243q0 -20 -15 -20v-20q13 0 30.5 -6t34 -14.5t30 -17.5t18.5 -15l71 72l-8 11l-18 -16l-27 26v237q16 11 37.5 18t40.5 7q34 0 58 -10t24 -36v-376q0 -20 -15 -20z" />
    <glyph glyph-name="FL1234h" unicode="&#x1234;" horiz-adv-x="598" 
d="M331 79v-20q8 0 25 -10.5l35.5 -23t33.5 -24.5t18 -15l145 66v13q-5 -4 -15 -5v154q-3 0 -11 2t-16 6t-14.5 10t-6.5 13h-15q0 -3 -5.5 -8t-13.5 -11t-16.5 -11t-13.5 -7v270q0 18 4.5 25t18.5 7v12q-9 0 -27.5 5t-37 13.5t-33 18.5t-14.5 20h-16q0 -10 -8.5 -20.5
t-20 -18.5t-23.5 -13.5t-18 -5.5q-3 0 -13.5 0.5t-13.5 1.5v42q0 17 6.5 33t21.5 21q28 10 47.5 24.5t19.5 27.5q0 5 -1 10t-3 10h-12q2 -2 2.5 -3.5t0.5 -6.5q0 -9 -9.5 -12t-20.5 -3q-16 0 -36.5 10t-39 22.5t-31 25.5t-12.5 19h-16q0 -14 -7 -29t-18.5 -27t-26.5 -20
t-31 -8v-16q15 0 38.5 -4.5t46 -14t38.5 -24.5t16 -36v-45l-46 -17q0 29 -30 50.5t-73 21.5q-38 0 -60.5 -14t-22.5 -37v-10t2 -10h9q1 14 8.5 23.5t20.5 9.5q12 0 21 -11.5t9 -41.5v-402q0 -20 -15 -20v-20q13 0 30.5 -6t34 -14.5t30 -17.5t18.5 -15l71 72l-8 11l-18 -16
l-27 26v396q16 11 37.5 18t40.5 7q34 0 58 -10t24 -36v-356q0 -9 -3.5 -15t-11.5 -6zM527 192v-137l-10 -4q-26 0 -41 5.5t-15 25.5v110q14 6 23.5 12t18.5 11z" />
    <glyph glyph-name="FL1235h" unicode="&#x1235;" horiz-adv-x="525" 
d="M331 58v-20q13 0 30.5 -6t34 -14.5t30 -17.5t18.5 -15l71 72l-8 11l-18 -16l-28 26v399q0 18 4.5 25t18.5 7v12q-9 0 -27.5 5t-37 13.5t-33 18.5t-14.5 20h-16q0 -10 -8.5 -20.5t-20 -18.5t-23.5 -13.5t-18 -5.5q-3 0 -13.5 0.5t-13.5 1.5v35q0 17 -10 29.5t-22 21.5
t-22 14.5t-10 10.5q0 8 10.5 15t23 13t23 12t10.5 12q0 5 -1 10t-3 10h-12q2 -2 2.5 -3.5t0.5 -6.5q0 -9 -9.5 -12t-20.5 -3q-16 0 -36.5 10t-39 22.5t-31 25.5t-12.5 19h-16q0 -14 -7 -29t-18.5 -27t-26.5 -20t-31 -8v-16q15 0 52.5 -8t77.5 -21.5t70.5 -32t30.5 -39.5v-38
l-46 -17q0 29 -30 50.5t-73 21.5q-38 0 -60.5 -14t-22.5 -37v-10t2 -10h9q1 14 8.5 23.5t20.5 9.5q12 0 21 -11.5t9 -41.5v-402q0 -20 -15 -20v-20q13 0 30.5 -6t34 -14.5t30 -17.5t18.5 -15l71 72l-8 11l-18 -16l-27 26v396q16 11 37.5 18t40.5 7q34 0 58 -10t24 -36v-377
q0 -20 -15 -20z" />
    <glyph glyph-name="FL1236h" unicode="&#x1236;" horiz-adv-x="525" 
d="M331 215v-20q13 0 30.5 -6t34 -14.5t30 -17.5t18.5 -15l71 72l-8 11l-18 -16l-28 26v242q0 18 4.5 25t18.5 7v12q-9 0 -27.5 5t-37 13.5t-33 18.5t-14.5 20h-16q0 -10 -8.5 -20.5t-20 -18.5t-23.5 -13.5t-18 -5.5q-3 0 -13.5 0.5t-13.5 1.5v42q0 17 6.5 33t21.5 21
q28 10 47.5 24.5t19.5 27.5q0 5 -1 10t-3 10h-12q2 -2 2.5 -3.5t0.5 -6.5q0 -9 -9.5 -12t-20.5 -3q-16 0 -36.5 10t-39 22.5t-31 25.5t-12.5 19h-16q0 -14 -7 -29t-18.5 -27t-26.5 -20t-31 -8v-16q15 0 38.5 -4.5t46 -14t38.5 -24.5t16 -36v-45l-46 -17q0 29 -30 50.5
t-73 21.5q-38 0 -60.5 -14t-22.5 -37v-10t2 -10h9q1 14 8.5 23.5t20.5 9.5q12 0 21 -11.5t9 -41.5v-402q0 -20 -15 -20v-20q13 0 30.5 -6t34 -14.5t30 -17.5t18.5 -15l71 72l-8 11l-18 -16l-27 26v396q16 11 37.5 18t40.5 7q34 0 58 -10t24 -36v-220q0 -20 -15 -20z" />
    <glyph glyph-name="c8" unicode="&#x1237;" horiz-adv-x="681" 
d="M551 -42q0 12 7.5 31.5t18.5 38t23.5 32t23.5 13.5q14 0 21 -7.5t7 -13.5q0 -10 -3.5 -18t-7.5 -13.5t-8 -8.5q-3 -1 -4 -2l1 -13q3 0 10 4.5t13.5 11t12 16t5.5 20.5q0 20 -9 33.5t-22 22t-28 12t-26 3.5q-12 0 -28.5 -8t-31 -22.5t-24.5 -34t-10 -42.5l-31 13v452
q0 18 4.5 25t18.5 7v12q-9 0 -27.5 5t-37 13.5t-33 18.5t-14.5 20h-16q0 -10 -8.5 -20.5t-20 -18.5t-23.5 -13.5t-18 -5.5q-3 0 -13.5 0.5t-13.5 1.5v42q0 17 6.5 33t21.5 21q28 10 47.5 24.5t19.5 27.5q0 5 -1 10t-3 10h-12q2 -2 2.5 -3.5t0.5 -6.5q0 -9 -9.5 -12t-20.5 -3
q-16 0 -36.5 10t-39 22.5t-31 25.5t-12.5 19h-16q0 -14 -7 -29t-18.5 -27t-26.5 -20t-31 -8v-16q15 0 38.5 -4.5t46 -14t38.5 -24.5t16 -36v-45l-46 -17q0 29 -30 50.5t-73 21.5q-38 0 -60.5 -14t-22.5 -37v-10t2 -10h9q1 14 8.5 23.5t20.5 9.5q12 0 21 -11.5t9 -41.5v-243
q0 -20 -15 -20v-20q13 0 30.5 -6t34 -14.5t30 -17.5t18.5 -15l71 72l-8 11l-18 -16l-27 26v237q16 11 37.5 18t40.5 7q34 0 58 -10t24 -36v-385q-38 16 -64 28.5t-26 20.5h-16q0 -13 -5.5 -34.5t-14 -42.5t-19 -36t-20.5 -15q-11 0 -19 7.5t-10 26.5l-7 -1v-8q0 -3 1 -8
q5 -35 25 -48t44 -13q12 0 28.5 10t32 26t26.5 36t11 39q21 -11 59 -26l75.5 -30t65 -27.5t27.5 -18.5z" />
    <glyph glyph-name="FL1238h" unicode="&#x1238;" horiz-adv-x="539" 
d="M345 59v-20q13 0 30.5 -6t34 -14.5t30 -17.5t18.5 -15l71 72l-8 11l-18 -16l-28 26v398q0 18 4.5 25t18.5 7v12q-9 0 -27.5 5t-37 13.5t-33 18.5t-14.5 20h-16q0 -10 -8.5 -20.5t-20 -18.5t-23.5 -13.5t-18 -5.5q-3 0 -13.5 0.5t-13.5 1.5v104q5 -5 9 -8q4 -2 5 -2
q6 -2 5 -2q7 0 7 7q0 2 -4 10q-3 4 -6.5 11l-7 13.5t-6 12t-2.5 7.5l4 5q4 0 19 -7t33.5 -17l36.5 -20.5t27 -17.5h12q0 11 6.5 27.5t16.5 32t22 26.5t23 11q14 0 21 -7.5t7 -12.5q0 -6 -4 -12t-9.5 -11.5t-9.5 -8.5q-4 -2 -5 -3v-12q3 0 11 3t16 8.5t14 13.5t6 17
q0 18 -8.5 31t-20.5 21.5t-26.5 12.5t-26.5 4q-13 0 -29.5 -5.5t-31.5 -16.5t-27 -27t-16 -37q-29 13 -48.5 23t-44.5 21q-4 2 -7 2q-7 0 -7 -6t4 -11l13 -19t11 -19q-4 0 -25.5 12.5l-46 28t-44 29.5t-19.5 16h-17q0 -9 -7 -26t-17.5 -34.5t-23 -30t-23.5 -12.5t-18 9
t-7 26h-6q-1 -4 -1 -14q0 -31 18 -47t43 -16q13 0 33 8.5t39 20.5t32.5 26.5t13.5 26.5q3 0 14 -7t22.5 -20t21 -31.5t9.5 -42.5v-68l-46 -17q0 29 -30 50.5t-73 21.5q-38 0 -60.5 -14t-22.5 -37v-10t2 -10h9q1 14 8.5 23.5t20.5 9.5q12 0 21 -11.5t9 -41.5v-402
q0 -20 -15 -20v-20q13 0 30.5 -6t34 -14.5t30 -17.5t18.5 -15l71 72l-8 11l-18 -16l-27 26v396q16 11 37.5 18t40.5 7q34 0 58 -10t24 -36v-376q0 -20 -15 -20z" />
    <glyph glyph-name="FL1239h" unicode="&#x1239;" horiz-adv-x="702" 
d="M345 58v-20q13 0 30.5 -6t34 -14.5t30 -17.5t18.5 -15l71 72l-8 11l-18 -16l-28 26v273l33 23l44 -36q-5 -7 -6 -22t-1 -20q0 -15 6 -28t16 -23.5t23 -16.5t27 -6q36 0 55.5 10t19.5 36q0 11 -2 15.5t-5 7.5h-13q2 -3 4.5 -9.5t2.5 -10.5q0 -11 -9 -15.5t-20 -4.5
q-10 0 -19 15.5t-9 34.5q0 11 11 29.5t29 32.5v13q-9 0 -24 6.5t-29.5 15t-25.5 17.5t-11 15h-14l-83 -57v104q0 18 4.5 25t18.5 7v12q-9 0 -27.5 5t-37 13.5t-33 18.5t-14.5 20h-16q0 -10 -8.5 -20.5t-20 -18.5t-23.5 -13.5t-18 -5.5q-3 0 -13.5 0.5t-13.5 1.5v104
q5 -5 9 -8q4 -2 5 -2q6 -2 5 -2q7 0 7 7q0 2 -4 10q-3 4 -6.5 11l-7 13.5t-6 12t-2.5 7.5l4 5q4 0 19 -7t33.5 -17l36.5 -20.5t27 -17.5h12q0 11 6.5 27.5t16.5 32t22 26.5t23 11q14 0 21 -7.5t7 -12.5q0 -6 -4 -12t-9.5 -11.5t-9.5 -8.5q-4 -2 -5 -3v-12q3 0 11 3t16 8.5
t14 13.5t6 17q0 18 -8.5 31t-20.5 21.5t-26.5 12.5t-26.5 4q-13 0 -29.5 -5.5t-31.5 -16.5t-27 -27t-16 -37q-29 13 -48.5 23t-44.5 21q-4 2 -7 2q-7 0 -7 -6t4 -11l13 -19t11 -19q-4 0 -25.5 12.5l-46 28t-44 29.5t-19.5 16h-17q0 -9 -7 -26t-17.5 -34.5t-23 -30
t-23.5 -12.5t-18 9t-7 26h-6q-1 -4 -1 -14q0 -31 18 -47t43 -16q13 0 33 8.5t39 20.5t32.5 26.5t13.5 26.5q3 0 14 -7t22.5 -20t21 -31.5t9.5 -42.5v-68l-46 -17q0 29 -30 50.5t-73 21.5q-38 0 -60.5 -14t-22.5 -37v-10t2 -10h9q1 14 8.5 23.5t20.5 9.5q12 0 21 -11.5
t9 -41.5v-402q0 -20 -15 -20v-20q13 0 30.5 -6t34 -14.5t30 -17.5t18.5 -15l71 72l-8 11l-18 -16l-27 26v396q16 11 37.5 18t40.5 7q34 0 58 -10t24 -36v-377q0 -20 -15 -20z" />
    <glyph glyph-name="FL123Ah" unicode="&#x123a;" horiz-adv-x="661" 
d="M343 80v-19q8 0 25.5 -10.5t35.5 -23.5t31.5 -25t13.5 -15h15l53 39.5t48.5 32.5t39 22t24.5 8v13q-9 7 -17.5 17.5t-14.5 21.5t-10 21t-4 16q0 26 8 39.5t18 13.5q11 0 19 -7.5t8 -19.5h15q0 17 -7 25t-14 13t-19 8.5t-41 3.5q-14 0 -26 -7t-21 -17.5t-14 -22.5t-5 -21
q0 -16 5 -35t12.5 -36t16.5 -30t18 -17l-45 -28q-15 0 -25.5 8t-10.5 19v410q0 18 4.5 25t18.5 7v12q-9 0 -27.5 5t-37 13.5t-33 18.5t-14.5 20h-16q0 -10 -8.5 -20.5t-20 -18.5t-23.5 -13.5t-18 -5.5q-3 0 -13.5 0.5t-13.5 1.5v104q5 -5 9 -8q4 -2 5 -2q6 -2 5 -2q7 0 7 7
q0 2 -4 10q-3 4 -6.5 11l-7 13.5t-6 12t-2.5 7.5l4 5q4 0 19 -7t33.5 -17l36.5 -20.5t27 -17.5h12q0 11 6.5 27.5t16.5 32t22 26.5t23 11q14 0 21 -7.5t7 -12.5q0 -6 -4 -12t-9.5 -11.5t-9.5 -8.5q-4 -2 -5 -3v-12q3 0 11 3t16 8.5t14 13.5t6 17q0 18 -8.5 31t-20.5 21.5
t-26.5 12.5t-26.5 4q-13 0 -29.5 -5.5t-31.5 -16.5t-27 -27t-16 -37q-29 13 -48.5 23t-44.5 21q-4 2 -7 2q-7 0 -7 -6t4 -11l13 -19t11 -19q-4 0 -25.5 12.5l-46 28t-44 29.5t-19.5 16h-17q0 -9 -7 -26t-17.5 -34.5t-23 -30t-23.5 -12.5t-18 9t-7 26h-6q-1 -4 -1 -14
q0 -31 18 -47t43 -16q13 0 33 8.5t39 20.5t32.5 26.5t13.5 26.5q3 0 14 -7t22.5 -20t21 -31.5t9.5 -42.5v-68l-46 -17q0 29 -30 50.5t-73 21.5q-38 0 -60.5 -14t-22.5 -37v-10t2 -10h9q1 14 8.5 23.5t20.5 9.5q12 0 21 -11.5t9 -41.5v-402q0 -20 -15 -20v-20q13 0 30.5 -6
t34 -14.5t30 -17.5t18.5 -15l71 72l-8 11l-18 -16l-27 26v396q16 11 37.5 18t40.5 7q34 0 58 -10t24 -36v-353q0 -14 -4.5 -18t-12.5 -4z" />
    <glyph glyph-name="FL123Bh" unicode="&#x123b;" horiz-adv-x="539" 
d="M345 58v-20q13 0 30.5 -6t34 -14.5t30 -17.5t18.5 -15l71 72l-8 11l-18 -16l-28 26v399q0 18 4.5 25t18.5 7v12q-9 0 -27.5 5t-37 13.5t-33 18.5t-14.5 20h-16q0 -10 -8.5 -20.5t-20 -18.5t-23.5 -13.5t-18 -5.5q-3 0 -13.5 0.5t-13.5 1.5v104q5 -5 9 -8q4 -2 5 -2
q6 -2 5 -2q7 0 7 7q0 2 -4 10q-3 4 -6.5 11l-7 13.5t-6 12t-2.5 7.5l4 5q4 0 19 -7t33.5 -17l36.5 -20.5t27 -17.5h12q0 11 6.5 27.5t16.5 32t22 26.5t23 11q14 0 21 -7.5t7 -12.5q0 -6 -4 -12t-9.5 -11.5t-9.5 -8.5q-4 -2 -5 -3v-12q3 0 11 3t16 8.5t14 13.5t6 17
q0 18 -8.5 31t-20.5 21.5t-26.5 12.5t-26.5 4q-13 0 -29.5 -5.5t-31.5 -16.5t-27 -27t-16 -37q-29 13 -48.5 23t-44.5 21q-4 2 -7 2q-7 0 -7 -6t4 -11l13 -19t11 -19q-4 0 -25.5 12.5l-46 28t-44 29.5t-19.5 16h-17q0 -9 -7 -26t-17.5 -34.5t-23 -30t-23.5 -12.5t-18 9
t-7 26h-6q-1 -4 -1 -14q0 -31 18 -47t43 -16q13 0 33 8.5t39 20.5t32.5 26.5t13.5 26.5q3 0 14 -7t22.5 -20t21 -31.5t9.5 -42.5v-68l-46 -17q0 29 -30 50.5t-73 21.5q-38 0 -60.5 -14t-22.5 -37v-10t2 -10h9q1 14 8.5 23.5t20.5 9.5q12 0 21 -11.5t9 -41.5v-264
q0 -20 -15 -20v-20q13 0 30.5 -6t34 -14.5t30 -17.5t18.5 -15l71 72l-8 11l-18 -16l-27 26v258q16 11 37.5 18t40.5 7q34 0 58 -10t24 -36v-377q0 -20 -15 -20z" />
    <glyph glyph-name="FL123Ch" unicode="&#x123c;" horiz-adv-x="612" 
d="M345 79v-20q8 0 25 -10.5l35.5 -23t33.5 -24.5t18 -15l145 66v13q-5 -4 -15 -5v154q-3 0 -11 2t-16 6t-14.5 10t-6.5 13h-15q0 -3 -5.5 -8t-13.5 -11t-16.5 -11t-13.5 -7v269q0 18 4.5 25t18.5 7v12q-9 0 -27.5 5t-37 13.5t-33 18.5t-14.5 20h-16q0 -10 -8.5 -20.5
t-20 -18.5t-23.5 -13.5t-18 -5.5q-3 0 -13.5 0.5t-13.5 1.5v104q5 -5 9 -8q4 -2 5 -2q6 -2 5 -2q7 0 7 7q0 2 -4 10q-3 4 -6.5 11l-7 13.5t-6 12t-2.5 7.5l4 5q4 0 19 -7t33.5 -17l36.5 -20.5t27 -17.5h12q0 11 6.5 27.5t16.5 32t22 26.5t23 11q14 0 21 -7.5t7 -12.5
q0 -6 -4 -12t-9.5 -11.5t-9.5 -8.5q-4 -2 -5 -3v-12q3 0 11 3t16 8.5t14 13.5t6 17q0 18 -8.5 31t-20.5 21.5t-26.5 12.5t-26.5 4q-13 0 -29.5 -5.5t-31.5 -16.5t-27 -27t-16 -37q-29 13 -48.5 23t-44.5 21q-4 2 -7 2q-7 0 -7 -6t4 -11l13 -19t11 -19q-4 0 -25.5 12.5
l-46 28t-44 29.5t-19.5 16h-17q0 -9 -7 -26t-17.5 -34.5t-23 -30t-23.5 -12.5t-18 9t-7 26h-6q-1 -4 -1 -14q0 -31 18 -47t43 -16q13 0 33 8.5t39 20.5t32.5 26.5t13.5 26.5q3 0 14 -7t22.5 -20t21 -31.5t9.5 -42.5v-68l-46 -17q0 29 -30 50.5t-73 21.5q-38 0 -60.5 -14
t-22.5 -37v-10t2 -10h9q1 14 8.5 23.5t20.5 9.5q12 0 21 -11.5t9 -41.5v-402q0 -20 -15 -20v-20q13 0 30.5 -6t34 -14.5t30 -17.5t18.5 -15l71 72l-8 11l-18 -16l-27 26v396q16 11 37.5 18t40.5 7q34 0 58 -10t24 -36v-355q0 -9 -3.5 -15t-11.5 -6zM541 192v-137l-10 -4
q-26 0 -41 5.5t-15 25.5v110q14 6 23.5 12t18.5 11z" />
    <glyph glyph-name="FL123Dh" unicode="&#x123d;" horiz-adv-x="585" 
d="M391 58v-20q13 0 30.5 -6t34 -14.5t30 -17.5t18.5 -15l71 72l-8 11l-18 -16l-28 26v399q0 18 4.5 25t18.5 7v12q-9 0 -27.5 5t-37 13.5t-33 18.5t-14.5 20h-16q0 -10 -8.5 -20.5t-20 -18.5t-23.5 -13.5t-18 -5.5q-3 0 -13.5 0.5t-13.5 1.5v35q0 5 -7 9.5t-16 8t-16 7.5
t-7 7v38q5 -5 9 -7q4 -3 5 -3q6 -2 5 -2q7 0 7 7q0 2 -4 10q-3 4 -6.5 11l-7 13.5t-6 12t-2.5 7.5l4 5q4 0 19 -7t33.5 -17l36.5 -20.5t27 -17.5h12q0 11 6.5 27.5t16.5 32t22 26.5t23 11q14 0 21 -7.5t7 -12.5q0 -6 -4 -12t-9.5 -11.5t-9.5 -8.5q-4 -2 -5 -3v-12q3 0 11 3
t16 8.5t14 13.5t6 17q0 18 -8.5 31t-20.5 21.5t-26.5 12.5t-26.5 4q-13 0 -29.5 -5.5t-31.5 -16.5t-27 -27t-16 -37q-29 13 -48.5 23t-44.5 21q-4 2 -7 2q-7 0 -7 -6t4 -11l13 -19t11 -19q-4 0 -25.5 12.5l-46 28t-44 29.5t-19.5 16h-17q0 -9 -7 -26t-17.5 -34.5t-23 -30
t-23.5 -12.5t-18 9t-7 26h-6q-1 -4 -1 -14q0 -31 18 -47t43 -16q13 0 33 8.5t39 20.5t32.5 26.5t13.5 26.5q3 0 14 -7t22.5 -20t21 -31.5t9.5 -42.5q0 -5 7 -9.5t16 -8t16 -6.5t7 -6v-39l-46 -17q0 29 -30 50.5t-73 21.5q-38 0 -60.5 -14t-22.5 -37v-10t2 -10h9
q1 14 8.5 23.5t20.5 9.5q12 0 21 -11.5t9 -41.5v-402q0 -20 -15 -20v-20q13 0 30.5 -6t34 -14.5t30 -17.5t18.5 -15l71 72l-8 11l-18 -16l-27 26v396q16 11 37.5 18t40.5 7q34 0 58 -10t24 -36v-377q0 -20 -15 -20z" />
    <glyph glyph-name="FL123Eh" unicode="&#x123e;" horiz-adv-x="539" 
d="M345 208v-20q13 0 30.5 -6t34 -14.5t30 -17.5t18.5 -15l71 72l-8 11l-18 -16l-28 26v249q0 18 4.5 25t18.5 7v12q-9 0 -27.5 5t-37 13.5t-33 18.5t-14.5 20h-16q0 -10 -8.5 -20.5t-20 -18.5t-23.5 -13.5t-18 -5.5q-3 0 -13.5 0.5t-13.5 1.5v104q5 -5 9 -8q4 -2 5 -2
q6 -2 5 -2q7 0 7 7q0 2 -4 10q-3 4 -6.5 11l-7 13.5t-6 12t-2.5 7.5l4 5q4 0 19 -7t33.5 -17l36.5 -20.5t27 -17.5h12q0 11 6.5 27.5t16.5 32t22 26.5t23 11q14 0 21 -7.5t7 -12.5q0 -6 -4 -12t-9.5 -11.5t-9.5 -8.5q-4 -2 -5 -3v-12q3 0 11 3t16 8.5t14 13.5t6 17
q0 18 -8.5 31t-20.5 21.5t-26.5 12.5t-26.5 4q-13 0 -29.5 -5.5t-31.5 -16.5t-27 -27t-16 -37q-29 13 -48.5 23t-44.5 21q-4 2 -7 2q-7 0 -7 -6t4 -11l13 -19t11 -19q-4 0 -25.5 12.5l-46 28t-44 29.5t-19.5 16h-17q0 -9 -7 -26t-17.5 -34.5t-23 -30t-23.5 -12.5t-18 9
t-7 26h-6q-1 -4 -1 -14q0 -31 18 -47t43 -16q13 0 33 8.5t39 20.5t32.5 26.5t13.5 26.5q3 0 14 -7t22.5 -20t21 -31.5t9.5 -42.5v-68l-46 -17q0 29 -30 50.5t-73 21.5q-38 0 -60.5 -14t-22.5 -37v-10t2 -10h9q1 14 8.5 23.5t20.5 9.5q12 0 21 -11.5t9 -41.5v-402
q0 -20 -15 -20v-20q13 0 30.5 -6t34 -14.5t30 -17.5t18.5 -15l71 72l-8 11l-18 -16l-27 26v396q16 11 37.5 18t40.5 7q34 0 58 -10t24 -36v-227q0 -20 -15 -20z" />
    <glyph glyph-name="sh8" unicode="&#x123f;" horiz-adv-x="695" 
d="M565 -41q0 12 7.5 31.5t18.5 38t23.5 32t23.5 13.5q14 0 21 -7.5t7 -13.5q0 -9 -3.5 -17t-7.5 -13.5t-8 -8.5q-3 -2 -4 -3l1 -13q3 0 10 4.5t13.5 11t12 16t5.5 20.5q0 20 -9 33.5t-22 22t-28 12t-26 3.5q-12 0 -28.5 -8t-31 -22.5t-24.5 -34t-10 -42.5l-31 13v452
q0 18 4.5 25t18.5 7v12q-9 0 -27.5 5t-37 13.5t-33 18.5t-14.5 20h-16q0 -10 -8.5 -20.5t-20 -18.5t-23.5 -13.5t-18 -5.5q-3 0 -13.5 0.5t-13.5 1.5v104q5 -5 9 -8q4 -2 5 -2q6 -2 5 -2q7 0 7 7q0 2 -4 10q-3 4 -6.5 11l-7 13.5t-6 12t-2.5 7.5l4 5q4 0 19 -7t33.5 -17
l36.5 -20.5t27 -17.5h12q0 11 6.5 27.5t16.5 32t22 26.5t23 11q14 0 21 -7.5t7 -12.5q0 -6 -4 -12t-9.5 -11.5t-9.5 -8.5q-4 -2 -5 -3v-12q3 0 11 3t16 8.5t14 13.5t6 17q0 18 -8.5 31t-20.5 21.5t-26.5 12.5t-26.5 4q-13 0 -29.5 -5.5t-31.5 -16.5t-27 -27t-16 -37
q-29 13 -48.5 23t-44.5 21q-4 2 -7 2q-7 0 -7 -6t4 -11l13 -19t11 -19q-4 0 -25.5 12.5l-46 28t-44 29.5t-19.5 16h-17q0 -9 -7 -26t-17.5 -34.5t-23 -30t-23.5 -12.5t-18 9t-7 26h-6q-1 -4 -1 -14q0 -31 18 -47t43 -16q13 0 33 8.5t39 20.5t32.5 26.5t13.5 26.5q3 0 14 -7
t22.5 -20t21 -31.5t9.5 -42.5v-68l-46 -17q0 29 -30 50.5t-73 21.5q-38 0 -60.5 -14t-22.5 -37v-10t2 -10h9q1 14 8.5 23.5t20.5 9.5q12 0 21 -11.5t9 -41.5v-264q0 -20 -15 -20v-20q13 0 30.5 -6t34 -14.5t30 -17.5t18.5 -15l71 72l-8 11l-18 -16l-27 26v258q16 11 37.5 18
t40.5 7q34 0 58 -10t24 -36v-385q-38 16 -64 28.5t-26 20.5h-16q0 -13 -5.5 -34.5t-14 -42.5t-19 -36t-20.5 -15q-11 0 -19 7.5t-10 26.5l-7 -1v-8q0 -3 1 -8q5 -35 25 -48t44 -13q12 0 28.5 10t32 26t26.5 36t11 39q21 -11 59 -26l75.5 -30t65 -27.5t27.5 -18.5z" />
    <glyph glyph-name="FL1240h" unicode="&#x1240;" horiz-adv-x="559" 
d="M406 295l-47 -27v-20l47 27v-13q0 -11 -2 -14t-9 -3v-16q13 0 28.5 -3t29 -8t24.5 -11t16 -12l56 51l-7 8l-8 -7l-13 10v164q0 20 6 33.5t19 24.5q-16 0 -36 4.5t-38.5 11.5t-31.5 16t-16 17l-15 -17.5l-20.5 -22.5t-20 -19t-14.5 -8v121q0 13 11 23t24 10v23
q-14 0 -35 8.5t-40.5 20.5t-34 24t-14.5 19h-16q0 -7 -8.5 -18t-20 -21.5t-23 -18t-17.5 -7.5v-13q6 0 16 -3t19 -7.5t16 -11t7 -12.5v-128l-53 -28v24q0 13 -9 24t-23.5 19.5t-32.5 13.5t-37 5q-38 0 -60.5 -14t-22.5 -37v-10t2 -10h9q1 14 8.5 23.5t20.5 9.5q12 0 21 -7.5
t9 -37.5v-181q0 -20 -15 -20v-18q13 0 30.5 -6t34 -14.5t29.5 -17.5t18 -15l71 58v-179q0 -20 -15 -20v-20q13 0 31 -6t34.5 -14.5t30 -17.5t18.5 -15l71 72l-8 11l-18 -16l-28 26v395l28 13l24 -19v-146zM185 260v168l53 28v-204l-26 -20z" />
    <glyph glyph-name="FL1241h" unicode="&#x1241;" horiz-adv-x="559" 
d="M426 199l-72 -45v297l28 13l24 -19v-146l-47 -27v-20l47 27v-13q0 -11 -2 -14t-9 -3v-16q13 0 28.5 -3t29 -8t24.5 -11t16 -12l56 51l-7 8l-8 -7l-13 10v164q0 20 6 33.5t19 24.5q-16 0 -36 4.5t-38.5 11.5t-31.5 16t-16 17l-15 -17.5l-20.5 -22.5t-20 -19t-14.5 -8v121
q0 13 11 23t24 10v23q-14 0 -35 8.5t-40.5 20.5t-34 24t-14.5 19h-16q0 -7 -8.5 -18t-20 -21.5t-23 -18t-17.5 -7.5v-13q6 0 16 -3t19 -7.5t16 -11t7 -12.5v-128l-53 -28v24q0 13 -9 24t-23.5 19.5t-32.5 13.5t-37 5q-38 0 -60.5 -14t-22.5 -37v-10t2 -10h9q1 14 8.5 23.5
t20.5 9.5q12 0 21 -7.5t9 -37.5v-181q0 -20 -15 -20v-18q13 0 30.5 -6t34 -14.5t29.5 -17.5t18 -15l71 58v-179q0 -20 -15 -20v-20q13 0 31 -6t34.5 -14.5t30 -17.5t18.5 -15l71 72l-8 11l-18 -16l-28 26v80l30 19l37 -27q-5 -7 -5.5 -18t-0.5 -15q0 -23 17.5 -40t40.5 -17
q30 0 46 7.5t16 27.5q0 14 -5 18h-11q2 -2 4 -7.5t2 -8.5q0 -9 -7.5 -11.5t-16.5 -2.5q-8 0 -15.5 11.5t-7.5 25.5q0 10 8.5 24t24.5 25v10q-8 0 -20.5 5t-24.5 12t-20.5 14t-8.5 11h-11zM185 264v168l53 28v-204l-26 -20z" />
    <glyph glyph-name="FL1242h" unicode="&#x1242;" horiz-adv-x="559" 
d="M221 55v-19q8 0 25.5 -10.5t35.5 -23.5t31.5 -25t13.5 -15h15l53 39.5t48.5 32.5t39 22t24.5 8v13l-32 25t-14 23q0 26 8 39.5t18 13.5q11 0 19 -7.5t8 -18.5v-1h15v1q0 16 -7 24t-14 13t-19 8.5t-41 3.5q-14 0 -26 -7t-21 -17.5t-14 -22.5t-5 -21q0 -32 17.5 -57
t34.5 -33l-45 -28q-15 0 -25 8t-10 19v430l28 13l24 -19v-146l-47 -27v-20l47 27v-13q0 -11 -2 -14t-9 -3v-16q13 0 28.5 -3t29 -8t24.5 -11t16 -12l56 51l-7 8l-8 -7l-13 10v164q0 20 6 33.5t19 24.5q-16 0 -36 4.5t-38.5 11.5t-31.5 16t-16 17l-15 -17.5l-20.5 -22.5
t-20 -19t-14.5 -8v105q0 13 11 23t24 10v23q-14 0 -35 8.5t-40.5 20.5t-34 24t-14.5 19h-16q0 -7 -8.5 -18t-20 -21.5t-23 -18t-17.5 -7.5v-13q6 0 16 -3t19 -7.5t16 -11t7 -12.5v-112l-53 -28v24q0 13 -9 24t-23.5 19.5t-32.5 13.5t-37 5q-38 0 -60.5 -14t-22.5 -37v-10
t2 -10h9q1 14 8.5 23.5t20.5 9.5q12 0 21 -7.5t9 -37.5v-181q0 -20 -15 -20v-18q13 0 30.5 -6t34 -14.5t29.5 -17.5t18 -15l71 58v-179q0 -14 -4.5 -18t-12.5 -4zM185 285v168l53 28v-204l-26 -20z" />
    <glyph glyph-name="FL1243h" unicode="&#x1243;" horiz-adv-x="559" 
d="M406 294l-47 -27v-20l47 27v-13q0 -11 -2 -14t-9 -3v-16q13 0 28.5 -3t29 -8t24.5 -11t16 -12l56 51l-7 8l-8 -7l-13 10v164q0 20 6 33.5t19 24.5q-16 0 -36 4.5t-38.5 11.5t-31.5 16t-16 17l-15 -17.5l-20.5 -22.5t-20 -19t-14.5 -8v121q0 13 11 23t24 10v23
q-14 0 -35 8.5t-40.5 20.5t-34 24t-14.5 19h-16q0 -7 -8.5 -18t-20 -21.5t-23 -18t-17.5 -7.5v-13q6 0 16 -3t19 -7.5t16 -11t7 -12.5v-98l-53 -28v24q0 13 -9 24t-23.5 19.5t-32.5 13.5t-37 5q-38 0 -60.5 -14t-22.5 -37v-10t2 -10h9q1 14 8.5 23.5t20.5 9.5q12 0 21 -7.5
t9 -37.5v-193q0 -20 -15 -20v-18q13 0 30.5 -6t34 -14.5t29.5 -17.5t18 -15l71 58v-88l-173 -71v-50q0 -20 -15 -20v-20q13 0 31 -6t34.5 -14.5t30 -17.5t18.5 -15l71 72l-8 11l-18 -16l-28 26v55l173 44v308l28 13l24 -19v-146zM185 277v180l53 28v-216l-26 -20z" />
    <glyph glyph-name="FL1244h" unicode="&#x1244;" horiz-adv-x="559" 
d="M223 49v-20q8 0 25 -10.5l35.5 -23t33.5 -24.5t18 -15l145 66v13q-5 -4 -15 -5v125q-3 0 -11 2t-16 6t-14.5 10t-6.5 13h-15q0 -3 -5.5 -8t-13 -11t-16 -11t-13.5 -7v305l28 13l24 -19v-146l-47 -27v-20l47 27v-13q0 -11 -2 -14t-9 -3v-16q13 0 28.5 -3t29 -8t24.5 -11
t16 -12l56 51l-7 8l-8 -7l-13 10v164q0 20 6 33.5t19 24.5q-16 0 -36 4.5t-38.5 11.5t-31.5 16t-16 17l-15 -17.5l-20.5 -22.5t-20 -19t-14.5 -8v121q0 13 11 23t24 10v23q-14 0 -35 8.5t-40.5 20.5t-34 24t-14.5 19h-16q0 -7 -8.5 -18t-20 -21.5t-23 -18t-17.5 -7.5v-13
q6 0 16 -3t19 -7.5t16 -11t7 -12.5v-128l-53 -28v24q0 13 -9 24t-23.5 19.5t-32.5 13.5t-37 5q-38 0 -60.5 -14t-22.5 -37v-10t2 -10h9q1 14 8.5 23.5t20.5 9.5q12 0 21 -7.5t9 -37.5v-181q0 -20 -15 -20v-18q13 0 30.5 -6t34 -14.5t29.5 -17.5t18 -15l71 58v-168
q0 -9 -3.5 -15t-11.5 -6zM185 267v168l53 28v-204l-26 -20zM419 133v-108l-10 -4q-26 0 -40.5 5.5t-14.5 25.5v81q14 6 23 12t18 11z" />
    <glyph glyph-name="FL1245h" unicode="&#x1245;" horiz-adv-x="559" 
d="M228 705h-14q0 -11 -7.5 -21t-20.5 -18t-30 -12.5t-36 -4.5q-8 0 -19 5.5t-21 16.5t-16.5 27t-6.5 37h-16q0 -36 5 -66t15.5 -52t26.5 -34.5t39 -12.5q18 0 35.5 3.5t32.5 7t26 7t17 3.5v-121l-53 -28v24q0 13 -9 24t-23.5 19.5t-32.5 13.5t-37 5q-38 0 -60.5 -14
t-22.5 -37v-10t2 -10h9q1 14 8.5 23.5t20.5 9.5q12 0 21 -7.5t9 -37.5v-181q0 -20 -15 -20v-18q13 0 30.5 -6t34 -14.5t29.5 -17.5t18 -15l71 58v-179q0 -20 -15 -20v-20q13 0 31 -6t34.5 -14.5t30 -17.5t18.5 -15l71 72l-8 11l-18 -16l-28 26v395l28 13l24 -19v-146
l-47 -27v-20l47 27v-13q0 -11 -2 -14t-9 -3v-16q13 0 28.5 -3t29 -8t24.5 -11t16 -12l56 51l-7 8l-8 -7l-13 10v164q0 20 6 33.5t19 24.5q-16 0 -36 4.5t-38.5 11.5t-31.5 16t-16 17l-15 -17.5l-20.5 -22.5t-20 -19t-14.5 -8v135q0 7 5 12t13 5v17q-12 0 -36 5t-48 15
t-42 23.5t-18 31.5zM185 260v168l53 28v-204l-26 -20z" />
    <glyph glyph-name="FL1246h" unicode="&#x1246;" horiz-adv-x="559" 
d="M354 459q5 4 21 13t34 18t34.5 16t22.5 7v10q-15 0 -15 20v108q-18 0 -49.5 3.5t-61.5 11t-52.5 19.5t-22.5 28h-16q-5 -23 -25 -43.5t-44 -24.5v-12q9 0 19 -3t18.5 -7.5t14.5 -11t6 -12.5v-128l-53 -28v24q0 13 -9 24t-23.5 19.5t-32.5 13.5t-37 5q-38 0 -60.5 -14
t-22.5 -37v-10t2 -10h9q1 14 8.5 23.5t20.5 9.5q12 0 21 -7.5t9 -37.5v-205q0 -20 -15 -20v-18q13 0 30.5 -6t34 -14.5t29.5 -17.5t18 -15l71 58v-155q0 -20 -15 -20v-20q13 0 31 -6t34.5 -14.5t30 -17.5t18.5 -15l71 72l-8 11l-18 -16l-28 26v344l28 13l24 -19v-127
l-47 -27v-20l47 27v-13q0 -11 -2 -14t-9 -3v-16q13 0 28.5 -3t29 -8t24.5 -11t16 -12l56 51l-7 8l-8 -7l-13 10v145q0 20 6 33.5t19 24.5q-16 0 -36 4.5t-38.5 11.5t-31.5 16t-16 17l-15 -17.5l-20.5 -22.5t-20 -19t-14.5 -8v48zM185 237v192l53 28v-228l-26 -20zM405 506
l-51 -31v98q0 19 3 29t9 15t15.5 6t23.5 1v-118z" />
    <glyph glyph-name="FL1248h" unicode="&#x1248;" horiz-adv-x="615" 
d="M605 74v122q-13 0 -28.5 4.5t-25.5 15.5l-42 -18q-13 0 -30.5 5t-22.5 13q-4 -8 -29 -18t-51 -17l-22 -8v302l28 13l24 -19v-146l-47 -27v-20l47 27v-13q0 -11 -2 -14t-9 -3v-16q13 0 28.5 -3t29 -8t24.5 -11t16 -12l56 51l-7 8l-8 -7l-13 10v164q0 20 6 33.5t19 24.5
q-16 0 -36 4.5t-38.5 11.5t-31.5 16t-16 17l-15 -17.5l-20.5 -22.5t-20 -19t-14.5 -8v121q0 13 11 23t24 10v23q-14 0 -35 8.5t-40.5 20.5t-34 24t-14.5 19h-16q0 -7 -8.5 -18t-20 -21.5t-23 -18t-17.5 -7.5v-13q6 0 16 -3t19 -7.5t16 -11t7 -12.5v-128l-53 -28v24
q0 13 -9 24t-23.5 19.5t-32.5 13.5t-37 5q-38 0 -60.5 -14t-22.5 -37v-10t2 -10h9q1 14 8.5 23.5t20.5 9.5q12 0 21 -7.5t9 -37.5v-181q0 -20 -15 -20v-18q13 0 30.5 -6t34 -14.5t29.5 -17.5t18 -15l71 58v-179q0 -20 -15 -20v-20q13 0 31 -6t34.5 -14.5t30 -17.5t18.5 -15
l71 72l-8 11l-18 -16l-28 26v75l57 18q25 0 25 -26v-42q0 -14 -4 -18.5t-9 -4.5v-12q7 0 19 -5.5t23 -12.5t19 -13.5t8 -8.5zM185 288v168l53 28v-204l-26 -20zM562 189v-115l-27 -12q-16 0 -21 9t-5 23v87l39 16z" />
    <glyph glyph-name="FL124Ah" unicode="&#x124a;" horiz-adv-x="860" 
d="M697 338q0 -13 2.5 -33.5t6.5 -29.5q12 -28 34.5 -42t43.5 -14q22 0 41.5 9.5t24.5 23.5l-7 5q-1 -4 -9.5 -6.5t-16.5 -4.5q-15 1 -23.5 17.5t-8.5 32.5q0 35 9 44t23 9v14q-2 1 -16.5 5t-31 11t-16.5 14h-18q0 -3 -8.5 -12t-19.5 -18.5t-22.5 -16.5t-17.5 -7
q-9 0 -15 5.5t-6 13.5v111q-9 0 -22 2t-25 5t-21 7t-9 8h-14q-1 -15 -12 -17q8 -2 13.5 -10t5.5 -24v-32l-41 -13v54q0 20 6 33.5t19 24.5q-16 0 -36 4.5t-38.5 11.5t-31.5 16t-16 17l-15 -17.5l-20.5 -22.5t-20 -19t-14.5 -8v121q0 13 11 23t24 10v23q-14 0 -35 8.5
t-40.5 20.5t-34 24t-14.5 19h-16q0 -7 -8.5 -18t-20 -21.5t-23 -18t-17.5 -7.5v-13q6 0 16 -3t19 -7.5t16 -11t7 -12.5v-128l-53 -28v24q0 13 -9 24t-23.5 19.5t-32.5 13.5t-37 5q-38 0 -60.5 -14t-22.5 -37v-10t2 -10h9q1 14 8.5 23.5t20.5 9.5q12 0 21 -7.5t9 -37.5v-181
q0 -20 -15 -20v-18q13 0 30.5 -6t34 -14.5t29.5 -17.5t18 -15l71 58v-179q0 -20 -15 -20v-20q13 0 31 -6t34.5 -14.5t30 -17.5t18.5 -15l71 72l-8 11l-18 -16l-28 26v395l28 13l24 -19v-146l-47 -27v-20l47 27v-13q0 -11 -2 -14t-9 -3v-16q13 0 28.5 -3t29 -8t24.5 -11
t16 -12l56 51l-7 8l-8 -7l-13 10v94l42 14v-74q4 0 13 -3t18.5 -8.5t17 -12t7.5 -12.5h14q7 0 15.5 6.5t17.5 15t17 18t14 15.5zM185 288v168l53 28v-204l-26 -20z" />
    <glyph glyph-name="FL124Bh" unicode="&#x124b;" horiz-adv-x="574" 
d="M444 -46q0 12 7.5 31.5t18.5 38t23.5 32t23.5 13.5q14 0 21 -7.5t7 -13.5t-3.5 -13.5t-7.5 -14t-8 -10.5l-4 -4l1 -13q3 0 10 4.5t13.5 11t12 16t5.5 20.5q0 20 -9 33.5t-22 22t-28 12t-26 3.5q-12 0 -28.5 -8t-31 -22.5t-24.5 -34t-10 -42.5l-31 13v453l28 13l24 -19
v-146l-47 -27v-20l47 27v-13q0 -11 -2 -14t-9 -3v-16q13 0 28.5 -3t29 -8t24.5 -11t16 -12l56 51l-7 8l-8 -7l-13 10v164q0 20 6 33.5t19 24.5q-16 0 -36 4.5t-38.5 11.5t-31.5 16t-16 17l-15 -17.5l-20.5 -22.5t-20 -19t-14.5 -8v121q0 13 11 23t24 10v23q-14 0 -35 8.5
t-40.5 20.5t-34 24t-14.5 19h-16q0 -7 -8.5 -18t-20 -21.5t-23 -18t-17.5 -7.5v-13q6 0 16 -3t19 -7.5t16 -11t7 -12.5v-128l-53 -28v24q0 13 -9 24t-23.5 19.5t-32.5 13.5t-37 5q-38 0 -60.5 -14t-22.5 -37v-10t2 -10h9q1 14 8.5 23.5t20.5 9.5q12 0 21 -7.5t9 -37.5v-181
q0 -20 -15 -20v-18q13 0 30.5 -6t34 -14.5t29.5 -17.5t18 -15l71 58v-192q-38 16 -64 28.5t-26 20.5h-16q0 -13 -5.5 -34.5t-14 -42.5t-19 -36t-20.5 -15q-11 0 -19 7.5t-10 26.5l-7 -1v-8q0 -3 1 -8q5 -35 25 -48t44 -13q12 0 28.5 10t32 26t26.5 36t11 39
q14 -7 36.5 -16.5l47.5 -19.5l51 -20t46.5 -19t33.5 -16t13 -11zM185 288v168l53 28v-204l-26 -20z" />
    <glyph glyph-name="FL124Ch" unicode="&#x124c;" horiz-adv-x="559" 
d="M335 18l145 66v16l-15 -8v125q-3 0 -11 2t-16 6t-14.5 10t-6.5 13h-15q0 -3 -5.5 -7.5t-13 -9.5t-16 -9.5t-13.5 -6.5v299l28 13l24 -19v-146l-47 -27v-20l47 27v-13q0 -11 -2 -14t-9 -3v-16q13 0 28.5 -3t29 -8t24.5 -11t16 -12l56 51l-7 8l-8 -7l-13 10v164
q0 20 6 33.5t19 24.5q-16 0 -36 4.5t-38.5 11.5t-31.5 16t-16 17l-15 -17.5l-20.5 -22.5t-20 -19t-14.5 -8v92q0 13 11 23t24 10v23q-14 0 -35 8.5t-40.5 20.5t-34 24t-14.5 19h-16q0 -7 -8.5 -18t-20 -21.5t-23 -18t-17.5 -7.5v-13q6 0 16 -3t19 -7.5t16 -11t7 -12.5v-99
l-53 -28v24q0 13 -9 24t-23.5 19.5t-32.5 13.5t-37 5q-38 0 -60.5 -14t-22.5 -37v-10t2 -10h9q1 14 8.5 23.5t20.5 9.5q12 0 21 -7.5t9 -37.5v-181q0 -20 -15 -20v-18q13 0 30.5 -6t34 -14.5t29.5 -17.5t18 -15l71 58v-166q0 -11 -6.5 -19.5t-15.5 -15.5t-19.5 -11t-19.5 -4
q-1 23 -18 34.5t-39 21.5q-10 -8 -20 -18t-21 -19t-22 -15t-23 -6v-15q29 0 43 -11.5t14 -52.5q0 -21 -3 -34.5t-7 -20.5t-9 -9.5t-9 -2.5q-7 0 -16.5 4.5t-11.5 9.5l-6 -12q1 0 4.5 -4t10 -9t17 -9t25.5 -4q49 0 75 37t26 116q11 1 26.5 6t24.5 13q9 0 24 -9t30 -20.5
l27.5 -21.5t15.5 -13zM185 327v168l53 28v-204l-26 -20zM419 195v-113l-23 -14q-26 0 -34 13t-8 33v81q14 6 23 12t18 11z" />
    <glyph glyph-name="FL124Dh" unicode="&#x124d;" horiz-adv-x="857" 
d="M694 350q0 -13 2.5 -33.5t6.5 -29.5q12 -28 30 -42t39 -14q10 0 22.5 2.5t23.5 7t19 10.5t10 13l-7 5q-1 -4 -9.5 -6.5t-16.5 -4.5q-15 1 -23.5 17.5t-8.5 32.5q0 35 9 44t23 9v14q-2 1 -16.5 5t-31 11t-16.5 14h-18q0 -3 -8.5 -12t-19.5 -18.5t-22.5 -16.5t-17.5 -7
q-9 0 -15 7t-6 12v91q-9 0 -22 2t-25 5t-20.5 7t-8.5 8h-14q-1 -15 -13 -17q9 -2 14.5 -15t5.5 -30v-75q-7 2 -17.5 3t-21.5 3v97q0 20 6 33.5t19 24.5q-16 0 -36 4.5t-38.5 11.5t-31.5 16t-16 17l-15 -17.5l-20.5 -22.5t-20 -19t-14.5 -8v121q0 13 11 23t24 10v23
q-14 0 -35 8.5t-40.5 20.5t-34 24t-14.5 19h-16q0 -7 -8.5 -18t-20 -21.5t-23 -18t-17.5 -7.5v-13q6 0 16 -3t19 -7.5t16 -11t7 -12.5v-128l-53 -28v24q0 13 -9 24t-23.5 19.5t-32.5 13.5t-37 5q-38 0 -60.5 -14t-22.5 -37v-10t2 -10h9q1 14 8.5 23.5t20.5 9.5q12 0 21 -7.5
t9 -37.5v-181q0 -20 -15 -20v-18q13 0 30.5 -6t34 -14.5t29.5 -17.5t18 -15l71 58v-179q0 -20 -15 -20v-20q13 0 31 -6t34.5 -14.5t30 -17.5t18.5 -15l71 72l-8 11l-18 -16l-28 26v395l28 13l24 -19v-146l-47 -27v-20l47 27v-13q0 -11 -2 -14t-9 -3v-16q13 0 28.5 -3t29 -8
t24.5 -11t16 -12l56 51l-7 8l-8 -7l-13 10v48q38 -4 66.5 -15t28.5 -23h14q7 0 15.5 6.5t17.5 15t17 18t14 15.5zM185 288v168l53 28v-204l-26 -20z" />
    <glyph glyph-name="FL1250h" unicode="&#x1250;" horiz-adv-x="560" 
d="M441 605v5q0 9 6 24.5t15.5 30.5t21 26t22.5 11q13 0 19.5 -7.5t6.5 -12.5q0 -14 -5.5 -24.5t-20.5 -10.5v-7q18 0 31 13t13 31q0 26 -23 44t-55 18q-12 0 -27.5 -5.5t-30 -16.5t-25.5 -27t-15 -37l-93 51q-1 1 -6 1q-6 0 -6 -6q0 -8 2 -10l12.5 -19t10.5 -19
q-20 9 -43 22.5l-43.5 26.5t-35 23.5t-17.5 13.5h-21q0 -9 -6 -26t-15 -34.5t-20.5 -30t-21.5 -12.5q-9 0 -16 9t-7 26h-6q-1 -4 -1 -14v-9q0 -23 16 -38.5t40 -15.5h2q21 1 40.5 6t35 15t25 25.5t9.5 37.5l29 -17v-168l-53 -28v24q0 13 -9 24t-23.5 19.5t-32.5 13.5t-37 5
q-38 0 -60.5 -14t-22.5 -37v-10t2 -10h9q1 14 8.5 23.5t20.5 9.5q12 0 21 -7.5t9 -37.5v-181q0 -20 -15 -20v-18q13 0 30.5 -6t34 -14.5t29.5 -17.5t18 -15l71 58v-179q0 -20 -15 -20v-20q13 0 31 -6t34.5 -14.5t30 -17.5t18.5 -15l71 72l-8 11l-18 -16l-28 26v395l28 13
l24 -19v-146l-47 -27v-20l47 27v-13q0 -11 -2 -14t-9 -3v-16q13 0 28.5 -3t29 -8t24.5 -11t16 -12l56 51l-7 8l-8 -7l-13 10v164q0 20 6 33.5t19 24.5q-16 0 -36 4.5t-38.5 11.5t-31.5 16t-16 17l-15 -17.5l-20.5 -22.5t-20 -19t-14.5 -8v159q9 -3 21 -9.5l23.5 -13
l20.5 -12t12 -8.5h10zM185 288v168l53 28v-204l-26 -20z" />
    <glyph glyph-name="FL1251h" unicode="&#x1251;" horiz-adv-x="560" 
d="M441 607v5q0 9 6 24.5t15.5 30.5t21 26t22.5 11q13 0 19.5 -7.5t6.5 -12.5q0 -14 -5.5 -24.5t-20.5 -10.5v-7q18 0 31 13t13 31q0 26 -23 44t-55 18q-12 0 -27.5 -5.5t-30 -16.5t-25.5 -27t-15 -37l-93 51q-1 1 -6 1q-6 0 -6 -6q0 -8 2 -10l12.5 -19t10.5 -19
q-20 9 -43 22.5l-43.5 26.5t-35 23.5t-17.5 13.5h-21q0 -9 -6 -26t-15 -34.5t-20.5 -30t-21.5 -12.5q-9 0 -16 9t-7 26h-6q-1 -4 -1 -14v-9q0 -23 16 -38.5t40 -15.5h2q21 1 40.5 6t35 15t25 25.5t9.5 37.5l29 -17v-170l-53 -28v24q0 13 -9 24t-23.5 19.5t-32.5 13.5t-37 5
q-38 0 -60.5 -14t-22.5 -37v-10t2 -10h9q1 14 8.5 23.5t20.5 9.5q12 0 21 -7.5t9 -37.5v-181q0 -20 -15 -20v-18q13 0 30.5 -6t34 -14.5t29.5 -17.5t18 -15l71 58v-179q0 -20 -15 -20v-20q13 0 31 -6t34.5 -14.5t30 -17.5t18.5 -15l71 72l-8 11l-18 -16l-28 26v80l30 19
l37 -27q-5 -7 -5.5 -18t-0.5 -15q0 -23 17.5 -40t40.5 -17q30 0 46 7.5t16 27.5q0 14 -5 18h-11q2 -2 4 -7.5t2 -8.5q0 -9 -7.5 -11.5t-16.5 -2.5q-8 0 -15.5 11.5t-7.5 25.5q0 10 8.5 24t24.5 25v10q-8 0 -20.5 5t-24.5 12t-20.5 14t-8.5 11h-11l-72 -45v297l28 13l24 -19
v-146l-47 -27v-20l47 27v-13q0 -11 -2 -14t-9 -3v-16q13 0 28.5 -3t29 -8t24.5 -11t16 -12l56 51l-7 8l-8 -7l-13 10v164q0 20 6 33.5t19 24.5q-16 0 -36 4.5t-38.5 11.5t-31.5 16t-16 17l-15 -17.5l-20.5 -22.5t-20 -19t-14.5 -8v161q9 -3 21 -9.5l23.5 -13l20.5 -12
t12 -8.5h10zM185 288v168l53 28v-204l-26 -20z" />
    <glyph glyph-name="FL1252h" unicode="&#x1252;" horiz-adv-x="560" 
d="M441 605v5q0 9 6 24.5t15.5 30.5t21 26t22.5 11q13 0 19.5 -7.5t6.5 -12.5q0 -14 -5.5 -24.5t-20.5 -10.5v-7q18 0 31 13t13 31q0 26 -23 44t-55 18q-12 0 -27.5 -5.5t-30 -16.5t-25.5 -27t-15 -37l-93 51q-1 1 -6 1q-6 0 -6 -6q0 -8 2 -10l12.5 -19t10.5 -19
q-20 9 -43 22.5l-43.5 26.5t-35 23.5t-17.5 13.5h-21q0 -9 -6 -26t-15 -34.5t-20.5 -30t-21.5 -12.5q-9 0 -16 9t-7 26h-6q-1 -4 -1 -14v-9q0 -23 16 -38.5t40 -15.5h2q21 1 40.5 6t35 15t25 25.5t9.5 37.5l29 -17v-146l-53 -28v24q0 13 -9 24t-23.5 19.5t-32.5 13.5t-37 5
q-38 0 -60.5 -14t-22.5 -37v-10t2 -10h9q1 14 8.5 23.5t20.5 9.5q12 0 21 -7.5t9 -37.5v-181q0 -20 -15 -20v-18q13 0 30.5 -6t34 -14.5t29.5 -17.5t18 -15l71 58v-179q0 -14 -4.5 -18t-12.5 -4v-19q8 0 25.5 -10.5t35.5 -23.5t31.5 -25t13.5 -15h15l53 39.5t48.5 32.5
t39 22t24.5 8v13l-32 25t-14 23q0 26 8 39.5t18 13.5q11 0 19 -7.5t8 -18.5v-1h15v1q0 16 -7 24t-14 13t-19 8.5t-41 3.5q-14 0 -26 -7t-21 -17.5t-14 -22.5t-5 -21q0 -32 17.5 -57t34.5 -33l-45 -28q-15 0 -25 8t-10 19v430l28 13l24 -19v-146l-47 -27v-20l47 27v-13
q0 -11 -2 -14t-9 -3v-16q13 0 28.5 -3t29 -8t24.5 -11t16 -12l56 51l-7 8l-8 -7l-13 10v164q0 20 6 33.5t19 24.5q-16 0 -36 4.5t-38.5 11.5t-31.5 16t-16 17l-15 -17.5l-20.5 -22.5t-20 -19t-14.5 -8v137q9 -3 21 -9.5l23.5 -13l20.5 -12t12 -8.5h10zM185 310v168l53 28
v-204l-26 -20z" />
    <glyph glyph-name="FL1253h" unicode="&#x1253;" horiz-adv-x="560" 
d="M441 612v5q0 9 6 24.5t15.5 30.5t21 26t22.5 11q13 0 19.5 -7.5t6.5 -12.5q0 -14 -5.5 -24.5t-20.5 -10.5v-7q18 0 31 13t13 31q0 26 -23 44t-55 18q-12 0 -27.5 -5.5t-30 -16.5t-25.5 -27t-15 -37l-93 51q-1 1 -6 1q-6 0 -6 -6q0 -8 2 -10l12.5 -19t10.5 -19
q-20 9 -43 22.5l-43.5 26.5t-35 23.5t-17.5 13.5h-21q0 -9 -6 -26t-15 -34.5t-20.5 -30t-21.5 -12.5q-9 0 -16 9t-7 26h-6q-1 -4 -1 -14v-9q0 -23 16 -38.5t40 -15.5h2q21 1 40.5 6t35 15t25 25.5t9.5 37.5l29 -17v-159l-53 -28v24q0 13 -9 24t-23.5 19.5t-32.5 13.5t-37 5
q-38 0 -60.5 -14t-22.5 -37v-10t2 -10h9q1 14 8.5 23.5t20.5 9.5q12 0 21 -7.5t9 -37.5v-167q0 -20 -15 -20v-18q13 0 30.5 -6t34 -14.5t29.5 -17.5t18 -15l71 58v-88l-173 -71v-50q0 -20 -15 -20v-20q13 0 31 -6t34.5 -14.5t30 -17.5t18.5 -15l71 72l-8 11l-18 -16l-28 26
v55l173 44v308l28 13l24 -19v-146l-47 -27v-20l47 27v-13q0 -11 -2 -14t-9 -3v-16q13 0 28.5 -3t29 -8t24.5 -11t16 -12l56 51l-7 8l-8 -7l-13 10v164q0 20 6 33.5t19 24.5q-16 0 -36 4.5t-38.5 11.5t-31.5 16t-16 17l-15 -17.5l-20.5 -22.5t-20 -19t-14.5 -8v154
q9 -3 21 -9.5l23.5 -13l20.5 -12t12 -8.5h10zM185 318v154l53 28v-190l-26 -20z" />
    <glyph glyph-name="FL1254h" unicode="&#x1254;" horiz-adv-x="560" 
d="M441 607v5q0 9 6 24.5t15.5 30.5t21 26t22.5 11q13 0 19.5 -7.5t6.5 -12.5q0 -14 -5.5 -24.5t-20.5 -10.5v-7q18 0 31 13t13 31q0 26 -23 44t-55 18q-12 0 -27.5 -5.5t-30 -16.5t-25.5 -27t-15 -37l-93 51q-1 1 -6 1q-6 0 -6 -6q0 -8 2 -10l12.5 -19t10.5 -19
q-20 9 -43 22.5l-43.5 26.5t-35 23.5t-17.5 13.5h-21q0 -9 -6 -26t-15 -34.5t-20.5 -30t-21.5 -12.5q-9 0 -16 9t-7 26h-6q-1 -4 -1 -14v-9q0 -23 16 -38.5t40 -15.5h2q21 1 40.5 6t35 15t25 25.5t9.5 37.5l29 -17v-160l-53 -28v24q0 13 -9 24t-23.5 19.5t-32.5 13.5t-37 5
q-38 0 -60.5 -14t-22.5 -37v-10t2 -10h9q1 14 8.5 23.5t20.5 9.5q12 0 21 -7.5t9 -37.5v-181q0 -20 -15 -20v-18q13 0 30.5 -6t34 -14.5t29.5 -17.5t18 -15l71 58v-168q0 -9 -3.5 -15t-11.5 -6v-20q8 0 25 -10.5l35.5 -23t33.5 -24.5t18 -15l145 66v13q-5 -4 -15 -5v125
q-3 0 -11 2t-16 6t-14.5 10t-6.5 13h-15q0 -3 -5.5 -8t-13 -11t-16 -11t-13.5 -7v305l28 13l24 -19v-146l-47 -27v-20l47 27v-13q0 -11 -2 -14t-9 -3v-16q13 0 28.5 -3t29 -8t24.5 -11t16 -12l56 51l-7 8l-8 -7l-13 10v164q0 20 6 33.5t19 24.5q-16 0 -36 4.5t-38.5 11.5
t-31.5 16t-16 17l-15 -17.5l-20.5 -22.5t-20 -19t-14.5 -8v151q9 -3 21 -9.5l23.5 -13l20.5 -12t12 -8.5h10zM185 298v168l53 28v-204l-26 -20zM419 164v-108l-10 -4q-26 0 -40.5 5.5t-14.5 25.5v81q14 6 23 12t18 11z" />
    <glyph glyph-name="FL1255h" unicode="&#x1255;" horiz-adv-x="752" 
d="M265 725q5 -5 9 -7q4 -3 5 -3q6 -2 5 -2q7 0 7 7q0 2 -4 10q-3 4 -6.5 11l-7 13.5t-6 12t-2.5 7.5l4 5q4 0 19 -7t33.5 -17l36.5 -20.5t27 -17.5h12q0 11 6.5 27.5t16.5 32t22 26.5t23 11q14 0 21 -7.5t7 -12.5q0 -6 -4 -12t-9.5 -11.5t-9.5 -8.5q-4 -2 -5 -3v-12
q3 0 11 3t16 8.5t14 13.5t6 17q0 18 -8.5 31t-20.5 21.5t-26.5 12.5t-26.5 4q-13 0 -29.5 -5.5t-31.5 -16.5t-27 -27t-16 -37q-29 13 -48.5 23t-44.5 21q-4 2 -7 2q-7 0 -7 -6t4 -11l13 -19t11 -19q-4 0 -24 11l-43 24.5t-41.5 26t-18.5 14.5h-17q0 -9 -7 -26t-17.5 -34.5
t-23 -30t-23.5 -12.5t-18 9t-7 26h-6q-1 -4 -1 -14q0 -31 18 -47t43 -16q13 0 33 8.5t39 20.5t32.5 26.5t13.5 26.5q3 0 10.5 -4t16.5 -12.5t17.5 -22t12.5 -32.5q5 -24 11 -45.5t15.5 -38.5t23.5 -27t34 -10q36 0 68 4.5t43 4.5v-95l-53 -28v24q0 13 -9 24t-23.5 19.5
t-32.5 13.5t-37 5q-38 0 -60.5 -14t-22.5 -37v-10t2 -10h9q1 14 8.5 23.5t20.5 9.5q12 0 21 -7.5t9 -37.5v-181q0 -20 -15 -20v-18q13 0 30.5 -6t34 -14.5t29.5 -17.5t18 -15l71 58v-179q0 -20 -15 -20v-20q13 0 31 -6t34.5 -14.5t30 -17.5t18.5 -15l71 72l-8 11l-18 -16
l-28 26v395l28 13l24 -19v-146l-47 -27v-20l47 27v-13q0 -11 -2 -14t-9 -3v-16q13 0 28.5 -3t29 -8t24.5 -11t16 -12l56 51l-7 8l-8 -7l-13 10v164q0 20 6 33.5t19 24.5q-16 0 -36 4.5t-38.5 11.5t-31.5 16t-16 17l-15 -17.5l-20.5 -22.5t-20 -19t-14.5 -8v109q0 7 5 12
t13 5v17q-12 0 -36 3.5t-48 11t-42 19.5t-18 30h-14q0 -22 -27.5 -30.5t-65.5 -8.5q-18 0 -33.5 11.5t-15.5 26.5v30zM378 288v168l53 28v-204l-26 -20z" />
    <glyph glyph-name="FL1256h" unicode="&#x1256;" horiz-adv-x="560" 
d="M354 461q5 4 21 13t34 18t34.5 16t22.5 7v10q-15 0 -15 20v90q-11 0 -26.5 1t-33 3.5t-35.5 6.5t-34 9v11l32 22q9 -3 21 -9.5l23.5 -13l20.5 -12t12 -8.5h10v5q0 9 6 24.5t15.5 30.5t21 26t22.5 11q13 0 19.5 -7.5t6.5 -12.5q0 -14 -5.5 -24.5t-20.5 -10.5v-7
q18 0 31 13t13 31q0 26 -23 44t-55 18q-12 0 -27.5 -5.5t-30 -16.5t-25.5 -27t-15 -37l-93 51q-1 1 -6 1q-6 0 -6 -6q0 -8 2 -10l12.5 -19t10.5 -19l-43 19.5l-43.5 20l-35 16.5t-17.5 10h-21q0 -9 -6 -26t-15 -34.5t-20.5 -30t-21.5 -12.5q-9 0 -16 9t-7 26h-6
q-1 -4 -1 -14v-9q0 -23 16 -38.5t40 -15.5h2q21 1 40.5 6t35 15t25 25.5t9.5 37.5l29 -17v-178l-53 -28v24q0 13 -9 24t-23.5 19.5t-32.5 13.5t-37 5q-38 0 -60.5 -14t-22.5 -37v-10t2 -10h9q1 14 8.5 23.5t20.5 9.5q12 0 21 -7.5t9 -37.5v-215q0 -20 -15 -20v-18
q13 0 30.5 -6t34 -14.5t29.5 -17.5t18 -15l71 58v-155q0 -20 -15 -20v-20q13 0 31 -6t34.5 -14.5t30 -17.5t18.5 -15l71 72l-8 11l-18 -16l-28 26v319l28 13l24 -19v-102l-47 -27v-20l47 27v-13q0 -11 -2 -14t-9 -3v-16q13 0 28.5 -3t29 -8t24.5 -11t16 -12l56 51l-7 8
l-8 -7l-13 10v120q0 20 6 33.5t19 24.5q-16 0 -36 4.5t-38.5 11.5t-31.5 16t-16 17l-15 -17.5l-20.5 -22.5t-20 -19t-14.5 -8v48zM185 264v202l53 28v-238l-26 -20zM405 508l-51 -31v76q0 37 12 46t39 9v-100z" />
    <glyph glyph-name="kkx1" unicode="&#x1258;" horiz-adv-x="609" 
d="M599 72v122q-13 0 -28.5 4.5t-25.5 15.5l-42 -18q-13 0 -30.5 5t-22.5 13q-4 -8 -31 -19t-65 -22v302l28 13l24 -19v-146l-47 -27v-20l47 27v-13q0 -11 -2 -14t-9 -3v-16q13 0 28.5 -3t29 -8t24.5 -11t16 -12l56 51l-7 8l-8 -7l-13 10v164q0 20 6 33.5t19 24.5
q-16 0 -36 4.5t-38.5 11.5t-31.5 16t-16 17l-15 -17.5l-20.5 -22.5t-20 -19t-14.5 -8v159q9 -3 21 -9.5l23.5 -13l20.5 -12t12 -8.5h10v5q0 9 6 24.5t15.5 30.5t21 26t22.5 11q13 0 19.5 -7.5t6.5 -12.5q0 -14 -5.5 -24.5t-20.5 -10.5v-7q18 0 31 13t13 31q0 26 -23 44
t-55 18q-12 0 -27.5 -5.5t-30 -16.5t-25.5 -27t-15 -37l-93 51q-1 1 -6 1q-6 0 -6 -6q0 -8 2 -10l12.5 -19t10.5 -19q-20 9 -43 22.5l-43.5 26.5t-35 23.5t-17.5 13.5h-21q0 -9 -6 -26t-15 -34.5t-20.5 -30t-21.5 -12.5q-9 0 -16 9t-7 26h-6q-1 -4 -1 -14v-9q0 -23 16 -38.5
t40 -15.5h2q21 1 40.5 6t35 15t25 25.5t9.5 37.5l29 -17v-168l-53 -28v24q0 13 -9 24t-23.5 19.5t-32.5 13.5t-37 5q-38 0 -60.5 -14t-22.5 -37v-10t2 -10h9q1 14 8.5 23.5t20.5 9.5q12 0 21 -7.5t9 -37.5v-181q0 -20 -15 -20v-18q13 0 30.5 -6t34 -14.5t29.5 -17.5t18 -15
l71 58v-179q0 -20 -15 -20v-20q13 0 31 -6t34.5 -14.5t30 -17.5t18.5 -15l71 72l-8 11l-18 -16l-28 26v75l51 16q25 0 25 -26v-42q0 -14 -4 -18.5t-9 -4.5v-12q7 0 19 -5.5t23 -12.5t19 -13.5t8 -8.5zM185 288v168l53 28v-204l-26 -20zM556 187v-115l-27 -12q-16 0 -21 9
t-5 23v87l39 16z" />
    <glyph glyph-name="FL125Ah" unicode="&#x125a;" horiz-adv-x="858" 
d="M695 335q0 -13 2.5 -33.5t6.5 -29.5q12 -28 34.5 -42t43.5 -14q22 0 41.5 9.5t24.5 23.5l-7 5q-1 -4 -9.5 -6.5t-16.5 -4.5q-15 1 -23.5 17.5t-8.5 32.5q0 35 9 44t23 9v14q-2 1 -16.5 5t-31 11t-16.5 14h-18q0 -3 -8.5 -12t-19.5 -18.5t-22.5 -16.5t-17.5 -7
q-9 0 -15 5.5t-6 13.5v111q-9 0 -22 2t-25 5t-21 7t-9 8h-14q-1 -15 -12 -17q8 -2 13.5 -10t5.5 -24v-32l-39 -12v56q0 20 6 33.5t19 24.5q-16 0 -36 4.5t-38.5 11.5t-31.5 16t-16 17l-15 -17.5l-20.5 -22.5t-20 -19t-14.5 -8v159q9 -3 21 -9.5l23.5 -13l20.5 -12t12 -8.5
h10v5q0 9 6 24.5t15.5 30.5t21 26t22.5 11q13 0 19.5 -7.5t6.5 -12.5q0 -14 -5.5 -24.5t-20.5 -10.5v-7q18 0 31 13t13 31q0 26 -23 44t-55 18q-12 0 -27.5 -5.5t-30 -16.5t-25.5 -27t-15 -37l-93 51q-1 1 -6 1q-6 0 -6 -6q0 -8 2 -10l12.5 -19t10.5 -19q-20 9 -43 22.5
l-43.5 26.5t-35 23.5t-17.5 13.5h-21q0 -9 -6 -26t-15 -34.5t-20.5 -30t-21.5 -12.5q-9 0 -16 9t-7 26h-6q-1 -4 -1 -14v-9q0 -23 16 -38.5t40 -15.5h2q21 1 40.5 6t35 15t25 25.5t9.5 37.5l29 -17v-168l-53 -28v24q0 13 -9 24t-23.5 19.5t-32.5 13.5t-37 5q-38 0 -60.5 -14
t-22.5 -37v-10t2 -10h9q1 14 8.5 23.5t20.5 9.5q12 0 21 -7.5t9 -37.5v-181q0 -20 -15 -20v-18q13 0 30.5 -6t34 -14.5t29.5 -17.5t18 -15l71 58v-179q0 -20 -15 -20v-20q13 0 31 -6t34.5 -14.5t30 -17.5t18.5 -15l71 72l-8 11l-18 -16l-28 26v395l28 13l24 -19v-146
l-47 -27v-20l47 27v-13q0 -11 -2 -14t-9 -3v-16q13 0 28.5 -3t29 -8t24.5 -11t16 -12l56 51l-7 8l-8 -7l-13 10v92l40 13v-74q4 0 13 -3t18.5 -8.5t17 -12t7.5 -12.5h14q7 0 15.5 6.5t17.5 15t17 18t14 15.5zM185 288v168l53 28v-204l-26 -20z" />
    <glyph glyph-name="FL125Bh" unicode="&#x125b;" horiz-adv-x="574" 
d="M444 -45q0 12 7.5 31.5t18.5 38t23.5 32t23.5 13.5q14 0 21 -7.5t7 -13.5t-3.5 -13.5t-7.5 -14t-8 -10.5l-4 -4l1 -13q3 0 10 4.5t13.5 11t12 16t5.5 20.5q0 20 -9 33.5t-22 22t-28 12t-26 3.5q-12 0 -28.5 -8t-31 -22.5t-24.5 -34t-10 -42.5l-31 13v452l28 13l24 -19
v-146l-47 -27v-20l47 27v-13q0 -11 -2 -14t-9 -3v-16q13 0 28.5 -3t29 -8t24.5 -11t16 -12l56 51l-7 8l-8 -7l-13 10v164q0 20 6 33.5t19 24.5q-16 0 -36 4.5t-38.5 11.5t-31.5 16t-16 17l-15 -17.5l-20.5 -22.5t-20 -19t-14.5 -8v159q9 -3 21 -9.5l23.5 -13l20.5 -12
t12 -8.5h10v5q0 9 6 24.5t15.5 30.5t21 26t22.5 11q13 0 19.5 -7.5t6.5 -12.5q0 -14 -5.5 -24.5t-20.5 -10.5v-7q18 0 31 13t13 31q0 26 -23 44t-55 18q-12 0 -27.5 -5.5t-30 -16.5t-25.5 -27t-15 -37l-93 51q-1 1 -6 1q-6 0 -6 -6q0 -8 2 -10l12.5 -19t10.5 -19
q-20 9 -43 22.5l-43.5 26.5t-35 23.5t-17.5 13.5h-21q0 -9 -6 -26t-15 -34.5t-20.5 -30t-21.5 -12.5q-9 0 -16 9t-7 26h-6q-1 -4 -1 -14v-9q0 -23 16 -38.5t40 -15.5h2q21 1 40.5 6t35 15t25 25.5t9.5 37.5l29 -17v-168l-53 -28v24q0 13 -9 24t-23.5 19.5t-32.5 13.5t-37 5
q-38 0 -60.5 -14t-22.5 -37v-10t2 -10h9q1 14 8.5 23.5t20.5 9.5q12 0 21 -7.5t9 -37.5v-181q0 -20 -15 -20v-18q13 0 30.5 -6t34 -14.5t29.5 -17.5t18 -15l71 58v-191q-38 16 -63.5 28.5t-25.5 20.5h-16q0 -13 -5.5 -34.5t-14 -42.5t-19 -36t-20.5 -15q-11 0 -19 7.5
t-10 26.5l-7 -1v-8q0 -3 1 -8q5 -35 25 -48t44 -13q12 0 28.5 10t32 26t26.5 36t11 39q21 -11 59 -26l75.5 -30t65 -27.5t27.5 -18.5zM185 288v168l53 28v-204l-26 -20z" />
    <glyph glyph-name="FL125Ch" unicode="&#x125c;" horiz-adv-x="560" 
d="M335 10l145 66v16l-15 -8v125q-3 0 -11 2t-16 6t-14.5 10t-6.5 13h-15q0 -3 -5.5 -7.5t-13 -9.5t-16 -9.5t-13.5 -6.5v278l28 13l24 -19v-146l-47 -27v-20l47 27v-13q0 -11 -2 -14t-9 -3v-16q13 0 28.5 -3t29 -8t24.5 -11t16 -12l56 51l-7 8l-8 -7l-13 10v164
q0 20 6 33.5t19 24.5q-16 0 -36 4.5t-38.5 11.5t-31.5 16t-16 17l-15 -17.5l-20.5 -22.5t-20 -19t-14.5 -8v151q9 -3 21 -9.5l23.5 -13l20.5 -12t12 -8.5h10v5q0 9 6 24.5t15.5 30.5t21 26t22.5 11q13 0 19.5 -7.5t6.5 -12.5q0 -14 -5.5 -24.5t-20.5 -10.5v-7q18 0 31 13
t13 31q0 26 -23 44t-55 18q-12 0 -27.5 -5.5t-30 -16.5t-25.5 -27t-15 -37l-93 51q-1 1 -6 1q-6 0 -6 -6q0 -8 2 -10l12.5 -19t10.5 -19q-20 9 -43 22.5l-43.5 26.5t-35 23.5t-17.5 13.5h-21q0 -9 -6 -26t-15 -34.5t-20.5 -30t-21.5 -12.5q-9 0 -16 9t-7 26h-6q-1 -4 -1 -14
v-9q0 -23 16 -38.5t40 -15.5h2q21 1 40.5 6t35 15t25 25.5t9.5 37.5l29 -17v-160l-53 -28v24q0 13 -9 24t-23.5 19.5t-32.5 13.5t-37 5q-38 0 -60.5 -14t-22.5 -37v-10t2 -10h9q1 14 8.5 23.5t20.5 9.5q12 0 21 -7.5t9 -37.5v-181q0 -20 -15 -20v-18q13 0 30.5 -6t34 -14.5
t29.5 -17.5t18 -15l71 58v-145q0 -11 -6.5 -19.5t-15.5 -15.5t-19.5 -11t-19.5 -4q-1 23 -18 34.5t-39 21.5q-10 -8 -20 -18t-21 -19t-22 -15t-23 -6v-15q29 0 43 -11.5t14 -52.5q0 -21 -3 -34.5t-7 -20.5t-9 -9.5t-9 -2.5q-7 0 -16.5 4.5t-11.5 9.5l-6 -12q1 0 4.5 -4
t10 -9t17 -9t25.5 -4q49 0 75 37t26 116q11 1 26.5 6t24.5 13q9 0 24 -9t30 -20.5l27.5 -21.5t15.5 -13zM185 298v168l53 28v-204l-26 -20zM419 187v-113l-23 -14q-26 0 -34 13t-8 33v81q14 6 23 12t18 11z" />
    <glyph glyph-name="FL125Dh" unicode="&#x125d;" horiz-adv-x="856" 
d="M693 345q0 -13 2.5 -33.5t6.5 -29.5q12 -28 30 -42t39 -14q10 0 22.5 2.5t23.5 7t19 10.5t10 13l-7 5q-1 -4 -9.5 -6.5t-16.5 -4.5q-15 1 -23.5 17.5t-8.5 32.5q0 35 9 44t23 9v14q-2 1 -16.5 5t-31 11t-16.5 14h-18q0 -3 -8.5 -12t-19.5 -18.5t-22.5 -16.5t-17.5 -7
q-9 0 -15 7t-6 12v91q-9 0 -22 2t-25 5t-20.5 7t-8.5 8h-14q-1 -15 -13 -17q9 -2 14.5 -15t5.5 -30v-80l-38 5v108q0 20 6 33.5t19 24.5q-16 0 -36 4.5t-38.5 11.5t-31.5 16t-16 17l-15 -17.5l-20.5 -22.5t-20 -19t-14.5 -8v159q9 -3 21 -9.5l23.5 -13l20.5 -12t12 -8.5h10
v5q0 9 6 24.5t15.5 30.5t21 26t22.5 11q13 0 19.5 -7.5t6.5 -12.5q0 -14 -5.5 -24.5t-20.5 -10.5v-7q18 0 31 13t13 31q0 26 -23 44t-55 18q-12 0 -27.5 -5.5t-30 -16.5t-25.5 -27t-15 -37l-93 51q-1 1 -6 1q-6 0 -6 -6q0 -8 2 -10l12.5 -19t10.5 -19q-20 9 -43 22.5
l-43.5 26.5t-35 23.5t-17.5 13.5h-21q0 -9 -6 -26t-15 -34.5t-20.5 -30t-21.5 -12.5q-9 0 -16 9t-7 26h-6q-1 -4 -1 -14v-9q0 -23 16 -38.5t40 -15.5h2q21 1 40.5 6t35 15t25 25.5t9.5 37.5l29 -17v-168l-53 -28v24q0 13 -9 24t-23.5 19.5t-32.5 13.5t-37 5q-38 0 -60.5 -14
t-22.5 -37v-10t2 -10h9q1 14 8.5 23.5t20.5 9.5q12 0 21 -7.5t9 -37.5v-181q0 -20 -15 -20v-18q13 0 30.5 -6t34 -14.5t29.5 -17.5t18 -15l71 58v-179q0 -20 -15 -20v-20q13 0 31 -6t34.5 -14.5t30 -17.5t18.5 -15l71 72l-8 11l-18 -16l-28 26v395l28 13l24 -19v-146
l-47 -27v-20l47 27v-13q0 -11 -2 -14t-9 -3v-16q13 0 28.5 -3t29 -8t24.5 -11t16 -12l56 51l-7 8l-8 -7l-13 10v41q38 -4 66 -14t28 -22h14q7 0 15.5 6.5t17.5 15t17 18t14 15.5zM185 288v168l53 28v-204l-26 -20z" />
    <glyph glyph-name="FL1260h" unicode="&#x1260;" horiz-adv-x="537" 
d="M83 682q-38 0 -60.5 -14t-22.5 -37v-10t2 -10h9q1 14 8.5 23.5t20.5 9.5q12 0 21 -11.5t9 -41.5v-511q0 -20 -15 -20v-20q13 0 30.5 -6t34 -14.5t29.5 -17.5t18 -15l71 72l-8 11l-18 -16l-27 26v507l121 26q6 0 15.5 -3t18.5 -8t15.5 -11t6.5 -12v-553l104 -39l61 83
l-11 8l-11 -15l-28 17v489q0 13 11 23t24 10v23q-14 0 -35 8.5t-40.5 20.5t-34 24t-14.5 19h-16q0 -7 -8 -17.5t-18.5 -20.5t-21.5 -17.5t-16 -8.5l-123 -26q0 14 -8 27.5t-21.5 24t-32.5 17t-40 6.5z" />
    <glyph glyph-name="FL1261h" unicode="&#x1261;" horiz-adv-x="698" 
d="M554 464l-77 -52v157q0 13 11 23t24 10v23q-14 0 -35 8.5t-40.5 20.5t-34 24t-14.5 19h-16q0 -7 -8 -17.5t-18.5 -20.5t-21.5 -17.5t-16 -8.5l-123 -26q0 14 -8 27.5t-21.5 24t-32.5 17t-40 6.5q-38 0 -60.5 -14t-22.5 -37v-10t2 -10h9q1 14 8.5 23.5t20.5 9.5
q12 0 21 -11.5t9 -41.5v-511q0 -20 -15 -20v-20q13 0 30.5 -6t34 -14.5t29.5 -17.5t18 -15l71 72l-8 11l-18 -16l-27 26v507l121 26q6 0 15.5 -3t18.5 -8t15.5 -11t6.5 -12v-553l104 -39l61 83l-11 8l-11 -15l-28 17v309l27 19l44 -36q-5 -7 -6 -22t-1 -20q0 -15 6 -28
t16 -23.5t23 -16.5t27 -6q36 0 55.5 10t19.5 36q0 11 -2 15.5t-5 7.5h-13q2 -3 4.5 -9.5t2.5 -10.5q0 -11 -9 -15.5t-20 -4.5q-10 0 -19 15.5t-9 34.5q0 11 11 29.5t29 32.5v13q-9 0 -24 6.5t-29.5 15t-25.5 17.5t-11 15h-14z" />
    <glyph glyph-name="FL1262h" unicode="&#x1262;" horiz-adv-x="663" 
d="M345 79v-19q8 0 25.5 -10.5t35.5 -23.5t31.5 -25t13.5 -15h15l53 39.5t48.5 32.5t39 22t24.5 8v13q-9 7 -17.5 17.5t-14.5 21.5t-10 21t-4 16q0 26 8 39.5t18 13.5q11 0 19 -7.5t8 -18.5v-1h15v1q0 16 -7 24t-14 13t-19 8.5t-41 3.5q-14 0 -26 -7t-21 -17.5t-14 -22.5
t-5 -21q0 -16 5 -35t12.5 -36t16.5 -30t18 -17l-45 -28q-15 0 -25.5 8t-10.5 19v503q0 13 11 23t24 10v23q-14 0 -35 8.5t-40.5 20.5t-34 24t-14.5 19h-16q0 -7 -8 -17.5t-18.5 -20.5t-21.5 -17.5t-16 -8.5l-123 -26q0 14 -8 27.5t-21.5 24t-32.5 17t-40 6.5
q-38 0 -60.5 -14t-22.5 -37v-10t2 -10h9q1 14 8.5 23.5t20.5 9.5q12 0 21 -11.5t9 -41.5v-511q0 -20 -15 -20v-20q13 0 30.5 -6t34 -14.5t29.5 -17.5t18 -15l71 72l-8 11l-18 -16l-27 26v507l121 26q6 0 15.5 -3t18.5 -8t15.5 -11t6.5 -12v-478q0 -14 -4.5 -18t-12.5 -4z
" />
    <glyph glyph-name="FL1263h" unicode="&#x1263;" horiz-adv-x="537" 
d="M83 682q-38 0 -60.5 -14t-22.5 -37v-10t2 -10h9q1 14 8.5 23.5t20.5 9.5q12 0 21 -11.5t9 -41.5v-374q0 -20 -15 -20v-20q13 0 30.5 -6t34 -14.5t29.5 -17.5t18 -15l71 72l-8 11l-18 -16l-27 26v370l121 26q6 0 15.5 -3t18.5 -8t15.5 -11t6.5 -12v-553l104 -39l61 83
l-11 8l-11 -15l-28 17v489q0 13 11 23t24 10v23q-14 0 -35 8.5t-40.5 20.5t-34 24t-14.5 19h-16q0 -7 -8 -17.5t-18.5 -20.5t-21.5 -17.5t-16 -8.5l-123 -26q0 14 -8 27.5t-21.5 24t-32.5 17t-40 6.5z" />
    <glyph glyph-name="FL1264h" unicode="&#x1264;" horiz-adv-x="614" 
d="M347 79v-20q8 0 25 -10.5l35.5 -23t33.5 -24.5t18 -15l145 66v13q-5 -4 -15 -5v154q-3 0 -11 2t-16 6t-14.5 10t-6.5 13h-15q0 -3 -5.5 -8t-13.5 -11t-16.5 -11t-13.5 -7v361q0 13 11 23t24 10v23q-14 0 -35 8.5t-40.5 20.5t-34 24t-14.5 19h-16q0 -7 -8 -17.5
t-18.5 -20.5t-21.5 -17.5t-16 -8.5l-123 -26q0 14 -8 27.5t-21.5 24t-32.5 17t-40 6.5q-38 0 -60.5 -14t-22.5 -37v-10t2 -10h9q1 14 8.5 23.5t20.5 9.5q12 0 21 -11.5t9 -41.5v-511q0 -20 -15 -20v-20q13 0 30.5 -6t34 -14.5t29.5 -17.5t18 -15l71 72l-8 11l-18 -16l-27 26
v507l121 26q6 0 15.5 -3t18.5 -8t15.5 -11t6.5 -12v-479q0 -9 -3.5 -15t-11.5 -6zM543 192v-137l-10 -4q-26 0 -41 5.5t-15 25.5v110q14 6 23.5 12t18.5 11z" />
    <glyph glyph-name="FL1265h" unicode="&#x1265;" horiz-adv-x="674" 
d="M220 682q-38 0 -60.5 -14t-22.5 -37v-10t2 -10h9q1 14 8.5 23.5t20.5 9.5q12 0 21 -11.5t9 -41.5v-174l-73 57h-14q0 -6 -11 -15t-25.5 -17.5t-29.5 -15t-24 -6.5v-13q18 -14 28 -31t10 -28q0 -27 -8 -41.5t-18 -14.5q-11 0 -16.5 9t-5.5 21h-20q0 -31 17.5 -41.5
t49.5 -10.5q15 0 29.5 6t25.5 15.5t18 22t7 26.5q0 5 -1 20t-6 22l44 31l23 -17v-316q0 -20 -15 -20v-20q13 0 30.5 -6t34 -14.5t29.5 -17.5t18 -15l71 72l-8 11l-18 -16l-27 26v507l121 26q6 0 15.5 -3t18.5 -8t15.5 -11t6.5 -12v-553l104 -39l61 83l-11 8l-11 -15l-28 17
v489q0 13 11 23t24 10v23q-14 0 -35 8.5t-40.5 20.5t-34 24t-14.5 19h-16q0 -7 -8 -17.5t-18.5 -20.5t-21.5 -17.5t-16 -8.5l-123 -26q0 14 -8 27.5t-21.5 24t-32.5 17t-40 6.5z" />
    <glyph glyph-name="FL1266h" unicode="&#x1266;" horiz-adv-x="537" 
d="M83 682q-38 0 -60.5 -14t-22.5 -37v-10t2 -10h9q1 14 8.5 23.5t20.5 9.5q12 0 21 -11.5t9 -41.5v-511q0 -20 -15 -20v-20q13 0 30.5 -6t34 -14.5t29.5 -17.5t18 -15l71 72l-8 11l-18 -16l-27 26v507l121 26q6 0 15.5 -3t18.5 -8t15.5 -11t6.5 -12v-365l104 -39l61 83
l-11 8l-11 -15l-28 17v301q0 13 11 23t24 10v23q-14 0 -35 8.5t-40.5 20.5t-34 24t-14.5 19h-16q0 -7 -8 -17.5t-18.5 -20.5t-21.5 -17.5t-16 -8.5l-123 -26q0 14 -8 27.5t-21.5 24t-32.5 17t-40 6.5z" />
    <glyph glyph-name="b8" unicode="&#x1267;" horiz-adv-x="697" 
d="M567 -49q0 12 7.5 31.5t18.5 38t23.5 32t23.5 13.5q14 0 21 -7.5t7 -13.5q0 -12 -3.5 -20t-7.5 -13t-8 -7q-3 -2 -4 -2l1 -13q3 0 10 4.5t13.5 11t12 16t5.5 20.5q0 20 -9 33.5t-22 22t-28 12t-26 3.5q-12 0 -28.5 -8t-31 -22.5t-24.5 -34t-10 -42.5l-31 13v550
q0 13 11 23t24 10v23q-14 0 -35 8.5t-40.5 20.5t-34 24t-14.5 19h-16q0 -7 -8 -17.5t-18.5 -20.5t-21.5 -17.5t-16 -8.5l-123 -26q0 14 -8 27.5t-21.5 24t-32.5 17t-40 6.5q-38 0 -60.5 -14t-22.5 -37v-10t2 -10h9q1 14 8.5 23.5t20.5 9.5q12 0 21 -11.5t9 -41.5v-374
q0 -20 -15 -20v-20q13 0 30.5 -6t34 -14.5t29.5 -17.5t18 -15l71 72l-8 11l-18 -16l-27 26v370l121 26q6 0 15.5 -3t18.5 -8t15.5 -11t6.5 -12v-515q-38 16 -64 28.5t-26 20.5h-16q0 -13 -5.5 -34.5t-14 -42.5t-19 -36t-20.5 -15q-11 0 -19 7.5t-10 26.5l-7 -1v-8q0 -3 1 -8
q5 -35 25 -48t44 -13q12 0 28.5 10t32 26t26.5 36t11 39q21 -11 59 -26l75.5 -30t65 -27.5t27.5 -18.5z" />
    <glyph glyph-name="FL1268h" unicode="&#x1268;" horiz-adv-x="538" 
d="M96 577q-38 0 -60.5 -14t-22.5 -37v-10t2 -10h9q1 14 8.5 23.5t20.5 9.5q12 0 21 -11.5t9 -41.5v-406q0 -20 -15 -20v-20q13 0 30.5 -6t34 -14.5t29.5 -17.5t18 -15l71 72l-8 11l-18 -16l-27 26v402l106 25q6 0 15.5 -3t18.5 -8t15.5 -11t6.5 -12v-448l104 -39l61 83
l-11 8l-11 -15l-28 17v384q0 13 11 23t24 10v23q-14 0 -35 8.5t-40.5 20.5t-34 24t-14.5 19h-16q0 -7 -8 -17.5t-18.5 -20.5t-21.5 -17.5t-16 -8.5l-108 -25q0 14 -8 27.5t-21.5 24t-32.5 17t-40 6.5zM283 660q4 0 19.5 -7t34 -17l37 -20.5t27.5 -17.5h12q0 11 6.5 27.5
t16.5 32t22 26.5t23 11q14 0 21 -7.5t7 -12.5q0 -6 -4 -12t-9.5 -11.5t-9.5 -8.5q-4 -2 -5 -3v-12q3 0 11 3t16 8.5t14 13.5t6 17q0 18 -8.5 31t-20.5 21.5t-26.5 12.5t-26.5 4q-13 0 -29.5 -5.5t-31.5 -16.5t-27 -27t-16 -37l-49.5 23t-45.5 21q-4 2 -7 2q-7 0 -7 -6t4 -11
l13 -19t11 -19q-4 0 -26.5 12.5l-48 28t-46 29.5t-20.5 16h-17q0 -9 -7 -26t-17.5 -34.5t-23 -30t-23.5 -12.5t-18 9t-7 26h-6q-1 -4 -1 -14q0 -31 18 -47t43 -16q13 0 33 8.5t39 20.5t32.5 26.5t13.5 26.5l100 -62l15.5 -9.5t3.5 -1.5q7 0 7 7q0 2 -4 10q-3 4 -6.5 11
l-7 13.5t-6 12t-2.5 7.5z" />
    <glyph glyph-name="FL1269h" unicode="&#x1269;" horiz-adv-x="695" 
d="M551 404l-76 -52v111q0 13 11 23t24 10v23q-14 0 -35 8.5t-40.5 20.5t-34 24t-14.5 19h-16q0 -7 -8 -17.5t-18.5 -20.5t-21.5 -17.5t-16 -8.5l-108 -25q0 14 -8 27.5t-21.5 24t-32.5 17t-40 6.5q-38 0 -60.5 -14t-22.5 -37v-10t2 -10h9q1 14 8.5 23.5t20.5 9.5
q12 0 21 -11.5t9 -41.5v-406q0 -20 -15 -20v-20q13 0 30.5 -6t34 -14.5t29.5 -17.5t18 -15l71 72l-8 11l-18 -16l-27 26v402l106 25q6 0 15.5 -3t18.5 -8t15.5 -11t6.5 -12v-448l104 -39l61 83l-11 8l-11 -15l-28 17v251l26 18l44 -36q-5 -7 -6 -22t-1 -20q0 -15 6 -28
t16 -23.5t23 -16.5t27 -6q36 0 55.5 10t19.5 36q0 11 -2 15.5t-5 7.5h-13q2 -3 4.5 -9.5t2.5 -10.5q0 -11 -9 -15.5t-20 -4.5q-10 0 -19 15.5t-9 34.5q0 11 11 29.5t29 32.5v13q-9 0 -24 6.5t-29.5 15t-25.5 17.5t-11 15h-14zM283 660q4 0 19.5 -7t34 -17l37 -20.5
t27.5 -17.5h12q0 11 6.5 27.5t16.5 32t22 26.5t23 11q14 0 21 -7.5t7 -12.5q0 -6 -4 -12t-9.5 -11.5t-9.5 -8.5q-4 -2 -5 -3v-12q3 0 11 3t16 8.5t14 13.5t6 17q0 18 -8.5 31t-20.5 21.5t-26.5 12.5t-26.5 4q-13 0 -29.5 -5.5t-31.5 -16.5t-27 -27t-16 -37l-49.5 23
t-45.5 21q-4 2 -7 2q-7 0 -7 -6t4 -11l13 -19t11 -19q-4 0 -26.5 12.5l-48 28t-46 29.5t-20.5 16h-17q0 -9 -7 -26t-17.5 -34.5t-23 -30t-23.5 -12.5t-18 9t-7 26h-6q-1 -4 -1 -14q0 -31 18 -47t43 -16q13 0 33 8.5t39 20.5t32.5 26.5t13.5 26.5l100 -62l15.5 -9.5t3.5 -1.5
q7 0 7 7q0 2 -4 10q-3 4 -6.5 11l-7 13.5t-6 12t-2.5 7.5z" />
    <glyph glyph-name="FL126Ah" unicode="&#x126a;" horiz-adv-x="661" 
d="M343 79v-19q8 0 25.5 -10.5t35.5 -23.5t31.5 -25t13.5 -15h15l53 39.5t48.5 32.5t39 22t24.5 8v13q-9 7 -17.5 17.5t-14.5 21.5t-10 21t-4 16q0 26 8 39.5t18 13.5q11 0 19 -7.5t8 -18.5v-1h15v1q0 16 -7 24t-14 13t-19 8.5t-41 3.5q-14 0 -26 -7t-21 -17.5t-14 -22.5
t-5 -21q0 -16 5 -35t12.5 -36t16.5 -30t18 -17l-45 -28q-15 0 -25.5 8t-10.5 19v397q0 13 11 23t24 10v23q-14 0 -35 8.5t-40.5 20.5t-34 24t-14.5 19h-16q0 -7 -8 -17.5t-18.5 -20.5t-21.5 -17.5t-16 -8.5l-108 -25q0 14 -8 27.5t-21.5 24t-32.5 17t-40 6.5
q-38 0 -60.5 -14t-22.5 -37v-10t2 -10h9q1 14 8.5 23.5t20.5 9.5q12 0 21 -11.5t9 -41.5v-406q0 -20 -15 -20v-20q13 0 30.5 -6t34 -14.5t29.5 -17.5t18 -15l71 72l-8 11l-18 -16l-27 26v402l106 25q6 0 15.5 -3t18.5 -8t15.5 -11t6.5 -12v-372q0 -14 -4.5 -18t-12.5 -4z
M283 660q4 0 19.5 -7t34 -17l37 -20.5t27.5 -17.5h12q0 11 6.5 27.5t16.5 32t22 26.5t23 11q14 0 21 -7.5t7 -12.5q0 -6 -4 -12t-9.5 -11.5t-9.5 -8.5q-4 -2 -5 -3v-12q3 0 11 3t16 8.5t14 13.5t6 17q0 18 -8.5 31t-20.5 21.5t-26.5 12.5t-26.5 4q-13 0 -29.5 -5.5
t-31.5 -16.5t-27 -27t-16 -37l-49.5 23t-45.5 21q-4 2 -7 2q-7 0 -7 -6t4 -11l13 -19t11 -19q-4 0 -26.5 12.5l-48 28t-46 29.5t-20.5 16h-17q0 -9 -7 -26t-17.5 -34.5t-23 -30t-23.5 -12.5t-18 9t-7 26h-6q-1 -4 -1 -14q0 -31 18 -47t43 -16q13 0 33 8.5t39 20.5t32.5 26.5
t13.5 26.5l100 -62l15.5 -9.5t3.5 -1.5q7 0 7 7q0 2 -4 10q-3 4 -6.5 11l-7 13.5t-6 12t-2.5 7.5z" />
    <glyph glyph-name="FL126Bh" unicode="&#x126b;" horiz-adv-x="538" 
d="M96 577q-38 0 -60.5 -14t-22.5 -37v-10t2 -10h9q1 14 8.5 23.5t20.5 9.5q12 0 21 -11.5t9 -41.5v-271q0 -20 -15 -20v-20q13 0 30.5 -6t34 -14.5t29.5 -17.5t18 -15l71 72l-8 11l-18 -16l-27 26v267l106 25q6 0 15.5 -3t18.5 -8t15.5 -11t6.5 -12v-448l104 -39l61 83
l-11 8l-11 -15l-28 17v384q0 13 11 23t24 10v23q-14 0 -35 8.5t-40.5 20.5t-34 24t-14.5 19h-16q0 -7 -8 -17.5t-18.5 -20.5t-21.5 -17.5t-16 -8.5l-108 -25q0 14 -8 27.5t-21.5 24t-32.5 17t-40 6.5zM283 660q4 0 19.5 -7t34 -17l37 -20.5t27.5 -17.5h12q0 11 6.5 27.5
t16.5 32t22 26.5t23 11q14 0 21 -7.5t7 -12.5q0 -6 -4 -12t-9.5 -11.5t-9.5 -8.5q-4 -2 -5 -3v-12q3 0 11 3t16 8.5t14 13.5t6 17q0 18 -8.5 31t-20.5 21.5t-26.5 12.5t-26.5 4q-13 0 -29.5 -5.5t-31.5 -16.5t-27 -27t-16 -37l-49.5 23t-45.5 21q-4 2 -7 2q-7 0 -7 -6t4 -11
l13 -19t11 -19q-4 0 -26.5 12.5l-48 28t-46 29.5t-20.5 16h-17q0 -9 -7 -26t-17.5 -34.5t-23 -30t-23.5 -12.5t-18 9t-7 26h-6q-1 -4 -1 -14q0 -31 18 -47t43 -16q13 0 33 8.5t39 20.5t32.5 26.5t13.5 26.5l100 -62l15.5 -9.5t3.5 -1.5q7 0 7 7q0 2 -4 10q-3 4 -6.5 11
l-7 13.5t-6 12t-2.5 7.5z" />
    <glyph glyph-name="FL126Ch" unicode="&#x126c;" horiz-adv-x="612" 
d="M345 78v-20q8 0 25 -10.5l35.5 -23t33.5 -24.5t18 -15l145 66v13q-5 -4 -15 -5v154q-3 0 -11 2t-16 6t-14.5 10t-6.5 13h-15q0 -3 -5.5 -8t-13.5 -11t-16.5 -11t-13.5 -7v256q0 13 11 23t24 10v23q-14 0 -35 8.5t-40.5 20.5t-34 24t-14.5 19h-16q0 -7 -8 -17.5
t-18.5 -20.5t-21.5 -17.5t-16 -8.5l-108 -25q0 14 -8 27.5t-21.5 24t-32.5 17t-40 6.5q-38 0 -60.5 -14t-22.5 -37v-10t2 -10h9q1 14 8.5 23.5t20.5 9.5q12 0 21 -11.5t9 -41.5v-406q0 -20 -15 -20v-20q13 0 30.5 -6t34 -14.5t29.5 -17.5t18 -15l71 72l-8 11l-18 -16l-27 26
v402l106 25q6 0 15.5 -3t18.5 -8t15.5 -11t6.5 -12v-374q0 -9 -3.5 -15t-11.5 -6zM283 660q4 0 19.5 -7t34 -17l37 -20.5t27.5 -17.5h12q0 11 6.5 27.5t16.5 32t22 26.5t23 11q14 0 21 -7.5t7 -12.5q0 -6 -4 -12t-9.5 -11.5t-9.5 -8.5q-4 -2 -5 -3v-12q3 0 11 3t16 8.5
t14 13.5t6 17q0 18 -8.5 31t-20.5 21.5t-26.5 12.5t-26.5 4q-13 0 -29.5 -5.5t-31.5 -16.5t-27 -27t-16 -37l-49.5 23t-45.5 21q-4 2 -7 2q-7 0 -7 -6t4 -11l13 -19t11 -19q-4 0 -26.5 12.5l-48 28t-46 29.5t-20.5 16h-17q0 -9 -7 -26t-17.5 -34.5t-23 -30t-23.5 -12.5
t-18 9t-7 26h-6q-1 -4 -1 -14q0 -31 18 -47t43 -16q13 0 33 8.5t39 20.5t32.5 26.5t13.5 26.5l100 -62l15.5 -9.5t3.5 -1.5q7 0 7 7q0 2 -4 10q-3 4 -6.5 11l-7 13.5t-6 12t-2.5 7.5zM541 191v-137l-10 -4q-26 0 -41 5.5t-15 25.5v110q14 6 23.5 12t18.5 11z" />
    <glyph glyph-name="FL126Dh" unicode="&#x126d;" horiz-adv-x="658" 
d="M134 412h-14q0 -6 -11 -15t-25.5 -17.5t-29.5 -15t-24 -6.5v-13q18 -14 28 -31t10 -28q0 -27 -8 -41.5t-18 -14.5q-11 0 -16.5 9t-5.5 21h-20q0 -31 17.5 -41.5t49.5 -10.5q15 0 29.5 6t25.5 15.5t18 22t7 26.5q0 5 -1 20t-6 22l44 31l19 -14v-256q0 -20 -15 -20v-20
q13 0 30.5 -6t34 -14.5t29.5 -17.5t18 -15l71 72l-8 11l-18 -16l-27 26v402l106 25q6 0 15.5 -3t18.5 -8t15.5 -11t6.5 -12v-448l104 -39l61 83l-11 8l-11 -15l-28 17v384q0 13 11 23t24 10v23q-14 0 -35 8.5t-40.5 20.5t-34 24t-14.5 19h-16q0 -7 -8 -17.5t-18.5 -20.5
t-21.5 -17.5t-16 -8.5l-108 -25q0 14 -8 27.5t-21.5 24t-32.5 17t-40 6.5q-38 0 -60.5 -14t-22.5 -37v-10t2 -10h9q1 14 8.5 23.5t20.5 9.5q12 0 21 -11.5t9 -41.5v-129zM403 661q4 0 19.5 -7t34 -17l37 -20.5t27.5 -17.5h12q0 11 6.5 27.5t16.5 32t22 26.5t23 11
q14 0 21 -7.5t7 -12.5q0 -6 -4 -12t-9.5 -11.5t-9.5 -8.5q-4 -2 -5 -3v-12q3 0 11 3t16 8.5t14 13.5t6 17q0 18 -8.5 31t-20.5 21.5t-26.5 12.5t-26.5 4q-13 0 -29.5 -5.5t-31.5 -16.5t-27 -27t-16 -37l-49.5 23t-45.5 21q-4 2 -7 2q-7 0 -7 -6t4 -11l13 -19t11 -19
q-4 0 -26.5 12.5l-48 28t-46 29.5t-20.5 16h-17q0 -9 -7 -26t-17.5 -34.5t-23 -30t-23.5 -12.5t-18 9t-7 26h-6q-1 -4 -1 -14q0 -31 18 -47t43 -16q13 0 33 8.5t39 20.5t32.5 26.5t13.5 26.5l100 -62l15.5 -9.5t3.5 -1.5q7 0 7 7q0 2 -4 10q-3 4 -6.5 11l-7 13.5t-6 12
t-2.5 7.5z" />
    <glyph glyph-name="FL126Eh" unicode="&#x126e;" horiz-adv-x="538" 
d="M96 577q-38 0 -60.5 -14t-22.5 -37v-10t2 -10h9q1 14 8.5 23.5t20.5 9.5q12 0 21 -11.5t9 -41.5v-406q0 -20 -15 -20v-20q13 0 30.5 -6t34 -14.5t29.5 -17.5t18 -15l71 72l-8 11l-18 -16l-27 26v402l106 25q6 0 15.5 -3t18.5 -8t15.5 -11t6.5 -12v-311l104 -39l61 83
l-11 8l-11 -15l-28 17v247q0 13 11 23t24 10v23q-14 0 -35 8.5t-40.5 20.5t-34 24t-14.5 19h-16q0 -7 -8 -17.5t-18.5 -20.5t-21.5 -17.5t-16 -8.5l-108 -25q0 14 -8 27.5t-21.5 24t-32.5 17t-40 6.5zM283 660q4 0 19.5 -7t34 -17l37 -20.5t27.5 -17.5h12q0 11 6.5 27.5
t16.5 32t22 26.5t23 11q14 0 21 -7.5t7 -12.5q0 -6 -4 -12t-9.5 -11.5t-9.5 -8.5q-4 -2 -5 -3v-12q3 0 11 3t16 8.5t14 13.5t6 17q0 18 -8.5 31t-20.5 21.5t-26.5 12.5t-26.5 4q-13 0 -29.5 -5.5t-31.5 -16.5t-27 -27t-16 -37l-49.5 23t-45.5 21q-4 2 -7 2q-7 0 -7 -6t4 -11
l13 -19t11 -19q-4 0 -26.5 12.5l-48 28t-46 29.5t-20.5 16h-17q0 -9 -7 -26t-17.5 -34.5t-23 -30t-23.5 -12.5t-18 9t-7 26h-6q-1 -4 -1 -14q0 -31 18 -47t43 -16q13 0 33 8.5t39 20.5t32.5 26.5t13.5 26.5l100 -62l15.5 -9.5t3.5 -1.5q7 0 7 7q0 2 -4 10q-3 4 -6.5 11
l-7 13.5t-6 12t-2.5 7.5z" />
    <glyph glyph-name="FL126Fh" unicode="&#x126f;" horiz-adv-x="695" 
d="M565 -53q0 12 7.5 31.5t18.5 38t23.5 32t23.5 13.5q14 0 21 -7.5t7 -13.5q0 -10 -3.5 -18t-7.5 -13.5t-8 -7.5q-3 -2 -4 -3l1 -13q3 0 10 4.5t13.5 11t12 16t5.5 20.5q0 20 -9 33.5t-22 22t-28 12t-26 3.5q-12 0 -28.5 -8t-31 -22.5t-24.5 -34t-10 -42.5l-31 13v449
q0 13 11 23t24 10v23q-14 0 -35 8.5t-40.5 20.5t-34 24t-14.5 19h-16q0 -7 -8 -17.5t-18.5 -20.5t-21.5 -17.5t-16 -8.5l-108 -25q0 14 -8 27.5t-21.5 24t-32.5 17t-40 6.5q-38 0 -60.5 -14t-22.5 -37v-10t2 -10h9q1 14 8.5 23.5t20.5 9.5q12 0 21 -11.5t9 -41.5v-271
q0 -20 -15 -20v-20q13 0 30.5 -6t34 -14.5t29.5 -17.5t18 -15l71 72l-8 11l-18 -16l-27 26v267l106 25q6 0 15.5 -3t18.5 -8t15.5 -11t6.5 -12v-414q-38 16 -64 28.5t-26 20.5h-16q0 -13 -5.5 -34.5t-14 -42.5t-19 -36t-20.5 -15q-11 0 -19 7.5t-10 26.5l-7 -1v-8q0 -3 1 -8
q5 -35 25 -48t44 -13q12 0 28.5 10t32 26t26.5 36t11 39q21 -11 59 -26l75.5 -30t65 -27.5t27.5 -18.5zM283 661q4 0 19.5 -7t34 -17l37 -20.5t27.5 -17.5h12q0 11 6.5 27.5t16.5 32t22 26.5t23 11q14 0 21 -7.5t7 -12.5q0 -6 -4 -12t-9.5 -11.5t-9.5 -8.5q-4 -2 -5 -3v-12
q3 0 11 3t16 8.5t14 13.5t6 17q0 18 -8.5 31t-20.5 21.5t-26.5 12.5t-26.5 4q-13 0 -29.5 -5.5t-31.5 -16.5t-27 -27t-16 -37l-49.5 23t-45.5 21q-4 2 -7 2q-7 0 -7 -6t4 -11l13 -19t11 -19q-4 0 -26.5 12.5l-48 28t-46 29.5t-20.5 16h-17q0 -9 -7 -26t-17.5 -34.5t-23 -30
t-23.5 -12.5t-18 9t-7 26h-6q-1 -4 -1 -14q0 -31 18 -47t43 -16q13 0 33 8.5t39 20.5t32.5 26.5t13.5 26.5l100 -62l15.5 -9.5t3.5 -1.5q7 0 7 7q0 2 -4 10q-3 4 -6.5 11l-7 13.5t-6 12t-2.5 7.5z" />
    <glyph glyph-name="FL1270h" unicode="&#x1270;" horiz-adv-x="530" 
d="M205 579v-499q0 -20 -15 -20v-20q13 0 30.5 -6t34 -14.5t30 -17.5t18.5 -15l71 72l-8 11l-18 -16l-27 26v346h49v-42q0 -26 12.5 -45.5t31.5 -29.5q20 -11 46 -13.5t58 -2.5h2v16q-21 0 -34.5 17.5t-13.5 57.5q0 15 4.5 29t19.5 22l-13 9h-162v119q0 13 10.5 23t23.5 10
v23q-14 0 -35 8.5t-40.5 20.5t-34 24t-14.5 19h-16q0 -7 -8.5 -18t-20 -21.5t-23 -18t-17.5 -7.5v-13q6 0 16 -3t19.5 -7.5t16.5 -11t7 -12.5zM205 428v17h-168l-13 -9q15 -8 19.5 -20.5t4.5 -29.5q0 -40 -13.5 -58t-34.5 -18v-16h2q32 0 56 3.5t44 14.5q19 10 33 28.5
t14 44.5v43h56z" />
    <glyph glyph-name="FL1271h" unicode="&#x1271;" horiz-adv-x="542" 
d="M398 287l-77 -52v191h49v-42q0 -26 12.5 -45.5t31.5 -29.5q20 -11 46 -13.5t58 -2.5h2v16q-21 0 -34.5 17.5t-13.5 57.5q0 15 4.5 29t19.5 22l-13 9h-162v119q0 13 10.5 23t23.5 10v23q-14 0 -35 8.5t-40.5 20.5t-34 24t-14.5 19h-16q0 -7 -8.5 -18t-20 -21.5t-23 -18
t-17.5 -7.5v-13q6 0 16 -3t19.5 -7.5t16.5 -11t7 -12.5v-134h-168l-13 -9q15 -8 19.5 -20.5t4.5 -29.5q0 -40 -13.5 -58t-34.5 -18v-16h2q32 0 56 3.5t44 14.5q19 10 33 28.5t14 44.5v43h56v-348q0 -20 -15 -20v-20q13 0 30.5 -6t34 -14.5t30 -17.5t18.5 -15l71 72l-8 11
l-18 -16l-27 26v132l27 19l44 -36q-5 -7 -6 -22t-1 -20q0 -15 6 -28t16 -23.5t23 -16.5t27 -6q36 0 55.5 10t19.5 36q0 11 -2 15.5t-5 7.5h-13q2 -3 4.5 -9.5t2.5 -10.5q0 -11 -9 -15.5t-20 -4.5q-10 0 -19 15.5t-9 34.5q0 11 11 29.5t29 32.5v13q-9 0 -24 6.5t-29.5 15
t-25.5 17.5t-11 15h-14z" />
    <glyph glyph-name="FL1272h" unicode="&#x1272;" horiz-adv-x="530" 
d="M188 74v-19q8 0 25.5 -10.5t35.5 -23.5t32 -25t14 -15h15l53 39.5t48.5 32.5t39 22t24.5 8v13q-9 7 -17.5 17.5t-14.5 21.5t-10 21t-4 16q0 26 8 39.5t18 13.5q11 0 19 -7.5t8 -18.5v-1h15v1q0 16 -7 24t-14 13t-19 8.5t-41 3.5q-14 0 -26 -7t-21 -17.5t-14 -22.5t-5 -21
q0 -16 5 -35t12.5 -36t16.5 -30t18 -17l-45 -28q-15 0 -25.5 8t-10.5 19v365h49v-42q0 -26 12.5 -45.5t31.5 -29.5q20 -11 46 -13.5t58 -2.5h2v16q-21 0 -34.5 17.5t-13.5 57.5q0 15 4.5 29t19.5 22l-13 9h-162v119q0 13 10.5 23t23.5 10v23q-14 0 -35 8.5t-40.5 20.5
t-34 24t-14.5 19h-16q0 -7 -8.5 -18t-20 -21.5t-23 -18t-17.5 -7.5v-13q6 0 16 -3t19.5 -7.5t16.5 -11t7 -12.5v-134h-168l-13 -9q15 -8 19.5 -20.5t4.5 -29.5q0 -40 -13.5 -58t-34.5 -18v-16h2q32 0 56 3.5t44 14.5q19 10 33 28.5t14 44.5v43h56v-332q0 -14 -4.5 -18
t-12.5 -4z" />
    <glyph glyph-name="FL1273h" unicode="&#x1273;" horiz-adv-x="537" 
d="M212 595v-134h-168l-13 -9q15 -8 19.5 -20.5t4.5 -29.5q0 -40 -13.5 -58t-34.5 -18v-16h2q32 0 56 3.5t44 14.5q19 10 33 28.5t14 44.5v43h56v-264l-197 -51v-89q0 -20 -15 -20v-20q13 0 30.5 -6t34 -14.5t30 -17.5t18.5 -15l71 72l-8 11l-18 -16l-27 26v94l197 52v256
h49v-42q0 -26 12.5 -45.5t31.5 -29.5q20 -11 46 -13.5t58 -2.5h2v16q-21 0 -34.5 17.5t-13.5 57.5q0 15 4.5 29t19.5 22l-13 9h-162v119q0 13 10.5 23t23.5 10v23q-14 0 -35 8.5t-40.5 20.5t-34 24t-14.5 19h-16q0 -7 -8.5 -18t-20 -21.5t-23 -18t-17.5 -7.5v-13q6 0 16 -3
t19.5 -7.5t16.5 -11t7 -12.5z" />
    <glyph glyph-name="FL1274h" unicode="&#x1274;" horiz-adv-x="530" 
d="M190 67v-20q8 0 25.5 -10.5t35.5 -23t33.5 -24.5t18.5 -15l145 66v13q-5 -4 -15 -5v154q-3 0 -11 2t-16 6t-14.5 10t-6.5 13h-15q0 -3 -5.5 -8t-13.5 -11t-16.5 -11t-13.5 -7v230h49v-42q0 -26 12.5 -45.5t31.5 -29.5q20 -11 46 -13.5t58 -2.5h2v16q-21 0 -34.5 17.5
t-13.5 57.5q0 15 4.5 29t19.5 22l-13 9h-162v119q0 13 10.5 23t23.5 10v23q-14 0 -35 8.5t-40.5 20.5t-34 24t-14.5 19h-16q0 -7 -8.5 -18t-20 -21.5t-23 -18t-17.5 -7.5v-13q6 0 16 -3t19.5 -7.5t16.5 -11t7 -12.5v-134h-168l-13 -9q15 -8 19.5 -20.5t4.5 -29.5
q0 -40 -13.5 -58t-34.5 -18v-16h2q32 0 56 3.5t44 14.5q19 10 33 28.5t14 44.5v43h56v-340q0 -9 -3.5 -15t-11.5 -6zM387 180v-137l-10 -4q-26 0 -41 5.5t-15 25.5v110q14 6 23.5 12t18.5 11z" />
    <glyph glyph-name="FL1275h" unicode="&#x1275;" horiz-adv-x="538" 
d="M183 718q0 -8 -8.5 -21t-22 -26t-31.5 -22.5t-36 -9.5q-7 0 -19.5 3t-24.5 9t-20.5 15t-8.5 21h-11q0 -2 -0.5 -7.5t-0.5 -11.5q0 -15 9.5 -30t24.5 -26t33.5 -18t36.5 -7q10 0 26 1.5t32.5 3.5t30.5 4t20 2v-153h-168l-13 -9q15 -8 19.5 -20.5t4.5 -29.5
q0 -40 -13.5 -58t-34.5 -18v-16h2q32 0 56 3.5t44 14.5q19 10 33 28.5t14 44.5v43h56v-348q0 -20 -15 -20v-20q13 0 30.5 -6t34 -14.5t30 -17.5t18.5 -15l71 72l-8 11l-18 -16l-27 26v346h49v-42q0 -26 12.5 -45.5t31.5 -29.5q20 -11 46 -13.5t58 -2.5h2v16
q-21 0 -34.5 17.5t-13.5 57.5q0 15 4.5 29t19.5 22l-13 9h-162v129q0 30 33 32v18q-12 1 -39.5 11.5t-55.5 25.5t-49 31t-21 27h-14z" />
    <glyph glyph-name="FL1276h" unicode="&#x1276;" horiz-adv-x="530" 
d="M321 431q5 4 23 13t39 18t39.5 16t24.5 7v10q-15 0 -15 20v121q-18 0 -51.5 3.5t-66.5 11t-57.5 19.5t-24.5 28h-16q-5 -23 -25 -43.5t-44 -24.5v-12q9 0 19 -3t18.5 -7.5t14.5 -11t6 -12.5v-173h-168l-13 -9q15 -8 19.5 -20.5t4.5 -29.5q0 -40 -13.5 -58t-34.5 -18v-16
h2q32 0 56 3.5t44 14.5q19 10 33 28.5t14 44.5v43h56v-320q0 -20 -15 -20v-20q13 0 30.5 -6t34 -14.5t30 -17.5t18.5 -15l71 72l-8 11l-18 -16l-27 26v318h49v-42q0 -26 12.5 -45.5t31.5 -29.5q20 -11 46 -13.5t58 -2.5h2v16q-21 0 -34.5 17.5t-13.5 57.5q0 15 4.5 29
t19.5 22l-13 9h-162v21zM386 478l-65 -31v98q0 38 19 51t46 13v-131z" />
    <glyph glyph-name="t8" unicode="&#x1277;" horiz-adv-x="540" 
d="M410 -42q0 12 7.5 31.5t18.5 38t23.5 32t23.5 13.5q14 0 21 -7.5t7 -13.5q0 -23 -11 -33t-12 -9l1 -13q3 0 10 4.5t13.5 11t12 16t5.5 20.5q0 20 -9 33.5t-22 22t-28 12t-26 3.5q-12 0 -28.5 -8t-31 -22.5t-24.5 -34t-10 -42.5l-30 13v400h49v-42q0 -26 12.5 -45.5
t31.5 -29.5q20 -11 46 -13.5t58 -2.5h2v16q-21 0 -34.5 17.5t-13.5 57.5q0 15 4.5 29t19.5 22l-13 9h-162v119q0 13 10.5 23t23.5 10v23q-14 0 -35 8.5t-40.5 20.5t-34 24t-14.5 19h-16q0 -7 -8.5 -18t-20 -21.5t-23 -18t-17.5 -7.5v-13q6 0 16 -3t19.5 -7.5t16.5 -11
t7 -12.5v-134h-168l-13 -9q15 -8 19.5 -20.5t4.5 -29.5q0 -40 -13.5 -58t-34.5 -18v-16h2q32 0 56 3.5t44 14.5q19 10 33 28.5t14 44.5v43h56v-357q-38 16 -64 28.5t-26 20.5h-16q0 -13 -5.5 -34.5t-14 -42.5t-19 -36t-20.5 -15q-11 0 -19 7.5t-10 26.5l-7 -1v-8q0 -3 1 -8
q5 -35 25 -48t44 -13q12 0 28.5 10t32 26t26.5 36t11 39q21 -11 59 -26l75.5 -30t65 -27.5t27.5 -18.5z" />
    <glyph glyph-name="FL1278h" unicode="&#x1278;" horiz-adv-x="539" 
d="M417 542v5q0 9 6 24.5t15.5 30.5t21 26t22.5 11q13 0 19.5 -7.5t6.5 -12.5q0 -14 -5.5 -24.5t-20.5 -10.5v-7q18 0 31 13t13 31q0 26 -23 44t-55 18q-12 0 -27.5 -5.5t-30 -16.5t-25.5 -27t-15 -37l-93 51q-1 1 -6 1q-6 0 -6 -6q0 -8 2 -10l12.5 -19t10.5 -19
q-20 9 -45.5 22.5l-49 26.5l-41 23t-20.5 13h-21q0 -9 -6 -26t-15 -34.5t-20.5 -30t-21.5 -12.5q-9 0 -16 9t-7 26h-6q-1 -4 -1 -14v-9q0 -23 16 -38.5t40 -15.5h2q21 1 41 6.5t35.5 16t25.5 26.5t10 38l44 -27v-150h-168l-13 -9q15 -8 19.5 -20.5t4.5 -29.5
q0 -40 -13.5 -58t-34.5 -18v-16h2q32 0 56 3.5t44 14.5q19 10 33 28.5t14 44.5v43h56v-348q0 -20 -15 -20v-20q13 0 30.5 -6t34 -14.5t30 -17.5t18.5 -15l71 72l-8 11l-18 -16l-27 26v346h49v-42q0 -26 12.5 -45.5t31.5 -29.5q20 -11 46 -13.5t58 -2.5h2v16
q-21 0 -34.5 17.5t-13.5 57.5q0 15 4.5 29t19.5 22l-13 9h-162v141q9 -3 21 -9.5l23.5 -13l20.5 -12t12 -8.5h10z" />
    <glyph glyph-name="FL1279h" unicode="&#x1279;" horiz-adv-x="558" 
d="M337 586q9 -3 21 -9.5l23.5 -13l20.5 -12t12 -8.5h10v5q0 9 6 24.5t15.5 30.5t21 26t22.5 11q13 0 19.5 -7.5t6.5 -12.5q0 -14 -5.5 -24.5t-20.5 -10.5v-7q18 0 31 13t13 31q0 26 -23 44t-55 18q-12 0 -27.5 -5.5t-30 -16.5t-25.5 -27t-15 -37l-93 51q-1 1 -6 1
q-6 0 -6 -6q0 -8 2 -10l12.5 -19t10.5 -19q-20 9 -47 23l-51.5 27l-43 23.5t-21.5 13.5h-21q0 -9 -6 -26t-15 -34.5t-20.5 -30t-21.5 -12.5q-9 0 -16 9t-7 26h-6q-1 -4 -1 -14v-9q0 -23 16 -38.5t40 -15.5h2q21 1 41 6.5t35.5 16t25.5 26.5t10 38l51 -29v-151h-168l-13 -9
q15 -8 19.5 -20.5t4.5 -29.5q0 -40 -13.5 -58t-34.5 -18v-16h2q32 0 56 3.5t44 14.5q19 10 33 28.5t14 44.5v43h56v-348q0 -20 -15 -20v-20q13 0 30.5 -6t34 -14.5t30 -17.5t18.5 -15l71 72l-8 11l-18 -16l-27 26v132l27 19l44 -36q-5 -7 -6 -22t-1 -20q0 -15 6 -28
t16 -23.5t23 -16.5t27 -6q36 0 55.5 10t19.5 36q0 11 -2 15.5t-5 7.5h-13q2 -3 4.5 -9.5t2.5 -10.5q0 -11 -9 -15.5t-20 -4.5q-10 0 -19 15.5t-9 34.5q0 11 11 29.5t29 32.5v13q-9 0 -24 6.5t-29.5 15t-25.5 17.5t-11 15h-14l-77 -52v191h49v-42q0 -26 12.5 -45.5
t31.5 -29.5q20 -11 46 -13.5t58 -2.5h2v16q-21 0 -34.5 17.5t-13.5 57.5q0 15 4.5 29t19.5 22l-13 9h-162v142z" />
    <glyph glyph-name="FL127Ah" unicode="&#x127a;" horiz-adv-x="548" 
d="M339 585q9 -3 21 -9.5l23.5 -13l20.5 -12t12 -8.5h10v5q0 9 6 24.5t15.5 30.5t21 26t22.5 11q13 0 19.5 -7.5t6.5 -12.5q0 -14 -5.5 -24.5t-20.5 -10.5v-7q18 0 31 13t13 31q0 26 -23 44t-55 18q-12 0 -27.5 -5.5t-30 -16.5t-25.5 -27t-15 -37l-93 51q-1 1 -6 1
q-6 0 -6 -6q0 -8 2 -10l12.5 -19t10.5 -19q-20 9 -47 22.5l-52.5 26.5t-44 23.5t-21.5 13.5h-21q0 -9 -6 -26t-15 -34.5t-20.5 -30t-21.5 -12.5q-9 0 -16 9t-7 26h-6q-1 -4 -1 -14v-9q0 -23 16 -38.5t40 -15.5h2q21 1 41 6.5t35.5 16t25.5 26.5t10 38l53 -28v-143h-168
l-13 -9q15 -8 19.5 -20.5t4.5 -29.5q0 -40 -13.5 -58t-34.5 -18v-16h2q32 0 56 3.5t44 14.5q19 10 33 28.5t14 44.5v43h56v-332q0 -14 -4.5 -18t-12.5 -4v-19q8 0 25.5 -10.5t35.5 -23.5t32 -25t14 -15h15l53 39.5t48.5 32.5t39 22t24.5 8v13q-9 7 -17.5 17.5t-14.5 21.5
t-10 21t-4 16q0 26 8 39.5t18 13.5q11 0 19 -7.5t8 -18.5v-1h15v1q0 16 -7 24t-14 13t-19 8.5t-41 3.5q-14 0 -26 -7t-21 -17.5t-14 -22.5t-5 -21q0 -16 5 -35t12.5 -36t16.5 -30t18 -17l-45 -28q-15 0 -25.5 8t-10.5 19v365h49v-42q0 -26 12.5 -45.5t31.5 -29.5
q20 -11 46 -13.5t58 -2.5h2v16q-21 0 -34.5 17.5t-13.5 57.5q0 15 4.5 29t19.5 22l-13 9h-162v134z" />
    <glyph glyph-name="FL127Bh" unicode="&#x127b;" horiz-adv-x="545" 
d="M336 582q9 -3 21 -9.5l23.5 -13l20.5 -12t12 -8.5h10v5q0 9 6 24.5t15.5 30.5t21 26t22.5 11q13 0 19.5 -7.5t6.5 -12.5q0 -14 -5.5 -24.5t-20.5 -10.5v-7q18 0 31 13t13 31q0 26 -23 44t-55 18q-12 0 -27.5 -5.5t-30 -16.5t-25.5 -27t-15 -37l-93 51q-1 1 -6 1
q-6 0 -6 -6q0 -8 2 -10l12.5 -19t10.5 -19q-20 9 -46.5 23l-51.5 27t-43 23.5t-21 13.5h-21q0 -9 -6 -26t-15 -34.5t-20.5 -30t-21.5 -12.5q-9 0 -16 9t-7 26h-6q-1 -4 -1 -14v-9q0 -23 16 -38.5t40 -15.5h2q21 1 41 6.5t35.5 16t25.5 26.5t10 38l50 -29v-159h-168l-13 -9
q15 -8 19.5 -20.5t4.5 -29.5q0 -40 -13.5 -58t-34.5 -18v-16h2q32 0 56 3.5t44 14.5q19 10 33 28.5t14 44.5v43h56v-257l-197 -51v-89q0 -20 -15 -20v-20q13 0 30.5 -6t34 -14.5t30 -17.5t18.5 -15l71 72l-8 11l-18 -16l-27 26v94l197 52v249h49v-42q0 -26 12.5 -45.5
t31.5 -29.5q20 -11 46 -13.5t58 -2.5h2v16q-21 0 -34.5 17.5t-13.5 57.5q0 15 4.5 29t19.5 22l-13 9h-162v150z" />
    <glyph glyph-name="FL127Ch" unicode="&#x127c;" horiz-adv-x="544" 
d="M335 579q9 -3 21 -9.5l23.5 -13l20.5 -12t12 -8.5h10v5q0 9 6 24.5t15.5 30.5t21 26t22.5 11q13 0 19.5 -7.5t6.5 -12.5q0 -14 -5.5 -24.5t-20.5 -10.5v-7q18 0 31 13t13 31q0 26 -23 44t-55 18q-12 0 -27.5 -5.5t-30 -16.5t-25.5 -27t-15 -37l-93 51q-1 1 -6 1
q-6 0 -6 -6q0 -8 2 -10l12.5 -19t10.5 -19q-20 9 -46.5 23l-51 27t-42.5 23.5t-21 13.5h-21q0 -9 -6 -26t-15 -34.5t-20.5 -30t-21.5 -12.5q-9 0 -16 9t-7 26h-6q-1 -4 -1 -14v-9q0 -23 16 -38.5t40 -15.5h2q21 1 41 6.5t35.5 16t25.5 26.5t10 38l49 -29v-142h-168l-13 -9
q15 -8 19.5 -20.5t4.5 -29.5q0 -40 -13.5 -58t-34.5 -18v-16h2q32 0 56 3.5t44 14.5q19 10 33 28.5t14 44.5v43h56v-340q0 -9 -3.5 -15t-11.5 -6v-20q8 0 25.5 -10.5t35.5 -23t33.5 -24.5t18.5 -15l145 66v13q-5 -4 -15 -5v154q-3 0 -11 2t-16 6t-14.5 10t-6.5 13h-15
q0 -3 -5.5 -8t-13.5 -11t-16.5 -11t-13.5 -7v230h49v-42q0 -26 12.5 -45.5t31.5 -29.5q20 -11 46 -13.5t58 -2.5h2v16q-21 0 -34.5 17.5t-13.5 57.5q0 15 4.5 29t19.5 22l-13 9h-162v133zM401 182v-137l-10 -4q-26 0 -41 5.5t-15 25.5v110q14 6 23.5 12t18.5 11z" />
    <glyph glyph-name="FL127Dh" unicode="&#x127d;" horiz-adv-x="669" 
d="M176 393l-13 -9q15 -8 19.5 -20.5t4.5 -29.5q0 -40 -13.5 -58t-34.5 -18v-16h2q32 0 56 3.5t44 14.5q19 10 33 28.5t14 44.5v43h56v-304q0 -20 -15 -20v-20q13 0 30.5 -6t34 -14.5t30 -17.5t18.5 -15l71 72l-8 11l-18 -16l-27 26v302h49v-42q0 -26 12.5 -45.5t31.5 -29.5
q20 -11 46 -13.5t58 -2.5h2v16q-21 0 -34.5 17.5t-13.5 57.5q0 15 4.5 29t19.5 22l-13 9h-162v79q0 16 8.5 32t24.5 17v18q-12 1 -31.5 4.5t-39 9.5t-36.5 15.5t-24 22.5q-5 -20 -15 -37t-26 -17v103q9 -3 21 -9.5l23.5 -13l20.5 -12t12 -8.5h10v5q0 9 6 24.5t15.5 30.5
t21 26t22.5 11q13 0 19.5 -7.5t6.5 -12.5q0 -14 -5.5 -24.5t-20.5 -10.5v-7q18 0 31 13t13 31q0 26 -23 44t-55 18q-12 0 -27.5 -5.5t-30 -16.5t-25.5 -27t-15 -37l-93 51q-1 1 -6 1q-6 0 -6 -6q0 -8 2 -10l12.5 -19t10.5 -19l-44.5 21l-46 22.5l-37.5 19t-19 11.5h-21
q0 -9 -6 -26t-15 -34.5t-20.5 -30t-21.5 -12.5q-9 0 -16 9t-7 26h-6q-1 -4 -1 -14v-9q0 -23 16 -38.5t40 -15.5h2q21 1 41 6.5t35.5 16t25.5 26.5t10 38l35 -16v-113q0 -14 -3.5 -18.5t-11.5 -4.5v-17h154v-103h-168z" />
    <glyph glyph-name="FL127Eh" unicode="&#x127e;" horiz-adv-x="545" 
d="M52 403l-13 -9q15 -8 19.5 -20.5t4.5 -29.5q0 -40 -13.5 -58t-34.5 -18v-16h2q32 0 56 3.5t44 14.5q19 10 33 28.5t14 44.5v43h56v-320q0 -20 -15 -20v-20q13 0 30.5 -6t34 -14.5t30 -17.5t18.5 -15l71 72l-8 11l-18 -16l-27 26v318h49v-42q0 -26 12.5 -45.5t31.5 -29.5
q20 -11 46 -13.5t58 -2.5h2v16q-21 0 -34.5 17.5t-13.5 57.5q0 15 4.5 29t19.5 22l-13 9h-162v16l84 32v10q-2 -2 -7 -2.5t-10 -1.5v124l10 -7h10v5q0 9 6 24.5t15.5 30.5t21 26t22.5 11q13 0 19.5 -7.5t6.5 -12.5q0 -14 -5.5 -24.5t-20.5 -10.5v-7q18 0 31 13t13 31
q0 26 -23 44t-55 18q-12 0 -27.5 -5.5t-30 -16.5t-25.5 -27t-15 -37l-93 51q-1 1 -6 1q-6 0 -6 -6q0 -8 2 -10l12.5 -19t10.5 -19q-20 9 -46.5 23l-51.5 27t-43 23.5t-21 13.5h-21q0 -9 -6 -26t-15 -34.5t-20.5 -30t-21.5 -12.5q-9 0 -16 9t-7 26h-6q-1 -4 -1 -14v-9
q0 -23 16 -38.5t40 -15.5h2q21 1 41 6.5t35.5 16t25.5 26.5t10 38l50 -29v-223h-168zM355 444q-8 0 -13.5 5.5t-5.5 22.5v144q5 -2 12 -5.5l15 -7.5l7 -4v-154z" />
    <glyph glyph-name="ch8" unicode="&#x127f;" horiz-adv-x="549" 
d="M419 -46q0 12 7.5 31.5t18.5 38t23.5 32t23.5 13.5q14 0 21 -7.5t7 -13.5q0 -23 -11 -33t-12 -9l1 -13q3 0 10 4.5t13.5 11t12 16t5.5 20.5q0 20 -9 33.5t-22 22t-28 12t-26 3.5q-12 0 -28.5 -8t-31 -22.5t-24.5 -34t-10 -42.5l-30 13v404h49v-42q0 -26 12.5 -45.5
t31.5 -29.5q20 -11 46 -13.5t58 -2.5h2v16q-21 0 -34.5 17.5t-13.5 57.5q0 15 4.5 29t19.5 22l-13 9h-162v141q9 -3 21 -9.5l23.5 -13l20.5 -12t12 -8.5h10v5q0 9 6 24.5t15.5 30.5t21 26t22.5 11q13 0 19.5 -7.5t6.5 -12.5q0 -14 -5.5 -24.5t-20.5 -10.5v-7q18 0 31 13
t13 31q0 26 -23 44t-55 18q-12 0 -27.5 -5.5t-30 -16.5t-25.5 -27t-15 -37l-93 51q-1 1 -6 1q-6 0 -6 -6q0 -8 2 -10l12.5 -19t10.5 -19q-20 9 -45.5 22.5l-49 26.5l-41 23t-20.5 13h-21q0 -9 -6 -26t-15 -34.5t-20.5 -30t-21.5 -12.5q-9 0 -16 9t-7 26h-6q-1 -4 -1 -14v-9
q0 -23 16 -38.5t40 -15.5h2q21 1 41 6.5t35.5 16t25.5 26.5t10 38l44 -27v-150h-168l-13 -9q15 -8 19.5 -20.5t4.5 -29.5q0 -40 -13.5 -58t-34.5 -18v-16h2q32 0 56 3.5t44 14.5q19 10 33 28.5t14 44.5v43h56v-361q-38 16 -64 28.5t-26 20.5h-16q0 -13 -5.5 -34.5t-14 -42.5
t-19 -36t-20.5 -15q-11 0 -19 7.5t-10 26.5l-7 -1v-8q0 -3 1 -8q5 -35 25 -48t44 -13q12 0 28.5 10t32 26t26.5 36t11 39q21 -11 59 -26l75.5 -30t65 -27.5t27.5 -18.5z" />
    <glyph glyph-name="hhh1" unicode="&#x1280;" horiz-adv-x="502" 
d="M299 578q0 13 11 23t24 10v23q-14 0 -35 7t-40.5 17t-34 20.5t-14.5 17.5h-16q0 -7 -8.5 -18t-20 -21.5t-23 -18t-17.5 -7.5v-13q6 0 16 -4t19.5 -10t16.5 -13.5t7 -13.5v-77q-5 0 -12.5 -3t-15 -7t-14.5 -9t-10 -9v68h-18q0 -3 -14.5 -10.5t-32.5 -14.5t-35 -12.5
t-21 -5.5v-9q16 -3 28 -12.5t12 -43.5q0 -20 -4 -39.5t-15 -19.5q-9 0 -16.5 4t-9.5 13l-6 -7q1 -6 6.5 -12.5t13 -12.5t16 -10t17.5 -4q16 0 31.5 9t27 24t18.5 34t7 39q20 17 38.5 26t51.5 9q43 0 69.5 -6.5t26.5 -31.5v-367q0 -20 -15 -20v-20q13 0 30.5 -6t34 -14.5
t30 -17.5t18.5 -15l71 72l-8 11l-18 -16l-28 26v411l-46 19h-93v68z" />
    <glyph glyph-name="hhh2" unicode="&#x1281;" horiz-adv-x="664" 
d="M520 431l-82 -56v116l-46 19h-93v68q0 13 11 23t24 10v23q-14 0 -35 7t-40.5 17t-34 20.5t-14.5 17.5h-16q0 -7 -8.5 -18t-20 -21.5t-23 -18t-17.5 -7.5v-13q6 0 16 -4t19.5 -10t16.5 -13.5t7 -13.5v-77q-5 0 -12.5 -3t-15 -7t-14.5 -9t-10 -9v68h-18q0 -3 -14.5 -10.5
t-32.5 -14.5t-35 -12.5t-21 -5.5v-9q16 -3 28 -12.5t12 -43.5q0 -20 -4 -39.5t-15 -19.5q-9 0 -16.5 4t-9.5 13l-6 -7q1 -6 6.5 -12.5t13 -12.5t16 -10t17.5 -4q16 0 31.5 9t27 24t18.5 34t7 39q20 17 38.5 26t51.5 9q43 0 69.5 -6.5t26.5 -31.5v-367q0 -20 -15 -20v-20
q13 0 30.5 -6t34 -14.5t30 -17.5t18.5 -15l71 72l-8 11l-18 -16l-28 26v273l32 22l44 -36q-5 -7 -6 -22t-1 -20q0 -15 6 -28t16 -23.5t23 -16.5t27 -6q36 0 55.5 10t19.5 36q0 11 -2 15.5t-5 7.5h-13q2 -3 4.5 -9.5t2.5 -10.5q0 -11 -9 -15.5t-20 -4.5q-10 0 -19 15.5
t-9 34.5q0 11 11 29.5t29 32.5v13q-9 0 -24 6.5t-29.5 15t-25.5 17.5t-11 15h-14z" />
    <glyph glyph-name="hhh3" unicode="&#x1282;" horiz-adv-x="624" 
d="M306 79v-19q8 0 25.5 -10.5t35.5 -23.5t31.5 -25t13.5 -15h15l53 39.5t48.5 32.5t39 22t24.5 8v13q-9 7 -17.5 17.5t-14.5 21.5t-10 21t-4 16q0 26 8 39.5t18 13.5q11 0 19 -7.5t8 -18.5v-1h15v1q0 16 -7 24t-14 13t-19 8.5t-41 3.5q-14 0 -26 -7t-21 -17.5t-14 -22.5
t-5 -21q0 -16 5 -35t12.5 -36t16.5 -30t18 -17l-45 -28q-15 0 -25.5 8t-10.5 19v425l-46 19h-93v68q0 13 11 23t24 10v23q-14 0 -35 7t-40.5 17t-34 20.5t-14.5 17.5h-16q0 -7 -8.5 -18t-20 -21.5t-23 -18t-17.5 -7.5v-13q6 0 16 -4t19.5 -10t16.5 -13.5t7 -13.5v-77
q-5 0 -12.5 -3t-15 -7t-14.5 -9t-10 -9v68h-18q0 -3 -14.5 -10.5t-32.5 -14.5t-35 -12.5t-21 -5.5v-9q16 -3 28 -12.5t12 -43.5q0 -20 -4 -39.5t-15 -19.5q-9 0 -16.5 4t-9.5 13l-6 -7q1 -6 6.5 -12.5t13 -12.5t16 -10t17.5 -4q16 0 31.5 9t27 24t18.5 34t7 39
q20 17 38.5 26t51.5 9q43 0 69.5 -6.5t26.5 -31.5v-346q0 -14 -4.5 -18t-12.5 -4z" />
    <glyph glyph-name="hhh4" unicode="&#x1283;" horiz-adv-x="448" 
d="M299 578q0 13 11 23t24 10v23q-14 0 -35 7t-40.5 17t-34 20.5t-14.5 17.5h-16q0 -7 -8.5 -18t-20 -21.5t-23 -18t-17.5 -7.5v-13q6 0 16 -4t19.5 -10t16.5 -13.5t7 -13.5v-77q-5 0 -12.5 -3t-15 -7t-14.5 -9t-10 -9v68h-18q0 -3 -14.5 -10.5t-32.5 -14.5t-35 -12.5
t-21 -5.5v-9q16 -3 28 -12.5t12 -43.5q0 -20 -4 -39.5t-15 -19.5q-9 0 -16.5 4t-9.5 13l-6 -7q1 -6 6.5 -12.5t13 -12.5t16 -10t17.5 -4q16 0 31.5 9t27 24t18.5 34t7 39q20 17 38.5 26t51.5 9q43 0 69.5 -6.5t26.5 -31.5v-210l-255 -92v-101q0 -20 -15 -20v-20
q13 0 30.5 -6t34 -14.5t30 -17.5t18.5 -15l71 72l-8 11l-18 -16l-28 26v80l255 84v283l-46 19h-93v68z" />
    <glyph glyph-name="hhh5" unicode="&#x1284;" horiz-adv-x="575" 
d="M308 79v-20q8 0 25 -10.5l35.5 -23t33.5 -24.5t18 -15l145 66v13q-5 -4 -15 -5v154q-3 0 -11 2t-16 6t-14.5 10t-6.5 13h-15q0 -3 -5.5 -8t-13.5 -11t-16.5 -11t-13.5 -7v283l-46 19h-93v68q0 13 11 23t24 10v23q-14 0 -35 7t-40.5 17t-34 20.5t-14.5 17.5h-16
q0 -7 -8.5 -18t-20 -21.5t-23 -18t-17.5 -7.5v-13q6 0 16 -4t19.5 -10t16.5 -13.5t7 -13.5v-77q-5 0 -12.5 -3t-15 -7t-14.5 -9t-10 -9v68h-18q0 -3 -14.5 -10.5t-32.5 -14.5t-35 -12.5t-21 -5.5v-9q16 -3 28 -12.5t12 -43.5q0 -20 -4 -39.5t-15 -19.5q-9 0 -16.5 4t-9.5 13
l-6 -7q1 -6 6.5 -12.5t13 -12.5t16 -10t17.5 -4q16 0 31.5 9t27 24t18.5 34t7 39q20 17 38.5 26t51.5 9q43 0 69.5 -6.5t26.5 -31.5v-347q0 -9 -3.5 -15t-11.5 -6zM504 192v-137l-10 -4q-26 0 -41 5.5t-15 25.5v110q14 6 23.5 12t18.5 11z" />
    <glyph glyph-name="hhh6" unicode="&#x1285;" horiz-adv-x="576" 
d="M154 494q0 20 -16.5 30t-36.5 18q-9 -6 -19 -14.5t-20 -16t-20.5 -13t-21.5 -5.5v-12q27 0 40.5 -10.5t13.5 -45.5q0 -36 -9.5 -46.5t-17.5 -10.5q-7 0 -15.5 4t-10.5 9l-6 -11q1 0 4.5 -3.5t9.5 -7.5t15.5 -7.5t23.5 -3.5q46 0 71 31.5t25 99.5q0 6 4.5 17t13 22t19 19
t22.5 8q11 0 21 -6t20 -6v-34h-17v-18q28 0 55 -1.5t48.5 -8.5t34.5 -20t13 -35v-339q0 -20 -15 -20v-20q13 0 30.5 -6t34 -14.5t30 -17.5t18.5 -15l71 72l-8 11l-18 -16l-28 26v407l-46 19h-88v104q0 13 11 23t24 10v23q-14 0 -35 7t-40.5 17t-34 20.5t-14.5 17.5h-16
q0 -7 -8.5 -18t-20 -21.5t-23 -18t-17.5 -7.5v-13q6 0 16 -4t19.5 -10t16.5 -13.5t7 -13.5v-56q-10 0 -17.5 3.5t-26.5 3.5q-14 0 -26 -8t-21 -19t-14 -21.5t-5 -14.5z" />
    <glyph glyph-name="hhh7" unicode="&#x1286;" horiz-adv-x="616" 
d="M309 588q32 23 57.5 31t57.5 8q0 -1 11.5 -10.5t26.5 -17.5q-10 -13 -10 -42q0 -9 5.5 -20.5t15 -21.5t22 -17t26.5 -7q38 0 59.5 9.5t21.5 37.5h-10q0 -11 -10.5 -18.5t-21.5 -7.5t-18.5 15.5t-7.5 37.5q0 29 38 59v13q-9 0 -24 6.5t-29.5 15t-25.5 17.5t-11 15h-14
q0 -6 -7 -15t-17 -17t-21.5 -13.5t-21.5 -5.5q-23 -2 -49 -11.5t-43 -23.5q-8 13 -21 21.5t-29 13.5t-33 6.5t-33 1.5q-18 0 -36.5 -8t-33.5 -21t-24.5 -30t-9.5 -34q0 -12 2 -16h5q0 18 17 29.5t37 11.5q18 0 30.5 -14.5t12.5 -43.5v-70l-56 -26v64h-23q0 -3 -14.5 -10.5
t-32.5 -14.5t-35 -12.5t-21 -5.5v-9q8 -2 16 -4.5t15 -8.5t11 -16t4 -27q0 -10 -2 -21.5t-5.5 -21t-8 -15.5t-10.5 -6q-9 0 -16 6.5t-9 15.5l-6 -7q1 -6 6 -14.5t12 -17t15 -14.5t17 -6q33 0 60 29.5t27 89.5l56 26v-126q0 -14 -11 -14v-12q6 0 22.5 -5t34.5 -12t32.5 -14.5
t16.5 -12.5l140 70v-217q0 -22 -4 -29.5t-11 -7.5v-20q17 0 34 -5.5t33 -14.5t30 -19t25 -19l71 58l-9 16l-21 -11l-32 30v242q0 14 7 19t13 5v11q-7 0 -18.5 2.5t-23 6.5t-19.5 9t-8 9h-13q0 -6 -13.5 -16t-33.5 -21.5t-44 -24l-45 -22.5l-37 23v284z" />
    <glyph glyph-name="hhhx1" unicode="&#x1288;" horiz-adv-x="679" 
d="M669 249v159q-13 0 -28.5 4.5t-25.5 15.5l-42 -18q-13 0 -30.5 5t-22.5 13q-4 -8 -29.5 -18t-52.5 -18v99l-46 19h-93v68q0 13 11 23t24 10v23q-14 0 -35 7t-40.5 17t-34 20.5t-14.5 17.5h-16q0 -7 -8.5 -18t-20 -21.5t-23 -18t-17.5 -7.5v-13q6 0 16 -4t19.5 -10
t16.5 -13.5t7 -13.5v-77q-5 0 -12.5 -3t-15 -7t-14.5 -9t-10 -9v68h-18q0 -3 -14.5 -10.5t-32.5 -14.5t-35 -12.5t-21 -5.5v-9q16 -3 28 -12.5t12 -43.5q0 -20 -4 -39.5t-15 -19.5q-9 0 -16.5 4t-9.5 13l-6 -7q1 -6 6.5 -12.5t13 -12.5t16 -10t17.5 -4q16 0 31.5 9t27 24
t18.5 34t7 39q20 17 38.5 26t51.5 9q43 0 69.5 -6.5t26.5 -31.5v-367q0 -20 -15 -20v-20q13 0 30.5 -6t34 -14.5t30 -17.5t18.5 -15l71 72l-8 11l-18 -16l-28 26v293l37 12q25 0 25 -26v-79q0 -14 -4 -18.5t-9 -4.5v-12q7 0 19 -5.5t23 -12.5t19 -13.5t8 -8.5zM626 401v-152
l-27 -12q-16 0 -21 9t-5 23v124l39 16z" />
    <glyph glyph-name="FL128A" unicode="&#x128a;" horiz-adv-x="773" 
d="M610 286q0 -13 2.5 -33.5t6.5 -29.5q12 -28 34.5 -42t43.5 -14q22 0 41.5 9.5t24.5 23.5l-7 5q-1 -4 -9.5 -6.5t-16.5 -4.5q-15 1 -23.5 17.5t-8.5 32.5q0 35 9 44t23 9v14q-2 1 -16.5 5t-31 11t-16.5 14h-18q0 -3 -8.5 -12t-19.5 -18.5t-22.5 -16.5t-17.5 -7
q-9 0 -15 5.5t-6 13.5v111q-9 0 -22 2t-25 5t-21 7t-9 8h-14q-1 -15 -12 -17q8 -2 13.5 -10t5.5 -24v-32l-37 -12v147l-46 19h-93v68q0 13 11 23t24 10v23q-14 0 -35 7t-40.5 17t-34 20.5t-14.5 17.5h-16q0 -7 -8.5 -18t-20 -21.5t-23 -18t-17.5 -7.5v-13q6 0 16 -4
t19.5 -10t16.5 -13.5t7 -13.5v-77q-5 0 -12.5 -3t-15 -7t-14.5 -9t-10 -9v68h-18q0 -3 -14.5 -10.5t-32.5 -14.5t-35 -12.5t-21 -5.5v-9q16 -3 28 -12.5t12 -43.5q0 -20 -4 -39.5t-15 -19.5q-9 0 -16.5 4t-9.5 13l-6 -7q1 -6 6.5 -12.5t13 -12.5t16 -10t17.5 -4q16 0 31.5 9
t27 24t18.5 34t7 39q20 17 38.5 26t51.5 9q43 0 69.5 -6.5t26.5 -31.5v-367q0 -20 -15 -20v-20q13 0 30.5 -6t34 -14.5t30 -17.5t18.5 -15l71 72l-8 11l-18 -16l-28 26v249l38 12v-74q4 0 13 -3t18.5 -8.5t17 -12t7.5 -12.5h14q7 0 15.5 6.5t17.5 15t17 18t14 15.5z" />
    <glyph glyph-name="FL128Bh" unicode="&#x128b;" horiz-adv-x="658" 
d="M528 -58q0 12 7.5 31.5t18.5 38t23.5 32t23.5 13.5q14 0 21 -7.5t7 -13.5q0 -14 -3.5 -22t-7.5 -12.5t-8 -5.5q-3 -2 -4 -2l1 -13q3 0 10 4.5t13.5 11t12 16t5.5 20.5q0 20 -9 33.5t-22 22t-28 12t-26 3.5q-12 0 -28.5 -8t-31 -22.5t-24.5 -34t-10 -42.5l-31 13v481
l-46 19h-93v68q0 13 11 23t24 10v23q-14 0 -35 7t-40.5 17t-34 20.5t-14.5 17.5h-16q0 -7 -8.5 -18t-20 -21.5t-23 -18t-17.5 -7.5v-13q6 0 16 -4t19.5 -10t16.5 -13.5t7 -13.5v-77q-5 0 -12.5 -3t-15 -7t-14.5 -9t-10 -9v68h-18q0 -3 -14.5 -10.5t-32.5 -14.5t-35 -12.5
t-21 -5.5v-9q16 -3 28 -12.5t12 -43.5q0 -20 -4 -39.5t-15 -19.5q-9 0 -16.5 4t-9.5 13l-6 -7q1 -6 6.5 -12.5t13 -12.5t16 -10t17.5 -4q16 0 31.5 9t27 24t18.5 34t7 39q20 17 38.5 26t51.5 9q43 0 69.5 -6.5t26.5 -31.5v-392q-38 16 -64 28.5t-26 20.5h-16
q0 -13 -5.5 -34.5t-14 -42.5t-19 -36t-20.5 -15q-11 0 -19 7.5t-10 26.5l-7 -1v-8q0 -3 1 -8q5 -35 25 -48t44 -13q12 0 28.5 10t32 26t26.5 36t11 39q21 -11 59 -26l75.5 -30t65 -27.5t27.5 -18.5z" />
    </font>
</defs>
</svg>
