<?xml version="1.0" standalone="no"?>
<!DOCTYPE svg PUBLIC "-//W3C//DTD SVG 1.1//EN" "http://www.w3.org/Graphics/SVG/1.1/DTD/svg11.dtd" >
<svg>
<metadata>
Created by FontForge 20090622 at Sat Oct  3 18:27:18 2015
 By deploy user
Copyright (c) 1998-2008 Senamirmir Project. All Right Reserved.  Released under the SIL Open Font License; http://scripts.sil.org/OFL
</metadata>
<defs>
<font id="EthiopicHiwua" horiz-adv-x="600" >
  <font-face 
    font-family="Ethiopic Hiwua"
    font-weight="400"
    font-stretch="normal"
    units-per-em="1000"
    panose-1="2 0 5 0 0 0 0 0 0 0"
    ascent="800"
    descent="-200"
    x-height="430"
    cap-height="563"
    bbox="-562 -185 1068 916"
    underline-thickness="50"
    underline-position="-114"
    unicode-range="U+0020-U+2122"
  />
<missing-glyph horiz-adv-x="500" 
 />
    <glyph glyph-name=".notdef" horiz-adv-x="500" 
 />
    <glyph glyph-name=".null" horiz-adv-x="0" 
 />
    <glyph glyph-name="nonmarkingreturn" horiz-adv-x="500" 
 />
    <glyph glyph-name="space" unicode=" " horiz-adv-x="278" 
 />
    <glyph glyph-name="space" unicode="&#xa0;" horiz-adv-x="278" 
 />
    <glyph glyph-name="exclam" unicode="!" 
d="M277 193l-18 378h83l-19 -378h-46zM300 106q30 0 49.5 -18t19.5 -44t-20 -43.5t-49 -17.5t-49 18t-20 44t20 43.5t49 17.5z" />
    <glyph glyph-name="quotedbl" unicode="&#x22;" 
d="M242 282h-74l-11 281h95zM432 282h-74l-10 281h95z" />
    <glyph glyph-name="numbersign" unicode="#" 
d="M236 454h145l12 205h47l-12 -205h94v-65h-97l-10 -167h107v-65h-110l-12 -214h-47l12 214h-146l-11 -214h-47l11 214h-94v65h98l10 167h-108v65h111l12 205h47zM223 222h145l10 167h-145z" />
    <glyph glyph-name="dollar" unicode="$" 
d="M476 547q-1 -10 -1.5 -21.5t-0.5 -26.5q0 -48 4 -84.5t7 -61.5l-46 -5q-7 49 -21 78.5t-30.5 45.5t-34 22t-31.5 9v-204q31 -9 61.5 -19t54.5 -25.5t38.5 -39.5t14.5 -60q0 -32 -13 -56.5t-36 -42.5t-54 -28.5t-66 -13.5v-150h-48v150q-8 0 -14.5 0.5t-15.5 3l-21.5 6
t-31.5 9.5q-11 4 -15.5 4.5t-6.5 0.5q-10 0 -11.5 -6t-2.5 -23h-47q3 55 0 99.5t-10 94.5h47q3 -17 9 -39.5t19.5 -43.5t37.5 -37t63 -21v199q-25 7 -53 16t-51.5 25t-39 41t-15.5 64q0 63 43.5 101t115.5 44v104h48v-104q34 -5 69 -21q13 -6 16.5 -7.5t7.5 -1.5q8 0 10 5
t4 20h47zM274 504q-12 -2 -30 -6t-35 -14.5t-29.5 -28t-12.5 -46.5q0 -24 9.5 -39.5t24.5 -26t34 -17.5t39 -13v191zM322 62q16 1 36 5.5t38 15t30.5 28t12.5 43.5q0 23 -10.5 38.5t-27 26t-37.5 17.5t-42 13v-187z" />
    <glyph glyph-name="percent" unicode="%" 
d="M401 253q35 0 61.5 -12t44.5 -31.5t27 -43.5t9 -47q0 -24 -9.5 -47.5t-27.5 -42.5t-44.5 -31t-60.5 -12q-35 0 -61 12t-44 31.5t-27 43t-9 46.5q0 22 9 46t26.5 43.5t44 32t61.5 12.5zM401 206q-21 0 -37 -7.5t-27 -19.5t-17 -27.5t-6 -31.5q0 -34 22.5 -60.5t64.5 -26.5
q21 0 37.5 7.5t28 20t17 28t5.5 31.5q0 15 -5.5 30.5t-16.5 28t-27.5 20t-38.5 7.5zM186 614q34 0 60.5 -12t44.5 -31.5t27.5 -43t9.5 -47.5t-9.5 -48t-27.5 -43t-44.5 -30.5t-60.5 -11.5q-33 0 -59.5 12t-44.5 30.5t-27.5 42.5t-9.5 48q0 23 9 47t27 43.5t44 31.5t61 12z
M187 567q-22 0 -38.5 -7.5t-27.5 -20t-16.5 -28t-5.5 -31.5t6 -31.5t17 -27.5t27.5 -19.5t37.5 -7.5q42 0 64.5 26t22.5 60q0 33 -22.5 60t-64.5 27zM107 193l-20 47l406 180l20 -47z" />
    <glyph glyph-name="ampersand" unicode="&#x26;" 
d="M529 233h-60q-18 -53 -31 -80.5t-21 -41.5l44 -64h75v-47h-114l-41 60l-21 -21t-29 -22.5t-39 -17.5t-49 -7q-35 0 -62 12.5t-45.5 33.5t-28 47t-9.5 53q0 51 31 96t88 66q0 3 -4 7l-27.5 41t-16.5 29t-8 24t-2 25q0 49 34.5 81.5t94.5 32.5q22 0 41 -4.5t38 -12.5
q21 -8 28 -9.5t13 -1.5q12 0 21.5 3l15.5 5l-46 -72q-19 14 -46 29t-65 15q-21 0 -34.5 -6t-21.5 -15.5t-11 -20.5t-3 -20q0 -18 10 -35.5t29 -45.5l130 -193l14.5 31t10 24t9.5 27.5l13 41.5h95v-47zM244 264q-14 -6 -28 -16t-25.5 -24t-19 -32.5t-7.5 -41.5q0 -18 5 -37
t16.5 -34.5t28.5 -25t41 -9.5q19 0 35 6t28 15t21 18.5t15 16.5z" />
    <glyph glyph-name="quotesingle" unicode="'" 
d="M337 281h-75l-19 282h114z" />
    <glyph glyph-name="parenleft" unicode="(" 
d="M463 649l-36 -71.5t-38 -88.5t-30 -102t-12 -111t12 -111t30 -102t38 -88.5l36 -70.5h-51q-28 42 -51 90t-39.5 97t-25.5 96.5t-9 88.5q0 40 8.5 87.5t25 96.5t39.5 97.5t52 91.5h51z" />
    <glyph glyph-name="parenright" unicode=")" 
d="M137 -96q15 27 35 67t38.5 88.5t31 103.5t12.5 113t-12.5 112.5t-31 102.5t-38.5 88.5l-35 69.5h52q31 -48 54.5 -97.5t39 -98t23.5 -93.5t8 -84q0 -41 -8.5 -87.5t-24.5 -95t-39.5 -97t-52.5 -92.5h-52z" />
    <glyph glyph-name="asterisk" unicode="*" 
d="M328 416l140 51l21 -64l-144 -40l93 -116l-55 -41l-83 125l-83 -125l-55 41l93 116l-144 40l21 64l140 -51l-6 147h68z" />
    <glyph glyph-name="plus" unicode="+" 
d="M325 328h209v-50h-209v-205h-50v205h-209v50h209v205h50v-205z" />
    <glyph glyph-name="comma" unicode="," 
d="M248 -109h-71l76 242h104z" />
    <glyph glyph-name="hyphen" unicode="-" 
d="M194 317h212v-55h-212v55z" />
    <glyph glyph-name="period" unicode="." 
d="M300 119q15 0 28.5 -5t24.5 -14t17.5 -21.5t6.5 -27.5q0 -16 -7 -28.5t-18 -21.5t-25 -13.5t-27 -4.5t-26.5 4.5t-25 13t-18.5 21t-7 29.5q0 16 7 28.5t18 21.5t24.5 13.5t27.5 4.5z" />
    <glyph glyph-name="slash" unicode="/" 
d="M134 -133l-43 20l375 815l43 -18z" />
    <glyph glyph-name="zero" unicode="0" 
d="M300 621q61 0 98.5 -31.5t57.5 -79t27 -103t7 -104.5t-7 -104.5t-27 -103t-57.5 -78.5t-98.5 -31t-98.5 31.5t-57.5 78.5t-27 103t-7 104q0 49 7 104.5t27 103t57.5 79t98.5 31.5zM300 576q-45 0 -72 -28t-41.5 -69t-19 -88.5t-4.5 -86.5q0 -40 4.5 -87.5t19 -89
t41.5 -69t71 -27.5q45 0 72 28t42 69t19.5 89t4.5 87q0 40 -4.5 87.5t-19 88.5t-41.5 68.5t-72 27.5z" />
    <glyph glyph-name="one" unicode="1" 
d="M334 621v-574h171v-47h-395v47h174v516l-160 -74l-20 44l198 88h32z" />
    <glyph glyph-name="two" unicode="2" 
d="M472 0h-390v53l50 44l74.5 66.5l82 75t71.5 69.5q36 36 47.5 65.5t11.5 64.5q0 36 -14.5 61t-35.5 41t-45 23.5t-43 7.5q-14 0 -36 -4.5t-43 -16.5t-35.5 -32t-12.5 -51h-52v65q28 33 57.5 51.5t55 26.5t44 9.5t24.5 1.5q35 0 69 -13t61 -37t43.5 -58.5t16.5 -76.5
q0 -32 -8 -57t-26 -54q-12 -19 -40 -49.5t-67 -67.5l-86 -78l-97 -81v-2h276v99h47v-146z" />
    <glyph glyph-name="three" unicode="3" 
d="M103 79q38 -18 81 -32t85 -14q27 0 53.5 8.5t47.5 26t33.5 43t12.5 58.5q0 35 -12 58t-26.5 36.5t-28 19.5t-16.5 7q-26 9 -49.5 10t-47.5 -1v47q22 0 47.5 3t48.5 18q25 17 38.5 43t13.5 55q0 51 -34 80t-85 29q-39 0 -71 -16.5t-55 -30.5l-18 -11l-25 39q42 27 82 46.5
t88 19.5q32 0 62.5 -10.5t54.5 -30.5t38.5 -48.5t14.5 -65.5q0 -33 -9.5 -57t-22.5 -40.5t-26 -25.5l-19 -13q16 -6 34.5 -19t35 -32.5t27.5 -46.5t11 -61q0 -42 -15.5 -76.5t-43 -58.5t-64 -37t-78.5 -13q-23 0 -42.5 3t-40 9.5t-44.5 15.5l-55 21z" />
    <glyph glyph-name="four" unicode="4" 
d="M480 194v-48h-90v-99h90v-47h-273v47h135v99h-268v58l248 417h68v-427h90zM342 563h-2l-217 -369h219v369z" />
    <glyph glyph-name="five" unicode="5" 
d="M460 558h-289v-202q23 10 52 19t69 9q45 0 81.5 -15.5t62 -42t39.5 -62.5t14 -76q0 -30 -10 -65.5t-34.5 -65.5t-65 -50.5t-100.5 -20.5q-53 0 -95.5 12.5t-92.5 32.5l18 45l29.5 -12t39 -13t46.5 -10.5t51 -4.5q41 0 71 11.5t50 32t29.5 47.5t9.5 59q0 30 -10 57.5
t-29.5 48.5t-47.5 33t-64 12q-38 0 -70 -12.5t-63 -35.5l-25 14v303h334v-48z" />
    <glyph glyph-name="six" unicode="6" 
d="M486 571q-56 3 -110 -1t-99 -30t-76.5 -83t-42.5 -160l2 -2l17.5 20t29.5 25t42 21t56 9q39 0 71.5 -16t55.5 -43t35.5 -62t12.5 -73t-13 -72.5t-36.5 -60.5t-56 -41.5t-71.5 -15.5q-30 0 -65.5 13t-65.5 44.5t-50 84t-20 132.5q0 24 5 71t23.5 99.5t56.5 100t104 71.5
q11 4 26.5 8t38 7t54.5 4.5t76 -0.5v-50zM158 212q3 -52 19 -86t37.5 -54t45.5 -28t43 -8q24 0 46 9.5t39.5 27.5t27.5 44t10 59q0 28 -9 54.5t-24.5 46t-38 31.5t-49.5 12q-8 0 -26 -2.5t-39.5 -13t-43.5 -32t-38 -60.5z" />
    <glyph glyph-name="seven" unicode="7" 
d="M488 559l-194 -559h-58l202 559h-294v-92h-49v139h393v-47z" />
    <glyph glyph-name="eight" unicode="8" 
d="M208 309q-10 5 -25.5 17t-29.5 30.5t-24.5 43.5t-10.5 57q0 34 14 63.5t38.5 52t57.5 35.5t72 13t72 -13t57.5 -35.5t38.5 -52t14 -63.5q0 -40 -21.5 -81t-68.5 -67q27 -12 46 -30t31.5 -38.5t18 -42t5.5 -40.5q0 -28 -11.5 -58.5t-35.5 -55.5t-60.5 -41.5t-85.5 -16.5
q-50 0 -86 16.5t-60 41.5t-35.5 55.5t-11.5 58.5q0 47 28 89t73 62zM300 574q-35 0 -59.5 -11.5t-39.5 -29.5t-22 -38.5t-7 -38.5q0 -23 9 -45t25.5 -39.5t40.5 -28.5t53 -11q24 0 47 8.5t41 25t29 39t11 51.5q0 30 -11.5 52t-29.5 36.5t-41 22t-46 7.5zM300 285
q-35 0 -61 -11.5t-43.5 -30t-26 -41t-8.5 -44.5q0 -25 10.5 -47.5t29.5 -40t44 -27.5t55 -10t55 10t44 27.5t29.5 40t10.5 47.5q0 22 -9 45t-26.5 41t-43.5 29.5t-60 11.5z" />
    <glyph glyph-name="nine" unicode="9" 
d="M81 36q57 -3 110.5 1t98 30t76 83t43.5 160l-2 2q-6 -8 -17.5 -20.5t-29.5 -24.5t-42.5 -21t-55.5 -9q-39 0 -71.5 16t-55.5 43t-35.5 62t-12.5 73t13 72.5t36.5 60.5t56 41.5t71.5 15.5q30 0 65.5 -13t65.5 -44.5t50 -84.5t20 -132q0 -24 -5 -71t-23.5 -99.5t-56.5 -100
t-104 -71.5q-11 -4 -26.5 -8.5t-38 -7.5t-54.5 -4t-76 1v50zM409 395q-3 52 -19 86t-37.5 54t-45.5 28t-43 8q-24 0 -46 -9.5t-39.5 -27.5t-27.5 -44t-10 -59q0 -29 9 -55t24.5 -45.5t38 -31.5t49.5 -12q7 0 25 2t40 12.5t44 32.5t38 61z" />
    <glyph glyph-name="colon" unicode=":" 
d="M300 390q13 0 27 -4.5t25 -13.5t18 -21.5t7 -28.5t-7 -28.5t-18 -21.5t-25 -13.5t-27 -4.5t-26.5 4.5t-25 13t-18.5 21t-7 29.5q0 16 7 28.5t18 21.5t24.5 13.5t27.5 4.5zM300 119q13 0 27 -4.5t25 -13.5t18 -21.5t7 -28.5t-7 -28.5t-18 -21.5t-25 -13.5t-27 -4.5
t-26.5 4.5t-25 13t-18.5 21t-7 29.5q0 16 7 28.5t18 21.5t24.5 13.5t27.5 4.5z" />
    <glyph glyph-name="semicolon" unicode=";" 
d="M252 -108h-71l77 242h103zM300 390q13 0 27 -4.5t25 -13.5t18 -21.5t7 -28.5t-7 -28.5t-18 -21.5t-25 -13.5t-27 -4.5t-26.5 4.5t-25 13t-18.5 21t-7 29.5q0 16 7 28.5t18 21.5t24.5 13.5t27.5 4.5z" />
    <glyph glyph-name="less" unicode="&#x3c;" 
d="M526 532l20 -45l-381 -179l381 -175l-20 -44l-472 219z" />
    <glyph glyph-name="equal" unicode="=" 
d="M536 369h-472v50h472v-50zM536 188h-472v50h472v-50z" />
    <glyph glyph-name="greater" unicode="&#x3e;" 
d="M74 84l-20 45l381 179l-381 175l20 44l472 -219z" />
    <glyph glyph-name="question" unicode="?" 
d="M120 537l46.5 15.5t39 11t37 6.5t39.5 2q48 0 84 -14t60 -36.5t36 -52.5t12 -61q0 -44 -19 -73.5t-46.5 -48.5t-59 -30t-56.5 -18v-60h-49v97q2 1 8.5 2.5t11.5 2.5q25 6 53 14.5t51 23t38.5 37t15.5 56.5q0 15 -6 34.5t-21.5 37t-42.5 29t-69 11.5q-37 0 -62.5 -7
t-50.5 -17v-64h-50v102zM266 106q29 0 49 -17.5t20 -43.5q0 -27 -20.5 -44.5t-48.5 -17.5t-48.5 17.5t-20.5 44.5q0 26 20 43.5t49 17.5z" />
    <glyph glyph-name="at" unicode="@" 
d="M533 57q-1 0 -3 -1.5t-3 -1.5q-51 -29 -112 -48.5t-127 -19.5t-114 23t-79.5 61t-47 87.5t-15.5 102.5q0 60 18.5 112t53.5 90.5t87 61t118 22.5q55 0 102 -16.5t81.5 -48.5t54.5 -78.5t20 -105.5q0 -42 -10.5 -77.5t-30 -60.5t-46 -39t-58.5 -14q-11 0 -17.5 1t-13 4.5
t-15 9.5l-22.5 16q-8 6 -9.5 10.5t-1.5 9.5q-6 -7 -14.5 -16t-20.5 -17.5t-27 -14t-33 -5.5q-9 0 -22.5 4.5t-26 15.5t-21 31t-8.5 50q0 33 11.5 68.5t31.5 64.5t46.5 47.5t57.5 18.5q25 0 37.5 -14.5t19.5 -25.5l9 35h52l-43 -156q0 -4 -5 -21t-5 -29q0 -11 11.5 -25.5
t34.5 -14.5q19 0 35.5 12t29 32.5t19.5 47.5t7 58q0 49 -16.5 86t-45.5 61.5t-67.5 36.5t-82.5 12q-60 0 -102 -21t-69 -54.5t-39.5 -76.5t-12.5 -88q0 -40 11 -80t35.5 -72.5t64 -53t96.5 -20.5q63 0 113.5 18t85.5 37l15 8q1 0 3.5 1.5t3.5 1.5zM253 153q19 0 36 15.5
t30 38t20.5 49t7.5 48.5q0 23 -11 36.5t-25 13.5q-17 0 -33.5 -15.5t-29 -38.5t-20 -50t-7.5 -49q0 -7 1.5 -15t5.5 -15.5t10 -12.5t15 -5z" />
    <glyph glyph-name="A" unicode="A" 
d="M539 47h51v-47h-205v47h102l-57 139h-261l-56 -139h102v-47h-205v47h53l193 469h-143v47h215zM187 230h226l-113 274z" />
    <glyph glyph-name="B" unicode="B" 
d="M318 563q59 0 91 -11.5t53 -30.5t34 -45t13 -58q0 -27 -8.5 -48t-21 -36t-26 -25t-23.5 -15q54 -16 84 -51t30 -89q0 -42 -19.5 -75.5t-51.5 -50.5q-16 -9 -31 -14.5t-33.5 -8.5t-42 -4t-57.5 -1h-264v47h83v469h-83v47h273zM178 316h133q49 0 78 12t44 28.5t19.5 34
t4.5 29.5q0 36 -19 55.5t-43.5 28.5t-47.5 10.5t-31 1.5h-138v-200zM178 47h129q27 0 59 1.5t60 11.5t47 31.5t19 62.5q0 31 -14.5 53t-39.5 35.5t-60 20t-75 6.5h-125v-222z" />
    <glyph glyph-name="C" unicode="C" 
d="M594 99q-42 -40 -82 -63t-74.5 -35t-61.5 -15t-42 -3q-66 0 -116.5 24.5t-84.5 66.5t-51.5 97t-17.5 117q0 65 20.5 119t56.5 92.5t85 59.5t106 21q30 0 52.5 -5.5t38.5 -13t25 -14.5t12 -10q10 -8 12.5 -9.5t4.5 -1.5q3 0 5.5 5t4 12.5l3 15.5t2.5 15h37
q-2 -63 1.5 -107t8.5 -84l-47 -8q-3 17 -9.5 43.5t-23.5 52.5q-14 21 -44 40t-85 19q-50 0 -89 -19t-66.5 -52t-42 -77t-14.5 -93q0 -38 9.5 -82.5t34 -83t66 -64.5t106.5 -26q68 0 123 29.5t104 72.5z" />
    <glyph glyph-name="D" unicode="D" 
d="M284 563q33 0 61.5 -2.5t53 -10t47 -22.5t43.5 -40q22 -27 34.5 -56t18.5 -56t7.5 -49t1.5 -35q0 -45 -7 -81.5t-18.5 -65t-26.5 -50.5t-31 -37q-23 -22 -50 -33.5t-53 -17t-48.5 -6.5t-36.5 -1h-246v47h79v469h-79v47h250zM163 47h117q13 0 31 0.5t38.5 5t41.5 14
t39 27.5q27 27 47 76.5t20 118.5q-1 47 -9.5 80t-20.5 56t-25.5 37t-24.5 23q-26 20 -57.5 25.5t-74.5 5.5h-122v-469z" />
    <glyph glyph-name="E" unicode="E" 
d="M536 379h-46l-10 137h-288v-195h162v73h46v-192h-46v72h-162v-227h298l5 137h46v-184h-484v47h85v469h-85v47h475z" />
    <glyph glyph-name="F" unicode="F" 
d="M546 383h-45l-12 133h-286v-195h162v73h46v-192h-46v72h-162v-227h130v-47h-261v47h81v469h-81v47h469z" />
    <glyph glyph-name="G" unicode="G" 
d="M522 574q-1 -3 -1.5 -10t-0.5 -9q0 -4 -0.5 -13.5t-1.5 -21.5t-1.5 -24t-0.5 -22q0 -25 2 -49t4 -42l-43 -8q-3 17 -9.5 43.5t-24 51t-49 42.5t-84.5 18q-44 0 -82 -18.5t-66.5 -51.5t-45 -79t-16.5 -101q0 -51 13.5 -96t41.5 -78.5t70 -53t99 -19.5q25 0 59.5 6t93.5 26
v135h-148v47h247v-47h-48v-168q-113 -49 -205 -49q-77 0 -130 27.5t-85.5 71t-47 95.5t-14.5 102q0 58 17.5 112t51.5 96t83.5 67.5t113.5 25.5q36 0 66 -10t59 -33q8 -8 12 -10t8 -2q8 0 9.5 8t5.5 41h48z" />
    <glyph glyph-name="H" unicode="H" 
d="M239 516h-75v-202h272v202h-75v47h201v-47h-76v-469h76v-47h-201v47h75v220h-272v-220h75v-47h-200v47h75v469h-75v47h200v-47z" />
    <glyph glyph-name="I" unicode="I" 
d="M500 516h-175v-469h175v-47h-400v47h175v469h-175v47h400v-47z" />
    <glyph glyph-name="J" unicode="J" 
d="M579 516h-127v-312q0 -42 -4.5 -84t-24.5 -73q-12 -17 -29 -29.5t-35 -20t-36.5 -11t-34.5 -3.5q-60 0 -109.5 18.5t-91.5 37.5l-19 8l-9 216h49l4 -97q1 -38 9 -61t38 -41q29 -18 60.5 -24.5t57.5 -6.5q46 0 71.5 15.5t37.5 40t14 55t2 60.5v312h-197v47h374v-47z" />
    <glyph glyph-name="K" unicode="K" 
d="M279 516h-85v-245l252 245h-82v47h195v-47h-45l-217 -211q19 -10 41.5 -26t47.5 -45t52.5 -74t57.5 -113h92v-47h-128q-16 42 -35 79.5t-30 55.5q-29 50 -58.5 82t-73.5 54l-69 -66v-158h85v-47h-219v47h84v469h-84v47h219v-47z" />
    <glyph glyph-name="L" unicode="L" 
d="M332 516h-123v-469h283l14 202h47l-11 -249h-483v47h100v469h-100v47h273v-47z" />
    <glyph glyph-name="M" unicode="M" 
d="M289 224h18l124 339h161v-47h-71l17 -469h61v-47h-212v47h107l-15 469h-18l-140 -372h-52l-130 372h-18l-15 -469h107v-47h-212v47h61l17 469h-71v47h167z" />
    <glyph glyph-name="N" unicode="N" 
d="M462 42h18v474h-112v47h223v-47h-65v-529h-89l-268 529h-17v-469h113v-47h-237v47h78v469h-78v47h171z" />
    <glyph glyph-name="O" unicode="O" 
d="M43 281q0 62 18 116.5t51.5 95t81 64t106.5 23.5q60 0 107.5 -24t81 -65t51 -95t17.5 -115q0 -60 -18 -114.5t-51 -95t-80.5 -64.5t-107.5 -24q-59 0 -106.5 23.5t-81 64t-51.5 94.5t-18 116zM97 282q0 -45 13 -89.5t38.5 -80t63.5 -57.5t88 -22q49 0 87 21.5t64 56.5
t39 79.5t13 91.5t-13.5 92t-39.5 79.5t-63.5 55.5t-86.5 21q-52 0 -90 -22.5t-63 -58t-37.5 -80t-12.5 -87.5z" />
    <glyph glyph-name="P" unicode="P" 
d="M300 563q54 0 87.5 -5.5t60.5 -20.5q38 -21 62 -62t24 -87q0 -21 -5.5 -41.5t-15 -38.5t-23 -33t-29.5 -24q-18 -11 -35.5 -17t-39.5 -9t-52.5 -3.5t-75.5 -0.5h-56v-174h147v-47h-278v47h81v469h-81v47h229zM202 268h57q61 0 107 3t72 24q14 11 28 35t14 60
q0 41 -20 68.5t-40 37.5q-9 5 -19 8.5t-23.5 6t-32 4t-45.5 1.5h-98v-248z" />
    <glyph glyph-name="Q" unicode="Q" 
d="M547 -88q-17 -12 -41.5 -26t-59.5 -14q-23 0 -41 6.5t-44 17.5t-42.5 15.5t-35.5 4.5q-33 0 -58 -10.5t-60 -30.5l-23 37q18 12 33 25.5t26 25t17.5 20t8.5 10.5q-42 13 -76 40.5t-58 65t-37 84t-13 98.5q0 71 21 126.5t56.5 94t82 58.5t96.5 20q54 0 101 -21.5t82 -61
t55 -95.5t20 -125q0 -51 -13.5 -103.5t-45.5 -95.5t-84.5 -69.5t-130.5 -25.5q-4 -5 -6 -7l-10 -10q-1 -2 -2 -3t0 1h-2v-2q5 0 9.5 0.5t12.5 0.5q18 0 40 -4.5t48 -15.5l28.5 -11l17.5 -6.5t12 -3t11 -0.5q25 0 42.5 8.5t31.5 17.5zM97 282q0 -45 13 -89.5t38.5 -80
t63.5 -57.5t88 -22q49 0 87 21.5t64 56.5t39 79.5t13 91.5t-13.5 92t-39.5 79.5t-63.5 55.5t-86.5 21q-52 0 -90 -22.5t-63 -58t-37.5 -80t-12.5 -87.5z" />
    <glyph glyph-name="R" unicode="R" 
d="M302 563q48 0 79 -4.5t57 -22.5t43.5 -52.5t17.5 -71.5q0 -22 -7.5 -47t-25.5 -47t-47.5 -38.5t-72.5 -20.5q13 -14 31.5 -40l38 -56l39 -60.5l34.5 -55.5h88v-47h-125q-12 25 -26.5 52l-28 50.5l-25 42l-16.5 26.5l-26 39.5t-22.5 27t-25 15.5t-33.5 5h-72v-211h89v-47
h-221v47h82v469h-82v47h257zM177 305h93q20 0 50 1.5t57.5 11.5t47.5 32.5t20 64.5q0 25 -11 47.5t-31 36.5q-6 4 -12.5 7t-17.5 5t-28.5 3.5t-44.5 1.5h-123v-211z" />
    <glyph glyph-name="S" unicode="S" 
d="M507 574q-5 -23 -7 -38t-2 -34q0 -17 2 -46.5t7 -72.5l-45 -8q-2 16 -8 42t-23 52q-6 9 -15.5 19.5t-24.5 19.5t-36 15.5t-51 6.5q-39 0 -67.5 -11.5t-47 -29t-27.5 -38t-9 -39.5q0 -35 17 -55t41 -31t50 -15t44 -6q56 -6 88 -12.5t58 -23.5t44 -45t18 -71
q0 -44 -18.5 -76t-47.5 -53t-65.5 -31t-73.5 -10q-30 0 -52.5 5t-39 12.5t-27.5 15t-18 13.5q-1 1 -3.5 2.5t-4.5 1.5q-3 0 -5.5 -3t-4.5 -5q-2 -7 -3.5 -13.5t-5.5 -31.5h-45q5 24 7 46t2 33v10q0 8 -1 21.5t-2.5 29l-3 30t-2.5 25.5h45q4 -19 10.5 -43t23.5 -46
q14 -18 41.5 -35.5t81.5 -17.5q46 0 76.5 11t48.5 28t25.5 37.5t7.5 39.5q0 33 -14.5 52.5t-35.5 30t-45.5 14.5t-43.5 6q-29 3 -67.5 9t-72.5 22t-57.5 45.5t-23.5 79.5q0 34 15 65t41.5 55t63 38t79.5 14q27 0 48 -5t36 -11.5t25 -13.5t15 -11q12 -9 16 -11.5t7 -2.5
q7 0 8.5 6t6.5 30q1 5 1.5 8t0.5 5h45z" />
    <glyph glyph-name="T" unicode="T" 
d="M557 327l-48 -6l-14 195h-170v-469h121v-47h-292v47h121v469h-170l-14 -195l-48 6l17 236h480z" />
    <glyph glyph-name="U" unicode="U" 
d="M248 516h-102v-282q0 -31 2.5 -66t16.5 -64q14 -30 45 -50.5t89 -20.5q59 0 90.5 17.5t45.5 45.5q15 27 17.5 60.5t2.5 67.5v292h-102v47h224v-47h-72v-292q0 -38 -2.5 -64.5t-7.5 -46t-11.5 -33t-14.5 -24.5q-8 -12 -23 -24.5t-36.5 -23.5t-49 -18t-60.5 -7
q-18 0 -40.5 3t-45.5 12t-45 24t-39 39q-13 18 -20 41t-10 46.5t-3.5 46t-0.5 39.5v282h-72v47h224v-47z" />
    <glyph glyph-name="V" unicode="V" 
d="M220 516h-94l177 -460l180 460h-102v47h213v-47h-63l-198 -516h-62l-196 516h-69v47h214v-47z" />
    <glyph glyph-name="W" unicode="W" 
d="M199 516h-101l56 -420h2l129 364h34l126 -364h2l58 420h-102v47h195v-47h-46l-75 -516h-50l-127 364h-2l-129 -364h-50l-70 516h-47v47h197v-47z" />
    <glyph glyph-name="X" unicode="X" 
d="M246 516h-82l137 -183l140 183h-76v47h183v-47h-51l-168 -220l186 -249h52v-47h-202v47h90l-154 212l-161 -212h106v-47h-213v47h51l189 249l-168 220h-53v47h194v-47z" />
    <glyph glyph-name="Y" unicode="Y" 
d="M228 516h-76l151 -248l149 248h-78v47h194v-47h-63l-179 -298v-171h118v-47h-287v47h119v171l-181 298h-63v47h196v-47z" />
    <glyph glyph-name="Z" unicode="Z" 
d="M493 522l-349 -475h325v162h47v-209h-432v47l345 469h-291v-146h-47v193h402v-41z" />
    <glyph glyph-name="bracketleft" unicode="[" 
d="M485 604h-126v-648h126v-50h-176v748h176v-50z" />
    <glyph glyph-name="backslash" unicode="\" 
d="M468 -139l-375 825l43 19l375 -824z" />
    <glyph glyph-name="bracketright" unicode="]" 
d="M115 -44h126v648h-126v50h176v-748h-176v50z" />
    <glyph glyph-name="asciicircum" unicode="^" 
d="M73 154l190 409h74l190 -409h-64l-163 349l-163 -349h-64z" />
    <glyph glyph-name="underscore" unicode="_" 
d="M648 -125h-696v50h696v-50z" />
    <glyph glyph-name="grave" unicode="`" 
d="M374 503h-52l-132 115h107z" />
    <glyph glyph-name="a" unicode="a" 
d="M550 47v-47h-139v72q-15 -14 -35.5 -29.5t-44.5 -28t-52 -20.5t-59 -8q-38 0 -67.5 12.5t-50.5 32.5t-32 45t-11 51q0 20 10 46t34 49.5t65 39.5t103 16q3 0 17 -0.5t33.5 -2t43 -4t46.5 -6.5v31q0 12 -2 30t-13 35t-36 29t-70 12q-27 0 -69 -8t-102 -34l-19 45
q32 14 81.5 29.5t109.5 15.5q64 0 98.5 -18.5t50.5 -44t18.5 -51t2.5 -40.5v-249h89zM411 219q-17 3 -52.5 7t-77.5 4q-62 0 -96 -14.5t-50 -33t-19 -35.5t-3 -21q0 -19 8.5 -35.5t23.5 -29t34 -20t40 -7.5q12 0 31.5 3t44.5 13.5t54.5 31.5t61.5 57v80z" />
    <glyph glyph-name="b" unicode="b" 
d="M147 346h2q31 42 73.5 65t97.5 23q46 0 87 -17.5t71.5 -47.5t48 -71t17.5 -87q0 -42 -16 -81.5t-45 -70.5t-69.5 -50t-89.5 -19q-41 0 -70 10t-50 23.5t-34.5 28.5l-22.5 25v-77h-130v47h80v531l-92 -5v47l142 9v-283zM148 213q0 -35 13.5 -66.5t36.5 -55t55 -37.5
t70 -14q37 0 68 14t53 38t34 55t12 65t-12.5 65.5t-35 55t-53.5 37.5t-67 14q-37 0 -68.5 -14t-55 -37.5t-37 -54.5t-13.5 -65z" />
    <glyph glyph-name="c" unicode="c" 
d="M523 438l-5.5 -40.5t-3.5 -51.5q0 -27 3 -66l-46 -7l-4 17q-3 10 -9 28t-21.5 35t-44.5 29.5t-77 12.5t-84 -15.5t-59.5 -41t-35 -57.5t-11.5 -64q0 -31 10.5 -63t33 -58.5t57.5 -43t85 -16.5q54 0 105.5 23.5t106.5 61.5l26 -38q-16 -12 -40.5 -28.5t-55.5 -32t-68 -26
t-79 -10.5q-53 0 -96 18t-74 49.5t-48 73t-17 89.5q0 40 14.5 81t44 74t74.5 53.5t106 20.5q29 0 65.5 -8.5t81.5 -44.5q3 -3 4 -3q4 0 6.5 8.5t3.5 13.5q2 13 6 32z" />
    <glyph glyph-name="d" unicode="d" 
d="M496 47h85v-47h-135v74h-2q-23 -32 -49.5 -49t-51 -25t-43 -9t-25.5 -1q-47 0 -87.5 18t-70.5 48t-47 70.5t-17 85.5q0 51 19 92t50.5 70t70.5 44.5t80 15.5q48 0 95.5 -22t75.5 -64h2v225l-161 -10l-3 45l214 19v-580zM444 210q0 30 -11 60.5t-32 56t-52.5 41.5
t-73.5 16q-33 0 -63.5 -12t-53.5 -34.5t-37 -54t-14 -70.5q0 -38 13.5 -70t36.5 -55t53.5 -35.5t64.5 -12.5t64.5 13t54 35.5t37 53.5t13.5 68z" />
    <glyph glyph-name="e" unicode="e" 
d="M559 57q-20 -11 -47 -23.5t-58.5 -23t-66.5 -17.5t-70 -7q-61 0 -106.5 19t-76 50.5t-45.5 73t-15 85.5q0 46 16.5 88t47 74t74.5 50.5t99 18.5q57 0 99.5 -18t71 -47t42.5 -64.5t14 -69.5q0 -12 -1 -26t-1 -19h-408q1 -20 9 -48.5t29 -54.5t57.5 -45t94.5 -19
q31 0 63.5 7.5t61.5 18t53 22l40 19.5zM484 248q0 24 -10.5 50.5t-31.5 48.5t-53.5 36t-77.5 14q-50 0 -83.5 -17t-54.5 -40.5t-31.5 -49t-13.5 -42.5h356z" />
    <glyph glyph-name="f" unicode="f" 
d="M201 474q0 31 4.5 58.5t20 48t47 32.5t85.5 12q42 0 79 -5t69 -11l-21 -50q-33 8 -70.5 12t-69.5 4q-35 0 -54 -8.5t-28 -23t-10.5 -33.5t-1.5 -39v-53h213v-47h-213v-324h213v-47h-367v47h104v324h-104v47h104v56z" />
    <glyph glyph-name="g" unicode="g" 
d="M553 383h-81v-353q0 -46 -10.5 -81t-37 -58.5t-70.5 -35.5t-111 -12h-63v47q63 0 108.5 2.5t75 16t44 42t14.5 79.5v58h-2q-5 -8 -18 -21t-33 -26t-47.5 -22t-60.5 -9q-46 0 -85 17t-67.5 46.5t-45 68t-16.5 80.5q0 46 18 85t47.5 67t68 44t80.5 16q4 0 21.5 -1t41 -8.5
t49.5 -23t47 -44.5h2v73h131v-47zM422 220q0 37 -13 67.5t-35 52t-51 33t-60 11.5q-32 0 -61 -12t-51.5 -33t-36 -50.5t-13.5 -65.5q0 -35 13 -64.5t35 -51.5t51.5 -34.5t62.5 -12.5q35 0 64.5 13.5t50.5 35.5t32.5 51t11.5 60z" />
    <glyph glyph-name="h" unicode="h" 
d="M172 374q16 12 35 24.5t40 23t45 17t51 6.5q34 0 61.5 -12t47 -34t29.5 -52.5t10 -66.5v-233h84v-47h-219v47h85v229q0 54 -25.5 86.5t-70.5 32.5q-24 0 -47 -7t-45.5 -18.5t-42.5 -25.5t-38 -29v-268h79v-47h-213v47h84v531l-93 -8l-4 47l147 12v-255z" />
    <glyph glyph-name="i" unicode="i" 
d="M327 47h173v-47h-399v47h176v336h-147v47h197v-383zM327 656v-119h-72v119h72z" />
    <glyph glyph-name="j" unicode="j" 
d="M390 40q0 -20 -3 -52.5t-20.5 -63t-55.5 -53t-108 -22.5q-40 0 -73 5.5t-62 11.5l11 48q20 -5 54.5 -10t72.5 -5q50 0 77.5 15t40 37.5t14.5 48.5t2 47v336h-255v47h305v-390zM370 656v-119h-72v119h72z" />
    <glyph glyph-name="k" unicode="k" 
d="M185 239l187 142v2h-56v47h209v-47h-78l-168 -129l60 -56.5l56.5 -57t48 -52l35.5 -41.5h84v-47h-208v47h64l-31 35.5t-37 38l-47.5 46l-62.5 59.5l-56 -43v-183h-133v47h83v530l-95 -8l-4 47l149 13v-390z" />
    <glyph glyph-name="l" unicode="l" 
d="M325 47h174v-47h-398v47h174v516l-163 -12l-5 46l218 14v-564z" />
    <glyph glyph-name="m" unicode="m" 
d="M114 395l13 11q1 1 8 6.5t18 12t26.5 11.5t33.5 5q32 0 59 -16.5t41 -46.5q22 26 50.5 44.5t63.5 18.5q26 0 51 -11.5t38 -31.5q7 -11 12 -21.5t8 -24t4.5 -33t1.5 -47.5v-225h57v-47h-107v272q0 21 -1 42t-7 38.5t-19 28t-37 10.5q-21 0 -45.5 -13.5t-52.5 -52.5v-278
h62v-47h-112v276q0 16 -1 36.5t-7 37.5t-19.5 29t-38.5 12q-18 0 -33 -6t-27 -14.5t-21 -18t-15 -17.5v-288h68v-47h-186v47h68v336h-68v47h114v-35z" />
    <glyph glyph-name="n" unicode="n" 
d="M166 374q16 12 35 24.5t40.5 23t45.5 17t51 6.5q34 0 61.5 -12t47 -34t30 -52.5t10.5 -66.5v-233h80v-47h-216v47h86v229q0 55 -26.5 87t-71.5 32q-12 0 -28 -2.5t-37 -11t-47.5 -24t-60.5 -42.5v-268h84v-47h-216v47h82v336h-82v47h132v-56z" />
    <glyph glyph-name="o" unicode="o" 
d="M52 218q0 45 16 87t47 74t77.5 51.5t107.5 19.5q63 0 109.5 -20t77 -53t46 -74.5t15.5 -84.5t-15.5 -84.5t-46 -74.5t-77 -53t-109.5 -20q-61 0 -107.5 19.5t-77.5 52t-47 74t-16 86.5zM106 218q0 -35 12.5 -68t37 -58.5t61 -40.5t83.5 -15q48 0 84.5 15.5t60.5 41
t36.5 58t12.5 67.5q0 34 -12.5 67t-36.5 58.5t-60.5 41t-84.5 15.5q-47 0 -83 -15t-61 -40.5t-37.5 -58t-12.5 -68.5z" />
    <glyph glyph-name="p" unicode="p" 
d="M151 359h2q6 9 18.5 23t33.5 27.5t50.5 23.5t69.5 10q51 0 92 -19t70.5 -50.5t45 -71.5t15.5 -83q0 -50 -19.5 -91.5t-50.5 -71.5t-71 -46.5t-80 -16.5q-6 0 -24 1.5t-43 9.5t-53 25.5t-54 49.5h-2v-189h149v-47h-281v47h82v493h-82v47h132v-71zM147 222q0 -44 17 -77.5
t43 -56t57.5 -34t60.5 -11.5q34 0 64.5 13.5t53.5 37t37 56t14 70.5q0 31 -10.5 62t-31.5 55.5t-52.5 40t-73.5 15.5q-39 0 -72 -14t-56.5 -37t-37 -54.5t-13.5 -65.5z" />
    <glyph glyph-name="q" unicode="q" 
d="M499 383v-493h82v-47h-281v47h149v189h-2q-26 -32 -54 -49.5t-53 -25.5t-43 -9.5t-24 -1.5q-41 0 -80.5 16.5t-70.5 46.5t-50.5 71.5t-19.5 91.5q0 43 15.5 83t45 71.5t70.5 50.5t92 19q40 0 69.5 -10t50.5 -23.5t33.5 -27.5t18.5 -23h2v71h132v-47h-82zM453 222
q0 34 -13.5 65.5t-37 54.5t-56.5 37t-72 14q-42 0 -73.5 -15.5t-52.5 -40t-31.5 -55.5t-10.5 -62q0 -38 13.5 -70.5t37 -56t54 -37t64.5 -13.5q29 0 60.5 11.5t57.5 34t43 56t17 77.5z" />
    <glyph glyph-name="r" unicode="r" 
d="M249 330l38 37t46.5 37t56 28.5t66.5 11.5q23 0 40.5 -5t31 -13t23 -17.5t17.5 -19.5l-53 -39q-1 1 -2.5 3t-1.5 4l-8.5 12.5t-11.5 12t-17.5 9t-25.5 3.5q-33 0 -63.5 -14.5t-56 -35t-46 -42.5l-33.5 -36v-219h190v-47h-364v47h124v336h-116v47h166v-100z" />
    <glyph glyph-name="s" unicode="s" 
d="M482 443q-3 -16 -6 -36.5t-3 -49.5q0 -21 1.5 -35.5t3.5 -27.5l-44 -5q-3 15 -8.5 33t-21 33.5t-45.5 26.5t-82 11q-60 0 -92 -21.5t-32 -52.5q0 -27 15.5 -42.5t43.5 -24t65.5 -11.5t81.5 -5q9 0 32.5 -3t48.5 -14t44.5 -33.5t19.5 -61.5q0 -36 -17.5 -62.5t-45.5 -43.5
t-61.5 -25t-66.5 -8q-27 0 -50 4.5t-42 11.5t-32.5 14l-22.5 12l-2 1q-1 1 -3 1q-7 0 -11 -12.5l-9 -29.5h-44l4 25.5t2 37.5q0 32 -2 57t-4 42l44 5q2 -13 8 -33t22.5 -39t47.5 -33t83 -14q15 0 40 3t49 12t41.5 26t17.5 46q0 22 -10.5 35t-29.5 19.5t-45.5 8.5t-57.5 3
q-20 1 -55 4.5t-69 16t-59 38t-25 70.5q0 27 13 50t36 40t56 26.5t72 9.5q45 0 73 -10.5t42 -18.5q2 -2 9 -5.5t13 -3.5q8 0 12 9.5l6 14.5q2 10 3 13t3 8z" />
    <glyph glyph-name="t" unicode="t" 
d="M223 416h242v-47h-242v-189q0 -28 1.5 -54t11 -46t31 -32t60.5 -12q12 0 27.5 1.5t37.5 6.5t53 15.5t75 28.5l18 -45q-48 -22 -102.5 -39.5t-103.5 -17.5q-48 0 -78 14.5t-46 30.5q-26 26 -30.5 62.5t-4.5 86.5v189h-68v47h68v147h50v-147z" />
    <glyph glyph-name="u" unicode="u" 
d="M164 165q0 -10 1.5 -31.5t11 -43t29.5 -38t58 -16.5q42 0 80.5 21t80.5 66v260h-86v47h136v-383h81v-47h-131v55l-26 -21t-34.5 -22.5t-43.5 -18t-53 -7.5q-47 0 -77 17t-47 43t-23.5 57.5t-6.5 61.5v218h-82v47h132v-265z" />
    <glyph glyph-name="v" unicode="v" 
d="M234 383h-81l150 -325l152 325h-79v47h203v-47h-74l-181 -383h-47l-182 383h-74v47h213v-47z" />
    <glyph glyph-name="w" unicode="w" 
d="M181 383h-83l88 -303h2l98 272h35l99 -276h2l90 307h-84v47h170v-47h-39l-112 -383h-52l-95 258l-93 -258h-49l-113 383h-43v47h179v-47z" />
    <glyph glyph-name="x" unicode="x" 
d="M234 383h-61l125 -125l125 125h-58v47h184v-47h-61l-157 -158l180 -178h63v-47h-203v47h71l-144 146l-145 -146h70v-47h-197v47h62l176 178l-159 158h-64v47h193v-47z" />
    <glyph glyph-name="y" unicode="y" 
d="M211 383h-69l158 -304l174 304h-68v47h183v-47h-58l-280 -489h89v-47h-300v47h154l77 133l-186 356h-61v47h187v-47z" />
    <glyph glyph-name="z" unicode="z" 
d="M496 387l-324 -340h277v92h47v-139h-392v47l321 336h-264v-89h-47v136h382v-43z" />
    <glyph glyph-name="braceleft" unicode="{" 
d="M461 604q-18 0 -38 -1.5t-36.5 -9t-27.5 -22.5t-11 -42q0 -16 2 -32.5t10 -48.5l8 -35q1 -5 3 -18.5t2 -25.5q0 -18 -5 -32t-13 -24.5t-18 -19l-19 -15.5l18.5 -15t18 -18.5t13.5 -24.5t5 -32q0 -12 -2 -25.5t-3 -18.5l-8 -35q-8 -32 -10 -48.5t-2 -33.5q0 -27 11.5 -42
t29 -22t37 -8.5t35.5 -1.5v-48h-40q-16 0 -42 8q-40 13 -61.5 44.5t-21.5 71.5q0 7 1 20t5 30q0 6 3.5 20.5t5.5 20.5q3 16 6 34.5t3 35.5q0 20 -10.5 32t-24.5 18.5t-28.5 9t-21.5 3.5v51q38 4 61.5 19t23.5 46q0 9 -1 19t-2.5 20t-3 17.5t-2.5 11.5q-4 21 -7 34t-4.5 22
t-2.5 16t-1 16q0 50 22 76t50.5 37.5t55.5 12.5t37 1v-48z" />
    <glyph glyph-name="bar" unicode="|" 
d="M274 -185v858h53v-858h-53z" />
    <glyph glyph-name="braceright" unicode="}" 
d="M139 -47q18 0 38 1.5t36.5 9t27.5 22.5t11 42q0 16 -2 32.5t-10 48.5l-8 35q-1 5 -3 18.5t-2 25.5q0 18 5 32t13 24.5t18 19l19 15.5q-18 13 -36.5 33.5t-18.5 56.5q0 12 2 25.5t3 18.5l8 35q8 32 10 48.5t2 33.5q0 27 -12 42t-29 22t-36.5 8.5t-35.5 1.5v48h39
q17 0 43 -8q40 -13 61.5 -44.5t21.5 -71.5q0 -7 -1 -20t-5 -30q0 -6 -3.5 -20.5t-5.5 -20.5q-3 -16 -6 -34.5t-3 -35.5q0 -20 10.5 -32t24.5 -18.5t28 -9t22 -3.5v-51q-38 -4 -61.5 -19t-23.5 -46q0 -9 1 -19t2.5 -20t3 -17.5t2.5 -11.5q4 -21 7 -34t4.5 -22t2.5 -16t1 -16
q0 -50 -22 -76.5t-50.5 -37.5t-55.5 -12t-37 -1v48z" />
    <glyph glyph-name="asciitilde" unicode="~" 
d="M515 349q-6 -11 -16.5 -27t-26 -31t-35.5 -26t-45 -11q-4 0 -9.5 0.5t-15.5 3t-26.5 8t-42.5 16.5l-38 16t-23 9t-15.5 4t-13.5 1q-30 0 -49 -23.5t-40 -59.5l-33 39l21.5 35t26 32.5t32.5 24t42 9.5q22 0 44 -7.5t61 -24.5l33 -13l21 -8t13.5 -4t10.5 -1q6 0 15 2
t20.5 9t24 20t25.5 36q0 2 2 5t3 4z" />
    <glyph glyph-name="exclamdown" unicode="&#xa1;" 
d="M323 240l18 -378h-83l19 378h46zM300 327q-30 0 -49.5 18t-19.5 44t20 43.5t49 17.5t49 -18t20 -44t-20 -43.5t-49 -17.5z" />
    <glyph glyph-name="cent" unicode="&#xa2;" 
d="M332 136q22 4 38.5 8t33 10t35.5 16t46 27l24 -41q-1 0 -3 -1.5t-3 -1.5q-24 -16 -42.5 -26.5t-37 -17.5t-40 -12t-51.5 -10v-144h-49v144q-28 6 -48.5 12.5t-36 15.5t-28 21.5t-24.5 29.5q-15 23 -25 51t-10 64q0 35 11.5 67.5t33 58.5t53.5 44t74 25v136h49v-136
q24 -2 42.5 -8t31 -12.5t20 -13t9.5 -8.5q2 -1 3 -2.5t3 -1.5q3 0 4.5 3.5t3 7.5t1.5 8q1 3 1 4q1 5 1.5 8t0.5 4l47 -5q-3 -18 -6 -39.5t-3 -41.5q0 -10 0.5 -23.5t2.5 -36.5l-47 -6q0 9 -1 21t-5 24.5t-11.5 25t-20.5 21.5q-20 14 -42 19.5t-35 5.5v-294zM283 427
q-45 -10 -69.5 -32.5t-35.5 -46.5t-13 -43.5t-2 -22.5q0 -22 8 -48t26 -49q20 -26 42 -34.5t44 -13.5v290z" />
    <glyph glyph-name="sterling" unicode="&#xa3;" 
d="M187 339q-15 40 -20.5 63t-5.5 46q0 35 14.5 65t39.5 52t57 34.5t68 12.5q38 0 65.5 -8t48.5 -16q2 -1 5.5 -2t5.5 -1t3.5 1.5t4.5 8.5h45q-8 -28 -12.5 -52t-6.5 -60l-45 -5q1 12 1.5 20.5t0.5 12.5q0 6 -2.5 14.5t-10.5 13.5q-11 6 -40 15t-61 9t-57 -10t-41.5 -26.5
t-25 -37t-8.5 -40.5q0 -11 1.5 -20.5t4.5 -22t8 -28.5t13 -39h243v-47h-229q5 -20 7 -36t2 -37q0 -65 -17.5 -106t-35.5 -64l2 -2q14 7 31 13t40 6q18 0 34 -3.5t43 -14.5q22 -8 34 -11.5t23 -3.5q24 0 42.5 10.5t42.5 30.5l29 -36q-7 -7 -17.5 -16t-24 -17t-31 -13.5
t-38.5 -5.5q-14 0 -30 3t-40 12q-28 10 -42 14t-30 4q-20 0 -45.5 -7.5t-67.5 -31.5l-33 43q29 30 46 59.5t25.5 55t10.5 45.5t2 32q0 39 -12 77h-105v47h91z" />
    <glyph glyph-name="currency" unicode="&#xa4;" 
d="M490 61l-81 80q-31 -25 -62 -31t-47 -6q-6 0 -17.5 1t-26 4.5t-31.5 11t-34 20.5l-81 -80l-35 34l82 80q-26 38 -30.5 65t-4.5 35q0 48 12 74t23 41l-82 81l35 33l81 -80q31 24 60 30.5t49 6.5q22 0 39.5 -4t31 -10t23 -12.5l15.5 -10.5l81 80l35 -33l-82 -81
q25 -35 30.5 -62t5.5 -38q0 -48 -13 -74.5t-23 -40.5l82 -80zM432 283q0 25 -9 48.5t-26.5 42t-42 29.5t-54.5 11q-31 0 -55 -11.5t-41 -30t-26 -42t-9 -47.5q0 -26 9 -49.5t25.5 -42t41 -29.5t54.5 -11t55 11t42 29.5t26.5 42t9.5 49.5z" />
    <glyph glyph-name="yen" unicode="&#xa5;" 
d="M446 47v-47h-286v47h119v92h-147v47h147v58h-147v47h147v13l-186 242h-61v47h197v-47h-76l150 -195l147 195h-76v47h194v-47h-60l-181 -242v-13h144v-47h-144v-58h144v-47h-144v-92h119z" />
    <glyph glyph-name="brokenbar" unicode="&#xa6;" 
d="M274 300v373h53v-373h-53zM274 -185v373h53v-373h-53z" />
    <glyph glyph-name="section" unicode="&#xa7;" 
d="M422 430v86h-115q-8 0 -20.5 -1t-24.5 -6.5t-20.5 -17t-8.5 -33.5q0 -20 11 -34.5t25 -25.5l138 -106l33.5 -27t26.5 -26.5t17 -29t6 -34.5q0 -12 -4 -27t-13.5 -29t-25.5 -25t-40 -16q5 -8 12 -22t7 -38q0 -51 -37 -80t-100 -29h-158v144h47v-97h117q13 0 27.5 3.5
t25.5 10.5t18.5 18.5t7.5 28.5q0 14 -7 27.5t-34 33.5l-134 103q-32 25 -53.5 48.5t-21.5 58.5q0 17 6.5 34t17.5 31t25.5 24t31.5 13q-17 19 -20.5 40t-3.5 27q0 32 15 53.5t31 32.5q23 14 50 17t44 3h148v-133h-47zM248 352q-27 -3 -41.5 -12.5t-21.5 -20t-8 -19.5t-1 -11
q0 -13 9 -27t41 -38l136 -105q24 1 38.5 7.5t23 15t11.5 18t3 15.5q0 9 -2.5 17t-9.5 16.5t-19 19t-31 25.5z" />
    <glyph glyph-name="dieresis" unicode="&#xa8;" 
d="M271 621v-108h-72v108h72zM401 621v-108h-72v108h72z" />
    <glyph glyph-name="copyright" unicode="&#xa9;" 
d="M402 342q-2 22 -3.5 37t-6.5 23q-8 13 -29 21.5t-47 8.5q-31 0 -54.5 -11t-39.5 -30t-24 -44t-8 -53q0 -29 8.5 -55.5t24.5 -46.5t38.5 -31.5t51.5 -11.5q24 0 41 7.5t28.5 18.5t19 23t12.5 22l24 -10q-18 -48 -56.5 -70t-82.5 -22q-37 0 -66.5 14t-50.5 37.5t-32 54.5
t-11 66q0 33 11 64t32.5 54.5t54 38t75.5 14.5q25 0 58.5 -6.5t59.5 -15.5v-97h-28zM300 580q60 0 113 -22.5t92 -62t62 -92.5t23 -113t-23 -113t-62 -92.5t-92 -62.5t-113 -23t-112.5 23t-92 62.5t-62.5 92.5t-23 113q0 61 23 114t62.5 92t92.5 61.5t112 22.5zM300 542
q-52 0 -97.5 -19.5t-80 -54t-54.5 -80.5t-20 -99q0 -52 20 -98t54.5 -80t80 -54t97.5 -20t97.5 20t80 54t54.5 80t20 98t-20 98.5t-54 80.5t-80 54t-98 20z" />
    <glyph glyph-name="ordfeminine" unicode="&#xaa;" 
d="M191 555q35 14 57 19.5t45 5.5q91 0 91 -80v-118h43v-36h-81v28q-26 -20 -45.5 -27.5t-42.5 -7.5q-35 0 -60 21.5t-25 53.5q0 36 30 58.5t81 22.5q15 0 27.5 -1t34.5 -4v7q0 25 -12.5 36t-41.5 11q-19 0 -39 -5.5t-48 -17.5zM346 454q-21 3 -33 4t-24 1q-35 0 -56.5 -12
t-21.5 -33q0 -16 14 -27.5t33 -11.5q46 0 88 48v31zM422 266h-244v36h244v-36z" />
    <glyph glyph-name="guillemotleft" unicode="&#xab;" horiz-adv-x="508" 
d="M451 122q2 -3 4 -7t2 -12q0 -14 -12 -23t-30 -9q-14 0 -22.5 2t-14 6.5t-10 11.5t-11.5 17l-135 201l135 201q12 17 22.5 27t35.5 10q18 0 30 -9t12 -23q0 -8 -2 -12t-4 -7l-121 -187zM268 122q2 -3 4 -7t2 -12q0 -14 -12 -23t-30 -9q-14 0 -22.5 2t-14 6.5t-10 11.5
t-11.5 17l-135 201l135 201q6 10 11.5 17t11.5 11.5t14 6.5t21 2q18 0 30 -9t12 -23q0 -8 -2 -12t-4 -7l-121 -187z" />
    <glyph glyph-name="logicalnot" unicode="&#xac;" 
d="M519 169h-50v219h-379v50h429v-269z" />
    <glyph glyph-name="FL00ADh" unicode="&#xad;" 
d="M194 317h212v-55h-212v55z" />
    <glyph glyph-name="registered" unicode="&#xae;" 
d="M298 466q8 0 27 -1.5t39 -9.5t35 -25.5t15 -48.5q0 -5 -1.5 -16t-8.5 -24.5t-22.5 -26t-43.5 -19.5q16 -11 27 -32t27 -57q8 -18 13.5 -27.5t11.5 -14t14 -5t21 -0.5v-24h-40q-29 0 -42.5 20.5t-26.5 55.5q-10 27 -17 41.5t-15 22t-18.5 9t-28.5 1.5h-18v-100
q0 -13 1 -16.5t6 -6.5q2 -1 14 -2t20 -2v-23h-127v23q1 1 7 1t7 1q18 2 22.5 5t4.5 20v233q0 12 -0.5 15t-5.5 5q-1 1 -7 1q-2 0 -9.5 0.5t-18.5 1.5v25h138zM269 309q45 0 72.5 15t27.5 54q0 23 -9 36t-22 19t-27 7.5t-24 1.5q-28 0 -34.5 -3t-6.5 -18v-112h23zM300 580
q60 0 112.5 -22.5t92 -61.5t62.5 -92t23 -114q0 -60 -23 -112.5t-62 -92t-92 -62.5t-113 -23t-113 23t-92 62.5t-62 92t-23 112.5q0 61 23 114t62.5 92t92.5 61.5t112 22.5zM300 542q-52 0 -97.5 -19.5t-80 -54t-54.5 -80.5t-20 -98t19.5 -97.5t54 -80t80 -54.5t98.5 -20
q52 0 98 20t80.5 54.5t54 80t19.5 97.5q0 53 -20 99t-54.5 80t-80.5 53.5t-97 19.5z" />
    <glyph glyph-name="macron" unicode="&#xaf;" 
d="M470 542h-340v50h340v-50z" />
    <glyph glyph-name="degree" unicode="&#xb0;" 
d="M147 467q0 32 12 60t32.5 49t48.5 33t60 12q33 0 61 -12.5t48.5 -33.5t32 -49t11.5 -59t-12 -58.5t-32.5 -48.5t-48.5 -33t-60 -12t-60 12t-48.5 32.5t-32.5 48t-12 59.5zM202 468q0 -42 28 -70t70 -28q21 0 39 7.5t31 21t20.5 31t7.5 38.5q0 42 -28 70t-70 28
q-21 0 -38.5 -7.5t-31 -20.5t-21 -31t-7.5 -39z" />
    <glyph glyph-name="plusminus" unicode="&#xb1;" 
d="M325 380h209v-50h-209v-196h-50v196h-209v50h209v196h50v-196zM534 31h-468v50h468v-50z" />
    <glyph glyph-name="twosuperior" unicode="&#xb2;" 
d="M406 248h-239v39l9 8l25 22.5l31 28l31 28l25 22.5q25 23 40.5 38.5t23 27.5t10 22.5t2.5 24.5q0 30 -22 51t-53 21q-28 0 -48 -15t-21 -35l1 -12h-42v47q43 55 111 55q24 0 45.5 -9t37.5 -24t25 -35.5t9 -44.5q0 -19 -5 -34.5t-17 -33t-33.5 -38.5l-54.5 -51l-69 -63
h139v57h39v-97z" />
    <glyph glyph-name="threesuperior" unicode="&#xb3;" 
d="M173 579q37 24 59.5 33t47.5 9q45 0 75 -27t30 -69q0 -46 -38 -78q56 -35 56 -94q0 -51 -34.5 -82.5t-88.5 -31.5q-22 0 -41.5 5t-53.5 19l-19 8l16 37q32 -15 55.5 -22t44.5 -7q35 0 57 21t22 53q0 33 -21 50.5t-60 17.5h-24v40q27 1 39 3.5t23 10.5q25 19 25 49
q0 25 -18 41t-45 16q-17 0 -32.5 -5t-38.5 -21l-15 -10z" />
    <glyph glyph-name="acute" unicode="&#xb4;" 
d="M215 503l89 115h107l-143 -115h-53z" />
    <glyph glyph-name="mu" unicode="&#xb5;" 
d="M168 195q0 -24 1 -41t3.5 -29.5t7 -21.5t11.5 -18q19 -25 47 -37t56 -12t59 12t48 34q9 12 14.5 23.5t8.5 24.5t4 29t1 36v193h-82v42h132v-389h83v-41h-132v53h-2l-8 -12q-19 -26 -54 -40.5t-70 -14.5q-18 0 -35 4.5t-31.5 10.5t-24.5 12.5t-14 11.5l-12 12t-12 10v-196
h-49v537h-82v42h132v-235z" />
    <glyph glyph-name="paragraph" unicode="&#xb6;" 
d="M496 -47v-30h-116v30h19v580h-82v-580h19v-30h-126v30h62v308q-29 -2 -59 4t-55 23t-41 47.5t-16 78.5q0 55 17 85.5t43.5 44.5t59 16.5t64.5 2.5h207v-30h-48v-580h52zM272 533q-17 0 -33 -2t-28.5 -10.5t-20.5 -26.5t-8 -51v-60q0 -6 2 -22t11 -32.5t27 -28.5t50 -9
v242z" />
    <glyph glyph-name="periodcentered" unicode="&#xb7;" 
d="M300 371q15 0 28.5 -5t24.5 -14t17.5 -21.5t6.5 -27.5q0 -16 -7 -28.5t-18 -21.5t-25 -13.5t-27 -4.5t-26.5 4.5t-25 13t-18.5 21t-7 29.5q0 16 7 28.5t18 21.5t24.5 13.5t27.5 4.5z" />
    <glyph glyph-name="cedilla" unicode="&#xb8;" 
d="M322 -25q25 -4 39 -13t21 -19t8.5 -18.5t1.5 -11.5q0 -5 -2 -14.5t-9.5 -19t-24 -17t-44.5 -7.5q-37 0 -66.5 6l-43.5 9l7 44q16 -4 43 -9t59 -5h9q8 0 16.5 3t8.5 10q0 14 -21.5 18.5t-50.5 6.5l7 60h45z" />
    <glyph glyph-name="onesuperior" unicode="&#xb9;" 
d="M326 621v-333h100v-40h-243v40h102v283l-91 -40l-16 36l122 54h26z" />
    <glyph glyph-name="ordmasculine" unicode="&#xba;" 
d="M172 459q0 54 35.5 87.5t92.5 33.5t92.5 -33.5t35.5 -87.5t-35.5 -87t-92.5 -33t-92.5 33t-35.5 87zM212 460q0 -38 24.5 -61.5t63.5 -23.5t63.5 23.5t24.5 61.5q0 37 -24.5 60.5t-63.5 23.5t-63.5 -23.5t-24.5 -60.5zM422 266h-244v36h244v-36z" />
    <glyph glyph-name="guillemotright" unicode="&#xbb;" horiz-adv-x="518" 
d="M53 127q-2 -3 -4 -7t-2 -12q0 -14 12 -23t30 -9q14 0 22.5 2t14 6.5t10 11.5t11.5 17l135 201l-135 201q-12 17 -22.5 27t-35.5 10q-18 0 -30 -9t-12 -23q0 -8 2 -12t4 -7l121 -187zM236 127q-2 -3 -4 -7t-2 -12q0 -14 12 -23t30 -9q14 0 22.5 2t14 6.5t10 11.5t11.5 17
l135 201l-135 201q-6 10 -11.5 17t-11.5 11.5t-14 6.5t-21 2q-18 0 -30 -9t-12 -23q0 -8 2 -12t4 -7l121 -187z" />
    <glyph glyph-name="onequarter" unicode="&#xbc;" 
d="M588 46v-37h-53v-50h53v-36h-158v36h67v50h-159v40l149 247h48v-250h53zM495 241l-115 -195h117v195h-2zM153 622v-335h76v-38h-191v38h77v288l-73 -30l-16 34l103 43h24zM88 -90l-28 22l510 701l28 -20z" />
    <glyph glyph-name="onehalf" unicode="&#xbd;" 
d="M146 622v-335h76v-38h-191v38h77v288l-73 -30l-16 34l104 43h23zM75 -90l-28 22l509 701l29 -20zM590 -77h-229v39l3.5 3.5t4.5 3.5t14.5 12.5l34.5 31.5l43 41l30.5 29l21 20.5t16.5 17.5q14 17 18.5 31t4.5 31q0 32 -21.5 53t-54.5 21q-26 0 -46.5 -14.5t-20.5 -34.5
q0 -2 0.5 -4.5t0.5 -7.5h-38v45q43 54 106 54q24 0 45 -8.5t36 -23.5t23.5 -35.5t8.5 -44.5q0 -35 -20.5 -68t-74.5 -81l-62 -55l-19 -18h141v57h34v-95z" />
    <glyph glyph-name="threequarters" unicode="&#xbe;" 
d="M502 241l-115 -195h117v195h-2zM595 46v-37h-53v-50h53v-36h-158v36h67v50h-159v40l149 247h48v-250h53zM29 581q36 23 59 32t48 9q22 0 41.5 -7.5t34 -20t22.5 -30t8 -37.5q0 -25 -9.5 -43.5t-30.5 -35.5q58 -33 58 -94q0 -51 -35 -82t-89 -31q-11 0 -20.5 1t-20.5 4
t-24 7.5t-31 11.5l-18 7l15 35q34 -16 56.5 -22t44.5 -6q36 0 59 20.5t23 54.5t-21 53.5t-63 17.5l-22 -1v37q26 1 38.5 3.5t23.5 10.5q26 18 26 51q0 26 -18.5 42t-47.5 16q-17 0 -33 -6t-40 -20l-15 -9zM95 -90l-28 22l510 701l28 -20z" />
    <glyph glyph-name="questiondown" unicode="&#xbf;" 
d="M474 -105l-46.5 -15.5t-39 -11t-37 -6.5t-39.5 -2q-48 0 -84 14t-60 36.5t-36 52t-12 61.5q0 44 19 73.5t46.5 48.5t59 30t56.5 18v60h49v-97q-2 -1 -8.5 -2.5t-11.5 -2.5q-25 -6 -53 -14.5t-51 -23t-38.5 -37t-15.5 -56.5q0 -15 6 -34.5t21.5 -37t42.5 -29t69 -11.5
q37 0 62.5 7t50.5 17v64h50v-102zM329 327q-29 0 -49 17.5t-20 43.5q0 27 20.5 44.5t48.5 17.5t48.5 -17.5t20.5 -44.5q0 -26 -20 -43.5t-49 -17.5z" />
    <glyph glyph-name="Agrave" unicode="&#xc0;" 
d="M539 47h51v-47h-205v47h102l-57 139h-261l-56 -139h102v-47h-205v47h53l193 469h-143v47h215zM187 230h226l-113 274zM374 636h-52l-132 115h107z" />
    <glyph glyph-name="Aacute" unicode="&#xc1;" 
d="M539 47h51v-47h-205v47h102l-57 139h-261l-56 -139h102v-47h-205v47h53l193 469h-143v47h215zM187 230h226l-113 274zM215 636l89 115h107l-143 -115h-53z" />
    <glyph glyph-name="Acircumflex" unicode="&#xc2;" 
d="M539 47h51v-47h-205v47h102l-57 139h-261l-56 -139h102v-47h-205v47h53l193 469h-143v47h215zM187 230h226l-113 274zM428 660l-32 -25l-101 66l-91 -66l-33 24l88 95h77z" />
    <glyph glyph-name="Atilde" unicode="&#xc3;" 
d="M539 47h51v-47h-205v47h102l-57 139h-261l-56 -139h102v-47h-205v47h53l193 469h-143v47h215zM187 230h226l-113 274zM460 739q-2 -2 -2 -7q-12 -42 -39 -63.5t-59 -21.5q-17 0 -32.5 7t-38.5 25q-24 18 -34 23.5t-21 5.5q-20 0 -32 -16t-20 -36q0 -1 -1 -4l-1 -2l-40 14
q14 38 35.5 63.5t58.5 25.5q24 0 41 -10t33 -24q19 -14 31.5 -20.5t23.5 -6.5q13 0 22.5 6.5t16 16t11 19.5t7.5 18z" />
    <glyph glyph-name="Adieresis" unicode="&#xc4;" 
d="M539 47h51v-47h-205v47h102l-57 139h-261l-56 -139h102v-47h-205v47h53l193 469h-143v47h215zM187 230h226l-113 274zM271 754v-108h-72v108h72zM401 754v-108h-72v108h72z" />
    <glyph glyph-name="Aring" unicode="&#xc5;" 
d="M539 47h51v-47h-205v47h102l-57 139h-261l-56 -139h102v-47h-205v47h53l193 469h-143v47h215zM187 230h226l-113 274zM300 775q32 0 54 -22t22 -54t-22 -54t-54 -22t-54 22t-22 54t22 54t54 22zM301 737q-16 0 -27.5 -10t-11.5 -28q0 -16 11.5 -27t27.5 -11t26.5 11
t10.5 27t-10.5 27t-26.5 11z" />
    <glyph glyph-name="AE" unicode="&#xc6;" 
d="M549 383h-45l-9 133h-143v-194h65v73h46v-193h-46v73h-65v-228h152l6 139h46v-186h-254v184h-123l-57 -137h89v-47h-192v47h53l189 469h-103v47h391v-180zM300 504l-104 -273h106v273h-2z" />
    <glyph glyph-name="Ccedilla" unicode="&#xc7;" 
d="M354 -25q10 0 22 -4t22.5 -12t18 -19.5t7.5 -26.5q0 -4 -2 -13.5t-9.5 -19.5t-24 -17.5t-44.5 -7.5q-37 0 -66.5 6l-43.5 9l7 44q20 -5 45 -9.5t59 -4.5h7q8 0 16.5 3t8.5 10q0 14 -21.5 18.5t-50.5 6.5l6 45q-71 7 -118.5 39t-76 76.5t-40.5 95t-12 94.5q0 65 20.5 119
t56.5 92.5t85 59.5t106 21q16 0 47 -4.5t63 -24.5q2 -2 7 -6l10.5 -8.5t10.5 -7.5t7 -3q3 0 5.5 5t4 12.5l3 15.5t2.5 15h37q-2 -63 1.5 -107t8.5 -84l-47 -8q-3 17 -9.5 43.5t-23 51t-47 42.5t-82.5 18q-38 0 -75.5 -14.5t-68 -44t-49.5 -75t-19 -107.5q0 -48 12 -94
t38.5 -82t67.5 -58t98 -22q42 0 78 11.5t64.5 28t49.5 34l35 28.5l33 -36q-51 -48 -111 -79t-129 -37v-8z" />
    <glyph glyph-name="Egrave" unicode="&#xc8;" 
d="M536 379h-46l-10 137h-288v-195h162v73h46v-192h-46v72h-162v-227h298l5 137h46v-184h-484v47h85v469h-85v47h475zM374 636h-52l-132 115h107z" />
    <glyph glyph-name="Eacute" unicode="&#xc9;" 
d="M536 379h-46l-10 137h-288v-195h162v73h46v-192h-46v72h-162v-227h298l5 137h46v-184h-484v47h85v469h-85v47h475zM215 636l89 115h107l-143 -115h-53z" />
    <glyph glyph-name="Ecircumflex" unicode="&#xca;" 
d="M536 379h-46l-10 137h-288v-195h162v73h46v-192h-46v72h-162v-227h298l5 137h46v-184h-484v47h85v469h-85v47h475zM428 660l-32 -25l-101 66l-91 -66l-33 24l88 95h77z" />
    <glyph glyph-name="Edieresis" unicode="&#xcb;" 
d="M536 379h-46l-10 137h-288v-195h162v73h46v-192h-46v72h-162v-227h298l5 137h46v-184h-484v47h85v469h-85v47h475zM271 754v-108h-72v108h72zM401 754v-108h-72v108h72z" />
    <glyph glyph-name="Igrave" unicode="&#xcc;" 
d="M500 516h-175v-469h175v-47h-400v47h175v469h-175v47h400v-47zM374 636h-52l-132 115h107z" />
    <glyph glyph-name="Iacute" unicode="&#xcd;" 
d="M500 516h-175v-469h175v-47h-400v47h175v469h-175v47h400v-47zM215 636l89 115h107l-143 -115h-53z" />
    <glyph glyph-name="Icircumflex" unicode="&#xce;" 
d="M500 516h-175v-469h175v-47h-400v47h175v469h-175v47h400v-47zM428 660l-32 -25l-101 66l-91 -66l-33 24l88 95h77z" />
    <glyph glyph-name="Idieresis" unicode="&#xcf;" 
d="M500 516h-175v-469h175v-47h-400v47h175v469h-175v47h400v-47zM271 754v-108h-72v108h72zM401 754v-108h-72v108h72z" />
    <glyph glyph-name="Eth" unicode="&#xd0;" 
d="M34 321h79v195h-79v47h250q33 0 61.5 -2.5t53 -10t47 -22.5t43.5 -40q22 -27 34.5 -56t18.5 -56t7.5 -49t1.5 -35q0 -45 -7 -81.5t-18.5 -65t-26.5 -50.5t-31 -37q-23 -22 -50 -33.5t-53 -17t-48.5 -6.5t-36.5 -1h-246v47h79v227h-79v47zM163 47h117q13 0 31 0.5t38.5 5
t41.5 14t39 27.5q27 27 47 76.5t20 118.5q-1 47 -9.5 80t-20.5 56t-25.5 37t-24.5 23q-26 20 -57.5 25.5t-74.5 5.5h-122v-195h166v-47h-166v-227z" />
    <glyph glyph-name="Ntilde" unicode="&#xd1;" 
d="M462 42h18v474h-112v47h223v-47h-65v-529h-89l-268 529h-17v-469h113v-47h-237v47h78v469h-78v47h171zM460 739q-2 -2 -2 -7q-12 -42 -39 -63.5t-59 -21.5q-17 0 -32.5 7t-38.5 25q-24 18 -34 23.5t-21 5.5q-20 0 -32 -16t-20 -36q0 -1 -1 -4l-1 -2l-40 14
q14 38 35.5 63.5t58.5 25.5q24 0 41 -10t33 -24q19 -14 31.5 -20.5t23.5 -6.5q13 0 22.5 6.5t16 16t11 19.5t7.5 18z" />
    <glyph glyph-name="Ograve" unicode="&#xd2;" 
d="M43 281q0 62 18 116.5t51.5 95t81 64t106.5 23.5q60 0 107.5 -24t81 -65t51 -95t17.5 -115q0 -60 -18 -114.5t-51 -95t-80.5 -64.5t-107.5 -24q-59 0 -106.5 23.5t-81 64t-51.5 94.5t-18 116zM97 282q0 -45 13 -89.5t38.5 -80t63.5 -57.5t88 -22q49 0 87 21.5t64 56.5
t39 79.5t13 91.5t-13.5 92t-39.5 79.5t-63.5 55.5t-86.5 21q-52 0 -90 -22.5t-63 -58t-37.5 -80t-12.5 -87.5zM374 636h-52l-132 115h107z" />
    <glyph glyph-name="Oacute" unicode="&#xd3;" 
d="M43 281q0 62 18 116.5t51.5 95t81 64t106.5 23.5q60 0 107.5 -24t81 -65t51 -95t17.5 -115q0 -60 -18 -114.5t-51 -95t-80.5 -64.5t-107.5 -24q-59 0 -106.5 23.5t-81 64t-51.5 94.5t-18 116zM97 282q0 -45 13 -89.5t38.5 -80t63.5 -57.5t88 -22q49 0 87 21.5t64 56.5
t39 79.5t13 91.5t-13.5 92t-39.5 79.5t-63.5 55.5t-86.5 21q-52 0 -90 -22.5t-63 -58t-37.5 -80t-12.5 -87.5zM215 636l89 115h107l-143 -115h-53z" />
    <glyph glyph-name="Ocircumflex" unicode="&#xd4;" 
d="M43 281q0 62 18 116.5t51.5 95t81 64t106.5 23.5q60 0 107.5 -24t81 -65t51 -95t17.5 -115q0 -60 -18 -114.5t-51 -95t-80.5 -64.5t-107.5 -24q-59 0 -106.5 23.5t-81 64t-51.5 94.5t-18 116zM97 282q0 -45 13 -89.5t38.5 -80t63.5 -57.5t88 -22q49 0 87 21.5t64 56.5
t39 79.5t13 91.5t-13.5 92t-39.5 79.5t-63.5 55.5t-86.5 21q-52 0 -90 -22.5t-63 -58t-37.5 -80t-12.5 -87.5zM428 660l-32 -25l-101 66l-91 -66l-33 24l88 95h77z" />
    <glyph glyph-name="Otilde" unicode="&#xd5;" 
d="M43 281q0 62 18 116.5t51.5 95t81 64t106.5 23.5q60 0 107.5 -24t81 -65t51 -95t17.5 -115q0 -60 -18 -114.5t-51 -95t-80.5 -64.5t-107.5 -24q-59 0 -106.5 23.5t-81 64t-51.5 94.5t-18 116zM97 282q0 -45 13 -89.5t38.5 -80t63.5 -57.5t88 -22q49 0 87 21.5t64 56.5
t39 79.5t13 91.5t-13.5 92t-39.5 79.5t-63.5 55.5t-86.5 21q-52 0 -90 -22.5t-63 -58t-37.5 -80t-12.5 -87.5zM460 739q-2 -2 -2 -7q-12 -42 -39 -63.5t-59 -21.5q-17 0 -32.5 7t-38.5 25q-24 18 -34 23.5t-21 5.5q-20 0 -32 -16t-20 -36q0 -1 -1 -4l-1 -2l-40 14
q14 38 35.5 63.5t58.5 25.5q24 0 41 -10t33 -24q19 -14 31.5 -20.5t23.5 -6.5q13 0 22.5 6.5t16 16t11 19.5t7.5 18z" />
    <glyph glyph-name="Odieresis" unicode="&#xd6;" 
d="M43 281q0 62 18 116.5t51.5 95t81 64t106.5 23.5q60 0 107.5 -24t81 -65t51 -95t17.5 -115q0 -60 -18 -114.5t-51 -95t-80.5 -64.5t-107.5 -24q-59 0 -106.5 23.5t-81 64t-51.5 94.5t-18 116zM97 282q0 -45 13 -89.5t38.5 -80t63.5 -57.5t88 -22q49 0 87 21.5t64 56.5
t39 79.5t13 91.5t-13.5 92t-39.5 79.5t-63.5 55.5t-86.5 21q-52 0 -90 -22.5t-63 -58t-37.5 -80t-12.5 -87.5zM271 754v-108h-72v108h72zM401 754v-108h-72v108h72z" />
    <glyph glyph-name="multiply" unicode="&#xd7;" 
d="M154 488l146 -146l146 146l36 -35l-147 -147l147 -146l-36 -36l-146 147l-146 -147l-36 36l147 146l-147 147z" />
    <glyph glyph-name="Oslash" unicode="&#xd8;" 
d="M64 4l50 65q-13 17 -26 37.5t-23 46t-16 57t-6 70.5q0 62 18 116.5t51.5 95.5t81 64.5t107.5 23.5q34 0 59.5 -6.5t44.5 -16t33 -20.5l25 -19l39 49l35 -26l-44 -56q24 -29 37 -62t19 -63t7 -52t1 -29q0 -59 -17.5 -113t-50.5 -94.5t-80 -64.5t-105 -24q-30 0 -70.5 9
t-85.5 45l-50 -60zM177 78q7 -6 17.5 -13.5t25.5 -14.5t34.5 -12t45.5 -5q46 0 83.5 19.5t64 53t41 78.5t14.5 96q0 87 -44 161zM431 477q-15 17 -32.5 27.5t-35 16t-34.5 7.5t-30 2q-48 0 -85.5 -21t-63.5 -55.5t-39.5 -79t-13.5 -91.5q0 -14 2 -35.5t8 -45.5t16 -48
t25 -42z" />
    <glyph glyph-name="Ugrave" unicode="&#xd9;" 
d="M248 516h-102v-282q0 -31 2.5 -66t16.5 -64q14 -30 45 -50.5t89 -20.5q59 0 90.5 17.5t45.5 45.5q15 27 17.5 60.5t2.5 67.5v292h-102v47h224v-47h-72v-292q0 -38 -2.5 -64.5t-7.5 -46t-11.5 -33t-14.5 -24.5q-8 -12 -23 -24.5t-36.5 -23.5t-49 -18t-60.5 -7
q-18 0 -40.5 3t-45.5 12t-45 24t-39 39q-13 18 -20 41t-10 46.5t-3.5 46t-0.5 39.5v282h-72v47h224v-47zM374 636h-52l-132 115h107z" />
    <glyph glyph-name="Uacute" unicode="&#xda;" 
d="M248 516h-102v-282q0 -31 2.5 -66t16.5 -64q14 -30 45 -50.5t89 -20.5q59 0 90.5 17.5t45.5 45.5q15 27 17.5 60.5t2.5 67.5v292h-102v47h224v-47h-72v-292q0 -38 -2.5 -64.5t-7.5 -46t-11.5 -33t-14.5 -24.5q-8 -12 -23 -24.5t-36.5 -23.5t-49 -18t-60.5 -7
q-18 0 -40.5 3t-45.5 12t-45 24t-39 39q-13 18 -20 41t-10 46.5t-3.5 46t-0.5 39.5v282h-72v47h224v-47zM215 636l89 115h107l-143 -115h-53z" />
    <glyph glyph-name="Ucircumflex" unicode="&#xdb;" 
d="M248 516h-102v-282q0 -31 2.5 -66t16.5 -64q14 -30 45 -50.5t89 -20.5q59 0 90.5 17.5t45.5 45.5q15 27 17.5 60.5t2.5 67.5v292h-102v47h224v-47h-72v-292q0 -38 -2.5 -64.5t-7.5 -46t-11.5 -33t-14.5 -24.5q-8 -12 -23 -24.5t-36.5 -23.5t-49 -18t-60.5 -7
q-18 0 -40.5 3t-45.5 12t-45 24t-39 39q-13 18 -20 41t-10 46.5t-3.5 46t-0.5 39.5v282h-72v47h224v-47zM428 660l-32 -25l-101 66l-91 -66l-33 24l88 95h77z" />
    <glyph glyph-name="Udieresis" unicode="&#xdc;" 
d="M248 516h-102v-282q0 -31 2.5 -66t16.5 -64q14 -30 45 -50.5t89 -20.5q59 0 90.5 17.5t45.5 45.5q15 27 17.5 60.5t2.5 67.5v292h-102v47h224v-47h-72v-292q0 -38 -2.5 -64.5t-7.5 -46t-11.5 -33t-14.5 -24.5q-8 -12 -23 -24.5t-36.5 -23.5t-49 -18t-60.5 -7
q-18 0 -40.5 3t-45.5 12t-45 24t-39 39q-13 18 -20 41t-10 46.5t-3.5 46t-0.5 39.5v282h-72v47h224v-47zM271 754v-108h-72v108h72zM401 754v-108h-72v108h72z" />
    <glyph glyph-name="Yacute" unicode="&#xdd;" 
d="M228 516h-76l151 -248l149 248h-78v47h194v-47h-63l-179 -298v-171h118v-47h-287v47h119v171l-181 298h-63v47h196v-47zM215 636l89 115h107l-143 -115h-53z" />
    <glyph glyph-name="Thorn" unicode="&#xde;" 
d="M315 0h-244v47h81v469h-81v47h244v-47h-113v-51h55q46 0 77.5 -1t54 -4.5t39 -9.5t32.5 -16q32 -20 53 -56.5t21 -82.5q0 -45 -21 -84.5t-53 -57.5q-18 -11 -35 -17t-39.5 -9t-53 -3.5t-75.5 -0.5h-55v-76h113v-47zM202 170h57q61 0 107 3t72 24q14 11 28 35t14 60
q0 41 -20 68.5t-40 37.5q-9 5 -19 8.5t-23.5 6t-32 4t-45.5 1.5h-98v-248z" />
    <glyph glyph-name="germandbls" unicode="&#xdf;" 
d="M141 451q0 40 13.5 72.5t36 55t51.5 34.5t61 12q33 0 59.5 -11.5t44.5 -31t28 -45.5t10 -55q0 -45 -24 -79t-59 -48q14 -5 39.5 -15.5t50 -32t43 -57t18.5 -89.5q0 -33 -10.5 -63.5t-31.5 -53.5t-51.5 -37t-70.5 -14q-49 0 -76 12.5t-39 20.5v52q18 -11 46 -23t68 -12
q18 0 37.5 6.5t36 21t27 38t10.5 57.5q0 153 -202 160v46q10 1 32.5 4t45.5 14t40.5 32t17.5 59q0 40 -23 67t-69 27q-19 0 -38.5 -6.5t-35.5 -21.5t-26 -40.5t-10 -63.5v-443h-126v47h76v404z" />
    <glyph glyph-name="agrave" unicode="&#xe0;" 
d="M550 47v-47h-139v72q-15 -14 -35.5 -29.5t-44.5 -28t-52 -20.5t-59 -8q-38 0 -67.5 12.5t-50.5 32.5t-32 45t-11 51q0 20 10 46t34 49.5t65 39.5t103 16q3 0 17 -0.5t33.5 -2t43 -4t46.5 -6.5v31q0 12 -2 30t-13 35t-36 29t-70 12q-27 0 -69 -8t-102 -34l-19 45
q32 14 81.5 29.5t109.5 15.5q64 0 98.5 -18.5t50.5 -44t18.5 -51t2.5 -40.5v-249h89zM411 219q-17 3 -52.5 7t-77.5 4q-62 0 -96 -14.5t-50 -33t-19 -35.5t-3 -21q0 -19 8.5 -35.5t23.5 -29t34 -20t40 -7.5q12 0 31.5 3t44.5 13.5t54.5 31.5t61.5 57v80zM374 503h-52
l-132 115h107z" />
    <glyph glyph-name="aacute" unicode="&#xe1;" 
d="M550 47v-47h-139v72q-15 -14 -35.5 -29.5t-44.5 -28t-52 -20.5t-59 -8q-38 0 -67.5 12.5t-50.5 32.5t-32 45t-11 51q0 20 10 46t34 49.5t65 39.5t103 16q3 0 17 -0.5t33.5 -2t43 -4t46.5 -6.5v31q0 12 -2 30t-13 35t-36 29t-70 12q-27 0 -69 -8t-102 -34l-19 45
q32 14 81.5 29.5t109.5 15.5q64 0 98.5 -18.5t50.5 -44t18.5 -51t2.5 -40.5v-249h89zM411 219q-17 3 -52.5 7t-77.5 4q-62 0 -96 -14.5t-50 -33t-19 -35.5t-3 -21q0 -19 8.5 -35.5t23.5 -29t34 -20t40 -7.5q12 0 31.5 3t44.5 13.5t54.5 31.5t61.5 57v80zM215 503l89 115h107
l-143 -115h-53z" />
    <glyph glyph-name="acircumflex" unicode="&#xe2;" 
d="M550 47v-47h-139v72q-15 -14 -35.5 -29.5t-44.5 -28t-52 -20.5t-59 -8q-38 0 -67.5 12.5t-50.5 32.5t-32 45t-11 51q0 20 10 46t34 49.5t65 39.5t103 16q3 0 17 -0.5t33.5 -2t43 -4t46.5 -6.5v31q0 12 -2 30t-13 35t-36 29t-70 12q-27 0 -69 -8t-102 -34l-19 45
q32 14 81.5 29.5t109.5 15.5q64 0 98.5 -18.5t50.5 -44t18.5 -51t2.5 -40.5v-249h89zM411 219q-17 3 -52.5 7t-77.5 4q-62 0 -96 -14.5t-50 -33t-19 -35.5t-3 -21q0 -19 8.5 -35.5t23.5 -29t34 -20t40 -7.5q12 0 31.5 3t44.5 13.5t54.5 31.5t61.5 57v80zM409 527l-32 -25
l-101 66l-91 -66l-33 24l88 95h77z" />
    <glyph glyph-name="atilde" unicode="&#xe3;" 
d="M550 47v-47h-139v72q-15 -14 -35.5 -29.5t-44.5 -28t-52 -20.5t-59 -8q-38 0 -67.5 12.5t-50.5 32.5t-32 45t-11 51q0 20 10 46t34 49.5t65 39.5t103 16q3 0 17 -0.5t33.5 -2t43 -4t46.5 -6.5v31q0 12 -2 30t-13 35t-36 29t-70 12q-27 0 -69 -8t-102 -34l-19 45
q32 14 81.5 29.5t109.5 15.5q64 0 98.5 -18.5t50.5 -44t18.5 -51t2.5 -40.5v-249h89zM411 219q-17 3 -52.5 7t-77.5 4q-62 0 -96 -14.5t-50 -33t-19 -35.5t-3 -21q0 -19 8.5 -35.5t23.5 -29t34 -20t40 -7.5q12 0 31.5 3t44.5 13.5t54.5 31.5t61.5 57v80zM460 606
q-2 -2 -2 -7q-12 -42 -39 -63.5t-59 -21.5q-17 0 -32.5 7t-38.5 25q-24 18 -34 23.5t-21 5.5q-20 0 -32 -16t-20 -36q0 -1 -1 -3l-1 -3l-40 14q14 38 35.5 63.5t58.5 25.5q24 0 41 -10t33 -24q19 -14 31.5 -20.5t23.5 -6.5q13 0 22.5 6.5t16 16t11 19.5t7.5 18z" />
    <glyph glyph-name="adieresis" unicode="&#xe4;" 
d="M550 47v-47h-139v72q-15 -14 -35.5 -29.5t-44.5 -28t-52 -20.5t-59 -8q-38 0 -67.5 12.5t-50.5 32.5t-32 45t-11 51q0 20 10 46t34 49.5t65 39.5t103 16q3 0 17 -0.5t33.5 -2t43 -4t46.5 -6.5v31q0 12 -2 30t-13 35t-36 29t-70 12q-27 0 -69 -8t-102 -34l-19 45
q32 14 81.5 29.5t109.5 15.5q64 0 98.5 -18.5t50.5 -44t18.5 -51t2.5 -40.5v-249h89zM411 219q-17 3 -52.5 7t-77.5 4q-62 0 -96 -14.5t-50 -33t-19 -35.5t-3 -21q0 -19 8.5 -35.5t23.5 -29t34 -20t40 -7.5q12 0 31.5 3t44.5 13.5t54.5 31.5t61.5 57v80zM252 621v-108h-72
v108h72zM382 621v-108h-72v108h72z" />
    <glyph glyph-name="aring" unicode="&#xe5;" 
d="M550 47v-47h-139v72q-15 -14 -35.5 -29.5t-44.5 -28t-52 -20.5t-59 -8q-38 0 -67.5 12.5t-50.5 32.5t-32 45t-11 51q0 20 10 46t34 49.5t65 39.5t103 16q3 0 17 -0.5t33.5 -2t43 -4t46.5 -6.5v31q0 12 -2 30t-13 35t-36 29t-70 12q-27 0 -69 -8t-102 -34l-19 45
q32 14 81.5 29.5t109.5 15.5q64 0 98.5 -18.5t50.5 -44t18.5 -51t2.5 -40.5v-249h89zM411 219q-17 3 -52.5 7t-77.5 4q-62 0 -96 -14.5t-50 -33t-19 -35.5t-3 -21q0 -19 8.5 -35.5t23.5 -29t34 -20t40 -7.5q12 0 31.5 3t44.5 13.5t54.5 31.5t61.5 57v80zM300 642
q32 0 54 -22t22 -54t-22 -54t-54 -22t-54 22t-22 54t22 54t54 22zM301 604q-16 0 -27.5 -10t-11.5 -28q0 -16 11.5 -27t27.5 -11t26.5 11t10.5 27t-10.5 27t-26.5 11z" />
    <glyph glyph-name="ae" unicode="&#xe6;" 
d="M320 203q2 -43 7 -72t25 -55q23 -30 47 -36t38 -6q30 0 59 7t54 15l18 -43q-54 -19 -87 -23t-46 -4q-30 0 -52 9t-37.5 21t-25 24.5l-14.5 19.5q-23 -23 -44.5 -38t-40.5 -23t-35 -11t-29 -3q-30 0 -53 11t-39 29.5t-24 42t-8 48.5t10 52t29.5 48.5t49.5 35.5t71 14
q17 0 33 -2.5t44 -6.5v35q0 52 -14 81t-59 29q-26 0 -52 -6t-68 -21l-14 44q42 16 73 23.5t62 7.5q27 0 45.5 -6t30.5 -16.5t19.5 -24t12.5 -28.5l18.5 23.5t25 24.5t33 19t42.5 8q4 0 16.5 -1.5t29 -8.5t34 -22t31.5 -42.5t22 -69.5t5 -103h-243zM270 209q-26 5 -42.5 7
t-33.5 2q-34 0 -55.5 -11t-34 -26.5t-17 -33.5t-4.5 -31q0 -15 4.5 -29.5t13.5 -26.5t22.5 -19.5t32.5 -7.5q18 0 35.5 6t32 15t26.5 18.5t20 16.5v120zM513 250q-5 152 -89 152q-26 0 -44 -13.5t-29 -26.5q-22 -27 -26 -53.5t-5 -58.5h193z" />
    <glyph glyph-name="ccedilla" unicode="&#xe7;" 
d="M330 -26q21 -5 31 -21.5t10 -33.5q0 -8 -3 -19t-9.5 -21t-18 -16.5t-29.5 -6.5q-20 0 -33 7t-25 15l22 37q16 -11 20.5 -13t11.5 -2q12 0 15.5 6.5t3.5 11.5q0 13 -8.5 15t-12.5 2q-8 0 -13 -0.5t-10 -1.5l4 54q-39 1 -77.5 17t-69 45.5t-49.5 71.5t-19 95
q0 40 14.5 80.5t43.5 73.5t74 54t107 21q39 0 69 -9.5t61 -31.5q1 -1 6.5 -5l9.5 -7t5 -3q3 0 5 5.5t3 7.5l8 41l46 -5l-5.5 -40.5t-3.5 -51.5q0 -27 3 -66l-46 -7q-8 34 -15 53.5t-26 35.5q-14 11 -30 17.5t-31.5 10t-29.5 4.5t-24 1q-48 0 -83.5 -15.5t-59.5 -41
t-35.5 -57t-11.5 -64.5q0 -32 11 -64t33.5 -58t57.5 -42.5t84 -16.5q54 0 105.5 23.5t106.5 61.5l26 -38q-55 -42 -105.5 -66t-113.5 -30v-13z" />
    <glyph glyph-name="egrave" unicode="&#xe8;" 
d="M559 57q-20 -11 -47 -23.5t-58.5 -23t-66.5 -17.5t-70 -7q-61 0 -106.5 19t-76 50.5t-45.5 73t-15 85.5q0 46 16.5 88t47 74t74.5 50.5t99 18.5q57 0 99.5 -18t71 -47t42.5 -64.5t14 -69.5q0 -12 -1 -26t-1 -19h-408q1 -20 9 -48.5t29 -54.5t57.5 -45t94.5 -19
q31 0 63.5 7.5t61.5 18t53 22l40 19.5zM484 248q0 24 -10.5 50.5t-31.5 48.5t-53.5 36t-77.5 14q-50 0 -83.5 -17t-54.5 -40.5t-31.5 -49t-13.5 -42.5h356zM391 503h-52l-132 115h107z" />
    <glyph glyph-name="eacute" unicode="&#xe9;" 
d="M559 57q-20 -11 -47 -23.5t-58.5 -23t-66.5 -17.5t-70 -7q-61 0 -106.5 19t-76 50.5t-45.5 73t-15 85.5q0 46 16.5 88t47 74t74.5 50.5t99 18.5q57 0 99.5 -18t71 -47t42.5 -64.5t14 -69.5q0 -12 -1 -26t-1 -19h-408q1 -20 9 -48.5t29 -54.5t57.5 -45t94.5 -19
q31 0 63.5 7.5t61.5 18t53 22l40 19.5zM484 248q0 24 -10.5 50.5t-31.5 48.5t-53.5 36t-77.5 14q-50 0 -83.5 -17t-54.5 -40.5t-31.5 -49t-13.5 -42.5h356zM215 503l89 115h107l-143 -115h-53z" />
    <glyph glyph-name="ecircumflex" unicode="&#xea;" 
d="M559 57q-20 -11 -47 -23.5t-58.5 -23t-66.5 -17.5t-70 -7q-61 0 -106.5 19t-76 50.5t-45.5 73t-15 85.5q0 46 16.5 88t47 74t74.5 50.5t99 18.5q57 0 99.5 -18t71 -47t42.5 -64.5t14 -69.5q0 -12 -1 -26t-1 -19h-408q1 -20 9 -48.5t29 -54.5t57.5 -45t94.5 -19
q31 0 63.5 7.5t61.5 18t53 22l40 19.5zM484 248q0 24 -10.5 50.5t-31.5 48.5t-53.5 36t-77.5 14q-50 0 -83.5 -17t-54.5 -40.5t-31.5 -49t-13.5 -42.5h356zM428 527l-32 -25l-101 66l-91 -66l-33 24l88 95h77z" />
    <glyph glyph-name="edieresis" unicode="&#xeb;" 
d="M559 57q-20 -11 -47 -23.5t-58.5 -23t-66.5 -17.5t-70 -7q-61 0 -106.5 19t-76 50.5t-45.5 73t-15 85.5q0 46 16.5 88t47 74t74.5 50.5t99 18.5q57 0 99.5 -18t71 -47t42.5 -64.5t14 -69.5q0 -12 -1 -26t-1 -19h-408q1 -20 9 -48.5t29 -54.5t57.5 -45t94.5 -19
q31 0 63.5 7.5t61.5 18t53 22l40 19.5zM484 248q0 24 -10.5 50.5t-31.5 48.5t-53.5 36t-77.5 14q-50 0 -83.5 -17t-54.5 -40.5t-31.5 -49t-13.5 -42.5h356zM271 621v-108h-72v108h72zM401 621v-108h-72v108h72z" />
    <glyph glyph-name="igrave" unicode="&#xec;" 
d="M374 503h-52l-132 115h107zM327 47h173v-47h-399v47h176v336h-147v47h197v-383z" />
    <glyph glyph-name="iacute" unicode="&#xed;" 
d="M215 503l89 115h107l-143 -115h-53zM327 47h173v-47h-399v47h176v336h-147v47h197v-383z" />
    <glyph glyph-name="icircumflex" unicode="&#xee;" 
d="M428 527l-32 -25l-101 66l-91 -66l-33 24l88 95h77zM327 47h173v-47h-399v47h176v336h-147v47h197v-383z" />
    <glyph glyph-name="idieresis" unicode="&#xef;" 
d="M271 621v-108h-72v108h72zM401 621v-108h-72v108h72zM327 47h173v-47h-399v47h176v336h-147v47h197v-383z" />
    <glyph glyph-name="eth" unicode="&#xf0;" 
d="M170 516l50 76l-33 15.5t-26.5 11.5t-24.5 9l-27 9l17 49q19 -6 33.5 -11t28 -10.5l28 -12t32.5 -15.5l41 67l43 -28l-39 -62q15 -9 40 -25.5t53.5 -40t57 -55t52 -71.5t38 -88.5t14.5 -106.5t-19 -103t-52.5 -75.5t-79 -46.5t-97.5 -16q-62 0 -108.5 20t-77.5 52.5
t-46.5 74t-15.5 85.5q0 55 20 98t53.5 73t76.5 45.5t89 15.5q39 0 77 -8t60 -19l2 2l-28 34.5t-32.5 34t-43.5 35.5t-61 39l-52 -82zM106 218q0 -36 12.5 -69t37.5 -59t61 -41.5t83 -15.5q48 0 84.5 16t60.5 42t36.5 59t12.5 68q0 34 -12.5 67.5t-37 59.5t-60.5 42t-84 16
q-47 0 -83 -15.5t-60.5 -41t-37.5 -59t-13 -69.5z" />
    <glyph glyph-name="ntilde" unicode="&#xf1;" 
d="M166 374q16 12 35 24.5t40.5 23t45.5 17t51 6.5q34 0 61.5 -12t47 -34t30 -52.5t10.5 -66.5v-233h80v-47h-216v47h86v229q0 55 -26.5 87t-71.5 32q-12 0 -28 -2.5t-37 -11t-47.5 -24t-60.5 -42.5v-268h84v-47h-216v47h82v336h-82v47h132v-56zM460 606q-2 -2 -2 -7
q-12 -42 -39 -63.5t-59 -21.5q-17 0 -32.5 7t-38.5 25q-24 18 -34 23.5t-21 5.5q-20 0 -32 -16t-20 -36q0 -1 -1 -3l-1 -3l-40 14q14 38 35.5 63.5t58.5 25.5q24 0 41 -10t33 -24q19 -14 31.5 -20.5t23.5 -6.5q13 0 22.5 6.5t16 16t11 19.5t7.5 18z" />
    <glyph glyph-name="ograve" unicode="&#xf2;" 
d="M52 218q0 45 16 87t47 74t77.5 51.5t107.5 19.5q63 0 109.5 -20t77 -53t46 -74.5t15.5 -84.5t-15.5 -84.5t-46 -74.5t-77 -53t-109.5 -20q-61 0 -107.5 19.5t-77.5 52t-47 74t-16 86.5zM106 218q0 -35 12.5 -68t37 -58.5t61 -40.5t83.5 -15q48 0 84.5 15.5t60.5 41
t36.5 58t12.5 67.5q0 34 -12.5 67t-36.5 58.5t-60.5 41t-84.5 15.5q-47 0 -83 -15t-61 -40.5t-37.5 -58t-12.5 -68.5zM374 503h-52l-132 115h107z" />
    <glyph glyph-name="oacute" unicode="&#xf3;" 
d="M52 218q0 45 16 87t47 74t77.5 51.5t107.5 19.5q63 0 109.5 -20t77 -53t46 -74.5t15.5 -84.5t-15.5 -84.5t-46 -74.5t-77 -53t-109.5 -20q-61 0 -107.5 19.5t-77.5 52t-47 74t-16 86.5zM106 218q0 -35 12.5 -68t37 -58.5t61 -40.5t83.5 -15q48 0 84.5 15.5t60.5 41
t36.5 58t12.5 67.5q0 34 -12.5 67t-36.5 58.5t-60.5 41t-84.5 15.5q-47 0 -83 -15t-61 -40.5t-37.5 -58t-12.5 -68.5zM215 503l89 115h107l-143 -115h-53z" />
    <glyph glyph-name="ocircumflex" unicode="&#xf4;" 
d="M52 218q0 45 16 87t47 74t77.5 51.5t107.5 19.5q63 0 109.5 -20t77 -53t46 -74.5t15.5 -84.5t-15.5 -84.5t-46 -74.5t-77 -53t-109.5 -20q-61 0 -107.5 19.5t-77.5 52t-47 74t-16 86.5zM106 218q0 -35 12.5 -68t37 -58.5t61 -40.5t83.5 -15q48 0 84.5 15.5t60.5 41
t36.5 58t12.5 67.5q0 34 -12.5 67t-36.5 58.5t-60.5 41t-84.5 15.5q-47 0 -83 -15t-61 -40.5t-37.5 -58t-12.5 -68.5zM428 527l-32 -25l-101 66l-91 -66l-33 24l88 95h77z" />
    <glyph glyph-name="otilde" unicode="&#xf5;" 
d="M52 218q0 45 16 87t47 74t77.5 51.5t107.5 19.5q63 0 109.5 -20t77 -53t46 -74.5t15.5 -84.5t-15.5 -84.5t-46 -74.5t-77 -53t-109.5 -20q-61 0 -107.5 19.5t-77.5 52t-47 74t-16 86.5zM106 218q0 -35 12.5 -68t37 -58.5t61 -40.5t83.5 -15q48 0 84.5 15.5t60.5 41
t36.5 58t12.5 67.5q0 34 -12.5 67t-36.5 58.5t-60.5 41t-84.5 15.5q-47 0 -83 -15t-61 -40.5t-37.5 -58t-12.5 -68.5zM460 606q-2 -2 -2 -7q-12 -42 -39 -63.5t-59 -21.5q-17 0 -32.5 7t-38.5 25q-24 18 -34 23.5t-21 5.5q-20 0 -32 -16t-20 -36q0 -1 -1 -3l-1 -3l-40 14
q14 38 35.5 63.5t58.5 25.5q24 0 41 -10t33 -24q19 -14 31.5 -20.5t23.5 -6.5q13 0 22.5 6.5t16 16t11 19.5t7.5 18z" />
    <glyph glyph-name="odieresis" unicode="&#xf6;" 
d="M52 218q0 45 16 87t47 74t77.5 51.5t107.5 19.5q63 0 109.5 -20t77 -53t46 -74.5t15.5 -84.5t-15.5 -84.5t-46 -74.5t-77 -53t-109.5 -20q-61 0 -107.5 19.5t-77.5 52t-47 74t-16 86.5zM106 218q0 -35 12.5 -68t37 -58.5t61 -40.5t83.5 -15q48 0 84.5 15.5t60.5 41
t36.5 58t12.5 67.5q0 34 -12.5 67t-36.5 58.5t-60.5 41t-84.5 15.5q-47 0 -83 -15t-61 -40.5t-37.5 -58t-12.5 -68.5zM271 621v-108h-72v108h72zM401 621v-108h-72v108h72z" />
    <glyph glyph-name="divide" unicode="&#xf7;" 
d="M300 528q18 0 31.5 -12.5t13.5 -32.5q0 -18 -12.5 -31.5t-32.5 -13.5q-19 0 -32 13.5t-13 31.5q0 20 14 32.5t31 12.5zM534 278h-468v50h468v-50zM300 168q17 0 31 -12.5t14 -32.5t-14 -32.5t-31 -12.5q-18 0 -31.5 13t-13.5 32q0 20 13.5 32.5t31.5 12.5z" />
    <glyph glyph-name="oslash" unicode="&#xf8;" 
d="M60 23l46 46q-17 21 -27.5 42.5t-16.5 41.5t-8 37t-2 29q0 43 15.5 85t47 74t77.5 52t108 20q35 0 77.5 -9.5t74.5 -35.5l49 50l38 -38l-46 -46q18 -21 29 -43.5t16.5 -43t7.5 -38t2 -28.5q0 -45 -16 -87t-47.5 -74.5t-77.5 -51.5t-105 -19q-5 0 -21 0.5t-38 5t-48 14
t-50 26.5l-46 -46zM184 68q9 -6 18.5 -11.5t22.5 -10t31 -7.5t44 -3q48 0 84.5 15.5t60.5 41t36.5 58t12.5 67.5q0 65 -40 114zM415 369l-23 11.5t-23.5 10t-29 7t-39.5 2.5q-48 0 -84.5 -16t-61 -41.5t-36.5 -58t-12 -66.5q0 -20 7.5 -52t30.5 -61z" />
    <glyph glyph-name="ugrave" unicode="&#xf9;" 
d="M164 165q0 -10 1.5 -31.5t11 -43t29.5 -38t58 -16.5q42 0 80.5 21t80.5 66v260h-86v47h136v-383h81v-47h-131v55l-26 -21t-34.5 -22.5t-43.5 -18t-53 -7.5q-47 0 -77 17t-47 43t-23.5 57.5t-6.5 61.5v218h-82v47h132v-265zM374 503h-52l-132 115h107z" />
    <glyph glyph-name="uacute" unicode="&#xfa;" 
d="M164 165q0 -10 1.5 -31.5t11 -43t29.5 -38t58 -16.5q42 0 80.5 21t80.5 66v260h-86v47h136v-383h81v-47h-131v55l-26 -21t-34.5 -22.5t-43.5 -18t-53 -7.5q-47 0 -77 17t-47 43t-23.5 57.5t-6.5 61.5v218h-82v47h132v-265zM215 503l89 115h107l-143 -115h-53z" />
    <glyph glyph-name="ucircumflex" unicode="&#xfb;" 
d="M164 165q0 -10 1.5 -31.5t11 -43t29.5 -38t58 -16.5q42 0 80.5 21t80.5 66v260h-86v47h136v-383h81v-47h-131v55l-26 -21t-34.5 -22.5t-43.5 -18t-53 -7.5q-47 0 -77 17t-47 43t-23.5 57.5t-6.5 61.5v218h-82v47h132v-265zM428 527l-32 -25l-101 66l-91 -66l-33 24l88 95
h77z" />
    <glyph glyph-name="udieresis" unicode="&#xfc;" 
d="M164 165q0 -10 1.5 -31.5t11 -43t29.5 -38t58 -16.5q42 0 80.5 21t80.5 66v260h-86v47h136v-383h81v-47h-131v55l-26 -21t-34.5 -22.5t-43.5 -18t-53 -7.5q-47 0 -77 17t-47 43t-23.5 57.5t-6.5 61.5v218h-82v47h132v-265zM271 621v-108h-72v108h72zM401 621v-108h-72
v108h72z" />
    <glyph glyph-name="yacute" unicode="&#xfd;" 
d="M211 383h-69l158 -304l174 304h-68v47h183v-47h-58l-280 -489h89v-47h-300v47h154l77 133l-186 356h-61v47h187v-47zM215 503l89 115h107l-143 -115h-53z" />
    <glyph glyph-name="thorn" unicode="&#xfe;" 
d="M153 359q6 9 18.5 23t33.5 27.5t50.5 23.5t69.5 10q51 0 92 -19t70 -50t45 -71.5t16 -83.5q0 -51 -19.5 -92.5t-50.5 -71t-71 -46t-80 -16.5q-6 0 -24 1.5t-43 9.5t-53 25.5t-54 49.5h-2v-189h149v-47h-281v47h82v687l-89 -4v47l139 9v-270h2zM147 222q0 -44 17 -77.5
t43 -56t57.5 -34t60.5 -11.5q34 0 64.5 13.5t53.5 37t37 56t14 70.5q0 31 -10.5 62t-31.5 55.5t-52.5 40t-73.5 15.5q-39 0 -72 -14t-56.5 -37t-37 -54.5t-13.5 -65.5z" />
    <glyph glyph-name="ydieresis" unicode="&#xff;" 
d="M24 430v-47h61l186 -356l-77 -133h-154v-47h300v47h-89l280 489h58v47h-183v-47h68l-174 -304l-158 304h69v47h-187zM199 513h72v108h-72v-108zM329 513h72v108h-72v-108z" />
    <glyph glyph-name="OE" unicode="&#x152;" 
d="M537 383h-44l-9 133h-132v-194h65v73h46v-193h-46v73h-65v-228h146l6 138h46v-185h-308q-59 0 -101.5 27t-70 68t-41 89.5t-13.5 92.5q0 60 19 112t53.5 91t83 61t107.5 22h258v-180zM276 516q-50 0 -88.5 -19t-64.5 -51.5t-39.5 -75.5t-13.5 -90q0 -37 10.5 -78
t33 -75.5t58 -57t86.5 -22.5h44v469h-26z" />
    <glyph glyph-name="oe" unicode="&#x153;" 
d="M320 205q-1 -52 10.5 -85.5t29.5 -52.5t38 -26.5t37 -7.5q32 0 63.5 8t51.5 14l18 -43q-54 -18 -85.5 -22.5t-45.5 -4.5q-9 0 -26 2.5t-36.5 11.5t-39.5 27.5t-35 51.5q-4 -9 -12.5 -24.5t-24.5 -31t-40 -26.5t-60 -11q-39 0 -65 13.5t-43 34t-26 45.5t-13.5 48.5
t-5 42.5t-0.5 28q0 48 9 93.5t28.5 81.5t51 57.5t77.5 21.5q30 0 52 -10.5t37 -24t23.5 -27.5t11.5 -21q23 42 57 62t67 20q39 0 65.5 -20.5t43 -51t24 -65t7.5 -62.5q0 -12 -0.5 -25.5t-1.5 -20.5h-242zM270 211q0 63 -8 101t-21.5 58.5t-30 26.5t-34.5 6q-31 0 -52 -18.5
t-34.5 -48t-19.5 -65.5t-6 -71q0 -28 4.5 -57.5t15.5 -54t30 -40t48 -15.5q27 0 45.5 10.5t30.5 27.5t18.5 37.5t9.5 40.5t3.5 36.5t0.5 25.5zM514 249q0 28 -5 55.5t-16 49.5t-28 35t-41 13q-8 0 -24.5 -5t-34 -20.5t-31 -46t-14.5 -81.5h194z" />
    <glyph glyph-name="Scaron" unicode="&#x160;" 
d="M507 574q-5 -23 -7 -38t-2 -34q0 -17 2 -46.5t7 -72.5l-45 -8q-2 16 -8 42t-23 52q-6 9 -15.5 19.5t-24.5 19.5t-36 15.5t-51 6.5q-39 0 -67.5 -11.5t-47 -29t-27.5 -38t-9 -39.5q0 -35 17 -55t41 -31t50 -15t44 -6q56 -6 88 -12.5t58 -23.5t44 -45t18 -71
q0 -44 -18.5 -76t-47.5 -53t-65.5 -31t-73.5 -10q-30 0 -52.5 5t-39 12.5t-27.5 15t-18 13.5q-1 1 -3.5 2.5t-4.5 1.5q-3 0 -5.5 -3t-4.5 -5q-2 -7 -3.5 -13.5t-5.5 -31.5h-45q5 24 7 46t2 33v10q0 8 -1 21.5t-2.5 29l-3 30t-2.5 25.5h45q4 -19 10.5 -43t23.5 -46
q14 -18 41.5 -35.5t81.5 -17.5q46 0 76.5 11t48.5 28t25.5 37.5t7.5 39.5q0 33 -14.5 52.5t-35.5 30t-45.5 14.5t-43.5 6q-29 3 -67.5 9t-72.5 22t-57.5 45.5t-23.5 79.5q0 34 15 65t41.5 55t63 38t79.5 14q27 0 48 -5t36 -11.5t25 -13.5t15 -11q12 -9 16 -11.5t7 -2.5
q7 0 8.5 6t6.5 30q1 5 1.5 8t0.5 5h45zM171 736l32 24l101 -65l92 66l32 -25l-88 -94h-76z" />
    <glyph glyph-name="scaron" unicode="&#x161;" 
d="M482 443q-3 -16 -6 -36.5t-3 -49.5q0 -21 1.5 -35.5t3.5 -27.5l-44 -5q-3 15 -8.5 33t-21 33.5t-45.5 26.5t-82 11q-60 0 -92 -21.5t-32 -52.5q0 -27 15.5 -42.5t43.5 -24t65.5 -11.5t81.5 -5q9 0 32.5 -3t48.5 -14t44.5 -33.5t19.5 -61.5q0 -36 -17.5 -62.5t-45.5 -43.5
t-61.5 -25t-66.5 -8q-27 0 -50 4.5t-42 11.5t-32.5 14l-22.5 12l-2 1q-1 1 -3 1q-7 0 -11 -12.5l-9 -29.5h-44l4 25.5t2 37.5q0 32 -2 57t-4 42l44 5q2 -13 8 -33t22.5 -39t47.5 -33t83 -14q15 0 40 3t49 12t41.5 26t17.5 46q0 22 -10.5 35t-29.5 19.5t-45.5 8.5t-57.5 3
q-20 1 -55 4.5t-69 16t-59 38t-25 70.5q0 27 13 50t36 40t56 26.5t72 9.5q45 0 73 -10.5t42 -18.5q2 -2 9 -5.5t13 -3.5q8 0 12 9.5l6 14.5q2 10 3 13t3 8zM171 603l32 24l101 -65l92 66l32 -25l-88 -94h-76z" />
    <glyph glyph-name="Ydieresis" unicode="&#x178;" 
d="M228 516h-76l151 -248l149 248h-78v47h194v-47h-63l-179 -298v-171h118v-47h-287v47h119v171l-181 298h-63v47h196v-47zM271 754v-108h-72v108h72zM401 754v-108h-72v108h72z" />
    <glyph glyph-name="Zcaron" unicode="&#x17d;" 
d="M493 522l-349 -475h325v162h47v-209h-432v47l345 469h-291v-146h-47v193h402v-41zM171 736l32 24l101 -65l92 66l32 -25l-88 -94h-76z" />
    <glyph glyph-name="zcaron" unicode="&#x17e;" 
d="M496 387l-324 -340h277v92h47v-139h-392v47l321 336h-264v-89h-47v136h382v-43zM171 603l32 24l101 -65l92 66l32 -25l-88 -94h-76z" />
    <glyph glyph-name="florin" unicode="&#x192;" 
d="M504 609q-13 3 -30.5 5.5t-41.5 2.5q-57 0 -87.5 -14.5t-45 -35.5t-17 -44.5t-2.5 -42.5v-55h176v-42h-176v-332q0 -35 -8 -60.5t-36 -46.5q-33 -25 -76 -34t-86 -9q-13 0 -26 1t-24 3l4 50q15 -2 33 -4t35 -2q33 0 68 9t51 28q11 14 13 33t2 39v325h-107v42h107v60
q0 22 5 53t26.5 59t64.5 47.5t119 19.5q22 0 38 -1t26 -3z" />
    <glyph glyph-name="circumflex" unicode="&#x2c6;" 
d="M428 527l-32 -25l-101 66l-91 -66l-33 24l88 95h77z" />
    <glyph glyph-name="tilde" unicode="&#x2dc;" 
d="M460 606q-2 -2 -2 -7q-12 -42 -39 -63.5t-59 -21.5q-17 0 -32.5 7t-38.5 25q-24 18 -34 23.5t-21 5.5q-20 0 -32 -16t-20 -36q0 -1 -1 -3l-1 -3l-40 14q14 38 35.5 63.5t58.5 25.5q24 0 41 -10t33 -24q19 -14 31.5 -20.5t23.5 -6.5q13 0 22.5 6.5t16 16t11 19.5t7.5 18z
" />
    <glyph glyph-name="uni1200" unicode="&#x1200;" horiz-adv-x="534" 
d="M52 258q0 -89 11 -139.5t36.5 -77.5t67 -37t101.5 -17q61 7 102 17.5t66 37.5t35.5 77.5t10.5 138.5v330q0 37 -17 56.5t-46 19.5q-28 0 -45 -19.5t-17 -56.5v-441q0 -39 -8.5 -66t-22 -44.5t-29 -25t-29.5 -7.5q-42 0 -66.5 32t-24.5 111v441q0 76 -62 76
q-28 0 -45.5 -19.5t-17.5 -56.5v-330z" />
    <glyph glyph-name="uni1201" unicode="&#x1201;" horiz-adv-x="661" 
d="M482 393v175q0 37 -17 56.5t-46 19.5q-28 0 -45 -19.5t-17 -56.5v-422q0 -40 -8.5 -66.5t-22 -43t-29 -23.5t-29.5 -7q-42 0 -66.5 30.5t-24.5 109.5v422q0 76 -62 76q-28 0 -45.5 -19.5t-17.5 -56.5v-311q0 -88 11 -138.5t36.5 -78t67 -37.5t101.5 -17q61 7 102 17.5
t66 37.5t35.5 77.5t10.5 138.5v120h50v-48q0 -30 16.5 -50t46.5 -20q28 0 45 19.5t17 50.5v47q0 11 -4.5 14t-10.5 3h-160z" />
    <glyph glyph-name="uni1202" unicode="&#x1202;" 
d="M353 -16h112v-55h78q18 0 35.5 17t17.5 46t-18 45.5t-35 16.5h-78v-54h-22q-16 0 -22 10t-6 42v535q0 45 -16.5 61.5t-45.5 16.5q-30 0 -46 -16.5t-16 -61.5v-230q-16 -11 -37.5 -20.5t-38.5 -9.5q-25 0 -42 20t-17 60v189q0 40 -15.5 54.5t-42.5 14.5q-29 0 -46.5 -16
t-17.5 -53v-156q0 -45 13 -72.5t37 -42t57 -19t73 -4.5q17 0 39.5 8t37.5 19v-289q0 -28 18.5 -42t43.5 -14z" />
    <glyph glyph-name="uni1203" unicode="&#x1203;" horiz-adv-x="474" 
d="M349 -15q60 0 60 77v530q0 23 -4 37t-12 22t-19.5 10.5t-26.5 2.5q-30 0 -46 -13t-16 -59v-233q-16 -10 -37.5 -20t-38.5 -10q-25 0 -42 20t-17 59v184q0 46 -14.5 59t-41.5 13q-15 0 -27 -2.5t-20.5 -10.5t-13.5 -22t-5 -37v-150q0 -44 15 -71t40.5 -42t57.5 -20t67 -5
q17 0 39.5 8t37.5 19v-269q0 -45 16.5 -61t47.5 -16z" />
    <glyph glyph-name="uni1204" unicode="&#x1204;" horiz-adv-x="592" 
d="M283 72q0 -49 17 -68.5t68 -19.5h81q73 0 105 33.5t32 99.5q0 36 -12 57.5t-33.5 33t-50.5 15.5t-62 4v-16q21 0 34 -4.5t20.5 -16.5t10 -32t2.5 -50q0 -49 -8.5 -81t-37.5 -32q-23 0 -32.5 26.5t-9.5 77.5v492q0 44 -17 58.5t-46 14.5q-30 0 -45.5 -14t-15.5 -59v-234
q-16 -11 -37.5 -20.5t-38.5 -9.5q-25 0 -42 20t-17 60v185q0 44 -14 58t-41 14q-29 0 -47.5 -17.5t-18.5 -54.5v-152q0 -46 13 -73t36.5 -41.5t56.5 -19t73 -4.5q17 0 39.5 8t37.5 19v-257z" />
    <glyph glyph-name="uni1205" unicode="&#x1205;" horiz-adv-x="529" 
d="M177 591q0 74 -58 74q-28 0 -47.5 -18t-19.5 -56v-220q0 -20 20 -20q13 0 30 9.5t25 20.5q0 -23 -11.5 -40.5t-26 -34.5t-26 -34.5t-11.5 -39.5v-43q0 -50 11 -87.5t35 -63t62 -38.5t93 -13q78 0 123 10t67.5 42t28 92.5t5.5 161.5v300q0 38 -14 55t-43 17t-48.5 -17
t-19.5 -55v-446q0 -39 -9 -65t-22 -42.5t-28 -23.5t-27 -7q-47 0 -66.5 24.5t-19.5 93.5q0 53 5 88.5t12 59.5t16 39l16 27t12 24t5 30q0 13 -10 21.5t-19 8.5q-12 0 -21.5 -3.5t-18.5 -13.5v183z" />
    <glyph glyph-name="uni1206" unicode="&#x1206;" horiz-adv-x="683" 
d="M477 648q18 0 33.5 -1.5t26.5 -8.5t17 -21.5t6 -39.5v-79q0 -25 -7 -40t-18 -23.5t-26.5 -11t-31.5 -2.5v227zM177 592q0 38 -15 55t-45 17q-28 0 -46.5 -17t-18.5 -55v-385q0 -68 7 -110.5t26 -66.5t53.5 -32.5t89.5 -8.5q78 0 123 22t70 52q25 31 40.5 85.5t15.5 145.5
v114q53 0 91.5 3t63 17t36 44.5t11.5 85.5q0 59 -25.5 82.5t-68.5 23.5h-171q-20 0 -32 -5t-18 -14t-8 -22.5t-2 -30.5v-444q0 -39 -12 -66t-27 -44.5t-29 -25.5t-18 -8q-29 0 -46.5 10t-27.5 35.5t-13.5 67.5t-3.5 107v368z" />
    <glyph glyph-name="uni1208" unicode="&#x1208;" horiz-adv-x="529" 
d="M52 590v-531q0 -45 16 -61t46 -16q33 0 48 17t15 62v285q3 9 12.5 25.5t23 32.5t30 28t34.5 12q39 0 57 -29.5t18 -98.5v-254q0 -45 15.5 -61.5t47.5 -16.5q31 0 46.5 16t15.5 61v240q0 57 -20.5 90.5t-49.5 50.5t-61 21.5t-54 4.5q-21 0 -40 -9.5t-35 -23.5t-26.5 -29.5
t-13.5 -28.5v213q0 76 -62 76q-28 0 -45.5 -19.5t-17.5 -56.5z" />
    <glyph glyph-name="uni1209" unicode="&#x1209;" horiz-adv-x="653" 
d="M52 588v-527q0 -45 16 -61t46 -16q33 0 48 17t15 62v283q3 9 12.5 25.5t23 32.5t30 28t34.5 12q39 0 57 -29.5t18 -98.5v-252q0 -45 15.5 -61.5t47.5 -16.5q31 0 46.5 16t15.5 61v223h44v-49q0 -24 16.5 -42t46.5 -18q28 0 45 17.5t17 41.5v50q0 11 -4.5 13t-10.5 2h-154
q0 57 -20.5 90.5t-49.5 50.5t-61 21.5t-54 4.5q-21 0 -40 -9.5t-35 -23.5t-26.5 -29.5t-13.5 -28.5v211q0 76 -62 76q-28 0 -45.5 -19.5t-17.5 -56.5z" />
    <glyph glyph-name="uni120A" unicode="&#x120a;" horiz-adv-x="680" 
d="M526 -16v-54h93q18 0 36 16.5t18 45.5q0 30 -18.5 46t-35.5 16h-93v-54h-21q-17 0 -22.5 11t-5.5 46v244q0 57 -20.5 90.5t-49.5 50.5t-61 21.5t-54 4.5q-21 0 -40 -9.5t-35 -23.5t-26.5 -29.5t-13.5 -28.5v211q0 76 -62 76q-28 0 -45.5 -19.5t-17.5 -56.5v-527
q0 -45 16 -61t46 -16q33 0 48 17t15 62v283q3 9 12.5 25.5t23 32.5t30 28t34.5 12q39 0 57 -29.5t18 -98.5v-275q0 -29 19 -43t44 -14h111z" />
    <glyph glyph-name="uni120B" unicode="&#x120b;" horiz-adv-x="529" 
d="M52 588v-373q0 -45 16 -60.5t46 -15.5q33 0 48 16.5t15 61.5v129q3 9 12.5 25.5t23 32.5t30 28t34.5 12q39 0 57 -29.5t18 -98.5v-254q0 -45 15.5 -61.5t47.5 -16.5q31 0 46.5 16t15.5 61v240q0 57 -20.5 90.5t-49.5 50.5t-61 21.5t-54 4.5q-21 0 -40 -9.5t-35 -23.5
t-26.5 -29.5t-13.5 -28.5v211q0 76 -62 76q-28 0 -45.5 -19.5t-17.5 -56.5z" />
    <glyph glyph-name="uni120C" unicode="&#x120c;" horiz-adv-x="663" 
d="M477 99v202q0 57 -20.5 90.5t-49.5 50.5t-61 21.5t-54 4.5q-21 0 -40 -9.5t-35 -23.5t-26.5 -29.5t-13.5 -28.5v212q0 76 -62 76q-28 0 -45.5 -19.5t-17.5 -56.5v-528q0 -45 16 -61t46 -16q33 0 48 17t15 62v283q3 9 12.5 25.5t23 32.5t30 28t34.5 12q39 0 57 -29.5
t18 -98.5v-244q0 -49 17.5 -68.5t68.5 -19.5h81q36 0 62 4t42.5 15.5t24.5 32t8 52.5q0 47 -12 73.5t-32.5 39.5t-48.5 16t-61 3v-16q42 0 54 -27.5t12 -88.5q0 -48 -10 -70.5t-39 -22.5q-27 0 -34.5 23.5t-7.5 80.5z" />
    <glyph glyph-name="uni120D" unicode="&#x120d;" horiz-adv-x="580" 
d="M177 99v236q0 7 11 25t30 36t43 32t51 14q57 0 75.5 -22t18.5 -64v-286q0 -87 63 -87q62 0 62 86v209q0 64 -15.5 102t-42.5 57.5t-64.5 25t-80.5 5.5q-48 0 -86.5 -28.5t-64.5 -66.5v215q0 76 -60 76q-29 0 -47 -19t-18 -57v-487q0 -25 4 -46.5t14 -37t26.5 -24.5
t42.5 -9h80q37 0 63 4t42.5 15.5t24.5 32t8 53.5q0 46 -12 72.5t-32.5 39.5t-48.5 16t-61 3v-17q42 0 54 -26.5t12 -87.5q0 -49 -10 -71.5t-40 -22.5q-23 0 -32.5 27.5t-9.5 76.5z" />
    <glyph glyph-name="uni120E" unicode="&#x120e;" horiz-adv-x="734" 
d="M519 266v-74q0 -23 3.5 -38t14.5 -24t32.5 -12.5t56.5 -3.5q39 0 60.5 4t32 15t13 31t2.5 52q0 27 -4 43.5t-12.5 26t-21 12.5t-29.5 3h-190q0 57 -20.5 89t-49.5 47t-61 18t-54 3q-21 0 -40 -9.5t-35 -23.5t-26.5 -29.5t-13.5 -28.5v222q0 76 -62 76q-28 0 -45.5 -19.5
t-17.5 -56.5v-529q0 -45 16 -61t46 -16q33 0 48 17t15 62v274q3 9 12.5 25.5t23 32.5t30 28t34.5 12q39 0 57 -29.5t18 -98.5v-243q0 -45 15.5 -61.5t47.5 -16.5q31 0 46.5 16t15.5 61v227h20q11 0 16.5 -3.5t5.5 -19.5zM657 183q0 -23 -5 -38.5t-26 -15.5q-20 0 -25 16.5
t-5 37.5v58q0 17 5 32t24 15q22 0 27 -14.5t5 -30.5v-60z" />
    <glyph glyph-name="uni120F" unicode="&#x120f;" horiz-adv-x="616" 
d="M487 22v-42q0 -22 17 -38.5t45 -16.5q29 0 45.5 16.5t16.5 37.5v59h-134v263q0 57 -20.5 90.5t-49.5 50.5t-61 21.5t-54 4.5q-21 0 -40 -9.5t-35 -23.5t-26.5 -29.5t-13.5 -28.5v212q0 76 -62 76q-28 0 -45.5 -19.5t-17.5 -56.5v-374q0 -45 16 -60.5t46 -15.5
q33 0 48 16.5t15 61.5v129q3 9 12.5 25.5t23 32.5t30 28t34.5 12q39 0 57 -29.5t18 -98.5v-278h-138v-59q0 -23 16.5 -38.5t45.5 -15.5q28 0 45 16t17 39v42h149z" />
    <glyph glyph-name="uni1210" unicode="&#x1210;" horiz-adv-x="759" 
d="M317 591q0 39 17 56t47 17q29 0 45 -17t16 -56v-199q51 0 99 -8.5t84.5 -30.5t59 -60t22.5 -96v-136q0 -39 -17 -58t-44 -19q-32 0 -48 17t-16 59v145q0 37 -6.5 68t-22.5 53.5t-43 35t-68 12.5v-314q0 -38 -18 -57t-47 -19q-60 0 -60 76v303q-27 -2 -52 -13.5t-45 -32
t-32 -49t-12 -63.5v-145q0 -38 -17 -57t-46 -19q-61 0 -61 76v93q0 37 11 73t40.5 66t81 53.5t132.5 36.5v209z" />
    <glyph glyph-name="uni1211" unicode="&#x1211;" horiz-adv-x="876" 
d="M707 219q0 46 -24 79t-62.5 54t-85.5 30.5t-93 9.5v201q0 38 -15.5 55t-44.5 17q-30 0 -47.5 -17t-17.5 -55v-211q-81 -13 -132.5 -36.5t-81 -53.5t-40.5 -66t-11 -73v-93q0 -76 61 -76q29 0 46 19t17 57v145q0 35 12 63.5t32 49t45 32t52 13.5v-303q0 -76 60 -76
q29 0 47 19t18 57v314q42 0 69.5 -12.5t43 -35t21.5 -53.5t6 -68v-145q0 -42 16 -59t48 -17q27 0 44 19t17 58v143h42v-43q0 -26 16.5 -37.5t45.5 -11.5t45.5 11t16.5 37v43q-1 10 -4.5 13t-15.5 3h-146z" />
    <glyph glyph-name="uni1212" unicode="&#x1212;" horiz-adv-x="898" 
d="M301 592v-210q-81 -13 -132.5 -36.5t-81 -53.5t-40.5 -66t-11 -73v-93q0 -76 61 -76q29 0 46 19t17 57v145q0 36 12 64.5t32 48.5t45 31.5t52 13.5v-303q0 -76 60 -76q29 0 47 19t18 57v314q46 0 73.5 -12.5t42.5 -35t19.5 -53.5t4.5 -68v-158q0 -29 18 -43.5t45 -14.5
h111v-54h94q18 0 36 17.5t18 45.5q0 30 -18.5 46t-35.5 16h-94v-54h-22q-17 0 -22 11t-5 46v134q0 61 -21 99t-57 59.5t-84.5 29t-102.5 7.5v200q0 39 -14.5 55.5t-43.5 16.5q-30 0 -48.5 -16.5t-18.5 -55.5z" />
    <glyph glyph-name="uni1213" unicode="&#x1213;" horiz-adv-x="749" 
d="M298 594q0 45 17 58t47 13q29 0 45 -13t16 -58v-202q52 0 99.5 -8.5t84.5 -30.5t59 -60t22 -96v-136q0 -39 -17 -58t-44 -19q-32 0 -48 17t-16 59v145q0 37 -3 68t-16.5 53.5t-41.5 35t-79 12.5v-191q0 -38 -18 -55.5t-47 -17.5q-31 0 -45.5 17t-14.5 56v180
q-27 -2 -50 -14t-40 -33t-26.5 -50t-9.5 -64v-22q0 -38 -17 -55.5t-46 -17.5q-31 0 -46 17t-15 56v29q4 26 13.5 51.5t35.5 48.5t73.5 41.5t127.5 31.5v212z" />
    <glyph glyph-name="uni1214" unicode="&#x1214;" horiz-adv-x="893" 
d="M707 99v106q0 54 -23 89.5t-60.5 57.5t-85 31t-96.5 9v201q0 45 -16 58.5t-45 13.5q-30 0 -47 -13.5t-17 -58.5v-211q-81 -13 -132.5 -36.5t-81 -53.5t-40.5 -66t-11 -73v-93q0 -76 61 -76q29 0 46 19t17 57v145q0 35 12 63.5t32 49t45 32t52 13.5v-303q0 -76 60 -76
q29 0 47 19t18 57v314q51 0 79 -12.5t41.5 -35t16.5 -53.5t3 -68v-134q0 -48 17 -67.5t69 -19.5h81q36 0 61.5 4t42.5 15.5t25 32t8 53.5q0 47 -11.5 73t-32.5 39t-49.5 15.5t-61.5 2.5v-15q42 0 54 -27.5t12 -87.5q0 -48 -10 -71t-38 -23q-23 0 -32.5 26.5t-9.5 77.5z" />
    <glyph glyph-name="uni1215" unicode="&#x1215;" horiz-adv-x="759" 
d="M439 392v156q0 28 -18.5 42.5t-44.5 14.5h-111v54h-95q-18 0 -35.5 -16.5t-17.5 -46.5q0 -29 18 -45.5t35 -16.5h95v54h22q17 0 22 -10.5t5 -46.5v-149q-81 -13 -132.5 -36.5t-81 -53.5t-40.5 -66t-11 -73v-93q0 -76 61 -76q29 0 46 19t17 57v145q0 35 12 63.5t32 49
t45 32t52 13.5v-303q0 -76 60 -76q29 0 47 19t18 57v314q51 0 79 -12.5t41.5 -35t16.5 -53.5t3 -68v-145q0 -42 16 -59t48 -17q27 0 44 19t17 58v136q0 58 -22 96t-59 60t-84.5 30.5t-99.5 8.5z" />
    <glyph glyph-name="uni1216" unicode="&#x1216;" horiz-adv-x="759" 
d="M317 593q0 45 17 58.5t47 13.5q29 0 45 -13.5t16 -58.5v-201q13 0 30 -1.5t34 -3.5t33 -5t27 -7q76 -26 108.5 -61t32.5 -90v-30q0 -39 -17 -54.5t-44 -15.5q-32 0 -48 13.5t-16 55.5v37q0 33 -6 59.5t-21.5 45.5t-43 29t-69.5 10v-181q0 -38 -18 -53.5t-47 -15.5
q-31 0 -45.5 15t-14.5 54v170q-27 -2 -52 -13.5t-45 -32t-32 -49t-12 -63.5v-145q0 -38 -17 -57t-46 -19q-61 0 -61 76v93q0 37 11 73t40.5 66t81 53.5t132.5 36.5v211z" />
    <glyph glyph-name="Uni1217" unicode="&#x1217;" horiz-adv-x="829" 
d="M701 28v-42q0 -22 17 -38.5t45 -16.5q29 0 45.5 16.5t16.5 37.5v59h-135v153q0 58 -22 96t-59 60t-84.5 30.5t-99.5 8.5v199q0 45 -17 60.5t-46 15.5q-30 0 -46 -15.5t-16 -60.5v-209q-80 -13 -131.5 -32t-81 -41.5t-41 -47t-11.5 -49.5v-29q0 -39 15 -56t46 -17
q29 0 46 17.5t17 55.5v22q0 35 12 63.5t32 49t45 32t52 13.5v-180q0 -39 14.5 -56t45.5 -17q29 0 47 17.5t18 55.5v191q51 0 79 -12.5t41.5 -35t16.5 -53.5t3 -68v-161h-135v-59q0 -23 16.5 -38.5t45.5 -15.5q28 0 45 16t17 39v42h147z" />
    <glyph glyph-name="uni1218" unicode="&#x1218;" horiz-adv-x="952" 
d="M251 519q-24 0 -58 -8.5t-65.5 -26.5t-53.5 -46.5t-22 -68.5v-225q0 -38 16 -59t43 -31.5t62 -13t73 -2.5q32 0 64 7.5t58 22t42 35.5t16 48v282q0 34 17 52t29 18q18 0 28.5 -6.5t16.5 -22t7.5 -41t1.5 -64.5v-192q0 -28 5.5 -50t24 -37.5t55.5 -23.5t100 -8
q54 0 90.5 8t58 23.5t31 37.5t9.5 50v184q0 55 -13 87.5t-34 49t-48.5 21t-55.5 4.5q-69 0 -93 -31l9 -22q19 28 46 28q14 0 25.5 -5.5t20 -20t13.5 -39.5t5 -64v-198q0 -53 -14 -73.5t-50 -20.5q-32 0 -46.5 21t-14.5 73v251q0 35 -14.5 56t-37 31.5t-49.5 13.5t-53 3
q-18 0 -40.5 -10.5t-30.5 -30.5q-7 7 -24 13t-40.5 10.5t-52 7.5t-57.5 3zM302 162q0 -52 -15.5 -77.5t-40.5 -25.5q-37 0 -53 25.5t-16 77.5v256q0 13 6 27.5t16 27t23.5 20.5t28.5 8q36 0 43.5 -15t7.5 -46v-278z" />
    <glyph glyph-name="uni1219" unicode="&#x1219;" horiz-adv-x="1070" 
d="M251 519q-24 0 -58 -8.5t-65.5 -26.5t-53.5 -46.5t-22 -68.5v-225q0 -38 16 -59t43 -31.5t62 -13t73 -2.5q32 0 64 7.5t58 22t42 35.5t16 48v282q0 34 17 52t29 18q18 0 28.5 -6.5t16.5 -22t7.5 -41t1.5 -64.5v-192q0 -28 5.5 -50t24 -37.5t55.5 -23.5t100 -8
q54 0 90.5 8t58 23.5t31 37.5t9.5 50v184h43v-48q0 -30 16.5 -45t46.5 -15q28 0 45 14.5t17 44.5v51q0 10 -5 12t-13 2h-150q0 50 -13 79t-34.5 44t-48.5 19t-55 4q-69 0 -93 -31l9 -22q19 28 46 28q14 0 25.5 -5.5t20 -20t13.5 -39.5t5 -64v-198q0 -53 -14 -73.5t-50 -20.5
q-32 0 -46.5 21t-14.5 73v251q0 35 -14.5 56t-37 31.5t-49.5 13.5t-53 3q-18 0 -40.5 -10.5t-30.5 -30.5q-7 7 -24 13t-40.5 10.5t-52 7.5t-57.5 3zM302 162q0 -52 -15.5 -77.5t-40.5 -25.5q-37 0 -53 25.5t-16 77.5v256q0 13 6 27.5t16 27t23.5 20.5t28.5 8q36 0 43.5 -15
t7.5 -46v-278z" />
    <glyph glyph-name="uni121A" unicode="&#x121a;" horiz-adv-x="1034" 
d="M785 -6h107v-55h84q18 0 36 17t18 46q0 15 -5 26.5t-13 19.5t-17.5 12t-18.5 4h-84v-55h-17q-17 0 -22.5 11t-5.5 47v430q0 55 -13 87t-34 48.5t-48.5 21t-56.5 4.5q-34 0 -49.5 -6.5t-28.5 -23.5l9 -21q10 12 19 19t24 7q13 0 22.5 -5.5t16.5 -19.5t10.5 -39t3.5 -64
v-119q0 -53 -9.5 -74t-43.5 -21q-33 0 -45.5 20.5t-12.5 74.5v172q0 35 -14.5 55.5t-37 31t-50 13.5t-52.5 3q-17 0 -34 -9.5t-25 -30.5q-6 7 -21.5 13t-37.5 10.5t-49 7t-56 2.5q-24 0 -55 -8.5t-59.5 -26.5t-48 -46.5t-19.5 -68.5v-130q0 -38 13.5 -59t37 -31.5t56 -12.5
t70.5 -2q32 0 62.5 7t54.5 21.5t38.5 35.5t14.5 49v186q0 35 13 52.5t26 17.5q18 0 28 -6t14.5 -21.5t5.5 -41t1 -64.5v-113q0 -28 4.5 -50.5t22.5 -38t54.5 -23.5t100.5 -8q15 0 28 0.5t25 1.5v-224q0 -28 18.5 -42t44.5 -14zM275 392q0 -52 -10.5 -77.5t-35.5 -25.5
q-18 0 -28.5 6.5t-16 19.5t-6.5 32.5t-1 44.5v161q0 14 3 28.5t9.5 26.5t17.5 20t27 8q26 0 33.5 -14t7.5 -47v-183z" />
    <glyph glyph-name="uni121B" unicode="&#x121b;" horiz-adv-x="918" 
d="M802 -14q30 0 46.5 19t16.5 57v435q0 55 -13 87t-34 48.5t-48.5 21t-55.5 4.5q-35 0 -52 -6.5t-30 -23.5l7 -21q12 12 23 19t25 7q13 0 23 -5.5t16.5 -19.5t10 -39t3.5 -64v-119q0 -53 -9.5 -74t-43.5 -21q-32 0 -46.5 20.5t-14.5 74.5v172q0 37 -15.5 57.5t-39 30.5
t-50.5 12.5t-50 2.5q-16 0 -37 -9.5t-30 -30.5q-6 7 -21.5 13t-37.5 10.5t-49 7t-56 2.5q-24 0 -56.5 -8.5t-61.5 -26.5t-49.5 -46.5t-20.5 -68.5v-125q0 -38 14 -59t39 -31.5t58.5 -13t71.5 -2.5q33 0 63.5 7.5t54 22.5t38 36t14.5 48v181q0 35 17 52.5t31 17.5q17 0 27 -6
t14.5 -21.5t5.5 -41t1 -64.5v-113q0 -28 5.5 -50.5t24.5 -38t56 -23.5t100 -8q14 0 28 0.5t25 1.5v-212q0 -76 62 -76zM281 397q0 -52 -10.5 -78.5t-35.5 -26.5q-38 0 -48.5 27t-10.5 78v156q0 14 4.5 28.5t12.5 26.5t20 20t27 8q27 0 34 -14t7 -47v-178z" />
    <glyph glyph-name="uni121C" unicode="&#x121c;" horiz-adv-x="1047" 
d="M865 102v395q0 55 -13 87t-34 48.5t-48.5 21t-55.5 4.5q-35 0 -52 -6.5t-30 -23.5l7 -21q12 12 23 19t25 7q13 0 23 -5.5t16.5 -19.5t10 -39t3.5 -64v-119q0 -53 -9.5 -74t-43.5 -21q-32 0 -46.5 20.5t-14.5 74.5v172q0 37 -15.5 57.5t-39 30.5t-50.5 12.5t-50 2.5
q-16 0 -37 -9.5t-30 -30.5q-6 7 -21.5 13t-37.5 10.5t-49 7t-56 2.5q-24 0 -56.5 -8.5t-61.5 -26.5t-49.5 -46.5t-20.5 -68.5v-127q0 -38 14 -59t39 -31.5t58.5 -13t71.5 -2.5q33 0 63.5 7.5t54 22.5t38 36t14.5 48v183q0 35 17 52.5t31 17.5q17 0 27 -6t14.5 -21.5t5.5 -41
t1 -64.5v-113q0 -28 5.5 -50.5t24.5 -38t56 -23.5t100 -8q14 0 28 0.5t25 1.5v-199q0 -49 17.5 -68.5t68.5 -19.5h81q36 0 62 4t43 15.5t25 32t8 52.5q0 48 -11.5 74t-32.5 38t-49.5 14t-61.5 2v-16q21 0 34 -5.5t20 -18.5t9 -34.5t2 -53.5q0 -48 -9.5 -70.5t-38.5 -22.5
q-23 0 -32.5 26.5t-9.5 77.5zM281 395q0 -52 -10.5 -77.5t-35.5 -25.5q-38 0 -48.5 26t-10.5 77v158q0 14 4.5 28.5t12.5 26.5t20 20t27 8q27 0 34 -14t7 -47v-180z" />
    <glyph glyph-name="uni121D" unicode="&#x121d;" horiz-adv-x="919" 
d="M182 64v30q0 28 7 43.5t19 22.5t28 8t34 1q42 0 68.5 15t41.5 40.5t20.5 58t5.5 68.5v217q0 18 5 31t12 21.5t15.5 13t14.5 4.5q17 0 27 -6t15 -21.5t6 -41t1 -64.5v-113q0 -28 5 -50.5t24 -38t56 -23.5t101 -8q12 0 41.5 5t60 18t53.5 35.5t23 57.5v120q0 56 -13 86.5
t-34 44.5t-48.5 16.5t-56.5 2.5q-34 0 -51 -6.5t-31 -23.5l8 -21q11 12 22 19t26 7q13 0 22.5 -5.5t16.5 -19.5t10.5 -39t3.5 -64v-119q0 -53 -9.5 -74t-43.5 -21q-33 0 -47 20.5t-14 74.5v172q0 37 -15.5 57.5t-39 30.5t-50.5 12.5t-51 2.5q-16 0 -37 -9.5t-29 -30.5
q-6 7 -21.5 13t-37.5 10.5t-49 7t-56 2.5q-24 0 -57 -8.5t-62 -26.5t-49.5 -46.5t-20.5 -68.5v-113q0 -38 14.5 -59t39.5 -31.5t58 -12.5t71 -2q19 0 26 0.5t11 1.5q0 -27 -12.5 -45t-33 -29t-45.5 -15.5t-50 -4.5q-37 0 -55.5 -24.5t-18.5 -62.5v-45q0 -44 16.5 -59.5
t47.5 -15.5t46 16t15 61zM282 406q0 -52 -10.5 -77.5t-36.5 -25.5q-37 0 -47.5 26t-10.5 77v147q0 14 4.5 28.5t12.5 26.5t20 20t27 8q27 0 34 -14t7 -47v-169z" />
    <glyph glyph-name="uni121E" unicode="&#x121e;" horiz-adv-x="919" 
d="M406 568q0 18 5 31t12 21.5t15.5 13t14.5 4.5q17 0 27 -6t15 -21.5t6 -41t1 -64.5v-113q0 -28 5 -50.5t24 -38t56 -23.5t101 -8q12 0 41.5 5t60 18t53.5 35.5t23 57.5v120q0 56 -13 86.5t-34 44.5t-48.5 16.5t-56.5 2.5q-34 0 -51 -6.5t-31 -23.5l8 -21q11 12 22 19t26 7
q13 0 22.5 -5.5t16.5 -19.5t10.5 -39t3.5 -64v-119q0 -53 -9.5 -74t-43.5 -21q-33 0 -47 20.5t-14 74.5v172q0 37 -15.5 57.5t-39 30.5t-50.5 12.5t-51 2.5q-16 0 -37 -9.5t-29 -30.5q-6 7 -21.5 13t-37.5 10.5t-49 7t-56 2.5q-24 0 -57 -8.5t-62 -26.5t-49.5 -46.5
t-20.5 -68.5v-113q0 -38 14.5 -59t39.5 -31.5t58 -12.5t71 -2h47v-227q0 -44 16 -59t47 -15t46 15t15 59v509zM282 406q0 -52 -10.5 -77.5t-36.5 -25.5q-37 0 -47.5 26t-10.5 77v147q0 14 4.5 28.5t12.5 26.5t20 20t27 8q27 0 34 -14t7 -47v-169z" />
    <glyph glyph-name="uni121F" unicode="&#x121f;" horiz-adv-x="1010" 
d="M878 54v-42q0 -22 17 -38.5t45 -16.5q29 0 45.5 16.5t16.5 37.5v59h-137v427q0 55 -13 87t-34 48.5t-48.5 21t-55.5 4.5q-35 0 -52 -6.5t-30 -23.5l7 -21q12 12 23 19t25 7q13 0 23 -5.5t16.5 -19.5t10 -39t3.5 -64v-119q0 -53 -9.5 -74t-43.5 -21q-32 0 -46.5 20.5
t-14.5 74.5v172q0 37 -15.5 57.5t-39 30.5t-50.5 12.5t-50 2.5q-16 0 -37 -9.5t-30 -30.5q-6 7 -21.5 13t-37.5 10.5t-49 7t-56 2.5q-24 0 -56.5 -8.5t-61.5 -26.5t-49.5 -46.5t-20.5 -68.5v-125q0 -38 14 -59t39 -31.5t58.5 -13t71.5 -2.5q33 0 63.5 7.5t54 22.5t38 36
t14.5 48v181q0 35 17 52.5t31 17.5q17 0 27 -6t14.5 -21.5t5.5 -41t1 -64.5v-113q0 -28 5.5 -50.5t24.5 -38t56 -23.5t100 -8q14 0 28 0.5t25 1.5v-204h-143v-59q0 -23 16.5 -38.5t45.5 -15.5q28 0 45 16t17 39v42h157zM281 397q0 -52 -10.5 -78.5t-35.5 -26.5
q-38 0 -48.5 27t-10.5 78v156q0 14 4.5 28.5t12.5 26.5t20 20t27 8q27 0 34 -14t7 -47v-178z" />
    <glyph glyph-name="uni1220" unicode="&#x1220;" horiz-adv-x="741" 
d="M52 497q0 49 18.5 68.5t49.5 19.5q29 0 43 -19.5t14 -68.5v-327q0 -32 17.5 -55t44.5 -23q35 0 51 45t16 133v242q0 51 15 69.5t46 18.5q29 0 46 -18.5t17 -69.5v-251q0 -37 20.5 -58t56.5 -21q6 0 16 3.5t19 16.5t15.5 38.5t6.5 68.5v203q0 51 18 70t45 19q28 0 45 -19
t17 -70v-143q0 -61 -15.5 -100.5t-41 -63t-58.5 -32.5t-68 -9q-23 0 -47 10t-29 34q-9 -45 -31 -71.5t-52.5 -40t-68 -17t-76.5 -3.5q-19 0 -45 3.5t-49 16.5t-39.5 37t-16.5 65v299z" />
    <glyph glyph-name="uni1221" unicode="&#x1221;" horiz-adv-x="860" 
d="M728 408v-47q0 -30 16.5 -45t46.5 -15q28 0 44.5 14.5t16.5 44.5v65h-163v87q0 51 -17 70t-45 19q-27 0 -45 -19t-18 -70v-203q0 -43 -6.5 -68.5t-15.5 -38.5t-19 -16.5t-16 -3.5q-36 0 -56.5 21t-20.5 58v251q0 51 -17 69.5t-46 18.5q-31 0 -46 -18.5t-15 -69.5v-242
q0 -88 -16 -133t-51 -45q-27 0 -44.5 23t-17.5 55v327q0 49 -14 68.5t-43 19.5q-31 0 -49.5 -19.5t-18.5 -68.5v-299q0 -41 16.5 -65t39.5 -37t49 -16.5t45 -3.5q39 0 76.5 3.5t68 17t52.5 40t31 71.5q5 -24 29 -34t47 -10q35 0 68 9t58.5 32.5t41 63t15.5 100.5v39h39z" />
    <glyph glyph-name="uni1222" unicode="&#x1222;" horiz-adv-x="863" 
d="M597 -7h113v-55h93q18 0 36 17t18 46q0 15 -5 26.5t-13 19.5t-17.5 12t-18.5 4h-93v-54h-22q-17 0 -23 10.5t-6 46.5v505q0 51 -16 69.5t-46 18.5q-26 0 -44.5 -19t-18.5 -69v-149q0 -24 -6 -39.5t-15 -23.5t-18.5 -11t-16.5 -3q-27 0 -43 15.5t-21 29.5v181
q0 50 -17 68.5t-45 18.5q-32 0 -47 -18.5t-15 -68.5v-137q0 -44 -2.5 -71.5t-9 -43t-17.5 -21.5t-28 -6q-26 0 -41 22.5t-15 55.5v185q0 51 -14 70t-43 19q-31 0 -49.5 -19t-18.5 -70v-157q0 -41 16.5 -65.5t39.5 -37t49 -16.5t45 -4q37 0 73 6t65 17t49 26t25 32
q7 -12 23 -20.5t42 -8.5q13 0 27.5 2.5t27.5 6.5v-287q0 -28 18.5 -42t44.5 -14z" />
    <glyph glyph-name="uni1223" unicode="&#x1223;" horiz-adv-x="712" 
d="M598 -16q61 0 61 77v510q0 51 -16 69.5t-46 18.5q-26 0 -44.5 -19t-18.5 -69v-149q0 -24 -6 -39.5t-15 -23.5t-18.5 -11t-16.5 -3q-27 0 -43 15.5t-21 29.5v181q0 50 -17 68.5t-45 18.5q-32 0 -47 -18.5t-15 -68.5v-137q0 -44 -2.5 -71.5t-9 -43t-17.5 -21.5t-28 -6
q-26 0 -41 22.5t-15 55.5v185q0 51 -14 70t-43 19q-31 0 -49.5 -19t-18.5 -70v-157q0 -41 16.5 -65.5t39.5 -37t49 -16.5t45 -4q37 0 73 6t65 17t49 26t25 32q7 -12 23 -20.5t42 -8.5q13 0 27.5 2.5t27.5 6.5v-276q0 -42 17 -59t47 -17z" />
    <glyph glyph-name="uni1224" unicode="&#x1224;" horiz-adv-x="846" 
d="M659 99v472q0 51 -16 69.5t-46 18.5q-26 0 -44.5 -19t-18.5 -69v-149q0 -24 -6 -39.5t-15 -23.5t-18.5 -11t-16.5 -3q-27 0 -43 15.5t-21 29.5v181q0 50 -17 68.5t-45 18.5q-32 0 -47 -18.5t-15 -68.5v-137q0 -44 -2.5 -71.5t-9 -43t-17.5 -21.5t-28 -6q-26 0 -41 22.5
t-15 55.5v185q0 51 -14 70t-43 19q-31 0 -49.5 -19t-18.5 -70v-157q0 -41 16.5 -65.5t39.5 -37t49 -16.5t45 -4q37 0 73 6t65 17t49 26t25 32q7 -12 23 -20.5t42 -8.5q13 0 27.5 2.5t27.5 6.5v-265q0 -48 18 -67.5t69 -19.5h80q37 0 63 4t42.5 15.5t24.5 32t8 53.5
q0 47 -12 73t-32.5 39t-48.5 15.5t-61 2.5v-15q42 0 54 -27.5t12 -87.5q0 -48 -10 -71t-40 -23q-23 0 -32.5 26.5t-9.5 77.5z" />
    <glyph glyph-name="uni1225" unicode="&#x1225;" horiz-adv-x="747" 
d="M177 583q0 76 -58 76q-31 0 -49 -17t-18 -65v-517q0 -42 17 -59t48 -17q28 0 44 19t16 58v275q15 -26 37.5 -36t47.5 -10q26 0 53.5 3t52.5 11t45 22.5t31 38.5q5 -16 24.5 -24t42.5 -8q35 0 68 7.5t58.5 25.5t41 48t15.5 75v102q-5 69 -63 69q-27 0 -44.5 -16.5
t-17.5 -64.5v-140q0 -29 -6 -47t-15 -27.5t-19 -12.5t-18 -3q-28 0 -47.5 15t-19.5 41v179q0 76 -60 76q-31 0 -48 -17.5t-17 -63.5v-140q0 -34 -5.5 -57t-14.5 -37.5t-19.5 -21t-20.5 -6.5q-28 0 -47 16t-35 41v209z" />
    <glyph glyph-name="uni1226" unicode="&#x1226;" horiz-adv-x="743" 
d="M233 328q-26 0 -41 22t-15 55v157q0 48 -14 67.5t-43 19.5q-31 0 -49.5 -19.5t-18.5 -67.5v-129q0 -41 19.5 -67t47 -40t59 -19t55.5 -5q20 0 40 6.5t37 11.5v-260q0 -42 16 -59t47 -17q28 0 44.5 19t16.5 58v285q22 -36 75 -36q30 0 62 7.5t59 21.5t44 35.5t17 50.5v159
q0 76 -60 76q-31 0 -48 -17.5t-17 -63.5v-120q0 -34 -6.5 -57t-15.5 -37.5t-19.5 -21t-18.5 -6.5q-23 0 -40 10t-32 30v206q0 76 -59 76q-31 0 -48 -17t-17 -65v-233q-18 -8 -39.5 -12t-37.5 -4z" />
    <glyph glyph-name="uni1227" unicode="&#x1227;" horiz-adv-x="802" 
d="M669 44v-42q0 -22 17 -38.5t45 -16.5q29 0 45.5 16.5t16.5 37.5v59h-134v511q0 51 -16 69.5t-46 18.5q-26 0 -44.5 -19t-18.5 -69v-149q0 -24 -6 -39.5t-15 -23.5t-18.5 -11t-16.5 -3q-27 0 -43 15.5t-21 29.5v181q0 50 -17 68.5t-45 18.5q-32 0 -47 -18.5t-15 -68.5
v-137q0 -44 -2.5 -71.5t-9 -43t-17.5 -21.5t-28 -6q-26 0 -41 22.5t-15 55.5v185q0 51 -14 70t-43 19q-31 0 -49.5 -19t-18.5 -70v-157q0 -41 16.5 -65.5t39.5 -37t49 -16.5t45 -4q37 0 73 6t65 17t49 26t25 32q7 -12 23 -20.5t42 -8.5q13 0 27.5 2.5t27.5 6.5v-276h-138
v-59q0 -23 16.5 -38.5t45.5 -15.5q28 0 45 16t17 39v42h149z" />
    <glyph glyph-name="uni1228" unicode="&#x1228;" horiz-adv-x="506" 
d="M434 0q18 0 36 17t18 46q0 15 -5 26.5t-13 19.5t-17.5 12t-18.5 4h-84v-104h-117q-43 0 -55 19.5t-12 53.5v80q0 26 2 52.5t10 51.5t25.5 48t47.5 41l156 108v116q0 38 -14 55.5t-43 17.5q-27 0 -47.5 -18t-20.5 -53v-129l-158 -113q-22 -18 -37.5 -33t-26 -34t-15.5 -45
t-5 -66v-87q0 -46 25 -66t71 -20h298z" />
    <glyph glyph-name="uni1229" unicode="&#x1229;" horiz-adv-x="585" 
d="M413 521l-152 -91q-30 -16 -47.5 -30.5t-26.5 -29.5t-11.5 -32t-2.5 -38q0 -32 3 -53t8.5 -33.5t14 -17.5t20.5 -5h313v-62q0 -30 -16.5 -43.5t-45.5 -13.5t-46 14t-17 44v39h-46v-105q0 -45 -14.5 -63t-43.5 -18t-47 18.5t-18 60.5v107q-63 0 -100 3t-56 16t-24.5 40
t-5.5 74q0 56 23 86t56 49l159 72v89q0 34 16.5 50t43.5 16q28 0 45.5 -15.5t17.5 -50.5v-77z" />
    <glyph glyph-name="uni122A" unicode="&#x122a;" horiz-adv-x="535" 
d="M356 100q0 -48 -12.5 -63.5t-44.5 -15.5h-55q-43 0 -55 19.5t-12 53.5v80q0 26 2 52.5t10 51.5t25.5 48t47.5 41l156 108v116q0 38 -14 55.5t-43 17.5q-27 0 -47.5 -18t-20.5 -53v-129l-158 -113q-22 -18 -37.5 -33t-26 -34t-15.5 -45t-5 -66v-87q0 -46 25 -66t71 -20
h233q26 0 45 3t31.5 13.5t18.5 31t6 56.5v77q0 31 -17.5 49.5t-42 28.5t-50 12.5t-41.5 2.5l-29 -20q19 0 30.5 -4.5t16.5 -13.5t6.5 -23t1.5 -33v-80z" />
    <glyph glyph-name="uni122B" unicode="&#x122b;" horiz-adv-x="575" 
d="M351 263q-19 0 -33 -3t-23.5 -13t-14 -28.5t-4.5 -49.5v-78q0 -35 -10.5 -52.5t-45.5 -17.5q-29 0 -38.5 17.5t-9.5 55.5v80q0 26 2 52.5t10 51.5t25.5 48t47.5 41l156 108v115q0 38 -14 55.5t-43 17.5q-27 0 -47.5 -18t-20.5 -53v-128l-158 -113q-22 -18 -37.5 -33
t-26 -34t-15.5 -45t-5 -66v-87q0 -46 25 -66t71 -20h205q22 0 30.5 19.5t8.5 79.5v70q0 29 1.5 45t7.5 23.5t17 9t30 1.5v-60q0 -55 61 -55q64 0 64 54v60q0 10 -2.5 13t-15.5 3h-198z" />
    <glyph glyph-name="uni122C" unicode="&#x122c;" horiz-adv-x="500" 
d="M375 0q58 0 85.5 18t27.5 75v73q0 30 -4.5 48.5t-16.5 28.5t-34 13t-58 3q-34 0 -55.5 -4.5t-34 -15t-17 -28.5t-4.5 -45v-145h-48q-21 0 -33 5t-17.5 14.5t-6.5 23t-1 30.5v80q0 26 2 52.5t10 51.5t25.5 48t47.5 41l156 108v116q0 38 -14 55.5t-43 17.5q-27 0 -47.5 -18
t-20.5 -53v-129l-158 -113q-22 -18 -37.5 -33t-26 -34t-15.5 -45t-5 -66v-87q0 -46 25 -66t71 -20h247zM408 63q0 -20 -5 -34.5t-26 -14.5q-20 0 -26 15t-6 35v140q0 14 6 27.5t26 13.5q22 0 26.5 -13t4.5 -27v-142z" />
    <glyph glyph-name="uni122D" unicode="&#x122d;" horiz-adv-x="514" 
d="M429 0q18 0 36 17t18 46q0 15 -5 26.5t-13 19.5t-17.5 12t-18.5 4h-84v-104h-69q-35 0 -55 5.5t-29.5 19.5t-12 38t-2.5 60v322q0 45 4.5 76t15.5 50t31 27.5t51 8.5h63v-62q0 -31 19.5 -51t51.5 -20q33 0 51.5 19.5t18.5 50.5v62q0 11 -4.5 14t-14.5 3h-256
q-49 0 -79.5 -4.5t-47.5 -22.5t-23 -53.5t-6 -97.5v-340q0 -45 8 -70t21.5 -37.5t30.5 -15.5t34 -3h283z" />
    <glyph glyph-name="uni122E" unicode="&#x122e;" horiz-adv-x="528" 
d="M266 609v-94q0 -22 4.5 -36.5t17 -22.5t35.5 -11.5t59 -3.5q42 0 65.5 4t35 16t14.5 34t3 58q0 28 -5 46t-14 28t-23 13.5t-32 3.5h-180q-71 0 -110 -4.5t-57.5 -22.5t-22.5 -53.5t-4 -97.5v-340q0 -45 8 -70t21.5 -37.5t30.5 -15.5t34 -3h283q18 0 36 17t18 46
q0 15 -5 26.5t-13 19.5t-17.5 12t-18.5 4h-84v-104h-69q-35 0 -55 5.5t-29.5 19.5t-12 38t-2.5 60v322q0 45 1 76t6.5 50t16 27.5t30.5 8.5h21q14 -1 14 -19zM416 514q0 -23 -6 -40.5t-28 -17.5q-23 0 -27 18.5t-4 40.5v64q0 18 6 33.5t27 15.5q24 0 28 -15t4 -33v-66z" />
    <glyph glyph-name="uni122F" unicode="&#x122f;" horiz-adv-x="599" 
d="M434 581h-176v37q0 20 -16 34t-42 14q-27 0 -42.5 -14t-15.5 -34v-51h151v-103l-158 -113q-22 -18 -37.5 -33t-26 -34t-15.5 -45t-5 -66v-87q0 -46 25 -66t71 -20h216q22 0 30.5 19.5t8.5 79.5v70q0 29 1.5 45t7.5 23.5t17 9t30 1.5v-60q0 -55 61 -55q64 0 64 54v60
q0 10 -2.5 13t-15.5 3h-198q-19 0 -35 -3t-27 -13t-17.5 -28.5t-6.5 -49.5v-78q0 -35 -10.5 -52.5t-45.5 -17.5q-29 0 -38.5 17.5t-9.5 55.5v80q0 26 2 52.5t10 51.5t25.5 48t47.5 41l156 108v92h133v51q0 19 -15.5 33.5t-42.5 14.5q-26 0 -42.5 -14.5t-16.5 -33.5v-37z" />
    <glyph glyph-name="uni1230" unicode="&#x1230;" horiz-adv-x="554" 
d="M214 513q-40 -8 -70 -21.5t-50.5 -38t-31 -63.5t-10.5 -98v-231q0 -45 16 -61t46 -16t46.5 19.5t16.5 57.5v256q0 102 22.5 144.5t77.5 42.5q56 0 78 -42.5t22 -144.5v-256q0 -45 15.5 -61t46.5 -16q29 0 46 19.5t17 57.5v231q0 57 -10 97t-30 65.5t-50.5 39.5t-72.5 20
v90q0 59 -61 59q-27 0 -45.5 -16t-18.5 -43v-91z" />
    <glyph glyph-name="uni1231" unicode="&#x1231;" horiz-adv-x="671" 
d="M502 313v12q0 48 -10.5 82t-31.5 56t-51.5 34t-69.5 18v90q0 59 -62 59q-27 0 -45 -16t-18 -43v-91q-40 -8 -70 -21.5t-50.5 -38t-31 -63.5t-10.5 -98v-232q0 -45 16.5 -61t46.5 -16q62 0 62 77v257q0 102 22.5 144.5t77.5 42.5q56 0 78 -42.5t22 -144.5v-257
q0 -45 15.5 -61t46.5 -16q29 0 46 19.5t17 57.5v235h36v-47q0 -31 17.5 -45.5t46.5 -14.5q61 0 61 59v65h-161z" />
    <glyph glyph-name="uni1232" unicode="&#x1232;" horiz-adv-x="705" 
d="M550 -9v-55h94q17 0 35 17t18 46q0 30 -18.5 46t-34.5 16h-94v-54h-21q-17 0 -22 11t-5 46v229q0 57 -10 97t-30 65.5t-50.5 39.5t-72.5 20v90q0 59 -62 59q-27 0 -45 -16t-18 -43v-91q-40 -8 -70 -21.5t-50.5 -38t-31 -63.5t-10.5 -98v-235q0 -45 16.5 -61t46.5 -16
q62 0 62 77v260q0 102 22.5 144.5t77.5 42.5q56 0 78 -42.5t22 -144.5v-270q0 -29 18.5 -43t44.5 -14h110z" />
    <glyph glyph-name="uni1233" unicode="&#x1233;" horiz-adv-x="546" 
d="M204 514q-80 -16 -121 -60.5t-41 -119.5v-130q0 -45 16.5 -61t46.5 -16q62 0 62 77v114q0 102 22.5 144.5t77.5 42.5q56 0 78 -42.5t22 -144.5v-254q0 -45 15.5 -61t46.5 -16q29 0 46 19.5t17 57.5v229q0 57 -10 97t-30 65.5t-50.5 39.5t-72.5 20v90q0 59 -62 59
q-27 0 -45 -16t-18 -43v-91z" />
    <glyph glyph-name="uni1234" unicode="&#x1234;" horiz-adv-x="689" 
d="M502 104v190q0 57 -10 97t-30 65.5t-50.5 39.5t-72.5 20v89q0 60 -62 60q-27 0 -45 -16t-18 -44v-90q-40 -8 -70 -21.5t-50.5 -38.5t-31 -64t-10.5 -97v-232q0 -45 16.5 -61t46.5 -16q62 0 62 77v257q0 102 22.5 144.5t77.5 42.5q56 0 78 -42.5t22 -144.5v-242
q0 -49 17.5 -68.5t68.5 -19.5h81q36 0 62 4t42.5 15.5t24.5 32t8 52.5q0 47 -11.5 73.5t-32.5 39.5t-49 16t-61 3v-16q42 0 53.5 -27.5t11.5 -88.5q0 -48 -10 -70.5t-38 -22.5q-23 0 -32.5 27.5t-9.5 76.5z" />
    <glyph glyph-name="uni1235" unicode="&#x1235;" horiz-adv-x="554" 
d="M214 504q-40 -9 -70 -22.5t-50.5 -37.5t-31 -63t-10.5 -99v-221q0 -45 16 -61t46 -16t46.5 19.5t16.5 57.5v248q0 101 22.5 143t77.5 42q56 0 78 -42t22 -143v-248q0 -45 15.5 -61t46.5 -16q29 0 46 19.5t17 57.5v221q0 58 -10 98t-30 65.5t-50.5 39.5t-72.5 21l-37 89
l-14 31.5t-14 21.5t-19 12t-27 4q-24 0 -41 -16t-17 -37q0 -5 0.5 -9t1.5 -8z" />
    <glyph glyph-name="uni1236" unicode="&#x1236;" horiz-adv-x="535" 
d="M214 514q-40 -8 -70 -21.5t-50.5 -38t-31 -63.5t-10.5 -98v-231q0 -45 16 -61t46 -16t46.5 19.5t16.5 57.5v256q0 102 22.5 144.5t77.5 42.5q56 0 78 -42.5t22 -144.5v-114q0 -45 15.5 -61t46.5 -16q29 0 46 19.5t17 57.5v145q0 79 -39.5 116.5t-123.5 49.5v90
q0 59 -62 59q-27 0 -45 -16t-18 -43v-91z" />
    <glyph glyph-name="uni1237" unicode="&#x1237;" horiz-adv-x="630" 
d="M503 28v-42q0 -22 17 -38.5t45 -16.5q29 0 45.5 16.5t16.5 37.5v59h-134v249q0 57 -10 97t-30 65.5t-50.5 39.5t-72.5 20v90q0 59 -62 59q-27 0 -45 -16t-18 -43v-91q-40 -8 -69 -20.5t-47.5 -33.5t-27.5 -51.5t-9 -73.5v-125q0 -43 16.5 -60t46.5 -17q62 0 62 77v106
q0 51 4 87t14 58.5t28 33t45 10.5q56 0 78 -42.5t22 -144.5v-274h-138v-59q0 -23 16.5 -38.5t45.5 -15.5q28 0 45 16t17 39v42h149z" />
    <glyph glyph-name="uni1238" unicode="&#x1238;" horiz-adv-x="548" 
d="M354 588h-168v42q0 23 -17 39t-45 16q-29 0 -45.5 -15.5t-16.5 -38.5v-59h146v-64q-39 -8 -68 -21.5t-48.5 -38.5t-29 -64t-9.5 -97v-227q0 -45 16.5 -61t47.5 -16q61 0 61 77v252q0 51 4.5 86.5t15 58t28.5 32.5t45 10q28 0 46.5 -10t29 -32.5t14.5 -58t4 -86.5v-252
q0 -45 15.5 -61t46.5 -16q28 0 45.5 19.5t17.5 57.5v265q0 50 -9 82.5t-28 53t-48.5 31.5t-71.5 17v63h145v59q0 21 -16.5 37.5t-45.5 16.5q-28 0 -45 -16.5t-17 -38.5v-42z" />
    <glyph glyph-name="uni1239" unicode="&#x1239;" horiz-adv-x="657" 
d="M353 588h-168v42q0 23 -17 39t-45 16q-29 0 -45.5 -15.5t-16.5 -38.5v-59h146v-64q-39 -8 -68 -21.5t-48.5 -38.5t-29 -64t-9.5 -97v-227q0 -45 16.5 -61t47.5 -16q61 0 61 77v252q0 51 4.5 86.5t15 58t28.5 32.5t45 10q28 0 46.5 -10t29 -32.5t14.5 -58t4 -86.5v-252
q0 -45 15.5 -61t46.5 -16q28 0 45.5 19.5t17.5 57.5v241h33v-49q0 -30 17.5 -44.5t45.5 -14.5q62 0 62 58v65h-158v9q0 50 -9 82.5t-28 53t-48.5 31.5t-71.5 17v63h145v59q0 21 -16.5 37.5t-45.5 16.5q-28 0 -45 -16.5t-17 -38.5v-42z" />
    <glyph glyph-name="uni123A" unicode="&#x123a;" horiz-adv-x="697" 
d="M541 -17v-55h93q18 0 36.5 17t18.5 46q0 15 -5.5 26.5t-13.5 19.5t-17.5 12t-18.5 4h-93v-54h-23q-17 0 -22.5 11t-5.5 46v269q0 50 -9 82.5t-28 53t-48.5 31.5t-71.5 17v63h145v59q0 21 -16.5 37.5t-45.5 16.5q-28 0 -45 -16.5t-17 -38.5v-42h-168v42q0 23 -17 39
t-45 16q-29 0 -45.5 -15.5t-16.5 -38.5v-59h146v-64q-39 -8 -68 -21.5t-48.5 -38.5t-29 -64t-9.5 -97v-227q0 -45 16.5 -61t47.5 -16q61 0 61 77v252q0 51 4.5 86.5t15 58t28.5 32.5t45 10q28 0 46.5 -10t29 -32.5t14.5 -58t4 -86.5v-272q0 -29 18.5 -43t44.5 -14h113z" />
    <glyph glyph-name="uni123B" unicode="&#x123b;" horiz-adv-x="528" 
d="M341 588h-168v42q0 23 -17 39t-45 16q-29 0 -45.5 -15.5t-16.5 -38.5v-59h146v-64q-39 -8 -68 -21.5t-48.5 -38.5t-29 -64t-9.5 -97v-73q0 -36 17.5 -56.5t48.5 -20.5t45 21t14 56v98q0 51 4.5 86.5t15 58t28.5 32.5t45 10q28 0 46.5 -10t29 -32.5t14.5 -58t4 -86.5v-252
q0 -45 15.5 -61t46.5 -16q28 0 45.5 19.5t17.5 57.5v265q0 50 -9 82.5t-28 53t-48.5 31.5t-71.5 17v63h145v59q0 21 -16.5 37.5t-45.5 16.5q-28 0 -45 -16.5t-17 -38.5v-42z" />
    <glyph glyph-name="uni123C" unicode="&#x123c;" horiz-adv-x="675" 
d="M490 99v226q0 50 -9 82.5t-28 53t-48.5 31.5t-71.5 17v63h145v59q0 21 -16.5 37.5t-45.5 16.5q-28 0 -45 -16.5t-17 -38.5v-42h-168v42q0 23 -17 39t-45 16q-29 0 -45.5 -15.5t-16.5 -38.5v-59h146v-64q-39 -8 -68 -21.5t-48.5 -38.5t-29 -64t-9.5 -97v-227
q0 -45 16.5 -61t47.5 -16q61 0 61 77v252q0 51 4.5 86.5t15 58t28.5 32.5t45 10q28 0 46.5 -10t29 -32.5t14.5 -58t4 -86.5v-240q0 -49 17.5 -69t67.5 -20h81q37 0 63.5 4.5t43 16t24 32t7.5 52.5q0 47 -11.5 73.5t-32 39.5t-49 16t-62.5 3v-17q42 0 54.5 -27t12.5 -88
q0 -48 -10 -70.5t-40 -22.5q-22 0 -31.5 27.5t-9.5 76.5z" />
    <glyph glyph-name="uni123D" unicode="&#x123d;" horiz-adv-x="549" 
d="M315 585h-157v42q0 23 -17 39t-45 16q-29 0 -45.5 -15.5t-16.5 -38.5v-59h145l36 -66q-40 -9 -70 -22.5t-50.5 -37.5t-31 -63t-10.5 -99v-221q0 -45 16 -61t46 -16t46.5 19.5t16.5 57.5v248q0 101 22.5 143t77.5 42q56 0 78 -42t22 -143v-248q0 -45 15.5 -61t46.5 -16
q29 0 46 19.5t17 57.5v221q0 58 -10 98t-30 65.5t-50.5 39.5t-72.5 21l-31 64h130v59q0 21 -16.5 37.5t-45.5 16.5q-28 0 -45 -16.5t-17 -38.5v-42z" />
    <glyph glyph-name="uni123E" unicode="&#x123e;" horiz-adv-x="529" 
d="M354 588h-168v42q0 23 -17 39t-45 16q-29 0 -45.5 -15.5t-16.5 -38.5v-59h146v-64q-39 -8 -68 -21.5t-48.5 -38.5t-29 -64t-9.5 -97v-227q0 -45 16.5 -61t47.5 -16q61 0 61 77v252q0 51 4.5 86.5t15 58t28.5 32.5t45 10q28 0 46.5 -10t29 -32.5t14.5 -58t4 -86.5v-98
q0 -45 18 -61t49 -16q58 0 58 77v111q0 50 -9 82.5t-28 53t-48.5 31.5t-71.5 17v63h145v59q0 21 -16.5 37.5t-45.5 16.5q-28 0 -45 -16.5t-17 -38.5v-42z" />
    <glyph glyph-name="uni123F" unicode="&#x123f;" horiz-adv-x="617" 
d="M490 28v-42q0 -22 17 -38.5t45 -16.5q29 0 45.5 16.5t16.5 37.5v59h-134v281q0 50 -9 82.5t-28 53t-48.5 31.5t-71.5 17v63h145v59q0 21 -16.5 37.5t-45.5 16.5q-28 0 -45 -16.5t-17 -38.5v-42h-168v42q0 23 -17 39t-45 16q-29 0 -45.5 -15.5t-16.5 -38.5v-59h146v-64
q-39 -8 -68 -21.5t-48.5 -38.5t-29 -64t-9.5 -97v-73q0 -36 17.5 -56.5t48.5 -20.5t45 21t14 56v98q0 51 4.5 86.5t15 58t28.5 32.5t45 10q28 0 46.5 -10t29 -32.5t14.5 -58t4 -86.5v-268h-138v-59q0 -23 16.5 -38.5t45.5 -15.5q28 0 45 16t17 39v42h149z" />
    <glyph glyph-name="uni1240" unicode="&#x1240;" horiz-adv-x="669" 
d="M267 603q0 32 16.5 46.5t45.5 14.5q30 0 46.5 -15t16.5 -49v-98q40 0 68.5 -1t49 -3.5t35 -7t26.5 -10.5q25 -13 35 -38t10 -73q0 -46 -13 -72.5t-41 -41.5q-14 -8 -29 -13t-35 -8.5t-46 -6l-60 -5.5v-164q0 -34 -17.5 -54t-46.5 -20q-30 0 -45.5 19.5t-15.5 51.5v161
q-19 -1 -32 -1h-28q-50 0 -80.5 5t-47 19t-22 38.5t-5.5 62.5q3 46 11 74.5t30 45.5t63 26t111 16v101zM267 229v260q-54 -1 -72 -32.5t-18 -102.5q0 -66 19 -95t71 -30zM392 489v-255q28 0 46 7t28 22.5t13.5 42t3.5 65.5q0 68 -20 94q-10 12 -25 18t-46 6z" />
    <glyph glyph-name="uni1241" unicode="&#x1241;" horiz-adv-x="669" 
d="M468 155v-38q0 -30 17.5 -45t45.5 -15q62 0 62 58v56h-201v51l60 5.5t46 6t35 8.5t29 13q28 15 41 41.5t13 72.5q0 48 -10 73t-35 38q-12 6 -26.5 10.5t-35 7t-49 3.5t-68.5 1v98q0 34 -16.5 49t-46.5 15q-29 0 -45.5 -14.5t-16.5 -46.5v-101q-70 -7 -111 -16t-63 -26
t-30 -45.5t-11 -74.5q0 -38 5.5 -62t22 -37.5t47 -18.5t80.5 -5q16 0 35.5 -0.5t24.5 -0.5v-161q0 -32 18 -52t48 -20q29 0 44 20.5t15 54.5v97h76zM392 489q31 0 46 -6t25 -18q20 -26 20 -94q0 -39 -3.5 -65.5t-13.5 -42t-28 -22.5t-46 -7v255zM267 229q-52 1 -71 30
t-19 95q0 71 18 102.5t72 32.5v-260z" />
    <glyph glyph-name="uni1242" unicode="&#x1242;" horiz-adv-x="669" 
d="M330 -17h112v-55h93q18 0 36 17t18 46q0 30 -18.5 46t-35.5 16h-93v-54h-22q-18 0 -23 11t-5 46v166l60 5.5t46 6t35 8.5t29 13q28 15 41 41.5t13 72.5q0 48 -10 73t-35 38q-12 6 -26.5 10.5t-35 7t-49 3.5t-68.5 1v98q0 34 -16.5 49t-46.5 15q-29 0 -45.5 -14.5
t-16.5 -46.5v-101q-70 -7 -111 -16t-63 -26t-30 -45.5t-11 -74.5q0 -38 5.5 -62t22 -37.5t47 -18t80.5 -4.5q16 0 28.5 -1t31.5 -1v-176q0 -29 18 -43t45 -14zM392 489q31 0 46 -6t25 -18q20 -26 20 -94q0 -39 -3.5 -65.5t-13.5 -42t-28 -22.5t-46 -7v255zM267 229
q-52 1 -71 30t-19 95q0 71 18 102.5t72 32.5v-260z" />
    <glyph glyph-name="uni1243" unicode="&#x1243;" horiz-adv-x="681" 
d="M279 605v-102q-68 -7 -110 -16t-65 -26t-31 -45.5t-8 -74.5q0 -38 5.5 -63t22 -39t46.5 -19.5t80 -5.5q16 0 28.5 1.5t31.5 1.5v-106q0 -14 -2.5 -28t-11.5 -25t-25.5 -17.5t-44.5 -6.5h-143v-75q0 -29 19.5 -46.5t52.5 -17.5q32 0 51.5 17t19.5 46v59q68 0 109 10.5
t63.5 30t29.5 47t7 62.5v56q35 3 61 5.5t46 6t35 8.5t28 13q29 17 42 42.5t13 70.5q0 48 -10 73.5t-35 38.5q-12 6 -26.5 10t-35 7t-49.5 4t-69 1v98q0 34 -16 49t-47 15q-28 0 -45 -14.5t-17 -45.5zM404 489q32 0 46.5 -5.5t25.5 -17.5q20 -26 20 -94q0 -39 -4 -65.5
t-14 -42t-28 -22.5t-46 -7v254zM279 230q-51 1 -70 30t-19 95q0 71 18 102.5t71 32.5v-260z" />
    <glyph glyph-name="uni1244" unicode="&#x1244;" horiz-adv-x="669" 
d="M267 604v-85q-70 -8 -111 -17t-63 -25.5t-30 -45t-11 -74.5q0 -38 5 -62.5t21.5 -38.5t46.5 -19.5t81 -5.5q16 0 29 1t32 1v-163q0 -48 17 -67.5t69 -19.5h81q36 0 61.5 2.5t42.5 12.5t25 29.5t8 52.5q0 39 -12 62t-32.5 35.5t-48.5 16t-61 3.5v-15q21 0 34 -5
t19.5 -16.5t9 -31t2.5 -49.5q0 -48 -10 -67t-38 -19q-23 0 -32.5 26.5t-9.5 77.5v140q34 3 60 6t46 6.5t35 8.5t29 13q28 16 41 42t13 71q0 48 -10 73.5t-35 38.5q-11 6 -25.5 10t-35.5 7t-49.5 4t-68.5 1v82q0 34 -16.5 49t-46.5 15q-29 0 -45.5 -14.5t-16.5 -46.5z
M392 506q30 0 45.5 -6.5t24.5 -17.5q20 -26 20 -94q0 -39 -3 -65.5t-13 -42t-27.5 -22.5t-46.5 -7v255zM267 246q-52 2 -71 31t-19 94q0 71 18 102.5t72 33.5v-261z" />
    <glyph glyph-name="uni1245" unicode="&#x1245;" horiz-adv-x="669" 
d="M392 502v100q0 28 -18.5 42t-44.5 14h-112v55h-93q-19 0 -37 -17t-18 -46t18.5 -45.5t36.5 -16.5h93v55h22q17 0 22.5 -11t5.5 -46v-84q-70 -7 -111 -16t-63 -26t-30 -45.5t-11 -74.5q0 -38 5.5 -62.5t22 -38.5t47 -19.5t80.5 -5.5q16 0 28.5 1t31.5 1v-163q0 -32 18 -52
t48 -20q29 0 44 20.5t15 54.5v166l60 5.5t46 6t35 8.5t29 13q28 15 41 41.5t13 72.5q0 48 -10 73t-35 38q-12 6 -26.5 10.5t-35 7t-49 3.5t-68.5 1zM392 489q31 0 46 -6t25 -18q20 -26 20 -94q0 -39 -3.5 -65.5t-13.5 -42t-28 -22.5t-46 -7v255zM267 229q-52 1 -71 30
t-19 95q0 71 18 102.5t72 32.5v-260z" />
    <glyph glyph-name="uni1246" unicode="&#x1246;" horiz-adv-x="669" 
d="M331 -22q61 0 61 65v161l60 5.5t46 6.5t35 9.5t29 13.5q28 14 41 40.5t13 71.5q0 48 -10 73.5t-35 38.5q-12 6 -26.5 10.5t-35 6.5t-49 3t-68.5 1v94q0 45 1 74t5 45t12 22t22 6q25 0 36.5 -17t11.5 -66q0 -39 -7.5 -63.5t-24.5 -24.5q-7 0 -18 2t-22 8v-20
q10 -3 20 -6.5t21 -3.5q54 0 84.5 27t30.5 81q0 31 -9.5 49.5t-26.5 28.5t-41.5 13t-54.5 3q-54 0 -86.5 -6.5t-50 -24.5t-23 -50t-5.5 -82v-89q-70 -6 -111 -15t-63 -26t-30 -45.5t-11 -74.5q0 -38 5 -62.5t21.5 -38.5t47 -19.5t81.5 -5.5q16 0 28.5 1.5t31.5 1.5v-160
q0 -32 17 -47t47 -15zM392 472q30 0 45.5 -6t24.5 -18q20 -26 20 -94q0 -39 -3 -65.5t-13 -42t-27.5 -22t-46.5 -6.5v254zM267 211q-52 0 -71 30t-19 96q0 71 18 102.5t72 33.5v-262z" />
    <glyph glyph-name="uni1248" unicode="&#x1248;" horiz-adv-x="713" 
d="M445 176v-64q0 -23 4.5 -38t16 -24t32 -12.5t53.5 -3.5q39 0 60.5 3.5t32.5 14t13.5 29t2.5 49.5q0 48 -17 63.5t-51 15.5h-190v34q69 5 111 11.5t70 21.5t40.5 41t12.5 71q0 49 -10 74.5t-35 38.5q-23 12 -65.5 17t-123.5 5v77q0 34 -16 49t-47 15q-28 0 -45 -14.5
t-17 -46.5v-80q-69 -7 -111.5 -16t-67 -26t-34 -45.5t-12.5 -74.5q0 -38 7 -62.5t25.5 -38.5t50.5 -19t82 -5q26 0 36 0.5t24 0.5v-192q0 -32 17.5 -47t46.5 -15q61 0 61 64v150h21q11 -1 16.5 -4t5.5 -17zM402 509q61 0 81 -23q20 -26 20 -94q0 -39 -5 -65.5t-17 -42
t-31.5 -22.5t-47.5 -7v254zM277 250q-51 1 -75.5 30t-24.5 95q0 72 23 103t77 32v-260zM585 98q0 -21 -7 -35.5t-27 -14.5q-19 0 -23 15.5t-4 35.5v53q0 17 3.5 30t23.5 13t27 -12.5t7 -29.5v-55z" />
    <glyph glyph-name="uni124A" unicode="&#x124a;" horiz-adv-x="962" 
d="M632 350h46v51q0 45 16 61.5t47 16.5q29 0 45.5 -19t16.5 -56v-95h151v-66q0 -31 -17 -50.5t-45 -19.5q-29 0 -46 20t-17 51v47h-151v44h-47q-17 -47 -66 -66q-50 -17 -163 -24v-196q0 -66 -62 -66q-28 0 -45.5 16t-17.5 47v193l-30 -2t-30 -1q-50 0 -82 5.5t-50.5 19.5
t-25.5 39t-7 63q0 46 9.5 74t34 45.5t68.5 26.5t113 16v77q0 32 17.5 47t45.5 15q62 0 62 -65v-74q81 0 124 -4.5t66 -17.5q25 -14 34.5 -39t9.5 -73q0 -28 -4 -41zM402 511v-254q28 0 47.5 6.5t31.5 22.5t17 42.5t5 65.5q0 68 -20 94q-20 23 -81 23zM277 251v261
q-54 -2 -77 -32.5t-23 -102.5q0 -66 24.5 -96t75.5 -30z" />
    <glyph glyph-name="uni124B" unicode="&#x124b;" horiz-adv-x="689" 
d="M402 122h49q45 0 73 -6t43.5 -18.5t20.5 -33.5t5 -51v-57q0 -34 -17 -51.5t-46 -17.5t-47.5 17t-18.5 49v75q0 38 -10 58.5t-36 20.5h-203v-48q0 -30 -16.5 -50t-46.5 -20q-28 0 -44.5 19.5t-16.5 49.5v65h186v114h-13h-10q-4 0 -9 -1h-28q-50 0 -82 5t-50.5 19
t-25.5 38.5t-7 62.5q3 46 12.5 74.5t34 45.5t67 26t111.5 16v96q0 32 17 47t45 15q63 0 63 -65v-93q81 0 123.5 -5t65.5 -17q25 -13 35 -38.5t10 -74.5q0 -45 -12.5 -71t-40.5 -41t-70 -21.5t-111 -11.5v-121zM402 509v-254q28 0 47.5 7t31.5 22.5t17 42t5 65.5q0 68 -20 94
q-20 23 -81 23zM277 250v260q-54 -1 -77 -32t-23 -103q0 -66 24.5 -95t75.5 -30z" />
    <glyph glyph-name="uni124C" unicode="&#x124c;" horiz-adv-x="701" 
d="M177 0v-64q0 -29 -16.5 -44.5t-46.5 -15.5q-28 0 -45 14.5t-17 44.5v81h194q21 0 26.5 8.5t5.5 22.5v203q-20 0 -32.5 -1t-27.5 -1q-52 1 -84 6t-50 19t-24.5 38t-6.5 62q0 45 9 74t33.5 46t68.5 26t114 15v81q0 33 16 47.5t46 14.5q29 0 45.5 -15t16.5 -50v-78
q81 0 123.5 -4t66.5 -18q25 -12 35 -37.5t10 -73.5q0 -45 -13 -71.5t-42 -40.5q-26 -16 -68.5 -23t-111.5 -12v-162q0 -26 3 -41t9.5 -23.5t16 -11t22.5 -2.5q28 0 37.5 26t9.5 74q0 34 -18.5 55.5t-53.5 21.5v18h47q52 0 83 -19.5t31 -74.5q0 -36 -4 -58t-19 -35t-45 -17.5
t-81 -4.5h-263zM278 261v262q-55 -2 -77.5 -33t-22.5 -103q0 -66 23 -94.5t77 -31.5zM402 522v-254q29 0 48 6.5t30.5 22t16.5 41.5t5 66q0 69 -19 94q-20 24 -81 24z" />
    <glyph glyph-name="uni124D" unicode="&#x124d;" horiz-adv-x="937" 
d="M633 350h45v97q0 45 15.5 61.5t46.5 16.5q29 0 45.5 -19t16.5 -57v-96h128v-74q0 -59 -61 -59q-29 0 -46.5 15t-17.5 45v53h-174q-16 -45 -66 -65q-48 -17 -163 -25v-198q0 -33 -16 -48t-47 -15q-28 0 -45 14.5t-17 46.5v194q-21 0 -35 -0.5t-25 -0.5q-50 0 -82 5.5
t-50.5 19t-25.5 38t-7 62.5q0 46 9.5 74.5t34 45.5t68.5 26t113 16v78q0 32 17 48t45 16q31 0 47 -16t16 -51v-75q81 0 123.5 -5t65.5 -17q25 -13 35 -36.5t10 -71.5q0 -24 -3 -43zM402 509v-254q28 0 47.5 7t31.5 22.5t17 42t5 65.5q0 68 -20 94q-20 23 -81 23zM277 250
v260q-54 -1 -77 -32t-23 -103q0 -66 24.5 -95t75.5 -30z" />
    <glyph glyph-name="uni1250" unicode="&#x1250;" horiz-adv-x="669" 
d="M425 603h-197v42q0 23 -17 39t-45 16q-29 0 -45.5 -15.5t-16.5 -38.5v-59h163v-85q-70 -7 -111 -16t-63 -26t-30 -45.5t-11 -74.5q0 -38 5.5 -62.5t22 -38.5t47 -19.5t80.5 -5.5q16 0 28.5 1t31.5 1v-161q0 -32 18 -52t48 -20q29 0 44 20.5t15 54.5v164l60 5.5t46 6
t35 8.5t29 13q28 15 41 41.5t13 72.5q0 48 -10 73t-35 38q-12 6 -26.5 10.5t-35 7t-49 3.5t-68.5 1v85h157v59q0 21 -16.5 37.5t-45.5 16.5q-28 0 -45 -16.5t-17 -38.5v-42zM392 489q31 0 46 -6t25 -18q20 -26 20 -94q0 -39 -3.5 -65.5t-13.5 -42t-28 -22.5t-46 -7v255z
M267 229q-52 1 -71 30t-19 95q0 71 18 102.5t72 32.5v-260z" />
    <glyph glyph-name="uni1251" unicode="&#x1251;" horiz-adv-x="669" 
d="M417 603h-197v42q0 23 -17 39t-45 16q-29 0 -45.5 -15.5t-16.5 -38.5v-59h171v-85q-70 -7 -111 -16t-63 -26t-30 -45.5t-11 -74.5q0 -38 5.5 -62.5t22 -38.5t47 -19.5t80.5 -5.5q16 0 28.5 1t31.5 1v-163q0 -32 18 -52t48 -20q29 0 44 20.5t15 54.5v99h76v-38
q0 -30 17.5 -45t45.5 -15q62 0 62 58v56h-201v51l60 5.5t46 6t35 8.5t29 13q28 15 41 41.5t13 72.5q0 48 -10 73t-35 38q-12 6 -26.5 10.5t-35 7t-49 3.5t-68.5 1v85h149v59q0 21 -16.5 37.5t-45.5 16.5q-28 0 -45 -16.5t-17 -38.5v-42zM392 489q31 0 46 -6t25 -18
q20 -26 20 -94q0 -39 -3.5 -65.5t-13.5 -42t-28 -22.5t-46 -7v255zM267 229q-52 1 -71 30t-19 95q0 71 18 102.5t72 32.5v-260z" />
    <glyph glyph-name="uni1252" unicode="&#x1252;" horiz-adv-x="669" 
d="M428 603h-197v42q0 23 -17 39t-45 16q-29 0 -45.5 -15.5t-16.5 -38.5v-59h160v-85q-70 -7 -111 -16t-63 -26t-30 -45.5t-11 -74.5q0 -38 5.5 -62.5t22 -38.5t47 -19.5t80.5 -5.5q16 0 28.5 1t31.5 1v-176q0 -29 18 -43t45 -14h112v-55h93q18 0 36 17t18 46q0 30 -18.5 46
t-35.5 16h-93v-54h-22q-18 0 -23 11t-5 46v166l60 5.5t46 6t35 8.5t29 13q28 15 41 41.5t13 72.5q0 48 -10 73t-35 38q-12 6 -26.5 10.5t-35 7t-49 3.5t-68.5 1v85h160v59q0 21 -16.5 37.5t-45.5 16.5q-28 0 -45 -16.5t-17 -38.5v-42zM392 489q31 0 46 -6t25 -18
q20 -26 20 -94q0 -39 -3.5 -65.5t-13.5 -42t-28 -22.5t-46 -7v255zM267 229q-52 1 -71 30t-19 95q0 71 18 102.5t72 32.5v-260z" />
    <glyph glyph-name="uni1253" unicode="&#x1253;" horiz-adv-x="681" 
d="M435 603h-197v42q0 23 -17 39t-45 16q-29 0 -45.5 -15.5t-16.5 -38.5v-59h165v-84q-68 -7 -110 -16t-65 -26t-31 -45.5t-8 -74.5q0 -38 5.5 -62.5t22 -38.5t46.5 -19.5t80 -5.5q16 0 28.5 1t31.5 1v-106q0 -14 -2.5 -28t-11.5 -25t-25.5 -17.5t-44.5 -6.5h-143v-75
q0 -29 19.5 -46.5t52.5 -17.5q32 0 51.5 17t19.5 46v59q68 0 109 10.5t63.5 30t29.5 47t7 62.5v56q35 3 61 5.5t46 6t35 8.5t28 13q29 17 42 42.5t13 70.5q0 48 -10 73.5t-35 38.5q-12 6 -26.5 10t-35 7t-49.5 4t-69 1v84h155v59q0 21 -16.5 37.5t-45.5 16.5
q-28 0 -45 -16.5t-17 -38.5v-42zM404 489q32 0 46.5 -5.5t25.5 -17.5q20 -26 20 -94q0 -39 -4 -65.5t-14 -42t-28 -22.5t-46 -7v254zM279 230q-51 1 -70 30t-19 95q0 71 18 102.5t71 32.5v-260z" />
    <glyph glyph-name="uni1254" unicode="&#x1254;" horiz-adv-x="669" 
d="M424 604h-197v42q0 23 -17 39t-45 16q-29 0 -45.5 -15.5t-16.5 -38.5v-59h164v-92q-70 -8 -112 -15t-65 -21.5t-30.5 -41t-7.5 -73.5q0 -38 5 -63t21.5 -39t47 -19.5t81.5 -5.5q16 0 28.5 1.5t31.5 1.5v-152q0 -48 17 -67.5t69 -19.5h81q36 0 61.5 2.5t42.5 12.5t25 29.5
t8 52.5q0 35 -12 55.5t-32.5 31.5t-48.5 14t-61 3v-15q21 0 34 -3t19.5 -12t9 -26.5t2.5 -47.5q0 -48 -10 -67t-38 -19q-23 0 -32.5 26.5t-9.5 77.5v129q34 3 60 6t46 6.5t35 8.5t29 13q28 16 41 42t13 71q0 24 -2.5 40.5t-7.5 27.5t-14 19t-21 14q-11 6 -25.5 10t-35.5 7
t-49.5 4t-68.5 1v92h156v59q0 21 -16.5 37.5t-45.5 16.5q-28 0 -45 -16.5t-17 -38.5v-42zM392 483q30 0 45.5 -6.5t24.5 -17.5q10 -13 15 -30.5t5 -52.5q0 -39 -3 -65.5t-13 -42t-27.5 -22.5t-46.5 -7v244zM267 234q-52 2 -71 31t-19 94q0 36 4 59.5t14 37.5t27.5 20.5
t44.5 7.5v-250z" />
    <glyph glyph-name="uni1255" unicode="&#x1255;" horiz-adv-x="772" 
d="M334 658h-166v42q0 23 -17 39t-45 16q-29 0 -45.5 -15.5t-16.5 -38.5v-59h138q-9 -17 -9 -35q0 -31 18.5 -46.5t35.5 -15.5h93v53h22q17 0 23 -11t6 -45v-67q-71 -7 -113 -16t-65 -26t-30 -45.5t-7 -74.5q0 -38 5 -62.5t21 -38t46.5 -18.5t82.5 -5h60v-135q0 -32 18 -52
t48 -20q29 0 44 20.5t15 54.5v137q67 4 105 12q19 4 35 9.5t30 13.5q28 15 40.5 41t12.5 71q0 48 -10 73.5t-34 38.5q-12 6 -26.5 10t-35 7t-49 4t-68.5 1v83q0 29 -18.5 42.5t-44.5 13.5h-113v28h138v59q0 21 -16.5 37.5t-45.5 16.5q-28 0 -45 -16.5t-17 -38.5v-42z
M371 202q-27 1 -44.5 8.5t-28 22.5t-14.5 38.5t-4 56.5q0 70 18.5 101.5t72.5 33.5v-261zM496 462q30 0 45 -6.5t25 -17.5q20 -26 20 -94q0 -39 -3.5 -65.5t-13.5 -42t-27.5 -22t-45.5 -6.5v254z" />
    <glyph glyph-name="uni1256" unicode="&#x1256;" horiz-adv-x="669" 
d="M221 688q0 23 -17 39t-45 16q-29 0 -45.5 -15.5t-16.5 -38.5v-75h145q9 0 14 -2.5t7.5 -10.5t3 -23.5t0.5 -41.5v-86q-70 -6 -112 -15t-65 -26t-30.5 -45.5t-7.5 -74.5q0 -38 5 -60t21.5 -33.5t47 -14.5t81.5 -3q16 0 33.5 1.5t26.5 1.5v-137q0 -32 19.5 -48t48.5 -16
q57 0 57 67v138q44 0 84.5 2.5t71.5 15t49.5 39t18.5 75.5q0 48 -15 75t-43.5 39.5t-70 15.5t-95.5 3v85q0 46 1 74.5t5 45t12 22.5t22 6q25 0 36.5 -16.5t11.5 -66.5q0 -38 -7.5 -63.5t-24.5 -25.5q-7 0 -18 2t-22 10v-20l20 -8t21 -4q54 0 84.5 27.5t30.5 81.5
q0 32 -9.5 50.5t-26.5 28.5t-41.5 12.5t-54.5 2.5q-72 0 -106.5 -12t-47.5 -48h-57v54zM392 438q30 0 48 -7.5t27 -22t12 -36.5t3 -52q0 -39 -3 -63t-13 -37t-27.5 -17t-46.5 -4v239zM267 192q-26 1 -43 6.5t-27.5 17.5t-15 33t-4.5 54q0 71 18 102.5t72 33.5v-247z" />
    <glyph glyph-name="uni1258" unicode="&#x1258;" horiz-adv-x="713" 
d="M434 620h-197v42q0 23 -17 39t-45 16q-29 0 -45.5 -15.5t-16.5 -38.5v-59h164v-81q-69 -7 -113 -15.5t-68.5 -25.5t-34 -45.5t-9.5 -75.5q0 -38 7 -62.5t25.5 -38.5t50.5 -19.5t82 -5.5q26 0 34 1t13 1h13v-193q0 -32 17.5 -47t46.5 -15q61 0 61 64v151h9q11 -1 16.5 -4
t5.5 -17v-64q0 -23 4.5 -38t16 -24t32 -12.5t53.5 -3.5q39 0 60.5 3.5t32.5 14t13.5 29t2.5 49.5q0 48 -17 63.5t-51 15.5h-178v34q69 5 111 11.5t70 21.5t40.5 41t12.5 71q0 49 -10 74.5t-35 38.5q-23 12 -65.5 17t-123.5 5v81h156v59q0 21 -16.5 37.5t-45.5 16.5
q-28 0 -45 -16.5t-17 -38.5v-42zM402 509q61 0 81 -23q20 -26 20 -94q0 -39 -5 -65.5t-17 -42t-31.5 -22.5t-47.5 -7v254zM277 250q-51 1 -75.5 30t-24.5 95q0 72 23 103t77 32v-260zM573 98q0 -21 -7 -35.5t-27 -14.5q-19 0 -23 15.5t-4 35.5v53q0 17 3.5 30t23.5 13
t27 -12.5t7 -29.5v-55z" />
    <glyph glyph-name="uni125A" unicode="&#x125a;" horiz-adv-x="954" 
d="M430 619h-197v42q0 23 -17 39t-45 16q-29 0 -45.5 -15.5t-16.5 -38.5v-59h168v-78q-69 -7 -113 -16t-68.5 -26t-34 -45.5t-9.5 -74.5q0 -38 7 -62.5t25.5 -38.5t50.5 -19t82 -5q26 0 36 0.5t24 0.5v-194q0 -31 17.5 -47t45.5 -16q62 0 62 66v197q113 7 163 24
q49 19 66 66h43v-44h147v-47q0 -31 17 -51t46 -20q28 0 45 19.5t17 50.5v66h-147v95q0 37 -16.5 56t-45.5 19q-31 0 -47 -16.5t-16 -61.5v-51h-42q4 13 4 41q0 48 -9.5 73t-34.5 39q-23 13 -66 17.5t-124 4.5v78h152v59q0 21 -16.5 37.5t-45.5 16.5q-28 0 -45 -16.5
t-17 -38.5v-42zM402 511q61 0 81 -23q20 -26 20 -94q0 -39 -5 -65.5t-17 -42.5t-31.5 -22.5t-47.5 -6.5v254zM277 251q-51 0 -75.5 30t-24.5 96q0 72 23 102.5t77 32.5v-261z" />
    <glyph glyph-name="uni125B" unicode="&#x125b;" horiz-adv-x="689" 
d="M426 615h-197v42q0 23 -17 39t-45 16q-29 0 -45.5 -15.5t-16.5 -38.5v-59h172v-76q-69 -7 -111.5 -16t-67 -26t-34 -45.5t-12.5 -74.5q0 -38 7 -62.5t25.5 -38t50.5 -18.5t82 -5h60v-114h-186v-65q0 -30 16.5 -49.5t44.5 -19.5q30 0 46.5 20t16.5 50v48h203
q26 0 36.5 -20.5t10.5 -58.5v-75q0 -62 61 -62q29 0 46 15.5t17 49.5v57q0 30 -4.5 51t-19 34t-42 19t-72.5 6h-49v120q69 5 111 11.5t70 21.5t40.5 41t12.5 71q0 49 -10 74.5t-35 38.5q-23 12 -65.5 17t-123.5 5v76h148v59q0 21 -16.5 37.5t-45.5 16.5q-28 0 -45 -16.5
t-17 -38.5v-42zM402 509q61 0 81 -23q20 -26 20 -94q0 -39 -5 -65.5t-17 -42t-31.5 -22.5t-47.5 -7v254zM277 250q-54 0 -77 29.5t-23 95.5q0 72 23 103t77 32v-260z" />
    <glyph glyph-name="uni125C" unicode="&#x125c;" horiz-adv-x="701" 
d="M442 616h-197v42q0 23 -17 39t-45 16q-29 0 -45.5 -15.5t-16.5 -38.5v-59h169v-80q-70 -6 -114 -15t-68.5 -26t-33.5 -45.5t-9 -74.5q0 -38 6.5 -62t24.5 -37.5t50 -18.5t84 -5h60v-184q0 -13 -5.5 -21.5t-26.5 -8.5h-206v-80q0 -30 17 -44t45 -14q30 0 46.5 14.5
t16.5 44.5v57h287q44 0 71 5.5t41.5 18.5t19.5 35.5t5 55.5q0 55 -31 74.5t-83 19.5h-47v-18q35 0 53.5 -21.5t18.5 -55.5q0 -17 -2 -34.5t-7.5 -32t-14.5 -24t-23 -9.5q-13 0 -22.5 2.5t-16 11t-9.5 23.5t-3 41v148q69 5 111.5 12t68.5 23q29 14 42 40.5t13 71.5
q0 48 -10 73.5t-35 37.5q-24 14 -66.5 18t-123.5 4v80h152v59q0 21 -16.5 37.5t-45.5 16.5q-28 0 -45 -16.5t-17 -38.5v-42zM414 508q61 0 81 -24q19 -25 19 -94q0 -40 -5 -66t-16.5 -41.5t-30.5 -22t-48 -6.5v254zM290 247q-54 3 -77 31.5t-23 94.5q0 72 22.5 103t77.5 33
v-262z" />
    <glyph glyph-name="uni125D" unicode="&#x125d;" horiz-adv-x="937" 
d="M430 614h-197v42q0 23 -17 39t-45 16q-29 0 -45.5 -15.5t-16.5 -38.5v-59h168v-75q-69 -7 -113 -15.5t-68.5 -25.5t-34 -45.5t-9.5 -75.5q0 -38 7 -62.5t25.5 -38.5t50.5 -19t82 -5q26 0 36 0.5t24 0.5v-194q0 -32 17 -46.5t45 -14.5q31 0 47 15t16 48v198q115 8 163 25
q50 20 66 65h167v-53q0 -30 17.5 -45t46.5 -15q61 0 61 59v74h-128v87q0 37 -16.5 52t-45.5 15q-31 0 -46.5 -13t-15.5 -57v-87h-38q3 19 3 43q0 48 -10 71.5t-35 36.5q-23 12 -65.5 17t-123.5 5v75h152v59q0 21 -16.5 37.5t-45.5 16.5q-28 0 -45 -16.5t-17 -38.5v-42z
M402 509q61 0 81 -23q20 -26 20 -94q0 -39 -5 -65.5t-17 -42t-31.5 -22.5t-47.5 -7v254zM277 250q-51 1 -75.5 30t-24.5 95q0 72 23 103t77 32v-260z" />
    <glyph glyph-name="uni1260" unicode="&#x1260;" horiz-adv-x="554" 
d="M277 660q-63 -9 -106 -22.5t-69.5 -38t-38 -63.5t-11.5 -99v-375q0 -45 17 -61t48 -16q60 0 60 77v345q0 72 5 117t17 70.5t31 35t47 9.5t47.5 -9.5t31 -35t16.5 -70.5t5 -117v-345q0 -45 15.5 -61t46.5 -16q29 0 46 19.5t17 57.5v375q0 61 -11.5 100.5t-37.5 64
t-69 37.5t-107 21z" />
    <glyph glyph-name="uni1261" unicode="&#x1261;" horiz-adv-x="692" 
d="M502 366v72q0 62 -11.5 101.5t-37.5 64t-69 37t-107 20.5q-63 -9 -106 -22.5t-69.5 -38t-38 -63.5t-11.5 -99v-376q0 -45 17 -61t48 -16q60 0 60 77v346q0 71 5 116t17 70t31 34t47 9t47.5 -9t31 -34t16.5 -70t5 -116v-346q0 -45 15.5 -61t46.5 -16q29 0 46 19.5t17 57.5
v288h58v-48q0 -30 16.5 -50t46.5 -20q28 0 45 19.5t17 49.5v65h-183z" />
    <glyph glyph-name="uni1262" unicode="&#x1262;" horiz-adv-x="705" 
d="M440 -17h112v-55h93q18 0 36 17t18 46q0 30 -18.5 46t-35.5 16h-93v-54h-22q-18 0 -23 11t-5 46v382q0 62 -11.5 101.5t-37.5 64t-69 37t-107 20.5q-63 -9 -106 -22.5t-69.5 -38t-38 -63.5t-11.5 -99v-377q0 -45 17 -61t48 -16q60 0 60 77v347q0 72 5 116t17 68.5t31 33
t47 8.5t47.5 -8.5t31 -33t16.5 -68.5t5 -116v-368q0 -29 18 -43t45 -14z" />
    <glyph glyph-name="uni1263" unicode="&#x1263;" horiz-adv-x="554" 
d="M277 661q-63 -9 -106 -22.5t-69.5 -38t-38 -63.5t-11.5 -99v-186q0 -43 17 -60t48 -17q60 0 60 77v156q0 72 5 116t17 68t31 32.5t47 8.5t47.5 -8.5t31 -32.5t16.5 -68t5 -116v-346q0 -45 15.5 -61t46.5 -16q29 0 46 19.5t17 57.5v376q0 62 -11.5 101.5t-37.5 64t-69 37
t-107 20.5z" />
    <glyph glyph-name="uni1264" unicode="&#x1264;" horiz-adv-x="688" 
d="M502 107v331q0 62 -11.5 101.5t-37.5 64t-69 37t-107 20.5q-63 -9 -106 -22.5t-69.5 -38t-38 -63.5t-11.5 -99v-377q0 -45 17 -61t48 -16q60 0 60 77v347q0 72 5 116t17 68t31 32.5t47 8.5t47.5 -8.5t31 -32.5t16.5 -68t5 -116v-328q0 -50 17.5 -69t68.5 -19h81
q36 0 62 4t42.5 15.5t24.5 32t8 53.5q0 46 -11.5 72.5t-32.5 39.5t-49 16t-61 3v-17q42 0 53.5 -27t11.5 -87q0 -48 -10 -71t-38 -23q-23 0 -32.5 27.5t-9.5 76.5z" />
    <glyph glyph-name="uni1265" unicode="&#x1265;" horiz-adv-x="695" 
d="M180 386h-173v-65q0 -30 18 -44.5t47 -14.5q60 0 60 60v48h48v-309q0 -45 16 -61t48 -16q61 0 61 77v347q0 72 4.5 116t16 68t30.5 32.5t48 8.5q28 0 47.5 -8.5t31 -32.5t16.5 -68t5 -116v-347q0 -45 15.5 -61t46.5 -16q28 0 45 19.5t17 57.5v377q0 62 -11 101.5
t-37.5 64t-69.5 37t-106 20.5q-63 -9 -106 -22.5t-69.5 -38t-37.5 -63.5t-11 -99v-52z" />
    <glyph glyph-name="uni1266" unicode="&#x1266;" horiz-adv-x="554" 
d="M277 660q-63 -9 -106 -22.5t-69.5 -38t-38 -63.5t-11.5 -99v-376q0 -45 17 -61t48 -16q60 0 60 77v346q0 72 5 116t17 68.5t31 33t47 8.5t47.5 -8.5t31 -33t16.5 -68.5t5 -116v-156q0 -43 15.5 -60t46.5 -17q29 0 46 19.5t17 57.5v186q0 61 -11.5 100.5t-37.5 64
t-69 37.5t-107 21z" />
    <glyph glyph-name="uni1267" unicode="&#x1267;" horiz-adv-x="654" 
d="M524 55v-42q0 -22 17 -38.5t45 -16.5q29 0 45.5 16.5t16.5 37.5v59h-146v367q0 62 -11.5 101.5t-37.5 64t-69 37t-107 20.5q-63 -9 -106 -22.5t-69.5 -38t-38 -63.5t-11.5 -99v-186q0 -43 17 -60t48 -17q60 0 60 77v156q0 72 5 116t17 68t31 32.5t47 8.5t47.5 -8.5
t31 -32.5t16.5 -68t5 -116v-337h-134v-59q0 -23 16.5 -38.5t45.5 -15.5q28 0 45 16t17 39v42h157z" />
    <glyph glyph-name="uni1268" unicode="&#x1268;" horiz-adv-x="566" 
d="M278 603q-63 -10 -106 -23.5t-69.5 -38t-38 -63t-11.5 -99.5v-319q0 -45 17 -61t47 -16q61 0 61 77v289q0 71 5 116.5t17 71.5t31 35.5t47 9.5t47.5 -9.5t31 -35.5t16.5 -71.5t5 -116.5v-289q0 -45 15.5 -61t46.5 -16q29 0 46 19.5t17 57.5v319q0 62 -11.5 101.5
t-37.5 63.5t-69 37t-107 22zM365 636v32q0 22 17 38.5t45 16.5q29 0 45.5 -16.5t16.5 -37.5v-49h-422v49q0 23 16.5 38.5t45.5 15.5q28 0 45 -16t17 -39v-32h174z" />
    <glyph glyph-name="uni1269" unicode="&#x1269;" horiz-adv-x="685" 
d="M502 353v26q0 62 -11 101.5t-37.5 63.5t-69.5 37t-107 22q-63 -10 -106 -23.5t-69 -38t-37.5 -63t-11.5 -99.5v-319q0 -45 16.5 -61t47.5 -16q61 0 61 77v289q0 71 5 116t16.5 70.5t30.5 34.5t47 9q29 0 48.5 -9t31 -34.5t16 -70.5t4.5 -116v-289q0 -45 16 -61t46 -16
q29 0 46 19.5t17 57.5v277h53v-48q0 -29 18.5 -44.5t48.5 -15.5q58 0 58 59v65h-178zM369 639v32q0 22 17 38.5t45 16.5q29 0 45.5 -16.5t16.5 -37.5v-49h-422v49q0 23 16.5 38.5t45.5 15.5q28 0 45 -16t17 -39v-32h174z" />
    <glyph glyph-name="uni126A" unicode="&#x126a;" horiz-adv-x="700" 
d="M440 -17h112v-55h93q18 0 36 17t18 46q0 30 -18.5 46t-35.5 16h-93v-54h-22q-18 0 -23 11t-5 46v334q0 60 -11 100t-37.5 65t-69.5 38t-107 20q-63 -8 -106 -21.5t-69 -38.5t-37.5 -64t-11.5 -99v-329q0 -45 16.5 -61t47.5 -16q61 0 61 77v299q0 71 5 115.5t16.5 69
t30.5 33.5t47 9q29 0 48 -9t30.5 -33.5t16.5 -69t5 -115.5v-320q0 -29 18 -43t45 -14zM365 650h-174v32q0 23 -17 39t-45 16q-29 0 -45.5 -15.5t-16.5 -38.5v-49h422v49q0 21 -16.5 37.5t-45.5 16.5q-28 0 -45 -16.5t-17 -38.5v-32z" />
    <glyph glyph-name="uni126B" unicode="&#x126b;" horiz-adv-x="567" 
d="M278 626q-63 -10 -106 -23.5t-69.5 -38t-38 -63t-11.5 -99.5v-150q0 -43 17 -60t47 -17q61 0 61 77v120q0 72 5 116t17 68t31 32.5t47 8.5q29 0 48 -8.5t30.5 -32.5t16 -68t4.5 -116v-312q0 -45 16 -61t46 -16t46.5 19.5t16.5 57.5v342q0 62 -11 101.5t-37 63.5t-69 37
t-107 22zM370 658v32q0 22 17 38.5t45 16.5q29 0 45.5 -16.5t16.5 -37.5v-49h-422v49q0 23 16.5 38.5t45.5 15.5q28 0 45 -16t17 -39v-32h174z" />
    <glyph glyph-name="uni126D" unicode="&#x126d;" horiz-adv-x="692" 
d="M505 98v306q0 62 -11 101.5t-37.5 63.5t-69.5 37t-107 22q-63 -10 -106 -23.5t-69 -38t-37.5 -63t-11.5 -99.5v-344q0 -45 16.5 -61t47.5 -16q61 0 61 77v314q0 71 5 115.5t16.5 69t30.5 33t47 8.5q29 0 48.5 -8.5t31 -33t16 -69t4.5 -115.5v-303q0 -50 17.5 -69
t68.5 -19h81q36 0 62 4t43 15.5t25 32t8 53.5q0 46 -12 72.5t-33 39.5t-49 16t-61 3v-17q42 0 53.5 -27t11.5 -87q0 -48 -10 -71t-38 -23q-23 0 -32.5 27.5t-9.5 76.5zM370 660v32q0 22 17 38.5t45 16.5q29 0 45.5 -16.5t16.5 -37.5v-49h-422v49q0 23 16.5 38.5t45.5 15.5
q28 0 45 -16t17 -39v-32h174z" />
    <glyph glyph-name="uni126E" unicode="&#x126e;" horiz-adv-x="686" 
d="M180 364h-173v-65q0 -30 18 -44.5t47 -14.5q60 0 60 60v49h48v-288q0 -45 16 -61t48 -16q61 0 61 77v310q0 72 4.5 116t16 68t30.5 32.5t48 8.5q28 0 47.5 -8.5t31 -32.5t16.5 -68t5 -116v-310q0 -45 15.5 -61t46.5 -16q28 0 45 19.5t17 57.5v340q0 62 -11 101.5
t-37.5 63.5t-69.5 37t-106 22q-63 -10 -106 -23.5t-69.5 -38t-37.5 -63t-11 -99.5v-37zM482 661v32q0 22 17 38.5t45 16.5q29 0 45.5 -16.5t16.5 -37.5v-49h-422v49q0 23 16.5 38.5t45.5 15.5q28 0 45 -16t17 -39v-32h174z" />
    <glyph glyph-name="Uni126F" unicode="&#x126f;" horiz-adv-x="563" 
d="M276 627q-64 -10 -107 -23.5t-69 -38t-37 -63t-11 -99.5v-344q0 -45 16 -61t47 -16q61 0 61 77v314q0 71 5 115.5t16.5 69t30.5 33.5t48 9t48 -9t30.5 -33.5t16 -69t4.5 -115.5v-122q0 -43 16 -60t46 -17t46.5 19.5t16.5 57.5v152q0 62 -11 101.5t-37 63.5t-69 37
t-107 22zM361 661v32q0 22 17 38.5t45 16.5q29 0 45.5 -16.5t16.5 -37.5v-49h-422v49q0 23 16.5 38.5t45.5 15.5q28 0 45 -16t17 -39v-32h174z" />
    <glyph glyph-name="uni1270" unicode="&#x1270;" horiz-adv-x="559" 
d="M405 412v-42q0 -22 17 -38.5t45 -16.5q29 0 45.5 16.5t16.5 37.5v59h-191v160q0 40 -17 58t-45 18t-45.5 -19t-17.5 -57v-160h-194v-59q0 -23 16.5 -38.5t45.5 -15.5q28 0 45 16t17 39v42h70v-354q0 -42 17 -58t47 -16q33 0 47 17t14 62v349h67z" />
    <glyph glyph-name="uni1271" unicode="&#x1271;" horiz-adv-x="562" 
d="M405 411v-42q0 -22 17 -38.5t45 -16.5q29 0 45.5 16.5t16.5 37.5v59h-193v161q0 40 -17 58t-45 18t-45.5 -19t-17.5 -57v-161h-192v-59q0 -23 16.5 -38.5t45.5 -15.5q28 0 45 16t17 39v42h68v-354q0 -42 17 -58t47 -16q33 0 47 17t14 62v169h52v-47q0 -31 17 -45.5
t45 -14.5q62 0 62 59v65h-176v163h69z" />
    <glyph glyph-name="uni1272" unicode="&#x1272;" horiz-adv-x="570" 
d="M406 411v-42q0 -22 17 -38.5t45 -16.5q29 0 45.5 16.5t16.5 37.5v59h-197v162q0 40 -17 58t-45 18t-45.5 -19.5t-17.5 -56.5v-162h-188v-59q0 -23 16.5 -38.5t45.5 -15.5q28 0 45 16t17 39v42h64v-370q0 -29 19 -43t44 -14h122v-54h94q18 0 36 16.5t18 45.5
q0 30 -18.5 46t-35.5 16h-94v-54h-32q-16 0 -22 11t-6 46v354h73z" />
    <glyph glyph-name="uni1273" unicode="&#x1273;" horiz-adv-x="562" 
d="M418 411v-42q0 -22 17 -38.5t45 -16.5q29 0 45.5 16.5t16.5 37.5v59h-195v161q0 40 -17.5 58t-44.5 18q-30 0 -46.5 -19t-16.5 -57v-161h-190v-59q0 -23 16.5 -38.5t45.5 -15.5q28 0 45 16t17 39v42h66v-180q0 -49 -2 -79.5t-9 -47t-21 -22.5t-37 -6h-144v-77
q0 -30 20 -45t54 -15q33 0 51 14t18 45v64q49 0 85.5 5.5t61 21.5t36.5 43.5t12 72.5v206h71z" />
    <glyph glyph-name="uni1274" unicode="&#x1274;" horiz-adv-x="568" 
d="M332 98v313h73v-42q0 -22 17 -38.5t45 -16.5q29 0 45.5 16.5t16.5 37.5v59h-197v161q0 40 -17 58t-45 18t-45.5 -19t-17.5 -57v-161h-188v-59q0 -23 16.5 -38.5t45.5 -15.5q28 0 45 16t17 39v42h64v-341q0 -48 18 -67.5t68 -19.5h81q36 0 62.5 4t43 15.5t24.5 32t8 53.5
q0 47 -12 73t-33 39t-49 15.5t-61 2.5v-15q42 0 54 -27.5t12 -87.5q0 -48 -10 -71t-39 -23q-23 0 -32.5 26.5t-9.5 77.5z" />
    <glyph glyph-name="uni1275" unicode="&#x1275;" horiz-adv-x="559" 
d="M406 411v-42q0 -22 17 -38.5t45 -16.5q29 0 45.5 16.5t16.5 37.5v59h-191v127q0 30 -18.5 43.5t-44.5 13.5h-111v56h-94q-18 0 -36 -17.5t-18 -45.5q0 -31 18 -46.5t36 -15.5h94v53h22q17 0 22 -11t5 -45v-112h-194v-59q0 -23 16.5 -38.5t45.5 -15.5q28 0 45 16t17 39v42
h70v-354q0 -42 17 -58t47 -16q33 0 47 17t14 62v349h67z" />
    <glyph glyph-name="uni1276" unicode="&#x1276;" horiz-adv-x="554" 
d="M405 387v-42q0 -22 17 -38.5t45 -16.5q29 0 45.5 16.5t16.5 37.5v59h-203v179q0 58 7 83.5t33 25.5q49 0 49 -96q0 -32 -2 -53.5t-9.5 -35t-21.5 -19.5t-37 -6v-14q8 -4 21.5 -6t19.5 -2q54 0 83.5 33.5t29.5 87.5q0 66 -35 93t-98 27q-54 0 -86.5 -6.5t-50 -23.5
t-23 -48.5t-5.5 -80.5v-138h-182v-59q0 -23 16.5 -38.5t45.5 -15.5q28 0 45 16t17 39v42h58v-333q0 -42 17 -58t47 -16q33 0 47 17t14 62v328h79z" />
    <glyph glyph-name="uni1277" unicode="&#x1277;" horiz-adv-x="556" 
d="M392 41v-42q0 -22 17 -38.5t45 -16.5q29 0 45.5 16.5t16.5 37.5v59h-173v354h63v-42q0 -22 17 -38.5t45 -16.5q29 0 45.5 16.5t16.5 37.5v59h-187v161q0 40 -17 58t-45 18t-45.5 -19t-17.5 -57v-161h-198v-59q0 -23 16.5 -38.5t45.5 -15.5q28 0 45 16t17 39v42h74v-354
h-157v-59q0 -23 16.5 -38.5t45.5 -15.5q28 0 45 16t17 39v42h207z" />
    <glyph glyph-name="uni1278" unicode="&#x1278;" horiz-adv-x="594" 
d="M424 407v-51q0 -22 17 -38.5t45 -16.5q29 0 45.5 16.5t16.5 37.5v73h-195v164h57q0 -33 19 -46.5t50 -13.5h78v133h-78q-25 0 -47 -15t-23 -41h-233q0 27 -22 41.5t-48 14.5h-79v-131h79q32 0 51 13t19 45h52v-164h-190v-73q0 -23 16.5 -38.5t45.5 -15.5q28 0 45 16
t17 39v51h66v-349q0 -42 17 -58t47 -16q32 0 46.5 17t14.5 62v344h71z" />
    <glyph glyph-name="uni1279" unicode="&#x1279;" 
d="M393 232v-47q0 -31 17 -45.5t46 -14.5t45.5 14t16.5 45v65h-168v159h71v-51q0 -22 17 -38.5t45 -16.5q29 0 45.5 16.5t16.5 37.5v73h-195v164h57q0 -33 19 -46.5t50 -13.5h78v132h-78q-25 0 -47 -14.5t-23 -40.5h-233q0 27 -22 41t-48 14h-79v-130h79q32 0 51 13t19 45
h52v-164h-190v-73q0 -23 16.5 -38.5t45.5 -15.5q28 0 45 16t17 39v51h66v-350q0 -42 17 -58t47 -16q32 0 46.5 17t14.5 62v169h43z" />
    <glyph glyph-name="uni127A" unicode="&#x127a;" horiz-adv-x="591" 
d="M292 -16h122v-54h94q9 0 18.5 4t17.5 12t13 19.5t5 26.5t-5.5 26.5t-13.5 19.5t-17.5 12t-17.5 4h-94v-54h-31q-18 0 -23.5 11t-5.5 46v350h71v-51q0 -22 17 -38.5t45 -16.5q29 0 45.5 16.5t16.5 37.5v73h-195v164h57q0 -33 19 -46.5t50 -13.5h78v133h-78q-25 0 -47 -15
t-23 -41h-233q0 27 -22 41.5t-48 14.5h-79v-131h79q32 0 51 13t19 45h52v-164h-190v-73q0 -23 16.5 -38.5t45.5 -15.5q28 0 45 16t17 39v51h66v-366q0 -29 18.5 -43t44.5 -14z" />
    <glyph glyph-name="uni127B" unicode="&#x127b;" horiz-adv-x="588" 
d="M158 97h-144v-77q0 -30 20 -45t54 -15q33 0 51 14t18 45v64q49 0 85.5 5.5t61 21.5t36.5 43.5t12 72.5v180h71v-51q0 -22 17 -38.5t45 -16.5q29 0 45.5 16.5t16.5 37.5v73h-195v164h57q0 -33 19 -46.5t50 -13.5h78v133h-78q-25 0 -47 -15t-23 -41h-233q0 27 -22 41.5
t-48 14.5h-79v-131h79q32 0 51 13t19 45h52v-164h-190v-73q0 -23 16.5 -38.5t45.5 -15.5q28 0 45 16t17 39v51h66v-154q0 -49 -2 -79.5t-9 -47t-21 -22.5t-37 -6z" />
    <glyph glyph-name="uni127C" unicode="&#x127c;" horiz-adv-x="596" 
d="M314 -16h81q36 0 62 4t43 15.5t25 32t8 53.5q0 47 -11.5 73t-32.5 39t-49.5 15.5t-61.5 2.5v-15q42 0 54 -27.5t12 -87.5q0 -48 -10 -71t-39 -23q-23 0 -32.5 26.5t-9.5 77.5v308h71v-51q0 -22 17 -38.5t45 -16.5q29 0 45.5 16.5t16.5 37.5v73h-195v164h57
q0 -33 19 -46.5t50 -13.5h78v133h-78q-25 0 -47 -15t-23 -41h-233q0 27 -22 41.5t-48 14.5h-79v-131h79q32 0 51 13t19 45h52v-164h-190v-73q0 -23 16.5 -38.5t45.5 -15.5q28 0 45 16t17 39v51h66v-336q0 -48 17.5 -67.5t68.5 -19.5z" />
    <glyph glyph-name="uni127D" unicode="&#x127d;" horiz-adv-x="672" 
d="M509 407v-51q0 -22 17 -38.5t45 -16.5q29 0 45.5 16.5t16.5 37.5v73h-195v40q0 38 -16.5 51.5t-47.5 13.5h-101v86h58q0 -31 19 -45t49 -14h84v131h-84q-24 0 -46 -14t-23 -41h-217q0 28 -22 42.5t-48 14.5h-84v-131h84q32 0 51 13t19 44h37v-55q0 -10 1.5 -18.5t7 -15
t17 -10.5t31.5 -4h106v-88h-190v-73q0 -23 16.5 -38.5t45.5 -15.5q28 0 45 16t17 39v51h66v-349q0 -42 18 -58t48 -16q32 0 45.5 17t13.5 62v344h71z" />
    <glyph glyph-name="uni127E" unicode="&#x127e;" horiz-adv-x="597" 
d="M438 363v-51q0 -22 17 -38.5t45 -16.5q29 0 45.5 16.5t16.5 37.5v73h-195v169q0 58 7.5 84t32.5 26q49 0 49 -97q0 -32 -2 -54t-9.5 -35.5t-21.5 -19.5t-37 -6v-16q6 -2 20.5 -2.5t21.5 -0.5q54 0 83 32.5t29 86.5q0 66 -35 93t-98 27q-66 0 -100.5 -10t-47.5 -37h-82
q0 26 -22 41t-48 15h-84v-132h84q32 0 51 13.5t19 45.5h74q-5 -18 -7 -41t-2 -54v-128h-190v-73q0 -23 16.5 -38.5t45.5 -15.5q28 0 45 16t17 39v51h66v-307q0 -42 17 -58t47 -16q32 0 46.5 17t14.5 62v302h71z" />
    <glyph glyph-name="uni127F" unicode="&#x127f;" horiz-adv-x="597" 
d="M399 49v-42q0 -22 17 -38.5t45 -16.5q29 0 45.5 16.5t16.5 37.5v59h-172v342h71v-51q0 -22 17 -38.5t45 -16.5q29 0 45.5 16.5t16.5 37.5v73h-195v164h57q0 -33 19 -46.5t50 -13.5h78v133h-78q-25 0 -47 -15t-23 -41h-233q0 27 -22 41.5t-48 14.5h-79v-131h79q32 0 51 13
t19 45h52v-164h-190v-73q0 -23 16.5 -38.5t45.5 -15.5q28 0 45 16t17 39v51h66v-342h-162v-59q0 -23 16.5 -38.5t45.5 -15.5q28 0 45 16t17 39v42h211z" />
    <glyph glyph-name="uni1280" unicode="&#x1280;" horiz-adv-x="506" 
d="M344 586v-117h94q9 0 14.5 -2.5t8.5 -9t4 -19.5t1 -34v-345q0 -77 -59 -77q-32 0 -48.5 16t-16.5 61v390h-123v51h-88v-60q0 -59 -62 -59q-28 0 -45.5 13.5t-17.5 44.5v77h213v70q0 43 16 60t48 17q61 0 61 -77z" />
    <glyph glyph-name="uni1281" unicode="&#x1281;" horiz-adv-x="651" 
d="M465 352h179v-64q0 -31 -17 -45t-45 -14q-29 0 -46 14.5t-17 45.5v47h-54v-276q0 -77 -59 -77q-32 0 -48.5 16t-16.5 61v389h-123v51h-88v-60q0 -31 -16.5 -45.5t-46.5 -14.5q-28 0 -45 14t-17 45v77h213v73q0 43 16 59.5t48 16.5q61 0 61 -76v-120h93q19 0 24 -11.5
t5 -53.5v-52z" />
    <glyph glyph-name="uni1282" unicode="&#x1282;" horiz-adv-x="674" 
d="M407 -17h113v-55h93q18 0 36 17t18 46q0 30 -18.5 46t-35.5 16h-93v-54h-22q-17 0 -23 11t-6 46v349q0 42 -5 53.5t-24 11.5h-95v122q0 38 -16.5 55t-44.5 17q-32 0 -47 -14.5t-15 -57.5v-75h-213v-77q0 -31 17.5 -45t47.5 -14q60 0 60 60v60h88v-51h122v-410
q0 -29 19 -43t44 -14z" />
    <glyph glyph-name="uni1283" unicode="&#x1283;" horiz-adv-x="528" 
d="M352 224v223h-124v50h-76v-60q0 -60 -59 -60q-30 0 -47.5 14.5t-17.5 44.5v76h200v77q0 45 16.5 60.5t47.5 15.5q60 0 60 -76v-122h94q19 0 24.5 -12t5.5 -54v-172q0 -41 -8.5 -75t-39.5 -58t-91.5 -37.5t-164.5 -13.5v-67q0 -29 -19.5 -44t-51.5 -15q-33 0 -52 15.5
t-19 44.5v83h142q55 0 90 4t55 20t27.5 48.5t7.5 89.5z" />
    <glyph glyph-name="uni1284" unicode="&#x1284;" horiz-adv-x="652" 
d="M339 469v119q0 77 -61 77q-31 0 -47.5 -17t-16.5 -60v-72h-206v-77q0 -31 17.5 -44.5t45.5 -13.5q62 0 62 59v60h81v-51h124v-379q0 -48 17.5 -67.5t68.5 -19.5h80q36 0 62.5 4t43.5 15.5t25 32t8 53.5q0 47 -11.5 73t-32.5 39t-49.5 15.5t-62.5 2.5v-15q42 0 54 -27.5
t12 -87.5q0 -48 -10 -71t-39 -23q-22 0 -31.5 21.5t-9.5 72.5v316q0 42 -5 53.5t-24 11.5h-95z" />
    <glyph glyph-name="uni1285" unicode="&#x1285;" horiz-adv-x="515" 
d="M209 499q-42 -9 -54 -27q-3 -6 -6.5 -21.5t-7 -34t-5.5 -36t-2 -26.5q-2 -30 -18 -49.5t-45 -19.5t-45.5 19t-16.5 49q0 38 17 66t40 45q45 33 143 50v74q0 43 17.5 59.5t47.5 16.5q60 0 60 -76v-119h93q19 0 24.5 -12t5.5 -54v-344q0 -38 -13 -57.5t-44 -19.5t-49 16
t-18 61v390h-124v50z" />
    <glyph glyph-name="uni1286" unicode="&#x1286;" horiz-adv-x="665" 
d="M394 621v-64q0 -27 5 -44t18 -27t36 -14t60 -4q42 0 66 3.5t35.5 15t14.5 32.5t3 56q0 28 -5 45t-14.5 27t-23.5 13.5t-32 3.5h-190q-38 0 -71.5 -6t-58.5 -21t-39.5 -40.5t-14.5 -64.5v-59h-177v-65q0 -30 17 -44.5t45 -14.5q30 0 46.5 15t16.5 45v47h52v-70
q0 -54 15.5 -78t50.5 -24h176q20 0 26 -7.5t6 -22.5v-196q0 -42 15.5 -58t47.5 -16q31 0 46 17t15 62v215q0 23 -9.5 29.5t-38.5 6.5h-164q-38 0 -50 27t-12 84v102q0 40 3.5 64t11.5 36.5t20 16.5t30 4q11 -1 16.5 -5.5t5.5 -21.5zM547 538q0 -23 -6 -39t-28 -16
q-23 0 -28 17t-5 39v62q0 9 0.5 17.5t3.5 15.5t9.5 11.5t18.5 4.5q23 0 29 -15.5t6 -32.5v-64z" />
    <glyph glyph-name="uni1288" unicode="&#x1288;" horiz-adv-x="771" 
d="M511 337v-71q0 -27 5 -45t19 -29t38.5 -15.5t62.5 -4.5q44 0 69.5 4.5t38 16.5t16 34t3.5 58q0 28 -5 46t-15 28t-25 13.5t-34 3.5h-216v28q0 42 -5 53.5t-24 11.5h-93v120q0 38 -17.5 57t-45.5 19q-32 0 -47 -15.5t-15 -60.5v-73h-213v-77q0 -31 17 -45t45 -14
q30 0 46.5 14.5t16.5 45.5v60h88v-51h123v-387q0 -45 15.5 -61t46.5 -16q29 0 45.5 19.5t16.5 57.5v302h21q12 -1 17 -5.5t5 -21.5zM673 247q0 -24 -7 -41t-30 -17t-28 18t-5 41v63q0 18 4.5 33.5t27.5 15.5q24 0 31 -15t7 -33v-65z" />
    <glyph glyph-name="uni128A" unicode="&#x128a;" horiz-adv-x="815" 
d="M465 332h56v42q0 44 15.5 57t47.5 13q28 0 44.5 -15t16.5 -52v-83h162v-71q0 -31 -16.5 -49t-45.5 -18q-28 0 -45.5 18.5t-17.5 49.5v47h-161v44h-56v-251q0 -79 -58 -79q-31 0 -48.5 17t-17.5 62v390h-123v50h-88v-60q0 -30 -16.5 -50t-46.5 -20q-28 0 -45 19.5
t-17 49.5v77h213v69q0 43 16.5 59t48.5 16q60 0 60 -75v-115h75q7 0 10 1h8q19 0 24 -13t5 -54v-76z" />
    <glyph glyph-name="uni128B" unicode="&#x128b;" horiz-adv-x="657" 
d="M467 411v-261h50q45 0 72.5 -6t41.5 -19.5t18.5 -34.5t4.5 -51v-71q0 -65 -63 -65q-28 0 -45 15t-17 47v89q0 37 -10 57.5t-35 20.5h-202v-47q0 -30 -17.5 -46t-45.5 -16q-62 0 -62 61v65h186v308h-123v50h-88v-60q0 -30 -16.5 -50t-46.5 -20q-28 0 -45 19.5t-17 49.5v77
h213v63q0 43 16.5 60t48.5 17q60 0 60 -75v-111h75q7 0 10 1h8q19 0 24 -12.5t5 -54.5z" />
    <glyph glyph-name="uni128C" unicode="&#x128c;" horiz-adv-x="666" 
d="M346 469h93q19 0 24 -11.5t5 -53.5v-278q0 -39 3.5 -60t10 -31t16.5 -11.5t23 -1.5q16 0 25.5 9.5t14.5 25.5t6 37t1 45q0 31 -2.5 50.5t-10.5 30t-22 14t-36 3.5v18q2 3 7.5 5t12 3.5t12.5 2t9 0.5q55 0 87.5 -28.5t32.5 -101.5q0 -34 -5.5 -58t-24.5 -39.5t-54 -22.5
t-94 -7h-271v-64q0 -30 -17 -43.5t-45 -13.5q-29 0 -45.5 13t-16.5 43v81h233q19 0 22.5 11t3.5 19v394h-123v51h-88v-60q0 -31 -16.5 -50t-46.5 -19q-28 0 -45 18.5t-17 49.5v77h213v70q0 43 15.5 57.5t47.5 14.5q28 0 45 -17t17 -55v-117z" />
    <glyph glyph-name="uni128D" unicode="&#x128d;" horiz-adv-x="778" 
d="M466 282h56v72q0 45 15 60t47 15q28 0 45 -17.5t17 -54.5v-71h128v-84q0 -31 -16.5 -47t-45.5 -16q-28 0 -45.5 16.5t-17.5 47.5v62h-183v-204q0 -79 -58 -79q-31 0 -48.5 17t-17.5 62v393h-123v50h-88v-60q0 -30 -16.5 -47t-46.5 -17q-28 0 -45 16.5t-17 46.5v77h213v75
q0 43 15 56.5t47 13.5q28 0 45.5 -15.5t17.5 -54.5v-121h75q7 0 10 1h8q19 0 24 -13t5 -54v-126z" />
    <glyph glyph-name="uni1290" unicode="&#x1290;" horiz-adv-x="394" 
d="M159 583q0 82 -62 82q-29 0 -46 -20.5t-17 -65.5v-110q0 -17 1.5 -31t7 -25t15.5 -17t27 -6t29.5 1.5t23 4t21 4t22.5 1.5q13 0 18.5 -7t5.5 -30v-304q0 -45 20 -61t52 -16q30 0 41 19.5t11 57.5v330q0 16 -8 31.5t-29 15.5q-17 0 -28.5 -2.5t-21.5 -5l-20.5 -5
t-25.5 -2.5q-19 0 -28 11t-9 28v122z" />
    <glyph glyph-name="uni1291" unicode="&#x1291;" horiz-adv-x="497" 
d="M159 583q0 82 -62 82q-29 0 -46 -20.5t-17 -65.5v-110q0 -17 1.5 -31t7 -25t15.5 -17t27 -6t29.5 1.5t23 4t21 4t22.5 1.5q13 0 18.5 -7t5.5 -30v-304q0 -45 20 -61t52 -16q30 0 41 19.5t11 57.5v242h35v-48q0 -29 17 -44.5t46 -15.5t45.5 15t16.5 44v65h-160v72
q0 16 -8 31.5t-29 15.5q-17 0 -28.5 -2.5t-21.5 -5l-20.5 -5t-25.5 -2.5q-19 0 -28 11t-9 28v122z" />
    <glyph glyph-name="uni1292" unicode="&#x1292;" horiz-adv-x="545" 
d="M276 -17h111v-55h94q18 0 36 17t18 46q0 30 -18.5 46t-35.5 16h-94v-54h-22q-17 0 -22.5 16t-5.5 51v324q0 16 -8 31.5t-29 15.5q-17 0 -28.5 -2.5t-21.5 -5l-20.5 -5t-25.5 -2.5q-19 0 -28 11t-9 28v122q0 82 -62 82q-29 0 -46 -20.5t-17 -65.5v-110q0 -17 1.5 -31
t7 -25t15.5 -17t27 -6t29.5 1.5t23 4t21 4t22.5 1.5q13 0 18.5 -7t5.5 -30v-324q0 -29 18 -43t45 -14z" />
    <glyph glyph-name="uni1293" unicode="&#x1293;" horiz-adv-x="498" 
d="M232 664q-64 0 -102 -5.5t-58 -23.5t-26 -52t-6 -91v-114q0 -54 17.5 -76.5t55.5 -22.5h166q32 0 32 -30v-191q0 -42 16 -58t48 -16q30 0 45 14t15 58v214q0 23 -12.5 29t-35.5 6h-159q-18 0 -30 4.5t-19 15t-10 29t-3 47.5v148q0 32 4.5 52t17 30.5t35 14t59.5 3.5h36
v-62q0 -31 19.5 -45.5t52.5 -14.5t52 14t19 45v78h-229z" />
    <glyph glyph-name="uni1294" unicode="&#x1294;" horiz-adv-x="520" 
d="M208 70q0 -24 3.5 -40.5t13 -27t26 -15t42.5 -4.5h81q36 0 61.5 3.5t42.5 16t25 37t8 65.5q0 42 -11.5 65t-32.5 33.5t-49.5 12.5t-61.5 2v-15q21 0 34 -4t20 -15t9.5 -30t2.5 -49q0 -62 -10 -86.5t-38 -24.5q-24 0 -33 25t-9 65v306q0 16 -8 31.5t-29 15.5
q-17 0 -28.5 -2.5t-21.5 -5l-20.5 -5t-25.5 -2.5q-19 0 -28 11t-9 28v122q0 82 -62 82q-29 0 -46 -18.5t-17 -63.5v-114q0 -17 1.5 -31t7 -25t15.5 -17t27 -6t29.5 1.5t23 4t21 4t22.5 1.5q13 0 18.5 -7t5.5 -30v-294z" />
    <glyph glyph-name="uni1295" unicode="&#x1295;" horiz-adv-x="498" 
d="M4 557q0 -23 17 -40.5t46 -17.5q30 0 46 16.5t16 41.5v53q2 7 10 13t17.5 10t19 6t15.5 2q14 0 30.5 -6.5t27.5 -17.5q0 -31 -10 -61.5t-22.5 -57.5l-22.5 -49.5t-10 -35.5q0 -25 12 -36t46 -11l67 11q9 0 11.5 -7t2.5 -30v-280q0 -45 17.5 -61t49.5 -16q30 0 43.5 19.5
t13.5 57.5v306q0 16 -7 30.5t-29 14.5l-78 -13q-19 0 -26.5 7.5t-7.5 24.5q0 13 11 33t24 41t24 41.5t11 35.5q0 42 -15.5 52.5t-51.5 10.5q-17 0 -31.5 2.5t-27.5 6t-25.5 6t-26.5 2.5q-12 0 -27.5 -5.5t-34.5 -11.5t-41.5 -11.5t-49.5 -5.5q-20 0 -27 -7.5t-7 -27.5v-35z
" />
    <glyph glyph-name="uni1296" unicode="&#x1296;" horiz-adv-x="524" 
d="M252 616v-64q0 -27 4.5 -44t17.5 -27t36 -14t60 -4q42 0 66 3.5t36 15t15 32.5t3 56q0 28 -4.5 45t-14 27t-24 13.5t-33.5 3.5h-190q-38 0 -71 -6t-58.5 -21t-40 -40.5t-14.5 -64.5v-146q0 -54 15.5 -75.5t52.5 -21.5h175q16 0 24 -5.5t8 -24.5v-197q0 -42 16.5 -58
t48.5 -16q31 0 44.5 17t13.5 62v211q0 23 -12.5 29.5t-35.5 6.5h-164q-37 0 -49.5 27t-12.5 84v102q0 40 3.5 64t11.5 36.5t20.5 16.5t29.5 4q12 -1 17.5 -5.5t5.5 -21.5zM405 533q0 -23 -6.5 -39t-28.5 -16t-27 17t-5 39v62q0 17 4.5 33t26.5 16q23 0 29.5 -15.5t6.5 -32.5
v-64z" />
    <glyph glyph-name="uni1297" unicode="&#x1297;" horiz-adv-x="565" 
d="M433 55v-42q0 -22 17 -38.5t45 -16.5q29 0 45.5 16.5t16.5 37.5v59h-132v199q0 23 -12.5 29t-35.5 6h-149q-18 0 -30 4.5t-19 15t-10 29t-3 47.5v148q0 32 4.5 52t17 30.5t35 14t59.5 3.5h36v-62q0 -31 19.5 -45.5t52.5 -14.5t52 14t19 45v78h-165q-61 0 -103.5 -2
t-71 -8.5t-45 -18t-24.5 -31t-10 -47t-2 -65.5v-114q0 -54 17.5 -76.5t55.5 -22.5h156q32 0 32 -30v-178h-160v-59q0 -23 16.5 -38.5t45.5 -15.5q28 0 45 16t17 39v42h168z" />
    <glyph glyph-name="uni1298" unicode="&#x1298;" horiz-adv-x="498" 
d="M292 589h-156v25q0 23 -20.5 39t-48.5 16q-29 0 -45.5 -15.5t-16.5 -38.5v-49h143v-118q0 -33 8 -50.5t42 -17.5h100q13 0 17 -7t4 -30v-285q0 -45 18.5 -61t50.5 -16q30 0 42.5 19.5t12.5 57.5v317q0 16 -4 23.5t-17 7.5h-120q-19 0 -24.5 8.5t-5.5 25.5v126h144v49
q0 21 -16.5 37.5t-45.5 16.5q-28 0 -45 -16.5t-17 -38.5v-25z" />
    <glyph glyph-name="uni1299" unicode="&#x1299;" horiz-adv-x="610" 
d="M480 301v-48q0 -29 17 -44.5t46 -15.5t45.5 15t16.5 44v65h-166v60q0 16 -4 23.5t-17 7.5h-120q-19 0 -24.5 8.5t-5.5 25.5v126h144v49q0 21 -16.5 37.5t-45.5 16.5q-28 0 -45 -16.5t-17 -38.5v-25h-152v25q0 23 -20.5 39t-48.5 16q-29 0 -45.5 -15.5t-16.5 -38.5v-49
h139v-118q0 -33 8 -50.5t42 -17.5h100q13 0 17 -7t4 -30v-285q0 -45 18.5 -61t50.5 -16q30 0 42.5 19.5t12.5 57.5v241h41z" />
    <glyph glyph-name="uni129A" unicode="&#x129a;" horiz-adv-x="639" 
d="M374 -17h111v-55h93q19 0 37 17t18 46q0 30 -18.5 46t-36.5 16h-93v-54h-22q-17 0 -22.5 11t-5.5 44v323q0 16 -4 23.5t-17 7.5h-120q-19 0 -24.5 8.5t-5.5 25.5v126h144v49q0 21 -16.5 37.5t-45.5 16.5q-28 0 -45 -16.5t-17 -38.5v-25h-150v25q0 23 -20.5 39t-48.5 16
q-29 0 -45.5 -15.5t-16.5 -38.5v-49h137v-118q0 -33 8 -50.5t42 -17.5h100q13 0 17 -7t4 -30v-305q0 -29 18 -43t45 -14z" />
    <glyph glyph-name="uni129B" unicode="&#x129b;" horiz-adv-x="512" 
d="M296 644h176v59q0 21 -16.5 37.5t-45.5 16.5q-28 0 -45 -16.5t-17 -38.5v-35h-177v35q0 23 -20.5 39t-48.5 16q-29 0 -45.5 -15.5t-16.5 -38.5v-59h155v-56q-49 0 -79.5 -6.5t-47 -24t-22.5 -47.5t-6 -77v-81q0 -54 17.5 -76.5t55.5 -22.5h132q32 0 32 -30v-166
q0 -42 16 -58t48 -16q30 0 45 14t15 58v189q0 23 -12.5 29t-35.5 6h-125q-18 0 -30 4.5t-19 15t-10 29t-3 47.5v99q0 32 4.5 52t17 30.5t35 14t59.5 3.5h56v-62q0 -31 19.5 -45.5t52.5 -14.5t52 14t19 45v78h-185v55z" />
    <glyph glyph-name="uni129C" unicode="&#x129c;" horiz-adv-x="623" 
d="M269 570h143v49q0 21 -16.5 37.5t-45.5 16.5q-28 0 -45 -16.5t-17 -38.5v-25h-150v25q0 23 -20.5 39t-48.5 16q-29 0 -45.5 -15.5t-16.5 -38.5v-49h137v-101q0 -17 1.5 -31t7 -25t15.5 -17t27 -6t29.5 1.5t23 4t21 4t22.5 1.5q13 0 18.5 -7t5.5 -30v-294q0 -24 3.5 -40.5
t13 -27t26 -15t42.5 -4.5h81q36 0 61.5 3.5t42.5 16t25 37t8 65.5q0 42 -11.5 65t-32.5 33.5t-49.5 12.5t-61.5 2v-15q21 0 34 -4t20 -15t9.5 -30t2.5 -49q0 -62 -10 -86.5t-38 -24.5q-24 0 -33 25t-9 65v306q0 16 -8 31.5t-29 15.5q-17 0 -28.5 -2.5t-21.5 -5l-20.5 -5
t-25.5 -2.5q-19 0 -28 11t-9 28v109z" />
    <glyph glyph-name="uni129D" unicode="&#x129d;" horiz-adv-x="517" 
d="M298 665h171v49q0 21 -16.5 37.5t-45.5 16.5q-28 0 -45 -16.5t-17 -38.5v-25h-178v25q0 23 -20.5 39t-48.5 16q-29 0 -45.5 -15.5t-16.5 -38.5v-49h137v-46q-4 0 -15 -3.5t-25 -7t-30.5 -7t-32.5 -3.5q-20 0 -27 -7.5t-7 -27.5v-28q0 -23 17 -40.5t46 -17.5q30 0 46 16.5
t16 41.5v46q2 7 9.5 13t17 10t18.5 6t15 2q14 0 30.5 -6.5t27.5 -17.5q0 -31 -11.5 -61.5t-25 -57.5l-24.5 -49.5t-11 -35.5q0 -25 12 -36t46 -11l67 11q9 0 11.5 -7t2.5 -30v-251q0 -45 17.5 -61t49.5 -16q30 0 43.5 19.5t13.5 57.5v277q0 16 -7 30.5t-29 14.5l-78 -13
q-19 0 -26.5 7.5t-7.5 24.5q0 13 12 33t26.5 41t26.5 41.5t12 35.5q0 42 -15.5 52.5t-51.5 10.5q-19 0 -34 3v47z" />
    <glyph glyph-name="uni129E" unicode="&#x129e;" horiz-adv-x="544" 
d="M252 592v-64q0 -27 4.5 -44t17.5 -27t36 -14t60 -4q42 0 66 3.5t36 15t15 32.5t3 56q0 28 -4.5 45t-14 27t-24 13.5t-33.5 3.5h-88v45h157v49q0 21 -16.5 37.5t-45.5 16.5q-28 0 -45 -16.5t-17 -38.5v-25h-188v25q0 23 -20.5 39t-48.5 16q-29 0 -45.5 -15.5t-16.5 -38.5
v-49h161v-46q-34 -2 -63.5 -9t-51 -22.5t-34 -39.5t-12.5 -60v-127q0 -54 15.5 -75.5t52.5 -21.5h175q16 0 24 -5.5t8 -24.5v-192q0 -42 16.5 -58t48.5 -16q31 0 44.5 17t13.5 62v206q0 23 -12.5 29.5t-35.5 6.5h-164q-37 0 -49.5 27t-12.5 84v83q0 40 3.5 64t11.5 36.5
t20.5 16.5t29.5 4q12 -1 17.5 -5.5t5.5 -21.5zM405 509q0 -23 -6.5 -39t-28.5 -16t-27 17t-5 39v62q0 17 4.5 33t26.5 16q23 0 29.5 -15.5t6.5 -32.5v-64z" />
    <glyph glyph-name="uni129F" unicode="&#x129f;" horiz-adv-x="589" 
d="M456 55v-42q0 -22 17 -38.5t45 -16.5q29 0 45.5 16.5t16.5 37.5v59h-145v193q0 23 -12.5 29t-35.5 6h-159q-18 0 -30 4.5t-19 15t-10 29t-3 47.5v101q0 32 4.5 52t17 30.5t35 14t59.5 3.5h36v-62q0 -31 19.5 -45.5t52.5 -14.5t52 14t19 45v78h-149v42h160v59
q0 21 -16.5 37.5t-45.5 16.5q-28 0 -45 -16.5t-17 -38.5v-35h-177v35q0 23 -20.5 39t-48.5 16q-29 0 -45.5 -15.5t-16.5 -38.5v-59h148v-43q-49 -2 -78.5 -9.5t-45 -26t-20 -51t-4.5 -84.5v-67q0 -54 17.5 -76.5t55.5 -22.5h166q32 0 32 -30v-172h-136v-59q0 -23 16.5 -38.5
t45.5 -15.5q28 0 45 16t17 39v42h157z" />
    <glyph glyph-name="uni12A0" unicode="&#x12a0;" horiz-adv-x="522" 
d="M399 499q0 60 -57 60q-30 0 -46.5 -15.5t-16.5 -44.5v-12q-7 -7 -22.5 -12.5t-29.5 -5.5q-16 0 -33 9.5t-17 29.5v76q0 33 -17 50.5t-45 17.5q-30 0 -46.5 -17.5t-16.5 -50.5v-62q0 -42 33 -60.5t92 -18.5q6 0 21.5 2.5l32.5 5.5t31 6t17 5v-33q0 -8 -17 -15t-42 -15
l-54.5 -18t-54.5 -24.5t-42 -34.5t-17 -48v-211q0 -45 18 -60.5t49 -15.5q58 0 58 76v215q0 26 10 47.5t41 33.5q31 0 53.5 -3.5t36 -14t20 -28.5t6.5 -48v-201q0 -45 15.5 -61t46.5 -16q28 0 45.5 19.5t17.5 57.5v203q0 35 -11 57t-35 34.5t-62.5 17t-92.5 4.5l44 14
t42.5 16t32 20.5t12.5 27.5v41z" />
    <glyph glyph-name="uni12A1" unicode="&#x12a1;" horiz-adv-x="619" 
d="M499 249v-42q0 -23 15 -38.5t43 -15.5q29 0 44 15.5t15 37.5v59h-147v2q0 35 -11 57t-35 34.5t-62.5 17t-92.5 4.5l44 14t42.5 16t32 20.5t12.5 27.5v41q0 60 -57 60q-30 0 -46.5 -15.5t-16.5 -44.5v-12q-7 -7 -22.5 -12.5t-29.5 -5.5q-16 0 -33 9.5t-17 29.5v76
q0 33 -17 50.5t-45 17.5q-30 0 -46.5 -17.5t-16.5 -50.5v-62q0 -42 33 -60.5t92 -18.5q6 0 21.5 2.5l32.5 5.5t31 6t17 5v-33q0 -8 -17 -15t-42 -15l-54.5 -18t-54.5 -24.5t-42 -34.5t-17 -48v-211q0 -45 18 -60.5t49 -15.5q58 0 58 76v215q0 26 10 47.5t41 33.5
q31 0 53.5 -3.5t36 -14t20 -28.5t6.5 -48v-201q0 -45 15.5 -61t46.5 -16q28 0 45.5 19.5t17.5 57.5v185h30z" />
    <glyph glyph-name="uni12A2" unicode="&#x12a2;" horiz-adv-x="645" 
d="M406 -13h111v-37h74q16 0 31.5 14t15.5 40t-16 39.5t-31 13.5h-74v-50h-22q-16 0 -21.5 13t-5.5 48v199q0 35 -11 57t-35 34.5t-62.5 17t-92.5 4.5l44 14t42.5 16t32 20.5t12.5 27.5v41q0 60 -57 60q-30 0 -46.5 -15.5t-16.5 -44.5v-12q-7 -7 -22.5 -12.5t-29.5 -5.5
q-16 0 -33 9.5t-17 29.5v76q0 33 -17 50.5t-45 17.5q-30 0 -46.5 -17.5t-16.5 -50.5v-62q0 -42 33 -60.5t92 -18.5q6 0 21.5 2.5l32.5 5.5t31 6t17 5v-33q0 -8 -17 -15t-42 -15l-54.5 -18t-54.5 -24.5t-42 -34.5t-17 -48v-211q0 -45 18 -60.5t49 -15.5q58 0 58 76v215
q0 26 10 47.5t41 33.5q31 0 53.5 -3.5t36 -14t20 -28.5t6.5 -48v-221q0 -29 18.5 -43t44.5 -14z" />
    <glyph glyph-name="uni12A3" unicode="&#x12a3;" horiz-adv-x="539" 
d="M398 499q0 60 -57 60q-30 0 -46.5 -15.5t-16.5 -44.5v-12q-7 -7 -22.5 -12.5t-29.5 -5.5q-16 0 -33 9.5t-17 29.5v76q0 33 -17 50.5t-45 17.5q-30 0 -46.5 -17.5t-16.5 -50.5v-62q0 -42 33 -60.5t92 -18.5q6 0 21.5 2.5l32.5 5.5t31 6t17 5v-33q0 -8 -17 -15t-42 -15
l-54.5 -18t-54.5 -24.5t-42 -34.5t-17 -48v-106q0 -45 18 -60.5t49 -15.5q58 0 58 76v110q0 26 10 47.5t41 33.5q31 0 53.5 -3.5t36 -14t20 -28.5t6.5 -48v-201q0 -45 15.5 -61t46.5 -16q28 0 45.5 19.5t17.5 57.5v203q0 35 -11 57t-35 34.5t-62.5 17t-92.5 4.5l44 14
t42.5 16t32 20.5t12.5 27.5v41z" />
    <glyph glyph-name="uni12A4" unicode="&#x12a4;" horiz-adv-x="652" 
d="M468 102v165q0 35 -11 57t-35 34.5t-62.5 17t-92.5 4.5l44 14t42.5 16t32.5 20.5t13 27.5v41q0 60 -58 60q-30 0 -46.5 -15.5t-16.5 -44.5v-12q-7 -7 -22.5 -12.5t-29.5 -5.5q-16 0 -33 9.5t-17 29.5v76q0 33 -17 50.5t-45 17.5q-30 0 -46.5 -17.5t-16.5 -50.5v-62
q0 -42 33 -60.5t92 -18.5q6 0 21.5 2.5l32.5 5.5t31 6t17 5v-33q0 -8 -17 -15t-42 -15l-54.5 -18t-54.5 -24.5t-42 -34.5t-17 -48v-211q0 -45 18 -60.5t49 -15.5q58 0 58 76v215q0 26 10 47.5t41 33.5q31 0 53.5 -3.5t36 -14t20 -28.5t6.5 -48v-190q0 -49 17.5 -68.5
t68.5 -19.5h81q73 0 105.5 25t32.5 91q0 39 -11.5 60t-32.5 31.5t-49.5 12.5t-61.5 2v-17q21 0 34 -2.5t19.5 -11.5t9 -26.5t2.5 -48.5q0 -48 -7.5 -76t-40.5 -28q-26 0 -34 26t-8 77z" />
    <glyph glyph-name="uni12A5" unicode="&#x12a5;" horiz-adv-x="514" 
d="M387 499q0 5 -2.5 11.5t-10 12.5t-20 10t-31.5 4q-18 0 -29 -4.5t-17 -11t-8 -14t-2 -13.5v-17q-7 -7 -16.5 -13.5t-23.5 -6.5q-16 0 -28.5 9t-12.5 29v25q0 10 -7.5 13t-23.5 3v38q0 35 -14 50.5t-42 15.5q-59 0 -59 -66v-55q21 0 39.5 -5t18.5 -25q0 -21 2.5 -34.5
t10.5 -20.5t23 -9.5t40 -2.5q8 0 22.5 4t29 9t26.5 10t15 7v-23q0 -8 -17 -15t-42 -15l-54.5 -18t-54.5 -24.5t-42 -34.5t-17 -48v-211q0 -45 18 -60.5t49 -15.5q58 0 58 76v215q0 26 10 47.5t41 33.5q31 0 53.5 -3.5t36 -14t20 -28.5t6.5 -48v-201q0 -45 15.5 -61t46.5 -16
q28 0 45.5 19.5t17.5 57.5v203q0 35 -11 57t-35 34.5t-62.5 17t-92.5 4.5l44 14t42.5 16t32 20.5t12.5 27.5v41z" />
    <glyph glyph-name="uni12A6" unicode="&#x12a6;" horiz-adv-x="539" 
d="M398 499q0 60 -57 60q-30 0 -46.5 -15.5t-16.5 -44.5v-12q-7 -7 -22.5 -12.5t-29.5 -5.5q-16 0 -33 9.5t-17 29.5v76q0 33 -17 50.5t-45 17.5q-30 0 -46.5 -17.5t-16.5 -50.5v-62q0 -42 33 -60.5t92 -18.5q6 0 21.5 2.5l32.5 5.5t31 6t17 5v-33q0 -8 -17 -15t-42 -15
l-54.5 -18t-54.5 -24.5t-42 -34.5t-17 -48v-211q0 -45 18 -60.5t49 -15.5q58 0 58 76v215q0 26 10 47.5t41 33.5q31 0 53.5 -3.5t36 -14t20 -28.5t6.5 -48v-103q0 -45 15.5 -61t46.5 -16q28 0 45.5 19.5t17.5 57.5v105q0 35 -11 57t-35 34.5t-62.5 17t-92.5 4.5l44 14
t42.5 16t32 20.5t12.5 27.5v41z" />
    <glyph glyph-name="uni12A7" unicode="&#x12a7;" horiz-adv-x="629" 
d="M313 591v-32q0 -14 14 -14h63q17 0 33.5 14.5t16.5 39.5q0 26 -17 39.5t-33 13.5h-63q-9 0 -11.5 -2.5t-2.5 -9.5v-32h-182v30q0 14 -14 14h-63q-17 0 -33.5 -13.5t-16.5 -39.5q0 -25 16.5 -39.5t33.5 -14.5h62q9 0 12 3t3 9v34h37v-81q0 -42 24 -58t83 -16q6 0 21.5 3.5
t32.5 8l31 8.5t17 6v-33q0 -8 -17 -15t-42 -15l-54.5 -18t-54.5 -24.5t-42 -34.5t-17 -48v-211q0 -45 18 -60.5t49 -15.5q58 0 58 76v215q0 26 10 47.5t41 33.5q31 0 53.5 -3.5t36 -14t20 -28.5t6.5 -48v-201q0 -45 15.5 -61t46.5 -16q28 0 45.5 19.5t17.5 57.5v203
q0 35 -11 57t-35 34.5t-62.5 17t-92.5 4.5l44 14t42.5 16t32 20.5t12.5 27.5v35q0 42 -57 42q-30 0 -46.5 -11t-16.5 -31v-6q-7 -7 -22.5 -15t-29.5 -8q-16 0 -33 8.5t-17 35.5v83h38z" />
    <glyph glyph-name="uni12A8" unicode="&#x12a8;" horiz-adv-x="632" 
d="M204 478q-13 -11 -26 -11q-17 0 -32 11.5t-15 25.5v74q0 45 -16 65.5t-46 20.5q-29 0 -46 -20.5t-17 -65.5v-74q0 -87 62 -87q26 0 44 18.5t18 46.5q0 -9 7 -15.5t16 -10t17 -5t9 -1.5q-20 -29 -31.5 -57.5t-17.5 -62t-8 -73.5t-2 -90v-106q0 -45 16 -61t48 -16
q61 0 61 77v153q0 107 9 170.5t24.5 97t36 43.5t43.5 10q28 0 45.5 -6.5t26.5 -21.5t12 -39.5t3 -60.5v-346q0 -45 15.5 -61t45.5 -16t46.5 19.5t16.5 57.5v298q0 53 -9 91t-30 62t-55 35t-83 11q-23 0 -51 -7.5t-55 -19.5t-49 -26t-33 -27z" />
    <glyph glyph-name="uni12A9" unicode="&#x12a9;" horiz-adv-x="738" 
d="M571 334v25q0 53 -9 91t-30 62t-55 35t-83 11q-23 0 -51 -7.5t-55 -19t-49.5 -25.5t-33.5 -27q-11 -12 -25 -12q-17 0 -32 11.5t-15 25.5v74q0 45 -16 65.5t-46 20.5q-29 0 -46 -20.5t-17 -65.5v-74q0 -87 62 -87q26 0 44 18.5t18 46.5q0 -9 7 -15.5t16 -10t16.5 -5
t9.5 -1.5q-20 -29 -31.5 -58t-17.5 -62t-8 -72.5t-2 -90.5v-105q0 -45 16 -61t47 -16q61 0 61 77v152q0 108 9.5 171.5t25 96.5t36 42.5t43.5 9.5q29 0 46 -6t26 -21t11.5 -39.5t2.5 -60.5v-345q0 -45 16 -61t46 -16t46.5 19.5t16.5 57.5v256h38v-47q0 -31 16.5 -45.5
t45.5 -14.5t45.5 14t16.5 45v53q0 11 -13 11h-149z" />
    <glyph glyph-name="uni12AA" unicode="&#x12aa;" horiz-adv-x="772" 
d="M507 -9h113v-55h93q18 0 36 17t18 46q0 30 -18.5 46t-35.5 16h-93v-54h-22q-17 0 -23 10.5t-6 42.5v299q0 53 -9 91t-30 62t-55 35t-83 11q-23 0 -51 -7.5t-55 -19t-49.5 -25.5t-33.5 -27q-11 -12 -25 -12q-17 0 -32 11.5t-15 25.5v74q0 45 -16 65.5t-46 20.5
q-29 0 -46 -20.5t-17 -65.5v-74q0 -87 62 -87q24 0 42 17.5t20 42.5q1 -8 8.5 -13.5t16 -8.5t16 -4t8.5 -1q-20 -29 -31.5 -58t-17.5 -62t-8 -72.5t-2 -90.5v-106q0 -45 16 -61t47 -16q61 0 61 77v153q0 107 9.5 171t25 97.5t36 43.5t43.5 10q29 0 46 -6.5t26 -21.5
t11.5 -40t2.5 -61v-359q0 -29 18.5 -43t44.5 -14z" />
    <glyph glyph-name="uni12AB" unicode="&#x12ab;" horiz-adv-x="631" 
d="M206 485q-13 -13 -32 -13q-15 0 -29 9.5t-14 22.5v74q0 45 -16 65.5t-46 20.5q-29 0 -45.5 -20.5t-16.5 -65.5v-74q0 -87 62 -87q25 0 42 17.5t18 46.5q0 -9 7 -15t16 -9.5t17 -5t10 -1.5q-29 -35 -44 -83.5t-15 -102.5v-78q0 -45 15 -61t47 -16q28 0 45.5 19t17.5 57v90
q0 73 13.5 123t31.5 80.5t37.5 43.5t31.5 13q30 0 47 -7t26 -22t11.5 -39.5t2.5 -59.5v-345q0 -45 15.5 -61t45.5 -16t46.5 19.5t16.5 57.5v297q0 53 -9 91t-30 62t-55 35t-83 11q-14 0 -41 -7t-56.5 -17.5t-54.5 -23.5t-35 -25z" />
    <glyph glyph-name="uni12AC" unicode="&#x12ac;" horiz-adv-x="756" 
d="M570 106v254q0 53 -9 91t-30 62t-55 35t-83 11q-23 0 -51 -7.5t-55 -19t-49.5 -25.5t-33.5 -27q-11 -12 -25 -12q-17 0 -32 11.5t-15 25.5v74q0 45 -16 65.5t-46 20.5q-29 0 -46 -20.5t-17 -65.5v-74q0 -87 62 -87q24 0 42 17.5t20 42.5q1 -8 8.5 -13.5t16 -8.5t16 -4
t8.5 -1q-20 -29 -31.5 -54t-17.5 -53.5t-8 -64.5t-2 -87v-131q0 -44 16.5 -59t48.5 -15q28 0 43.5 17t15.5 55v179q0 108 9.5 168.5t25 89.5t36 35t43.5 6q29 0 46 -6.5t26 -21.5t11.5 -40t2.5 -61v-329q0 -49 18 -68.5t68 -19.5h81q37 0 63 4t42.5 15.5t24.5 32t8 53.5
q0 46 -11.5 72.5t-32.5 39.5t-49.5 16t-61.5 3v-17q42 0 54.5 -27t12.5 -87q0 -48 -10 -71t-40 -23q-23 0 -32.5 27.5t-9.5 76.5z" />
    <glyph glyph-name="uni12AD" unicode="&#x12ad;" horiz-adv-x="644" 
d="M179 450q-16 -23 -27 -42t-19 -38t-15.5 -41.5t-15.5 -52.5l66 19q-15 -20 -24.5 -35.5t-15.5 -32.5t-8 -37.5t-2 -49.5v-74q0 -45 17 -62t49 -17q28 0 43.5 20.5t15.5 58.5v111q0 34 2 57t7 40t14 32t24 35l-58 -11q0 51 13.5 89t33.5 64t42.5 39t40.5 13q28 0 45.5 -6
t26.5 -20.5t12 -39.5t3 -62v-346q0 -44 18 -59t49 -15q30 0 43.5 18t13.5 56v298q0 53 -9 91t-29.5 62t-54.5 35t-84 11q-23 0 -52 -7.5t-56.5 -19.5t-50 -26t-33.5 -27q-13 -11 -26 -11q-17 0 -32 11.5t-15 25.5v74q0 45 -16 65.5t-46 20.5q-29 0 -46 -20.5t-17 -65.5v-74
q0 -87 62 -87q26 0 44 18.5t18 46.5q0 -9 7 -15.5t16 -10t17 -5t9 -1.5z" />
    <glyph glyph-name="uni12AE" unicode="&#x12ae;" horiz-adv-x="632" 
d="M204 479q-11 -12 -25 -12q-17 0 -32 11.5t-15 25.5v74q0 45 -16 65.5t-46 20.5q-29 0 -46 -20.5t-17 -65.5v-74q0 -87 62 -87q26 0 44 18.5t18 46.5q0 -9 7 -15.5t16 -10t16.5 -5t9.5 -1.5q-20 -29 -31.5 -58t-17.5 -62t-8 -72.5t-2 -90.5v-105q0 -44 18.5 -59.5
t49.5 -15.5t43.5 18.5t12.5 56.5v152q0 107 9.5 170t25 96t36 42.5t43.5 9.5q29 0 46 -7t26 -22.5t11.5 -40t2.5 -60.5v-201q0 -45 16 -60.5t46 -15.5t46.5 19.5t16.5 56.5v158q0 53 -9 91t-30 62t-55 35t-83 11q-23 0 -51 -7.5t-55 -19t-49.5 -25.5t-33.5 -27z" />
    <glyph glyph-name="uni12B0" unicode="&#x12b0;" horiz-adv-x="906" 
d="M583 366h236q38 0 58.5 -27.5t20.5 -65.5q0 -27 -4 -47.5t-17.5 -35t-39.5 -21.5t-70 -7q-38 0 -64 4.5t-41.5 15t-22.5 28.5t-7 45v72q0 16 -6 20.5t-16 5.5h-27v-290q0 -75 -57 -75q-31 0 -49.5 15.5t-18.5 59.5v334q0 37 -2 59.5t-11 39.5q-14 40 -74 40
q-19 0 -41 -10t-41 -43.5t-32 -97.5t-13 -171v-151q0 -75 -57 -75q-31 0 -49.5 15.5t-18.5 59.5v104q0 51 2.5 91.5t6.5 73.5q4 32 17 61t33 57q-1 0 -9 1.5t-17 5t-16 10t-7 15.5q0 -28 -18 -46.5t-44 -18.5q-62 0 -62 87v74q0 45 19 65.5t49 20.5q57 0 57 -86v-74
q0 -14 15 -25.5t32 -11.5q14 0 26 12q9 14 34.5 28t56.5 25.5t61.5 18.5t50.5 7q49 0 83 -9t55 -30.5t30 -57t9 -88.5v-7zM809 249v40q0 33 -12.5 49.5t-33.5 16.5q-18 0 -29.5 -18.5t-11.5 -48.5v-39q0 -33 10.5 -55.5t34.5 -22.5q26 0 34 20.5t8 57.5z" />
    <glyph glyph-name="uni12B2" unicode="&#x12b2;" horiz-adv-x="913" 
d="M585 329h45v56q0 44 18 57.5t48 13.5q59 0 59 -76v-93h133q8 0 13 -3.5t5 -14.5v-51q0 -29 -16.5 -48.5t-45.5 -19.5t-46 20t-17 49v48h-151v45h-45v-249q0 -77 -59 -77q-31 0 -48.5 16t-17.5 61v334q0 37 -2 59.5t-11 39.5q-14 40 -74 40q-19 0 -41 -10t-41 -43.5
t-32 -97.5t-13 -171v-151q0 -77 -59 -77q-31 0 -48.5 16t-17.5 61v104q0 51 2.5 91.5t6.5 73.5q4 32 17 61t33 57q-1 0 -9 1.5t-17 5t-16 10t-7 15.5q0 -28 -18 -46.5t-44 -18.5q-62 0 -62 87v74q0 45 19 65.5t49 20.5q57 0 57 -86v-74q0 -14 15 -25.5t32 -11.5q14 0 26 12
q9 14 34.5 28t56.5 25.5t61.5 18.5t50.5 7q98 0 138 -46q20 -23 29.5 -57t9.5 -88v-38z" />
    <glyph glyph-name="uni12B3" unicode="&#x12b3;" horiz-adv-x="777" 
d="M586 121q63 0 100 -6t56 -19t24.5 -34t5.5 -52v-58q0 -64 -61 -64q-28 0 -46 14.5t-18 47.5v76q0 38 -10 58.5t-35 20.5h-179v-48q0 -30 -17 -50t-46 -20q-28 0 -45 19.5t-17 49.5v46q0 11 6 15t17 4h140v277q0 37 -2 59.5t-11 40.5q-14 40 -74 40q-64 -10 -95.5 -69.5
t-31.5 -179.5v-87q0 -38 -17.5 -63t-45.5 -25q-62 0 -62 88v41q0 55 10.5 105t48.5 102q-1 0 -9 2t-17 5.5t-16 10t-7 15.5q0 -32 -17.5 -48.5t-44.5 -16.5q-62 0 -62 87v75q0 45 17 65.5t46 20.5q30 0 46 -20.5t16 -65.5v-75q0 -15 15 -26t32 -11q14 0 26 12q9 13 35 27.5
t56.5 26t61 19t50.5 7.5q49 0 83 -11.5t55 -35.5t30 -62t9 -91v-239z" />
    <glyph glyph-name="uni12B4" unicode="&#x12b4;" horiz-adv-x="775" 
d="M585 0h-179v-63q0 -29 -17 -49t-46 -20q-28 0 -45 19.5t-17 48.5v67q0 11 5 14.5t16 3.5h158v376q0 37 -2 59.5t-11 39.5q-14 40 -74 40q-64 -9 -95.5 -68t-31.5 -180v-102q0 -79 -61 -79q-32 0 -48 17t-16 62v55q0 56 10.5 106t48.5 103q-1 0 -9 1.5t-17 5t-16 10
t-7 15.5q0 -31 -17.5 -48t-44.5 -17q-62 0 -62 87v74q0 45 17 65.5t46 20.5q30 0 46 -20.5t16 -65.5v-74q0 -14 15 -25.5t32 -11.5q14 0 26 12q9 14 34.5 28t56.5 25.5t61.5 18.5t50.5 7q49 0 83 -11.5t55 -35.5t30 -61.5t9 -90.5v-241q0 -52 9.5 -75t31.5 -23q18 0 27.5 9
t14 24t5.5 35.5t1 43.5q0 36 -2.5 58t-9.5 34t-20 15.5t-34 3.5v12q13 11 38 11q54 0 86.5 -30.5t32.5 -106.5q0 -34 -6 -58.5t-25 -40t-54.5 -23t-94.5 -7.5z" />
    <glyph glyph-name="uni12B5" unicode="&#x12b5;" horiz-adv-x="882" 
d="M576 312h49v68q0 44 15.5 59t46.5 15q28 0 45 -17t17 -54v-68h107q8 0 14.5 -3t6.5 -14v-66q0 -29 -16.5 -46t-45.5 -17t-46 17.5t-17 46.5v62h-176v-232q0 -38 -16.5 -57.5t-46.5 -19.5t-45.5 16t-15.5 61v335q0 37 -2 59.5t-10 39.5q-8 19 -26 29.5t-49 10.5
q-18 0 -39 -10t-38 -43.5t-28.5 -97.5t-11.5 -171v-152q0 -77 -59 -77q-31 0 -48.5 16t-17.5 61v105q0 51 2.5 91.5t6.5 73.5q4 32 17 61t33 57q-1 0 -9 1.5t-17 5t-16 10t-7 15.5q0 -28 -18 -46.5t-44 -18.5q-62 0 -62 87v74q0 45 17 65.5t46 20.5q30 0 46 -20.5t16 -65.5
v-74q0 -14 15 -25.5t32 -11.5q14 0 26 12q9 14 33 28t53 25.5t58 18.5t48 7q100 0 138 -47q39 -47 39 -152v-48z" />
    <glyph glyph-name="uni12B8" unicode="&#x12b8;" horiz-adv-x="785" 
d="M326 606v-32q0 -14 14 -14h63q17 0 33.5 14.5t16.5 39.5q0 26 -17 39.5t-33 13.5h-63q-9 0 -11.5 -2.5t-2.5 -9.5v-32h-193v30q0 14 -14 14h-63q-17 0 -33.5 -13.5t-16.5 -39.5q0 -25 16.5 -39.5t33.5 -14.5h62q9 0 12 3t3 9v34h32v-108q0 -44 15 -60t46 -16
q23 0 40.5 12t19.5 37q1 -9 8 -14t15.5 -8t15.5 -4t9 -1q-20 -29 -31.5 -57.5t-17.5 -62t-8 -73.5t-2 -90v-100q0 -45 16.5 -61t47.5 -16q61 0 61 77v147q0 107 9 170.5t25 97t36.5 43.5t43.5 10q28 0 45 -6.5t26 -21.5t12 -39.5t3 -60.5v-340q0 -45 15.5 -61t46.5 -16
q29 0 46 19.5t17 57.5v292q0 53 -9 91t-30 62t-55 35t-84 11q-23 0 -51 -7.5t-55 -19t-49 -25.5t-33 -28q-11 -11 -26 -11q-17 0 -31.5 11.5t-14.5 25.5v108h39z" />
    <glyph glyph-name="uni12B9" unicode="&#x12b9;" horiz-adv-x="916" 
d="M329 614v-32q0 -14 14 -14h63q17 0 33.5 14.5t16.5 39.5q0 26 -17 39.5t-33 13.5h-63q-9 0 -11.5 -2.5t-2.5 -9.5v-32h-193v30q0 14 -14 14h-63q-17 0 -33.5 -13.5t-16.5 -39.5q0 -25 16.5 -39.5t33.5 -14.5h62q9 0 12 3t3 9v34h38v-115q0 -44 15.5 -60.5t46.5 -16.5
q23 0 39 12.5t18 37.5q1 -8 8 -13.5t15.5 -8.5t15.5 -4t9 -1q-20 -29 -31.5 -57.5t-17.5 -62t-8 -73.5t-2 -90v-100q0 -45 16.5 -61t47.5 -16q61 0 61 77v147q0 108 9 171.5t25 96.5t36.5 42.5t43.5 9.5q28 0 45 -6t26 -21t12 -39.5t3 -60.5v-340q0 -45 15.5 -61t46.5 -16
q29 0 46 19.5t17 57.5v286h50v-47q0 -31 17 -45.5t46 -14.5q28 0 44.5 14t16.5 45v49q0 10 -4.5 12.5t-12.5 2.5h-157v25q0 45 -9 76t-30 50.5t-55 28.5t-84 9q-23 0 -51.5 -7.5t-55 -19t-48.5 -25.5t-33 -27q-11 -12 -26 -12q-17 0 -31.5 11.5t-14.5 25.5v115h35z" />
    <glyph glyph-name="uni12BA" unicode="&#x12ba;" horiz-adv-x="924" 
d="M323 613v-32q0 -14 14 -14h63q17 0 33.5 14.5t16.5 39.5q0 26 -17 39.5t-33 13.5h-63q-9 0 -11.5 -2.5t-2.5 -9.5v-32h-193v30q0 14 -14 14h-63q-17 0 -33.5 -13.5t-16.5 -39.5q0 -25 16.5 -39.5t33.5 -14.5h62q9 0 12 3t3 9v34h32v-115q0 -43 16.5 -58.5t47.5 -15.5
q23 0 38 11.5t17 36.5q1 -8 8 -13.5t15 -8.5t15 -4t9 -1q-20 -28 -31.5 -57t-17.5 -62.5t-8 -73.5t-2 -90v-101q0 -45 17 -61t47 -16q61 0 61 77v148q0 107 9.5 171t25.5 97.5t36.5 43.5t42.5 10q28 0 45.5 -6.5t26.5 -21.5t12 -40t3 -61v-353q0 -29 18 -43t45 -14h111v-55
h94q18 0 36 17t18 46q0 30 -18.5 46t-35.5 16h-94v-54h-22q-17 0 -22 11t-5 46v289q0 53 -9 91t-30 62t-55 35t-84 11q-24 0 -52 -7.5t-54.5 -19t-48.5 -25.5t-34 -27q-11 -12 -26 -12q-17 0 -31 11.5t-14 25.5v114h41z" />
    <glyph glyph-name="uni12BB" unicode="&#x12bb;" horiz-adv-x="797" 
d="M327 615v-32q0 -14 14 -14h63q17 0 33.5 14.5t16.5 39.5q0 26 -17 39.5t-33 13.5h-63q-9 0 -11.5 -2.5t-2.5 -9.5v-32h-193v30q0 14 -14 14h-63q-17 0 -33.5 -13.5t-16.5 -39.5q0 -25 16.5 -39.5t33.5 -14.5h62q9 0 12 3t3 9v34h39v-117q0 -44 15.5 -60t46.5 -16
q25 0 39.5 12t16.5 41q0 -9 7 -15t15.5 -9.5t16.5 -5t10 -1.5q-28 -35 -43.5 -83.5t-15.5 -102.5v-72q0 -45 15.5 -61t46.5 -16q29 0 45.5 19t16.5 57v84q0 73 13.5 123t32 80.5t38 43.5t32.5 13q30 0 47 -7t25.5 -22t11 -39.5t2.5 -59.5v-339q0 -45 15.5 -61t46.5 -16
q29 0 46 19.5t17 57.5v291q0 53 -9 91t-30 62t-55 35t-84 11q-14 0 -41 -7t-56.5 -18t-55 -23.5t-35.5 -24.5q-12 -13 -30 -13q-16 0 -29.5 9.5t-13.5 22.5v117h34z" />
    <glyph glyph-name="uni12BC" unicode="&#x12bc;" horiz-adv-x="911" 
d="M329 619v-32q0 -14 14 -14h63q17 0 33.5 14.5t16.5 39.5q0 26 -17 39.5t-33 13.5h-63q-9 0 -11.5 -2.5t-2.5 -9.5v-32h-193v30q0 14 -14 14h-63q-17 0 -33.5 -13.5t-16.5 -39.5q0 -25 16.5 -39.5t33.5 -14.5h62q9 0 12 3t3 9v34h33v-120q0 -44 15.5 -61.5t46.5 -17.5
q23 0 39 13.5t18 38.5q1 -8 8 -13.5t15 -8.5t15 -4t9 -1q-20 -29 -31.5 -54t-17.5 -53.5t-8 -64.5t-2 -87v-125q0 -45 16 -61t46 -16t46.5 18.5t16.5 56.5v173q0 108 9 168.5t24.5 89.5t36.5 35t44 6q28 0 45.5 -6.5t26.5 -21.5t12 -40t3 -61v-323q0 -49 17 -68.5t69 -19.5
h81q36 0 61.5 4t42.5 15.5t25 32t8 53.5q0 46 -11.5 72.5t-32.5 39.5t-49.5 16t-61.5 3v-17q42 0 54 -27t12 -87q0 -48 -10 -71t-38 -23q-23 0 -32.5 27.5t-9.5 76.5v248q0 53 -9 91t-30 62t-55 35t-84 11q-23 0 -51.5 -7.5t-55.5 -19t-49 -25.5t-33 -27q-11 -12 -26 -12
q-17 0 -31 11.5t-14 25.5v120h40z" />
    <glyph glyph-name="uni12BD" unicode="&#x12bd;" horiz-adv-x="807" 
d="M327 614v-32q0 -14 14 -14h63q17 0 33.5 14.5t16.5 39.5q0 26 -17 39.5t-33 13.5h-63q-9 0 -11.5 -2.5t-2.5 -9.5v-32h-193v30q0 14 -14 14h-63q-17 0 -33.5 -13.5t-16.5 -39.5q0 -25 16.5 -39.5t33.5 -14.5h62q9 0 12 3t3 9v34h35v-116q0 -44 15.5 -60t46.5 -16
q23 0 39 12t18 37q1 -9 8 -14.5t15 -8t15 -3.5t9 -1q-16 -24 -26.5 -42.5t-18.5 -37.5t-15 -41t-16 -53l67 19q-15 -20 -25 -35.5t-16 -32.5t-8.5 -37.5t-2.5 -49.5v-68q0 -45 16.5 -63.5t46.5 -18.5t46 22t16 60v105q0 34 2 56.5t7.5 40t15 32.5t24.5 35l-58 -11
q0 51 13.5 89t33 64t42 39t40.5 13q28 0 45.5 -6t26.5 -20.5t12 -39.5t3 -62v-340q0 -45 16.5 -61t47.5 -16q61 0 61 77v292q0 53 -9 91t-30 62t-55 35t-84 11q-23 0 -51.5 -7.5t-56 -19t-50.5 -26t-35 -27.5q-11 -11 -26 -11q-17 0 -31 11.5t-14 25.5v116h38z" />
    <glyph glyph-name="uni12BE" unicode="&#x12be;" horiz-adv-x="786" 
d="M326 620v-32q0 -14 14 -14h63q17 0 33.5 14.5t16.5 39.5q0 26 -17 39.5t-33 13.5h-63q-9 0 -11.5 -2.5t-2.5 -9.5v-32h-193v30q0 14 -14 14h-63q-17 0 -33.5 -13.5t-16.5 -39.5q0 -25 16.5 -39.5t33.5 -14.5h62q9 0 12 3t3 9v34h30v-121q0 -44 15.5 -59.5t46.5 -15.5
q23 0 38.5 11.5t17.5 36.5q1 -8 8 -13.5t15 -8.5t15 -4t9 -1q-20 -29 -31.5 -57.5t-17.5 -62t-8 -73.5t-2 -90v-100q0 -45 17 -61t47 -16q61 0 61 77v147q0 107 9.5 171t25.5 97.5t36.5 43.5t42.5 10q28 0 45.5 -6.5t26.5 -21.5t12 -40t3 -61v-206q0 -45 15 -60.5t47 -15.5
q28 0 45.5 19.5t17.5 56.5v158q0 53 -9 91t-30 62t-55 35t-84 11q-23 0 -51.5 -7.5t-55.5 -19t-49 -25.5t-33 -27q-11 -12 -26 -12q-17 0 -31 11.5t-14 25.5v121h44z" />
    <glyph glyph-name="Uni12C0" unicode="&#x12c0;" horiz-adv-x="1055" 
d="M326 614v-32q0 -14 14 -14h63q17 0 33.5 14.5t16.5 39.5q0 26 -17 39.5t-33 13.5h-63q-9 0 -11.5 -2.5t-2.5 -9.5v-32h-193v30q0 14 -14 14h-63q-17 0 -33.5 -13.5t-16.5 -39.5q0 -25 16.5 -39.5t33.5 -14.5h62q9 0 12 3t3 9v34h25v-115q0 -44 17 -59.5t48 -15.5
q23 0 39.5 11.5t19.5 36.5q1 -8 8 -13.5t15.5 -8.5t15.5 -4t9 -1q-38 -55 -49 -118q-5 -33 -7.5 -73.5t-2.5 -91.5v-99q0 -45 17.5 -61t47.5 -16q60 0 60 77v146q0 107 13 171t32 97.5t41 43.5t41 10q32 0 49.5 -10.5t25.5 -29.5q8 -17 10 -39.5t2 -59.5v-329
q0 -45 17.5 -61t47.5 -16q60 0 60 77v310h24q10 -1 16 -5.5t6 -20.5v-72q0 -27 7 -45t22.5 -28.5t41.5 -15t64 -4.5q43 0 69.5 7t40 21.5t18 35t4.5 47.5q0 38 -20.5 65t-59.5 27h-233v8q0 43 -9.5 73t-30.5 49.5t-55 28.5t-83 9q-20 0 -50 -7t-60.5 -18.5t-56 -25.5
t-35.5 -28q-11 -12 -26 -12q-17 0 -31.5 11.5t-14.5 25.5v115h43zM958 269q0 -37 -7.5 -57.5t-34.5 -20.5q-24 0 -34.5 22.5t-10.5 55.5v39q0 30 11.5 48.5t29.5 18.5q21 0 33.5 -16.5t12.5 -49.5v-40z" />
    <glyph glyph-name="Uni12C2" unicode="&#x12c2;" horiz-adv-x="1066" 
d="M324 616v-32q0 -14 14 -14h63q17 0 33.5 14.5t16.5 39.5q0 26 -17 39.5t-33 13.5h-63q-9 0 -11.5 -2.5t-2.5 -9.5v-32h-193v30q0 14 -14 14h-63q-17 0 -33.5 -13.5t-16.5 -39.5q0 -25 16.5 -39.5t33.5 -14.5h62q9 0 12 3t3 9v34h26v-117q0 -44 16.5 -61.5t47.5 -17.5
q23 0 40.5 13.5t19.5 38.5q1 -8 8 -13.5t15 -8.5t15.5 -4t9.5 -1q-40 -55 -49 -118q-5 -33 -8 -73.5t-3 -91.5v-99q0 -45 18 -61t48 -16q59 0 59 77v146q0 107 13 171t32.5 97.5t41.5 43.5t41 10q31 0 48.5 -10.5t26.5 -29.5q8 -17 9.5 -39.5t1.5 -59.5v-329q0 -45 18 -61
t48 -16q59 0 59 77v244h47v-45h152v-48q0 -29 17.5 -49t45.5 -20q30 0 46 19.5t16 48.5v49q0 12 -5.5 16t-16.5 4h-130v93q0 37 -15 52.5t-43 15.5q-32 0 -49.5 -15t-17.5 -48v-56h-47v38q0 49 -8.5 85.5t-29 59.5t-54.5 34.5t-85 11.5q-20 0 -50 -7t-60.5 -18.5t-56 -25.5
t-36.5 -28q-11 -12 -25 -12q-18 0 -32 11.5t-14 25.5v117h42z" />
    <glyph glyph-name="Uni12C3" unicode="&#x12c3;" horiz-adv-x="916" 
d="M327 619v-32q0 -14 14 -14h63q17 0 33.5 14.5t16.5 39.5q0 26 -17 39.5t-33 13.5h-63q-9 0 -11.5 -2.5t-2.5 -9.5v-32h-193v30q0 14 -14 14h-63q-17 0 -33.5 -13.5t-16.5 -39.5q0 -25 16.5 -39.5t33.5 -14.5h62q9 0 12 3t3 9v34h27v-114q0 -44 18.5 -61t49.5 -17
q24 0 38.5 11t16.5 41q1 -9 8.5 -14.5t15.5 -8.5t15 -4.5t9 -1.5q-38 -52 -48.5 -102t-10.5 -105v-41q0 -88 62 -88q28 0 45.5 25t17.5 63v87q0 120 32 179.5t95 69.5q32 0 49.5 -10.5t26.5 -29.5q7 -18 9 -40.5t2 -59.5v-277h-138q-11 0 -16 -3.5t-5 -14.5v-47
q0 -30 17 -49.5t45 -19.5q30 0 46.5 20t16.5 50v48h160q26 0 36 -20.5t10 -58.5v-76q0 -33 17.5 -47.5t45.5 -14.5q61 0 61 64v58q0 39 -9 61t-29 33t-52.5 13.5t-80.5 2.5v240q0 53 -9 91t-29.5 62t-54.5 35.5t-84 11.5q-20 0 -50 -7.5t-61 -19.5t-56.5 -26t-35.5 -27
q-11 -12 -26 -12q-17 0 -31.5 11t-14.5 26v114h42z" />
    <glyph glyph-name="Uni12C4" unicode="&#x12c4;" horiz-adv-x="921" 
d="M326 617v-32q0 -14 14 -14h63q17 0 33.5 14.5t16.5 39.5q0 26 -17 39.5t-33 13.5h-63q-9 0 -11.5 -2.5t-2.5 -9.5v-32h-193v30q0 14 -14 14h-63q-17 0 -33.5 -13.5t-16.5 -39.5q0 -25 16.5 -39.5t33.5 -14.5h62q9 0 12 3t3 9v34h25v-118q0 -44 17.5 -61t48.5 -17
q25 0 40.5 11.5t17.5 39.5q1 -8 8 -13.5t15 -8.5t15 -4t9 -1q-38 -53 -48.5 -103t-10.5 -106v-50q0 -45 17 -62t47 -17q61 0 61 79v97q0 121 32 180t96 68q31 0 48.5 -10.5t26.5 -29.5q8 -17 9.5 -39.5t1.5 -59.5v-371h-157q-13 0 -17 -4t-4 -16v-65q0 -29 16.5 -48.5
t45.5 -19.5t45.5 20t16.5 49v45q0 18 22 18h157q60 0 95.5 7.5t54.5 23t24.5 40t5.5 58.5q0 38 -8 63.5t-23 40.5t-37.5 21.5t-50.5 6.5q-23 0 -37 -11v-12q21 0 34 -4t20.5 -16t10 -34t2.5 -58q0 -23 -1 -42.5t-6 -33.5t-15 -22t-27 -8q-23 0 -32.5 23t-9.5 75v236
q0 105 -39 152q-38 47 -138 47q-20 0 -50 -7t-60.5 -18.5t-56 -25.5t-36.5 -28q-11 -12 -26 -12q-17 0 -31 11.5t-14 25.5v118h43z" />
    <glyph glyph-name="Uni12C5" unicode="&#x12c5;" horiz-adv-x="1023" 
d="M326 617v-32q0 -14 14 -14h63q17 0 33.5 14.5t16.5 39.5q0 26 -17 39.5t-33 13.5h-63q-9 0 -11.5 -2.5t-2.5 -9.5v-32h-193v30q0 14 -14 14h-63q-17 0 -33.5 -13.5t-16.5 -39.5q0 -25 16.5 -39.5t33.5 -14.5h62q9 0 12 3t3 9v34h25v-118q0 -44 18.5 -60t49.5 -16
q23 0 38.5 12t17.5 37q1 -8 8 -13.5t15 -8.5t15 -4t9 -1q-39 -56 -48 -118q-5 -33 -8 -73.5t-3 -91.5v-99q0 -45 17.5 -61t48.5 -16q59 0 59 77v146q0 107 11.5 171t29 97.5t38 43.5t39.5 10q60 0 74 -40q9 -17 11 -39.5t2 -59.5v-329q0 -45 15 -61t47 -16q28 0 45 19.5
t17 57.5v256h169v-62q0 -29 17 -44.5t46 -15.5q28 0 44.5 15t16.5 44v67q0 16 -17 16h-110v84q0 32 -17 49t-46 17q-31 0 -46.5 -16.5t-15.5 -52.5v-84h-41v18q0 53 -9 90.5t-30 61.5t-55 35.5t-84 11.5q-20 0 -48 -7t-56.5 -18.5t-52.5 -25.5t-35 -28q-11 -12 -26 -12
q-17 0 -31 11.5t-14 25.5v118h43z" />
    <glyph glyph-name="uni12C8" unicode="&#x12c8;" horiz-adv-x="738" 
d="M497 59q54 0 90.5 8t58 23.5t31 37.5t9.5 50v271q0 52 -13 83.5t-34.5 49t-49 23t-56.5 5.5q-33 0 -52 -6.5t-35 -19.5l9 -24q21 26 47 26q13 0 23.5 -5.5t18.5 -20t12.5 -39.5t4.5 -64v-284q0 -53 -14.5 -73.5t-49.5 -20.5q-32 0 -46.5 21t-14.5 73v372q0 60 -61 60
q-26 -13 -40.5 -19t-29.5 -6q-12 0 -27 3t-38 10q-41 -2 -75 -12t-59.5 -30.5t-39.5 -53t-14 -78.5v-248q0 -39 15.5 -61.5t41.5 -34t59.5 -14t69.5 -2.5q34 0 56 13.5t38 26.5q17 -20 55 -30t110 -10zM177 177v307q0 14 3.5 29.5t11.5 28t19.5 21t28.5 8.5q13 0 26 -3
t23 -14.5t16.5 -34.5t6.5 -62v-279q0 -29 3 -48q-12 -27 -34 -38t-42 -11q-21 0 -41.5 23.5t-20.5 72.5z" />
    <glyph glyph-name="uni12C9" unicode="&#x12c9;" horiz-adv-x="865" 
d="M497 59q54 0 90.5 8t58 23.5t31 37.5t9.5 50v14h51v-47q0 -31 17 -45.5t46 -14.5t45.5 14t16.5 45v47q0 11 -5 14.5t-15 3.5h-156v240q0 52 -13 83.5t-34.5 49t-49 23t-56.5 5.5q-33 0 -52 -6.5t-35 -19.5l9 -24q21 26 47 26q13 0 23.5 -5.5t18.5 -20t12.5 -39.5t4.5 -64
v-284q0 -53 -14.5 -73.5t-49.5 -20.5q-32 0 -46.5 21t-14.5 73v372q0 60 -61 60q-26 -13 -40.5 -19t-29.5 -6q-12 0 -27 3t-38 10q-41 -2 -75 -12t-59.5 -30.5t-39.5 -53t-14 -78.5v-248q0 -39 15.5 -61.5t41.5 -34t59.5 -14t69.5 -2.5q34 0 56 13.5t38 26.5q17 -20 55 -30
t110 -10zM177 177v307q0 14 3.5 29.5t11.5 28t19.5 21t28.5 8.5q13 0 26 -3t23 -14.5t16.5 -34.5t6.5 -62v-279q0 -29 3 -48q-12 -27 -34 -38t-42 -11q-21 0 -41.5 23.5t-20.5 72.5z" />
    <glyph glyph-name="uni12CA" unicode="&#x12ca;" horiz-adv-x="689" 
d="M345 -13h112v-55h94q18 0 36 17t18 46q0 30 -18.5 46t-35.5 16h-94v-54h-22q-17 0 -22.5 11t-5.5 46v238q7 -8 22 -12t29 -4q54 0 89 7.5t54.5 21.5t27 35.5t7.5 50.5v101q0 52 -12.5 83.5t-33.5 48.5t-48.5 23t-56.5 6q-17 0 -27.5 -1.5t-17.5 -5t-12 -8.5t-11 -12
l9 -24q7 14 16 20t20 6q13 0 22.5 -5.5t15.5 -19.5t9 -39t3 -64v-114q0 -27 -2 -44.5t-8 -28t-16.5 -15t-27.5 -4.5q-21 0 -36 7t-15 23v263q0 60 -61 60q-27 -11 -38 -18t-23 -7q-8 0 -20.5 3.5t-33.5 11.5q-41 -3 -74.5 -12.5t-56.5 -30t-35.5 -52.5t-12.5 -80v-78
q0 -39 14 -61t37.5 -33t55.5 -13.5t68 -2.5q22 0 33.5 4.5t21.5 11.5v-252q0 -29 18.5 -43t44.5 -14zM177 392v140q0 15 2 31t8 29t16.5 21t27.5 8q13 0 23 -3.5t16 -15.5t9 -35t3 -61v-178q-13 -22 -24.5 -27t-31.5 -5q-21 0 -35 22.5t-14 73.5z" />
    <glyph glyph-name="uni12CB" unicode="&#x12cb;" horiz-adv-x="689" 
d="M348 -13q59 0 59 77v246q8 -8 22.5 -11.5t28.5 -3.5q54 0 89 8t54.5 23.5t27 37.5t7.5 51v113q0 38 -12.5 63t-33.5 40t-48.5 21.5t-56.5 6.5q-17 0 -27.5 -1.5t-17.5 -5t-12 -8.5t-11 -12l9 -24q7 14 16 20t20 6q13 0 22.5 -5.5t15.5 -19.5t9 -39t3 -64v-96
q0 -54 -10 -75.5t-44 -21.5q-21 0 -36 7t-15 23v250q0 60 -61 60q-27 -11 -38 -18t-23 -7q-8 0 -20.5 3.5t-33.5 11.5q-41 -3 -74.5 -13t-56.5 -30t-35.5 -52t-12.5 -80v-60q0 -39 14 -61t37.5 -33t55.5 -13.5t68 -2.5q22 0 33.5 4.5t21.5 11.5v-250q0 -45 17 -61t49 -16z
M177 410v122q0 15 2 31t8 29t16.5 21t27.5 8q13 0 23 -3.5t16 -15.5t9 -35t3 -61v-160q-13 -22 -24.5 -27t-31.5 -5q-21 0 -35 22.5t-14 73.5z" />
    <glyph glyph-name="uni12CC" unicode="&#x12cc;" horiz-adv-x="689" 
d="M407 102v217q8 -8 22.5 -13t28.5 -5q54 0 89 7t54.5 20.5t27 34.5t7.5 50v85q0 52 -12.5 83.5t-33.5 48.5t-48.5 23t-56.5 6q-17 0 -27.5 -1.5t-17.5 -5t-12 -8.5t-11 -12l9 -24q7 14 16 20t20 6q13 0 22.5 -5.5t15.5 -19.5t9 -39t3 -64v-98q0 -27 -2 -44t-8 -27
t-16.5 -14t-27.5 -4q-21 0 -36 7t-15 23v244q0 60 -61 60q-27 -11 -38 -18t-23 -7q-8 0 -20.5 3.5t-33.5 11.5q-41 -3 -74.5 -13t-56.5 -30t-35.5 -52t-12.5 -80v-62q0 -39 14 -61t37.5 -33t55.5 -13.5t68 -2.5q22 0 33.5 4.5t21.5 11.5v-237q0 -49 17.5 -68.5t69.5 -19.5
h80q36 0 62.5 4t43 15.5t24.5 32t8 52.5q0 43 -12 66.5t-32.5 35t-48.5 14t-61 2.5v-16q20 0 33 -4t20 -15.5t9.5 -31.5t2.5 -51q0 -48 -7.5 -70t-41.5 -22q-30 0 -36 27t-6 76zM177 408v124q0 15 2 31t8 29t16.5 21t27.5 8q13 0 23 -3.5t16 -15.5t9 -35t3 -61v-162
q-13 -22 -24.5 -27t-31.5 -5q-21 0 -35 22.5t-14 73.5z" />
    <glyph glyph-name="uni12CD" unicode="&#x12cd;" horiz-adv-x="848" 
d="M497 59q54 0 90.5 8t58 23.5t31 37.5t9.5 50v182h36v-48q0 -30 16.5 -43.5t45.5 -13.5t45.5 13t16.5 43v49q0 11 -5.5 13.5t-12.5 2.5h-142v73q0 52 -13 83.5t-34.5 49t-49 23t-56.5 5.5q-33 0 -52 -6.5t-35 -19.5l9 -24q21 26 47 26q13 0 23.5 -5.5t18.5 -20t12.5 -39.5
t4.5 -64v-284q0 -53 -14.5 -73.5t-49.5 -20.5q-32 0 -46.5 21t-14.5 73v372q0 60 -61 60q-26 -13 -40.5 -19t-29.5 -6q-12 0 -27 3t-38 10q-41 -2 -75 -12t-59.5 -30.5t-39.5 -53t-14 -78.5v-248q0 -39 15.5 -61.5t41.5 -34t59.5 -14t69.5 -2.5q34 0 56 13.5t38 26.5
q17 -20 55 -30t110 -10zM177 177v307q0 14 3.5 29.5t11.5 28t19.5 21t28.5 8.5q13 0 26 -3t23 -14.5t16.5 -34.5t6.5 -62v-279q0 -29 3 -48q-12 -27 -34 -38t-42 -11q-21 0 -41.5 23.5t-20.5 72.5z" />
    <glyph glyph-name="uni12CE" unicode="&#x12ce;" horiz-adv-x="689" 
d="M127 -13q28 0 44 16t16 61v53q0 15 16.5 25t40.5 18.5t53 17t53 20t40.5 28.5t16.5 43v51q8 -8 22.5 -12.5t28.5 -4.5q54 0 89 8t54.5 23.5t27 37.5t7.5 51v75q0 52 -12.5 83.5t-33.5 48.5t-48.5 23t-56.5 6q-17 0 -27.5 -1.5t-17.5 -5t-12 -8.5t-11 -12l9 -24
q7 14 16 20t20 6q13 0 22.5 -5.5t15.5 -19.5t9 -39t3 -64v-88q0 -54 -10 -75.5t-44 -21.5q-21 0 -36 7t-15 23v242q0 60 -61 60q-27 -11 -38 -18t-23 -7q-8 0 -20.5 3.5t-33.5 11.5q-41 -3 -74.5 -13t-56.5 -30t-35.5 -52t-12.5 -80v-78q0 -39 14 -61t37.5 -33t55.5 -13.5
t68 -2.5q22 0 33.5 4.5t21.5 11.5v-34q0 -19 -16.5 -31.5t-40.5 -22.5t-53 -19t-53 -19t-40.5 -23t-16.5 -32v-51q0 -45 17 -61t48 -16zM177 392v140q0 15 2 31t8 29t16.5 21t27.5 8q13 0 23 -3.5t16 -15.5t9 -35t3 -61v-178q-13 -22 -24.5 -27t-31.5 -5q-21 0 -35 22.5
t-14 73.5z" />
    <glyph glyph-name="uni12D0" unicode="&#x12d0;" horiz-adv-x="534" 
d="M482 598q0 60 -61 60q-27 -12 -47 -19t-41 -7q-28 0 -73 16q-41 -2 -78.5 -12t-66 -30.5t-46 -53t-17.5 -80.5v-372q0 -40 19 -62.5t49 -34t66.5 -14t71.5 -2.5t68.5 13.5t50.5 26.5q8 -14 22.5 -20.5t34.5 -6.5q30 0 39 22.5t9 60.5v515zM177 106v432q0 14 6.5 29.5
t17.5 28.5t26.5 21.5t32.5 8.5q14 0 31 -3.5t31.5 -15.5t24.5 -35t10 -62v-453q-6 -14 -18.5 -23t-26.5 -14.5t-28.5 -8t-24.5 -2.5q-11 0 -25 5.5t-26.5 17.5t-21.5 30t-9 44z" />
    <glyph glyph-name="uni12D1" unicode="&#x12d1;" horiz-adv-x="658" 
d="M482 598q0 60 -61 60q-27 -12 -47 -19t-41 -7q-28 0 -73 16q-41 -2 -78.5 -12t-66 -30.5t-46 -53t-17.5 -80.5v-372q0 -40 19 -62.5t49 -34t66.5 -14t71.5 -2.5t68.5 13.5t50.5 26.5q10 -14 24.5 -20t35.5 -6q24 0 34.5 20t10.5 62v293h42v-47q0 -31 17 -45.5t46 -14.5
q28 0 44.5 14t16.5 45v48q0 11 -6.5 13.5t-16.5 2.5h-143v206zM177 106v432q0 14 6.5 29.5t17.5 28.5t26.5 21.5t32.5 8.5q14 0 31 -3.5t31.5 -15.5t24.5 -35t10 -62v-453q-6 -14 -18.5 -23t-26.5 -14.5t-28.5 -8t-24.5 -2.5q-11 0 -25 5.5t-26.5 17.5t-21.5 30t-9 44z" />
    <glyph glyph-name="uni12D2" unicode="&#x12d2;" horiz-adv-x="677" 
d="M417 -13h112v-55h83q18 0 36.5 17t18.5 46q0 15 -5.5 26.5t-13.5 19.5t-17.5 12t-18.5 4h-83v-54h-22q-17 0 -22.5 11t-5.5 46v547q0 60 -61 60q-27 -12 -47.5 -19t-41.5 -7q-28 0 -72 16q-41 -2 -78 -9t-65 -23.5t-45 -46t-17 -75.5v-115q0 -38 17.5 -60.5t46 -34.5
t64 -15.5t71.5 -3.5q26 0 54.5 11.5t48.5 23.5v-265q0 -29 18.5 -43t44.5 -14zM177 395v152q0 14 6 29.5t16.5 28.5t25.5 21.5t32 8.5q13 0 30 -3.5t32 -15.5t25 -35t10 -62v-165q-5 -14 -17 -24t-27 -16t-29.5 -9t-24.5 -3q-11 0 -24.5 5t-25.5 16.5t-20.5 29t-8.5 42.5z
" />
    <glyph glyph-name="uni12D3" unicode="&#x12d3;" horiz-adv-x="531" 
d="M400 -13q29 0 46 19.5t17 57.5v534q0 60 -61 60q-27 -12 -47.5 -19t-41.5 -7q-28 0 -72 16q-41 -2 -78 -8t-65 -22t-45 -45t-17 -77v-123q0 -40 18.5 -62t47.5 -32.5t65 -12.5t72 -2q26 0 52.5 8.5t46.5 19.5v-228q0 -45 15.5 -61t46.5 -16zM161 379v159q0 14 6 29.5
t16.5 28.5t25.5 21.5t32 8.5q13 0 30 -3.5t32 -15.5t25 -35t10 -62v-172q-5 -15 -17.5 -24.5t-27 -15.5t-29 -8.5t-24.5 -2.5q-11 0 -24.5 5t-25.5 16t-20.5 28.5t-8.5 42.5z" />
    <glyph glyph-name="uni12D4" unicode="&#x12d4;" horiz-adv-x="652" 
d="M464 102v504q0 60 -61 60q-27 -12 -47.5 -19t-41.5 -7q-28 0 -72 16q-41 -2 -78 -8.5t-65 -23t-45 -45.5t-17 -77v-115q0 -39 18.5 -61.5t47.5 -34t65 -14.5t72 -3q26 0 52.5 10.5t46.5 22.5v-232q0 -49 18 -68.5t68 -19.5h81q36 0 62 4t42.5 15.5t24.5 32t8 52.5
q0 47 -11.5 73.5t-32.5 39.5t-49 16t-61 3v-16q42 0 53.5 -27.5t11.5 -88.5q0 -48 -10 -70.5t-38 -22.5q-23 0 -32.5 26.5t-9.5 77.5zM162 393v153q0 14 6 29.5t16.5 28.5t25.5 21.5t32 8.5q13 0 30 -3.5t32 -15.5t25 -35t10 -62v-166q-5 -14 -17 -24.5t-27 -18t-29.5 -11.5
t-24.5 -4q-11 0 -24.5 6t-25.5 18.5t-20.5 31t-8.5 43.5z" />
    <glyph glyph-name="uni12D5" unicode="&#x12d5;" horiz-adv-x="534" 
d="M482 476q0 59 -61 59q-26 -11 -46 -18t-40 -7h-1v90q0 59 -61 59q-27 0 -45 -16t-18 -43v-81q-33 -7 -62 -19t-50 -32t-33.5 -49t-12.5 -69v-250q0 -40 19 -62.5t49 -34t66.5 -14t71.5 -2.5t68.5 13.5t50.5 26.5q9 -17 25.5 -21.5t34.5 -4.5q24 0 34.5 22t10.5 60v393z
M177 106v309q0 15 6.5 30.5t17.5 28t26.5 21t32.5 8.5q14 0 31 -3.5t31.5 -15.5t24.5 -34.5t10 -61.5v-331q-6 -14 -18.5 -23t-26.5 -14.5t-28.5 -8t-24.5 -2.5q-11 0 -25 5.5t-26.5 17.5t-21.5 30t-9 44z" />
    <glyph glyph-name="uni12D6" unicode="&#x12d6;" horiz-adv-x="570" 
d="M118 -20q28 0 43.5 16t15.5 61v53q0 15 13.5 26t34 21t44.5 20t44.5 23.5t34 31.5t13.5 44q36 14 52 29q5 -13 21.5 -19t37.5 -6q25 0 35.5 21.5t10.5 60.5v250q0 60 -61 60q-27 -11 -47.5 -18t-42.5 -7q-15 0 -32 3.5t-39 11.5q-40 -2 -77.5 -8t-66.5 -21.5t-46.5 -44
t-17.5 -76.5v-134q0 -32 12 -52.5t32.5 -33t47.5 -18.5t56 -8q-1 -18 -15 -31.5t-34.5 -25t-44 -22t-43.5 -22t-33.5 -25t-13.5 -31.5v-52q0 -45 17 -61t49 -16zM213 384v168q0 14 6.5 29.5t17.5 28.5t26.5 21.5t32.5 8.5q13 0 30 -3.5t32 -15.5t25 -35t10 -62v-195
q-6 -14 -18.5 -22t-27 -12.5t-29 -6t-23.5 -1.5q-11 0 -25 6t-27 18t-21.5 30t-8.5 43z" />
    <glyph glyph-name="uni12D8" unicode="&#x12d8;" horiz-adv-x="534" 
d="M482 593q0 45 -16.5 58t-45.5 13t-46 -13t-17 -58v-191h-180v191q0 45 -16 58t-46 13q-29 0 -46 -13t-17 -58v-532q0 -44 17 -59t48 -15q60 0 60 74v323h180v-323q0 -44 15.5 -59t46.5 -15q29 0 46 18t17 56v532z" />
    <glyph glyph-name="uni12D9" unicode="&#x12d9;" horiz-adv-x="652" 
d="M482 594q0 45 -16.5 57.5t-45.5 12.5t-46 -12.5t-17 -57.5v-191h-180v191q0 45 -16 57.5t-46 12.5q-29 0 -46 -12.5t-17 -57.5v-533q0 -44 17 -59t48 -15q60 0 60 74v324h180v-324q0 -44 15.5 -59t46.5 -15q29 0 46 18t17 56v267h37v-49q0 -29 16.5 -44.5t46.5 -15.5
q29 0 45.5 15t16.5 44v45q0 12 -5.5 16t-17.5 4h-139v251z" />
    <glyph glyph-name="uni12DA" unicode="&#x12da;" horiz-adv-x="682" 
d="M420 -7h112v-55h94q18 0 35.5 17t17.5 46t-18 45.5t-35 16.5h-94v-54h-22q-18 0 -23 10.5t-5 46.5v527q0 45 -16.5 58.5t-45.5 13.5t-46 -13.5t-17 -58.5v-191h-180v191q0 45 -16 58.5t-46 13.5q-29 0 -46 -13.5t-17 -58.5v-532q0 -44 17 -59.5t48 -15.5q60 0 60 75v323
h180v-335q0 -28 18.5 -42t44.5 -14z" />
    <glyph glyph-name="uni12DB" unicode="&#x12db;" horiz-adv-x="534" 
d="M473 592q0 45 -16.5 58.5t-45.5 13.5t-46 -13.5t-17 -58.5v-191h-180v191q0 45 -16 58.5t-46 13.5q-29 0 -46 -13.5t-17 -58.5v-368q0 -45 17 -61t48 -16q60 0 60 77v159h180v-322q0 -44 15.5 -59t46.5 -15q29 0 46 18t17 56v531z" />
    <glyph glyph-name="uni12DC" unicode="&#x12dc;" horiz-adv-x="658" 
d="M475 107v484q0 45 -16.5 59t-45.5 14t-46 -14t-17 -59v-191h-180v191q0 45 -16 59t-46 14q-29 0 -46 -14t-17 -59v-530q0 -44 17 -59.5t48 -15.5q60 0 60 75v321h180v-302q0 -50 17.5 -69t68.5 -19h81q36 0 62 4t42.5 15.5t24.5 32t8 53.5q0 46 -11.5 72.5t-32.5 39.5
t-49 16t-61 3v-17q42 0 53.5 -27t11.5 -87q0 -48 -10 -71t-38 -23q-23 0 -32.5 27.5t-9.5 76.5z" />
    <glyph glyph-name="uni12DD" unicode="&#x12dd;" horiz-adv-x="705" 
d="M267 622h-111v54h-95q-18 0 -36 -16.5t-18 -46.5q0 -15 5 -26.5t13 -19.5t17.5 -12t18.5 -4h95v55h22q16 0 21.5 -11t5.5 -47v-487q0 -44 17.5 -59.5t48.5 -15.5q59 0 59 75v302h179v-302q0 -44 17 -59.5t48 -15.5q60 0 60 75v532q0 45 -16.5 58t-45.5 13
q-30 0 -46.5 -13t-16.5 -58v-212h-179v184q0 28 -18.5 42.5t-44.5 14.5z" />
    <glyph glyph-name="uni12DE" unicode="&#x12de;" horiz-adv-x="534" 
d="M482 591q0 45 -16.5 59t-45.5 14t-46 -14t-17 -59v-191h-180v191q0 45 -16 59t-46 14q-29 0 -46 -14t-17 -59v-530q0 -45 17 -61t48 -16q60 0 60 77v321h180v-157q0 -45 15.5 -61t46.5 -16q29 0 46 19.5t17 57.5v366z" />
    <glyph glyph-name="uni12DF" unicode="&#x12df;" horiz-adv-x="618" 
d="M484 45v-42q0 -22 17 -38.5t45 -16.5q29 0 45.5 16.5t16.5 37.5v59h-143v531q0 45 -16.5 58.5t-45.5 13.5t-46 -13.5t-17 -58.5v-191h-180v191q0 45 -16 58.5t-46 13.5q-29 0 -46 -13.5t-17 -58.5v-368q0 -45 17 -61t48 -16q60 0 60 77v159h180v-322h-137v-59
q0 -23 16.5 -38.5t45.5 -15.5q28 0 45 16t17 39v42h157z" />
    <glyph glyph-name="uni12E0" unicode="&#x12e0;" horiz-adv-x="757" 
d="M174 649h-43v-49q0 -29 -17 -44.5t-46 -15.5t-45.5 15t-16.5 44v65h168q36 0 60 -2t38 -12t20 -30t6 -56v-164h160v164q0 36 6 56t20.5 30t38.5 12t60 2h168v-65q0 -59 -60 -59q-29 0 -47 15.5t-18 44.5v49h-43v-588q0 -38 -17 -57.5t-46 -19.5q-31 0 -46.5 16t-15.5 61
v321h-160v-321q0 -77 -61 -77q-30 0 -46.5 16t-16.5 61v588z" />
    <glyph glyph-name="uni12E1" unicode="&#x12e1;" horiz-adv-x="761" 
d="M621 345v-48q0 -30 16.5 -45t46.5 -15q29 0 45.5 14.5t16.5 44.5v65h-162v288h43v-49q0 -29 18 -44.5t47 -15.5q60 0 60 59v65h-168q-36 0 -60 -2t-38.5 -12t-20.5 -30t-6 -56v-164h-160v164q0 36 -6 56t-20 30t-38 12t-60 2h-168v-65q0 -29 16.5 -44t45.5 -15t46 15.5
t17 44.5v49h43v-588q0 -45 16.5 -61t46.5 -16q61 0 61 77v321h160v-321q0 -45 15.5 -61t46.5 -16q29 0 46 19.5t17 57.5v284h37z" />
    <glyph glyph-name="uni12E2" unicode="&#x12e2;" horiz-adv-x="786" 
d="M521 -11h112v-54h94q18 0 35.5 17.5t17.5 45.5q0 30 -18 46t-35 16h-94v-54h-22q-18 0 -23 11t-5 46v587h43v-49q0 -29 18 -44.5t47 -15.5q60 0 60 59v65h-168q-36 0 -60 -2t-38.5 -12t-20.5 -30t-6 -56v-164h-160v164q0 36 -6 56t-20 30t-38 12t-60 2h-168v-65
q0 -29 16.5 -44t45.5 -15t46 15.5t17 44.5v49h43v-589q0 -45 16.5 -61t46.5 -16q61 0 61 77v322h160v-336q0 -29 18.5 -43.5t44.5 -14.5z" />
    <glyph glyph-name="uni12E3" unicode="&#x12e3;" horiz-adv-x="759" 
d="M174 649h-43v-49q0 -29 -17 -44.5t-46 -15.5t-45.5 15t-16.5 44v65h168q36 0 60 -2t38 -12t20 -30t6 -56v-164h160v164q0 36 6 56t20.5 30t38.5 12t60 2h168v-65q0 -59 -60 -59q-29 0 -47 15.5t-18 44.5v49h-43v-588q0 -38 -17 -57.5t-46 -19.5q-31 0 -46.5 16t-15.5 61
v321h-160v-158q0 -77 -61 -77q-30 0 -46.5 16t-16.5 61v425z" />
    <glyph glyph-name="uni12E4" unicode="&#x12e4;" horiz-adv-x="772" 
d="M583 105v544h43v-49q0 -29 18 -44.5t47 -15.5q60 0 60 59v65h-168q-36 0 -60 -2t-38.5 -12t-20.5 -30t-6 -56v-164h-160v164q0 36 -6 56t-20 30t-38 12t-60 2h-168v-65q0 -29 16.5 -44t45.5 -15t46 15.5t17 44.5v49h43v-588q0 -45 16.5 -61t46.5 -16q61 0 61 77v321h160
v-304q0 -49 18 -69t68 -20h81q36 0 62 4.5t42.5 16t24.5 32t8 52.5q0 47 -11.5 73.5t-32.5 39.5t-49 16t-61 3v-17q42 0 53.5 -27t11.5 -88q0 -48 -10 -70.5t-38 -22.5q-23 0 -32.5 27.5t-9.5 76.5z" />
    <glyph glyph-name="uni12E5" unicode="&#x12e5;" horiz-adv-x="765" 
d="M291 639h-160v32q0 23 -17 37t-45 14q-29 0 -45.5 -13.5t-16.5 -36.5v-49h156v-26h-149v-65q0 -29 16.5 -43.5t45.5 -14.5t46 15t17 44v49h43v-521q0 -45 16.5 -61t46.5 -16q61 0 61 77v316h160v-316q0 -45 15.5 -61t46.5 -16q29 0 46 19.5t17 57.5v583h43v-49
q0 -29 18 -44.5t47 -15.5q60 0 60 59v65h-168q-36 0 -60 -2t-38.5 -12t-20.5 -30t-6 -56v-164h-160v102q0 43 -8.5 64t-27.5 28v34h145v49q0 21 -16.5 35.5t-45.5 14.5q-28 0 -45 -14.5t-17 -36.5v-32z" />
    <glyph glyph-name="uni12E6" unicode="&#x12e6;" horiz-adv-x="761" 
d="M174 650h-43v-49q0 -29 -17 -44.5t-46 -15.5t-45.5 15t-16.5 44v65h168q36 0 60 -2t38 -12t20 -30t6 -56v-164h160v164q0 36 6 56t20.5 30t38.5 12t60 2h168v-65q0 -59 -60 -59q-29 0 -47 15.5t-18 44.5v49h-43v-426q0 -38 -17 -57.5t-46 -19.5q-31 0 -46.5 16t-15.5 61
v159h-160v-322q0 -77 -61 -77q-30 0 -46.5 16t-16.5 61v589z" />
    <glyph glyph-name="uni12E7" unicode="&#x12e7;" horiz-adv-x="759" 
d="M594 40v-42q0 -22 17 -38.5t45 -16.5q29 0 45.5 16.5t16.5 37.5v59h-135v593h43v-49q0 -29 18 -44.5t47 -15.5q60 0 60 59v65h-168q-36 0 -60 -2t-38.5 -12t-20.5 -30t-6 -56v-164h-160v164q0 36 -6 56t-20 30t-38 12t-60 2h-168v-65q0 -29 16.5 -44t45.5 -15t46 15.5
t17 44.5v49h43v-425q0 -45 16.5 -61t46.5 -16q61 0 61 77v158h160v-326h-145v-59q0 -23 16.5 -38.5t45.5 -15.5q28 0 45 16t17 39v42h157z" />
    <glyph glyph-name="uni12E8" unicode="&#x12e8;" horiz-adv-x="457" 
d="M155 529q0 26 4 47t13.5 36t26 23.5t41.5 8.5q22 0 35 -2t20 -9.5t9 -24t2 -44.5v-96q0 -24 -6.5 -44t-23 -34.5t-43.5 -23t-67 -11.5q-11 42 -11 100v74zM428 565q0 59 -30.5 79t-90.5 20q-85 0 -139.5 -7.5t-86 -23.5t-43.5 -41t-12 -61v-102q0 -47 13.5 -75.5
t30 -51.5t30.5 -46t14 -59v-136q0 -45 17.5 -61.5t49.5 -16.5q31 0 44.5 16.5t13.5 61.5v164q0 43 -15.5 69.5t-52.5 51.5q80 0 130 6.5t78.5 22t38.5 40.5t10 62v88z" />
    <glyph glyph-name="uni12E9" unicode="&#x12e9;" horiz-adv-x="480" 
d="M304 209v-48q0 -31 17 -45.5t46 -14.5q28 0 45 14t17 45v65h-176q0 43 -15.5 69.5t-52.5 51.5q80 0 130 6.5t78.5 22t38.5 40.5t10 62v88q0 59 -30.5 79t-90.5 20q-85 0 -139.5 -7.5t-86 -23.5t-43.5 -41t-12 -61v-102q0 -47 13.5 -75.5t30 -51.5t30.5 -46t14 -59v-136
q0 -45 17.5 -61.5t49.5 -16.5q31 0 44.5 16.5t13.5 61.5v148h51zM169 529q0 26 4 47t13.5 36t26 23.5t41.5 8.5q22 0 35 -2t20 -9.5t9 -24t2 -44.5v-96q0 -24 -6.5 -44t-23 -34.5t-43.5 -23t-67 -11.5q-11 42 -11 100v74z" />
    <glyph glyph-name="uni12EA" unicode="&#x12ea;" horiz-adv-x="569" 
d="M442 565q0 59 -30.5 79t-90.5 20q-85 0 -139.5 -7.5t-86 -23.5t-43.5 -41t-12 -61v-102q0 -47 13.5 -75.5t30 -51.5t30.5 -46t14 -59v-136q0 -45 17.5 -61.5t49.5 -16.5q31 0 44.5 16.5t13.5 61.5v148h36v-44h149v-38q0 -29 17.5 -44t45.5 -15q62 0 62 58v55h-149v66
q0 34 -15.5 47t-43.5 13q-32 0 -48.5 -13.5t-17.5 -48.5v-19h-36q0 42 -15.5 68.5t-52.5 51.5q80 0 130 6.5t78.5 22t38.5 40.5t10 62v88zM169 529q0 26 4 47t13.5 36t26 23.5t41.5 8.5q22 0 35 -2t20 -9.5t9 -24t2 -44.5v-96q0 -24 -6.5 -44t-23 -34.5t-43.5 -23t-67 -11.5
q-11 42 -11 100v74z" />
    <glyph glyph-name="uni12EB" unicode="&#x12eb;" horiz-adv-x="485" 
d="M40 531v-106q0 -58 23.5 -110.5t54.5 -97.5t62.5 -80.5t46.5 -59.5l-182 -55v-58q0 -30 18.5 -45t52.5 -15q32 0 52 12.5t20 42.5v84l150 57q8 4 8 12q0 4 -2.5 8l-4.5 7l-41.5 53l-50.5 65t-43 61t-19 40q80 0 130 6.5t78.5 22t38.5 40.5t10 62v88q0 59 -30.5 79
t-90.5 20q-85 0 -139.5 -7.5t-86 -23.5t-43.5 -41t-12 -61zM169 529q0 26 4 47t13.5 36t26 23.5t41.5 8.5q22 0 35 -2t20 -9.5t9 -24t2 -44.5v-96q0 -24 -6.5 -44t-23 -34.5t-43.5 -23t-67 -11.5q-11 42 -11 100v74z" />
    <glyph glyph-name="uni12EC" unicode="&#x12ec;" horiz-adv-x="518" 
d="M288 268v-66q0 -25 4 -41t15 -25.5t30.5 -13.5t50.5 -4t50 4t30 15t15 30.5t4 50.5q0 26 -3.5 42.5t-11.5 25.5t-20 12.5t-28 3.5h-191q-8 12 -20 22.5t-28 21.5q80 0 130 6.5t78.5 22t38.5 40.5t10 62v88q0 59 -30.5 79t-90.5 20q-85 0 -139.5 -7.5t-86 -23.5t-43.5 -41
t-12 -61v-102q0 -47 13.5 -75.5t30 -51.5t30.5 -46t14 -59v-136q0 -45 17.5 -61.5t49.5 -16.5q31 0 44.5 16.5t13.5 61.5v164q0 39 -13 65h26q11 -1 16.5 -4t5.5 -18zM169 529q0 26 4 47t13.5 36t26 23.5t41.5 8.5q22 0 35 -2t20 -9.5t9 -24t2 -44.5v-96q0 -24 -6.5 -44
t-23 -34.5t-43.5 -23t-67 -11.5q-11 42 -11 100v74zM417 185q0 -22 -5.5 -38t-23.5 -16t-22.5 17t-4.5 38v58q0 16 4.5 30.5t21.5 14.5q19 0 24.5 -14t5.5 -30v-60z" />
    <glyph glyph-name="uni12ED" unicode="&#x12ed;" horiz-adv-x="534" 
d="M17 24q0 -30 18.5 -45t52.5 -15q32 0 52 15.5t20 45.5v40q0 17 1.5 34t12.5 18q14 -12 26 -19t25.5 -10.5t31 -4.5t44.5 -1q43 0 81 4.5t65.5 17t43.5 35t16 57.5v40q0 43 -15 57.5t-45 14.5t-47.5 -14.5t-17.5 -56.5v-48q0 -21 -7.5 -36.5t-19.5 -26t-26.5 -15.5
t-27.5 -5q-35 0 -55.5 25t-31 60.5t-13 74.5t-2.5 68q80 0 132.5 8.5t84 26t44 44.5t12.5 64v88q0 59 -30.5 79t-90.5 20q-85 0 -139.5 -7.5t-86 -23.5t-43.5 -41t-12 -61v-148q0 -42 2.5 -81.5t10.5 -72.5t23 -58t40 -40q-12 -10 -23 -17t-25 -12t-33.5 -8t-47.5 -6v-64z
M199 529q0 26 4 47t13.5 36t26 23.5t41.5 8.5q22 0 35 -2t20 -9.5t9 -24t2 -44.5v-96q0 -33 -8.5 -54t-26.5 -34t-47 -19t-69 -9v177z" />
    <glyph glyph-name="uni12EE" unicode="&#x12ee;" horiz-adv-x="615" 
d="M442 565q0 59 -30.5 79t-90.5 20q-85 0 -139.5 -7.5t-86 -23.5t-43.5 -41t-12 -61v-102q0 -47 13.5 -75.5t30 -51.5t30.5 -46t14 -59v-136q0 -45 17.5 -61.5t49.5 -16.5q31 0 44.5 16.5t13.5 61.5v164q0 43 -15.5 69.5t-52.5 51.5q80 0 130 6.5t78.5 22t38.5 40.5t10 62
v49h40v-48q0 -31 16.5 -45.5t46.5 -14.5q28 0 44.5 14.5t16.5 44.5v65h-164v23zM169 529q0 26 4 47t13.5 36t26 23.5t41.5 8.5q22 0 35 -2t20 -9.5t9 -24t2 -44.5v-96q0 -24 -6.5 -44t-23 -34.5t-43.5 -23t-67 -11.5q-11 42 -11 100v74z" />
    <glyph glyph-name="uni12F0" unicode="&#x12f0;" horiz-adv-x="480" 
d="M180 175q0 14 3.5 25.5t11.5 16.5q13 -6 38 -7t63 -1v-154q0 -68 64 -68q28 0 44.5 17.5t16.5 50.5v174h-126q-22 0 -46.5 1.5t-45 7.5t-34 18.5t-13.5 35.5v41q10 -7 28 -12t34 -5q44 0 81.5 5.5t64.5 20.5t42 42.5t15 72.5v72q0 31 -8 53t-29 35.5t-58 20t-94 6.5
q-62 0 -100 -6.5t-59 -21t-28.5 -37t-7.5 -54.5v-195q0 -37 9.5 -58t26 -31t40 -12.5t50.5 -2.5q-14 -23 -45.5 -44t-80.5 -23v-106q0 -30 19.5 -48t53.5 -18q32 0 51 17.5t19 47.5v123zM296 525v-105q0 -22 -7.5 -38t-18.5 -26t-25 -15t-27 -5q-14 0 -31.5 3.5t-30.5 12.5
v173q0 31 5.5 49.5t15.5 28.5t24 13t31 3q14 0 25.5 -3t20 -13t13.5 -28.5t5 -49.5z" />
    <glyph glyph-name="uni12F1" unicode="&#x12f1;" horiz-adv-x="586" 
d="M454 190v-47q0 -31 17.5 -41.5t45.5 -10.5q29 0 45 10t16 41v48q0 11 -4 14t-14 3h-129v32h-126q-22 0 -46.5 2t-45 8t-34 16.5t-13.5 28.5v39q10 -7 28 -12t34 -5q44 0 81.5 5.5t64.5 20.5t42 42.5t15 72.5v72q0 31 -8 53t-29 35.5t-58 20t-94 6.5q-62 0 -100 -6.5
t-59 -21t-28.5 -37t-7.5 -54.5v-195q0 -37 9.5 -57.5t26 -30.5t40 -12t50.5 -2q-14 -23 -45.5 -44t-80.5 -23v-108q0 -30 19.5 -48t53.5 -18q32 0 51 17.5t19 47.5v125q0 14 3.5 28.5t11.5 19.5q7 -2 20 -3t27.5 -2.5t28.5 -2t25 -0.5v-162q0 -68 64 -68q28 0 44.5 17.5
t16.5 50.5v135h23zM306 525v-105q0 -22 -7.5 -38t-18.5 -26t-25 -15t-27 -5q-14 0 -31.5 3.5t-30.5 12.5v173q0 31 5.5 49.5t15.5 28.5t24 13t31 3q14 0 25.5 -3t20 -13t13.5 -28.5t5 -49.5z" />
    <glyph glyph-name="uni12F2" unicode="&#x12f2;" horiz-adv-x="623" 
d="M373 -7h103v-55h83q19 0 36.5 17t17.5 46q0 30 -18 46t-36 16h-83v-54h-18q-13 0 -18 8.5t-5 34.5v187h-126q-22 0 -46.5 1.5t-45 7.5t-34 18.5t-13.5 35.5v31q10 -7 28 -12t34 -5q44 0 81.5 5.5t64.5 20.5t42 42.5t15 72.5v72q0 31 -8 53t-29 35.5t-58 20t-94 6.5
q-62 0 -100 -6.5t-59 -21t-28.5 -37t-7.5 -54.5v-195q0 -33 9.5 -52t26 -28.5t40 -11.5t50.5 -2q-14 -23 -45.5 -44t-80.5 -23v-116q0 -30 19.5 -48t53.5 -18q32 0 51 17.5t19 47.5v133q0 14 3 26.5t11 17.5q13 -6 38.5 -8t63.5 -2v-148q0 -27 5 -42.5t13.5 -23.5t20 -10
t24.5 -2zM310 525v-105q0 -22 -7.5 -38t-18.5 -26t-25 -15t-27 -5q-14 0 -31.5 3.5t-30.5 12.5v173q0 31 5.5 49.5t15.5 28.5t24 13t31 3q14 0 25.5 -3t20 -13t13.5 -28.5t5 -49.5z" />
    <glyph glyph-name="uni12F3" unicode="&#x12f3;" horiz-adv-x="490" 
d="M189 192q0 12 5 16.5t10 8.5q13 -6 38 -7t63 -1v-154q0 -68 64 -68q28 0 44.5 17.5t16.5 50.5v174h-126q-22 0 -46.5 1.5t-45 7.5t-34 18.5t-13.5 35.5v41q10 -7 28 -12t34 -5q44 0 81.5 5.5t64.5 20.5t42 42.5t15 72.5v72q0 31 -8 53t-29 35.5t-58 20t-94 6.5
q-62 0 -100 -6.5t-59 -21t-28.5 -37t-7.5 -54.5v-195q0 -37 9.5 -58t26 -31t40 -12.5t50.5 -2.5q-28 -45 -126 -50v-56q0 -30 19.5 -48t53.5 -18q32 0 51 17.5t19 47.5v73zM305 525v-105q0 -22 -7.5 -38t-18.5 -26t-25 -15t-27 -5q-14 0 -31.5 3.5t-30.5 12.5v173
q0 31 5.5 49.5t15.5 28.5t24 13t31 3q14 0 25.5 -3t20 -13t13.5 -28.5t5 -49.5z" />
    <glyph glyph-name="uni12F4" unicode="&#x12f4;" horiz-adv-x="618" 
d="M440 102v131h-126q-22 0 -46.5 1.5t-45 7.5t-34 18.5t-13.5 35.5v37q10 -7 28 -12t34 -5q44 0 81.5 5.5t64.5 20.5t42 42.5t15 72.5v72q0 31 -8 53t-29 35.5t-58 20t-94 6.5q-62 0 -100 -6.5t-59 -21t-28.5 -37t-7.5 -54.5v-195q0 -37 9.5 -57.5t26 -30t40 -11t50.5 -1.5
q-14 -23 -45.5 -44t-80.5 -23v-110q0 -30 19.5 -48t53.5 -18q32 0 51 17.5t19 47.5v127q0 14 3.5 25.5t11.5 16.5q13 -6 38 -7t63 -1v-138q0 -49 17.5 -68.5t68.5 -19.5h81q73 0 103.5 21t30.5 78q0 39 -12.5 60.5t-33.5 32t-47.5 12.5t-54.5 2v-16q16 0 27.5 -3.5t19 -13
t10.5 -27.5t3 -47q0 -48 -11.5 -68t-34.5 -20q-27 0 -34.5 23.5t-7.5 80.5zM315 525v-105q0 -22 -7.5 -38t-18.5 -26t-25 -15t-27 -5q-14 0 -31.5 3.5t-30.5 12.5v173q0 31 5.5 49.5t15.5 28.5t24 13t31 3q14 0 25.5 -3t20 -13t13.5 -28.5t5 -49.5z" />
    <glyph glyph-name="uni12F5" unicode="&#x12f5;" 
d="M467 501v-47q0 -31 17.5 -41.5t45.5 -10.5q29 0 45 10t16 41v48q0 11 -4 14t-14 3h-144v11q0 31 -8 53t-29 35.5t-58 20t-94 6.5q-62 0 -100 -6.5t-59 -21t-28.5 -37t-7.5 -54.5v-195q0 -37 9.5 -57.5t26 -30t40 -11.5t50.5 -2q-14 -23 -45.5 -44t-80.5 -23v-109
q0 -30 19.5 -48t53.5 -18q32 0 51 17.5t19 47.5v126q0 14 3.5 25.5t11.5 16.5q13 -6 38 -7t63 -1v-157q0 -68 64 -68q28 0 44.5 17.5t16.5 50.5v177h-126q-22 0 -46.5 1.5t-45 7.5t-34 18.5t-13.5 35.5v38q10 -7 28 -12t34 -5q44 0 81.5 5.5t64.5 20.5t42 42.5t15 72.5v44
h38zM304 525v-105q0 -22 -7.5 -38t-18.5 -26t-25 -15t-27 -5q-14 0 -31.5 3.5t-30.5 12.5v173q0 31 5.5 49.5t15.5 28.5t24 13t31 3q14 0 25.5 -3t20 -13t13.5 -28.5t5 -49.5z" />
    <glyph glyph-name="uni12F6" unicode="&#x12f6;" horiz-adv-x="484" 
d="M188 177q0 14 3.5 25.5t11.5 16.5q13 -6 38 -7t63 -1v-60q0 -68 64 -68q28 0 44.5 17.5t16.5 50.5v80h-126q-22 0 -46.5 1.5t-45 7.5t-34 18.5t-13.5 35.5v39q10 -7 28 -12t34 -5q44 0 81.5 5.5t64.5 20.5t42 42.5t15 72.5v72q0 31 -8 53t-29 35.5t-58 20t-94 6.5
q-62 0 -100 -6.5t-59 -21t-28.5 -37t-7.5 -54.5v-195q0 -37 9.5 -57.5t26 -30.5t40 -12t50.5 -2q-14 -23 -45.5 -44t-80.5 -23v-108q0 -30 19.5 -48t53.5 -18q32 0 51 17.5t19 47.5v125zM304 525v-105q0 -22 -7.5 -38t-18.5 -26t-25 -15t-27 -5q-14 0 -31.5 3.5t-30.5 12.5
v173q0 31 5.5 49.5t15.5 28.5t24 13t31 3q14 0 25.5 -3t20 -13t13.5 -28.5t5 -49.5z" />
    <glyph glyph-name="uni12F7" unicode="&#x12f7;" horiz-adv-x="569" 
d="M441 21v-42q0 -22 17 -38.5t45 -16.5q29 0 45.5 16.5t16.5 37.5v59h-141v192h-126q-22 0 -46.5 1.5t-45 7.5t-34 18.5t-13.5 35.5v41q10 -7 28 -12t34 -5q44 0 81.5 5.5t64.5 20.5t42 42.5t15 72.5v72q0 31 -8 53t-29 35.5t-58 20t-94 6.5q-62 0 -100 -6.5t-59 -21
t-28.5 -37t-7.5 -54.5v-195q0 -37 9.5 -58t26 -31t40 -12.5t50.5 -2.5q-28 -45 -126 -50v-56q0 -30 19.5 -48t53.5 -18q32 0 51 17.5t19 47.5v73q0 12 5 16.5t10 8.5q13 -6 38 -7t63 -1v-172h-139v-59q0 -23 16.5 -38.5t45.5 -15.5q28 0 45 16t17 39v42h157zM299 525v-105
q0 -22 -7.5 -38t-18.5 -26t-25 -15t-27 -5q-14 0 -31.5 3.5t-30.5 12.5v173q0 31 5.5 49.5t15.5 28.5t24 13t31 3q14 0 25.5 -3t20 -13t13.5 -28.5t5 -49.5z" />
    <glyph glyph-name="uni12F8" unicode="&#x12f8;" horiz-adv-x="497" 
d="M183 171q0 14 3.5 25.5t11.5 16.5q13 -6 38 -7t63 -1v-154q0 -68 64 -68q28 0 44.5 17.5t16.5 50.5v174h-126q-22 0 -46.5 1.5t-45 7.5t-34 18.5t-13.5 35.5v41q10 -7 28 -12t34 -5q44 0 81.5 5.5t64.5 20.5t42 42.5t15 72.5v72q0 26 -5.5 46.5t-19.5 35t-37.5 22.5
t-59.5 8v42q0 60 -61 60q-27 0 -45.5 -16t-18.5 -44v-41q-43 -3 -70 -11t-42 -22.5t-20 -35t-5 -48.5v-195q0 -37 9.5 -58t26 -31t40 -12.5t50.5 -2.5q-14 -23 -45.5 -44t-80.5 -23v-106q0 -30 19.5 -48t53.5 -18q32 0 51 17.5t19 47.5v123zM299 521v-105q0 -22 -7.5 -38
t-18.5 -26t-25 -15t-27 -5q-14 0 -31.5 3.5t-30.5 12.5v173q0 31 5.5 49.5t15.5 28.5t24 13t31 3q14 0 25.5 -3t20 -13t13.5 -28.5t5 -49.5z" />
    <glyph glyph-name="uni12F9" unicode="&#x12f9;" horiz-adv-x="578" 
d="M295 679q0 60 -61 60q-27 0 -45.5 -16t-18.5 -44v-37q-41 -3 -66.5 -11.5t-39.5 -23t-19 -35t-5 -47.5v-195q0 -37 9.5 -57.5t26 -30.5t40 -12t50.5 -2q-14 -23 -45.5 -44t-80.5 -23v-108q0 -30 19.5 -48t53.5 -18q32 0 51 17.5t19 47.5v125q0 14 3.5 28.5t11.5 19.5
q7 -2 20 -3t27.5 -2.5t28.5 -2t25 -0.5v-162q0 -68 64 -68q28 0 44.5 17.5t16.5 50.5v135h23v-47q0 -31 17.5 -41.5t45.5 -10.5q29 0 45 10t16 41v48q0 11 -4 14t-14 3h-129v32h-126q-22 0 -46.5 2t-45 8t-34 16.5t-13.5 28.5v39q10 -7 28 -12t34 -5q44 0 81.5 5.5
t64.5 20.5t42 42.5t15 72.5v72q0 27 -6 48t-21 35.5t-40 22t-62 7.5v37zM299 525v-105q0 -22 -7.5 -38t-18.5 -26t-25 -15t-27 -5q-14 0 -31.5 3.5t-30.5 12.5v173q0 31 5.5 49.5t15.5 28.5t24 13t31 3q14 0 25.5 -3t20 -13t13.5 -28.5t5 -49.5z" />
    <glyph glyph-name="uni12FA" unicode="&#x12fa;" horiz-adv-x="608" 
d="M289 679q0 60 -61 60q-27 0 -45.5 -16t-18.5 -44v-38q-39 -3 -63 -11.5t-37.5 -23t-18.5 -34.5t-5 -47v-195q0 -33 9.5 -52t26 -28.5t40 -11.5t50.5 -2q-14 -23 -45.5 -44t-80.5 -23v-116q0 -30 19.5 -48t53.5 -18q32 0 51 17.5t19 47.5v133q0 14 3 26.5t11 17.5
q13 -6 38.5 -8t63.5 -2v-148q0 -27 5 -42.5t13.5 -23.5t20 -10t24.5 -2h103v-55h83q19 0 36.5 17t17.5 46q0 30 -18 46t-36 16h-83v-54h-18q-13 0 -18 8.5t-5 34.5v187h-126q-22 0 -46.5 1.5t-45 7.5t-34 18.5t-13.5 35.5v31q10 -7 28 -12t34 -5q44 0 81.5 5.5t64.5 20.5
t42 42.5t15 72.5v72q0 27 -6 47.5t-21.5 35t-41.5 22t-66 8.5v37zM299 525v-105q0 -22 -7.5 -38t-18.5 -26t-25 -15t-27 -5q-14 0 -31.5 3.5t-30.5 12.5v173q0 31 5.5 49.5t15.5 28.5t24 13t31 3q14 0 25.5 -3t20 -13t13.5 -28.5t5 -49.5z" />
    <glyph glyph-name="uni12FB" unicode="&#x12fb;" horiz-adv-x="478" 
d="M287 679q0 60 -61 60q-27 0 -45.5 -16t-18.5 -44v-38q-38 -4 -62 -12.5t-37.5 -22.5t-18 -34t-4.5 -47v-195q0 -37 9.5 -58t26 -31t40 -12.5t50.5 -2.5q-28 -45 -126 -50v-56q0 -30 19.5 -48t53.5 -18q32 0 51 17.5t19 47.5v73q0 12 5 16.5t10 8.5q13 -6 38 -7t63 -1
v-154q0 -68 64 -68q28 0 44.5 17.5t16.5 50.5v174h-126q-22 0 -46.5 1.5t-45 7.5t-34 18.5t-13.5 35.5v41q10 -7 28 -12t34 -5q44 0 81.5 5.5t64.5 20.5t42 42.5t15 72.5v72q0 27 -6 47.5t-21.5 35t-42 22t-67.5 8.5v37zM299 525v-105q0 -22 -7.5 -38t-18.5 -26t-25 -15
t-27 -5q-14 0 -31.5 3.5t-30.5 12.5v173q0 31 5.5 49.5t15.5 28.5t24 13t31 3q14 0 25.5 -3t20 -13t13.5 -28.5t5 -49.5z" />
    <glyph glyph-name="uni12FC" unicode="&#x12fc;" horiz-adv-x="608" 
d="M291 679q0 60 -61 60q-27 0 -45.5 -16t-18.5 -44v-38q-39 -3 -64 -11.5t-38.5 -23t-18.5 -34.5t-5 -47v-195q0 -37 9.5 -57.5t26 -30t40 -11t50.5 -1.5q-14 -23 -45.5 -44t-80.5 -23v-110q0 -30 19.5 -48t53.5 -18q32 0 51 17.5t19 47.5v127q0 14 3.5 25.5t11.5 16.5
q13 -6 38 -7t63 -1v-138q0 -49 17.5 -68.5t68.5 -19.5h81q73 0 103.5 21t30.5 78q0 39 -12.5 60.5t-33.5 32t-47.5 12.5t-54.5 2v-16q16 0 27.5 -3.5t19 -13t10.5 -27.5t3 -47q0 -48 -11.5 -68t-34.5 -20q-27 0 -34.5 23.5t-7.5 80.5v131h-126q-22 0 -46.5 1.5t-45 7.5
t-34 18.5t-13.5 35.5v37q10 -7 28 -12t34 -5q44 0 81.5 5.5t64.5 20.5t42 42.5t15 72.5v72q0 27 -6 47.5t-21 35t-40.5 22.5t-65.5 8v37zM299 525v-105q0 -22 -7.5 -38t-18.5 -26t-25 -15t-27 -5q-14 0 -31.5 3.5t-30.5 12.5v173q0 31 5.5 49.5t15.5 28.5t24 13t31 3
q14 0 25.5 -3t20 -13t13.5 -28.5t5 -49.5z" />
    </font>
</defs>
</svg>
