<?xml version="1.0" standalone="no"?>
<!DOCTYPE svg PUBLIC "-//W3C//DTD SVG 1.1//EN" "http://www.w3.org/Graphics/SVG/1.1/DTD/svg11.dtd" >
<svg>
<metadata>
Created by FontForge 20090622 at Sat Oct  3 18:50:29 2015
 By deploy user
Copyright (c) 1998-2008 Senamirmir Project. All Right Reserved.  Released under the SIL Open Font License; http://scripts.sil.org/OFL
</metadata>
<defs>
<font id="EthiopicWashRaSemiBold" horiz-adv-x="498" >
  <font-face 
    font-family="Ethiopic WashRa SemiBold"
    font-weight="700"
    font-stretch="normal"
    units-per-em="1000"
    panose-1="0 0 5 0 0 0 0 2 0 4"
    ascent="800"
    descent="-200"
    x-height="408"
    cap-height="525"
    bbox="-40 -166 1072.08 795.8"
    underline-thickness="50"
    underline-position="-178"
    unicode-range="U+0020-U+2122"
  />
<missing-glyph horiz-adv-x="500" 
 />
    <glyph glyph-name=".notdef" horiz-adv-x="500" 
 />
    <glyph glyph-name=".null" horiz-adv-x="0" 
 />
    <glyph glyph-name="nonmarkingreturn" horiz-adv-x="500" 
 />
    <glyph glyph-name="visiblespace" unicode=" " horiz-adv-x="227" 
 />
    <glyph glyph-name="visiblespace" unicode="&#xa0;" horiz-adv-x="227" 
 />
    <glyph glyph-name="exclam" unicode="!" 
d="M300 532h-101l16 -364h68zM249 127q-30 0 -51 -20.5t-21 -49.5t20.5 -50t51.5 -21t51.5 21t20.5 50t-21 49.5t-51 20.5z" />
    <glyph glyph-name="quotedbl" unicode="&#x22;" 
d="M118 525l10 -280h90l9 280h-109zM271 525l10 -280h90l9 280h-109z" />
    <glyph glyph-name="numbersign" unicode="#" 
d="M141 592l-9 -166h-88v-89h83l-7 -140h-79v-88h76l-12 -175h71l12 175h126l-9 -175h70l9 175h88v88h-83l6 140h81v89h-75l9 166h-71l-9 -166h-126l9 166h-72zM325 337l-7 -140h-127l8 140h126z" />
    <glyph glyph-name="dollar" unicode="$" 
d="M336 470q-13 20 -28 29t-31 12v94h-59v-94q-23 -3 -46 -13.5t-41 -28t-29.5 -42.5t-11.5 -57q0 -37 13.5 -61t33.5 -40t42 -24.5t39 -13.5v-139q-23 1 -36.5 14.5t-21 32t-11 38t-5.5 34.5h-67l6.5 -56.5t3.5 -64.5q0 -28 -2 -46.5l-4 -36.5h68l7 49q14 -18 26.5 -27
t35.5 -16v-131h59v131q43 7 70 24t41.5 37t19.5 41t5 37q0 37 -13 61.5t-33 39.5t-44 23.5t-46 14.5v140q18 -6 29.5 -18.5t18.5 -29.5t11 -37t6 -40l65 8q-3 20 -6 50t-3 61q0 23 2 46t3 40h-61zM218 310q-23 8 -41 21t-18 42q0 23 13.5 40t45.5 22v-125zM277 215
q29 -7 48 -20t19 -42q0 -20 -8 -31.5t-19 -18t-22 -9t-18 -3.5v124z" />
    <glyph glyph-name="percent" unicode="%" 
d="M354 247q-30 0 -53.5 -11.5t-39.5 -30t-24.5 -42t-8.5 -46.5q0 -24 8.5 -47.5t25 -41.5t40 -29.5t52.5 -11.5q30 0 53.5 11.5t40 30t25 42t8.5 46.5q0 22 -8.5 45.5t-24.5 42t-39.5 30.5t-54.5 12zM354 185q32 0 48 -21.5t16 -46.5q0 -24 -15.5 -46t-48.5 -22
q-17 0 -29 6.5t-19.5 16.5t-11.5 22t-4 23q0 12 4 24t12 21.5t20 16t28 6.5zM144 571q-29 0 -52.5 -11t-40 -29t-25.5 -41.5t-9 -48.5q0 -23 8 -46t24 -42t40 -30.5t55 -11.5q30 0 53.5 11.5t39.5 30.5t24.5 42t8.5 46q0 24 -9 47.5t-25.5 42t-40 29.5t-51.5 11zM144 509
q29 0 46.5 -21t17.5 -47q0 -28 -17.5 -48t-46.5 -20q-30 0 -47 20.5t-17 47.5q0 26 16.5 47t47.5 21zM421 394l-353 -169l23 -50l353 170z" />
    <glyph glyph-name="ampersand" unicode="&#x26;" 
d="M344 278q0 -2 -1.5 -6.5t-1.5 -6.5q-3 -12 -5.5 -19.5t-4.5 -14.5t-5 -15.5t-8 -21.5l-73 119q-1 2 -5 8l-8 12.5l-8 12.5t-5 9q-2 1 -9 16t-7 29q0 7 6 17.5t28 10.5q14 0 35.5 -7.5t57.5 -36.5l56 93q-20 -5 -28 -5q-10 0 -18.5 3l-16.5 6q-2 2 -10.5 5.5t-10.5 4.5
q-16 7 -30 10.5t-31 3.5q-28 0 -50.5 -9.5t-38 -25.5t-24 -37t-8.5 -43q0 -29 11 -52.5t28 -51.5q-33 -19 -51 -42.5t-26 -45t-9.5 -38.5t-1.5 -23q0 -24 8 -49.5t24.5 -46t41.5 -34t58 -13.5q22 0 39.5 5t30.5 12t22.5 15.5t16.5 15.5l27 -42h120v74h-66l-29 47
q7 13 11 21.5t7 17t6 18l8 24.5h52v76h-104zM271 106q-8 -10 -21 -21t-33 -11q-14 0 -24.5 7t-18 18t-11.5 24.5t-4 27.5q0 18 8.5 37t31.5 35z" />
    <glyph glyph-name="quotesingle" unicode="'" 
d="M186 525l18 -280h90l18 280h-126z" />
    <glyph glyph-name="parenleft" unicode="(" 
d="M330 599l-2 -3q-2 -2 -5 -8t-5 -8q-14 -24 -31 -60t-31.5 -79t-24 -90.5t-9.5 -92.5q0 -38 7.5 -81.5t21.5 -87t32.5 -86t41.5 -78.5q2 -3 2.5 -4.5t2.5 -4.5h77l-38.5 80.5t-33 82.5t-23.5 86.5t-9 92.5t9.5 93.5t24.5 88t33.5 82.5l36.5 77h-77z" />
    <glyph glyph-name="parenright" unicode=")" 
d="M168 -84q8 13 15 25.5l14 25.5t14.5 29t15.5 37q21 53 35 111t14 114q0 22 -4 56.5t-15 78.5t-32 95.5t-54 107.5q-3 0 -3 3h-77l39 -82.5t33.5 -82t23 -85t8.5 -91.5t-9.5 -94t-24 -87.5t-31.5 -79t-33 -68.5q-1 -2 -3 -6.5t-3 -6.5h77z" />
    <glyph glyph-name="asterisk" unicode="*" 
d="M204 525l5 -123l-104 42l-28 -91l109 -32l-71 -95l71 -57l63 102l63 -102l71 57l-71 95l109 32l-27 91l-105 -42l5 123h-90z" />
    <glyph glyph-name="plus" unicode="+" 
d="M212 498v-178h-167v-79h167v-177h74v177h167v79h-167v178h-74z" />
    <glyph glyph-name="comma" unicode="," 
d="M200 151l-72 -246h89l103 246h-120z" />
    <glyph glyph-name="hyphen" unicode="-" 
d="M157 310v-82h184v82h-184z" />
    <glyph glyph-name="period" unicode="." 
d="M249 139q-14 0 -28 -5.5t-25 -15t-18 -24t-7 -32.5t7 -32.5t18 -24t25 -14.5t28 -5t28 5t25 15t18 24t7 32t-7 32.5t-18.5 24.5t-25.5 15t-27 5z" />
    <glyph glyph-name="slash" unicode="/" 
d="M374 652l-314 -740l64 -32l314 742z" />
    <glyph glyph-name="zero" unicode="0" 
d="M249 575q-56 0 -89 -30.5t-50.5 -75t-23 -95.5t-5.5 -92t5.5 -92t23 -96t50.5 -76t89 -31t89 31t50.5 76t23 96t5.5 92t-5.5 92t-23 95.5t-50.5 75t-89 30.5zM249 500q32 0 50.5 -24t28 -58t12 -71.5t2.5 -64.5q0 -26 -2.5 -63.5t-12 -72t-28 -59.5t-50.5 -25
q-31 0 -49.5 23.5t-28 57.5t-12.5 72t-3 67q0 58 9 109t24 74q17 24 34 29.5t26 5.5z" />
    <glyph glyph-name="one" unicode="1" 
d="M71 490l29 -71l120 59v-404h-139v-74h349v74h-138v501h-45z" />
    <glyph glyph-name="two" unicode="2" 
d="M334 162v-88h-165l81 79l71.5 73t48 58t26.5 53.5t8 58.5q0 37 -13 69.5t-35.5 57t-53 38.5t-65.5 14q-10 0 -27.5 -2t-39.5 -10.5t-47 -26.5t-49 -50v-78h75q-2 8 -2 19q0 21 10 34.5t24 21t28.5 10.5t24.5 3q45 0 70 -28.5t25 -68.5q0 -26 -8.5 -48.5t-34.5 -51.5
l-59 -61l-65 -65l-60 -58.5l-44 -40.5v-74h345v162h-69z" />
    <glyph glyph-name="three" unicode="3" 
d="M88 24q32 -14 63 -25.5t71 -11.5q36 0 68.5 12.5t56.5 36t38 56.5t14 74q0 43 -18.5 81t-53.5 60l14.5 17t15.5 23.5t12 32.5t5 44q0 35 -13 63t-34.5 47.5t-49 30t-55.5 10.5q-46 0 -83 -20t-76 -49l37 -65l39.5 26t30 17.5t25.5 9.5t26 3q13 0 27 -4t25.5 -13.5t19 -24
t7.5 -35.5q0 -32 -13 -49t-31.5 -25t-39 -10t-35.5 -2v-75q19 2 30 2h13q47 0 74 -25t27 -70q0 -27 -9 -46t-23.5 -31.5t-32.5 -18.5t-36 -6q-38 0 -75.5 16t-65.5 31l-28 -72z" />
    <glyph glyph-name="four" unicode="4" 
d="M338 575h-101l-200 -355v-72h229v-74h-108v-74h259v74h-79v74h79v77h-79v350zM110 225l154 279h2v-279h-156z" />
    <glyph glyph-name="five" unicode="5" 
d="M93 562v-291l38 -24q17 15 42.5 31t63.5 16q48 0 76 -33t28 -82q0 -18 -4.5 -37.5t-17.5 -36.5t-35 -28t-56 -11q-42 0 -77 13.5t-57 23.5q-1 1 -3.5 2t-4.5 2l-25 -73q25 -11 46.5 -19.5t41.5 -14.5t40 -9.5t43 -3.5q52 0 87 19t57 48.5t31.5 63.5t9.5 64q0 39 -12.5 73
t-35.5 59.5t-55.5 40t-71.5 14.5q-29 0 -50.5 -6.5t-29.5 -9.5v132h231v77h-300z" />
    <glyph glyph-name="six" unicode="6" 
d="M416 572q-14 1 -30.5 2t-32.5 1q-12 0 -34.5 -1t-49.5 -7.5t-56 -20.5t-53 -40q-28 -30 -45 -67t-26 -73.5t-12 -69t-3 -54.5q0 -74 17.5 -123t44 -78.5t57.5 -42t58 -12.5q34 0 63 14.5t50 39.5t33 58.5t12 70.5q0 38 -12 71.5t-33 59t-49.5 40.5t-62.5 15
q-4 0 -13 -0.5t-22 -3.5t-28.5 -10t-31.5 -20q9 66 33.5 101.5t53.5 52t58.5 19.5t48.5 3h21q17 0 44 -2v77zM151 197q10 27 24.5 43t29.5 24t28 10.5t20 2.5q18 0 32.5 -9t25 -24t16.5 -34.5t6 -40.5q0 -49 -24.5 -76.5t-57.5 -27.5q-15 0 -31.5 7t-31 23t-25 41t-12.5 61z
" />
    <glyph glyph-name="seven" unicode="7" 
d="M75 562v-154h71v78h196l-161 -486h80l161 501v61h-347z" />
    <glyph glyph-name="eight" unicode="8" 
d="M144 288q-31 -23 -48.5 -59.5t-17.5 -73.5q0 -29 11 -58.5t32.5 -54t53.5 -40t74 -15.5q43 0 75 15.5t53.5 40t32 54.5t10.5 59q0 31 -15 68t-51 64q33 29 45 63.5t12 63.5q0 34 -13 63.5t-35 51t-51.5 33.5t-62.5 12q-34 0 -63.5 -12.5t-51.5 -34t-34.5 -50.5t-12.5 -63
q0 -10 1.5 -24.5t7.5 -31.5t17 -35.5t31 -35.5zM249 499q35 0 61 -22.5t26 -62.5q0 -20 -7.5 -36.5t-19.5 -28.5t-27.5 -19t-32.5 -7q-35 0 -61 26.5t-26 64.5t26 61.5t61 23.5zM249 245q23 0 41 -8t30 -21t18.5 -29.5t6.5 -33.5q0 -37 -27 -64t-69 -27q-21 0 -38.5 7.5
t-30 20t-20 29t-7.5 34.5q0 16 6 32.5t18 29.5t30 21.5t42 8.5z" />
    <glyph glyph-name="nine" unicode="9" 
d="M56 -11q13 -1 29.5 -2t33.5 -1q11 0 33.5 1t49.5 7.5t56 21t53 40.5q28 30 45 67t26.5 73t12.5 68.5t3 54.5q0 74 -17.5 123t-44.5 78.5t-58 42t-58 12.5q-34 0 -63 -14.5t-50 -39.5t-33 -58.5t-12 -70.5q0 -38 12 -71.5t33 -59t49.5 -40.5t62.5 -15q4 0 13 0.5t22 3.5
t28.5 10t32.5 20q-6 -44 -19.5 -74t-31 -49.5t-37.5 -30t-39.5 -15t-37 -5.5t-30.5 -1h-19q-14 0 -40 2zM320 364q-10 -27 -24.5 -43t-29.5 -24t-28 -10.5t-20 -2.5q-18 0 -32.5 9t-25 24t-16 34.5t-5.5 40.5q0 49 24 77t58 28q15 0 31.5 -7t31 -23t24.5 -41.5t12 -61.5z
" />
    <glyph glyph-name="colon" unicode=":" 
d="M249 374q-31 0 -54.5 -21t-23.5 -55q0 -18 7 -32.5t18 -24t25 -15t28 -5.5t28 5.5t25 15t18 24t7 32.5q0 35 -24 55.5t-54 20.5zM249 139q-13 0 -27 -5t-25 -15t-18.5 -24t-7.5 -33q0 -18 7 -32.5t18 -24t25 -14.5t28 -5t28 5t25 14.5t18 24t7 32.5q0 19 -7 33t-18.5 24
t-25.5 15t-27 5z" />
    <glyph glyph-name="semicolon" unicode=";" 
d="M203 152l-71 -247h90l101 247h-120zM249 377q-31 0 -54 -21t-23 -55q0 -18 6.5 -32t17.5 -24t25 -15.5t28 -5.5t28 5.5t25 15t18 24t7 32.5t-6.5 32t-17.5 23.5t-25 15t-29 5.5z" />
    <glyph glyph-name="less" unicode="&#x3c;" 
d="M428 500l-424 -213l424 -220l30 72l-289 147l290 143z" />
    <glyph glyph-name="equal" unicode="=" 
d="M45 400v-80h408v80h-408zM45 242v-79h408v79h-408z" />
    <glyph glyph-name="greater" unicode="&#x3e;" 
d="M57 500l-30 -71l288 -143l-288 -147l29 -72l425 220z" />
    <glyph glyph-name="question" unicode="?" 
d="M89 378h72v61l17 6q11 5 32 7t33 2q16 0 32 -5t28.5 -15t20 -25t7.5 -35q0 -25 -11 -41t-27.5 -26.5t-36.5 -17t-39 -11.5q-5 -1 -11.5 -2.5t-11.5 -2.5q-1 0 -4 -1l-2 -1v-110h71v50q18 6 43 16t48 28t39 46.5t16 71.5q0 31 -11 60t-33 51t-53.5 35.5t-73.5 13.5
q-30 0 -56 -6t-65 -20q-13 -5 -16 -6.5t-8 -2.5v-120zM222 128q-32 0 -52 -21.5t-20 -49.5q0 -29 20.5 -50t51.5 -21q29 0 50.5 20.5t21.5 50.5q0 29 -21.5 50t-50.5 21z" />
    <glyph glyph-name="at" unicode="@" 
d="M428 113q-41 -23 -85 -43t-101 -20q-55 0 -87.5 23.5t-50 56t-23 67.5t-5.5 59q0 30 7.5 68t27.5 71t54.5 55.5t89.5 22.5q33 0 63 -10t53 -30.5t37 -52.5t14 -76q0 -26 -5.5 -48.5t-14.5 -39t-21.5 -26.5t-26.5 -10t-21.5 9.5t-7.5 17.5q0 4 1 10.5t2.5 12.5t3 11t2.5 7
l38 152h-61l-4 -18q-8 8 -17.5 15.5t-27.5 7.5q-27 0 -51 -17.5t-41 -45t-27 -61t-10 -64.5q0 -29 7.5 -48.5t19 -31t24 -16.5t22.5 -5q6 0 28 5.5t49 35.5q10 -14 21 -22t21 -11.5t17.5 -4t10.5 -0.5q24 0 46.5 11.5t40 34.5t28.5 56.5t11 78.5q0 54 -17 97.5t-46.5 73.5
t-70.5 46t-89 16q-41 0 -83 -14t-76.5 -46.5t-56.5 -86t-22 -133.5q0 -63 16.5 -112t45.5 -83t70 -51.5t89 -17.5q57 0 111 19t104 51zM210 179q-6 0 -9.5 4.5t-5.5 10t-2.5 11.5t-0.5 9q0 20 6 42.5t16 41.5t21.5 31.5t22.5 12.5q8 0 14.5 -9.5t6.5 -26.5q0 -19 -6 -41
t-16 -41t-22 -32t-25 -13z" />
    <glyph glyph-name="A" unicode="A" 
d="M83 525v-74h107l-142 -377h-48v-74h197v74h-74l32 88h187l32 -88h-73v-74h197v74h-46l-169 451h-200zM315 236h-132l66 172z" />
    <glyph glyph-name="B" unicode="B" 
d="M28 525v-74h67v-377h-67v-74h228q24 0 59 2.5t67.5 17t55.5 45.5t23 89q0 31 -8.5 52.5t-20.5 36t-24.5 22.5t-19.5 13q16 14 25 29.5t13.5 30t5 26t0.5 17.5q0 33 -12 59.5t-32 45.5q-18 17 -45.5 28t-78.5 11h-236zM262 451q7 0 23.5 -1t32.5 -7t28.5 -19.5t12.5 -38.5
q0 -28 -11 -43.5t-27 -22.5t-33.5 -8t-29.5 -1h-90v141h94zM251 236q15 0 38 -1.5t45 -10t37.5 -26t15.5 -49.5q0 -26 -10 -41t-27.5 -22.5t-41.5 -9.5t-53 -2h-87v162h83z" />
    <glyph glyph-name="C" unicode="C" 
d="M459 160l-31.5 -30t-41.5 -32t-50.5 -25t-59.5 -10q-41 0 -70.5 17.5t-48.5 46.5t-28 66t-9 76q0 47 12.5 83.5t33.5 61t48.5 37t57.5 12.5q37 0 59 -13.5t34 -34t17 -45t8 -46.5l69 10q-3 23 -5.5 48.5t-2.5 63.5q0 27 1 49t3 39h-69l-5 -51q-22 21 -49 39t-71 18
q-38 0 -76.5 -18t-70 -52.5t-51.5 -85t-20 -116.5q0 -59 15.5 -110t45.5 -89.5t73.5 -60.5t98.5 -22q45 0 82.5 14t67 33t50 38.5t31.5 31.5z" />
    <glyph glyph-name="D" unicode="D" 
d="M19 525v-74h64v-377h-64v-74h214q12 0 31.5 0.5t42 6t45.5 16.5t43 32q26 28 48.5 80t22.5 136q0 13 -1.5 33.5t-6.5 45t-15.5 51t-29.5 52.5q-18 25 -38.5 39t-42.5 21.5t-46 9.5t-50 2h-217zM237 451q43 0 70.5 -8.5t49.5 -42.5q14 -22 23 -54t9 -76q0 -57 -13.5 -97
t-33.5 -62q-13 -14 -27.5 -21.5t-29.5 -11t-28.5 -4t-23.5 -0.5h-78v377h82z" />
    <glyph glyph-name="E" unicode="E" 
d="M37 525v-74h69v-377h-69v-74h422v195h-69l-4 -121h-208v165h98v-64h69v203h-69v-65h-98v138h200l8 -121h69l-4 195h-414z" />
    <glyph glyph-name="F" unicode="F" 
d="M51 525v-74h64v-377h-64v-74h241v74h-105v165h98v-64h69v203h-69v-65h-98v138h199l10 -120h67l-5 194h-407z" />
    <glyph glyph-name="G" unicode="G" 
d="M374 534l-5 -50q-15 18 -31 29t-31 17t-29 8t-24 2q-45 0 -85.5 -20.5t-71 -57.5t-48.5 -88.5t-18 -113.5q0 -51 14 -100t43.5 -88t74 -62.5t105.5 -23.5q29 0 56 5t50 12t42 15.5l33 14.5v143h39v74h-231v-74h120v-89q-43 -17 -72 -20.5t-36 -3.5q-41 0 -71.5 15
t-50.5 41.5t-30 63t-10 78.5q0 46 11.5 83.5t32 64t48.5 40.5t60 14q38 0 60.5 -14.5t34.5 -36t16.5 -45.5t6.5 -43l70 10q-4 17 -7 42.5t-3 68.5q0 54 3 89h-66z" />
    <glyph glyph-name="H" unicode="H" 
d="M23 525v-74h61v-377h-61v-74h193v74h-60v160h186v-160h-60v-74h193v74h-61v377h61v74h-193v-74h60v-143h-186v143h60v74h-193z" />
    <glyph glyph-name="I" unicode="I" 
d="M73 525v-74h140v-377h-140v-74h353v74h-140v377h140v74h-353z" />
    <glyph glyph-name="J" unicode="J" 
d="M157 525v-74h158v-256q0 -28 -1.5 -52t-9.5 -42t-25 -28t-48 -10q-18 0 -40 4.5t-41 16.5q-21 13 -27.5 30t-7.5 49l-5 102h-71l8 -221q63 -37 108.5 -47.5t77.5 -10.5q6 0 21.5 1t34.5 7t38.5 19t33.5 36q19 31 22.5 71t3.5 75v256h103v74h-333z" />
    <glyph glyph-name="K" unicode="K" 
d="M40 525v-74h68v-377h-68v-74h208v74h-68v115l42 43q45 -29 79 -87.5t65 -144.5h130v74h-79l-28.5 61.5t-31 58t-37 51t-46.5 41.5l153 165h46v74h-189v-74h50l-154 -162v162h68v74h-208z" />
    <glyph glyph-name="L" unicode="L" 
d="M40 525v-74h80v-377h-80v-74h418l11 252h-71l-10 -178h-196v377h99v74h-251z" />
    <glyph glyph-name="M" unicode="M" 
d="M244 260l-82 265h-160v-74h54l-5 -377h-49v-74h206v74h-88l5 320h9l78 -255h74l78 255h10l4 -320h-87v-74h205v74h-48l-5 377h52v74h-160l-76 -265h-15z" />
    <glyph glyph-name="N" unicode="N" 
d="M4 525v-74h65v-377h-65v-74h215v74h-84v311h15l199 -396h88v462h56v74h-205v-74h83v-316h-14l-194 390h-159z" />
    <glyph glyph-name="O" unicode="O" 
d="M27 262q0 -57 16 -107.5t45 -88t70 -59t91 -21.5t91 22t70 59.5t45 88t16 107.5t-15.5 107.5t-44.5 88t-70 59.5t-92 22t-92 -22t-70 -60t-44.5 -88.5t-15.5 -107.5zM103 263q0 39 10 75t28.5 64t45.5 44.5t62 16.5q36 0 63 -17t45.5 -45t28 -64t9.5 -74q0 -40 -10 -76
t-28.5 -63.5t-46 -44t-61.5 -16.5t-61 16.5t-46 44t-29 63.5t-10 76z" />
    <glyph glyph-name="P" unicode="P" 
d="M67 525v-74h64v-377h-64v-74h254v74h-118v118h29q37 0 62 0.5t44 3.5t34 8.5t32 16.5q29 18 47.5 55.5t18.5 78.5q0 45 -22 84.5t-56 59.5q-25 15 -53 20.5t-73 5.5h-199zM266 451q41 0 58.5 -4t29.5 -11q15 -9 27 -30t12 -49q0 -29 -11.5 -48t-21.5 -25q-8 -4 -16 -7.5
t-22 -6t-35 -4t-54 -1.5h-30v186h63z" />
    <glyph glyph-name="Q" unicode="Q" 
d="M427 -3q-14 -12 -31 -21.5t-32 -9.5q-14 0 -35 7.5t-35 21.5h-11v1q14 1 45 11t63 38.5t56 80.5t24 136q0 65 -18 116.5t-48.5 87.5t-71 55t-85.5 19q-44 0 -83.5 -18.5t-70.5 -53.5t-49 -86t-18 -117q0 -48 12.5 -99t45.5 -97q21 -28 40.5 -40t38.5 -22l-18 -19.5
t-14 -13l-14 -10.5t-18 -12l35 -65q1 1 3.5 2.5t3.5 2.5l29 17.5t22.5 12t20.5 6.5t22 2t23.5 -3t31.5 -13q22 -10 38.5 -15.5t37.5 -5.5q31 0 53.5 13t42.5 28l8 6zM246 66q-28 0 -53.5 11.5t-45 36t-31.5 62t-12 89.5q0 60 15.5 98.5t38 60.5t47.5 30.5t43 8.5
q15 0 39.5 -7t48 -28.5t41 -61t17.5 -105.5q0 -48 -9.5 -81t-24 -54.5t-32 -33.5t-34 -18t-29.5 -7t-19 -1z" />
    <glyph glyph-name="R" unicode="R" 
d="M29 525v-74h65v-377h-65v-74h209v74h-72v150h42q10 0 17.5 -2.5t15.5 -10t17 -20.5t22 -34q0 -1 8 -15l20 -36l26 -50t26 -56h128v74h-78l-35.5 64.5l-24.5 42.5t-18 29l-15 23q40 13 61.5 34.5t31.5 43.5t12 40.5t2 25.5q0 36 -15 69t-40 52t-52.5 23t-65.5 4h-222z
M251 451q44 0 70.5 -13.5t26.5 -57.5q0 -33 -15 -50t-35 -24t-40 -7.5t-31 -0.5h-61v153h85z" />
    <glyph glyph-name="S" unicode="S" 
d="M361 534l-7 -51l-13.5 15.5t-22 18.5t-32.5 16t-44 7q-31 0 -61.5 -12.5t-55 -34.5t-39.5 -53t-15 -67q0 -50 22 -79t52.5 -45t63 -21.5t54.5 -7.5q19 -2 37 -6t31.5 -11.5t21.5 -20.5t8 -34q0 -24 -10.5 -40t-26.5 -26t-35.5 -14.5t-37.5 -4.5q-30 0 -51 10t-34 27
t-19.5 39.5t-8.5 47.5h-67q2 -22 4.5 -62t2.5 -82q0 -23 -0.5 -34.5t-1.5 -25.5h67l6 54q7 -9 16.5 -18t22 -16.5t30.5 -12t43 -4.5q37 0 69 12.5t55.5 34.5t37 51.5t13.5 64.5q0 45 -18 73.5t-41 43.5q-25 18 -53 23t-69 11q-14 1 -32.5 4.5t-36 11t-29.5 21.5t-12 38
q0 14 6 29.5t19 28.5t33 21.5t49 8.5q36 0 57.5 -15t33 -36.5t16 -45.5t6.5 -42l66 10q0 2 -0.5 10.5t-1.5 10.5q-2 17 -3.5 44.5t-1.5 56.5q0 24 1 43.5t2 34.5h-66z" />
    <glyph glyph-name="T" unicode="T" 
d="M41 525l-15 -238l71 -11l11 175h105v-377h-96v-74h266v74h-97v377h105l11 -175l71 11l-16 238h-416z" />
    <glyph glyph-name="U" unicode="U" 
d="M12 525v-74h58v-230q0 -14 0.5 -34t3.5 -42t9 -44t17 -40q13 -22 31.5 -36.5t39 -23t40.5 -12t38 -3.5q28 0 50 3.5t39 12t31.5 23t28.5 36.5q12 19 18 41t9 44t3 41v34v230h58v74h-211v-74h81v-230q0 -29 -2 -57t-12 -50.5t-32 -36.5t-61 -14t-61 14t-32 36.5t-12 50.5
t-2 57v230h81v74h-211z" />
    <glyph glyph-name="V" unicode="V" 
d="M251 112l-115 339h68v74h-204v-74h60l155 -451h71l157 451h55v74h-203v-74h74z" />
    <glyph glyph-name="W" unicode="W" 
d="M0 525v-74h40l50 -451h65l90 276h2l92 -276h66l54 451h39v74h-189v-74h80l-30 -275h-1l-82 238h-50l-85 -238h-2l-28 275h80v74h-191z" />
    <glyph glyph-name="X" unicode="X" 
d="M34 525v-74h51l122 -177l-140 -200h-49v-74h204v74h-68l96 139l91 -139h-56v-74h195v74h-50l-138 200l123 177h49v74h-179v-74h44l-79 -117l-77 117h49v74h-188z" />
    <glyph glyph-name="Y" unicode="Y" 
d="M17 525v-74h59l138 -249v-128h-96v-74h262v74h-94v128l136 249h59v74h-189v-74h50l-91 -167l-92 167h49v74h-191z" />
    <glyph glyph-name="Z" unicode="Z" 
d="M65 525v-203h72v129h183l-260 -388v-63h378v216h-72v-142h-210l264 391v60h-355z" />
    <glyph glyph-name="bracketleft" unicode="[" 
d="M241 605v-687h172v78h-100v529h100v80h-172z" />
    <glyph glyph-name="backslash" unicode="\" 
d="M124 654l-64 -30l314 -749l64 31z" />
    <glyph glyph-name="bracketright" unicode="]" 
d="M257 -82v687h-172v-80h100v-529h-100v-78h172z" />
    <glyph glyph-name="asciicircum" unicode="^" 
d="M446 138l-144 387h-111l-139 -387h89l106 295l110 -295h89z" />
    <glyph glyph-name="underscore" unicode="_" 
d="M-40 -68v-45h578v45h-578z" />
    <glyph glyph-name="grave" unicode="`" 
d="M129 574l139 -84h72l-87 88h-124v-4z" />
    <glyph glyph-name="a" unicode="a" 
d="M394 276q0 70 -36 110.5t-116 40.5q-51 0 -94 -15t-81 -32l28 -72l28 12t35 13.5t40 11t43 4.5q31 0 47.5 -8t24 -20t8.5 -26t1 -26q-23 3 -44.5 5t-50.5 2q-55 0 -91 -15.5t-57.5 -38t-30 -48t-8.5 -46.5q0 -26 10.5 -51.5t29 -45.5t45.5 -32t60 -12q25 0 45.5 6
t37.5 14.5t30.5 18t23.5 17.5v-43h144v74h-72v202zM322 146q-24 -29 -46 -45.5t-40.5 -24.5t-32 -9.5t-19.5 -1.5q-13 0 -25.5 5t-22 13.5t-15.5 20t-6 23.5q0 4 2.5 16.5t14 25.5t36 23t68.5 10q24 0 44 -3l42 -6v-47z" />
    <glyph glyph-name="b" unicode="b" 
d="M0 574l5 -76l64 3v-427h-64v-74h136v40q19 -17 38 -26.5t35 -14.5t29.5 -6.5t22.5 -1.5q43 0 79 18t61.5 47.5t39.5 67t14 77.5q0 43 -15.5 81.5t-42.5 67t-63 45t-76 16.5q-35 0 -64.5 -12.5t-57.5 -36.5v221zM141 202q0 26 9.5 50t26.5 42t39.5 29t48.5 11
q25 0 46.5 -10.5t37.5 -28.5t25 -42.5t9 -51.5t-8.5 -51t-24 -42t-37 -29t-47.5 -11q-27 0 -49.5 11t-39.5 29t-26.5 42.5t-9.5 51.5z" />
    <glyph glyph-name="c" unicode="c" 
d="M377 420l-8 -49q-32 29 -59 39t-59 10q-49 0 -87 -19t-63.5 -50t-38.5 -69.5t-13 -78.5q0 -45 15 -84.5t42.5 -69t65 -46t82.5 -16.5q37 0 70 11t60.5 26t49.5 32l37 29l-40 62q-18 -14 -38.5 -28.5t-42.5 -26.5t-45.5 -19.5t-47.5 -7.5q-36 0 -61 13t-41 33.5t-23 45
t-7 47.5q0 15 5 38.5t20 46t42 38.5t71 16q36 0 56 -9t31 -24.5t15 -35t7 -40.5l70 10q-2 16 -3.5 34.5t-1.5 44.5q0 24 1.5 48t3.5 42z" />
    <glyph glyph-name="d" unicode="d" 
d="M225 564l-8 -76l134 11v-135q-27 23 -59.5 35t-63.5 12q-36 0 -70.5 -15t-61 -42.5t-43 -66t-16.5 -85.5q0 -42 14.5 -80.5t40.5 -67.5t61.5 -46t76.5 -17q9 0 22.5 1.5t29.5 6t34 14t35 25.5v-38h140v74h-68v509zM349 201q0 -29 -9.5 -53.5t-26 -42t-38 -27.5t-44.5 -10
q-24 0 -45.5 10t-37.5 28t-25.5 42.5t-9.5 53.5q0 30 9.5 54.5t26 42t37.5 26.5t45 9q30 0 52 -12.5t36.5 -32t22 -43t7.5 -45.5z" />
    <glyph glyph-name="e" unicode="e" 
d="M445 130q-17 -11 -38 -22.5t-45 -21t-49.5 -15.5t-51.5 -6q-40 0 -65 12.5t-39.5 30t-20.5 36.5t-9 31h325q1 6 2 22.5t1 31.5q0 33 -12.5 67t-37.5 61.5t-62 45t-86 17.5q-48 0 -86 -18t-65 -48t-41 -69.5t-14 -82.5t13.5 -82t40.5 -68.5t66.5 -47t91.5 -17.5
q49 0 103.5 19t111.5 54zM132 248q3 9 10 25t21.5 31.5t37 27t57.5 11.5q9 0 25.5 -2t35 -11t35 -28t24.5 -54h-246z" />
    <glyph glyph-name="f" unicode="f" 
d="M70 399v-74h84v-251h-84v-74h327v74h-171v251h171v74h-171v30q0 18 0.5 31.5t6 22.5t18 13.5t35.5 4.5q14 0 43 -2.5t74 -12.5l29 77q-18 4 -56.5 10t-80.5 6q-51 0 -79.5 -14t-42 -36t-16.5 -48.5t-3 -50.5v-31h-84z" />
    <glyph glyph-name="g" unicode="g" 
d="M330 408v-39q-26 23 -57.5 32.5t-55.5 9.5q-36 0 -70 -15t-60 -42t-41.5 -64t-15.5 -81q0 -41 14.5 -77.5t39.5 -64.5t59 -44t74 -16q24 0 42.5 5t32.5 12.5t23.5 14.5t14.5 12q0 -18 -0.5 -33.5t-5 -29t-13.5 -24t-26 -17.5q-7 -3 -15.5 -4.5t-24.5 -3t-42.5 -2
t-68.5 -0.5v-74h87q39 0 72.5 7.5t58 27t38 54t13.5 88.5v294h65v74h-138zM330 208q0 -24 -8 -46t-22.5 -39.5t-35 -27.5t-45.5 -10q-23 0 -43.5 9.5t-36 26.5t-24.5 40t-9 49q0 27 9.5 50t25.5 39.5t36.5 25.5t42.5 9t42 -9t35 -25.5t24 -40t9 -51.5z" />
    <glyph glyph-name="h" unicode="h" 
d="M10 571l6 -76l74 5v-426h-68v-74h204v74h-63v208q24 20 43 32t33.5 18.5t25.5 8.5t20 2q33 0 47.5 -27t14.5 -60v-182h-70v-74h209v74h-67v185q0 72 -37 116.5t-99 44.5q-42 0 -71.5 -17.5t-48.5 -32.5v213z" />
    <glyph glyph-name="i" unicode="i" 
d="M95 408v-74h119v-260h-141v-74h352v74h-139v334h-191zM198 486h88v119h-88v-119z" />
    <glyph glyph-name="j" unicode="j" 
d="M60 408v-74h206v-277q0 -19 -1.5 -39t-10.5 -36t-28 -26t-53 -10q-31 0 -59 6t-54 11l-17 -76q26 -6 58.5 -12t70.5 -6q41 0 69.5 10.5t47 27t28.5 37.5t14.5 41.5t5.5 38.5t1 29v355h-278zM234 486h88v119h-88v-119z" />
    <glyph glyph-name="k" unicode="k" 
d="M20 569l7 -76l74 7v-426h-66v-74h138v168l28 23l21 -21.5l29.5 -32l31 -34.5t25.5 -29h-31v-74h199v74h-76q-53 67 -87.5 106t-54.5 57l133 97h55v74h-205v-74h37v-2l-105 -70v321z" />
    <glyph glyph-name="l" unicode="l" 
d="M76 568l7 -75l129 9v-428h-139v-74h351v74h-139v509z" />
    <glyph glyph-name="m" unicode="m" 
d="M0 408v-74h47v-260h-47v-74h177v74h-57v230q14 15 29 27t32 12q13 0 20.5 -8.5t11 -21.5t4 -28t0.5 -28v-257h122v74h-49v222q11 16 25.5 31.5t35.5 15.5q14 0 21.5 -6.5t11 -18.5t4 -28.5t0.5 -35.5v-254h110v74h-38v180q0 18 -2 46t-12 54.5t-31.5 46t-60.5 19.5
q-32 0 -52.5 -14.5t-35.5 -27.5q-2 4 -7 11t-13 14t-20 12t-28 5q-15 0 -27 -4.5t-22 -11.5t-17.5 -14l-12.5 -12v30h-119z" />
    <glyph glyph-name="n" unicode="n" 
d="M19 408v-74h67v-260h-69v-74h205v74h-63v208q26 21 56.5 41t65.5 20q30 0 46 -26t16 -62v-181h-70v-74h209v74h-67v184q0 36 -9.5 65.5t-27.5 51t-43 33.5t-56 12q-41 0 -70.5 -17t-49.5 -33v38h-140z" />
    <glyph glyph-name="o" unicode="o" 
d="M34 207q0 -42 14 -82t41 -70.5t67 -49t93 -18.5q54 0 94.5 19t67 50.5t40 70.5t13.5 80q0 42 -14 82t-41.5 70.5t-67.5 49t-92 18.5q-50 0 -90 -17.5t-68 -47.5t-42.5 -70t-14.5 -85zM110 207q0 28 9 53.5t26.5 45t43.5 31.5t60 12q35 0 61 -12.5t43.5 -32.5t26 -45.5
t8.5 -51.5t-8.5 -51.5t-26 -45.5t-43.5 -32.5t-61 -12.5q-34 0 -60 12t-43.5 31.5t-26.5 45.5t-9 53z" />
    <glyph glyph-name="p" unicode="p" 
d="M8 408v-74h66v-397h-66v-74h258v74h-120v106q17 -15 35 -25t34.5 -15t31 -7t24.5 -2q35 0 69.5 15.5t62 43.5t44.5 68t17 88q0 40 -13.5 78t-39 67.5t-61.5 47.5t-80 18q-6 0 -19 -0.5t-30 -5t-36.5 -14t-38.5 -27.5v35h-138zM143 211q0 27 9.5 51t26.5 42t40 28.5
t51 10.5q30 0 52 -12t37 -31.5t22 -43t7 -47.5q0 -30 -9.5 -55t-26 -43.5t-38 -29t-45.5 -10.5q-21 0 -43 9t-40.5 26.5t-30.5 43.5t-12 61z" />
    <glyph glyph-name="q" unicode="q" 
d="M491 408h-138v-35q-19 18 -38.5 27.5t-36.5 14t-30 5t-19 0.5q-44 0 -80 -18t-61.5 -47.5t-39 -67.5t-13.5 -78q0 -48 17 -88t44.5 -68t62 -43.5t69.5 -15.5q10 0 24.5 2t31 7t34.5 15t35 25v-106h-120v-74h258v74h-66v397h66v74zM356 211q0 -35 -12 -61t-30.5 -43.5
t-40.5 -26.5t-43 -9q-24 0 -45.5 10.5t-38 29t-26 43.5t-9.5 55q0 24 7 47.5t22 43t37 31.5t52 12q28 0 51 -10.5t40 -28.5t26.5 -42t9.5 -51z" />
    <glyph glyph-name="r" unicode="r" 
d="M59 408v-74h92v-260h-100v-74h326v74h-154v168q3 3 17 19t33.5 34t42.5 33t43 15q22 0 34 -13t20 -26l73 61l-16.5 17t-23 18t-31 14t-41.5 6q-27 0 -49 -7.5t-40.5 -18.5t-33.5 -25.5l-28 -27.5v67h-164z" />
    <glyph glyph-name="s" unicode="s" 
d="M345 428l-11 -50q-6 5 -16 12.5t-23.5 14t-31 11t-39.5 4.5q-23 0 -50 -7t-50 -22.5t-38 -39t-15 -56.5q0 -31 16 -57.5t39 -41.5q10 -6 21.5 -11t26 -8.5t34 -6t47.5 -4.5q49 -3 74.5 -9t25.5 -33q0 -29 -29 -44t-75 -15q-30 0 -50 7t-32.5 19.5t-19.5 29t-10 34.5
l-65 -8q3 -14 5.5 -29t2.5 -42q0 -28 -3 -48t-5 -37l65 -5l10 47q8 -8 18 -16t23.5 -14.5t31.5 -11t43 -4.5q36 0 66.5 10.5t52.5 29t34 43t12 52.5q0 20 -9 44.5t-31 42.5q-23 18 -54.5 22.5t-86.5 8.5q-17 1 -35.5 3t-33.5 7.5t-24.5 15t-9.5 26.5q0 16 9 26.5t22.5 15.5
t28.5 7t27 2q5 0 19.5 -0.5t31 -5t31 -14t19.5 -27.5l7 -21q1 -2 2 -6t2 -5l65 10q-3 14 -5.5 28.5t-2.5 35.5t2.5 41.5t5.5 37.5z" />
    <glyph glyph-name="t" unicode="t" 
d="M132 525v-126h-55v-74h55v-151q0 -20 0.5 -40t4 -38.5t10.5 -35.5t20 -32q19 -21 50 -31t59 -10q25 0 50.5 6t49.5 15t45.5 19l37.5 18l-27 71l-27 -12q-36 -16 -67.5 -27.5t-68.5 -11.5q-25 0 -38 8.5t-19 23t-7 34.5t-1 43v151h189v74h-189v126h-72z" />
    <glyph glyph-name="u" unicode="u" 
d="M18 408v-74h65v-173q0 -50 9 -77t25 -48q17 -23 46.5 -36t60.5 -13q19 0 48 8t61 33v-28h137v74h-65v334h-140v-74h68v-203q-23 -25 -47.5 -45.5t-62.5 -20.5q-23 0 -36.5 10t-20.5 25t-9 31.5t-2 29.5v247h-137z" />
    <glyph glyph-name="v" unicode="v" 
d="M9 408v-74h66l145 -334h59l145 334h65v74h-195v-74h54l-97 -224l-94 224h55v74h-203z" />
    <glyph glyph-name="w" unicode="w" 
d="M0 408v-74h38l85 -334h63l62 196h2l64 -196h65l84 334h35v74h-168v-74h62l-47 -191h-1l-67 191h-50l-65 -191h-2l-45 191h61v74h-176z" />
    <glyph glyph-name="x" unicode="x" 
d="M25 408v-74h56l117 -121l-126 -139h-60v-74h192v74h-38l81 86l81 -86h-38v-74h196v74h-57l-133 139l114 121h55v74h-185v-74h37l-70 -68l-64 68h34v74h-192z" />
    <glyph glyph-name="y" unicode="y" 
d="M12 408v-74h54l142 -292l-55 -101h-129v-74h274v74h-62l208 393h52v74h-178v-74h43l-111 -211l-101 211h44v74h-181z" />
    <glyph glyph-name="z" unicode="z" 
d="M84 408v-152h72v78h155l-235 -269v-65h346v157h-72v-83h-166l238 273v61h-338z" />
    <glyph glyph-name="braceleft" unicode="{" 
d="M394 601q-11 0 -18 0.5t-12 0.5q-41 0 -67 -12.5t-41 -32t-20.5 -42t-5.5 -41.5q0 -8 0.5 -14.5t2 -15l3.5 -20.5t6 -31l1 -6l2.5 -14.5t2.5 -18t1 -16.5q0 -13 -6.5 -20.5t-16 -11.5t-21.5 -5.5t-24 -2.5v-77q9 0 21 -1.5t22.5 -5.5t17.5 -11.5t7 -19.5q0 -15 -3 -32.5
t-4 -24.5q-4 -19 -6 -31l-3.5 -20.5t-2 -16t-0.5 -16.5q0 -38 19.5 -71.5t57.5 -45.5q23 -8 42 -8.5t45 1.5v76q-20 0 -36.5 0.5t-28.5 5t-18.5 14.5t-6.5 28q0 12 2.5 25.5l7.5 41.5l8 44.5t3 28.5q0 30 -12.5 48.5t-21.5 28.5q9 10 21.5 28t12.5 49q0 11 -2.5 24t-2.5 18
l-6 31q-3 18 -5 28.5t-3 17t-1.5 11t-0.5 10.5q0 18 6 28t18 14.5t28.5 5.5t37.5 1v76z" />
    <glyph glyph-name="bar" unicode="|" 
d="M290 606h-82v-772h82v772z" />
    <glyph glyph-name="braceright" unicode="}" 
d="M317 298q-10 1 -22 2.5t-22 5.5t-17 11.5t-7 19.5q0 14 3 32.5l4 24.5q4 18 6 30l3.5 20.5t2 16t0.5 16.5q0 42 -21 74t-56 43q-22 8 -41 8.5t-46 -0.5v-77q21 0 37.5 -1t28.5 -5.5t18 -14t6 -27.5q0 -8 -3 -27.5t-7 -41.5q-5 -23 -8 -43t-3 -28q0 -30 13 -48t21 -28
q-9 -11 -21.5 -29t-12.5 -49q0 -12 2.5 -24.5t2.5 -17.5q3 -12 5.5 -27l5 -29t4 -25.5t1.5 -17.5q0 -18 -6.5 -28t-18.5 -14.5t-28.5 -5t-36.5 -0.5v-76q24 -2 44 -1.5t43 8.5q13 4 26.5 13.5t25 24.5t18.5 35t7 47q0 8 -0.5 15t-2 15t-3.5 20t-6 31q-3 14 -5 27.5t-2 27.5
q0 13 7 21t17 12t22 5.5t22 1.5v77z" />
    <glyph glyph-name="asciitilde" unicode="~" 
d="M385 371q-16 -30 -29 -47.5t-31 -17.5q-10 0 -22.5 5.5l-38.5 17.5q-44 21 -61.5 24.5t-25.5 3.5q-23 0 -40 -9.5t-30 -23.5t-23 -30.5t-18 -31.5q0 -1 -1 -3t-1 -3l49 -62l6 12q14 29 27 44t31 15q4 0 12 -2.5t17.5 -6t19 -7.5t17.5 -8q17 -8 29 -13t21 -8t16.5 -4.5
t15.5 -1.5q21 0 37 9t29 22.5t23 29.5l18 30q0 1 1 3l1 2z" />
    <glyph glyph-name="exclamdown" unicode="&#xa1;" 
d="M300 -119l-17 363h-68l-16 -363h101zM249 285q32 0 52 21.5t20 49.5q0 29 -20.5 50t-51.5 21q-32 0 -52 -22t-20 -49t19.5 -49t52.5 -22z" />
    <glyph glyph-name="cent" unicode="&#xa2;" 
d="M285 370q18 0 28.5 -7t16.5 -20t9 -31.5t6 -41.5l63 10q-3 36 -3 62q0 22 2 46.5t6 62.5l-61 5l-7 -48q-13 18 -25.5 28t-34.5 15v116h-59v-122q-24 -5 -48.5 -19t-44.5 -37t-32.5 -55t-12.5 -73q0 -30 8.5 -59.5t25.5 -54.5t43 -43.5t61 -25.5v-128h59v128
q54 10 89 31.5t58 38.5l-35 65q-2 -1 -8 -5l-12.5 -8.5l-12.5 -9t-9 -5.5q-14 -8 -24 -13t-17.5 -8t-14.5 -4.5t-14 -2.5v213zM226 157q-23 6 -36.5 20t-21 30.5t-10 31.5t-2.5 24q0 7 2 21.5t9.5 30t21.5 30.5t37 23v-211z" />
    <glyph glyph-name="sterling" unicode="&#xa3;" 
d="M69 330v-75h89q2 -9 4 -21.5t2 -28.5q0 -33 -9 -60t-21 -48t-24.5 -35.5t-19.5 -21.5l44 -63q29 19 51.5 30t43.5 11q11 0 21 -3.5t31 -11.5t35 -11t26 -3q20 0 36 5.5t28.5 13.5t23 17.5t18.5 18.5q2 1 3.5 3t2.5 2l-43 59l-7 -6q-23 -20 -35.5 -28.5t-28.5 -8.5
q-7 0 -15 2t-25 9q-22 10 -36 14t-29 4q-10 0 -17 -2t-12 -4q14 28 20.5 59t6.5 63q0 17 -0.5 26.5t-2.5 18.5h181v75h-200q-10 30 -14 45.5t-4 32.5q0 31 23 56.5t65 25.5q6 0 19 -1.5t26 -4.5t22.5 -8.5t9.5 -13.5q0 -3 -0.5 -10.5l-1 -15t-1.5 -13.5t-1 -7l66 -8
q2 22 4 39.5t5 34t7 33.5l9 37l-68 3l-3 -12q-37 18 -61 21.5t-35 3.5q-28 0 -56 -11t-50.5 -32t-36.5 -51t-14 -67q0 -24 4 -42t9 -35h-65z" />
    <glyph glyph-name="currency" unicode="&#xa4;" 
d="M383 174q24 31 25 84q2 24 -4 49.5t-20 47.5l68 72l-51 54l-67 -71l-18 10q-17 10 -35.5 13t-37.5 3q-24 0 -41 -7t-20 -9l-18 -10l-68 71l-51 -54l69 -72l-11 -21q-8 -18 -10.5 -37t-2.5 -39q0 -24 5.5 -41t7.5 -22l11 -21l-69 -73l51 -54l68 72q17 -11 35.5 -19
t49.5 -8t49.5 8t35.5 19l67 -72l51 54zM338 265q0 -19 -6.5 -36.5t-18 -31t-28 -21.5t-36.5 -8q-21 0 -37.5 8t-28 21.5t-17.5 31t-6 36.5q0 16 5.5 33t16.5 31t27.5 22.5t39.5 8.5q21 0 37.5 -8t28 -21.5t17.5 -30.5t6 -35z" />
    <glyph glyph-name="yen" unicode="&#xa5;" 
d="M286 124h117v58h-117v43h117v58h-112l132 194h57v74h-189v-74h53l-91 -143l-89 143h44v74h-190v-74h58l136 -194h-114v-58h118v-43h-118v-58h118v-50h-96v-74h263v74h-97v50z" />
    <glyph glyph-name="brokenbar" unicode="&#xa6;" 
d="M290 606h-82v-338h82v338zM290 172h-82v-338h82v338z" />
    <glyph glyph-name="section" unicode="&#xa7;" 
d="M400 525h-152q-11 0 -31.5 -1.5t-40.5 -10.5t-35 -29t-15 -57q0 -27 7 -41t15 -26q-5 0 -7 -0.5t-6 -4.5q-15 -17 -23.5 -27.5t-13 -19t-5.5 -17.5t-1 -22q0 -37 17 -59t49 -49l107 -91q20 -17 27 -28t7 -22q0 -15 -10 -17.5t-33 -2.5h-90v80h-69v-162h159q13 0 33 1.5
t39 10.5t32.5 28.5t13.5 55.5q0 16 -1.5 21.5t-5.5 13.5q-7 14 -8.5 18.5t-1.5 12.5q5 0 12 1.5t14 11.5q12 15 18.5 24t10 16.5t4.5 15t1 19.5q0 36 -18.5 61t-53.5 54l-111 94q-21 18 -27 28t-6 19q0 16 10 18.5t34 2.5h85v-74h70v154zM300 224l13.5 -11.5t14 -13.5
t11.5 -14t5 -13q0 -9 -5 -15.5t-11.5 -10.5t-13.5 -6t-10 -2l-103 86q-14 11 -21 18t-10.5 11t-4 7t-0.5 7q0 9 4 16t10 12t12 8t10 4z" />
    <glyph glyph-name="dieresis" unicode="&#xa8;" 
d="M148 480h79v103h-79v-103zM271 480h79v103h-79v-103z" />
    <glyph glyph-name="copyright" unicode="&#xa9;" 
d="M359 404q-17 7 -43 15t-57 8q-36 0 -63.5 -12.5t-45.5 -34t-27.5 -49.5t-9.5 -58q0 -31 9 -59t26 -49t42.5 -33.5t57.5 -12.5q6 0 21 1.5t33.5 9t37 24t29.5 47.5l-31 13q-2 -5 -7 -13t-13 -16t-20 -14t-29 -6q-32 0 -56.5 30t-24.5 88q0 51 22 76.5t53 25.5q16 0 27 -7
t17.5 -17.5t10 -23t3.5 -23.5h38v90zM249 12q50 0 94 20.5t77 56t52.5 83.5t19.5 103q0 54 -19 102t-52 84t-77 57t-95 21q-50 0 -94.5 -21t-77.5 -57t-52 -84t-19 -102q0 -55 19.5 -103t52.5 -83.5t77 -56t94 -20.5zM249 64q-40 0 -75.5 16.5t-62 45t-42 67t-15.5 82.5
t15.5 82.5t42 67.5t62 45.5t75.5 16.5t75.5 -16.5t62 -45.5t42 -67.5t15.5 -82.5t-15.5 -82.5t-42 -67t-62 -45t-75.5 -16.5z" />
    <glyph glyph-name="ordfeminine" unicode="&#xaa;" 
d="M166 468q27 13 44 18t32 5q21 0 29.5 -7t9.5 -24q-15 2 -24.5 2.5t-20.5 0.5q-45 0 -73 -22.5t-28 -58.5q0 -32 23 -54t56 -22q32 0 67 23v-17h81v48h-37v98q0 82 -82 82q-21 0 -40.5 -5t-53.5 -21zM281 393q-19 -20 -34.5 -29t-32.5 -9q-12 0 -22 8t-10 19q0 15 16 24
t42 9q9 0 17.5 -1t23.5 -3v-18zM140 274v-48h218v48h-218z" />
    <glyph glyph-name="guillemotleft" unicode="&#xab;" horiz-adv-x="442" 
d="M311 45l-112 197l112 196h90l-112 -196l112 -197h-90zM154 45l-113 197l113 196h90l-112 -196l112 -197h-90z" />
    <glyph glyph-name="logicalnot" unicode="&#xac;" 
d="M64 416v-79h304v-190h73v269h-377z" />
    <glyph glyph-name="FL00ADh" unicode="&#xad;" horiz-adv-x="276" 
d="M203 181q30 0 44.5 14.5t14.5 38.5q0 23 -15 38t-44 15h-128q-30 0 -45 -15t-15 -38q0 -24 15.5 -38.5t44.5 -14.5h128z" />
    <glyph glyph-name="registered" unicode="&#xae;" 
d="M133 389h13q11 0 13.5 -2.5t2.5 -13.5v-190q0 -11 -4.5 -13t-24.5 -2v-30h118v30h-14t-9 1q-4 1 -4.5 4t-0.5 14v71q14 0 17 -0.5t7 -2.5q5 -4 10.5 -14t16.5 -40q8 -21 14 -33.5t13 -19t15.5 -8.5t21.5 -2h38v30q-11 0 -14 0.5t-5 4.5q-5 4 -11.5 17.5t-11.5 27.5
q-14 30 -21.5 39.5t-14.5 16.5q19 7 29 18.5t14.5 22.5t5.5 20t1 11q0 28 -12 43.5t-28 22.5t-32.5 8t-24.5 1h-118v-32zM223 373q0 8 1.5 11.5t10.5 3.5q7 0 15.5 -0.5t16.5 -5t13.5 -14t5.5 -27.5t-5.5 -28t-14.5 -14.5t-20 -5.5t-23 -1v81zM249 12q50 0 94 20.5t77 56
t52.5 83.5t19.5 103q0 54 -19 102t-52 84t-77 57t-95 21q-50 0 -94.5 -21t-77.5 -57t-52 -84t-19 -102q0 -55 19.5 -103t52.5 -83.5t77 -56t94 -20.5zM249 64q-40 0 -75.5 16.5t-62 45t-42 67t-15.5 82.5t15.5 82.5t42 67.5t62 45.5t75.5 16.5t75.5 -16.5t62 -45.5t42 -67.5
t15.5 -82.5t-15.5 -82.5t-42 -67t-62 -45t-75.5 -16.5z" />
    <glyph glyph-name="macron" unicode="&#xaf;" 
d="M107 571v-76h284v76h-284z" />
    <glyph glyph-name="degree" unicode="&#xb0;" 
d="M120 435q0 -30 10 -56t27.5 -45t41 -30t50.5 -11t50.5 11t41 30.5t27.5 45t10 55.5q0 29 -10 54.5t-27.5 44.5t-41 30t-50.5 11t-50.5 -11t-41 -30t-27.5 -44.5t-10 -54.5zM186 435q0 28 18 48t45 20t45 -20t18 -48q0 -29 -18 -49.5t-45 -20.5t-45 20.5t-18 49.5z" />
    <glyph glyph-name="plusminus" unicode="&#xb1;" 
d="M212 541v-169h-167v-80h167v-169h74v169h167v80h-167v169h-74zM45 100v-79h408v79h-408z" />
    <glyph glyph-name="twosuperior" unicode="&#xb2;" 
d="M298 325v-51h-90l43 43q29 28 47.5 47.5t26.5 30.5q20 33 20 69q0 23 -8 43.5t-22 35.5t-33 23.5t-41 8.5q-59 0 -101 -56v-52h52l-3 16q0 16 15 27.5t36 11.5q23 0 39 -16.5t16 -40.5q0 -11 -2 -20t-8 -19t-18 -23.5t-33 -33.5l-20 -20l-24.5 -25t-25.5 -25l-23 -21
l-10 -9v-48h213v104h-46z" />
    <glyph glyph-name="threesuperior" unicode="&#xb3;" 
d="M158 487l20 13q19 13 30.5 17.5t24.5 4.5q20 0 32 -12t12 -31q0 -24 -17 -38q-8 -7 -18 -9t-36 -2v-52l26 1q29 1 45 -14t16 -41t-16.5 -42.5t-42.5 -16.5q-17 0 -36.5 6.5t-50.5 22.5l-19 -47l22 -11q29 -14 46.5 -18t35.5 -4q48 0 79.5 31.5t31.5 79.5q0 26 -11 48.5
t-32 36.5q15 18 21 33.5t6 37.5q0 40 -27 67t-68 27q-22 0 -42 -9t-57 -35z" />
    <glyph glyph-name="acute" unicode="&#xb4;" 
d="M385 574v4h-124l-87 -88h73z" />
    <glyph glyph-name="mu" unicode="&#xb5;" 
d="M19 411v-68h68v-472h72v149q16 -13 34 -20t33 -10t25 -3.5t11 -0.5q25 0 42 14l19 14t16 6v-20h141v68h-69v343h-140v-68h68v-156q0 -33 -4.5 -51.5t-15.5 -34.5q-11 -17 -32.5 -26.5t-40.5 -9.5t-38 9.5t-33 28.5q-5 7 -8.5 14t-5 16.5t-2 22t-0.5 31.5v224h-140z" />
    <glyph glyph-name="paragraph" unicode="&#xb6;" 
d="M394 481h44v44h-196q-33 0 -67 -3t-60 -21q-28 -19 -41.5 -50.5t-13.5 -66.5q0 -14 3 -31t9.5 -34t18 -32.5t29.5 -25.5q31 -17 58.5 -19.5t45.5 -0.5v-267h-54v-45h119v552h41v-552h108v45h-44v507zM224 282q-6 0 -13.5 2t-13.5 8.5t-10.5 19t-4.5 34.5v71q0 6 0.5 17
t4.5 21.5t12.5 18t24.5 7.5v-199z" />
    <glyph glyph-name="periodcentered" unicode="&#xb7;" 
d="M249 358q-14 0 -28 -5.5t-25 -15t-18 -23.5t-7 -32t7 -32.5t18 -24.5t25 -15t28 -5t28 5.5t25 15t18 24t7 32.5t-7 32t-18.5 24t-25.5 15t-27 5z" />
    <glyph glyph-name="cedilla" unicode="&#xb8;" 
d="M313 5h-61l-8 -75l12 -2q5 -1 13.5 -2t17 -3t13.5 -4.5t2 -5.5q-1 -1 -5 -2.5t-10 -1.5q-11 0 -25.5 2t-28.5 5l-25 5.5t-14 3.5l-9 -62q1 0 3.5 -1t4.5 -1q10 -2 38.5 -8.5t60.5 -6.5q27 0 43 8t24.5 19t11 22.5t2.5 18.5q0 19 -8.5 32t-19 21.5t-21 12.5t-14.5 4z" />
    <glyph glyph-name="onesuperior" unicode="&#xb9;" 
d="M138 522l19 -48l72 35v-236h-85v-52h217v52h-84v302h-30z" />
    <glyph glyph-name="ordmasculine" unicode="&#xba;" 
d="M134 423q0 -26 8.5 -47t24 -37t36.5 -24.5t46 -8.5t46 8.5t36.5 24.5t24 37t8.5 47q0 25 -8.5 46.5t-24 37.5t-36.5 24.5t-46 8.5t-46 -8.5t-36.5 -24.5t-24 -37.5t-8.5 -46.5zM183 423q0 30 18.5 49t47.5 19q30 0 48 -19t18 -49q0 -31 -18.5 -49.5t-47.5 -18.5
t-47.5 18.5t-18.5 49.5zM140 275v-49h218v49h-218z" />
    <glyph glyph-name="guillemotright" unicode="&#xbb;" horiz-adv-x="442" 
d="M131 45h-90l113 197l-113 196h90l113 -196zM289 45h-90l111 197l-111 196h90l112 -196z" />
    <glyph glyph-name="onequarter" unicode="&#xbc;" 
d="M453 274h-51l-125 -224v-46h129v-26h-65v-49h155v49h-43v26h43v51h-43v219zM406 55h-72l70 144h2v-144zM1 535l20 -46l51 25v-230h-62v-51h165v51h-55v295h-30zM461 591l-431 -643l38 -33l433 647z" />
    <glyph glyph-name="onehalf" unicode="&#xbd;" 
d="M1 535l20 -46l51 25v-230h-62v-51h165v51h-55v295h-30zM445 591l-432 -643l38 -33l434 647zM449 31v-51h-89l43 42l46.5 46t28.5 35t14 30.5t4 32.5q0 22 -8 42t-22 34.5t-33 23t-40 8.5q-58 0 -100 -54v-53h51l-1 9l-1 10q0 14 15 24.5t35 10.5q23 0 38.5 -16t15.5 -39
q0 -11 -2 -19t-8 -18t-18 -23t-33 -33q-8 -9 -20 -20.5l-25 -24l-25 -24l-21 -19.5l-10 -9v-47h212v102h-47z" />
    <glyph glyph-name="threequarters" unicode="&#xbe;" 
d="M464 274h-51l-125 -224v-46h129v-26h-65v-49h156v49h-44v26h44v51h-44v219zM417 55h-72l70 144h2v-144zM32 492l19 13q19 12 30.5 16.5t23.5 4.5q20 0 32.5 -11.5t12.5 -29.5q0 -23 -17 -37q-8 -7 -16 -8.5t-31 -2.5h-7v-51h8l19 1q29 0 44.5 -13.5t15.5 -39.5
q0 -25 -16.5 -41t-42.5 -16q-17 0 -35.5 5.5t-49.5 22.5l-20 -48l23 -10q29 -13 45.5 -17t35.5 -4q48 0 78.5 30.5t30.5 77.5q0 54 -42 84q27 27 27 68q0 39 -27 66t-68 27q-11 0 -20.5 -2t-21 -7t-25 -13.5t-31.5 -21.5zM476 591l-432 -643l38 -33l433 647z" />
    <glyph glyph-name="questiondown" unicode="&#xbf;" 
d="M404 35h-72v-61l-17 -6q-11 -5 -32 -7t-33 -2q-16 0 -31.5 5t-28 15t-20.5 25t-8 35q0 25 11 41t27.5 26.5t36.5 17t39 11.5q5 1 11.5 2.5t11.5 2.5q1 0 3 1l3 1v110h-71v-50q-18 -6 -43 -16t-48 -28t-39 -46.5t-16 -71.5q0 -31 11 -60t33 -51t53.5 -35.5t73.5 -13.5
q30 0 56 6t65 20q13 5 16 6.5t8 2.5v120zM271 285q32 0 52 21.5t20 49.5q0 29 -20.5 50t-51.5 21q-29 0 -50.5 -20.5t-21.5 -50.5q0 -29 21.5 -50t50.5 -21z" />
    <glyph glyph-name="Agrave" unicode="&#xc0;" 
d="M83 525v-74h107l-142 -377h-48v-74h197v74h-74l32 88h187l32 -88h-73v-74h197v74h-46l-169 451h-200zM315 236h-132l66 172zM129 691l139 -84h72l-87 88h-124v-4z" />
    <glyph glyph-name="Aacute" unicode="&#xc1;" 
d="M83 525v-74h107l-142 -377h-48v-74h197v74h-74l32 88h187l32 -88h-73v-74h197v74h-46l-169 451h-200zM315 236h-132l66 172zM385 691v4h-124l-87 -88h73z" />
    <glyph glyph-name="Acircumflex" unicode="&#xc2;" 
d="M83 525v-74h107l-142 -377h-48v-74h197v74h-74l32 88h187l32 -88h-73v-74h197v74h-46l-169 451h-200zM315 236h-132l66 172zM212 704l-78 -77l44 -29l68 44l75 -44l43 29l-81 77h-71z" />
    <glyph glyph-name="Atilde" unicode="&#xc3;" 
d="M83 525v-74h107l-142 -377h-48v-74h197v74h-74l32 88h187l32 -88h-73v-74h197v74h-46l-169 451h-200zM315 236h-132l66 172zM338 711q-8 -21 -15.5 -35.5t-22.5 -14.5q-7 0 -14.5 4t-21.5 15t-29.5 20t-37.5 9q-23 0 -39 -9.5t-26.5 -24t-17.5 -31t-11 -29.5l57 -21
q1 1 2 3.5t2 3.5q4 13 11.5 27.5t21.5 14.5q5 0 11 -3t24 -17q23 -18 38 -22.5t27 -4.5q26 0 43 10.5t28 25.5t17 31.5t10 28.5z" />
    <glyph glyph-name="Adieresis" unicode="&#xc4;" 
d="M83 525v-74h107l-142 -377h-48v-74h197v74h-74l32 88h187l32 -88h-73v-74h197v74h-46l-169 451h-200zM315 236h-132l66 172zM148 597h79v103h-79v-103zM271 597h79v103h-79v-103z" />
    <glyph glyph-name="Aring" unicode="&#xc5;" 
d="M83 525v-74h107l-142 -377h-48v-74h197v74h-74l32 88h187l32 -88h-73v-74h197v74h-46l-169 451h-200zM315 236h-132l66 172zM323 661q0 33 -21.5 56.5t-52.5 23.5t-52 -23.5t-21 -56.5q0 -34 21 -57t52 -23t52.5 23t21.5 57zM276 661q0 -12 -8 -20.5t-19 -8.5t-19 8.5
t-8 20.5t8 20t19 8t19 -8t8 -20z" />
    <glyph glyph-name="AE" unicode="&#xc6;" 
d="M103 525v-74h74l-128 -377h-47v-74h175v74h-64l29 87h89v-161h263v196h-59l-7 -122h-126v156h35v-59h64v202h-64v-73h-35v151h126l7 -121h59v195h-391zM231 230h-72l70 207h2v-207z" />
    <glyph glyph-name="Ccedilla" unicode="&#xc7;" 
d="M307 -13q35 6 63.5 17.5t52 26.5t44 33t40.5 39l-48 57q-14 -14 -32.5 -30.5t-41 -30.5t-50 -24t-59.5 -10q-41 0 -70.5 17.5t-48.5 46t-28 65t-9 75.5q0 47 12.5 83.5t33.5 61t48.5 37t57.5 12.5q37 0 59 -13.5t34 -34t17 -45t8 -46.5l69 10q-3 23 -5.5 48.5t-2.5 63.5
q0 27 1 49t3 39h-69l-5 -51q-22 21 -49 39t-71 18q-38 0 -76.5 -18t-70 -52.5t-51.5 -85t-20 -116.5q0 -60 15.5 -109.5t43 -86t64.5 -59t81 -26.5l-6 -57q2 0 7.5 -1l11.5 -2t10.5 -2t6.5 -1q10 -2 17 -4.5t7 -10.5q0 -7 -5 -9t-10 -2q-11 0 -25.5 2t-28.5 5l-25 5.5
t-16 3.5l-9 -62q22 -6 49.5 -11.5t57.5 -5.5q44 0 62 22t18 51q0 20 -6.5 33.5t-16 22t-20 13t-19.5 7.5v3z" />
    <glyph glyph-name="Egrave" unicode="&#xc8;" 
d="M37 525v-74h69v-377h-69v-74h422v195h-69l-4 -121h-208v165h98v-64h69v203h-69v-65h-98v138h200l8 -121h69l-4 195h-414zM129 691l139 -84h72l-87 88h-124v-4z" />
    <glyph glyph-name="Eacute" unicode="&#xc9;" 
d="M37 525v-74h69v-377h-69v-74h422v195h-69l-4 -121h-208v165h98v-64h69v203h-69v-65h-98v138h200l8 -121h69l-4 195h-414zM385 691v4h-124l-87 -88h73z" />
    <glyph glyph-name="Ecircumflex" unicode="&#xca;" 
d="M37 525v-74h69v-377h-69v-74h422v195h-69l-4 -121h-208v165h98v-64h69v203h-69v-65h-98v138h200l8 -121h69l-4 195h-414zM212 704l-78 -77l44 -29l68 44l75 -44l43 29l-81 77h-71z" />
    <glyph glyph-name="Edieresis" unicode="&#xcb;" 
d="M37 525v-74h69v-377h-69v-74h422v195h-69l-4 -121h-208v165h98v-64h69v203h-69v-65h-98v138h200l8 -121h69l-4 195h-414zM148 597h79v103h-79v-103zM271 597h79v103h-79v-103z" />
    <glyph glyph-name="Igrave" unicode="&#xcc;" 
d="M73 525v-74h140v-377h-140v-74h353v74h-140v377h140v74h-353zM129 691l139 -84h72l-87 88h-124v-4z" />
    <glyph glyph-name="Iacute" unicode="&#xcd;" 
d="M73 525v-74h140v-377h-140v-74h353v74h-140v377h140v74h-353zM385 691v4h-124l-87 -88h73z" />
    <glyph glyph-name="Icircumflex" unicode="&#xce;" 
d="M73 525v-74h140v-377h-140v-74h353v74h-140v377h140v74h-353zM212 704l-78 -77l44 -29l68 44l75 -44l43 29l-81 77h-71z" />
    <glyph glyph-name="Idieresis" unicode="&#xcf;" 
d="M73 525v-74h140v-377h-140v-74h353v74h-140v377h140v74h-353zM148 597h79v103h-79v-103zM271 597h79v103h-79v-103z" />
    <glyph glyph-name="Eth" unicode="&#xd0;" 
d="M19 525v-74h64v-142h-64v-76h64v-159h-64v-74h214q12 0 31.5 0.5t42 6t45.5 16.5t43 32q26 28 48.5 80t22.5 136q0 13 -1.5 33.5t-6.5 45t-15.5 51t-29.5 52.5q-18 25 -38.5 39t-42.5 21.5t-46 9.5t-50 2h-217zM237 451q43 0 70.5 -8.5t49.5 -42.5q14 -22 23 -54t9 -76
q0 -57 -13.5 -97t-33.5 -62q-13 -14 -27.5 -21.5t-29.5 -11t-28.5 -4t-23.5 -0.5h-78v159h121v76h-121v142h82z" />
    <glyph glyph-name="Ntilde" unicode="&#xd1;" 
d="M4 525v-74h65v-377h-65v-74h215v74h-84v311h15l199 -396h88v462h56v74h-205v-74h83v-316h-14l-194 390h-159zM338 711q-8 -21 -15.5 -35.5t-22.5 -14.5q-7 0 -14.5 4t-21.5 15t-29.5 20t-37.5 9q-23 0 -39 -9.5t-26.5 -24t-17.5 -31t-11 -29.5l57 -21q1 1 2 3.5t2 3.5
q4 13 11.5 27.5t21.5 14.5q5 0 11 -3t24 -17q23 -18 38 -22.5t27 -4.5q26 0 43 10.5t28 25.5t17 31.5t10 28.5z" />
    <glyph glyph-name="Ograve" unicode="&#xd2;" 
d="M27 262q0 -57 16 -107.5t45 -88t70 -59t91 -21.5t91 22t70 59.5t45 88t16 107.5t-15.5 107.5t-44.5 88t-70 59.5t-92 22t-92 -22t-70 -60t-44.5 -88.5t-15.5 -107.5zM103 263q0 39 10 75t28.5 64t45.5 44.5t62 16.5q36 0 63 -17t45.5 -45t28 -64t9.5 -74q0 -40 -10 -76
t-28.5 -63.5t-46 -44t-61.5 -16.5t-61 16.5t-46 44t-29 63.5t-10 76zM129 691l139 -84h72l-87 88h-124v-4z" />
    <glyph glyph-name="Oacute" unicode="&#xd3;" 
d="M27 262q0 -57 16 -107.5t45 -88t70 -59t91 -21.5t91 22t70 59.5t45 88t16 107.5t-15.5 107.5t-44.5 88t-70 59.5t-92 22t-92 -22t-70 -60t-44.5 -88.5t-15.5 -107.5zM103 263q0 39 10 75t28.5 64t45.5 44.5t62 16.5q36 0 63 -17t45.5 -45t28 -64t9.5 -74q0 -40 -10 -76
t-28.5 -63.5t-46 -44t-61.5 -16.5t-61 16.5t-46 44t-29 63.5t-10 76zM385 691v4h-124l-87 -88h73z" />
    <glyph glyph-name="Ocircumflex" unicode="&#xd4;" 
d="M27 262q0 -57 16 -107.5t45 -88t70 -59t91 -21.5t91 22t70 59.5t45 88t16 107.5t-15.5 107.5t-44.5 88t-70 59.5t-92 22t-92 -22t-70 -60t-44.5 -88.5t-15.5 -107.5zM103 263q0 39 10 75t28.5 64t45.5 44.5t62 16.5q36 0 63 -17t45.5 -45t28 -64t9.5 -74q0 -40 -10 -76
t-28.5 -63.5t-46 -44t-61.5 -16.5t-61 16.5t-46 44t-29 63.5t-10 76zM212 704l-78 -77l44 -29l68 44l75 -44l43 29l-81 77h-71z" />
    <glyph glyph-name="Otilde" unicode="&#xd5;" 
d="M27 262q0 -57 16 -107.5t45 -88t70 -59t91 -21.5t91 22t70 59.5t45 88t16 107.5t-15.5 107.5t-44.5 88t-70 59.5t-92 22t-92 -22t-70 -60t-44.5 -88.5t-15.5 -107.5zM103 263q0 39 10 75t28.5 64t45.5 44.5t62 16.5q36 0 63 -17t45.5 -45t28 -64t9.5 -74q0 -40 -10 -76
t-28.5 -63.5t-46 -44t-61.5 -16.5t-61 16.5t-46 44t-29 63.5t-10 76zM338 711q-8 -21 -15.5 -35.5t-22.5 -14.5q-7 0 -14.5 4t-21.5 15t-29.5 20t-37.5 9q-23 0 -39 -9.5t-26.5 -24t-17.5 -31t-11 -29.5l57 -21q1 1 2 3.5t2 3.5q4 13 11.5 27.5t21.5 14.5q5 0 11 -3t24 -17
q23 -18 38 -22.5t27 -4.5q26 0 43 10.5t28 25.5t17 31.5t10 28.5z" />
    <glyph glyph-name="Odieresis" unicode="&#xd6;" 
d="M27 262q0 -57 16 -107.5t45 -88t70 -59t91 -21.5t91 22t70 59.5t45 88t16 107.5t-15.5 107.5t-44.5 88t-70 59.5t-92 22t-92 -22t-70 -60t-44.5 -88.5t-15.5 -107.5zM103 263q0 39 10 75t28.5 64t45.5 44.5t62 16.5q36 0 63 -17t45.5 -45t28 -64t9.5 -74q0 -40 -10 -76
t-28.5 -63.5t-46 -44t-61.5 -16.5t-61 16.5t-46 44t-29 63.5t-10 76zM148 597h79v103h-79v-103zM271 597h79v103h-79v-103z" />
    <glyph glyph-name="multiply" unicode="&#xd7;" 
d="M300 284l119 129l-51 56l-119 -129l-119 129l-51 -56l119 -129l-119 -128l51 -55l119 128l119 -128l51 55z" />
    <glyph glyph-name="Oslash" unicode="&#xd8;" 
d="M408 536l-30 -43q-6 6 -17 14t-26.5 15.5t-37 12.5t-49.5 5q-51 0 -91.5 -22.5t-69.5 -60t-44.5 -88t-15.5 -105.5q0 -7 1 -27t6 -46.5t15.5 -56.5t30.5 -57l-43 -59l53 -45l39 53q26 -22 57 -31t64 -9q49 0 90 21t70 58.5t45 88t16 109.5q0 67 -15.5 108.5t-31.5 67.5
l37 54zM374 370q6 -14 14.5 -38t8.5 -67q0 -47 -11.5 -84t-32 -63.5t-47 -40.5t-56.5 -14q-24 0 -45 7.5t-32 17.5zM129 146q-14 25 -20 57.5t-6 61.5q0 36 9.5 71.5t28 63.5t45.5 45.5t63 17.5q35 0 54.5 -12t29.5 -20z" />
    <glyph glyph-name="Ugrave" unicode="&#xd9;" 
d="M12 525v-74h58v-230q0 -14 0.5 -34t3.5 -42t9 -44t17 -40q13 -22 31.5 -36.5t39 -23t40.5 -12t38 -3.5q28 0 50 3.5t39 12t31.5 23t28.5 36.5q12 19 18 41t9 44t3 41v34v230h58v74h-211v-74h81v-230q0 -29 -2 -57t-12 -50.5t-32 -36.5t-61 -14t-61 14t-32 36.5t-12 50.5
t-2 57v230h81v74h-211zM129 691l139 -84h72l-87 88h-124v-4z" />
    <glyph glyph-name="Uacute" unicode="&#xda;" 
d="M12 525v-74h58v-230q0 -14 0.5 -34t3.5 -42t9 -44t17 -40q13 -22 31.5 -36.5t39 -23t40.5 -12t38 -3.5q28 0 50 3.5t39 12t31.5 23t28.5 36.5q12 19 18 41t9 44t3 41v34v230h58v74h-211v-74h81v-230q0 -29 -2 -57t-12 -50.5t-32 -36.5t-61 -14t-61 14t-32 36.5t-12 50.5
t-2 57v230h81v74h-211zM385 691v4h-124l-87 -88h73z" />
    <glyph glyph-name="Ucircumflex" unicode="&#xdb;" 
d="M12 525v-74h58v-230q0 -14 0.5 -34t3.5 -42t9 -44t17 -40q13 -22 31.5 -36.5t39 -23t40.5 -12t38 -3.5q28 0 50 3.5t39 12t31.5 23t28.5 36.5q12 19 18 41t9 44t3 41v34v230h58v74h-211v-74h81v-230q0 -29 -2 -57t-12 -50.5t-32 -36.5t-61 -14t-61 14t-32 36.5t-12 50.5
t-2 57v230h81v74h-211zM212 704l-78 -77l44 -29l68 44l75 -44l43 29l-81 77h-71z" />
    <glyph glyph-name="Udieresis" unicode="&#xdc;" 
d="M12 525v-74h58v-230q0 -14 0.5 -34t3.5 -42t9 -44t17 -40q13 -22 31.5 -36.5t39 -23t40.5 -12t38 -3.5q28 0 50 3.5t39 12t31.5 23t28.5 36.5q12 19 18 41t9 44t3 41v34v230h58v74h-211v-74h81v-230q0 -29 -2 -57t-12 -50.5t-32 -36.5t-61 -14t-61 14t-32 36.5t-12 50.5
t-2 57v230h81v74h-211zM148 597h79v103h-79v-103zM271 597h79v103h-79v-103z" />
    <glyph glyph-name="Yacute" unicode="&#xdd;" 
d="M17 525v-74h59l138 -249v-128h-96v-74h262v74h-94v128l136 249h59v74h-189v-74h50l-91 -167l-92 167h49v74h-191zM385 691v4h-124l-87 -88h73z" />
    <glyph glyph-name="Thorn" unicode="&#xde;" 
d="M203 414v37h102v74h-238v-74h64v-377h-64v-74h238v74h-102v41h29q42 0 70.5 1t47.5 3.5t31.5 6.5t24.5 10q32 15 48 51.5t16 75.5q0 57 -21.5 87.5t-53 44.5t-66.5 16.5t-63 2.5h-63zM276 345q19 0 41.5 -1.5t41 -9t31 -24t12.5 -47.5q0 -27 -10 -43t-29 -24t-45.5 -10
t-60.5 -2h-54v161h73z" />
    <glyph glyph-name="germandbls" unicode="&#xdf;" 
d="M44 74v-74h134v403q0 18 3 35t11.5 30.5t22.5 22t36 8.5q28 0 42 -17t14 -46q0 -25 -10.5 -40t-26 -23.5t-32.5 -11t-30 -3.5v-74q72 -2 111.5 -31t39.5 -92q0 -7 -1 -23t-7 -32t-18.5 -28t-35.5 -12q-28 0 -49.5 15.5t-39.5 35.5v-86q5 -6 12.5 -13.5t18.5 -14t27 -11.5
t38 -5q33 0 57.5 13t41 36t25 54t8.5 68q0 23 -4.5 47.5t-16.5 47.5t-32 43t-50 34q6 5 14.5 13t16 20.5t13 30.5t5.5 42q0 27 -8.5 53t-25 46t-41 32t-55.5 12q-32 0 -58.5 -12.5t-46.5 -35t-31 -54t-11 -69.5v-334h-61z" />
    <glyph glyph-name="agrave" unicode="&#xe0;" 
d="M394 276q0 70 -36 110.5t-116 40.5q-51 0 -94 -15t-81 -32l28 -72l28 12t35 13.5t40 11t43 4.5q31 0 47.5 -8t24 -20t8.5 -26t1 -26q-23 3 -44.5 5t-50.5 2q-55 0 -91 -15.5t-57.5 -38t-30 -48t-8.5 -46.5q0 -26 10.5 -51.5t29 -45.5t45.5 -32t60 -12q25 0 45.5 6
t37.5 14.5t30.5 18t23.5 17.5v-43h144v74h-72v202zM322 146q-24 -29 -46 -45.5t-40.5 -24.5t-32 -9.5t-19.5 -1.5q-13 0 -25.5 5t-22 13.5t-15.5 20t-6 23.5q0 4 2.5 16.5t14 25.5t36 23t68.5 10q24 0 44 -3l42 -6v-47zM129 574l139 -84h72l-87 88h-124v-4z" />
    <glyph glyph-name="aacute" unicode="&#xe1;" 
d="M394 276q0 70 -36 110.5t-116 40.5q-51 0 -94 -15t-81 -32l28 -72l28 12t35 13.5t40 11t43 4.5q31 0 47.5 -8t24 -20t8.5 -26t1 -26q-23 3 -44.5 5t-50.5 2q-55 0 -91 -15.5t-57.5 -38t-30 -48t-8.5 -46.5q0 -26 10.5 -51.5t29 -45.5t45.5 -32t60 -12q25 0 45.5 6
t37.5 14.5t30.5 18t23.5 17.5v-43h144v74h-72v202zM322 146q-24 -29 -46 -45.5t-40.5 -24.5t-32 -9.5t-19.5 -1.5q-13 0 -25.5 5t-22 13.5t-15.5 20t-6 23.5q0 4 2.5 16.5t14 25.5t36 23t68.5 10q24 0 44 -3l42 -6v-47zM385 574v4h-124l-87 -88h73z" />
    <glyph glyph-name="acircumflex" unicode="&#xe2;" 
d="M394 276q0 70 -36 110.5t-116 40.5q-51 0 -94 -15t-81 -32l28 -72l28 12t35 13.5t40 11t43 4.5q31 0 47.5 -8t24 -20t8.5 -26t1 -26q-23 3 -44.5 5t-50.5 2q-55 0 -91 -15.5t-57.5 -38t-30 -48t-8.5 -46.5q0 -26 10.5 -51.5t29 -45.5t45.5 -32t60 -12q25 0 45.5 6
t37.5 14.5t30.5 18t23.5 17.5v-43h144v74h-72v202zM322 146q-24 -29 -46 -45.5t-40.5 -24.5t-32 -9.5t-19.5 -1.5q-13 0 -25.5 5t-22 13.5t-15.5 20t-6 23.5q0 4 2.5 16.5t14 25.5t36 23t68.5 10q24 0 44 -3l42 -6v-47zM212 587l-78 -77l44 -29l68 44l75 -44l43 29l-81 77
h-71z" />
    <glyph glyph-name="atilde" unicode="&#xe3;" 
d="M394 276q0 70 -36 110.5t-116 40.5q-51 0 -94 -15t-81 -32l28 -72l28 12t35 13.5t40 11t43 4.5q31 0 47.5 -8t24 -20t8.5 -26t1 -26q-23 3 -44.5 5t-50.5 2q-55 0 -91 -15.5t-57.5 -38t-30 -48t-8.5 -46.5q0 -26 10.5 -51.5t29 -45.5t45.5 -32t60 -12q25 0 45.5 6
t37.5 14.5t30.5 18t23.5 17.5v-43h144v74h-72v202zM322 146q-24 -29 -46 -45.5t-40.5 -24.5t-32 -9.5t-19.5 -1.5q-13 0 -25.5 5t-22 13.5t-15.5 20t-6 23.5q0 4 2.5 16.5t14 25.5t36 23t68.5 10q24 0 44 -3l42 -6v-47zM338 594q-8 -21 -15.5 -35.5t-22.5 -14.5
q-7 0 -14.5 4t-21.5 15t-29.5 20t-37.5 9q-23 0 -39 -9.5t-26.5 -24t-17.5 -31t-11 -29.5l57 -21q1 1 2 3.5t2 3.5q4 13 11.5 27.5t21.5 14.5q5 0 11 -3t24 -17q23 -18 38 -22.5t27 -4.5q26 0 43 10.5t28 25.5t17 31.5t10 28.5z" />
    <glyph glyph-name="adieresis" unicode="&#xe4;" 
d="M394 276q0 70 -36 110.5t-116 40.5q-51 0 -94 -15t-81 -32l28 -72l28 12t35 13.5t40 11t43 4.5q31 0 47.5 -8t24 -20t8.5 -26t1 -26q-23 3 -44.5 5t-50.5 2q-55 0 -91 -15.5t-57.5 -38t-30 -48t-8.5 -46.5q0 -26 10.5 -51.5t29 -45.5t45.5 -32t60 -12q25 0 45.5 6
t37.5 14.5t30.5 18t23.5 17.5v-43h144v74h-72v202zM322 146q-24 -29 -46 -45.5t-40.5 -24.5t-32 -9.5t-19.5 -1.5q-13 0 -25.5 5t-22 13.5t-15.5 20t-6 23.5q0 4 2.5 16.5t14 25.5t36 23t68.5 10q24 0 44 -3l42 -6v-47zM148 480h79v103h-79v-103zM271 480h79v103h-79v-103z
" />
    <glyph glyph-name="aring" unicode="&#xe5;" 
d="M394 276q0 70 -36 110.5t-116 40.5q-51 0 -94 -15t-81 -32l28 -72l28 12t35 13.5t40 11t43 4.5q31 0 47.5 -8t24 -20t8.5 -26t1 -26q-23 3 -44.5 5t-50.5 2q-55 0 -91 -15.5t-57.5 -38t-30 -48t-8.5 -46.5q0 -26 10.5 -51.5t29 -45.5t45.5 -32t60 -12q25 0 45.5 6
t37.5 14.5t30.5 18t23.5 17.5v-43h144v74h-72v202zM322 146q-24 -29 -46 -45.5t-40.5 -24.5t-32 -9.5t-19.5 -1.5q-13 0 -25.5 5t-22 13.5t-15.5 20t-6 23.5q0 4 2.5 16.5t14 25.5t36 23t68.5 10q24 0 44 -3l42 -6v-47zM323 544q0 33 -21.5 56.5t-52.5 23.5t-52 -23.5
t-21 -56.5q0 -34 21 -57t52 -23t52.5 23t21.5 57zM276 544q0 -12 -8 -20.5t-19 -8.5t-19 8.5t-8 20.5t8 20t19 8t19 -8t8 -20z" />
    <glyph glyph-name="ae" unicode="&#xe6;" 
d="M482 178q2 11 3 26t1 34q0 51 -11.5 87t-30.5 58.5t-42.5 33t-47.5 10.5q-21 0 -37.5 -6t-28.5 -14t-19.5 -16t-11.5 -13q-6 9 -12.5 17.5t-17 15.5t-25.5 11.5t-36 4.5q-42 0 -75.5 -11.5t-61.5 -23.5l22 -73q34 14 61.5 22t50.5 8q28 0 36 -20t8 -71l-29 4t-27 2
q-37 0 -64 -14.5t-45 -36t-26.5 -47.5t-8.5 -49t7.5 -46.5t23 -42t38 -30t52.5 -11.5q36 0 65.5 17t57.5 41q14 -20 30 -31.5t31 -17.5t28 -7.5t22 -1.5q38 0 67.5 9t52.5 17q2 1 4.5 2t3.5 2l-27 70q-19 -8 -40.5 -15t-52.5 -7q-27 0 -43.5 8.5t-26.5 23.5t-14 35.5
t-7 45.5h203zM207 99q-23 -17 -42 -25.5t-42 -8.5q-24 0 -33 16t-9 34q0 36 18.5 55.5t53.5 19.5q14 0 27.5 -1.5t26.5 -3.5v-86zM279 252q1 11 3 27.5t9.5 32t21.5 26.5t39 11q21 0 33 -10t18 -25t8 -32t2 -30h-134z" />
    <glyph glyph-name="ccedilla" unicode="&#xe7;" 
d="M296 -8q29 5 56 16.5t49.5 25.5t40 28l29.5 23l-40 62q-18 -14 -38.5 -28.5t-42.5 -26t-45.5 -19t-47.5 -7.5q-36 0 -61 13.5t-41 34t-23 45t-7 47.5q0 15 5 38.5t20 46t42 38.5t71 16q36 0 56 -9t31 -24.5t15 -35t7 -40.5l70 10q-2 15 -3.5 34t-1.5 45q0 24 1.5 48
t3.5 42l-65 7l-8 -49q-32 29 -59 39t-59 10q-49 0 -87 -19t-63.5 -50t-38.5 -70t-13 -78q0 -38 12 -75t35 -67t58 -50.5t82 -24.5l-7 -58q2 0 7.5 -1l11.5 -2t11 -2t7 -1q10 -2 17 -4.5t7 -10.5q0 -7 -5 -9t-10 -2q-12 0 -26.5 2t-28 5l-25 5.5t-16.5 3.5l-9 -62
q20 -5 48.5 -11t58.5 -6q43 0 62 21t19 52q0 34 -18 51.5t-44 24.5v8z" />
    <glyph glyph-name="egrave" unicode="&#xe8;" 
d="M445 130q-17 -11 -38 -22.5t-45 -21t-49.5 -15.5t-51.5 -6q-40 0 -65 12.5t-39.5 30t-20.5 36.5t-9 31h325q1 6 2 22.5t1 31.5q0 33 -12.5 67t-37.5 61.5t-62 45t-86 17.5q-48 0 -86 -18t-65 -48t-41 -69.5t-14 -82.5t13.5 -82t40.5 -68.5t66.5 -47t91.5 -17.5
q49 0 103.5 19t111.5 54zM132 248q3 9 10 25t21.5 31.5t37 27t57.5 11.5q9 0 25.5 -2t35 -11t35 -28t24.5 -54h-246zM146 574l139 -84h72l-87 88h-124v-4z" />
    <glyph glyph-name="eacute" unicode="&#xe9;" 
d="M445 130q-17 -11 -38 -22.5t-45 -21t-49.5 -15.5t-51.5 -6q-40 0 -65 12.5t-39.5 30t-20.5 36.5t-9 31h325q1 6 2 22.5t1 31.5q0 33 -12.5 67t-37.5 61.5t-62 45t-86 17.5q-48 0 -86 -18t-65 -48t-41 -69.5t-14 -82.5t13.5 -82t40.5 -68.5t66.5 -47t91.5 -17.5
q49 0 103.5 19t111.5 54zM132 248q3 9 10 25t21.5 31.5t37 27t57.5 11.5q9 0 25.5 -2t35 -11t35 -28t24.5 -54h-246zM385 574v4h-124l-87 -88h73z" />
    <glyph glyph-name="ecircumflex" unicode="&#xea;" 
d="M445 130q-17 -11 -38 -22.5t-45 -21t-49.5 -15.5t-51.5 -6q-40 0 -65 12.5t-39.5 30t-20.5 36.5t-9 31h325q1 6 2 22.5t1 31.5q0 33 -12.5 67t-37.5 61.5t-62 45t-86 17.5q-48 0 -86 -18t-65 -48t-41 -69.5t-14 -82.5t13.5 -82t40.5 -68.5t66.5 -47t91.5 -17.5
q49 0 103.5 19t111.5 54zM132 248q3 9 10 25t21.5 31.5t37 27t57.5 11.5q9 0 25.5 -2t35 -11t35 -28t24.5 -54h-246zM212 587l-78 -77l44 -29l68 44l75 -44l43 29l-81 77h-71z" />
    <glyph glyph-name="edieresis" unicode="&#xeb;" 
d="M445 130q-17 -11 -38 -22.5t-45 -21t-49.5 -15.5t-51.5 -6q-40 0 -65 12.5t-39.5 30t-20.5 36.5t-9 31h325q1 6 2 22.5t1 31.5q0 33 -12.5 67t-37.5 61.5t-62 45t-86 17.5q-48 0 -86 -18t-65 -48t-41 -69.5t-14 -82.5t13.5 -82t40.5 -68.5t66.5 -47t91.5 -17.5
q49 0 103.5 19t111.5 54zM132 248q3 9 10 25t21.5 31.5t37 27t57.5 11.5q9 0 25.5 -2t35 -11t35 -28t24.5 -54h-246zM148 480h79v103h-79v-103zM271 480h79v103h-79v-103z" />
    <glyph glyph-name="igrave" unicode="&#xec;" 
d="M95 408v-74h119v-260h-141v-74h352v74h-139v334h-191zM129 574l139 -84h72l-87 88h-124v-4z" />
    <glyph glyph-name="iacute" unicode="&#xed;" 
d="M95 408v-74h119v-260h-141v-74h352v74h-139v334h-191zM385 574v4h-124l-87 -88h73z" />
    <glyph glyph-name="icircumflex" unicode="&#xee;" 
d="M95 408v-74h119v-260h-141v-74h352v74h-139v334h-191zM212 587l-78 -77l44 -29l68 44l75 -44l43 29l-81 77h-71z" />
    <glyph glyph-name="idieresis" unicode="&#xef;" 
d="M95 408v-74h119v-260h-141v-74h352v74h-139v334h-191zM148 480h79v103h-79v-103zM271 480h79v103h-79v-103z" />
    <glyph glyph-name="eth" unicode="&#xf0;" 
d="M208 594q-39 20 -63.5 29t-39.5 14l-30 -60q31 -11 55.5 -22.5l35.5 -16.5l-42 -70l55 -34l43 74q5 -3 18.5 -12.5t31.5 -24t37.5 -34.5t36.5 -44l-2 -2q-10 8 -35.5 20.5t-66.5 12.5t-78.5 -15.5t-66 -44t-45.5 -69t-17 -90.5q0 -42 13.5 -81t40.5 -69.5t67 -49
t93 -18.5q51 0 90.5 17.5t67 47.5t42 70.5t14.5 86.5q0 51 -12.5 100t-33.5 93q-15 30 -32 52.5t-34.5 40t-36.5 32l-38 28.5l-14 9l33 52l-53 39zM109 205q0 28 9 54.5t26.5 46.5t43.5 32.5t61 12.5t61.5 -12.5t44 -33.5t26 -47t8.5 -53t-8.5 -53t-26 -46.5t-43.5 -33.5
t-62 -13q-35 0 -61 12.5t-43.5 32.5t-26.5 46.5t-9 54.5z" />
    <glyph glyph-name="ntilde" unicode="&#xf1;" 
d="M19 408v-74h67v-260h-69v-74h205v74h-63v208q26 21 56.5 41t65.5 20q30 0 46 -26t16 -62v-181h-70v-74h209v74h-67v184q0 36 -9.5 65.5t-27.5 51t-43 33.5t-56 12q-41 0 -70.5 -17t-49.5 -33v38h-140zM338 594q-8 -21 -15.5 -35.5t-22.5 -14.5q-7 0 -14.5 4t-21.5 15
t-29.5 20t-37.5 9q-23 0 -39 -9.5t-26.5 -24t-17.5 -31t-11 -29.5l57 -21q1 1 2 3.5t2 3.5q4 13 11.5 27.5t21.5 14.5q5 0 11 -3t24 -17q23 -18 38 -22.5t27 -4.5q26 0 43 10.5t28 25.5t17 31.5t10 28.5z" />
    <glyph glyph-name="ograve" unicode="&#xf2;" 
d="M34 207q0 -42 14 -82t41 -70.5t67 -49t93 -18.5q54 0 94.5 19t67 50.5t40 70.5t13.5 80q0 42 -14 82t-41.5 70.5t-67.5 49t-92 18.5q-50 0 -90 -17.5t-68 -47.5t-42.5 -70t-14.5 -85zM110 207q0 28 9 53.5t26.5 45t43.5 31.5t60 12q35 0 61 -12.5t43.5 -32.5t26 -45.5
t8.5 -51.5t-8.5 -51.5t-26 -45.5t-43.5 -32.5t-61 -12.5q-34 0 -60 12t-43.5 31.5t-26.5 45.5t-9 53zM129 574l139 -84h72l-87 88h-124v-4z" />
    <glyph glyph-name="oacute" unicode="&#xf3;" 
d="M34 207q0 -42 14 -82t41 -70.5t67 -49t93 -18.5q54 0 94.5 19t67 50.5t40 70.5t13.5 80q0 42 -14 82t-41.5 70.5t-67.5 49t-92 18.5q-50 0 -90 -17.5t-68 -47.5t-42.5 -70t-14.5 -85zM110 207q0 28 9 53.5t26.5 45t43.5 31.5t60 12q35 0 61 -12.5t43.5 -32.5t26 -45.5
t8.5 -51.5t-8.5 -51.5t-26 -45.5t-43.5 -32.5t-61 -12.5q-34 0 -60 12t-43.5 31.5t-26.5 45.5t-9 53zM385 574v4h-124l-87 -88h73z" />
    <glyph glyph-name="ocircumflex" unicode="&#xf4;" 
d="M34 207q0 -42 14 -82t41 -70.5t67 -49t93 -18.5q54 0 94.5 19t67 50.5t40 70.5t13.5 80q0 42 -14 82t-41.5 70.5t-67.5 49t-92 18.5q-50 0 -90 -17.5t-68 -47.5t-42.5 -70t-14.5 -85zM110 207q0 28 9 53.5t26.5 45t43.5 31.5t60 12q35 0 61 -12.5t43.5 -32.5t26 -45.5
t8.5 -51.5t-8.5 -51.5t-26 -45.5t-43.5 -32.5t-61 -12.5q-34 0 -60 12t-43.5 31.5t-26.5 45.5t-9 53zM212 587l-78 -77l44 -29l68 44l75 -44l43 29l-81 77h-71z" />
    <glyph glyph-name="otilde" unicode="&#xf5;" 
d="M34 207q0 -42 14 -82t41 -70.5t67 -49t93 -18.5q54 0 94.5 19t67 50.5t40 70.5t13.5 80q0 42 -14 82t-41.5 70.5t-67.5 49t-92 18.5q-50 0 -90 -17.5t-68 -47.5t-42.5 -70t-14.5 -85zM110 207q0 28 9 53.5t26.5 45t43.5 31.5t60 12q35 0 61 -12.5t43.5 -32.5t26 -45.5
t8.5 -51.5t-8.5 -51.5t-26 -45.5t-43.5 -32.5t-61 -12.5q-34 0 -60 12t-43.5 31.5t-26.5 45.5t-9 53zM338 594q-8 -21 -15.5 -35.5t-22.5 -14.5q-7 0 -14.5 4t-21.5 15t-29.5 20t-37.5 9q-23 0 -39 -9.5t-26.5 -24t-17.5 -31t-11 -29.5l57 -21q1 1 2 3.5t2 3.5
q4 13 11.5 27.5t21.5 14.5q5 0 11 -3t24 -17q23 -18 38 -22.5t27 -4.5q26 0 43 10.5t28 25.5t17 31.5t10 28.5z" />
    <glyph glyph-name="odieresis" unicode="&#xf6;" 
d="M34 207q0 -42 14 -82t41 -70.5t67 -49t93 -18.5q54 0 94.5 19t67 50.5t40 70.5t13.5 80q0 42 -14 82t-41.5 70.5t-67.5 49t-92 18.5q-50 0 -90 -17.5t-68 -47.5t-42.5 -70t-14.5 -85zM110 207q0 28 9 53.5t26.5 45t43.5 31.5t60 12q35 0 61 -12.5t43.5 -32.5t26 -45.5
t8.5 -51.5t-8.5 -51.5t-26 -45.5t-43.5 -32.5t-61 -12.5q-34 0 -60 12t-43.5 31.5t-26.5 45.5t-9 53zM148 480h79v103h-79v-103zM271 480h79v103h-79v-103z" />
    <glyph glyph-name="divide" unicode="&#xf7;" 
d="M249 495q-23 0 -37.5 -17t-14.5 -40q0 -22 14 -39t38 -17q23 0 37.5 17t14.5 39q0 23 -14.5 40t-37.5 17zM45 321v-79h408v79h-408zM249 182q-23 0 -37.5 -16.5t-14.5 -39.5t14.5 -40.5t37.5 -17.5t37.5 17.5t14.5 40.5t-14.5 39.5t-37.5 16.5z" />
    <glyph glyph-name="oslash" unicode="&#xf8;" 
d="M126 24q29 -20 58.5 -28.5t64.5 -8.5q54 0 94.5 19t67 50t40 71t13.5 81q0 77 -42 137l35 37l-45 49l-38 -40q-32 22 -67 29t-59 7q-50 0 -89.5 -18t-67.5 -48t-42.5 -69.5t-14.5 -83.5q0 -12 1.5 -29t6.5 -35.5t14 -38.5t23 -38l-38 -43l44 -46zM367 285q8 -15 14.5 -30
t6.5 -47q0 -27 -9 -53t-26 -46t-43 -32t-60 -12q-29 0 -45.5 5t-24.5 11zM133 125q-17 28 -20 52t-3 31q0 27 9 52.5t26.5 45t43 31.5t59.5 12q31 0 47 -6.5t27 -12.5z" />
    <glyph glyph-name="ugrave" unicode="&#xf9;" 
d="M18 408v-74h65v-173q0 -50 9 -77t25 -48q17 -23 46.5 -36t60.5 -13q19 0 48 8t61 33v-28h137v74h-65v334h-140v-74h68v-203q-23 -25 -47.5 -45.5t-62.5 -20.5q-23 0 -36.5 10t-20.5 25t-9 31.5t-2 29.5v247h-137zM129 574l139 -84h72l-87 88h-124v-4z" />
    <glyph glyph-name="uacute" unicode="&#xfa;" 
d="M18 408v-74h65v-173q0 -50 9 -77t25 -48q17 -23 46.5 -36t60.5 -13q19 0 48 8t61 33v-28h137v74h-65v334h-140v-74h68v-203q-23 -25 -47.5 -45.5t-62.5 -20.5q-23 0 -36.5 10t-20.5 25t-9 31.5t-2 29.5v247h-137zM385 574v4h-124l-87 -88h73z" />
    <glyph glyph-name="ucircumflex" unicode="&#xfb;" 
d="M18 408v-74h65v-173q0 -50 9 -77t25 -48q17 -23 46.5 -36t60.5 -13q19 0 48 8t61 33v-28h137v74h-65v334h-140v-74h68v-203q-23 -25 -47.5 -45.5t-62.5 -20.5q-23 0 -36.5 10t-20.5 25t-9 31.5t-2 29.5v247h-137zM212 587l-78 -77l44 -29l68 44l75 -44l43 29l-81 77h-71z
" />
    <glyph glyph-name="udieresis" unicode="&#xfc;" 
d="M18 408v-74h65v-173q0 -50 9 -77t25 -48q17 -23 46.5 -36t60.5 -13q19 0 48 8t61 33v-28h137v74h-65v334h-140v-74h68v-203q-23 -25 -47.5 -45.5t-62.5 -20.5q-23 0 -36.5 10t-20.5 25t-9 31.5t-2 29.5v247h-137zM148 480h79v103h-79v-103zM271 480h79v103h-79v-103z" />
    <glyph glyph-name="yacute" unicode="&#xfd;" 
d="M12 408v-74h54l142 -292l-55 -101h-129v-74h274v74h-62l208 393h52v74h-178v-74h43l-111 -211l-101 211h44v74h-181zM385 574v4h-124l-87 -88h73z" />
    <glyph glyph-name="thorn" unicode="&#xfe;" 
d="M-1 559l8 -76l67 5v-551h-66v-74h258v74h-120v106q17 -15 35 -25t34.5 -15t31 -7t24.5 -2q35 0 69.5 15.5t62 43.5t44.5 68t17 88q0 40 -13.5 78t-39 67.5t-61.5 47.5t-80 18q-6 0 -19 -0.5t-30 -5t-36.5 -14t-38.5 -27.5v195zM143 211q0 27 9.5 51t26.5 42t40 28.5
t51 10.5q30 0 52 -12t37 -31.5t22 -43t7 -47.5q0 -30 -9.5 -55t-26 -43.5t-38 -29t-45.5 -10.5q-21 0 -43 9t-40.5 26.5t-30.5 43.5t-12 61z" />
    <glyph glyph-name="ydieresis" unicode="&#xff;" 
d="M12 408v-74h54l142 -292l-55 -101h-129v-74h274v74h-62l208 393h52v74h-178v-74h43l-111 -211l-101 211h44v74h-181zM148 480h79v103h-79v-103zM271 480h79v103h-79v-103z" />
    <glyph glyph-name="OE" unicode="&#x152;" 
d="M490 525h-285q-50 0 -88 -24.5t-63.5 -63t-38.5 -86t-13 -94.5q0 -24 3 -51t11.5 -55.5t23.5 -56.5t39 -52q15 -16 29.5 -24.5t29.5 -12.5t31 -4.5t36 -0.5h291v196h-62l-5 -122h-114v164h27v-57h64v192h-64v-57h-27v135h112l7 -121h59zM242 112q0 -15 -6 -24t-14 -13.5
t-16.5 -6t-12.5 -1.5q-27 0 -48 15t-36 40.5t-22.5 59t-7.5 71.5q0 45 10.5 82t27.5 63.5t38.5 41.5t44.5 15q16 0 24.5 -3t12.5 -8.5t4.5 -12t0.5 -13.5v-306z" />
    <glyph glyph-name="oe" unicode="&#x153;" 
d="M474 178q2 16 3 28.5t1 27.5q0 17 -4.5 49.5t-18.5 64.5t-39.5 55.5t-66.5 23.5q-20 0 -36 -6t-27 -14t-18.5 -16.5t-11.5 -13.5q-3 5 -10 13.5t-19 16.5t-30 14t-44 6q-44 0 -73 -20.5t-46.5 -52.5t-24.5 -73t-7 -81q0 -68 15.5 -107.5t24.5 -53.5q5 -7 12.5 -16
t19.5 -17t29.5 -13.5t41.5 -5.5q26 0 44.5 6.5t31.5 15t20 18t11 15.5q4 -6 11.5 -15t20.5 -18t31 -15.5t44 -6.5q38 0 67.5 9t48.5 17l8 4l-25 73q-8 -3 -7 -3q-3 -2 -11.5 -5t-10.5 -4q-3 -1 -11 -3l-18 -4.5t-20.5 -4t-18.5 -1.5q-33 0 -50 31t-21 82h184zM280 252
q1 31 9 50t18 29.5t21.5 14.5t20.5 4t18.5 -4.5t17.5 -16t13 -30.5t5 -47h-123zM77 204q0 70 18 108t58 38q39 0 54 -32.5t15 -110.5q0 -26 -2.5 -51.5t-10 -45.5t-21.5 -32.5t-37 -12.5q-21 0 -35 10.5t-23 29.5t-12.5 44.5t-3.5 54.5z" />
    <glyph glyph-name="Scaron" unicode="&#x160;" 
d="M361 534l-7 -51l-13.5 15.5t-22 18.5t-32.5 16t-44 7q-31 0 -61.5 -12.5t-55 -34.5t-39.5 -53t-15 -67q0 -50 22 -79t52.5 -45t63 -21.5t54.5 -7.5q19 -2 37 -6t31.5 -11.5t21.5 -20.5t8 -34q0 -24 -10.5 -40t-26.5 -26t-35.5 -14.5t-37.5 -4.5q-30 0 -51 10t-34 27
t-19.5 39.5t-8.5 47.5h-67q2 -22 4.5 -62t2.5 -82q0 -23 -0.5 -34.5t-1.5 -25.5h67l6 54q7 -9 16.5 -18t22 -16.5t30.5 -12t43 -4.5q37 0 69 12.5t55.5 34.5t37 51.5t13.5 64.5q0 45 -18 73.5t-41 43.5q-25 18 -53 23t-69 11q-14 1 -32.5 4.5t-36 11t-29.5 21.5t-12 38
q0 14 6 29.5t19 28.5t33 21.5t49 8.5q36 0 57.5 -15t33 -36.5t16 -45.5t6.5 -42l66 10q0 2 -0.5 10.5t-1.5 10.5q-2 17 -3.5 44.5t-1.5 56.5q0 24 1 43.5t2 34.5h-66zM286 598l78 77l-44 29l-68 -43l-75 43l-43 -29l82 -77h70z" />
    <glyph glyph-name="scaron" unicode="&#x161;" 
d="M345 428l-11 -50q-6 5 -16 12.5t-23.5 14t-31 11t-39.5 4.5q-23 0 -50 -7t-50 -22.5t-38 -39t-15 -56.5q0 -31 16 -57.5t39 -41.5q10 -6 21.5 -11t26 -8.5t34 -6t47.5 -4.5q49 -3 74.5 -9t25.5 -33q0 -29 -29 -44t-75 -15q-30 0 -50 7t-32.5 19.5t-19.5 29t-10 34.5
l-65 -8q3 -14 5.5 -29t2.5 -42q0 -28 -3 -48t-5 -37l65 -5l10 47q8 -8 18 -16t23.5 -14.5t31.5 -11t43 -4.5q36 0 66.5 10.5t52.5 29t34 43t12 52.5q0 20 -9 44.5t-31 42.5q-23 18 -54.5 22.5t-86.5 8.5q-17 1 -35.5 3t-33.5 7.5t-24.5 15t-9.5 26.5q0 16 9 26.5t22.5 15.5
t28.5 7t27 2q5 0 19.5 -0.5t31 -5t31 -14t19.5 -27.5l7 -21q1 -2 2 -6t2 -5l65 10q-3 14 -5.5 28.5t-2.5 35.5t2.5 41.5t5.5 37.5zM286 481l78 77l-44 29l-68 -43l-75 43l-43 -29l82 -77h70z" />
    <glyph glyph-name="Ydieresis" unicode="&#x178;" 
d="M17 525v-74h59l138 -249v-128h-96v-74h262v74h-94v128l136 249h59v74h-189v-74h50l-91 -167l-92 167h49v74h-191zM148 597h79v103h-79v-103zM271 597h79v103h-79v-103z" />
    <glyph glyph-name="Zcaron" unicode="&#x17d;" 
d="M65 525v-203h72v129h183l-260 -388v-63h378v216h-72v-142h-210l264 391v60h-355zM286 598l78 77l-44 29l-68 -43l-75 43l-43 -29l82 -77h70z" />
    <glyph glyph-name="zcaron" unicode="&#x17e;" 
d="M84 408v-152h72v78h155l-235 -269v-65h346v157h-72v-83h-166l238 273v61h-338zM286 481l78 77l-44 29l-68 -43l-75 43l-43 -29l82 -77h70z" />
    <glyph glyph-name="florin" unicode="&#x192;" 
d="M430 607l-27 4t-33 2q-47 0 -89 -13.5t-67 -42.5q-22 -24 -29.5 -54.5t-7.5 -63.5v-35h-87v-70h87v-266q0 -24 -4.5 -39.5t-20 -24t-46.5 -11t-84 0.5l-8 -76q11 -2 25.5 -3t32.5 -1q31 0 63 5.5t57.5 22t41.5 45t16 75.5v272h141v70h-141v31q0 14 1.5 31.5t11.5 33.5
t31.5 26.5t61.5 10.5q20 0 34 -2.5t27 -5.5z" />
    <glyph glyph-name="circumflex" unicode="&#x2c6;" 
d="M323 544q0 33 -21.5 56.5t-52.5 23.5t-52 -23.5t-21 -56.5q0 -34 21 -57t52 -23t52.5 23t21.5 57zM276 544q0 -12 -8 -20.5t-19 -8.5t-19 8.5t-8 20.5t8 20t19 8t19 -8t8 -20z" />
    <glyph glyph-name="tilde" unicode="&#x2dc;" 
d="M338 594q-8 -21 -15.5 -35.5t-22.5 -14.5q-7 0 -14.5 4t-21.5 15t-29.5 20t-37.5 9q-23 0 -39 -9.5t-26.5 -24t-17.5 -31t-11 -29.5l57 -21q1 1 2 3.5t2 3.5q4 13 11.5 27.5t21.5 14.5q5 0 11 -3t24 -17q23 -18 38 -22.5t27 -4.5q26 0 43 10.5t28 25.5t17 31.5t10 28.5z
" />
    <glyph glyph-name="uni1200" unicode="&#x1200;" horiz-adv-x="513" 
d="M472 526q0 48 -8.5 70.5t-22.5 33.5l-125 -26q8 -6 10.5 -18t4.5 -25t2.5 -35.5t0.5 -54.5q-1 -144 -10.5 -235t-27.5 -136q-17 -45 -37 -61.5t-35 -16.5q-21 0 -35.5 22t-14.5 67q0 24 3.5 65.5t8 89l9 95t6.5 84.5q2 38 -1 66t-8.5 46.5t-12.5 29.5t-14 15l-128 -28
q8 -7 13 -17.5t8 -28.5t4.5 -44t1.5 -63q0 -29 -4 -65l-9 -77.5t-9.5 -86.5t-4.5 -93q0 -15 6 -32.5t22.5 -32t46.5 -24.5t78 -10q62 0 111 19t93 66q31 33 48.5 92t25.5 161q0 3 1 30t1.5 59.5t1 61.5t0.5 37z" />
    <glyph glyph-name="uni1201" unicode="&#x1201;" horiz-adv-x="687" 
d="M681 277q-17 25 -23.5 45t-6.5 37q0 6 1 14t4 18q1 7 1.5 9t0.5 4q0 12 -11 18l-181 -39q0 19 0.5 42t0.5 43q0 21 0.5 37t0.5 21q0 48 -8.5 70.5t-22.5 33.5l-125 -26q8 -6 10.5 -18t4.5 -25t2.5 -35.5t0.5 -54.5q-1 -144 -11 -235t-27 -136t-37 -61.5t-35 -16.5
q-21 0 -35.5 22t-14.5 67q-1 24 2.5 65.5t8.5 89t9.5 95t6.5 84.5q2 49 -1 78t-8.5 45.5t-13 23t-13.5 10.5l-129 -28q9 -7 14.5 -15.5t8.5 -25t4 -43t1 -69.5q0 -29 -4.5 -68.5l-9.5 -83t-9 -87.5t-4 -83q0 -15 6 -32.5t22.5 -32t46.5 -24.5t78 -10q62 0 111 19t93 66
q31 33 48.5 92t25.5 161l2 27l49 10q5 -63 27.5 -91.5t60.5 -28.5q31 0 78 22z" />
    <glyph glyph-name="uni1202" unicode="&#x1202;" horiz-adv-x="553" 
d="M548 -32q-26 -7 -47.5 -11t-41.5 -4q-35 0 -56.5 16.5t-21.5 54.5h-15q-6 0 -13 -0.5t-16 -1t-21 -1.5q-23 -2 -54 -6.5t-85 -15.5q-16 0 -25 18t-9 45q0 4 1 8q1 15 7.5 37t18.5 54.5t30.5 77.5l42.5 105l-146 -22q-55 0 -55 61q0 4 2.5 19.5t5 33.5t5 34t2.5 21
q0 21 -1 34t-4 22t-8 16.5t-13 18.5l-3 3l140 29q28 -15 28 -79q0 -8 -3 -28l-6.5 -41.5l-6.5 -39.5t-3 -22q0 -15 4 -23.5t13 -12.5t23 -5.5t34 -1.5q10 18 20.5 42.5t19.5 49t15 45t6 29.5q0 26 -5.5 48t-17.5 27l130 30q11 -15 17 -40t6 -51q0 -10 -1 -18t-6 -23
l-14.5 -42l-27 -74l-43.5 -119l-64 -178q-2 -4 -3 -10.5t-1 -9.5q0 -14 7.5 -19.5t13.5 -5.5h78q1 20 9.5 35.5t22 26t30.5 16t36 5.5q27 0 46 -8q-14 -31 -14 -58q0 -24 10 -47.5t27 -43.5z" />
    <glyph glyph-name="uni1203" unicode="&#x1203;" horiz-adv-x="482" 
d="M442 537q0 26 -6.5 51t-17.5 40l-130 -30q12 -5 17.5 -26.5t5.5 -47.5q0 -9 -6 -30t-15 -45.5t-19.5 -49t-19.5 -42.5q-20 0 -34.5 1.5t-23.5 6t-13 12.5t-4 23q0 4 3 22l6.5 39.5l6.5 41.5t3 28q0 64 -28 79l-140 -29l15 -20t9 -17t4 -22t1 -34q0 -6 -2.5 -22l-5 -33.5
t-5 -33t-2.5 -19.5q0 -61 55 -61l146 21l-42.5 -105t-30.5 -77.5t-18.5 -54.5t-7.5 -36q0 -32 10 -50.5t22 -18.5l130 27q-14 11 -17 29t-3 33q0 5 11.5 38l29 80.5l38 102.5l38 103.5t29 83.5t11.5 42z" />
    <glyph glyph-name="uni1204" unicode="&#x1204;" horiz-adv-x="525" 
d="M519 152q0 28 -8.5 48t-19.5 27l-122 -26q6 -3 11 -13.5t8.5 -23.5t5.5 -27.5t2 -26.5q0 -21 -7 -40.5t-17 -27.5q-5 -4 -17 -6.5t-24 -2.5q-19 0 -32 11t-13 47q0 5 11.5 38l28.5 80.5l37.5 102l37.5 102.5l28.5 83t11.5 43q0 26 -6.5 51t-17.5 40l-130 -30
q12 -5 17.5 -26.5t5.5 -48.5q0 -9 -5.5 -29.5t-14.5 -45t-19.5 -49t-20.5 -42.5q-20 0 -34.5 1.5t-23.5 6t-13 12.5t-4 23q0 4 3 22l6.5 39.5l6.5 41.5t3 28q0 64 -28 79l-139 -29q9 -12 14.5 -20t9 -17.5t4.5 -22.5t1 -34q0 -5 -2.5 -21t-5 -34t-5 -33.5t-2.5 -19.5
q0 -61 54 -61l147 22l-43 -105l-30.5 -77.5t-19 -54.5t-7.5 -37q0 -32 10 -50t22 -18l91 14q7 0 12 1q38 -1 69.5 -2t49.5 -1q6 0 10.5 0.5t6.5 0.5q31 0 51.5 11.5t32.5 31t17 44.5t5 51z" />
    <glyph glyph-name="uni1205" unicode="&#x1205;" horiz-adv-x="541" 
d="M500 526q0 20 -2 39t-6.5 33.5t-12 23t-18.5 8.5l-127 -26q22 -25 25.5 -58.5t3.5 -74.5q0 -40 -0.5 -89t-4 -99t-10 -97.5t-19 -84.5t-31.5 -59.5t-46 -22.5q-15 0 -27.5 10t-22 27.5t-14.5 41t-5 50.5q0 37 4 75t10.5 71.5t15.5 59.5t20 40q2 2 2 5q0 2 -4 2h-2
q-1 0 -7 -1l-17.5 -3t-32.5 -6q9 13 15.5 36.5t11.5 50t7.5 53.5t2.5 48q0 7 -2.5 22t-16.5 20l-134 -29q11 -8 13 -16.5t2 -19.5q0 -23 -3 -50.5t-9 -55.5t-15.5 -54.5t-21.5 -46.5q-1 -2 -2 -3v0q0 -4 6 -4l60 5q-15 -35 -23.5 -89.5t-8.5 -109.5q0 -72 38.5 -110
t130.5 -38q25 0 53 7t55 18.5t51 27t40 32.5q31 33 48.5 92t25.5 161q0 3 1 30t1.5 59.5t1 61.5t0.5 37z" />
    <glyph glyph-name="uni1206" unicode="&#x1206;" horiz-adv-x="645" 
d="M637 518q0 -32 -7 -59t-26.5 -48.5t-54.5 -37t-91 -24.5q0 -92 -18 -157.5t-52.5 -108.5t-84 -63t-112.5 -20q-10 -2 -19.5 -3t-18.5 -1q-51 0 -82 32t-31 78q2 33 5.5 80l7 94t6 87t2.5 58q0 20 -1 35t-3.5 26.5t-7 21t-12.5 20.5l127 47q18 -5 25.5 -28.5t7.5 -61.5
q0 -35 -4 -83l-8.5 -97.5l-8.5 -94.5t-4 -75q0 -37 3 -59.5t9 -35t15 -16.5t20 -4q29 0 49.5 28.5t34 78t19.5 115.5t6 140q0 40 -1 70t-4 53.5t-9.5 40.5t-17.5 31l257 54q41 0 62.5 -27.5t21.5 -85.5zM527 458q0 9 -1 20.5t-3 26.5q-3 26 -6.5 42t-8 25t-11 12t-16.5 3
q-7 0 -16.5 -2t-22.5 -5l15 -206q10 0 22 2.5t22.5 11.5t18 25.5t7.5 44.5z" />
    <glyph glyph-name="uni1208" unicode="&#x1208;" horiz-adv-x="544" 
d="M23 87q0 -14 3 -32t9 -29q10 -21 22 -29l138 26q-22 8 -34.5 25.5t-12.5 45.5q0 128 28 218t71 143q15 -22 26 -43t20 -44.5t16.5 -51t15.5 -60.5q6 -28 12 -59.5t10.5 -60.5l8 -51.5t5.5 -31.5q4 -20 16 -36.5t23 -16.5l130 27q-19 9 -26.5 20.5t-13.5 28.5
q-11 27 -16 62t-12 68q-10 49 -21 91.5t-24.5 80.5t-30.5 73t-41 70q-9 14 -29.5 32.5t-34.5 44.5q-14 25 -14 58l-114 -28q0 -26 8 -47.5t19 -37.5q-47 -50 -77 -107t-48 -116t-25 -118.5t-7 -114.5z" />
    <glyph glyph-name="uni1209" unicode="&#x1209;" horiz-adv-x="641" 
d="M634 283q-17 24 -24 39t-7 32q0 10 5 32q2 6 2.5 8.5t0.5 4.5q0 10 -11 18l-175 -41q-14 39 -31.5 75.5t-41.5 72.5q-10 14 -30 32.5t-35 44.5q-13 25 -13 58l-115 -28q0 -26 8.5 -47.5t19.5 -38.5q-47 -50 -77.5 -106.5t-48 -115.5t-24.5 -118.5t-7 -114.5q0 -14 3 -32
t8 -29q5 -10 11 -18t12 -11l138 26q-22 8 -35 25t-13 46q0 128 28.5 218t71.5 143q15 -22 25 -43.5t17.5 -45.5t14 -52l14.5 -61l13 -59l13 -59.5l10.5 -50.5t6.5 -31q4 -20 16 -36.5t23 -16.5l130 27q-20 8 -27 19.5t-14 28.5q-10 28 -15 63t-12 68q-9 42 -18 79t-20 71
l42 12q6 -62 28 -86t60 -24q16 0 32.5 5t40.5 17z" />
    <glyph glyph-name="uni120A" unicode="&#x120a;" horiz-adv-x="688" 
d="M685 -9q-17 17 -28 38.5t-13 46.5q0 14 2.5 27.5t9.5 27.5q-9 3 -19.5 4t-23.5 1q-17 0 -33.5 -5.5t-30.5 -16t-23 -26.5t-9 -39l-17 -4q-11 1 -18 14.5t-10 24.5q-8 28 -12 60t-11 65l-18.5 91.5t-20 80.5t-26.5 73t-39 70q-9 14 -29.5 32.5t-34.5 44.5q-14 24 -14 58
l-114 -28q0 -26 8 -47.5t19 -38.5q-47 -50 -77 -106.5t-48 -115.5t-25 -118.5t-7 -114.5q0 -14 3 -32t9 -29q5 -10 10.5 -18t11.5 -11l138 26q-22 8 -34.5 25t-12.5 46q0 128 28 218t71 143q15 -22 24 -43.5t15.5 -45t12 -51t13.5 -60.5q6 -28 12 -60t10.5 -61.5l8 -52
t5.5 -31.5q7 -29 20.5 -41t24.5 -12l127 30q9 -32 28.5 -46t50.5 -14q20 0 41.5 6.5t44.5 14.5z" />
    <glyph glyph-name="uni120B" unicode="&#x120b;" horiz-adv-x="518" 
d="M17 175q0 -14 3 -34.5t8 -31.5q10 -22 23 -29l137 26q-22 8 -34.5 28t-12.5 49q0 57 5 97t15.5 70t26.5 54.5t38 50.5q15 -22 26 -43t20 -44.5t16.5 -51t15.5 -60.5q6 -28 11.5 -59.5t10 -60.5l8 -51.5t5.5 -31.5q4 -20 16 -36.5t23 -16.5l131 27q-20 9 -27.5 20.5
t-13.5 28.5q-10 27 -15 62t-12 68l-21.5 91.5t-24 80.5t-30.5 73t-41 70q-10 14 -30 32.5t-35 44.5q-13 26 -13 58l-115 -28q0 -26 8.5 -47.5t19.5 -37.5q-47 -51 -75 -94t-43 -85.5t-19.5 -88t-4.5 -100.5z" />
    <glyph glyph-name="uni120C" unicode="&#x120c;" horiz-adv-x="648" 
d="M641 116q-2 48 -20 74t-63 27l-106 -13q-11 48 -20 91t-20.5 82t-27 75t-39.5 72q-9 14 -29.5 32.5t-34.5 44.5q-14 24 -14 58l-114 -28q0 -26 8 -47.5t19 -38.5q-47 -50 -77 -106.5t-48 -115.5t-25 -118.5t-7 -114.5q0 -14 3 -32t9 -29q5 -10 10.5 -18t11.5 -11l138 26
q-22 8 -34.5 25t-12.5 46q0 128 28 218t71 143q15 -22 24 -43.5t15.5 -45t12 -51t13.5 -60.5q11 -51 21 -103t22 -107q5 -20 15 -32.5t21 -12.5l86 18q12 0 30 -4t31 -4q44 0 73 29q30 30 30 74zM550 104q0 -32 -7.5 -50.5t-24.5 -18.5q-11 0 -20.5 2.5t-11.5 11.5
q-7 23 -14 57t-15 80l34 5q23 0 41 -21.5t18 -65.5z" />
    <glyph glyph-name="uni120D" unicode="&#x120d;" horiz-adv-x="575" 
d="M17 55q0 -25 11 -41.5t27 -16.5q11 0 18 2t18 10q19 13 32 18t25.5 6.5t27 2t36.5 4.5q29 5 46.5 10t32.5 16q16 11 25 33t9 54q0 18 -4.5 34.5t-11.5 29.5t-16 20.5t-18 7.5q-1 0 -4 -1l-13.5 -4.5t-32.5 -12l-61 -23.5q7 34 18.5 70.5t26 70.5t31.5 63t36 47
q15 -22 26 -43t20 -44.5t16.5 -51t15.5 -60.5q6 -28 11.5 -59.5t10 -60.5l8 -51.5t5.5 -31.5q4 -20 16 -36.5t23 -16.5l131 27q-20 9 -27.5 20.5t-13.5 28.5q-10 27 -15 62t-12 68l-21.5 91.5t-24 80.5t-30.5 73t-41 70q-10 14 -30 32.5t-35 44.5q-7 14 -10.5 27.5
t-3.5 30.5l-114 -28q0 -26 8 -47.5t19 -37.5q-57 -61 -97.5 -131t-59.5 -145q-14 -54 -24 -107.5t-10 -104.5zM217 134q0 -35 -10 -57.5t-36 -22.5q-17 0 -23.5 12.5t-6.5 29.5q0 5 0.5 10.5t1.5 10.5q4 26 10 46t9 21q23 7 27 8.5t5 1.5q6 0 10 -6.5t7 -15.5t4.5 -19.5
t1.5 -18.5z" />
    <glyph glyph-name="uni120E" unicode="&#x120e;" horiz-adv-x="679" 
d="M675 376q0 42 -17 68t-43 26q-7 0 -11 -1q-20 -5 -44.5 -13.5l-51 -18l-54.5 -19t-53 -16.5q-13 32 -28.5 62t-35.5 60q-9 14 -29.5 32.5t-35.5 44.5q-13 25 -13 58l-115 -28q0 -26 8.5 -47.5t19.5 -38.5q-47 -50 -77.5 -106.5t-48 -115.5t-24.5 -118.5t-7 -114.5
q0 -14 3 -32t9 -29q4 -10 10 -18t12 -11l138 26q-22 8 -35 25t-13 46q0 128 28.5 218t71.5 143q15 -22 26 -43.5t20 -45t16.5 -51t15.5 -60.5q6 -28 12 -59.5t10.5 -60l8 -51t5.5 -31.5q4 -20 16 -36.5t23 -16.5l130 27q-20 8 -27 19.5t-14 28.5q-10 28 -15 63t-12 68
q-11 50 -21.5 93t-24.5 82l42 15q0 -81 9 -117.5t41 -36.5q11 0 24 5l42 16q40 4 62.5 10t32.5 17.5t12 31t2 51.5zM530 353q-1 8 -1.5 14.5t-0.5 13.5q0 21 4.5 36t21.5 19h8q19 0 27 -21.5t12 -50.5q1 -7 1.5 -13.5t0.5 -13.5q0 -23 -4 -38.5t-24 -18.5q-12 -2 -19.5 3
t-12 15t-7.5 24t-6 31z" />
    <glyph glyph-name="uni120F" unicode="&#x120f;" horiz-adv-x="663" 
d="M505 13h1q6 -28 11.5 -49.5t15.5 -36.5t27 -23t45 -8q12 0 26.5 4t30.5 13q-15 19 -21 32.5t-6 27.5q0 6 3 19t3 20q0 14 -16 23q1 0 -8.5 -1t-27.5 -1.5t-42.5 -1.5t-52.5 -1q-11 0 -17 13.5t-11 27.5q-11 28 -16 62.5t-12 68.5q-10 49 -21 91.5t-24.5 80.5t-30.5 73
t-41 70q-9 14 -29.5 32.5t-35.5 44.5q-13 25 -13 58l-114 -28q0 -26 8 -47.5t19 -38.5q-47 -51 -75 -94t-43 -85t-19.5 -87.5t-4.5 -100.5q0 -14 3 -34.5t9 -32.5q5 -9 10.5 -17t11.5 -11l138 26q-22 8 -34.5 27.5t-12.5 48.5q0 57 5 97t15.5 70.5t26.5 55t37 50.5
q15 -22 26 -43.5t20 -45t16.5 -51t15.5 -60.5q16 -71 25 -129.5t23 -96.5q-45 -2 -84 -2.5t-65 -0.5q-9 -8 -9 -15q0 -8 4.5 -20t4.5 -20q0 -14 -6 -32.5t-22 -40.5q17 -13 36 -13q33 0 55 11t35.5 29t19 40.5t5.5 46.5z" />
    <glyph glyph-name="uni1210" unicode="&#x1210;" horiz-adv-x="701" 
d="M680 29l-133 -29q-13 7 -20 31.5t-8 53.5l7 171q-1 53 -14.5 79t-54.5 26q-14 0 -30 -3l-14 -273q0 -17 7 -33t21 -23l-140 -31q-11 9 -17 34.5t-6 52.5l13 262q-37 -4 -60.5 -21.5t-37.5 -49.5t-19.5 -79.5t-5.5 -110.5q0 -20 7.5 -35.5t18.5 -23.5l-131 -27
q-14 8 -23.5 33t-9.5 52q0 73 14.5 121.5t46 80t81.5 49t121 28.5l7 177q0 19 -6.5 32t-22.5 26l143 27q11 -6 17 -18.5t6 -39.5l-10 -192q40 5 67 6.5t45 1.5q37 0 60 -9t36.5 -28t18.5 -48.5t6 -70.5l-5 -142q1 -21 5.5 -31t19.5 -26z" />
    <glyph glyph-name="uni1211" unicode="&#x1211;" horiz-adv-x="876" 
d="M870 148q-17 25 -24 40t-7 32q0 6 1.5 13.5t3.5 18.5q2 6 2.5 8.5t0.5 4.5q0 6 -3 10t-8 8l-178 -39q1 74 -25.5 107t-96.5 33q-17 0 -44.5 -1.5t-66.5 -6.5l10 192q2 27 -5 39.5t-18 18.5l-143 -27q16 -13 22.5 -26t6.5 -32l-8 -177q-71 -11 -121 -28.5t-81.5 -49
t-46 -80t-14.5 -121.5q0 -27 10 -52t24 -33l131 27q-11 8 -19 23.5t-8 35.5q0 63 5.5 110.5t19.5 79.5t38 49.5t61 21.5l-13 -262q-2 -27 5 -52.5t18 -34.5l139 31q-13 7 -21 23t-6 33l14 273q16 3 30 3q41 0 55 -26t14 -79l-8 -171q-1 -29 7 -53.5t21 -31.5l133 29
q-15 16 -20 26t-5 31l5 140l52 11q5 -62 27.5 -86t60.5 -24q16 0 32 5t41 16z" />
    <glyph glyph-name="uni1212" unicode="&#x1212;" horiz-adv-x="878" 
d="M875 -2q-17 20 -27.5 50t-10.5 56q0 10 2 17t4 12q-9 6 -32 6q-44 -2 -74.5 -21.5t-30.5 -65.5l-26 -7q-9 -2 -15 10t-6 31l5 142q1 41 -3.5 70.5t-18.5 48.5t-38 28t-61 9q-17 0 -44.5 -1.5t-66.5 -6.5l10 192q1 27 -6 39.5t-18 18.5l-142 -27q15 -13 22 -26t7 -32
l-8 -177q-71 -11 -121 -28.5t-81.5 -49t-46 -80t-14.5 -121.5q0 -27 9.5 -52t23.5 -33l131 27q-11 8 -18.5 23.5t-7.5 35.5q0 63 5.5 110.5t19.5 79.5t38 49.5t60 21.5l-13 -262q-1 -27 5.5 -52.5t17.5 -34.5l140 31q-14 7 -21.5 23t-6.5 33l15 273q15 3 29 3q41 0 55 -26
t14 -79l-7 -171q-2 -27 8.5 -52t27.5 -33l149 35q8 -30 24.5 -42t47.5 -12q17 0 41 4t54 13z" />
    <glyph glyph-name="uni1213" unicode="&#x1213;" horiz-adv-x="697" 
d="M670 29l-133 -29q-13 7 -21.5 31.5t-6.5 53.5l7 171q0 53 -14 79t-55 26q-14 0 -30 -3l-14 -191q-1 -17 6.5 -33t21.5 -23l-140 -31q-11 9 -18 34t-5 53l13 180q-37 -4 -60.5 -19t-37.5 -39t-19.5 -57t-5.5 -73q0 -20 7.5 -35.5t18.5 -23.5l-136 -27q-14 8 -21 33t-7 52
q0 38 14.5 70.5t46 59t81.5 46t121 30.5l7 177q0 19 -6.5 32t-22.5 26l143 27q11 -6 18 -18.5t5 -39.5l-10 -192q40 5 67 6.5t45 1.5q37 0 61 -9t38 -28t18.5 -48.5t3.5 -70.5l-5 -142q-1 -21 4.5 -31t20.5 -26z" />
    <glyph glyph-name="uni1214" unicode="&#x1214;" horiz-adv-x="829" 
d="M823 137q0 31 -25.5 50.5t-61.5 16.5l-76 -6l1 30q1 41 -4 70.5t-19 48.5t-38 28t-61 9q-17 0 -44 -1.5t-67 -6.5l10 192q2 27 -5 39.5t-18 18.5l-143 -27q16 -13 22.5 -26t6.5 -32l-7 -177q-71 -11 -121 -28.5t-81.5 -49t-46 -80t-14.5 -121.5q0 -27 9.5 -52t23.5 -33
l131 27q-11 8 -19 23.5t-8 35.5q0 63 5.5 110.5t19.5 79.5t38 49.5t61 21.5l-13 -262q-2 -27 5 -52.5t18 -34.5l140 31q-14 7 -21.5 23t-6.5 33l14 273q16 3 30 3q41 0 55 -26t14 -79l-7 -171q-2 -27 9 -52t27 -33l105 7q12 0 30.5 -4.5t44.5 -2.5q18 1 34 5.5t27.5 19
t18.5 41t7 71.5zM726 103q1 -26 -2 -42.5t-9 -25.5t-13.5 -12.5t-14.5 -3.5q-19 0 -27 15t-7 37l6 110l32 3q20 -2 26.5 -19t8.5 -62z" />
    <glyph glyph-name="uni1215" unicode="&#x1215;" horiz-adv-x="706" 
d="M682 29q-15 16 -20 26t-5 31l5 142q1 41 -3.5 70.5t-18.5 48.5t-38 28t-61 9q-17 0 -44.5 -1.5t-66.5 -6.5l9 144q2 37 -8.5 49.5t-24.5 10.5l-139 -22q-3 21 -8 39.5t-14 33t-23 23.5t-34 10q-15 2 -31.5 -1.5t-41.5 -12.5q14 -26 19.5 -38.5t4.5 -29.5q-1 -8 -5 -21.5
t-7 -22.5q0 -7 2.5 -11t6.5 -9l145 24q10 2 16.5 -4.5t5.5 -17.5l-8 -156q-71 -11 -121 -28.5t-81.5 -49t-46 -80t-14.5 -121.5q0 -27 10 -52t24 -33l131 27q-11 8 -19 23.5t-8 35.5q0 63 5.5 110.5t19.5 79.5t38 49.5t61 21.5l-13 -262q-2 -27 5 -52.5t18 -34.5l139 31
q-13 7 -21 23t-6 33l14 273q16 3 30 3q41 0 55 -26t14 -79l-8 -171q-1 -29 7 -53.5t21 -31.5z" />
    <glyph glyph-name="uni1216" unicode="&#x1216;" horiz-adv-x="706" 
d="M684 125l-133 -29q-6 3 -11.5 13.5t-9.5 24t-6 29t-1 30.5l7 73q6 54 -11 74.5t-58 20.5q-14 0 -30 -3l-7 -168q-1 -9 1 -19t5.5 -19t9 -16.5t12.5 -10.5l-142 -31q-11 9 -18 34.5t-6 53.5l9 165q-36 -4 -60 -21.5t-38 -49.5t-19.5 -79.5t-5.5 -110.5q0 -20 7.5 -35.5
t18.5 -23.5l-131 -27q-14 8 -23.5 33t-9.5 52q0 73 14.5 121.5t46 80t81.5 49t121 28.5l8 177q0 19 -7 32t-22 26l142 27q11 -6 18 -18.5t6 -39.5l-11 -192q39 5 67 6.5t45 1.5q73 0 100 -36.5t20 -100.5l-4 -54q-1 -21 4.5 -36t20.5 -32z" />
    <glyph glyph-name="uni1217" unicode="&#x1217;" horiz-adv-x="831" 
d="M667 28h1q6 -28 11.5 -49.5t15.5 -36.5t26.5 -23t45.5 -8q12 0 26.5 4t30.5 13q-15 19 -20 34t-4 29q-1 4 -1 9v11t1 9t1 6q-1 7 -3.5 13t-10.5 11l-133 -4q-5 8 -7.5 17t-1.5 23l5 142q1 41 -3.5 70.5t-18.5 48.5t-38 28t-61 9q-18 0 -45 -1.5t-67 -6.5l10 192
q2 27 -5 39.5t-18 18.5l-143 -27q16 -13 22.5 -26t6.5 -32l-7 -177q-71 -11 -121 -30.5t-81.5 -46t-46 -59t-14.5 -70.5q0 -27 7 -52t21 -33l136 27q-11 8 -18.5 23.5t-7.5 35.5q0 40 5.5 73t19.5 57t37.5 39t60.5 19l-13 -180q-2 -28 5 -53t18 -34l140 31q-14 7 -21.5 23
t-6.5 33l14 191q16 3 30 3q41 0 55 -26t14 -79l-7 -171q-2 -23 3 -43l-150 -4q-9 -9 -9 -16q0 -4 4 -12q2 -8 4.5 -14.5t0.5 -13.5q0 -15 -6 -32.5t-22 -40.5q9 -7 18 -8t18 0q33 1 55 11.5t35.5 27t19 38t5.5 45.5z" />
    <glyph glyph-name="uni1218" unicode="&#x1218;" horiz-adv-x="850" 
d="M810 469q0 -45 -4 -83t-15 -67t-30.5 -49t-50.5 -27h-14t-15 1q-17 0 -28 -0.5t-20 -1.5t-17.5 -3t-20.5 -4q-28 -5 -49.5 -8t-52.5 -3q-14 0 -20.5 12.5t-6.5 35.5q0 8 1 18t3 25l22 154q5 29 2.5 48t-12.5 19q-15 0 -23.5 -19.5t-18.5 -45.5q-3 -8 -9.5 -31.5
t-16 -54.5l-20 -65l-20 -62t-18 -46.5t-13.5 -18.5q-20 0 -36.5 -2t-32 -5.5t-31.5 -8.5t-35 -12q-46 -17 -66 -17q-24 0 -42.5 9t-31.5 25t-20 36.5t-7 43.5q0 25 7 49.5t15 47.5q32 89 105.5 137.5t191.5 50.5l299 23q2 0 4 0.5t5 0.5q17 4 38 4q31 0 49 -12
q23 -11 37.5 -34.5t17.5 -59.5zM327 505q0 10 -7.5 15t-18.5 5q-23 0 -51.5 -34t-48.5 -91q-5 -14 -9.5 -31.5t-8.5 -36.5t-6 -37t-2 -33q0 -32 6.5 -54t26.5 -22q8 0 17.5 8.5t11.5 19.5zM696 457q0 46 -13.5 69.5t-33.5 23.5q-11 0 -19 -9t-9 -17l-25 -209q-2 -20 3.5 -38
t27.5 -18q17 0 30 18t21.5 46.5t13 63.5t4.5 70z" />
    <glyph glyph-name="uni1219" unicode="&#x1219;" horiz-adv-x="1037" 
d="M1031 340q-17 11 -28 38.5t-10 56.5q0 10 2 19.5t4 17.5q-9 7 -35 6q-21 0 -40 -5.5t-33.5 -16.5t-23.5 -28t-10 -42l-48 -13l1 35q-3 35 -17.5 59t-37.5 35q-18 12 -49 12q-21 0 -38 -4q-8 -2 -9 -2l-299 -22q-118 -2 -191.5 -50.5t-105.5 -137.5q-8 -23 -15 -47.5
t-7 -49.5q0 -23 7 -44t20 -36.5t31.5 -24.5t42.5 -9q11 0 27 4t39 12q19 7 35 12t31.5 8.5t32 5.5t36.5 2q5 0 13.5 18.5t18 47l20 62.5l20 64.5t16 54t9.5 31.5q10 27 18.5 46.5t23.5 19.5q10 0 12.5 -19.5t-2.5 -47.5l-22 -154q-2 -15 -3 -25t-1 -18q0 -23 6.5 -35.5
t20.5 -12.5q31 0 52.5 2.5t49.5 8.5q12 2 20.5 4t17.5 3t20 1.5t28 0.5q5 -1 15 -1h14q52 12 73 58t25 115l56 13q10 -52 61 -52q20 -1 44 5t62 19zM327 444l-90 -291q-2 -11 -11.5 -19.5t-17.5 -8.5q-20 0 -26.5 21.5t-6.5 54.5q0 15 2 33t6 36.5t8.5 36t9.5 31.5
q20 58 48.5 91.5t51.5 33.5q11 0 18.5 -4.5t7.5 -14.5zM696 396q0 -35 -4.5 -70t-13 -63.5t-21.5 -46.5t-30 -18q-22 0 -27.5 18t-3.5 38l25 209q1 8 9 17t19 9q20 0 33.5 -23.5t13.5 -69.5z" />
    <glyph glyph-name="uni121A" unicode="&#x121a;" horiz-adv-x="893" 
d="M889 -32q-17 19 -27 43t-10 48q0 31 15 58q-17 6 -41 6q-18 0 -36 -4.5t-33.5 -14t-26 -24.5t-11.5 -36h-45q-10 0 -17 13t-7 30l75 340q7 29 10 53.5t3 43.5q0 51 -26.5 78.5t-89.5 27.5q-33 0 -79 -9q-17 1 -23 1h-8q-23 0 -56.5 -3t-80.5 -8t-81 -8t-57 -3
q-55 0 -93.5 -17t-62.5 -43t-34.5 -56.5t-10.5 -58.5q0 -23 6.5 -43.5t19.5 -36t31 -24.5t42 -9q22 0 68 17q36 13 62 18t61 8q7 1 13.5 16.5t9.5 29.5l27 139q6 23 14.5 40.5t26.5 17.5q17 0 18 -17.5t-4 -40.5l-18 -107l-4 -23q0 -20 6 -33t20 -13h15q10 0 24 2
q17 1 27.5 1.5t18.5 0.5q23 0 40.5 -4.5t17.5 -18.5l-56 -235q-13 -46 -2 -78.5t39 -32.5l61 14t42 8q10 1 16.5 1.5t12 1t11.5 0.5h14q3 -38 24.5 -59.5t57.5 -21.5q20 0 43 9t48 16zM268 539l-31 -164q-3 -10 -13 -17t-22 -9q-22 0 -37 17.5t-15 44.5q0 14 2.5 31t6.5 37
q16 48 38.5 75t42.5 27q12 0 21.5 -12.5t6.5 -29.5zM624 544q0 -20 -6 -47l-10 -44q-7 -29 -18 -49.5t-31 -20.5q-23 0 -29.5 15t-3.5 35l28 148q2 12 11 20t20 8q17 0 28 -19t11 -46z" />
    <glyph glyph-name="uni121B" unicode="&#x121b;" horiz-adv-x="776" 
d="M587 409l20 131q4 26 -6 47.5t-26 21.5q-11 0 -23 -10.5t-14 -25.5l-22 -140q-2 -19 6 -34t22 -17q15 -3 27.5 5.5t15.5 22.5v-1zM691 24l-122 -24q-18 7 -27.5 33t-4.5 57l39 249q0 8 -3 14t-4 7q-9 6 -26.5 7t-32.5 1q-4 0 -16 -0.5t-25.5 -1.5t-26 -1.5t-17.5 -0.5
q-14 0 -21.5 13t-4.5 33l22 130q4 23 0 40.5t-20 17.5q-19 0 -28 -17t-14 -41l-24 -139q-3 -18 -9.5 -31.5t-12.5 -14.5l-32 -3.5t-27.5 -4.5t-28 -7.5l-32.5 -10.5q-46 -17 -68 -17q-24 0 -42 9t-31 24.5t-19.5 36t-6.5 43.5q0 82 60 128t175 48q5 0 16 1t26 2.5t32.5 3
t35.5 3.5l33 3.5t28 3.5q17 2 38.5 4l44.5 4t46 3t43 1q74 0 106.5 -32t21.5 -102l-55 -361q-5 -34 -5 -65q0 -30 19 -46zM253 540q4 25 -3.5 33t-19.5 8q-20 0 -42.5 -27t-38.5 -75q-6 -19 -7.5 -36.5t-1.5 -31.5q0 -27 15.5 -44.5t36.5 -17.5q12 2 22.5 8t12.5 16z" />
    <glyph glyph-name="uni121C" unicode="&#x121c;" horiz-adv-x="823" 
d="M816 145q0 22 -7.5 36t-19.5 21.5t-27.5 9.5t-31.5 0l-56 -6l51 222q13 55 13 93q0 50 -26.5 76.5t-89.5 26.5q-33 0 -79 -9q-17 1 -23 1h-8q-23 0 -56.5 -2.5t-78.5 -7.5q-47 -6 -81.5 -8.5t-57.5 -2.5q-55 0 -93.5 -16.5t-62.5 -41t-34.5 -54t-10.5 -56.5q0 -45 26 -77
t74 -32q11 0 28 4t40 13q35 12 61.5 16.5t61.5 8.5q7 1 13.5 15t8.5 28l28 134q6 23 14 39t27 16q15 0 16 -16t-3 -39l-17 -103l-4 -22q0 -19 5 -32t19 -13q10 0 39 3q17 1 27 1h19q23 0 40.5 -4.5t17.5 -17.5l-58 -236q-13 -47 -4 -80t35 -33q15 3 25.5 4t19.5 2t19 1h27
l10 -1h25h30t23 2q25 1 42 8t26.5 23t13.5 41.5t4 64.5zM270 536l-32 -158q-2 -9 -12 -16t-23 -8q-21 0 -36 16.5t-15 42.5q0 29 9 65q16 47 38.5 73.5t42.5 26.5q11 0 21 -12.5t7 -29.5zM624 541q0 -18 -6 -44.5t-10 -42.5q-7 -29 -18 -48.5t-31 -19.5q-23 0 -29.5 14
t-3.5 34l28 144q2 10 11 18t20 8q17 0 28 -18.5t11 -44.5zM720 140q1 -15 0.5 -35t-5 -38.5t-14 -31.5t-25.5 -13q-18 0 -26.5 14.5t-7.5 26.5l28 128h5t9 -1q20 -3 28 -15t8 -35z" />
    <glyph glyph-name="uni121D" unicode="&#x121d;" horiz-adv-x="776" 
d="M749 481q0 -62 -22 -96.5t-68 -34.5q-8 1 -14.5 1.5t-13.5 0.5q-17 0 -29 -3t-27 -9q-14 -5 -25.5 -8.5t-28.5 -3.5q-20 0 -36 3t-27 11t-17 23.5t-6 40.5l8 141q0 22 -4 37t-16 15q-16 0 -25 -19t-14 -46l-22 -183q-6 -28 -18 -52.5t-26 -40.5l-109 -137
q-7 -14 -12.5 -23t-5.5 -22q0 -12 4 -27.5t17 -23.5l-126 -25q-11 9 -16.5 25t-5.5 45q0 12 9.5 35.5t27 53t43.5 62t59 62.5q-17 -6 -36.5 -8.5t-35.5 -2.5q-45 0 -69 24.5t-24 58.5q0 25 9.5 66t32.5 80.5t62 68.5t98 31h7t9 -1q19 0 35 0.5t31 2t30.5 3.5t34.5 5l43 5.5
t36.5 3.5t35.5 0.5t39 -1.5q26 5 51.5 8.5t59.5 3.5q22 0 40 -6.5t31 -23t19.5 -45.5t6.5 -75zM269 539q4 18 -1.5 31t-16.5 13q-10 0 -20.5 -12.5t-21.5 -33.5t-21 -49.5t-18 -60.5q-5 -18 -6.5 -33t-1.5 -26q0 -27 7 -46.5t29 -19.5q14 0 26 11t14 26zM635 483
q0 39 -3.5 64t-9.5 38.5t-14 18.5t-17 5q-14 0 -25 -22t-13 -54l-5 -107q-1 -26 10 -43.5t28 -17.5q10 0 19 4.5t15.5 17.5t10.5 36t4 60z" />
    <glyph glyph-name="uni121E" unicode="&#x121e;" horiz-adv-x="788" 
d="M754 481q0 -69 -28 -98t-79 -29q-18 1 -30 -0.5t-34 -10.5q-17 -5 -31 -8t-32 -3q-21 0 -35 2.5t-22.5 11.5t-12.5 26.5t-4 46.5l6 124q0 32 -8.5 42.5t-26.5 10.5q-14 0 -26 -13.5t-14 -35.5l-39 -441q-2 -8 -1.5 -19.5t3.5 -23.5t8.5 -22t14.5 -16l-126 -26
q-16 11 -23.5 29.5t-5.5 38.5l23 232q-21 -7 -44 -10t-40 -3q-27 0 -48.5 8.5t-36.5 22.5t-23 31t-8 34q0 33 10.5 70t34.5 69t64.5 54.5t100.5 27.5q13 -1 18 -1h8q32 0 59 3.5l65 8.5q30 5 51.5 8t45.5 3h17t22 -1l22 -2t17 -2q15 2 25.5 4t20 3.5t19.5 2.5t24 1
q55 0 77 -32q22 -30 22 -118zM258 537q2 19 -4 31.5t-17 12.5q-13 0 -25.5 -11t-22.5 -29.5t-16.5 -44t-8.5 -54.5q-2 -9 -3 -28t-1 -37q0 -29 15 -48t35 -19q10 3 16 7.5t8 15.5zM642 490q0 35 -3.5 57.5t-9.5 35t-15 17t-19 4.5q-12 -2 -21.5 -17t-11.5 -34l-6 -126
q0 -15 4.5 -26t11 -17.5t14 -9t12.5 -2.5q18 0 31 28.5t13 89.5z" />
    <glyph glyph-name="uni121F" unicode="&#x121f;" horiz-adv-x="857" 
d="M694 22h1q6 -27 11.5 -49t15 -37t26.5 -23t45 -8q25 0 58 18q-15 19 -20 34t-4 29q-1 4 -1 9v10t1 9.5t1 6.5q-1 7 -4 13t-11 11q-44 -3 -74 -4.5t-63 -3.5l59 459q11 70 -21 102t-106 32q-41 0 -89.5 -4t-82.5 -8q-15 -2 -29 -3.5l-33 -3.5q-18 -2 -35.5 -3.5t-32.5 -3
t-26 -2.5t-15 -1q-116 -2 -176 -48t-60 -128q0 -23 7 -43.5t19.5 -36t31 -24.5t42.5 -9q20 0 68 17q35 13 59.5 18t59.5 8q7 1 13 14.5t10 31.5l24 139q5 24 13.5 41t27.5 17q17 0 20.5 -17.5t-0.5 -40.5l-21 -130q-4 -20 3.5 -33t21.5 -13q5 0 17.5 0.5t26 1.5t25.5 1.5
t16 0.5q15 0 32.5 -1t26.5 -7q2 -1 4.5 -7t2.5 -14l-35 -304q-31 -1 -66 -2t-83 -1q-9 -8 -9 -15q0 -4 4 -13q2 -8 4.5 -14t0.5 -13q0 -15 -6 -33t-22 -40q9 -7 18 -8t18 0q33 1 55 11.5t35.5 27t19 38t5.5 45.5zM256 530l-25 -166q-2 -11 -12.5 -17t-23.5 -8
q-21 0 -36 17.5t-15 44.5q0 14 1 31.5t8 36.5q15 48 37.5 75t42.5 27q12 0 19.5 -8t3.5 -33zM590 410v1q-3 -15 -15.5 -22.5t-26.5 -5.5q-14 3 -22.5 17.5t-5.5 33.5l21 140q2 15 14.5 25.5t23.5 10.5q16 0 25.5 -21.5t5.5 -47.5z" />
    <glyph glyph-name="uni1220" unicode="&#x1220;" horiz-adv-x="741" 
d="M696 413q0 -60 -19.5 -100.5t-49.5 -64.5t-66.5 -34.5t-70.5 -10.5q-23 0 -40.5 4.5t-28.5 10.5q-14 -24 -39.5 -39.5t-52.5 -26.5q-17 -6 -47.5 -12.5t-64.5 -13l-65.5 -12.5t-48.5 -10q-32 -8 -50 16.5t-10 70.5l34 204q6 28 -1 41t-21 24l132 29q19 -2 29.5 -18
t5.5 -36l-34 -204q-6 -36 4 -62t26 -26q12 2 26 9t26.5 22t22 39t14.5 61l19 144q1 7 1.5 16.5t-2 19t-9.5 18t-21 13.5l130 29q20 -3 31.5 -24t8.5 -48l-21 -158q-4 -26 6 -45t29 -19q17 0 31.5 15t25 40.5t16.5 59.5t6 72q0 25 -1.5 41.5t-5 27.5t-9.5 17.5t-15 11.5
l127 27q9 -5 16.5 -11t13 -18.5t9 -33.5t3.5 -56z" />
    <glyph glyph-name="uni1221" unicode="&#x1221;" horiz-adv-x="872" 
d="M866 211q-18 25 -24.5 40t-6.5 32q0 6 1.5 13.5t3.5 18.5q2 6 2 8v5q0 10 -10 18l-161 -36q8 20 13 45t5 54q0 35 -3 56.5t-9 34t-13.5 18.5t-16.5 10l-127 -27q9 -5 15 -11.5t9.5 -17t5 -27.5t1.5 -42q0 -38 -5.5 -71.5t-16 -59t-25 -40.5t-32.5 -15q-19 0 -29 19t-6 45
l21 157q3 27 -8.5 48.5t-31.5 23.5l-129 -29q25 -11 29.5 -22.5t1.5 -38.5l-20 -150q-5 -36 -14.5 -60.5t-21.5 -39.5t-26 -22t-26 -9q-17 0 -27 26t-3 63l34 203q5 20 -5.5 36t-30.5 18l-132 -29q14 -10 21 -23.5t2 -41.5l-34 -204q-8 -45 9.5 -70.5t49.5 -15.5
q18 5 49 10.5l65 11.5t64.5 12.5t47.5 12.5q28 11 53.5 27t38.5 39q11 -6 28.5 -10t40.5 -4q24 0 49 4.5t48.5 15t44 28t35.5 42.5l45 10q5 -62 27.5 -86t60.5 -24q15 0 31.5 5t41.5 16z" />
    <glyph glyph-name="uni1222" unicode="&#x1222;" horiz-adv-x="808" 
d="M804 -1q-16 20 -26.5 50t-10.5 56q0 20 6 29q-8 5 -33 5q-44 -2 -74.5 -21t-30.5 -65l-33 -7q-13 -4 -19.5 10t-3.5 37l71 483q3 20 -7 33.5t-25 21.5l-141 -29q13 -11 21 -22t6 -30l-21 -142q-2 -20 -15 -31t-30 -7q-19 5 -31 22.5t-9 38.5l19 123q2 19 -6 31.5
t-23 17.5l-129 -26q14 -4 21.5 -19t5.5 -33l-20 -134q-8 -44 -19 -62.5t-40 -18.5q-17 0 -26.5 17.5t-7.5 35.5l23 152q5 32 -4 52t-25 16l-132 -27q17 -11 24 -21.5t7 -21.5l-28 -170q-5 -29 12.5 -45t43.5 -16q52 0 99 8t85 21.5t65 32t39 39.5q6 -11 17.5 -17.5t25 -11
t27 -7t22.5 -4.5l-37 -254q-5 -29 5.5 -54.5t28.5 -34.5l166 36q8 -31 24.5 -42.5t48.5 -11.5q17 0 40.5 4t53.5 13z" />
    <glyph glyph-name="uni1223" unicode="&#x1223;" horiz-adv-x="680" 
d="M598 29l-137 -29q-14 7 -25 27t-11 41q0 16 3 34l37 241q-9 2 -22.5 4.5t-27 7t-25 11t-17.5 17.5q-12 -21 -39 -39.5t-65 -32t-85 -21.5t-99 -8q-26 0 -43.5 16t-12.5 45l27 170q0 11 -6.5 21.5t-23.5 21.5l132 27q16 4 25 -16t4 -52l-23 -152q-2 -18 7.5 -35.5
t26.5 -17.5q29 0 40 18.5t18 62.5l20 134q3 18 -4.5 33t-21.5 19l129 26q14 -5 22.5 -17.5t6.5 -31.5l-19 -123q-3 -21 8.5 -38.5t31.5 -22.5q17 -4 30 7t15 31l21 142q2 19 -6 30t-21 22l140 29q16 -8 26 -21.5t7 -33.5l-71 -483q-2 -13 3.5 -31.5t24.5 -32.5z" />
    <glyph glyph-name="uni1224" unicode="&#x1224;" horiz-adv-x="739" 
d="M735 137q-2 31 -26.5 50.5t-59.5 16.5l-62 -6l52 378q3 20 -7 33.5t-25 21.5l-141 -29q13 -11 21 -22t6 -30l-21 -142q-2 -20 -15 -31t-30 -7q-19 5 -31 22.5t-8 38.5l18 123q2 19 -6 31.5t-22 17.5l-130 -26q14 -4 21.5 -19t5.5 -33l-20 -134q-7 -44 -18.5 -62.5
t-40.5 -18.5q-17 0 -26.5 17.5t-6.5 35.5l22 152q5 32 -3.5 52t-25.5 16l-132 -27q17 -11 24 -21.5t7 -21.5l-28 -170q-4 -29 13 -45t43 -16q52 0 99 8t85 21.5t65 32t39 39.5q6 -11 18 -17.5t25.5 -11t26.5 -7t22 -4.5l-37 -253q-6 -38 6 -65t34 -25l102 7q12 0 33.5 -4.5
t47.5 -2.5q18 1 35 5.5t29.5 19t19 41t2.5 71.5zM639 103q1 -26 -1.5 -42.5t-7.5 -25.5t-12 -12.5t-13 -3.5q-20 0 -30.5 13.5t-8.5 30.5l18 118l24 3q21 -2 25 -19t6 -62z" />
    <glyph glyph-name="uni1225" unicode="&#x1225;" horiz-adv-x="817" 
d="M791 532q0 28 -3 45.5t-9 28t-13.5 16t-16.5 8.5l-122 -24q9 -5 14.5 -10t7.5 -13.5t2.5 -22t0.5 -34.5q0 -32 -5.5 -60t-16 -49t-25 -33.5t-31.5 -12.5q-19 0 -29 15.5t-6 38.5l20 130q4 23 -7.5 41t-31.5 20l-124 -29q13 -5 19 -11.5t7.5 -13t0.5 -14t-1 -13.5
l-19 -120q-4 -21 -12.5 -38.5t-19.5 -29.5t-24.5 -17.5t-26.5 -2.5q-20 5 -30 24.5t-5 41.5l30 134q5 21 -2 38t-23 24l-130 -28q23 -27 21 -52t-13 -57l-142 -349q-5 -11 -8.5 -27.5t-3.5 -27.5q0 -23 11 -37.5t26 -10.5l125 27q-17 5 -23.5 21.5t1.5 35.5l103 243
q18 -10 35 -15t48 -5q60 0 84 7q28 8 53.5 21t38.5 33q11 -5 28 -8t40 -3q34 0 71 8.5t67 28.5t49.5 53.5t19.5 84.5z" />
    <glyph glyph-name="uni1226" unicode="&#x1226;" horiz-adv-x="726" 
d="M688 499q0 -32 -16.5 -60.5t-45.5 -49.5t-68 -33.5t-83 -12.5q-19 0 -40 2.5t-45 8.5l-116 -242q-14 -26 -10 -49.5t22 -31.5l-150 -31q-11 0 -20 7t-13.5 18.5t-3 27t10.5 33.5l122 239q-15 -5 -33 -9.5t-37 -7.5t-36.5 -5t-31.5 -2q-26 0 -43.5 14t-12.5 40l24 162
q0 15 -7 28t-24 25l137 24q17 3 26 -12.5t4 -40.5l-24 -157q-3 -18 8.5 -31t31.5 -13q10 0 25 13.5t23 32.5l52 120q10 20 6 43t-29 34l130 23q12 2 22 -4.5t16 -19.5t5.5 -32t-10.5 -42l-41 -102q-7 -16 2.5 -28t30.5 -12t40 12t33.5 32.5t23.5 48t10 58.5q1 35 -5.5 52.5
t-27.5 33.5l133 28q20 -13 27.5 -41.5t7.5 -90.5z" />
    <glyph glyph-name="uni1227" unicode="&#x1227;" horiz-adv-x="749" 
d="M588 14q6 -27 11.5 -49t15.5 -37t27 -23t45 -8q24 0 58 17q-15 20 -20 34.5t-5 28.5v20q0 5 0.5 9.5t0.5 6.5q-1 7 -3.5 13t-10.5 11l-115 -4q-15 14 -19.5 31t-2.5 29l71 483q3 20 -7 33.5t-26 21.5l-140 -29q13 -11 21 -22t6 -30l-21 -142q-2 -20 -15 -31t-30 -7
q-20 5 -31.5 22.5t-8.5 38.5l19 123q2 19 -6.5 31.5t-22.5 17.5l-129 -26q14 -4 21.5 -19t4.5 -33l-20 -134q-7 -44 -18 -62.5t-40 -18.5q-17 0 -26.5 17.5t-7.5 35.5l23 152q5 32 -4 52t-25 16l-132 -27q17 -11 23.5 -21.5t6.5 -21.5l-27 -170q-5 -29 12.5 -45t43.5 -16
q52 0 99 8t85 21.5t65 32t39 39.5q6 -11 17.5 -17.5t25 -11t27 -7t22.5 -4.5l-37 -241q-3 -18 -3 -34q0 -23 9 -39l-152 -5q-9 -9 -9 -15q0 -4 4 -13q2 -8 4.5 -14.5t0.5 -13.5q0 -14 -5.5 -32t-22.5 -40q9 -7 18 -8t18 -1q33 1 55 12t35.5 27.5t19 38t5.5 45.5z" />
    <glyph glyph-name="uni1228" unicode="&#x1228;" horiz-adv-x="520" 
d="M486 5q-35 -13 -60 -20t-45 -7q-24 0 -40 12.5t-21 39.5q-29 0 -53.5 -5t-54.5 -12q-51 -14 -71 -14q-39 0 -70 37q-30 36 -30 96q0 30 11.5 55.5t31.5 52.5l42 54t54 63l59.5 68t41.5 55q22 33 22 55q0 28 -4.5 40.5t-15.5 26.5l132 28q9 -8 15.5 -23.5t6.5 -30.5
q0 -76 -39 -133q-16 -26 -40.5 -54.5l-51.5 -57.5l-53 -56.5t-45 -49.5q-6 -7 -13 -17.5t-13 -22.5t-10 -24.5t-4 -23.5q0 -38 21 -65t64 -27q10 0 26.5 2.5t32.5 5.5q-5 29 6.5 48t30.5 30.5t42 16t41 4.5h6q4 0 9 -1h6q-6 -15 -6 -36q0 -29 11 -59.5t28 -50.5z" />
    <glyph glyph-name="uni1229" unicode="&#x1229;" horiz-adv-x="572" 
d="M565 141q-32 -17 -60 -17q-38 0 -67.5 23.5t-37.5 67.5l-56 -9l-15 -144q0 -17 2.5 -30t15.5 -22l-125 -26q-21 0 -21 38q0 7 2.5 30t6 50l6.5 51.5t5 33.5l-96 -7q-16 0 -31.5 2t-28 11t-20.5 26.5t-8 48.5q0 36 26 73q7 9 29.5 34.5l47 56t44 60t19.5 46.5
q0 21 -3.5 37t-11.5 24l133 29q10 -3 16.5 -18.5t6.5 -32.5t-6.5 -35t-18.5 -37t-28.5 -40.5l-34.5 -45.5l-21.5 -28t-28.5 -41t-25 -44t-11 -38q0 -34 21 -45t63 -5l278 42q10 -6 10 -16q0 -4 -3 -16q-3 -10 -4 -13t-1 -8q0 -15 7 -30.5t24 -35.5z" />
    <glyph glyph-name="uni122A" unicode="&#x122a;" horiz-adv-x="510" 
d="M464 172q0 -49 -32 -79.5t-77 -40.5l-217 -54q-40 0 -68 37q-32 38 -32 96q0 28 11 54t31 52q14 19 42 52.5l58.5 69.5l57.5 69t38 51q25 35 25 56t-4 37t-16 31l128 27q14 -8 16.5 -24t2.5 -31q0 -31 -10 -69.5t-29 -63.5l-40.5 -52.5l-47.5 -57.5l-49 -57.5l-45 -52.5
q-14 -17 -28.5 -41.5t-14.5 -47.5q0 -36 17.5 -62t52.5 -26q21 0 48 8q23 11 36.5 34.5t13.5 47.5q0 23 -8 44t-19 27l129 27q13 -7 21.5 -25t8.5 -36z" />
    <glyph glyph-name="uni122B" unicode="&#x122b;" horiz-adv-x="599" 
d="M593 138q-34 -17 -63 -17q-41 0 -69.5 31t-35.5 85l-33 -8q-11 -4 -18 -17.5t-10 -30.5q-3 -18 -4 -51t-2 -80l-167 -43q-17 -4 -42 -4q-37 0 -61 10.5t-35 28.5q-10 19 -14.5 40t-4.5 53q0 23 10.5 54.5t30.5 59.5l179 230q11 16 20.5 33t9.5 28q0 23 -5.5 33.5
t-19.5 26.5l139 28q10 -8 14.5 -18.5t4.5 -36.5q0 -40 -15.5 -74t-31.5 -54l-170 -220q-17 -22 -25 -51.5t-8 -56.5q0 -32 15.5 -57t44.5 -25q8 0 12 3t8 7q0 45 4.5 78.5t19.5 59.5q16 26 47.5 42t86.5 24l154 36q7 -6 7 -16q0 -3 -0.5 -7t-1.5 -11q-3 -10 -4 -17.5
t-1 -13.5q0 -16 7.5 -36.5t26.5 -45.5z" />
    <glyph glyph-name="uni122C" unicode="&#x122c;" horiz-adv-x="580" 
d="M537 145q3 -44 -23.5 -66.5t-87.5 -30.5q-27 -14 -58.5 -23t-46.5 -9q-20 0 -31 20l-132 -36q-33 1 -56 12t-37 28.5t-20 41t-6 50.5q0 28 11.5 53t29.5 51l185 242q9 14 15.5 29.5t6.5 25.5q0 29 -5 41t-16 25l132 28q14 -8 21 -25.5t7 -33.5q0 -24 -11.5 -58t-31.5 -60
l-182 -230q-17 -23 -27.5 -51.5t-10.5 -53.5q0 -30 13 -54t32 -25q16 1 39.5 7t37.5 12q-7 23 -11 43t-4 37q0 29 29.5 53t74.5 30q10 1 23.5 6.5t28 10.5l27.5 9.5t23 4.5q18 0 37.5 -26.5t23.5 -77.5zM444 135q-5 22 -9.5 37t-10.5 23.5t-14.5 9.5t-23.5 -3
q-24 -8 -25.5 -31t4.5 -52q11 -43 23.5 -53t29.5 -3q23 10 27 30t-1 42z" />
    <glyph glyph-name="uni122D" unicode="&#x122d;" horiz-adv-x="530" 
d="M508 11q-38 -15 -61.5 -22t-43.5 -7q-25 0 -44 12.5t-27 40.5l-140 -31q-7 0 -16.5 -0.5t-21.5 -0.5q-29 0 -50 6.5t-35 25t-21 52t-7 88.5v140q0 88 20.5 146t60.5 92.5t98 49.5t132 16l117 7q9 -5 9 -15q0 -2 -0.5 -5.5t-1.5 -8.5l-3.5 -19.5t-1.5 -15.5q0 -19 7 -37.5
t24 -43.5q-12 -4 -26 -6.5t-41 -3.5q-20 0 -39 5.5t-33 19.5t-22.5 38.5t-8.5 63.5q-48 -2 -78 -21.5t-47 -55t-23 -87.5t-6 -119v-120q0 -87 16.5 -126.5t66.5 -28.5l68 14q-3 22 4.5 42t23.5 35t39 23.5t50 8.5h29q-3 -9 -5 -18t-2 -20q0 -30 11.5 -62.5t28.5 -51.5z" />
    <glyph glyph-name="uni122E" unicode="&#x122e;" horiz-adv-x="603" 
d="M572 523q-1 33 -6 53.5t-13.5 31.5t-20 15.5t-23.5 5.5q-17 2 -37.5 -0.5t-46.5 -2.5h-116q-128 0 -197.5 -76t-69.5 -238v-140q0 -55 7 -88.5t20.5 -52t34.5 -25t50 -6.5q13 0 22 0.5t17 1.5l140 30q8 -28 27 -40.5t43 -12.5q20 0 44 7t62 22q-17 19 -28.5 52t-11.5 62
q0 21 7 38h-29q-27 0 -50 -8.5t-39 -23t-23.5 -34.5t-4.5 -43l-68 -14q-50 -11 -67 28.5t-17 127.5v119q0 84 4.5 139.5t15.5 88.5t30 46.5t48 13.5v-89q0 -41 6 -64.5t16.5 -36t25 -16t30.5 -3.5q26 0 39.5 0.5t31.5 0.5q24 0 45 1.5t38 7.5q13 5 24.5 11t20 19t14 34.5
t5.5 57.5zM466 526q0 -41 -4 -64t-10 -34t-13 -14t-14 -3q-8 0 -15.5 3t-13.5 14t-9.5 34t-3.5 63q0 29 3.5 45.5t9.5 25t13.5 10.5t15.5 2q7 0 14 -2t13 -10t10 -24.5t4 -45.5z" />
    <glyph glyph-name="uni122F" unicode="&#x122f;" horiz-adv-x="623" 
d="M447 556l-182 -10q-2 24 -9 45t-21.5 37t-37 25t-54.5 8q-10 0 -18.5 -1.5t-17.5 -9.5q17 -22 24.5 -39t7.5 -31q2 -7 0.5 -14t-2.5 -15q-4 -9 -4 -14q0 -3 2 -6t9 -7q48 3 84 4.5t67 3.5h8q-2 -21 -22 -51q-17 -26 -41.5 -55l-59.5 -68q-32 -36 -54 -63l-42 -54
t-31.5 -52.5t-11.5 -55.5q0 -60 30 -96q31 -37 70 -37q23 0 71 13q30 8 54.5 13t53.5 5q5 -27 21 -39.5t40 -12.5q20 0 45 7t60 20q-17 19 -28 50t-11 60q0 21 6 36h-6q-5 1 -9 1h-6q-18 0 -41 -5t-42 -16t-30.5 -30.5t-6.5 -47.5q-16 -4 -32.5 -6t-26.5 -2q-43 0 -64 27
t-21 65q0 10 4 23t10 25t13 22.5t13 17.5q19 22 45 49.5l53 56.5l51.5 57.5t40.5 54.5q29 42 36 94q25 1 43.5 1.5t34 1t29 1t27.5 0.5q8 5 10 11.5t2 14.5q0 2 -1 5.5t-1 8.5t-0.5 10.5t-0.5 9.5q-2 14 2.5 29.5t18.5 34.5q-18 9 -33 12t-26 1q-29 -2 -45 -11t-25 -24.5
t-13 -37.5t-8 -50h-1z" />
    <glyph glyph-name="uni1230" unicode="&#x1230;" horiz-adv-x="499" 
d="M475 25l-131 -25q-22 10 -27.5 29.5t-5.5 45.5l1 312q0 52 -12 83t-47 28q-19 -2 -33.5 -15t-24.5 -43.5t-15 -82.5t-5 -131l-1 -108q0 -35 4 -55t30 -36l-132 -27q-19 8 -28 26t-9 51v149q0 24 1.5 49t4 47.5t6 40t7.5 26.5q14 34 44.5 57t84.5 49q4 43 4 60v22
q0 17 -17 27l131 28q10 -4 16 -10t6 -29l-6 -86q32 -6 55.5 -13.5t39.5 -24t24.5 -46.5t9.5 -81l-4 -231q0 -34 6 -54.5t23 -31.5z" />
    <glyph glyph-name="uni1231" unicode="&#x1231;" horiz-adv-x="670" 
d="M664 283q-17 20 -27 50t-10 56q0 17 5 29q-8 5 -32 5q-44 -2 -74.5 -21t-30.5 -65l-43 -9v14q-1 51 -9 81t-24 46.5t-40 24t-55 13.5l6 86q0 23 -6.5 29t-16.5 10l-130 -28q16 -10 16 -27v-22t-4 -60q-53 -26 -84 -49t-44 -57q-4 -9 -7.5 -26.5t-6.5 -40t-4.5 -47.5
t-1.5 -49v-149q0 -33 9 -51t28 -26l132 27q-13 8 -19.5 16.5t-9.5 19t-3.5 24t-0.5 31.5l1 108q0 79 5 131t15 82.5t24.5 43.5t33.5 15q34 3 46.5 -28t12.5 -83l-1 -312q0 -26 5.5 -45.5t27.5 -29.5l130 25q-17 11 -23 31.5t-6 54.5l4 199l45 9q8 -30 24.5 -42t47.5 -12
q35 0 95 18z" />
    <glyph glyph-name="uni1232" unicode="&#x1232;" horiz-adv-x="672" 
d="M670 -9q-17 20 -27.5 50t-10.5 56q0 10 2 17t4 12q-8 5 -32 5q-44 -2 -75 -21t-31 -65l-35 -7q-7 0 -10.5 6t-5 16.5t-2 23.5t-0.5 27l5 231q-1 51 -9.5 81t-24.5 46.5t-39.5 24t-55.5 13.5l6 86q0 23 -6 29t-17 10l-130 -28q17 -10 17 -27q0 -5 -0.5 -22t-4.5 -60
q-53 -26 -84 -49t-44 -57q-4 -9 -7.5 -38.5t-6 -72t-4 -94.5t-1.5 -107q0 -33 8.5 -51t27.5 -26l132 27q-13 8 -19.5 16.5t-9.5 19t-3.5 24t-0.5 31.5l1 108q0 79 5 131t15 82.5t24.5 43.5t33.5 15q34 3 46.5 -28t12.5 -83l-1 -312q0 -26 5.5 -45.5t27.5 -29.5l157 28
q8 -31 24.5 -42.5t47.5 -11.5q17 0 41 4t54 13z" />
    <glyph glyph-name="uni1233" unicode="&#x1233;" horiz-adv-x="491" 
d="M467 25l-130 -25q-22 10 -27.5 29.5t-5.5 45.5l1 312q0 52 -12.5 83t-46.5 28q-38 -4 -58 -58t-20 -167q0 -14 0.5 -29t3.5 -28.5t9.5 -25t18.5 -20.5l-132 -27q-19 8 -27.5 25.5t-8.5 51.5q0 26 1.5 52t4 49t6 41t7.5 27q13 34 44 57t84 49q4 43 4 60v22q0 17 -16 27
l130 28q10 -4 16.5 -10t6.5 -29l-6 -86q31 -6 55 -13.5t40 -24t24 -46.5t9 -81l-4 -231q0 -34 6 -54.5t23 -31.5z" />
    <glyph glyph-name="uni1234" unicode="&#x1234;" horiz-adv-x="619" 
d="M613 139q0 22 -7.5 36t-19.5 21.5t-27.5 9.5t-31.5 0q-23 -2 -37 -2.5t-22 -1.5t-13 -1.5t-10 -0.5l2 142q-1 51 -8.5 81t-22.5 46.5t-38 24t-55 13.5l6 86q0 23 -6 29t-17 10l-130 -28q17 -10 17 -27q0 -5 -0.5 -22t-4.5 -60q-53 -26 -84 -49t-44 -57q-4 -9 -7.5 -26.5
t-6 -40t-4 -47.5t-1.5 -49v-149q0 -33 8.5 -51t27.5 -26l132 27q-13 8 -19.5 16.5t-9.5 19t-3.5 24t-0.5 31.5l1 108q0 79 5 131t15 82.5t24.5 43.5t33.5 15q34 3 46.5 -28t12.5 -83l-1 -312q0 -26 5.5 -45.5t27.5 -29.5l106 9q13 0 31 -4.5t44 -2.5q26 1 42.5 5.5
t26.5 18.5t13.5 41t3.5 72zM518 134q0 -36 -1 -58t-4.5 -34.5t-11 -16.5t-19.5 -4q-16 0 -28.5 11t-11.5 44l2 107q13 1 23 1h14q21 -3 29 -15t8 -35z" />
    <glyph glyph-name="uni1235" unicode="&#x1235;" 
d="M477 24l-130 -25q-22 11 -27.5 30t-5.5 45l1 312q0 52 -15.5 81t-50.5 21q-18 -4 -31 -15t-22 -35.5t-13.5 -64.5t-4.5 -103l-1 -153q0 -18 0.5 -31.5t3.5 -24t9.5 -19t19.5 -16.5l-132 -27q-19 8 -28 26t-9 51v149q0 24 1.5 49t4.5 47.5t6.5 40t7.5 26.5
q13 34 42.5 60.5t83.5 52.5l-29 71q-5 7 -12.5 13.5t-20.5 6.5l113 41q17 3 25.5 -9l17.5 -26l43 -92q31 -6 55 -13.5t40 -24t24 -46.5t9 -81l-4 -231q0 -34 6 -54t23 -32z" />
    <glyph glyph-name="uni1236" unicode="&#x1236;" horiz-adv-x="495" 
d="M477 204l-130 -25q-22 11 -27.5 30t-5.5 45l1 132q0 52 -12.5 83t-46.5 28q-19 -2 -33.5 -15t-24.5 -43.5t-15 -82.5t-5 -131l-1 -108q0 -18 0.5 -31.5t3.5 -24t9.5 -19t19.5 -16.5l-132 -27q-19 8 -28 26t-9 51v149q0 59 3 95q3 37 17 68q13 34 44 57t84 49q4 44 4 60
v22q0 17 -16 27l130 28q10 -4 16.5 -10t6.5 -29l-6 -86q31 -6 55 -13.5t40 -24t24 -46.5t9 -81l-4 -51q0 -34 6 -54t23 -32z" />
    <glyph glyph-name="uni1237" unicode="&#x1237;" horiz-adv-x="648" 
d="M486 7q6 -28 11.5 -49.5t15.5 -36.5t27 -23t45 -8q25 0 57 17q-15 19 -19.5 34t-4.5 29v20q0 5 0.5 9t0.5 6q-1 7 -3.5 13.5t-10.5 11.5l-27 -2t-27.5 -2t-32.5 -1.5t-41 -1.5q-17 12 -23 32t-6 54l4 231q-1 51 -9 81t-24 46.5t-40 24t-55 13.5l6 86q0 23 -6.5 29
t-16.5 10l-130 -28q16 -10 16 -27v-22q0 -16 -4 -60q-53 -26 -84 -49t-44 -57q-4 -9 -7.5 -27t-6 -41t-4 -49t-1.5 -52q0 -33 8.5 -51t27.5 -26l132 27q-24 18 -28 46t-4 57q0 113 20 167t58 58q34 3 46.5 -28t12.5 -83l-1 -312q0 -17 1.5 -30t7.5 -23q-29 -1 -64 -2t-79 -1
q-9 -8 -9 -15q0 -5 4 -13q2 -8 4.5 -14.5t0.5 -13.5q0 -15 -6 -32.5t-22 -40.5q9 -7 18 -8t18 0q33 1 55 12t35.5 27.5t19 38t5.5 45.5z" />
    <glyph glyph-name="uni1238" unicode="&#x1238;" horiz-adv-x="566" 
d="M452 391l-7 -268q0 -8 1.5 -20.5t5 -26t9.5 -26t16 -19.5l-132 -28q-22 10 -28.5 27t-6.5 50l6 304q0 60 -5.5 86.5t-31.5 25.5q-15 0 -27.5 -10.5t-21.5 -39t-14.5 -80.5t-5.5 -134v-109q0 -13 1 -27t4.5 -27.5t11.5 -24.5t22 -17l-133 -27q-25 10 -32.5 29t-7.5 51v152
q0 53 4.5 92.5t18.5 71t41.5 56.5t74.5 48l5 82l-38 -2q-2 -19 -14 -32.5t-29 -18.5q-20 -8 -52 -8t-60 2q19 13 25.5 34t8.5 44q2 18 -6 34t-22 27q36 4 63 6t45.5 -4t29 -21.5t12.5 -45.5l214 10q2 43 33 57t101 8q-15 -20 -15 -51q-3 -55 26 -92q-6 0 -15 -1t-19 -2
t-19.5 -1.5t-15.5 0.5q-32 2 -51 15.5t-24 48.5l-49 -2l-4 -75q26 -2 46 -7.5t33.5 -19t20.5 -36.5t7 -58z" />
    <glyph glyph-name="uni1239" unicode="&#x1239;" horiz-adv-x="652" 
d="M647 245q-17 20 -27.5 50t-10.5 56q0 10 2 17t4 12q-10 5 -32 5q-44 -2 -75 -21t-31 -65l-34 -7l3 99q0 35 -7 58t-20.5 36.5t-33.5 19t-46 7.5l4 75l49 2q5 -34 23.5 -48t50.5 -16q6 -1 15.5 -0.5t19.5 1.5t19 2t15 1q-14 18 -20.5 42t-4.5 50q0 33 15 51
q-70 7 -101.5 -7.5t-33.5 -57.5l-217 -10q-2 29 -12.5 45t-29.5 22t-46 4.5t-63 -6.5q14 -11 22 -27t6 -34q-2 -23 -8.5 -44t-25.5 -34q28 -2 60 -1.5t52 7.5q17 5 29 19t14 32l42 2l-5 -82q-46 -24 -73.5 -49t-41.5 -56t-18.5 -70.5t-4.5 -92.5v-152q0 -32 7 -51t33 -29
l128 30q-14 6 -21 18.5t-10 27.5t-3 31v28l-1 97q0 83 5.5 134.5t14.5 80t21.5 39t27.5 10.5q26 1 32 -25.5t6 -86.5l-6 -304q0 -33 6.5 -50.5t28.5 -26.5l132 28q-10 7 -16.5 19.5t-10 26t-5 26t-1.5 20.5l4 151l38 8q8 -31 24 -42.5t48 -11.5q17 0 41 4t54 13z" />
    <glyph glyph-name="uni123A" unicode="&#x123a;" horiz-adv-x="667" 
d="M663 -5q-16 20 -26.5 50.5t-10.5 56.5q0 19 6 28q-9 6 -33 6q-44 -2 -74.5 -21t-30.5 -66l-36 -6q-7 0 -11 9.5t-5.5 22.5t-2 26.5t-0.5 19.5l3 270q0 35 -7 58t-20.5 36.5t-33.5 19t-46 7.5l4 75l49 2q5 -34 24 -48t51 -16q13 -2 35 1t34 3q-14 18 -21 42t-5 50
q0 31 15 51q-70 7 -101 -7.5t-33 -57.5l-213 -10q-2 29 -12.5 45t-29 22t-45.5 4.5t-63 -6.5q13 -11 21 -27t6 -34q-1 -23 -8 -44t-26 -34q29 -2 60.5 -1.5t51.5 7.5q17 5 29.5 19t14.5 32l37 2l-5 -82q-46 -24 -73.5 -49t-42 -56t-19 -70.5t-4.5 -92.5v-152q0 -32 7.5 -51
t32.5 -29l133 27q-14 6 -22 17t-11.5 24.5t-4.5 28t-1 26.5v109q0 83 5.5 134.5t14.5 80t21.5 39t27.5 10.5q26 1 31.5 -25.5t5.5 -86.5l-1 -307q0 -33 6 -50t28 -27l157 32q8 -30 24.5 -42t48.5 -12t94 17z" />
    <glyph glyph-name="uni123B" unicode="&#x123b;" horiz-adv-x="563" 
d="M448 386l-6 -265q0 -8 1.5 -20.5t5 -26.5t9.5 -26.5t16 -19.5l-132 -28q-22 10 -28.5 27t-6.5 50l5 303q0 60 -5.5 86t-31.5 25q-15 0 -28 -5.5t-23.5 -21.5t-16.5 -46.5t-7 -81.5l-1 -89q0 -38 9 -56.5t23 -26.5l-131 -32q-14 5 -24.5 26t-9.5 44v84q0 34 6.5 63.5
t22.5 56t44 49t72 41.5l5 82l-43 -3q-2 -17 -14 -31t-29 -19q-20 -7 -51.5 -8t-60.5 1q19 13 26 34.5t8 44.5q2 18 -6 34t-21 27q36 4 63 5.5t45.5 -4.5t29 -22t12.5 -45l218 10q2 44 33 58.5t101 7.5q-7 -10 -11 -22.5t-4 -29.5q-2 -26 5 -49.5t21 -41.5q-12 0 -34 -3.5
t-35 -1.5q-32 3 -51 16.5t-24 47.5l-49 -2l-4 -74q26 -2 46 -8t33.5 -19.5t20.5 -36t7 -58.5z" />
    <glyph glyph-name="uni123C" unicode="&#x123c;" horiz-adv-x="618" 
d="M613 142q0 22 -7.5 36.5t-19.5 22t-27.5 9.5t-31.5 0q-23 -2 -37 -3t-22 -1.5t-13 -1.5t-10 -1v188q0 35 -6.5 58t-19 36.5t-32 19t-45.5 7.5l4 75l49 2q5 -34 24 -48t51 -16q6 -1 15.5 -0.5t19 1.5l19 2t15.5 1q-14 18 -21 42t-5 50q0 31 15 51q-70 7 -101 -7.5
t-34 -57.5l-217 -10q-2 29 -12.5 45t-29 22t-45.5 4.5t-63 -6.5q13 -11 21 -27t6 -34q-2 -23 -8.5 -44t-25.5 -34q28 -2 60 -1.5t52 7.5q17 5 29 19t14 32l43 2l-5 -82q-46 -24 -73.5 -49t-42 -56t-19 -70.5t-4.5 -92.5v-152q0 -32 7.5 -51t32.5 -29l133 27q-14 6 -22 17
t-12 24.5t-4.5 28t-0.5 26.5v109q0 83 5.5 134.5t14.5 80t21.5 39t27.5 10.5q26 1 31.5 -25.5t5.5 -86.5l1 -110h-1v-196q0 -26 5.5 -45t27.5 -29l106 9q13 0 31 -4.5t44 -3.5t42.5 6t26.5 19t13.5 40.5t3.5 71.5zM518 138q0 -36 -1 -58.5t-4.5 -35t-11 -16.5t-19.5 -4
q-16 0 -28.5 11.5t-11.5 43.5l2 107q13 1 23 1h14q21 -2 29 -14t8 -35z" />
    <glyph glyph-name="uni123D" unicode="&#x123d;" horiz-adv-x="559" 
d="M475 391l-8 -268q0 -8 1.5 -20.5t5 -26t10 -26t16.5 -19.5l-132 -28q-22 9 -28.5 26.5t-6.5 50.5l6 304q0 60 -6 86.5t-32 25.5q-15 0 -27.5 -10.5t-21.5 -39t-14.5 -80t-5.5 -134.5v-109q0 -12 1 -26.5t4.5 -28t11.5 -24.5t22 -17l-132 -27q-26 10 -33 29t-7 51v152
q0 53 4.5 92.5t19 70.5t41.5 56t73 49l-32 83l-36 -3q-2 -17 -14 -31t-29 -19q-20 -7 -52 -7.5t-60 1.5q19 13 25.5 34t8.5 44q2 18 -6 34t-21 27q36 5 63 6.5t45.5 -4.5t29 -22t12.5 -45l218 9q3 44 34 58.5t101 7.5q-15 -20 -15 -51q-2 -26 5 -50t21 -42q-6 0 -15.5 -1
l-19 -2t-19 -1.5t-15.5 0.5q-32 2 -51 15.5t-24 47.5l-57 -1l34 -76q26 -2 46 -7.5t33.5 -19t20.5 -36.5t7 -58z" />
    <glyph glyph-name="uni123E" unicode="&#x123e;" horiz-adv-x="558" 
d="M449 391l-4 -95q0 -8 1.5 -20.5t5 -26.5t10 -26.5t15.5 -19.5l-132 -28q-22 10 -28.5 27.5t-6.5 50.5l3 131q0 60 -5.5 86.5t-31.5 25.5q-15 0 -27.5 -10.5t-21.5 -39t-14.5 -80t-5.5 -134.5v-109q0 -12 0.5 -26.5t4.5 -28t12 -24.5t22 -17l-133 -27q-25 10 -32.5 29
t-7.5 51v152q0 53 4.5 92.5t19 70.5t42 56t73.5 49l5 82l-39 -2q-2 -18 -14 -32t-29 -19q-20 -7 -51.5 -7.5t-60.5 1.5q19 13 26 34t8 44q2 18 -6 34t-21 27q36 5 63 6.5t45.5 -4.5t29 -22t12.5 -45l213 10q3 43 34 57.5t101 7.5q-15 -20 -15 -51q-2 -26 5 -50t21 -42
q-6 0 -15.5 -1l-19 -2t-19 -1.5t-15.5 0.5q-32 2 -51 16t-24 48l-49 -2l-4 -75q26 -2 46 -7.5t33.5 -19t20.5 -36.5t7 -58z" />
    <glyph glyph-name="uni123F" unicode="&#x123f;" horiz-adv-x="658" 
d="M496 4q6 -27 11.5 -49t15.5 -37t27 -23t45 -8q25 0 57 18q-15 19 -20 34t-4 29q-1 4 -1 9v10t1 9.5t1 6.5q-1 7 -3.5 13t-10.5 11l-30 -2t-32.5 -2t-39.5 -1.5t-52 -1.5q-5 11 -8.5 39t-3.5 62l7 265q0 36 -7 58.5t-20.5 36t-33.5 19.5t-46 8l4 74l49 2q5 -34 23.5 -47.5
t50.5 -16.5q6 -1 15.5 0l19.5 2t19 2t15 1q-14 18 -20.5 41.5t-4.5 49.5q0 32 15 52q-70 7 -101.5 -7.5t-33.5 -58.5l-217 -10q-2 29 -12.5 45t-29.5 22t-46 4.5t-63 -5.5q14 -11 22 -27t6 -34q-2 -23 -8.5 -44.5t-25.5 -34.5q28 -2 60 -1t52 8q17 5 29 19t14 31l42 3
l-5 -82q-44 -19 -71.5 -41.5t-44 -49t-22.5 -56t-6 -63.5l-1 -84q-1 -23 9.5 -44t25.5 -26l130 32q-14 8 -22.5 26.5t-8.5 56.5l1 89q0 51 6.5 81.5t16.5 46.5t23 21.5t28 5.5q26 1 32 -25t6 -86l-5 -303q0 -18 3 -35.5t7 -24.5q-28 -1 -60.5 -2t-74.5 -1q-9 -8 -9 -15
q0 -4 4 -13q2 -8 4.5 -14t0.5 -13q0 -15 -6 -33t-22 -40q9 -7 18 -8t18 0q33 1 55 11.5t35.5 27t19 38t5.5 45.5z" />
    <glyph glyph-name="uni1240" unicode="&#x1240;" horiz-adv-x="570" 
d="M226 458q-5 -1 -10 -1.5t-10 -1.5q-32 -5 -46.5 -35.5t-14.5 -79.5q0 -42 15 -55.5t37 -13.5h20zM432 378q0 11 -1 26t-6 28.5t-16 23.5t-32 10l-17 -1l-9 -182l21 3q15 2 26 7t18 15t10.5 26.5t5.5 43.5zM540 370q0 -31 -13 -50t-33 -29.5t-43 -14.5t-42 -5l-59 -5
l-7 -176q0 -28 6 -38.5t24 -23.5l-135 -28q-9 6 -14.5 11t-9 11t-5.5 15.5t-2 24.5v15t1 28.5t3 54t5 93.5l-91 -9q-16 -2 -32.5 3t-30 16.5t-22 30t-8.5 43.5q0 37 13.5 62t36 41t51.5 23t60 9l34 2l3 79q0 16 -3.5 28.5t-23.5 22.5l132 27q30 -13 30 -54l-4 -96l34 3
q145 9 145 -103v-11z" />
    <glyph glyph-name="uni1241" unicode="&#x1241;" horiz-adv-x="577" 
d="M538 108q-14 17 -22 44t-6 50q0 15 5 25q-4 2 -11 4t-17 2q-36 0 -62.5 -15t-28.5 -56l-47 -7l5 111l59 5q19 1 42 5t42.5 14.5t33 29.5t13.5 50v11q0 112 -146 103l-34 -3l5 96q0 22 -7.5 34.5t-22.5 19.5l-133 -27q20 -10 23.5 -22.5t3.5 -28.5l-3 -79l-33 -2
q-31 -2 -60 -9t-51.5 -23t-36 -41t-13.5 -62q0 -25 8 -43.5t21.5 -30t30.5 -16.5t33 -3l90 9q-3 -59 -5 -93.5t-3 -54t-1 -28.5v-15q0 -15 2 -24.5t5.5 -15.5t9.5 -11t15 -11l134 28q-18 13 -24 23.5t-6 38.5l2 49l50 8q5 -27 19 -38.5t40 -12.5q28 -2 81 12zM229 458
l-9 -187h-20q-21 0 -36 13.5t-15 55.5q0 49 14.5 79.5t45.5 35.5zM436 378q-2 -27 -5.5 -43.5t-11 -26.5t-18.5 -15t-26 -7l-21 -3l10 182l16 1q21 0 32 -10t16.5 -23.5t6.5 -28.5t1 -26z" />
    <glyph glyph-name="uni1242" unicode="&#x1242;" horiz-adv-x="573" 
d="M560 -5q-16 20 -26.5 50.5t-10.5 56.5q0 19 6 28q-9 6 -33 6q-44 -2 -74.5 -21t-30.5 -66l-35 -7q-5 0 -8 5t-5 12.5t-2.5 16t-0.5 14.5l8 176l59 5q19 1 42 5t42.5 14.5t33 29.5t13.5 50v11q0 112 -145 103l-35 -3l5 96q0 41 -30 54l-133 -27q20 -10 23.5 -22.5
t3.5 -28.5l-1 -79l-35 -2q-31 -2 -60 -9t-51.5 -23t-36 -41t-13.5 -62q0 -25 8.5 -43.5t22 -30t30 -16.5t32.5 -3l90 9q-3 -59 -5 -93.5t-3 -54t-1 -28.5v-15q0 -15 2 -24.5t5.5 -15.5t9 -11t14.5 -11l158 32q8 -30 24.5 -42t48.5 -12t94 17zM225 458l-11 -187h-20
q-21 0 -36 13.5t-15 55.5q0 49 14.5 79.5t45.5 35.5q5 1 11 1.5t11 1.5zM430 378q-2 -27 -5.5 -43.5t-11 -26.5t-18.5 -15t-26 -7l-20 -3l8 182l17 1q21 0 32 -10t16.5 -23.5t6.5 -28.5t1 -26z" />
    <glyph glyph-name="uni1243" unicode="&#x1243;" horiz-adv-x="622" 
d="M593 369v11q0 113 -145 103l-34 -2l4 95q0 41 -30 54l-132 -27q20 -10 23.5 -22.5t3.5 -27.5l-3 -80l-33 -1q-31 -2 -60 -9.5t-51.5 -23.5t-36.5 -41t-14 -62q0 -25 8.5 -43.5t22 -30t30 -16.5t32.5 -3l91 9q-2 -49 -5 -84t-11 -57.5t-25 -34t-47 -13.5l-135 -9
q-9 -7 -9 -12q0 -8 5 -19t4 -19q0 -12 -6.5 -29t-21.5 -35q12 -9 29 -13t30 -4q38 0 68 32.5t38 89.5q41 0 68 2.5t45.5 8t31.5 14.5t27 22q13 12 21.5 25.5t13 32.5t7.5 46.5t6 68.5l59 5q19 1 42 5.5t43 15t33 29t13 49.5zM279 457l-9 -187h-20q-21 0 -36.5 13.5
t-15.5 55.5q0 49 14.5 79.5t46.5 35.5zM486 377q-2 -27 -6 -43.5t-11 -26.5t-18 -14.5t-26 -7.5l-21 -2l9 181l17 1q21 2 32.5 -7.5t16.5 -23.5t6 -30t1 -27z" />
    <glyph glyph-name="uni1244" unicode="&#x1244;" horiz-adv-x="574" 
d="M500 130q0 32 -23 51.5t-57 15.5l-72 -5l4 74l59 5q19 1 42 5t42.5 14.5t33 29.5t13.5 50q0 66 -35.5 92.5t-109.5 21.5l-34 -3l4 96q0 41 -30 54l-133 -27q20 -10 24 -22.5t4 -28.5l-4 -79l-33 -3q-31 -2 -60 -9t-51.5 -22.5t-36 -40.5t-13.5 -62q0 -25 8.5 -43.5
t22 -30t30 -16.5t32.5 -3l90 9l-12 -191q0 -30 8.5 -41t25.5 -21l105 10q11 0 33 -4.5t46 -2.5q16 1 30 5.5t24.5 18t16.5 38t6 65.5zM228 458l-10 -187h-20q-21 0 -36 13.5t-15 55.5q0 49 15 79.5t46 35.5zM434 378q-2 -27 -5.5 -43.5t-11 -26.5t-18 -15t-25.5 -7l-21 -3
l7 182l18 1q20 0 31.5 -10t17 -23.5t6.5 -28.5t1 -26zM414 125q0 -37 -0.5 -57.5t-4 -30.5t-10 -12.5t-17.5 -2.5q-23 0 -31.5 21.5t-6.5 46.5l3 84l33 1q20 -2 27 -14.5t7 -35.5z" />
    <glyph glyph-name="uni1245" unicode="&#x1245;" horiz-adv-x="564" 
d="M57 696q15 -26 20 -38.5t4 -29.5q-1 -7 -6 -21.5t-8 -22.5q0 -10 9 -19l145 12q5 -8 5.5 -16t0.5 -17l-4 -70l-33 -2q-31 -2 -60 -9t-51.5 -23t-36 -41t-13.5 -62q0 -25 8.5 -43.5t22 -30t30 -16.5t32.5 -3l90 9q-3 -59 -5 -93.5t-3 -54t-1 -28.5v-15q0 -15 2 -24.5
t5.5 -15.5t9.5 -11t15 -11l134 28q-18 13 -24 23.5t-6 38.5l8 176l59 5q19 1 42 5t42.5 14.5t33 29.5t13.5 50v11q0 112 -145 103l-34 -3l4 86q0 41 -30 54q-70 -20 -100.5 -24t-32.5 -4q2 62 -13.5 85.5t-52.5 28.5q-16 2 -33 -0.5t-43 -10.5zM222 458l-9 -187h-20
q-21 0 -36 13.5t-15 55.5q0 49 14.5 79.5t46.5 35.5zM429 378q-2 -27 -5.5 -43.5t-11 -26.5t-18 -15t-25.5 -7l-21 -3l9 182l17 1q20 0 31 -10t16.5 -23.5t6.5 -28.5t1 -26z" />
    <glyph glyph-name="uni1246" unicode="&#x1246;" horiz-adv-x="568" 
d="M536 316v11q0 112 -145 103l-34 -3l2 44q0 2 6.5 10.5t17.5 15.5q14 8 26.5 16.5t21.5 19t14.5 25t5.5 35.5q0 35 -10 55t-28.5 30t-44.5 12.5t-57 2.5t-58.5 -9t-48.5 -24.5t-33 -37.5t-12 -48q0 -28 6.5 -44.5t24.5 -31.5q14 -13 25.5 -25t11.5 -32v-21l-38 -2
q-31 -2 -60 -8t-51.5 -20.5t-36 -38.5t-13.5 -61q0 -25 8.5 -43.5t22 -30t30 -16.5t32.5 -3l91 9q-3 -59 -4.5 -86t-2 -38t-0.5 -13v-7q0 -15 2 -24.5t5.5 -15.5t9.5 -11t15 -11l134 28q-18 13 -24 23.5t-6 38.5l5 130l59 4q19 1 42 4.5t43 12.5t33 26.5t13 48.5zM330 495
q-6 0 -16 5.5t-19.5 16t-16.5 26.5t-7 36q0 41 11.5 69t28.5 28q23 0 39 -24t17 -58q1 -54 -11 -76.5t-26 -22.5zM224 404l-12 -180l-19 -3q-22 0 -37 15t-15 57q0 99 61 108zM428 324q-2 -27 -5.5 -42.5t-11 -24t-18 -12t-25.5 -6.5l-21 -2l9 174l17 1q20 0 31 -10
t16.5 -23.5t6.5 -28.5t1 -26z" />
    <glyph glyph-name="uni1248" unicode="&#x1248;" horiz-adv-x="632" 
d="M619 148q2 57 -12 79t-37 20l-235 -23l2 42l59 5q19 1 42 5t42.5 14.5t33 29.5t13.5 50v11q0 112 -145 103l-34 -3l4 96q0 41 -30 54l-133 -27q20 -10 24 -22.5t4 -28.5l-4 -79l-33 -2q-31 -2 -60 -9t-51.5 -23t-36 -41t-13.5 -62q0 -25 8.5 -43.5t22 -30t30 -16.5
t32.5 -3l91 9q-4 -59 -6 -93.5t-3 -54t-1 -28.5v-15q0 -15 2 -24.5t5.5 -15.5t9.5 -11t15 -11l134 28q-18 13 -23.5 23.5t-5.5 38.5l4 115l37 4q-3 -82 9.5 -116.5t36.5 -35.5q13 -1 23 1l20.5 4l23.5 4.5t31 2.5q35 0 55.5 6.5t31 17.5t14 25t3.5 30zM212 458l-9 -187h-20
q-21 0 -36 13.5t-15 55.5q0 49 14.5 79.5t46.5 35.5zM419 378q-2 -27 -5.5 -43.5t-11 -26.5t-18 -15t-25.5 -7l-21 -3l9 182l17 1q20 0 31 -10t16.5 -23.5t6.5 -28.5t1 -26zM504 85q-17 -2 -25 14.5t-12 50.5q-4 35 3.5 52t21.5 18q17 2 24.5 -13.5t10.5 -47.5
q7 -71 -23 -74z" />
    <glyph glyph-name="uni124A" unicode="&#x124a;" horiz-adv-x="905" 
d="M740 345q4 -57 26 -84.5t76 -27.5q29 0 57 14q-34 49 -34 78q0 7 4.5 22t5.5 25q0 8 -11 8l-154 -22l18 147q2 23 -6 37.5t-23 12.5l-137 -20q15 -7 23.5 -22.5t6.5 -36.5l-8 -65l-51 -5q-15 87 -143 78l-34 -3l4 96q0 41 -30 54l-132 -27q20 -10 23.5 -22.5t3.5 -28.5
l-3 -79l-34 -2q-31 -2 -60 -9t-51.5 -23t-36 -41t-13.5 -62q0 -25 8.5 -43.5t22 -30t30 -16.5t32.5 -3l91 9q-3 -59 -5 -93.5t-3 -54t-1 -28.5v-15q0 -15 2 -24.5t5.5 -15.5t9 -11t14.5 -11l135 28q-18 13 -24 23.5t-6 38.5l7 176l59 5q19 1 42 5t43 14.5t33 29.5t13 50v11
v6l47 5l-6 -65zM221 458l-9 -187h-20q-21 0 -36.5 13.5t-15.5 55.5q0 49 14.5 79.5t46.5 35.5zM427 378q-2 -27 -5.5 -43.5t-10.5 -26.5t-18 -15t-26 -7l-21 -3l9 182l17 1q21 0 32 -10t16 -23.5t6 -28.5t1 -26z" />
    <glyph glyph-name="uni124B" unicode="&#x124b;" horiz-adv-x="572" 
d="M529 -84q-22 10 -27 21t-3 32l4 104q2 50 -20.5 72.5t-84.5 22.5q-17 0 -29 -0.5t-25 -1.5l4 99l59 5q19 1 42 5.5t42.5 15t33 29t13.5 49.5v11q0 113 -145 103l-34 -2l4 95q0 41 -30 54l-133 -27q20 -10 23.5 -22.5t3.5 -27.5l-3 -80l-33 -1q-31 -2 -60 -9.5
t-51.5 -23.5t-36 -41t-13.5 -62q0 -25 8.5 -43.5t22 -30t30 -16.5t32.5 -3l90 9l-3 -94l-139 -24q-9 -2 -9 -7q0 -2 2 -10q5 -17 5 -27q0 -17 -4.5 -33t-24.5 -42q25 -22 64 -22q43 0 74 39.5t34 113.5l127 8q20 2 31.5 -19.5t8.5 -53.5l-10 -150q0 -35 28 -42zM223 457
l-9 -187h-20q-21 0 -36 13.5t-15 55.5q0 49 14.5 79.5t45.5 35.5zM430 377q-2 -27 -5.5 -43.5t-11 -26.5t-18.5 -14.5t-26 -7.5l-20 -2l9 181l16 1q21 0 32 -10t16.5 -23.5t6.5 -28.5t1 -26z" />
    <glyph glyph-name="uni124C" unicode="&#x124c;" horiz-adv-x="575" 
d="M56 22q-11 -6 -11 -13q-2 -5 4.5 -11.5t6.5 -18.5q0 -14 -8.5 -33t-30.5 -41q26 -23 63 -23q21 0 42 9.5t38 27.5t27.5 44t10.5 59l145 13q12 0 33.5 -4.5t45.5 -2.5q16 1 30.5 6t25 18.5t16.5 38t6 64.5q0 32 -23.5 51.5t-57.5 15.5l-70 -5l2 48l59 5q19 1 42 5.5
t42.5 15t33 29t13.5 49.5q0 66 -35.5 92.5t-109.5 21.5l-34 -2l4 95q0 41 -30 54l-133 -27q20 -10 24 -22.5t4 -27.5l-3 -78l-34 -5q-31 -2 -60 -9t-51.5 -22.5t-36 -40.5t-13.5 -62q0 -25 8.5 -43.5t22 -30t30 -16.5t32.5 -3l91 7l-9 -206q-6 -4 -27 -8t-46 -7t-48 -5
t-31 -2zM433 377q-2 -27 -5.5 -43.5t-11 -26.5t-18 -15t-25.5 -7l-20 -2l8 181l16 1q21 0 32 -10t16.5 -23.5t6.5 -28.5t1 -26zM227 457l-10 -187h-19q-22 0 -37 13.5t-15 55.5q0 49 15 79.5t47 35.5zM413 150q0 -37 -0.5 -57.5t-4 -30.5t-10 -12t-17.5 -2q-23 0 -31.5 21
t-6.5 46l5 84l31 2q20 -2 27 -15t7 -36z" />
    <glyph glyph-name="uni124D" unicode="&#x124d;" horiz-adv-x="860" 
d="M535 370v8l152 15q6 -66 35 -94.5t69 -28.5q32 0 64 18q-17 24 -24.5 45t-7.5 37q0 7 3 20l5 21q0 8 -11 14l-144 -15l9 105q2 23 -7 35.5t-23 10.5l-111 -26q14 -11 17.5 -21t3.5 -24l-8 -90l-22 -4q-10 97 -145 88l-34 -3l4 96q0 41 -30 54l-132 -27q20 -10 23.5 -22.5
t3.5 -28.5l-3 -79l-34 -2q-31 -2 -60 -9t-51.5 -23t-36 -41t-13.5 -62q0 -25 8.5 -43.5t22 -30t30 -16.5t32.5 -3l91 9q-3 -59 -5 -93.5t-3 -54t-1 -28.5v-15q0 -15 2 -24.5t5.5 -15.5t9 -11t14.5 -11l135 28q-18 13 -24 23.5t-6 38.5l7 176l59 5q19 1 42 5t43 14.5t33 29.5
t13 50zM221 458l-9 -187h-20q-21 0 -36.5 13.5t-15.5 55.5q0 49 14.5 79.5t46.5 35.5zM427 378q-2 -27 -5.5 -43.5t-10.5 -26.5t-18 -15t-26 -7l-21 -3l9 182l17 1q21 0 32 -10t16 -23.5t6 -28.5t1 -26z" />
    <glyph glyph-name="uni1250" unicode="&#x1250;" horiz-adv-x="570" 
d="M548 527q-14 19 -21 40t-5 47q0 31 15 51q-35 3 -59 2.5t-39.5 -6.5t-23 -18.5t-8.5 -34.5l-214 -10q-2 30 -11.5 44.5t-27.5 18.5t-44.5 1l-62.5 -7q14 -11 22 -22.5t6 -29.5q-2 -23 -8.5 -46t-25.5 -36q28 -2 58 -2t50 8q17 6 29 21t14 33l38 3l-5 -110l-33 -2
q-31 -3 -59.5 -10.5t-50.5 -22.5t-35.5 -40t-14.5 -62q0 -25 8.5 -43.5t22 -30t30 -16.5t32.5 -3l92 9l-8 -191q-1 -30 7 -40t26 -22l134 28q-9 6 -15 11.5t-9.5 12t-5 15.5t-1.5 23l6 176l58 5q19 1 41.5 5.5t42 16t32.5 32.5t15 56q3 57 -34 82.5t-111 20.5l-36 -3l5 108
l44 1q5 -35 24 -50t51 -17q6 -1 15 -0.5t18 1.5l17.5 2t14.5 1zM432 378q-2 -27 -5.5 -43.5t-10.5 -26.5t-18 -15t-26 -7l-21 -3l8 182l16 1q21 1 32.5 -8.5t17 -23.5t6.5 -29.5t1 -26.5zM224 458l-7 -187l-19 -2q-22 -2 -37.5 13.5t-15.5 57.5q0 49 14 80t45 35z" />
    <glyph glyph-name="uni1251" unicode="&#x1251;" horiz-adv-x="577" 
d="M549 525q-14 18 -21.5 39t-5.5 47q0 31 14 51q-35 3 -59 2.5t-39.5 -6.5t-22.5 -18.5t-7 -33.5l-214 -10q-3 30 -13 44t-28 18t-44 1l-62 -7q14 -11 22 -22t7 -30q-2 -22 -8 -45.5t-26 -36.5q29 -2 58.5 -1.5t49.5 8.5q17 5 29 20.5t14 34.5l38 1l-4 -107l-33 -2
q-31 -2 -60 -9t-50.5 -23t-34.5 -41t-13 -62q0 -25 9 -43.5t22.5 -30t30 -16.5t32.5 -3l91 9q-3 -59 -4 -93.5t-2 -54t-0.5 -28.5t0.5 -15q0 -15 2 -24.5t5.5 -15.5t9.5 -11t15 -11l134 28q-9 6 -15 11.5t-9.5 12t-5 15.5t-1.5 23l1 49l50 8q6 -27 20 -38.5t40 -12.5
q28 -2 81 12q-14 17 -23 44t-7 50q1 8 2 14t3 11q-5 2 -11.5 4t-16.5 2q-36 0 -63 -15.5t-27 -55.5l-46 -7l1 111l59 5q19 1 42 5t42.5 14.5t32.5 29.5t13 50v11q-1 112 -147 103l-34 -3l2 104l45 3q5 -35 24.5 -50t51.5 -18q6 -1 14.5 -0.5t18 2t18 2.5t13.5 1zM227 458
l-6 -187h-20q-21 0 -36.5 13.5t-15.5 55.5q-1 49 13 79.5t46 35.5zM435 378q-1 -27 -4.5 -43.5t-10.5 -26.5t-18 -15t-26 -7l-21 -3l6 182l17 1q20 0 31.5 -10t17 -23.5t7 -28.5t1.5 -26z" />
    <glyph glyph-name="uni1252" unicode="&#x1252;" horiz-adv-x="579" 
d="M545 526q-30 36 -27 86q0 31 14 51q-35 3 -59 2.5t-39.5 -6.5t-22.5 -18.5t-8 -33.5l-213 -10q-3 30 -13 44t-28 18t-44 1l-62 -7q14 -11 22 -22.5t6 -29.5q-2 -23 -7.5 -46t-25.5 -36q29 -2 58.5 -1.5t49.5 8.5q17 5 28.5 20t13.5 34l39 2l-3 -108l-35 -2q-31 -2 -60 -9
t-51 -23t-35 -41t-13 -62q0 -25 8.5 -43.5t22 -30t30.5 -16.5t33 -3l90 9q-2 -59 -3.5 -93.5t-2 -54t-0.5 -28.5v-15q0 -15 2 -24.5t5.5 -15.5t9 -11t14.5 -11l159 32q8 -30 24.5 -42t48.5 -12t94 17q-17 20 -28 50.5t-11 56.5q0 18 5 28q-9 6 -32 6q-22 -1 -41 -6t-33 -15
t-22 -26t-8 -40l-35 -7q-5 0 -8 5t-5 12.5t-2.5 16t-0.5 14.5l5 176l59 5q19 1 42 5t42.5 14.5t32.5 29.5t12 50v11q-1 112 -147 103l-36 -3l5 106l46 2q5 -35 24.5 -50t51.5 -18q6 -1 14.5 -0.5t17.5 2t17.5 2.5t14.5 1zM223 458l-8 -187h-20q-21 0 -36 13.5t-16 55.5
q-1 49 13 79.5t46 35.5q5 1 10.5 1.5t10.5 1.5zM429 378q-1 -27 -4.5 -43.5t-10.5 -26.5t-18 -15t-26 -7l-21 -3l6 182l18 1q20 0 31.5 -10t17 -23.5t6.5 -28.5t1 -26z" />
    <glyph glyph-name="uni1253" unicode="&#x1253;" horiz-adv-x="622" 
d="M603 526q-30 36 -26 86q0 31 15 51q-35 3 -59 2.5t-39.5 -6.5t-23.5 -18.5t-9 -33.5l-213 -10q-2 30 -11.5 44t-27.5 18t-44.5 1l-62.5 -7q14 -11 21.5 -22.5t5.5 -29.5q-2 -23 -8 -46t-26 -36q29 -2 58.5 -1.5t49.5 8.5q17 5 29.5 20t14.5 34l38 2l-5 -109l-33 -1
q-31 -2 -60 -9.5t-51.5 -23.5t-36.5 -41t-14 -62q0 -25 8.5 -43.5t22 -30t30 -16.5t32.5 -3l91 9q-2 -49 -5 -84t-11 -57.5t-25 -34t-47 -13.5l-135 -9q-9 -7 -9 -12q0 -8 5 -19t4 -19q0 -12 -6.5 -29t-21.5 -35q12 -9 29 -13t30 -4q38 0 68 32.5t38 89.5q41 0 68 2.5
t45.5 8t31.5 14.5t27 22q13 12 21.5 25.5t13 32.5t7.5 46.5t6 68.5l59 5q19 1 42 5.5t43 15t33 29t13 49.5v11q0 113 -145 103l-35 -2l4 106l46 2q5 -35 24 -50t51 -18q6 -1 15 -0.5t18 2t17.5 2.5t14.5 1zM486 377q-2 -27 -6 -43.5t-11 -26.5t-18 -14.5t-26 -7.5l-21 -2
l9 181l17 1q21 2 32.5 -7.5t16.5 -23.5t6 -30t1 -27zM279 457l-9 -187h-20q-21 0 -36.5 13.5t-15.5 55.5q0 49 14.5 79.5t46.5 35.5z" />
    <glyph glyph-name="uni1254" unicode="&#x1254;" horiz-adv-x="574" 
d="M548 525q-29 35 -28 86q0 31 15 51q-35 3 -59 2.5t-39.5 -6.5t-23 -18.5t-8.5 -33.5l-212 -10q-3 30 -13.5 44t-28.5 18t-44 1l-61 -7q13 -11 21 -22t6 -30q-2 -22 -7.5 -45.5t-24.5 -36.5q28 -2 58 -1.5t50 8.5q17 5 28.5 20t13.5 34l38 2l-2 -107l-34 -3q-31 -2 -60 -9
t-51 -22.5t-35 -40.5t-13 -62q0 -25 9 -43.5t22.5 -30t30.5 -16.5t33 -3l89 9l-9 -191q0 -30 9 -41t26 -21l105 10q11 0 33 -4.5t46 -2.5q16 1 30 5.5t24.5 18t16 38t5.5 65.5q-1 31 -25 51t-57 16l-72 -5l3 74l59 5q19 1 42 5t42.5 14.5t32.5 29.5t12 50q-1 66 -37 92.5
t-110 21.5l-35 -3l2 105l47 2q4 -35 23.5 -50t51.5 -18q6 -1 15 -0.5t18 2t17.5 2.5t14.5 1zM433 378q-1 -27 -4.5 -43.5t-10.5 -26.5t-18 -15t-26 -7l-20 -3l5 182l17 1q21 0 32.5 -10t17 -23.5t6.5 -28.5t1 -26zM227 458l-8 -187h-20q-21 0 -36 13.5t-16 55.5
q-1 49 13.5 79.5t46.5 35.5zM417 125q1 -37 0.5 -57.5t-4 -30.5t-10 -12.5t-17.5 -2.5q-23 0 -31.5 21.5t-7.5 46.5l2 84l34 1q20 -2 27 -14.5t7 -35.5z" />
    <glyph glyph-name="uni1255" unicode="&#x1255;" horiz-adv-x="651" 
d="M466 705q-26 4 -42.5 5t-32.5 -4q-36 -9 -53 -38.5t-9 -73.5l-169 -11q-2 30 -11.5 44t-27.5 18.5t-44.5 1.5l-62.5 -7q14 -11 21.5 -22.5t5.5 -29.5q-2 -23 -8 -46t-26 -36q29 -2 58 -2q30 0 50 8q17 5 29.5 20.5t14.5 33.5l39 2q4 -8 4.5 -14t0.5 -17q0 -6 -5 -19.5
l-8 -21.5q0 -12 9 -19l124 12q6 1 10 -8.5t2 -23.5l-3 -46l-33 -2q-31 -2 -59.5 -9t-51 -22t-36 -39t-13.5 -60q0 -24 8 -41.5t21.5 -28t30.5 -15.5t33 -3l89 9l-4.5 -83t-2 -37.5t-0.5 -12.5v-8q0 -14 2 -22.5t5.5 -14.5t9 -11t14.5 -11l134 26q-9 6 -15 11.5t-9 12
t-4.5 15t-1.5 21.5l6 125l59 5q19 1 41.5 5.5t42 14.5t33 28t13.5 47v10q0 107 -144 100l-34 -3l3 51q2 16 -7 31.5t-22 20.5q-65 -11 -97.5 -13t-34.5 -2q0 41 -6 67l161 9q9 10 6 20q-4 8 -9.5 17.5t-7.5 16.5q-4 16 -0.5 28t14.5 41zM331 395l-9 -179h-20q-21 0 -36 13
t-15 54q0 47 14.5 76t45.5 33zM536 319q-2 -26 -5.5 -42t-10.5 -25.5t-18 -13.5t-26 -7l-20 -2l9 173l16 1q20 0 31 -9.5t16.5 -22.5t6.5 -27.5t1 -24.5z" />
    <glyph glyph-name="uni1256" unicode="&#x1256;" horiz-adv-x="592" 
d="M583 544q-31 35 -28 85q-1 31 14 51q-35 3 -59 2t-39.5 -7t-22.5 -19t-8 -35q-38 0 -61 0.5t-36.5 1t-20.5 1.5t-12 1q-4 0 -10.5 -1t-21 -2l-38 -2.5t-62.5 -2.5q-2 30 -11.5 44.5t-27.5 18.5t-44.5 1l-62.5 -7q14 -11 22 -22.5t6 -29.5q-2 -23 -8.5 -46t-25.5 -36
q28 -2 58 -2t50 8q17 5 29 20.5t14 33.5h40q-26 -14 -40.5 -37t-14.5 -52q0 -13 1.5 -21t5 -14.5t9.5 -12.5t15 -13q14 -11 21.5 -20t7.5 -26v-19l-38 -2q-31 -2 -59.5 -7.5t-51 -19t-36 -35.5t-13.5 -56q0 -24 8.5 -42t22 -30t30 -17.5t32.5 -3.5l91 9l-2 -119
q0 -30 7.5 -40t24.5 -22l135 28q-18 13 -24.5 23.5t-6.5 38.5l1 104l59 5q19 1 42 4.5t42.5 13t32.5 26.5t13 46v10q0 104 -146 95l-34 -3l2 34q0 2 6.5 10t17.5 14l25.5 14.5t19.5 14.5t12.5 19.5t4.5 31.5q-1 29 -8 46t-21 28h31q5 -35 24.5 -49.5t51.5 -16.5q6 -1 15 0
t18 2.5l17.5 3t14.5 1.5zM325 447q-6 0 -16 3.5t-19.5 12t-16.5 21.5t-8 32q0 38 11.5 63.5t28.5 25.5q23 0 39 -22t17 -54q1 -25 -2 -41t-8 -25t-12 -12.5t-14 -3.5zM220 370l-11 -171l-20 -3q-21 0 -36 17t-15 55q-2 92 60 99zM424 296q-1 -25 -5 -40t-11 -23.5t-18 -12.5
t-26 -6l-20 -3l8 166h17q20 0 31 -8.5t16.5 -21.5t6.5 -27t1 -24z" />
    <glyph glyph-name="uni1258" unicode="&#x1258;" horiz-adv-x="642" 
d="M623 152q2 57 -12 79t-37 20l-238 -22l2 37l58 5q19 1 41.5 5.5t42 16t32.5 32.5t15 56q4 114 -145 103l-36 -3l4 108l45 1q5 -35 24 -50t51 -17q6 -1 15 -0.5t18 1.5l17.5 2t14.5 1q-15 19 -21.5 40t-4.5 47q0 31 15 51q-35 3 -59 2.5t-39.5 -6.5t-23.5 -18.5t-9 -34.5
l-213 -10q-3 30 -12.5 44.5t-27.5 18.5t-44 1l-62 -7q13 -11 21 -22.5t6 -29.5q-2 -23 -8 -46t-26 -36q29 -2 58 -2q30 0 50 8q17 6 29 21t14 33l39 3l-5 -110l-34 -2q-31 -3 -59.5 -10.5t-50 -22.5t-35 -40t-14.5 -62q-1 -25 7.5 -43.5t22.5 -30t30.5 -16.5t32.5 -3l91 9
l-7 -191q-1 -15 1 -24.5t6 -15.5t10 -11t15 -11l135 28q-9 6 -15 11.5t-9.5 12t-5 15.5t-1.5 23l4 120l39 2q-3 -82 9.5 -116.5t37.5 -35.5q12 -1 22 1t21 4.5t24 5t31 2.5q35 0 55 6.5t30.5 17.5t14 25t3.5 30zM419 378q-2 -27 -5.5 -43.5t-11 -26.5t-18 -15t-25.5 -7
l-21 -3l7 182l17 1q21 1 32.5 -8.5t17 -23.5t6.5 -29.5t1 -26.5zM211 458l-7 -187l-20 -2q-21 -2 -36.5 13.5t-15.5 57.5q0 49 13.5 80t45.5 35zM508 88q-17 -2 -25 15t-12 51q-4 35 3.5 51.5t21.5 18.5q17 2 24.5 -13.5t10.5 -47.5q4 -38 -2 -55.5t-21 -19.5z" />
    <glyph glyph-name="uni125A" unicode="&#x125a;" horiz-adv-x="911" 
d="M745 350q5 -57 27 -84.5t75 -27.5q29 0 58 15q-18 24 -26 43t-8 34q0 7 4.5 22t5.5 25q0 8 -11 8l-154 -21l18 146q2 23 -6 38t-23 13l-137 -21q15 -6 23.5 -22t6.5 -37l-8 -64l-61 -7q-16 83 -144 74l-36 -3l5 108l44 1q5 -35 24 -50t51 -17q6 -1 15 -0.5t18 1.5l17.5 2
t14.5 1q-14 19 -21 40t-5 47q0 31 15 51q-35 3 -59 2.5t-39.5 -6.5t-23 -18.5t-8.5 -34.5l-214 -10q-2 30 -11.5 44.5t-27.5 18.5t-44.5 1l-62.5 -7q14 -11 22 -22.5t6 -29.5q-2 -23 -8.5 -46t-25.5 -36q28 -2 58 -2t50 8q17 6 29 21t14 33l38 3l-5 -110l-33 -2
q-31 -3 -59.5 -10.5t-50.5 -22.5t-35.5 -40t-14.5 -62q0 -25 8.5 -43.5t22 -30t30 -16.5t32.5 -3l92 9l-8 -191q-1 -30 7 -40t26 -22l134 28q-9 6 -15 11.5t-9.5 12t-5 15.5t-1.5 23l6 176l58 5q19 1 41.5 5.5t42 16t32.5 32.5t15 56v10l58 7l-6 -66zM422 378
q-2 -27 -5.5 -43.5t-10.5 -26.5t-18 -15t-26 -7l-21 -3l8 182l16 1q21 1 32.5 -8.5t17 -23.5t6.5 -29.5t1 -26.5zM214 458l-6 -187l-20 -2q-22 -2 -37.5 13.5t-15.5 57.5q0 49 14 80t45 35z" />
    <glyph glyph-name="uni125B" unicode="&#x125b;" horiz-adv-x="579" 
d="M530 -84q-21 10 -26.5 21t-3.5 32l5 104q2 51 -20.5 73t-85.5 22q-17 0 -28.5 -0.5t-24.5 -1.5l4 107l58 4q19 1 41.5 5.5t42 16t32.5 32.5t15 56q3 57 -34 83t-111 20l-35 -2l4 107l45 2q4 -35 23 -50t51 -18q6 -1 15 -0.5t18 2t17.5 2.5t14.5 1q-29 36 -26 86
q0 31 15 51q-35 3 -59 2.5t-39.5 -6.5t-23 -18.5t-8.5 -33.5l-213 -10q-3 30 -12.5 44t-27.5 18t-44.5 1l-62.5 -7q14 -11 22 -22t6 -30q-2 -22 -8 -45.5t-26 -36.5q28 -2 58 -1.5t50 8.5q17 5 29 20t14 34l38 2l-5 -109l-33 -3q-31 -2 -59.5 -9.5t-50.5 -23t-35 -40.5
t-14 -62q-1 -25 7.5 -43.5t22 -30t30.5 -16.5t33 -3l91 9l-4 -101l-139 -24q-9 -2 -9 -7q0 -2 2 -10q5 -17 5 -27q0 -17 -4.5 -33t-25.5 -42q26 -22 64 -22q44 0 74.5 38t34.5 112l126 8q20 2 31.5 -19.5t9.5 -53.5l-10 -147q0 -17 7.5 -28t19.5 -14zM432 384
q-2 -27 -6 -43.5t-11 -26.5t-18 -14.5t-26 -7.5l-21 -2l8 182h16q21 1 32.5 -8.5t17 -23.5t7 -29.5t1.5 -26.5zM223 464l-6 -187l-20 -2q-22 -2 -37.5 13.5t-15.5 57.5q0 49 14 80t45 36z" />
    <glyph glyph-name="uni125C" unicode="&#x125c;" horiz-adv-x="585" 
d="M60 29q-11 -6 -11 -13q-2 -5 4.5 -11.5t6.5 -18.5q0 -14 -8 -33t-30 -41q24 -23 62 -23q21 0 42 9.5t38 27.5t27.5 44t10.5 59l147 13q12 0 34 -4.5t46 -2.5q16 1 30 6t24.5 18.5t16.5 38t6 64.5q0 32 -23 51.5t-57 15.5l-71 -5l1 46l60 8q19 3 41 7t40.5 15.5t31.5 32
t15 55.5q3 57 -34 83t-111 20l-35 -2l4 107l45 2q4 -35 23 -50t51 -18q6 -1 15 -0.5t18 2t17.5 2.5t14.5 1q-29 36 -26 86q0 31 15 51q-35 3 -59 2.5t-39.5 -6.5t-23 -18.5t-8.5 -33.5l-213 -10q-3 30 -12.5 44t-27.5 18t-44.5 1l-62.5 -7q14 -11 22 -22.5t6 -29.5
q-2 -23 -8 -46t-26 -36q28 -2 58 -1.5t50 8.5q17 5 29 20t14 34l38 2l-5 -110l-33 -2q-31 -3 -59.5 -10.5t-50.5 -22.5t-35 -40t-14 -62q-1 -25 7.5 -43.5t22 -30t30 -16.5t32.5 -3l92 9l-10 -209q-5 -4 -26.5 -8t-46 -7t-47.5 -5t-31 -2zM437 385q-2 -27 -5.5 -43.5
t-10.5 -26.5t-17.5 -14.5t-25.5 -7.5l-20 -2l5 181l16 1q21 1 32.5 -8.5t17 -23.5t7 -29.5t1.5 -26.5zM228 465l-6 -187l-20 -2q-22 -2 -37.5 13.5t-15.5 57.5q0 49 14 80t45 36zM420 157q0 -37 -0.5 -57.5t-4 -30.5t-10 -12t-17.5 -2q-23 0 -30.5 21.5t-6.5 46.5l3 83l32 2
q20 -2 27 -15t7 -36z" />
    <glyph glyph-name="uni125D" unicode="&#x125d;" horiz-adv-x="877" 
d="M569 397l-35 -1q-6 97 -146 88l-35 -3l4 108l45 1q5 -35 23.5 -50t50.5 -17q6 -1 15 -0.5t18 1.5l17.5 2t14.5 1q-14 19 -21 40t-5 47q0 31 15 51q-35 3 -59 2.5t-39.5 -6.5t-23 -18.5t-8.5 -34.5l-213 -10q-3 30 -12.5 44.5t-27.5 18.5t-44 1l-62 -7q13 -11 21 -22.5
t6 -29.5q-2 -23 -8 -46t-26 -36q28 -2 58 -2t50 8q17 6 29 21t14 33l38 3l-5 -110l-33 -2q-31 -3 -59.5 -10.5t-50.5 -22.5t-35 -40t-14 -62q-1 -25 7.5 -43.5t22 -30t30.5 -16.5t33 -3l91 9l-7 -191q-1 -15 1 -24.5t6 -15.5t10 -11t15 -11l134 28q-9 6 -15 11.5t-9.5 12
t-4.5 15.5t-1 23l5 176l59 5q19 1 41 5.5t41 15.5t33 31.5t16 54.5l167 13q6 -67 35 -95.5t69 -28.5q17 0 32.5 5t31.5 13q-17 25 -24.5 45.5t-7.5 36.5q0 7 3 20.5t5 21.5q0 7 -11 13l-143 -14l8 85q2 24 -7 36.5t-23 9.5l-114 -25q14 -11 18 -21t4 -24zM426 378
q-2 -27 -5.5 -43.5t-11 -26.5t-18.5 -15t-26 -7l-21 -3l8 182l17 1q20 1 31.5 -8.5t17 -23.5t7 -29.5t1.5 -26.5zM217 458l-6 -187l-20 -2q-21 -2 -36.5 13.5t-15.5 57.5q0 49 13.5 80t45.5 35z" />
    <glyph glyph-name="uni1260" unicode="&#x1260;" 
d="M471 27l-132 -27q-23 13 -29.5 32.5t-7.5 45.5v3l8 414q1 67 -11.5 92t-49.5 25q-18 0 -31 -16t-22 -43t-13 -63.5t-4 -78.5v-290q0 -36 4 -60.5t29 -38.5l-134 -23q-20 4 -28.5 24.5t-8.5 52.5l3 281q0 148 60 211q30 32 80.5 48t116.5 16q34 0 61 -8t45.5 -30t28 -61
t8.5 -100l-7 -306q0 -19 0.5 -34.5t3.5 -27.5t10 -21.5t20 -16.5z" />
    <glyph glyph-name="uni1261" unicode="&#x1261;" horiz-adv-x="661" 
d="M655 313q-17 20 -27 50t-10 56q0 19 5 29q-8 6 -32 6q-44 -2 -74.5 -21.5t-30.5 -65.5l-44 -9l2 74q1 61 -8.5 100t-28 61t-45.5 30t-61 8q-66 0 -116.5 -16t-80.5 -48q-60 -63 -60 -211l-3 -281q0 -32 8.5 -52t28.5 -25l134 24q-25 14 -29 38t-4 61v289q0 42 4.5 78.5
t13.5 63.5t22 43t30 16q37 0 49.5 -25t11.5 -92l-8 -414v-3q1 -26 7.5 -45.5t29.5 -32.5l132 27q-13 7 -20 16.5t-10 21.5t-3.5 27.5t-0.5 34.5l5 213l46 11q8 -30 24.5 -42t47.5 -12q17 0 41 4t54 13z" />
    <glyph glyph-name="uni1262" unicode="&#x1262;" horiz-adv-x="671" 
d="M666 -4q-16 20 -26.5 50.5t-10.5 56.5q0 9 2 16t4 12q-9 6 -32 6q-44 -2 -75 -21.5t-31 -65.5l-38 -8q-8 -1 -12.5 6.5t-6.5 20.5t-2.5 28.5t-0.5 30.5l6 306q1 61 -8.5 100t-28 61t-45.5 30t-61 8q-66 0 -116.5 -16t-80.5 -48q-60 -65 -60 -211l-2 -282q0 -32 8 -52
t28 -24l135 23q-13 7 -20 16.5t-10 22t-3.5 27.5t-0.5 33v290q0 42 4 78.5t13 63.5t22 43t31 16q37 0 49.5 -25t12.5 -92l-9 -417q1 -26 7.5 -45.5t29.5 -32.5l162 32q8 -30 24 -42t48 -12q34 0 94 17z" />
    <glyph glyph-name="uni1263" unicode="&#x1263;" horiz-adv-x="497" 
d="M471 31l-139 -31q-23 13 -32.5 36t-9.5 54l15 372q0 75 -13.5 109.5t-48.5 34.5q-30 0 -45 -41t-15 -134v-148q0 -47 5.5 -71.5t25.5 -36.5l-134 -18q-21 9 -30 33t-9 57v162q0 112 62.5 165.5t191.5 53.5q34 0 61.5 -7.5t47 -28t30.5 -56t11 -91.5l-5 -134.5t-3.5 -87.5
t-1.5 -52q0 -17 -0.5 -26t-0.5 -14v-10q0 -14 0.5 -25.5t3.5 -22.5t10.5 -21.5t22.5 -20.5z" />
    <glyph glyph-name="uni1264" unicode="&#x1264;" horiz-adv-x="610" 
d="M603 143q0 22 -7.5 36t-19.5 22t-28 10t-32 0q-23 -2 -36 -3t-20.5 -1.5t-11.5 -1.5t-9 -1l5 228q1 61 -8.5 100t-28 61t-45.5 30t-61 8q-66 0 -116.5 -16t-80.5 -48q-60 -63 -60 -211l-3 -281q0 -32 8.5 -52t28.5 -25l134 24q-25 14 -29 38t-4 61v289q0 42 4 78.5
t13 63.5t22 43t31 16q37 0 49.5 -25t11.5 -92l-8 -405q-1 -26 6.5 -51.5t30.5 -38.5q26 2 53.5 3l54.5 2q12 0 27.5 -4.5t41.5 -2.5q26 1 43 7t26.5 22t13.5 44t4 73zM507 139q0 -36 -1 -60t-4.5 -38t-11 -19.5t-19.5 -5.5q-6 0 -9.5 1.5t-8.5 4.5q-12 17 -14 46t-2 67l2 52
q14 1 21 1h11q20 -3 28 -14.5t8 -34.5z" />
    <glyph glyph-name="uni1265" unicode="&#x1265;" horiz-adv-x="655" 
d="M634 28q-13 7 -20 16.5t-10 21.5t-3.5 27.5t-0.5 34.5l7 306q1 61 -8.5 100t-28 61t-45.5 30t-61 8q-66 0 -117 -16t-81 -48q-28 -30 -42.5 -77t-16.5 -114l-186 -21l-5.5 -9.5t-0.5 -10.5q5 -8 7.5 -21.5t4.5 -19.5q4 -16 -0.5 -32.5t-15.5 -44.5q26 -5 42 -5t32 6
q35 10 51.5 45.5t14.5 85.5l56 8v-1l-3 -282q0 -32 8.5 -52t28.5 -24l134 23q-25 14 -29 38.5t-4 60.5v290q0 42 4 78.5t13 63.5t22 43t31 16q37 0 49.5 -25t11.5 -92l-8 -414v-3q1 -26 7 -45.5t29 -32.5z" />
    <glyph glyph-name="uni1266" unicode="&#x1266;" horiz-adv-x="494" 
d="M463 201l-133 -28q-20 14 -25 38t-4 50l6 202q0 77 -10 111t-45 34q-67 0 -67 -199v-279q0 -31 6.5 -58t29.5 -44l-138 -28q-26 16 -32.5 40.5t-6.5 57.5l1 257q0 95 29.5 151.5t73.5 82.5q43 27 80.5 34t69.5 7q70 0 107 -37.5t37 -129.5q-2 -81 -3.5 -119.5t-2.5 -52.5
q-2 -30 2.5 -51t24.5 -39z" />
    <glyph glyph-name="uni1267" unicode="&#x1267;" horiz-adv-x="639" 
d="M478 4h1q6 -27 11.5 -49t15.5 -37t26.5 -23t45.5 -8q24 0 57 18q-15 19 -20 34t-4 29q-1 4 -1 9v10t1 9.5t1 6.5q-1 7 -3.5 13t-10.5 11l-57 -4t-78 -3q-8 14 -13.5 43t-5.5 58v10q0 5 0.5 14t0.5 26q0 18 1.5 52t3.5 87.5l5 134.5q0 56 -11 91.5t-30.5 56t-47 28
t-61.5 7.5q-129 0 -191.5 -53.5t-62.5 -165.5v-162q0 -33 9 -57t30 -33l134 18q-20 12 -25.5 36.5t-5.5 71.5v148q0 93 15 134t45 41q35 0 48.5 -34.5t13.5 -109.5l-10 -372q0 -21 4.5 -42.5t10.5 -30.5q-29 -1 -65.5 -2t-81.5 -1q-9 -8 -9 -15q0 -2 0.5 -5t3.5 -8
q2 -8 4 -14t1 -13q0 -15 -6 -33t-23 -40q10 -7 18.5 -8t18.5 0q32 1 54 11.5t35.5 27t19 38t5.5 45.5z" />
    <glyph glyph-name="uni1268" unicode="&#x1268;" horiz-adv-x="542" 
d="M511 550q-27 35 -26 86q0 16 2.5 29t10.5 23q-33 2 -56 1t-37.5 -7.5t-21 -20t-6.5 -35.5l-201 -7q-2 30 -11 44.5t-26 19t-41.5 1.5l-58.5 -7q12 -12 19.5 -23.5t6.5 -29.5q-2 -23 -8.5 -46.5t-24.5 -36.5q26 -2 54 -2q29 0 48 8q16 5 27 20.5t13 34.5l204 6
q5 -35 24 -49t49 -16q6 -1 14 0t16.5 2.5l16.5 3t13 1.5zM485 24l-132 -23q-23 11 -29.5 28t-7.5 39v3l9 357q0 58 -12.5 80t-49.5 22q-18 0 -31 -13.5t-22 -37t-13 -55.5t-4 -68v-251q0 -15 0.5 -28t3.5 -23.5t10 -18.5t20 -14l-134 -21q-20 4 -28.5 21.5t-8.5 44.5l3 244
q1 124 66 180.5t190 56.5q33 0 60 -7t46 -26t28 -53t8 -87l-6 -263q0 -17 0.5 -30t3.5 -24t10 -19t20 -14z" />
    <glyph glyph-name="uni1269" unicode="&#x1269;" horiz-adv-x="655" 
d="M650 254q-17 24 -24 39t-7 32q0 10 5 32q2 6 2.5 8.5t0.5 4.5q0 6 -3 10t-8 8l-168 -36q2 62 -7.5 101t-28 60.5t-45.5 29t-60 7.5q-126 0 -190.5 -56.5t-65.5 -183.5l-2 -244q0 -28 8 -45.5t28 -21.5l134 21q-25 12 -29 32.5t-4 52.5v253q0 36 4.5 68t13 55.5t21.5 37.5
t30 14q37 0 49.5 -22t11.5 -81l-8 -360v-2q1 -22 7.5 -39.5t28.5 -28.5l132 23q-13 6 -20 14.5t-10 19t-3.5 24t-0.5 30.5l5 222l42 10q5 -62 27.5 -86.5t60.5 -24.5q16 0 32.5 5t40.5 17zM519 552q-28 34 -27 86q0 33 13 52q-33 2 -56 1t-37 -7.5t-20.5 -20t-7.5 -35.5
l-201 -7q-2 30 -11 44.5t-25.5 19t-41.5 1.5l-59 -7q12 -13 20 -24t6 -30q-2 -22 -8 -45.5t-24 -36.5q26 -2 54 -2t47 8q17 5 28 20.5t13 34.5l204 6q5 -35 23.5 -49.5t48.5 -16.5q6 0 14 1t17 2.5t17 3t13 1.5z" />
    <glyph glyph-name="uni126A" unicode="&#x126a;" horiz-adv-x="672" 
d="M666 -4q-16 20 -26.5 50.5t-10.5 56.5q0 9 2 16t4 12q-9 6 -32 6q-44 -2 -75 -21.5t-31 -65.5l-40 -8q-8 -1 -12.5 5t-6.5 16t-2.5 22.5t-0.5 25.5l7 264q1 53 -8.5 86.5t-28 52.5t-45.5 26t-60 7q-63 0 -110.5 -11.5t-80 -38.5t-49 -72.5t-17.5 -114.5l-2 -243
q0 -28 8 -46t28 -21l134 20q-23 12 -28 34.5t-5 51.5v250q0 36 4 67.5t12.5 55.5t21.5 37.5t31 13.5q37 0 50 -21.5t12 -80.5l-9 -360q1 -22 7.5 -39t29.5 -28l163 32q8 -30 24 -42t48 -12q34 0 94 17zM507 552q-27 35 -26 86q0 16 2.5 29t10.5 23q-33 2 -56 1t-37.5 -7.5
t-21 -20t-6.5 -35.5l-201 -7q-2 30 -11 44.5t-26 19t-41.5 1.5l-58.5 -7q12 -13 19.5 -24t6.5 -30q-2 -22 -8.5 -45.5t-24.5 -36.5q26 -2 54 -2q29 0 47 8q17 5 28 20.5t13 34.5l204 6q5 -35 24 -49.5t49 -16.5q11 -1 30 3t30 5z" />
    <glyph glyph-name="uni126B" unicode="&#x126b;" horiz-adv-x="520" 
d="M473 29l-139 -27q-23 11 -32.5 31.5t-9.5 46.5l14 323q0 66 -13 95.5t-48 29.5q-30 0 -45.5 -35.5t-15.5 -116.5v-128q0 -41 6 -62.5t26 -31.5l-135 -15q-21 7 -30 28t-9 50v140q0 46 20 82t54.5 60t80.5 36.5t99 12.5q34 0 62 -6.5t48 -24.5t30.5 -49t10.5 -80
l-5 -116.5t-3 -76l-1.5 -45t-0.5 -23.5v-12v-9q0 -11 0.5 -21.5t3.5 -20t10.5 -18t21.5 -17.5zM502 550q-27 35 -26 86q0 16 2.5 29t10.5 23q-67 5 -98.5 -8.5t-31.5 -53.5l-200 -7q-2 30 -11.5 44.5t-26 19t-41.5 1.5l-58 -7q11 -12 19 -23.5t6 -29.5q-1 -23 -7.5 -46.5
t-24.5 -36.5q26 -2 54 -2t47 8q17 5 28 20.5t13 34.5l204 6q5 -35 23.5 -49t48.5 -16q6 0 15.5 0.5t19.5 2l19.5 3t14.5 1.5z" />
    <glyph glyph-name="uni126C" unicode="&#x126c;" horiz-adv-x="608" 
d="M603 125q0 19 -7.5 31.5t-19.5 19.5t-28 8.5t-32 -0.5q-23 -1 -36 -2t-20.5 -2l-11.5 -1.5t-9 -0.5l5 200q1 54 -8.5 88t-28 53.5t-45.5 26.5t-61 7q-66 0 -116.5 -14t-80.5 -42q-30 -29 -45 -74.5t-15 -111.5l-3 -246q0 -28 8.5 -45.5t28.5 -21.5l134 20q-25 13 -29 34
t-4 53v254q0 36 4 68t13 56t22 38t31 14q37 0 49.5 -22t11.5 -80l-8 -356q-1 -22 6.5 -44.5t30.5 -33.5l53.5 2t54.5 3q12 0 27.5 -4.5t41.5 -2.5q26 1 43 6.5t26.5 19t13.5 38t4 64.5zM507 121q0 -32 -1 -52.5t-4.5 -33t-11 -17.5t-19.5 -5q-6 0 -9.5 1.5t-8.5 4.5
q-12 14 -14 40.5t-2 58.5l2 46q14 1 21 1h11q20 -3 28 -13.5t8 -30.5zM510 552q-28 34 -27 86q1 16 3 29t10 23q-66 5 -97.5 -9t-31.5 -53l-201 -7q-2 30 -11 44.5t-26 19t-41.5 1.5l-58.5 -7q12 -13 19.5 -24t6.5 -30q-2 -22 -8.5 -45.5t-24.5 -36.5q26 -2 54 -2q29 0 48 8
q16 5 27 20.5t13 34.5l205 6q5 -35 23.5 -49.5t48.5 -16.5q6 0 15.5 1t19.5 2.5l19.5 3t14.5 1.5z" />
    <glyph glyph-name="uni126D" unicode="&#x126d;" horiz-adv-x="665" 
d="M14 334q-3 -5 -5.5 -10t-0.5 -11q5 -8 7.5 -21t4.5 -19q2 -8 1.5 -14t-2.5 -12.5t-6 -16t-9 -23.5q26 -5 42 -4.5t32 5.5q69 19 66 120l38 5l-3 -266q0 -28 8.5 -46t28.5 -21l135 21q-25 12 -29 32.5t-4 52.5v251q0 36 4 68t12.5 56t22 37.5t31.5 13.5q37 0 49.5 -21.5
t11.5 -80.5l-8 -359v-3q1 -22 7 -39t29 -28l134 23q-13 6 -20 14t-10 19t-3.5 24t-0.5 30l6 265q2 53 -7.5 86.5t-28.5 53t-46 26.5t-61 7q-53 0 -98 -9.5t-79 -32t-54.5 -60t-25.5 -94.5zM622 552q-27 35 -26 86q1 16 3 29t10 23q-33 2 -57 1t-39 -7.5t-22.5 -20
t-8.5 -35.5l-201 -7q-2 30 -11 44.5t-25.5 19t-41.5 1.5l-59 -7q12 -13 20 -24t6 -30q-2 -22 -8 -45.5t-24 -36.5q26 -2 54 -2t47 8q17 5 28 20.5t13 34.5l204 6q5 -35 23.5 -49.5t48.5 -16.5q6 0 15 1t18.5 2.5l18.5 3t14 1.5z" />
    <glyph glyph-name="uni126E" unicode="&#x126e;" horiz-adv-x="520" 
d="M468 175l-133 -25q-20 12 -25 33t-4 44l6 175q0 67 -10 97t-45 30q-67 0 -67 -173v-244q0 -26 6.5 -49.5t29.5 -38.5l-138 -24q-26 14 -32.5 35t-6.5 50l1 224q0 68 22 114t58 73.5t81 39.5t92 12q70 0 107 -33t37 -113q-2 -70 -3.5 -103t-2.5 -46q-2 -26 2.5 -44.5
t24.5 -33.5zM500 552q-27 35 -26 86q1 16 3 29t10 23q-33 2 -57 1t-39 -7.5t-22.5 -20t-8.5 -35.5l-201 -7q-2 30 -11 44.5t-25.5 19t-41.5 1.5l-59 -7q12 -13 20 -24t6 -30q-2 -22 -8 -45.5t-24 -36.5q26 -2 54 -2t47 8q17 5 28 20.5t13 34.5l204 6q5 -35 23.5 -49.5
t48.5 -16.5q6 0 15 1t18.5 2.5l18.5 3t14 1.5z" />
    <glyph glyph-name="uni126F" unicode="&#x126f;" horiz-adv-x="641" 
d="M478 4h1q6 -27 11.5 -49t15.5 -37t26.5 -23t45.5 -8q24 0 57 18q-15 19 -20 34t-4 29q-1 4 -1 9v10t1 9.5t1 6.5q-1 7 -3.5 13t-10.5 11l-57 -4t-78 -3q-4 7 -7.5 18t-6 24.5t-4 27.5t-1.5 26v9q0 4 0.5 12t0.5 23t1.5 44t3.5 75l5 115q0 48 -11 79t-30.5 48.5t-47 24
t-61.5 6.5q-254 0 -254 -188v-139q0 -29 9 -49.5t30 -27.5l134 15q-20 10 -25.5 31t-5.5 62v126q0 81 15 115.5t45 34.5q35 0 48.5 -29.5t13.5 -93.5l-10 -319q0 -18 4.5 -41t10.5 -32q-29 -1 -65.5 -2t-81.5 -1q-9 -8 -9 -15q0 -2 0.5 -5t3.5 -8q2 -8 4 -14t1 -13
q0 -15 -6 -33t-23 -40q10 -7 18.5 -8t18.5 0q32 1 54 11.5t35.5 27t19 38t5.5 45.5zM507 553q-27 35 -26 86q0 16 2.5 29t10.5 23q-67 5 -98.5 -9t-31.5 -53l-200 -7q-2 30 -11.5 44.5t-26 18.5t-41.5 1l-58 -7q11 -12 19 -23t6 -30q-1 -22 -7.5 -45.5t-24.5 -36.5
q26 -2 54 -2t47 8q17 5 28 20.5t13 34.5l204 6q5 -35 23.5 -49.5t48.5 -16.5q6 0 15.5 1t19.5 2.5l19.5 3t14.5 1.5z" />
    <glyph glyph-name="uni1270" unicode="&#x1270;" horiz-adv-x="622" 
d="M601 328q-34 -16 -62 -16q-39 2 -66.5 36.5t-35.5 83.5l-64 -8l-24 -324q0 -20 3.5 -40.5t26.5 -37.5l-125 -22q-17 13 -25.5 35.5t-8.5 60.5l28 317l-71 -6q-3 -29 -14 -53.5t-26 -42t-33 -27t-36 -9.5q-24 2 -43 17q15 21 21 37t7 30q0 6 -4 21.5t-4 23.5q0 9 10 10
l196 18l5 94q0 23 -4 45.5t-20 30.5l137 28q10 -8 12.5 -17.5t1.5 -22.5l-9 -146l196 19q10 0 10 -9q0 -4 -1.5 -12l-3 -16.5t-3 -16t-1.5 -10.5q-2 -31 30 -71z" />
    <glyph glyph-name="uni1271" unicode="&#x1271;" horiz-adv-x="618" 
d="M596 328q-32 40 -30 71q0 3 1.5 10.5t3 16l3 16.5t1.5 12q0 9 -10 9l-196 -19l9 146q1 13 -1.5 22.5t-12.5 17.5l-137 -28q16 -8 20 -30.5t4 -45.5l-5 -94l-196 -18q-10 -1 -10 -10q0 -8 4 -23.5t4 -21.5q-1 -14 -7 -30t-21 -37q19 -15 43 -17q18 0 36.5 9.5t33.5 27
t25.5 42t13.5 53.5l71 6l-28 -317q0 -38 8.5 -60.5t25.5 -35.5l125 22q-23 17 -26.5 37.5t-3.5 40.5l5 73l44 5q5 -21 20.5 -37.5t46.5 -16.5q17 0 38.5 3.5t50.5 9.5q-14 20 -21.5 47t-5.5 50q1 18 7 27q-7 5 -29 7q-57 -1 -84 -21.5t-23 -52.5l-42 -4l17 234l64 8
q8 -49 35.5 -83.5t67.5 -36.5q27 0 61 16z" />
    <glyph glyph-name="uni1272" unicode="&#x1272;" horiz-adv-x="622" 
d="M597 328q-17 21 -24 38.5t-6 32.5q0 3 1.5 10.5t3 16l3 16.5t1.5 12q0 9 -10 9l-197 -19l10 146q1 13 -1.5 22.5t-13.5 17.5l-137 -28q17 -8 21 -30.5t4 -45.5l-5 -94l-196 -18q-10 -1 -10 -10q0 -8 4 -23.5t4 -21.5q-1 -14 -7 -30t-21 -37q19 -15 43 -17q18 0 36 9.5
t33 27t26 42t14 53.5l71 6l-28 -317q0 -38 8.5 -60.5t25.5 -35.5l154 27q8 -31 24.5 -42.5t47.5 -11.5q17 0 41 4t54 13q-17 20 -27 50t-10 56q0 19 5 29q-4 3 -12.5 4t-19.5 1q-44 -2 -74.5 -21t-30.5 -65l-38 -7q-7 0 -11 6.5t-5.5 16t-2 20.5t-0.5 20l24 324l64 8
q7 -49 35 -83.5t67 -36.5q28 0 62 16z" />
    <glyph glyph-name="uni1273" unicode="&#x1273;" horiz-adv-x="664" 
d="M639 328q-32 40 -30 71q0 3 1.5 10.5t3 16l3 16.5t1.5 12q0 9 -10 9l-196 -19l10 146q0 13 -2.5 22.5t-12.5 17.5l-137 -28q16 -8 20.5 -30.5t4.5 -45.5l-6 -94l-196 -18q-10 -1 -10 -10q0 -8 4 -23.5t4 -21.5q-1 -14 -7 -30t-21 -37q20 -16 43 -17q18 0 36.5 9.5
t33.5 27t25.5 42t13.5 53.5l71 6l-8 -143q-4 -51 -15 -83t-26 -50.5t-32 -26.5t-32 -9l-132 -6q-9 -2 -9 -7q2 -10 5.5 -23.5t2.5 -22.5q0 -14 -6.5 -31.5t-21.5 -37.5q24 -18 50 -18q38 0 68 31.5t38 91.5q59 4 100 16t68.5 34.5t43 56.5t23.5 81l8 158l65 8
q7 -49 34.5 -83.5t67.5 -36.5q15 0 30 4t31 12z" />
    <glyph glyph-name="uni1274" unicode="&#x1274;" horiz-adv-x="623" 
d="M598 328q-17 21 -23.5 38.5t-5.5 32.5q0 3 1.5 10.5t3 16l3 16.5t1.5 12q0 9 -10 9l-197 -19l10 146q1 13 -2 22.5t-13 17.5l-137 -28q17 -8 21 -30.5t4 -45.5l-6 -94l-196 -18q-10 -2 -10 -10t4.5 -23.5t4.5 -21.5q-1 -14 -7.5 -30t-21.5 -37q20 -16 44 -17q18 0 36 9.5
t33 27t25.5 42t13.5 53.5l72 6l-29 -317q0 -38 8.5 -60.5t25.5 -35.5l56 4l56 4q12 0 27.5 -4.5t41.5 -2.5q26 1 43 5.5t26.5 18.5t13.5 41t4 72q0 22 -7.5 36t-19.5 21.5t-28 9.5t-32 0l-77 -6l15 225l65 8q7 -49 35 -83.5t67 -36.5q29 0 61 16zM423 133q0 -36 -0.5 -58
t-4.5 -34.5t-11 -16.5t-19 -4q-22 0 -30.5 17.5t-8.5 37.5l5 107q14 1 21 1h12q20 -3 28 -15t8 -35z" />
    <glyph glyph-name="uni1275" unicode="&#x1275;" horiz-adv-x="618" 
d="M596 292q-32 39 -30 70q0 3 1.5 10.5t3 16l3 16.5t1.5 12q0 9 -10 10l-196 -20l9 137q1 13 -1.5 22.5t-12.5 17.5l-146 -27q-4 32 -10 52.5t-15 32.5t-22.5 17t-31.5 7q-14 2 -31 -1.5t-42 -12.5q14 -26 19.5 -39t4.5 -29q-1 -8 -5 -21.5t-7 -22.5q0 -7 2.5 -11t6.5 -9
l154 24q7 -13 9 -30.5t2 -33.5l-6 -85l-196 -18q-10 -1 -10 -10q0 -8 4 -23.5t4 -21.5q-1 -14 -7 -30t-21 -36q18 -16 43 -18q18 0 36.5 10t33.5 27.5t25.5 41.5t13.5 53l71 6l-26 -289q0 -38 8.5 -60.5t25.5 -35.5l125 22q-23 17 -26.5 37.5t-3.5 40.5l22 296l64 8
q8 -49 35.5 -83.5t67.5 -36.5q29 0 61 17z" />
    <glyph glyph-name="uni1276" unicode="&#x1276;" horiz-adv-x="622" 
d="M600 278q-31 40 -30 70q0 3 1.5 10.5t3 16l3 16.5t1.5 12q0 9 -10 10l-196 -20l3 45q2 26 8.5 35t16.5 14l27 13t26 17.5t19.5 26.5t7.5 40q0 29 -11 47t-30 27.5t-44.5 13t-54.5 3.5q-26 0 -54 -7t-51 -21.5t-38.5 -37t-15.5 -53.5q0 -14 2 -24t6 -18t10.5 -15.5
t16.5 -17.5q14 -13 25 -32t9 -36l-1 -31l-196 -18q-10 -1 -10 -10q0 -8 4 -23.5t4 -21.5q-1 -14 -7 -30t-21 -37q18 -15 43 -17q18 0 36.5 9.5t33.5 27t25.5 41.5t13.5 53l71 7l-22 -267q0 -38 8.5 -60.5t25.5 -35.5l125 22q-23 17 -26.5 37.5t-3.5 40.5l18 273l65 9
q7 -49 34.5 -83.5t67.5 -36.5q30 0 61 16zM394 575q0 -38 -12 -67t-34 -29q-9 0 -17.5 10.5t-16 25.5t-12 30t-4.5 23q0 47 12.5 68t30.5 21q7 0 16.5 -5.5t17.5 -16t13.5 -26t5.5 -34.5z" />
    <glyph glyph-name="uni1277" unicode="&#x1277;" horiz-adv-x="635" 
d="M416 10h1q6 -28 11.5 -49.5t16 -36.5t27.5 -22.5t46 -6.5q12 1 26 5t30 14q-15 18 -20 33t-5 29q-1 4 -1 9v10t0.5 9.5t0.5 6.5q-1 7 -3.5 13t-10.5 11q-29 -3 -70 -5t-95 -5q-5 5 -8.5 27t-3.5 48l23 324l65 8q7 -49 35 -83.5t67 -36.5q15 0 30 4t31 12
q-17 21 -23.5 38.5t-6.5 32.5q0 3 1.5 10.5t3 16l3 16.5t1.5 12q0 9 -9 9l-197 -19l10 146q1 13 -2 22.5t-13 17.5l-137 -28q16 -8 20.5 -30.5t4.5 -45.5l-6 -94l-196 -18q-10 -1 -10 -10q0 -8 4 -23.5t4 -21.5q0 -14 -6.5 -30t-21.5 -37q20 -15 43 -17q18 0 36.5 9.5
t33.5 27t25.5 42t13.5 53.5l71 6l-28 -317q-1 -12 1 -35t7 -43l-151 -6q-9 -9 -9 -16q0 -2 0.5 -4.5t3.5 -7.5q2 -8 4.5 -14.5t0.5 -13.5q0 -15 -5 -33t-21 -41q9 -6 18 -7t18 0q33 2 54.5 13t34.5 28t18.5 38.5t5.5 45.5z" />
    <glyph glyph-name="uni1278" unicode="&#x1278;" horiz-adv-x="623" 
d="M585 306q-30 43 -26 72q0 7 7 22.5t8 23.5q0 8 -10 10l-186 -10l9 151h51q5 -34 24.5 -47t51.5 -15q6 -1 15.5 -0.5t19.5 1.5t19 2t15 1q-14 20 -21 42.5t-5 47.5q0 30 15 51q-71 5 -102 -9t-33 -56l-233 -8q-3 30 -13 45.5t-28.5 21.5t-45 4t-61.5 -6q13 -12 20.5 -27.5
t5.5 -33.5q-2 -22 -7.5 -44t-24.5 -34q27 -2 58.5 -1.5t50.5 7.5q17 7 29.5 20t14.5 31l53 2l-10 -152l-178 -9q-10 0 -10 -9q0 -8 5.5 -19t5.5 -17q-2 -14 -8.5 -29.5t-23.5 -35.5q19 -17 44 -19q36 -3 68 28.5t41 89.5l52 2l-20 -304q0 -38 8.5 -60.5t25.5 -35.5l134 22
q-23 18 -26.5 38.5t-3.5 40.5l16 303l53 4q6 -50 30.5 -81t63.5 -34q28 -1 62 13z" />
    <glyph glyph-name="uni1279" unicode="&#x1279;" horiz-adv-x="614" 
d="M579 306q-31 43 -27 72q0 7 7 22.5t8 23.5q0 9 -10 10l-185 -10l8 151h52q4 -34 23.5 -47t51.5 -15q6 -1 15.5 -0.5t19.5 1.5t19 2t15 1q-29 40 -26 90q0 30 15 51q-71 5 -102 -9t-33 -56l-232 -8q-3 30 -13.5 45.5t-29 21.5t-45 4t-61.5 -6q13 -12 21 -27.5t6 -33.5
q-2 -22 -8 -44t-25 -34q28 -2 59 -1.5t51 7.5q17 7 29 20t14 31l53 2l-10 -152l-178 -9q-10 0 -10 -9q0 -8 5.5 -19t5.5 -17q-1 -14 -8 -29.5t-23 -35.5q17 -17 43 -19q18 -2 36 5.5t33 23t25.5 38t14.5 51.5l53 2l-21 -304q0 -38 8.5 -60.5t25.5 -35.5l134 22
q-22 18 -25.5 38.5t-3.5 40.5l3 65l44 2q6 -31 24.5 -42t45.5 -11q8 0 23.5 2t35.5 4q4 1 9 1t11 2q-15 16 -24.5 38t-9.5 44q0 24 14 40q-36 1 -62 -3t-41 -10q-27 -11 -27 -51l-42 -2l11 224l53 4q6 -50 30.5 -81t63.5 -34q28 -1 63 13z" />
    <glyph glyph-name="uni127A" unicode="&#x127a;" horiz-adv-x="618" 
d="M579 306q-31 43 -27 72q0 7 7 22.5t8 23.5q0 9 -10 10l-185 -10l8 151h52q4 -34 23.5 -47t51.5 -15q6 -1 15.5 -0.5t19.5 1.5t19 2t15 1q-29 40 -26 90q0 30 15 51q-71 5 -102 -9t-33 -56l-232 -8q-3 30 -13.5 45.5t-29 21.5t-45 4t-61.5 -6q13 -12 21 -27.5t6 -33.5
q-2 -22 -8 -44t-25 -34q28 -2 59 -1.5t51 7.5q17 7 29 20t14 31l53 2l-10 -152l-178 -9q-10 0 -10 -9q0 -8 5.5 -19t5.5 -17q-1 -14 -8 -29.5t-23 -35.5q17 -17 43 -19q18 -2 36 5.5t33 23t25.5 38t14.5 51.5l53 2l-21 -304q0 -38 8.5 -60.5t25.5 -35.5l162 25
q8 -31 26.5 -41t45.5 -8q9 1 24 3t35 7q7 0 21 3q-16 15 -26.5 36.5t-11.5 42.5q0 12 3 22.5t10 18.5q-36 -1 -62 -5.5t-42 -12.5q-14 -7 -19.5 -19.5t-4.5 -32.5l-35 -5q-6 0 -10.5 7t-6.5 17.5t-3 22t-1 20.5l15 303l53 4q6 -50 30.5 -81t63.5 -34q28 -1 63 13z" />
    <glyph glyph-name="uni127B" unicode="&#x127b;" horiz-adv-x="666" 
d="M631 304q-17 23 -23 40t-4 32q0 7 7 22.5t8 23.5q0 9 -10 10l-185 -10l7 154h51q5 -34 24.5 -47t51.5 -15q6 -1 15.5 -0.5t19.5 1.5t19 2t15 1q-14 20 -21 42.5t-5 47.5q0 30 15 51q-71 5 -102 -9t-33 -56l-233 -8q-3 30 -13 45.5t-28.5 21.5t-45 4t-61.5 -6
q13 -12 20.5 -27.5t5.5 -34.5q-2 -21 -7.5 -43t-24.5 -34q27 -2 58.5 -1.5t50.5 7.5q17 6 29.5 19.5t14.5 31.5l53 2l-7 -154l-179 -9q-10 -1 -10 -10q0 -8 5.5 -19t5.5 -17q-2 -14 -8.5 -29.5t-23.5 -35.5q17 -17 43 -19q37 -3 69 28.5t41 89.5l55 2q-2 -106 -10 -168.5
t-22 -94.5t-34 -41.5t-47 -9.5l-133 -7q-10 0 -10 -8q0 -2 3 -11q6 -20 6 -31q0 -13 -6 -29t-21 -36q22 -16 49 -16q38 0 68 29t39 85q74 5 120.5 27.5t72.5 60.5q11 18 20.5 36.5t16.5 46t12 68.5t8 103l52 4q5 -50 29.5 -81t64.5 -33q14 -2 29.5 1.5t32.5 10.5z" />
    <glyph glyph-name="uni127C" unicode="&#x127c;" horiz-adv-x="609" 
d="M578 306q-17 23 -23 40t-4 32q0 7 7 22.5t8 23.5q0 9 -10 10l-185 -10l8 151h52q5 -34 24 -47t51 -15q6 -1 15.5 -0.5t19.5 1.5t19 2t15 1q-29 40 -26 90q0 30 15 51q-70 5 -101.5 -9t-33.5 -56l-232 -8q-3 30 -13.5 45.5t-29 21.5t-45 4t-61.5 -6q14 -12 21.5 -27.5
t5.5 -33.5q-2 -22 -8 -44t-25 -34q28 -2 59 -1.5t51 7.5q17 7 29 20t14 31l53 2l-10 -152l-177 -9q-10 0 -10 -9q0 -8 5 -19t5 -17q-1 -14 -8 -29.5t-23 -35.5q17 -17 43 -19q37 -3 69 28.5t41 89.5l52 2l-21 -304q0 -38 8.5 -60.5t25.5 -35.5q29 2 57.5 3.5t57.5 3.5
q12 0 30 -4.5t44 -2.5q25 1 41.5 5.5t26 17t13 37t3.5 66.5q0 21 -7 34t-19 20t-27 8.5t-31 -0.5q-22 -2 -35.5 -2.5t-22 -1.5t-13.5 -1.5t-9 -0.5l12 222l53 4q5 -50 29.5 -81t63.5 -34q28 -1 63 13zM427 122q0 -33 -0.5 -54t-4.5 -32t-10.5 -15t-18.5 -4q-15 0 -23 9.5
t-11.5 23t-4.5 27.5t-1 24l3 66q13 1 22 1h14q20 -2 27.5 -13.5t7.5 -32.5z" />
    <glyph glyph-name="uni127D" unicode="&#x127d;" horiz-adv-x="686" 
d="M657 247q-32 42 -27 72q0 7 7 22t8 23q0 9 -10 10l-185 -10l8 113q0 16 -22 16l-113 -12q-7 0 -12 2t-5 9l5 79l56 5q8 -25 25.5 -35t46.5 -10q10 0 22 1.5l35 4.5q11 2 18 2.5t11 1.5q-35 32 -35 77q0 25 14 44q-41 0 -67.5 -3t-43 -10.5t-23 -20.5t-6.5 -34l-196 -14
q0 18 -0.5 27.5t-2 15.5t-3.5 10l-5 10q-5 12 -17 19t-35 12q-20 0 -33.5 -1t-23.5 -4t-17 -7.5t-14 -10.5q34 -17 34 -51v-17q0 -6 -2 -11.5t-7 -11t-15 -12.5l167 14l-6 -86q0 -7 6.5 -13.5t15.5 -6.5l78 13q34 0 34 -24l-5 -86l-178 -9q-10 -2 -10 -10t5.5 -19t5.5 -17
q-1 -14 -8 -29.5t-23 -35.5q19 -18 43 -19q18 -1 36 6.5t33 23t25.5 37.5t14.5 51l53 2l-16 -244q0 -38 8.5 -60.5t25.5 -35.5l134 22q-22 18 -25.5 38.5t-3.5 40.5l10 244l53 3q6 -49 30.5 -80t63.5 -34q15 -2 30.5 2t32.5 11z" />
    <glyph glyph-name="uni127E" unicode="&#x127e;" horiz-adv-x="599" 
d="M572 233q-17 20 -23 34.5t-4 27.5q0 6 7 19.5t8 20.5q0 7 -10 8l-185 -8l4 47q0 1 11 8l24.5 15.5t25.5 15t14 8.5q12 11 19.5 25.5t7.5 32.5q0 29 -3.5 39t-10.5 18l-2 1q0 1 -1 2q33 10 52 19.5t28.5 19.5t12 20.5t2.5 22.5q0 8 -1 18.5t-4 24.5l-118 -9q15 -20 15 -44
q0 -16 -6.5 -28t-14.5 -29l-192 -15q-4 0 -16 10q-8 50 -25 74.5t-59 24.5q-3 0 -13 -1.5t-21 -3.5t-20.5 -5t-10.5 -7q7 -3 11 -11t6 -16.5t3 -16t1 -8.5q0 -24 -30 -55q14 -5 29 -7.5t31 -2.5q23 0 36 2.5t21.5 6t14 6t13.5 2.5q6 0 10 -1t7 -3q-14 -14 -26 -38t-12 -46
q0 -25 9.5 -41t26.5 -33q7 -7 13.5 -12.5t6.5 -9.5l-2 -25l-177 -7q-10 -1 -10 -9q0 -7 5.5 -16.5t5.5 -14.5q-2 -11 -8.5 -25t-23.5 -31q21 -15 43 -16q37 -2 69 25t41 76l53 2l-17 -231q0 -32 8.5 -52t25.5 -31l135 19q-23 16 -26.5 33t-3.5 34l12 233l52 2
q5 -42 29.5 -69.5t64.5 -29.5q15 -2 30 1.5t32 9.5zM376 475q0 -18 -1 -32.5t-5.5 -25.5t-13.5 -17.5t-26 -7.5q-13 0 -23.5 9t-17.5 22t-10.5 28.5t-3.5 29.5q0 11 4.5 22t11.5 19.5t15.5 13.5t17.5 5q26 0 39 -17t13 -49z" />
    <glyph glyph-name="uni127F" unicode="&#x127f;" horiz-adv-x="616" 
d="M402 8h1q5 -28 10.5 -49.5t16 -36.5t27.5 -23t45 -8q12 1 26.5 5t30.5 13q-15 19 -20 34t-4 29q-1 4 -1 10v10t0.5 9t0.5 6q0 16 -14 24q-30 -2 -70.5 -3.5t-94.5 -4.5l18 344l53 4q5 -50 29.5 -81t63.5 -34q28 -1 63 13q-17 23 -23 40t-4 32q0 7 7 22.5t8 23.5
q0 9 -10 10l-185 -10l8 159h52q5 -34 24 -47t51 -15q6 -1 15.5 0l19.5 2t19 2t15 1q-29 38 -26 90q0 30 15 50q-70 5 -101.5 -9t-33.5 -56l-232 -8q-3 30 -13.5 45.5t-29 21.5t-45 4.5t-61.5 -6.5q14 -11 21.5 -27t5.5 -34q-2 -22 -8 -43.5t-25 -34.5q28 -2 59 -1t51 8
q17 6 29 19.5t14 30.5l53 2l-10 -159l-177 -9q-10 -1 -10 -10q0 -8 5 -19t5 -17q-1 -14 -8 -29.5t-23 -35.5q17 -17 43 -19q37 -3 69 28.5t41 89.5l52 2l-18 -344q-29 -1 -72.5 -2l-87.5 -2q-9 -9 -9 -15q0 -4 4 -13q2 -8 4.5 -14.5t0.5 -13.5q0 -14 -5.5 -32t-21.5 -40
q9 -7 18 -8t18 -1q33 2 54.5 12.5t35 27.5t19 38.5t5.5 45.5z" />
    <glyph glyph-name="uni1280" unicode="&#x1280;" horiz-adv-x="520" 
d="M454 26l-126 -26q-18 7 -28.5 29t-6.5 47l53 357l-122 -12l9 60l-72 -12q-3 -29 -8.5 -55t-22.5 -43q-32 -34 -71 -34q-27 0 -47 17q11 14 18 34t7 35q0 7 -4 14.5t-7 16.5q-3 4 -3 8t9 6l204 31l11 73q2 12 -7 21t-20 14l133 22q14 -8 22 -24.5t6 -32.5l-17 -121l97 8
q11 1 16.5 -12t2.5 -33l-50 -338q-2 -16 5 -30.5t19 -19.5z" />
    <glyph glyph-name="uni1281" unicode="&#x1281;" horiz-adv-x="678" 
d="M670 220q-17 24 -24 39t-7 32q0 10 5 32q2 6 2.5 8.5t0.5 4.5q0 6 -3 10t-8 8l-174 -38l14 98q4 20 -2 33t-17 12l-97 -8l18 121q2 16 -6 32.5t-23 24.5l-132 -22q11 -5 19.5 -14t6.5 -21l-11 -73l-203 -31q-9 -2 -9 -6q0 -2 2 -8l7.5 -16.5t3.5 -14.5q0 -15 -7 -35
t-17 -34q20 -17 47 -17q37 0 71 34q17 17 22.5 43t8.5 55l72 12l-9 -60l122 12l-53 -357q-4 -25 6 -47t29 -29l126 26q-12 5 -19 19.5t-5 30.5l32 221l50 11q5 -62 27.5 -86t60.5 -24q16 0 32 5t41 17z" />
    <glyph glyph-name="uni1282" unicode="&#x1282;" horiz-adv-x="652" 
d="M646 -5q-17 20 -27.5 50.5t-10.5 56.5q0 9 2 16t4 12q-9 6 -32 6q-22 -1 -41 -6t-33.5 -15t-23 -26t-8.5 -40l-38 -8q-7 -1 -11 9.5t-2 25.5l50 338q3 20 -2.5 33t-16.5 12l-97 -8l17 121q2 16 -6 32.5t-22 24.5l-133 -22q11 -5 20 -14t7 -21l-11 -73l-204 -31
q-9 -2 -9 -6t3 -8q3 -9 7 -16.5t4 -14.5q0 -15 -7 -35t-18 -34q20 -17 47 -17q39 0 71 34q17 17 22.5 43t8.5 55l72 12l-9 -60l122 12l-53 -357q-4 -25 6.5 -47t28.5 -29l156 32q8 -30 24.5 -42t47.5 -12q33 0 95 17z" />
    <glyph glyph-name="uni1283" unicode="&#x1283;" horiz-adv-x="544" 
d="M516 418q3 20 -2.5 32.5t-16.5 12.5l-97 -9l17 122q3 16 -5.5 32.5t-22.5 24.5l-133 -22q11 -5 20 -14.5t7 -20.5l-11 -73l-203 -31q-9 -2 -9 -7l2 -8q3 -9 7 -16t4 -14q0 -15 -7 -35.5t-17 -34.5q17 -16 46 -16q37 0 72 33q17 17 22 43t9 55l72 12l-9 -59l122 11
l-24 -155q-8 -54 -28.5 -88t-46 -54.5t-52.5 -29t-49 -11.5l-140 -13q-11 0 -11 -8q0 -3 5 -15q6 -20 6 -33q0 -31 -28 -69q24 -19 51 -19q40 0 71 36.5t41 101.5q149 -4 225 45.5t93 156.5z" />
    <glyph glyph-name="uni1284" unicode="&#x1284;" horiz-adv-x="599" 
d="M593 137q-2 31 -26.5 51t-59.5 16l-63 -6l31 216q2 20 -3 33t-16 12l-97 -8l17 121q2 16 -6 32.5t-22 24.5l-133 -22q11 -5 20 -14t7 -21l-11 -73l-204 -31q-9 -2 -9 -6t3 -8q3 -9 7 -16.5t4 -14.5q0 -15 -7 -35t-18 -34q20 -17 47 -17q39 0 71 34q17 17 22.5 43t8.5 55
l72 12l-9 -60l122 12l-53 -357q-4 -25 6.5 -47t28.5 -29l96 7q13 0 37.5 -4.5t50.5 -2.5q18 1 35 5.5t29.5 19t19 41t2.5 71.5zM497 103q2 -45 -7.5 -65t-26.5 -20q-20 0 -31 17t-7 41l17 106l24 2q21 2 25 -17t6 -64z" />
    <glyph glyph-name="uni1285" unicode="&#x1285;" horiz-adv-x="511" 
d="M442 26q-12 5 -19.5 19.5t-5.5 30.5l50 338q3 20 -2.5 33t-16.5 12l-97 -8l18 121q2 16 -6.5 32.5t-22.5 24.5l-132 -22q11 -5 19.5 -14t6.5 -21l-10 -68q-33 -1 -69 -15t-66 -38.5t-49.5 -58t-19.5 -73.5q0 -21 8 -38t19 -25l128 27q-11 8 -18.5 24.5t-7.5 32.5
q0 30 6 56.5t15.5 46.5t23 31.5t28.5 11.5l-10 -65l122 12l-53 -357q-4 -25 6 -47t28 -29z" />
    <glyph glyph-name="uni1286" unicode="&#x1286;" horiz-adv-x="694" 
d="M5 307q21 -9 45 -10t32 3q36 11 53 43.5t16 92.5l52 5q0 -5 -0.5 -10t-1 -15t-2 -27t-3.5 -44q1 -43 9.5 -56t34.5 -13l102 17q22 4 38 0.5t18 -22.5l-18 -217q0 -44 26 -54l147 31q-23 10 -29.5 25.5t-3.5 35.5l19 209q0 16 -4 23t-21 7l-113 -16q-23 0 -35.5 5
t-18.5 12t-7 15.5t-1 16.5q0 75 5 126.5t19 71.5q9 14 17 22t16.5 12.5t18.5 6t24 1.5q-2 -18 -2 -45v-42q0 -30 3.5 -48t11 -27.5t20 -12t30.5 -2.5q7 0 12 1t11 2t14 2t20 1q26 0 44.5 -1.5t32.5 6.5q7 4 13 15t9.5 25t5.5 29t2 29q0 32 -4.5 50.5t-16 28t-32 12
t-53.5 2.5q-35 0 -64 -5t-58 -4q-32 0 -61.5 3.5t-46.5 -0.5q-59 -17 -87 -59t-37 -105l-178 -15q-8 -9 -5 -20q5 -6 10 -21.5t5 -29.5q0 -13 -9.5 -32t-23.5 -34zM581 541q0 -30 -1.5 -48t-4.5 -27.5t-7.5 -13t-11.5 -3.5q-9 0 -14.5 3t-8.5 11t-4 23.5t-1 39.5
q0 27 1 43.5t4 26t8 12.5t13 3q16 0 21.5 -13.5t5.5 -56.5z" />
    <glyph glyph-name="uni1288" unicode="&#x1288;" horiz-adv-x="763" 
d="M758 278q1 56 -13 78.5t-36 20.5l-237 -23l9 60q4 20 -2 33t-17 12l-97 -8l18 121q2 16 -6 32.5t-23 24.5l-132 -22q11 -5 19.5 -14t6.5 -21l-11 -73l-203 -31q-9 -2 -9 -6q0 -2 2 -8l7.5 -16.5t3.5 -14.5q0 -15 -7 -35t-17 -34q20 -17 47 -17q37 0 71 34q17 17 22.5 43
t8.5 55l72 12l-9 -60l122 12l-53 -357q-4 -25 6 -47t29 -29l126 26q-12 5 -19 19.5t-5 30.5l38 259l40 3q-4 -82 9 -116.5t37 -35.5q12 -1 22 1t21 4.5t24 5t31 2.5q35 0 55.5 6.5t31 17.5t13.5 25t4 30zM642 214q-17 -2 -24.5 15t-11.5 51q-4 35 3.5 51.5t21.5 18.5
q17 2 24.5 -13.5t10.5 -47.5q4 -38 -2.5 -55.5t-21.5 -19.5z" />
    <glyph glyph-name="uni128A" unicode="&#x128a;" horiz-adv-x="865" 
d="M702 256q5 -56 27 -83.5t75 -27.5q31 0 58 14q-18 25 -26 43.5t-8 34.5q0 7 4.5 22t4.5 24t-10 9l-154 -22l18 147q2 23 -6.5 37.5t-22.5 12.5l-137 -21q14 -6 23 -21.5t6 -36.5l-7 -65l-84 -10l15 101q3 20 -2.5 33t-16.5 12l-97 -8l17 121q3 16 -5.5 32.5t-22.5 24.5
l-133 -22q11 -5 20 -14t7 -21l-11 -73l-203 -31q-9 -2 -9 -6v-4q0 -2 2 -4q3 -9 7 -16.5t4 -14.5q0 -15 -7 -35t-17 -34q19 -17 46 -17q38 0 72 34q17 17 22 43t8 55l73 12l-10 -60l122 12l-53 -357q-4 -25 6.5 -47t28.5 -29l126 26q-11 5 -18.5 19.5t-5.5 30.5l32 217
l84 11l-5 -66z" />
    <glyph glyph-name="uni128B" unicode="&#x128b;" horiz-adv-x="637" 
d="M630 -84q-14 6 -23 22t-7 31l4 104q3 50 -20 72.5t-85 22.5q-17 0 -29 -0.5t-24 -1.5l36 249q3 20 -2.5 33t-16.5 12l-97 -8l17 121q3 16 -5.5 32.5t-22.5 24.5l-133 -22q11 -5 20 -14t7 -21l-11 -73l-203 -31q-9 -2 -9 -6q0 -1 2 -9q3 -8 7 -15.5t4 -14.5q0 -15 -7 -35
t-17 -34q19 -17 46 -17q38 0 72 34q17 17 22 43t9 55l72 11l-9 -59l122 12l-38 -276l-177 -24q-9 -2 -9 -7q0 -2 2 -10q5 -17 5 -27q0 -17 -4.5 -33t-24.5 -42q25 -22 64 -22q43 0 74 34t35 108l45 6l119 7q20 2 31.5 -19t9.5 -53l-10 -145q0 -7 2.5 -15t7 -14.5t10.5 -10
t13 -2.5z" />
    <glyph glyph-name="uni128C" unicode="&#x128c;" horiz-adv-x="615" 
d="M610 168q0 22 -7.5 36.5t-19.5 22t-27.5 9.5t-31.5 0l-64 -6l28 187q3 20 -2.5 33t-16.5 12l-97 -8l17 121q3 16 -5.5 32.5t-22.5 24.5l-133 -22q11 -5 20 -14.5t7 -20.5l-11 -73l-203 -31q-9 -2 -9 -7q0 -4 2 -8q3 -8 7 -15.5t4 -14.5q0 -15 -7 -35.5t-17 -34.5
q19 -16 46 -16q37 0 72 33q17 17 22 43.5t8 55.5l73 11l-10 -59l128 11l-51 -383q-5 -4 -27 -8t-47.5 -7.5t-48.5 -5.5t-32 -2q-10 -6 -10 -13q-2 -5 4 -11.5t6 -18.5q0 -14 -8 -33t-30 -41q26 -23 62 -23q21 0 42 9.5t38 27.5t27.5 44t10.5 59l142 11q13 0 36.5 -5t49.5 -4
t42.5 6t26.5 19t13.5 40.5t3.5 71.5zM515 164q0 -36 -1 -58.5t-5 -35t-11 -16.5t-19 -4q-25 0 -34 20t-4 44l16 98q14 1 15 1h6q20 0 28.5 -13t8.5 -36z" />
    <glyph glyph-name="uni128D" unicode="&#x128d;" horiz-adv-x="831" 
d="M525 278l-66 -4l21 140q3 20 -2.5 33t-16.5 12l-97 -8l17 121q2 16 -6 32.5t-22 24.5l-133 -22q11 -5 20 -14t7 -21l-11 -73l-204 -31q-9 -2 -9 -6t3 -8q3 -9 7 -16.5t4 -14.5q0 -15 -7 -35t-18 -34q20 -17 47 -17q39 0 71 34q17 17 22.5 43t8.5 55l72 12l-9 -60l122 12
l-53 -357q-4 -25 6.5 -47t28.5 -29l126 26q-12 5 -19 19.5t-5 30.5l26 179l202 17q6 -66 35 -95t69 -29q17 0 32.5 5t31.5 13q-17 25 -25 46t-8 36q0 7 3.5 20.5l5.5 21.5q0 8 -11 13l-138 -12l10 112q2 24 -7 36.5t-23 9.5l-119 -25q14 -11 17.5 -21t3.5 -24z" />
    <glyph glyph-name="uni1290" unicode="&#x1290;" horiz-adv-x="373" 
d="M335 382l-96 -291q-7 -19 -4.5 -39t13.5 -28l-118 -24q-14 2 -23.5 12.5t-9.5 26.5q0 4 2 14.5t11.5 44t30 98.5l57.5 178q5 14 -3 18.5t-28 4.5l-106 -9q-13 0 -16.5 11.5t-1.5 22.5l17 126q0 20 -5.5 31t-21.5 22l131 28q16 -7 25 -23.5t7 -42.5l-17 -127q0 -22 13 -22
l108 8q23 1 32.5 -10t2.5 -30z" />
    <glyph glyph-name="uni1291" unicode="&#x1291;" horiz-adv-x="515" 
d="M510 194q-17 25 -23.5 39.5t-6.5 31.5q0 7 1 14.5t4 18.5q1 6 1.5 8t0.5 4q0 12 -11 18l-171 -36l30 90q7 19 -2.5 30t-32.5 10l-108 -8q-13 0 -13 22l17 127q2 26 -7 42.5t-25 23.5l-131 -28q16 -11 21.5 -22t5.5 -31l-17 -126q-2 -11 1.5 -22.5t16.5 -11.5l106 9
q20 0 28 -4.5t3 -18.5l-57.5 -178t-30 -98.5t-11.5 -44t-2 -14.5q0 -16 9.5 -26.5t23.5 -12.5l118 24q-11 8 -13.5 28t4.5 39l60 181l50 11q6 -62 28.5 -86t59.5 -24q16 0 32.5 5t40.5 16z" />
    <glyph glyph-name="uni1292" unicode="&#x1292;" horiz-adv-x="462" 
d="M457 -6q-16 20 -26.5 50t-10.5 56q0 18 6 29q-10 5 -33 5q-44 -2 -74.5 -21t-30.5 -65l-44 -8q-10 0 -15 14.5t3 37.5l98 290q7 19 -3 30t-33 10l-108 -8q-13 0 -13 22l17 127q2 26 -7 42.5t-25 23.5l-131 -28q16 -11 21.5 -22t5.5 -31l-17 -126q-2 -11 1.5 -22.5
t17.5 -11.5l105 9q20 0 28.5 -4.5t3.5 -18.5l-57.5 -178l-30.5 -98.5t-12 -44t-2 -14.5q0 -16 10 -26.5t24 -12.5l165 31q8 -31 24.5 -42.5t48.5 -11.5q17 0 40.5 4t53.5 13z" />
    <glyph glyph-name="uni1293" unicode="&#x1293;" horiz-adv-x="478" 
d="M468 499l-32 -9t-30 -4q-48 0 -70.5 35.5t-24.5 87.5q-32 0 -54 -6t-37.5 -19.5t-25 -35t-15.5 -51.5q-9 -45 -9 -119q0 -10 1.5 -22t7.5 -22t18.5 -17t34.5 -7l106 19q18 0 28.5 -6.5t10.5 -30.5q-9 -77 -14.5 -119.5t-8.5 -63t-4 -25t-1 -5.5q0 -13 3.5 -25.5
t18.5 -26.5l-129 -27q-12 3 -20.5 20t-6.5 37l22 216q0 8 -12.5 16t-44.5 8l-104 -14q-26 0 -34.5 14t-8.5 48v62q4 63 17 104t37.5 65.5t61.5 35t88 12.5q26 3 48.5 3.5t51.5 0.5h105q10 0 10 -8q0 -4 -2 -11t-5 -14.5t-5 -14t-2 -9.5q0 -8 1 -18t4 -20t9 -19t16 -15z" />
    <glyph glyph-name="uni1294" unicode="&#x1294;" horiz-adv-x="413" 
d="M393 116q0 -22 -4.5 -41.5t-16.5 -34t-33 -23t-55 -8.5q-28 0 -52.5 3.5t-38.5 3.5q-11 0 -38 -8t-65 -8q-20 8 -25.5 25t3.5 39l115 330q0 11 -7.5 16t-25.5 5l-91 -9q-22 4 -22 30l20 132q0 24 -21 44l122 18q34 0 34 -45l-19 -138q0 -20 14 -20l87 4q27 -1 40 -7.5
t8 -23.5l-66 -186q7 1 19 2.5t46 4.5q45 0 58.5 -23.5t13.5 -81.5zM300 107q0 16 -1.5 32t-5 28.5t-9 21t-13.5 9.5l-21 -2l-52 -150q0 -10 11.5 -14t37.5 -4t39.5 21t13.5 58z" />
    <glyph glyph-name="uni1295" unicode="&#x1295;" horiz-adv-x="465" 
d="M445 382l-111 -306q-5 -14 -1 -27t16 -22l-128 -27q-11 3 -18 15.5t-7 30.5q0 12 5 29l109 306q1 5 -3 8.5t-9 3.5l-89 -11q-12 0 -17.5 3.5t-5.5 16.5l36 152q1 20 -5.5 33.5t-17.5 11.5l-44 -6q0 -38 -8 -63t-21 -40t-30.5 -21t-36.5 -6q-26 0 -50 15q15 23 21.5 37.5
t6.5 28.5q0 8 -5 22.5t-5 23.5q0 7 10 9l257 29q30 0 45 -9t15 -37q0 -3 -0.5 -8.5t-3.5 -21t-9.5 -46l-18.5 -83.5q0 -10 6.5 -14t14.5 -4l67 8q17 0 27.5 -9t7.5 -22z" />
    <glyph glyph-name="uni1296" unicode="&#x1296;" horiz-adv-x="542" 
d="M509 536q0 -14 -2 -29t-5.5 -29t-9.5 -25t-13 -15q-14 -8 -32.5 -6.5t-44.5 1.5q-12 0 -20 -1t-14 -2t-11 -2t-12 -1q-18 0 -30.5 2.5t-20 12t-11 27.5t-3.5 48v42q0 27 2 45q-14 0 -24 -1.5t-18.5 -6t-16.5 -12.5t-17 -22q-14 -20 -19 -71.5t-5 -126.5q0 -8 1 -16.5
t7 -15.5t18.5 -12t35.5 -5l113 16q17 0 21.5 -7t4.5 -23l-19 -209q-4 -20 2.5 -35.5t29.5 -25.5l-147 -31q-26 11 -26 54l18 217q-2 19 -18 22.5t-38 -0.5l-102 -17q-26 0 -34.5 13t-9.5 56l4 60q3 42 10 77.5t22 63.5t39 47.5t59 29.5q17 4 46.5 0.5t61.5 -3.5q29 -1 58 4
t64 5q33 0 53.5 -2.5t32 -12t16 -28t4.5 -50.5zM424 541q0 43 -5.5 56.5t-20.5 13.5q-8 0 -13.5 -3t-8.5 -12.5t-4 -26t-1 -43.5q0 -24 1 -39.5t4 -23.5t8.5 -11t14.5 -3q7 0 11.5 3.5t7.5 13t4.5 27.5t1.5 48z" />
    <glyph glyph-name="uni1297" unicode="&#x1297;" horiz-adv-x="538" 
d="M375 4h1q6 -27 11.5 -49t15.5 -37t26.5 -23t45.5 -8q24 0 57 18q-15 19 -20 34t-4 29q-1 4 -1 9v10t1 9.5t1 6.5q-1 7 -3.5 13t-10.5 11l-27 -2t-27.5 -2t-32 -1.5t-39.5 -0.5q-15 14 -17.5 30.5t-2.5 29.5q0 1 1 5.5t4 25t8 63l14 119.5q0 24 -10.5 30.5t-28.5 6.5
l-106 -19q-22 0 -34.5 7t-18.5 17t-7.5 22t-1.5 22q0 74 9 119q6 30 15.5 51.5t25 35t37.5 19.5t54 6q2 -52 24.5 -87.5t70.5 -35.5q17 0 30.5 4t31.5 8q-19 13 -24.5 35t-5.5 37q0 3 2.5 9.5t5 14l5 15t2.5 11.5q0 8 -11 8h-105q-29 0 -51.5 -0.5t-48.5 -4.5
q-51 -2 -88 -12t-61.5 -34.5t-37.5 -65.5t-17 -104v-63q0 -34 8.5 -47.5t34.5 -13.5l104 14q32 0 44.5 -8t12.5 -17l-22 -216q-1 -8 1 -20.5t5 -20.5q-31 -1 -67 -2t-83 -1q-9 -8 -9 -15q0 -2 0.5 -5t3.5 -8q2 -8 4 -14t1 -13q0 -15 -6 -33t-23 -40q10 -7 19 -8t18 0
q32 1 54 11.5t35.5 27t19.5 38t6 45.5z" />
    <glyph glyph-name="uni1298" unicode="&#x1298;" horiz-adv-x="564" 
d="M532 519q-29 38 -26 88q0 29 15 50q-71 4 -102 -9t-33 -55l-216 -7q-3 28 -13 43.5t-28.5 21t-45 4t-61.5 -5.5q13 -11 20.5 -26.5t5.5 -33.5q-2 -21 -7.5 -42.5t-24.5 -32.5q27 -2 58.5 -1.5t50.5 6.5q17 6 29 19.5t14 30.5l44 2l-27 -160q-2 -11 1.5 -22t16.5 -11
l106 9q20 0 28 -4t3 -18l-57.5 -173.5t-30 -96.5t-11.5 -43t-2 -14q0 -15 9.5 -25.5t23.5 -12.5l118 23q-11 8 -13.5 27.5t4.5 38.5l96 284q7 18 -2.5 28.5t-32.5 9.5l-108 -7q-13 0 -13 21l25 149l42 2q4 -33 23.5 -46t51.5 -15q6 0 15.5 0.5l19.5 1t19 1.5t15 1z" />
    <glyph glyph-name="uni1299" unicode="&#x1299;" horiz-adv-x="647" 
d="M642 176q-17 25 -23.5 39.5t-6.5 31.5q0 7 1 14.5t4 18.5q1 6 1.5 8t0.5 4q0 12 -11 18l-166 -36l33 99q7 18 -3 28.5t-33 9.5l-108 -7q-12 0 -12 21l23 149l43 2q5 -33 24.5 -46t51.5 -15q6 0 15.5 0.5l19.5 1t19 1.5t15 1q-31 38 -26 88q0 29 15 50q-71 4 -102 -9.5
t-34 -54.5l-215 -7q-3 28 -13.5 43.5t-29 21t-45 4t-61.5 -5.5q14 -11 21.5 -26.5t5.5 -33.5q-2 -21 -8 -42.5t-25 -32.5q28 -2 59 -1.5t51 6.5q17 6 29 19.5t14 30.5l42 2l-25 -160q-2 -11 1 -22t17 -11l105 9q20 0 28.5 -4t3.5 -18l-57.5 -173.5t-30 -96.5t-11.5 -43
t-2 -14q0 -15 9.5 -25.5t23.5 -12.5l118 23q-11 8 -14 27.5t4 38.5l57 166l46 10q6 -62 28.5 -86t59.5 -24q16 0 32.5 5t40.5 16z" />
    <glyph glyph-name="uni129A" unicode="&#x129a;" horiz-adv-x="606" 
d="M601 -11q-17 20 -27 50t-10 56q0 19 5 29q-8 6 -32 6q-44 -2 -74.5 -21.5t-30.5 -65.5l-43 -6q-11 0 -14 15t5 37l96 284q8 18 -2 28.5t-33 9.5l-108 -7q-13 0 -13 21l24 149l43 2q5 -33 24 -46t51 -15q6 0 15.5 0.5l19.5 1t19 1.5t15 1q-29 38 -26 88q0 29 15 50
q-70 4 -101.5 -9t-33.5 -55l-216 -7q-3 28 -13 43.5t-28.5 21t-45 4t-61.5 -5.5q13 -11 20.5 -26.5t5.5 -33.5q-2 -21 -7.5 -42.5t-24.5 -32.5q27 -2 58.5 -1.5t51.5 6.5q17 6 29 19.5t14 30.5l43 2l-27 -160q-2 -11 1.5 -22t17.5 -11l105 9q20 0 28 -4t3 -18l-57.5 -173.5
t-30 -96.5t-11.5 -43t-2 -14q0 -15 8 -26.5t25 -11.5l163 26q8 -30 24.5 -42t47.5 -12q17 0 41 4t54 13z" />
    <glyph glyph-name="uni129B" unicode="&#x129b;" horiz-adv-x="530" 
d="M501 576q-26 32 -23 79q0 28 13 45q-63 4 -90.5 -8t-29.5 -49l-190 -8q-3 26 -12 40t-25 19t-39 3.5t-54 -5.5q11 -10 17.5 -23.5t4.5 -30.5q-2 -18 -6.5 -37t-21.5 -30q23 -2 51 -1t45 6q15 5 25.5 17t12.5 28h42l-6 -76q-44 -3 -75 -14t-52 -32.5t-32.5 -56.5
t-15.5 -87v-50q0 -30 8.5 -42.5t33.5 -12.5l105 13q32 0 44 -7t12 -15l-21 -191q-2 -17 6 -32t21 -18l129 24q-15 12 -18.5 23.5t-3.5 21.5q0 1 1 5.5t4 22.5t8 55.5l14 106.5q0 21 -10 27t-29 6l-106 -18q-22 0 -34.5 6t-18.5 15t-7 19.5t-1 19.5q0 35 2 58.5t7 43.5
q6 27 14.5 45.5t24 29.5t40.5 16t65 5q1 -46 23 -78.5t69 -32.5q17 0 33 4t32 11q-18 14 -24 32t-6 32q0 3 2 9t5 12.5t5 13t2 9.5q0 8 -10 8l-136 -4l6 77l42 1q4 -29 21 -41t46 -14q5 0 13 1t17 1.5t17 1.5t14 1z" />
    <glyph glyph-name="uni129C" unicode="&#x129c;" horiz-adv-x="580" 
d="M536 519q-29 38 -26 88q0 29 15 50q-70 4 -101.5 -9t-33.5 -55l-216 -7q-3 28 -13 43.5t-28.5 21t-45 4t-61.5 -5.5q13 -11 20.5 -26.5t5.5 -33.5q-2 -21 -7.5 -42.5t-24.5 -32.5q27 -2 58.5 -1.5t50.5 6.5q17 6 29.5 19.5t14.5 30.5l44 2l-29 -171q0 -21 23 -27l91 9
q18 0 25.5 -4t7.5 -15l-115 -305q-9 -20 -3.5 -35t25.5 -23q38 0 64.5 7.5t37.5 7.5q15 0 39 -3.5t53 -3.5q33 0 54.5 7.5t33.5 21t16.5 31.5t4.5 39q0 52 -13.5 74t-58.5 22q-17 -1 -28 -2t-18 -2t-11 -1.5t-8 -0.5l66 171q5 16 -8.5 22t-39.5 7l-87 -5q-14 0 -14 19
l25 163l42 2q5 -33 24 -46t51 -15q6 0 15.5 0.5l19.5 1t19 1.5t15 1zM452 99q0 -34 -14 -53.5t-39 -19.5q-26 0 -37.5 4t-11.5 12l52 139l20 1q9 0 14.5 -7.5t9 -19.5t5 -26.5t1.5 -29.5z" />
    <glyph glyph-name="uni129D" unicode="&#x129d;" horiz-adv-x="491" 
d="M461 576l-163 -11l-2 -48l33 2q17 2 26 -7t5 -23l-35 -125q0 -15 9 -15l72 9q13 2 20.5 0t11.5 -6.5t4.5 -10t-0.5 -8.5l-105 -259v-1q-5 -18 -4.5 -27.5t6.5 -26.5l-121 -19q-11 0 -20.5 14t-9.5 33q0 12 5 27l106 245q0 12 -28 12l-53 -6q-12 0 -18 3t-6 16l33 131
q0 12 -10 12l-56 -6q-3 -33 -12 -55t-23.5 -36t-32.5 -20t-38 -6q-12 0 -23.5 2t-22.5 7q16 23 22 40t6 31q0 5 -5 17t-5 16q0 6 11 8l155 16l2 60l-173 -12q7 8 11 22t3 28q-2 31 -25 65q13 8 26.5 11.5t27.5 5.5q41 2 64 -19.5t32 -85.5l166 10q3 55 23.5 83t63.5 30
q11 2 23 -0.5t24 -6.5q-9 -13 -14.5 -32t-4.5 -36q1 -14 4 -22.5t15 -25.5z" />
    <glyph glyph-name="uni129E" unicode="&#x129e;" horiz-adv-x="540" 
d="M508 459q0 27 -4.5 42.5t-16 23.5t-32 10t-52.5 2q-24 0 -45 -2l-41 -4l6 82l55 1q5 -29 22 -41t46 -14q5 0 13 0.5t17 1t17 1.5t14 1q-27 35 -23 80q0 25 12 45q-62 3 -89.5 -9t-29.5 -49l-207 -7q-2 26 -11 39.5t-25.5 18.5t-39.5 3.5t-54 -5.5q11 -10 17.5 -23.5
t4.5 -30.5q-1 -18 -6 -37t-22 -30q24 -2 51.5 -1t44.5 6q15 6 25.5 18t12.5 27h42l-6 -75q-16 1 -31 -2q-35 -8 -58.5 -24.5t-38.5 -39.5t-22 -53t-10 -66l-4 -59q1 -36 9.5 -46.5t34.5 -10.5l101 15q22 2 38 -1t18 -19l-18 -182q0 -36 26 -45l147 26q-23 8 -29.5 21
t-2.5 30l19 175q0 14 -4.5 20t-21.5 6l-113 -14q-23 0 -35.5 4t-18.5 10t-7 13t-1 13q0 64 5 112t19 65q9 12 17 18.5t16.5 10.5t18.5 5t24 1q-2 -16 -2 -38v-34q0 -26 3.5 -41.5t11 -23.5t20 -10t30.5 -2q14 0 23 2.5t33 2.5q26 0 45 -1t32 6q7 3 13 12t9.5 20.5t5.5 24.5
t2 25zM423 463q0 -26 -1.5 -41t-4.5 -23t-7.5 -11t-10.5 -3q-17 0 -22.5 12t-5.5 53q0 45 5 58t22 13q14 0 19.5 -11t5.5 -47z" />
    <glyph glyph-name="uni129F" unicode="&#x129f;" horiz-adv-x="550" 
d="M387 7h1q6 -28 11.5 -49.5t15 -36.5t26.5 -23t45 -8q24 0 58 17q-15 19 -20 34t-4 29q-1 5 -1 10v10t0.5 9t0.5 6q0 7 -3 13.5t-11 11.5l-27.5 -2t-29 -2t-34 -2t-42.5 -2q-3 7 -5 21.5t-2 27.5q0 1 1 5.5t4 22.5t8 55.5l14 106.5q0 21 -10.5 26.5t-28.5 5.5l-106 -17
q-22 0 -34.5 6t-18.5 15t-7 19.5t-1 19.5q0 35 2 58t7 43q6 27 14 45.5t23.5 30t41 16.5t65.5 5q1 -47 23 -79t69 -32q33 0 65 15q-18 13 -24 31.5t-6 32.5q0 3 2 8.5t5 12t5 13t2 9.5q0 8 -10 8l-136 -3l6 77l42 1q4 -29 21 -41t46 -14q5 0 13 0.5t17 1.5t17 2t14 1
q-26 32 -23 79q0 25 12 45q-62 3 -89.5 -8.5t-29.5 -49.5l-190 -7q-3 26 -12 39.5t-25 19t-39 4t-54 -5.5q11 -11 17.5 -24t4.5 -30q-2 -18 -6.5 -37.5t-21.5 -30.5q23 -1 51 0t45 6q15 5 25.5 17t12.5 28h42l-6 -76q-44 -3 -75 -14t-52 -32.5t-32.5 -56.5t-15.5 -87v-50
q0 -30 8.5 -42.5t33.5 -12.5l105 13q32 0 44 -7t12 -15l-21 -191q-1 -6 -0.5 -15t2.5 -17h-1q-30 -1 -67 -2t-85 -1q-9 -9 -9 -15q0 -5 4 -13q2 -8 4.5 -14.5t0.5 -13.5q0 -15 -5.5 -32.5t-22.5 -40.5q10 -7 18.5 -8t18.5 0q32 1 54 12t35.5 27.5t19 38t5.5 45.5z" />
    <glyph glyph-name="uni12A0" unicode="&#x12a0;" horiz-adv-x="582" 
d="M569 29l-149 -32q-9 9 -14.5 18t-9.5 20.5t-7 26.5t-6 36l-19 122q-10 58 -18 89.5t-15.5 46.5t-15.5 17t-17 1l-21 -2q-39 -88 -60.5 -140.5t-32 -82.5t-12.5 -43t-1 -21q2 -19 11 -33.5t24 -18.5l-135 -33q-13 11 -22 31.5t-9 38.5q0 13 4.5 34t19.5 63.5t44 113
l79 183.5l-97 -29q5 8 8 23t2 31q0 16 -2 33t-7 32t-14.5 27.5t-25.5 20.5l139 30q8 -4 15.5 -16.5t11.5 -26.5l9 -106l116 25l-60 -121l127 19q29 0 45 -21t24 -66l35 -196q6 -35 15 -58.5t41 -35.5z" />
    <glyph glyph-name="uni12A1" unicode="&#x12a1;" horiz-adv-x="695" 
d="M691 210q-17 24 -23.5 39t-6.5 32q0 6 1 14t4 18q1 6 1.5 8.5t0.5 4.5q0 10 -11 18l-176 -39l-3 14q-8 45 -24 66t-45 21l-127 -19l60 121l-116 -25l-9 106q-4 14 -11.5 26.5t-15.5 16.5l-139 -30q16 -8 25.5 -20.5t14.5 -27.5t7 -32t2 -33q1 -16 -2 -31t-8 -23l97 29
l-79 -183.5t-44 -113t-19.5 -63.5t-4.5 -34q0 -18 9 -38.5t22 -31.5l135 33q-15 4 -24 18.5t-11 33.5q-1 8 1 21t12.5 43t32 82.5t60.5 140.5l21 2q9 1 17 -1t15.5 -17t15.5 -46.5t18 -89.5l19 -122q3 -21 6 -36t7 -26.5t9.5 -20.5t14.5 -18l149 32q-32 12 -41 35.5
t-15 58.5l-30 165l47 10q6 -62 28.5 -86t59.5 -24q16 0 32.5 5t40.5 17z" />
    <glyph glyph-name="uni12A2" unicode="&#x12a2;" horiz-adv-x="760" 
d="M754 -5q-17 20 -27.5 50.5t-10.5 56.5q0 9 2 16t4 12q-9 6 -32 6q-22 -1 -41 -6t-33.5 -15t-23 -26t-8.5 -40l-30 -8q-8 0 -14 7.5t-11 19.5t-8.5 26.5t-5.5 28.5l-35 196q-8 45 -24 66t-45 21l-127 -19l60 121l-117 -25l-9 106q-4 14 -11 26.5t-15 16.5l-140 -30
q16 -8 25.5 -20.5t15 -27.5t7 -32t2.5 -33t-2 -31t-8 -23l96 29l-79 -183.5t-44 -113t-19 -63.5t-5 -34q0 -18 9.5 -38.5t21.5 -31.5l136 33q-15 4 -24.5 18.5t-10.5 33.5q-1 8 1 21t12 43t32 82.5l61 140.5l21 2q9 1 17 -1t15.5 -17t15 -46.5t17.5 -89.5l19 -122
q3 -21 6 -36t7 -26.5t10 -20.5t15 -18l165 35q8 -30 24.5 -42t47.5 -12q33 0 95 17z" />
    <glyph glyph-name="uni12A3" unicode="&#x12a3;" horiz-adv-x="570" 
d="M558 31l-150 -31q-9 9 -14.5 18t-9.5 20.5t-7 26.5t-6 36l-19 122q-10 58 -18 89.5t-15.5 46.5t-15.5 17t-17 1l-23 -2l-55.5 -102.5t-31 -61t-13.5 -32.5t-2 -17q2 -17 9 -29t17 -13l-125 -26q-12 8 -21 24.5t-9 31.5q0 11 4.5 28t19 51t43 91t78.5 147l-95 -30
q5 8 8 23.5t2 30.5q-1 16 -2.5 33t-7 32.5t-15 28t-25.5 20.5l140 29q8 -3 15 -15.5t11 -26.5l9 -106l113 25l-60 -121l128 19q29 0 45 -21.5t23 -66.5l35 -195q3 -18 6.5 -32.5t9.5 -26.5t15.5 -21t25.5 -15z" />
    <glyph glyph-name="uni12A4" unicode="&#x12a4;" horiz-adv-x="681" 
d="M675 100q-2 27 -5.5 47t-12.5 32.5t-25 17t-43 1.5l-89 -12l-20 133q-8 45 -24 66t-45 21l-127 -19l60 121l-117 -25l-9 106q-4 14 -11 26.5t-15 16.5l-140 -30q16 -8 25.5 -20.5t15 -27.5t7 -32t2.5 -33t-2 -31t-8 -23l96 29l-79 -183.5t-44 -113t-19 -63.5t-5 -34
q0 -18 9.5 -38.5t21.5 -31.5l136 33q-15 4 -24.5 18.5t-10.5 33.5q-1 8 1 21t12 43t32 82.5l61 140.5l21 2q9 1 17 -1t15 -16t15 -44.5t17 -85.5l25 -180q3 -14 12.5 -27t20.5 -18q15 0 33 2l38.5 4.5t41.5 4.5t41 2q21 0 39.5 5.5t32 16.5t21 27t6.5 36zM584 96
q5 -34 -4 -51.5t-45 -17.5q-11 0 -14.5 15t-6.5 35l-13 95l39 5q9 0 15.5 -3t11.5 -12t9 -24.5t8 -41.5z" />
    <glyph glyph-name="uni12A5" unicode="&#x12a5;" horiz-adv-x="588" 
d="M571 26q-32 11 -41 32t-15 54l-35 182q-8 41 -24 60t-46 19l-127 -17l50 103l-116 -23l56 114l-94 -21q14 15 15 43q1 22 -10 38.5t-25 22.5q-15 6 -41.5 3.5t-62.5 -10.5q16 -10 21 -36q3 -21 -3.5 -45t-19.5 -41q12 0 25 0.5l26 1t23.5 1t17.5 2.5l-51 -111l91 20
q-50 -102 -79 -166t-43.5 -102t-18.5 -56t-4 -30q0 -17 9 -35.5t22 -28.5l136 30q-15 3 -24.5 16.5t-11.5 29.5q-1 7 1 20t12.5 41t32.5 76.5l61 128.5l21 3q9 1 17 -1t15.5 -15.5t15.5 -42.5t17 -81l19 -116q7 -38 13.5 -57t24.5 -35z" />
    <glyph glyph-name="uni12A6" unicode="&#x12a6;" horiz-adv-x="575" 
d="M551 113l-142 -28q-17 13 -22.5 28t-10.5 45l-14 88q-8 41 -15 66.5t-14.5 39t-15.5 18t-17 3.5l-21 -3l-61 -140.5t-32 -82.5t-12 -43t-1 -21q1 -19 10.5 -33.5t24.5 -18.5l-136 -33q-12 11 -21.5 31.5t-9.5 38.5q1 13 5 34t19 63.5t44 113.5t79 184l-96 -30q5 8 8 23
t2 31t-2.5 33t-7 32.5t-15 27.5t-25.5 20l140 30q8 -4 15 -16t11 -26l9 -107l117 26l-60 -122l127 19q15 0 26 -7.5t19.5 -20t14 -28t8.5 -31.5l18 -96q9 -45 23.5 -75t30.5 -33z" />
    <glyph glyph-name="uni12A7" unicode="&#x12a7;" horiz-adv-x="681" 
d="M317 593l42 2q4 -32 23 -45t51 -15q6 -1 15.5 -0.5l19.5 1t19 1.5t15 1q-12 15 -20 41t-6 47q2 14 6 28.5t9 20.5q-70 6 -101 -7.5t-33 -55.5l-184 -11q-3 28 -13 43t-29 21t-46 4.5t-63 -5.5q14 -11 21.5 -28t6.5 -30q-3 -24 -13 -45.5t-21 -29.5q28 -2 60 -2t52 7
q17 6 29 19t14 30l28 2q0 -24 -1 -48.5t-3 -46t-5 -39t-7 -26.5l97 25l-79 -182t-44 -109t-19 -59t-4 -32q0 -18 9 -38.5t21 -31.5l136 33q-15 4 -24.5 18.5t-10.5 33.5q-1 8 1 19t12 38.5t31.5 78l60.5 138.5l21 3q9 1 17 -1.5t15.5 -17t15.5 -46t18 -89.5l19 -110l7 -36
t7 -26.5t9.5 -20.5t14.5 -18l149 32q-32 12 -41 35.5t-15 58.5l-36 183q-8 45 -24 66t-45 21l-127 -19l60 122l-124 -25q1 15 2.5 32t2.5 33.5t1 31.5v25z" />
    <glyph glyph-name="uni12A8" unicode="&#x12a8;" horiz-adv-x="563" 
d="M530 28l-132 -28q-22 14 -29 37t-7 64l8 278q0 63 -10.5 91t-45.5 28q-29 0 -46 -25t-26 -65t-11.5 -89.5t-2.5 -97.5v-118q0 -12 0.5 -22.5t4 -19.5t11.5 -17.5t22 -15.5l-130 -28q-25 14 -32.5 37.5t-7.5 65.5l1 118q0 25 2 52.5t7 54t15 51t25 44.5l-119 -13
q8 20 12.5 48.5t5.5 57.5q0 18 -0.5 29.5t-3 19.5t-7 15.5t-12.5 18.5l132 30q22 0 22 -16l-6 -151l35.5 21t37.5 17.5t44.5 12t54.5 4.5q95 0 127 -39q35 -40 35 -130l-7 -246q0 -26 4 -44.5t29 -29.5z" />
    <glyph glyph-name="uni12A9" unicode="&#x12a9;" horiz-adv-x="699" 
d="M696 256q-16 14 -26.5 36t-12.5 44q0 22 13 40q-71 -3 -103 -19q-27 -13 -24 -52l-37 -7l1 50q0 92 -35 130q-32 39 -127 39q-30 0 -54 -4.5t-44.5 -12t-38 -17.5l-35.5 -21l6 151q0 16 -22 16l-132 -30q8 -11 12.5 -18.5t7 -15.5t3 -19.5t0.5 -29.5q-1 -29 -5.5 -57.5
t-12.5 -48.5l119 13q-15 -20 -24.5 -44.5t-15 -51t-7.5 -54t-2 -52.5v-118q0 -42 7 -65.5t32 -37.5l131 28q-14 7 -22 15.5t-11.5 17.5t-4 19.5t-0.5 22.5v118q0 48 2.5 97.5t11.5 89.5t25.5 65t45.5 25q35 0 46 -28t11 -91l-9 -278q0 -41 7 -64t29 -37l132 28
q-25 11 -29 27.5t-4 41.5l5 183l39 7q8 -31 27 -39t46 -6q8 1 23 3.5t35 6.5q4 1 9 1.5t12 2.5z" />
    <glyph glyph-name="uni12AA" unicode="&#x12aa;" horiz-adv-x="706" 
d="M699 5q-17 14 -28.5 37t-13.5 45q-2 12 1.5 22.5t8.5 19.5q-69 -7 -102 -26q-24 -13 -21 -53l-33 -6q-11 1 -14 21.5t-3 40.5l6 242q0 92 -34 130q-33 39 -127 39q-31 0 -55 -4.5t-44 -12t-37.5 -17.5l-35.5 -21l6 151q0 16 -23 16l-132 -30q9 -11 13.5 -18.5t6.5 -15.5
t2.5 -19.5t0.5 -29.5q0 -29 -5 -57.5t-13 -48.5l120 13q-15 -20 -25 -44.5t-15 -51t-7 -54t-2 -52.5l-1 -118q0 -42 7.5 -65.5t32.5 -37.5l130 28q-14 7 -22 15.5t-11.5 17.5t-4 19.5t-0.5 22.5v118q0 48 2.5 97.5t11.5 89.5t25.5 65t45.5 25q35 0 46 -28t11 -91l-8 -278
q0 -41 6.5 -64t28.5 -37l152 32q9 -29 28.5 -38.5t46.5 -6.5q4 0 13.5 2t21 5l23 6t20.5 5z" />
    <glyph glyph-name="uni12AB" unicode="&#x12ab;" horiz-adv-x="563" 
d="M530 28l-132 -28q-22 14 -28.5 37t-6.5 64l8 278q0 63 -11 91t-45 28q-29 0 -45.5 -18.5t-25.5 -48.5t-11.5 -66.5t-2.5 -72.5v-61q0 -24 6.5 -46t31.5 -37l-129 -27q-17 7 -28 31t-11 56v77q0 19 3.5 39.5t10 39t15 34.5t18.5 25l-120 -13q8 20 13 48.5t6 57.5
q0 18 -0.5 29.5t-3 19.5t-7 15.5t-13.5 18.5l132 30q23 0 23 -16l-6 -151l35.5 21t37.5 17.5t44 12t55 4.5q94 0 127 -39q35 -40 35 -130l-7 -246q0 -26 4 -44.5t28 -29.5z" />
    <glyph glyph-name="uni12AC" unicode="&#x12ac;" horiz-adv-x="670" 
d="M665 137q0 22 -7.5 36t-19.5 21.5t-27.5 9.5t-31.5 0l-82 -6l7 150q0 90 -35 130q-32 39 -127 39q-30 0 -54.5 -4.5t-44.5 -12t-37.5 -17.5l-35.5 -21l6 151q0 16 -22 16l-132 -30q8 -11 12.5 -18.5t7 -15.5t3 -19.5t0.5 -29.5q-1 -29 -5.5 -57.5t-12.5 -48.5l119 13
q-15 -20 -25 -44.5t-15 -51t-7 -54t-2 -52.5l-1 -118q0 -42 7.5 -65.5t32.5 -37.5l130 28q-14 7 -22 15.5t-11.5 17.5t-4 19.5t-0.5 22.5v118q0 48 2.5 97.5t11.5 89.5t26 65t46 25q35 0 45.5 -28t10.5 -91l-8 -278q0 -41 7 -64t29 -37q33 2 53 3t31 2l16.5 1.5t10.5 0.5
q12 0 28 -4.5t42 -2.5q25 1 42 6t26.5 19t13.5 40.5t4 71.5zM569 132q0 -36 -0.5 -58t-4.5 -34.5t-11 -16.5t-19 -4q-13 0 -20.5 5.5t-11.5 14.5t-5.5 21t-1.5 25l1 96q14 1 23 1h14q20 -3 28 -15t8 -35z" />
    <glyph glyph-name="uni12AD" unicode="&#x12ad;" horiz-adv-x="563" 
d="M181 466l12 147q0 8 -6.5 12.5t-16.5 4.5l-130 -23q8 -11 14 -37.5t6 -53.5q0 -26 -5 -57.5t-12 -48.5l96 12l5 3q-11 -11 -22.5 -27t-20.5 -34t-15 -34.5t-6 -26.5q0 -13 10 -13h4l59 11q-15 -9 -28.5 -28.5t-23.5 -44.5t-16.5 -53.5t-7.5 -53.5v-35q3 -27 10 -53.5
t21 -32.5l143 29q-16 3 -25.5 30t-9.5 60q0 29 3.5 59t9.5 56.5t14 47.5t17 33q5 7 11.5 13.5t4.5 14.5q-3 6 -10 6t-11 -1l-24 -3q-8 -2 -12 -2q-16 0 -16 17v8t2 7q9 27 22 51t28 42t32.5 28.5t35.5 10.5q21 0 33 -14.5t17.5 -37t6 -49.5t-1.5 -51l-20 -254
q-4 -48 2.5 -69t24.5 -32l134 29q-17 17 -20 37.5t-3 44.5l19 273q5 75 -35 107.5t-129 32.5q-51 0 -95 -15.5t-75 -42.5z" />
    <glyph glyph-name="uni12AE" unicode="&#x12ae;" horiz-adv-x="558" 
d="M530 166l-130 -18q-21 8 -28 30t-7 46l9 155q0 19 -3 40t-10 38.5t-18.5 29t-28.5 11.5q-29 0 -46 -25t-26 -65t-11.5 -89.5t-2.5 -97.5v-118q0 -12 0.5 -22.5t4 -19.5t11.5 -17.5t22 -15.5l-130 -28q-25 14 -32.5 37.5t-7.5 65.5l1 118q0 25 2 52.5t7 54t15 51t25 44.5
l-119 -13q8 20 12.5 48.5t5.5 57.5q0 18 -0.5 29.5t-3 19.5t-7 15.5t-12.5 18.5l132 30q22 0 22 -16l-6 -151l35.5 21t37.5 17.5t44.5 12t54.5 4.5q95 0 127 -39q9 -10 15.5 -24.5t11 -30.5t7 -32.5t1.5 -30.5l-6 -117q0 -16 4 -35.5t28 -41.5z" />
    <glyph glyph-name="uni12B0" unicode="&#x12b0;" horiz-adv-x="798" 
d="M793 281q1 28 -2.5 47t-10 31t-16 17t-20.5 4l-240 -25q-1 85 -35 123q-32 39 -127 39q-30 0 -54.5 -4.5t-44.5 -12t-37.5 -17.5l-35.5 -21l6 151q0 16 -22 16l-132 -30q8 -11 12.5 -18.5t7 -15.5t3 -19.5t0.5 -29.5q-1 -29 -5.5 -57.5t-12.5 -48.5l119 13
q-15 -20 -25 -44.5t-15 -51t-7 -54t-2 -52.5l-1 -118q0 -42 7.5 -65.5t32.5 -37.5l130 28q-14 7 -22 15.5t-11.5 17.5t-4 19.5t-0.5 22.5v118q0 48 2.5 97.5t11.5 89.5t26 65t46 25q35 0 45.5 -28t10.5 -91l-8 -278q0 -41 7 -64t29 -37l132 28q-25 11 -29 29.5t-4 44.5
l6 235l41 4q-3 -82 10 -116.5t37 -35.5q12 -1 22 1t21 4.5t24 5t31 2.5q35 0 55.5 6.5t31 17t13.5 25t4 30.5zM677 217q-17 -2 -24.5 15t-11.5 51t3.5 51t21.5 19q17 2 24 -13.5t11 -47.5q4 -38 -2.5 -55.5t-21.5 -19.5z" />
    <glyph glyph-name="uni12B2" unicode="&#x12b2;" horiz-adv-x="879" 
d="M712 297q5 -57 27 -84.5t75 -27.5q29 0 58 15q-35 47 -35 77q0 7 5 22t5 25q0 8 -10 8l-154 -22l18 147q2 23 -6.5 38t-23.5 13l-136 -21q14 -6 23 -22t6 -37l-7 -64l-53 -7q-3 85 -35 121q-32 39 -127 39q-30 0 -54.5 -4.5t-44.5 -12t-37.5 -17.5l-35.5 -21l6 151
q0 16 -22 16l-132 -30q8 -11 12.5 -18.5t7 -15.5t3 -19.5t0.5 -29.5q-1 -29 -5.5 -57.5t-12.5 -48.5l119 13q-15 -20 -25 -44.5t-15 -51t-7 -54t-2 -52.5l-1 -118q0 -42 7.5 -65.5t32.5 -37.5l130 28q-14 7 -22 15.5t-11.5 17.5t-4 19.5t-0.5 22.5v118q0 48 2.5 97.5
t11.5 89.5t26 65t46 25q35 0 45.5 -28t10.5 -91l-8 -278q0 -41 7 -64t29 -37l132 28q-25 11 -29 29.5t-4 44.5l6 236l51 7l-5 -66z" />
    <glyph glyph-name="uni12B3" unicode="&#x12b3;" horiz-adv-x="701" 
d="M689 -85q-14 6 -23 22t-7 31l4 104q2 50 -20.5 72.5t-84.5 22.5q-17 0 -32.5 -0.5t-28.5 -0.5l1 183q0 46 -7.5 78t-25.5 52.5t-48 29.5t-75 9q-30 0 -54.5 -4.5t-44.5 -12t-37.5 -17.5l-35.5 -21l6 151q0 16 -22 16l-132 -30q8 -11 12.5 -18.5t7 -15.5t3 -19.5
t0.5 -29.5q-1 -29 -5.5 -57.5t-12.5 -48.5l119 13q-20 -27 -35 -70t-15 -108q0 -36 9.5 -66t23.5 -38l130 28q-23 14 -27 44.5t-4 72.5q0 44 6.5 82.5t18.5 67.5t27.5 46t33.5 17q35 0 45.5 -28.5t10.5 -91.5v-223l-138 -24q-10 -2 -10 -7q0 -2 0.5 -4l1.5 -6q5 -17 5 -27
q0 -17 -4.5 -33t-24.5 -42q25 -22 64 -22q43 0 74 38.5t35 112.5l126 8q20 2 31.5 -19.5t8.5 -53.5l-9 -148q0 -14 9.5 -29t23.5 -13z" />
    <glyph glyph-name="uni12B4" unicode="&#x12b4;" horiz-adv-x="672" 
d="M661 160q0 22 -7.5 36.5t-19.5 22t-28 9.5t-32 0l-80 -7l6 125q2 46 -8 78t-27 52q-34 40 -127 40q-31 0 -55 -4.5t-44 -12t-37.5 -18l-35.5 -21.5l6 151q0 16 -23 16l-132 -29q9 -11 13.5 -19t7 -16t3 -19.5t0.5 -29.5q-1 -29 -6 -57t-13 -48l120 12
q-20 -27 -34.5 -63.5t-14.5 -69.5l-1 -60q0 -42 7.5 -66t32.5 -38l130 28q-14 7 -22 15.5t-11.5 17.5t-4 20t-0.5 23v60q0 45 6.5 83.5t18.5 66t27.5 43t33.5 15.5q35 0 46.5 -28t9.5 -91l-14 -331q-5 -4 -24.5 -8.5t-42 -8t-43.5 -6t-30 -2.5q-10 -6 -10 -13q0 -5 5 -14.5
t5 -17.5q0 -14 -8 -28t-30 -36q14 -12 29 -19.5t34 -7.5q21 0 40.5 9.5t35 27t25 43t9.5 57.5l142 11q12 0 35.5 -5.5t49.5 -4.5t43 6t26.5 19t13.5 40.5t4 71.5zM565 156q0 -36 -0.5 -58.5t-4.5 -35t-11 -16.5t-19 -4q-13 0 -21 5.5t-12.5 15t-6.5 21.5t-2 24l4 96
q14 1 23 1h14q20 -2 28 -14t8 -35z" />
    <glyph glyph-name="uni12B5" unicode="&#x12b5;" horiz-adv-x="846" 
d="M540 323l-37 -5l1 30q0 90 -35 130q-32 39 -127 39q-30 0 -54.5 -4.5t-44.5 -12t-37.5 -17.5l-35.5 -21l6 151q0 16 -22 16l-132 -30q8 -11 12.5 -18.5t7 -15.5t3 -19.5t0.5 -29.5q-1 -29 -5.5 -57.5t-12.5 -48.5l119 13q-15 -20 -25 -44.5t-15 -51t-7 -54t-2 -52.5
l-1 -118q0 -42 7.5 -65.5t32.5 -37.5l130 28q-14 7 -22 15.5t-11.5 17.5t-4 19.5t-0.5 22.5v118q0 48 2.5 97.5t11.5 89.5t26 65t46 25q35 0 45.5 -28t10.5 -91l-8 -278q0 -41 7 -64t29 -37l132 28q-25 11 -29 29.5t-4 44.5l5 198l171 17q6 -66 35 -95t69 -29q17 0 32.5 5
t31.5 13q-17 25 -25 46t-8 36q0 7 3.5 20.5l5.5 21.5q0 8 -11 13l-140 -13l10 112q3 24 -6 36.5t-23 9.5l-118 -24q14 -11 17.5 -21t3.5 -24z" />
    <glyph glyph-name="uni12B8" unicode="&#x12b8;" horiz-adv-x="676" 
d="M659 27q-24 10 -28 28t-4 42l6 235q0 88 -35 123q-32 38 -127 38q-30 0 -54 -4t-44 -11t-37.5 -17l-35.5 -21l14 145l41 2q5 -32 24 -45.5t51 -15.5q6 -1 15.5 -0.5t19.5 1.5t19 2t15 1q-13 15 -20.5 40.5t-5.5 47.5q2 14 6 28.5t9 20.5q-70 6 -101 -7.5t-33 -55.5
l-189 -11q-2 28 -12.5 43t-29 21t-45.5 4.5t-63 -5.5q13 -11 21 -28t6 -30q-2 -24 -12.5 -45.5t-21.5 -29.5q29 -2 60 -2q32 0 52 7q17 5 29.5 18t14.5 31l33 3l-20 -170q-2 -8 0 -13.5t7 -4.5l92 11q-11 -13 -19.5 -34.5t-15.5 -47.5t-10.5 -54.5t-3.5 -55.5l-1 -112
q0 -40 7 -63t33 -36l130 27q-14 7 -22 14.5t-11.5 16.5t-4 19t-0.5 22v112q0 46 2.5 93t11.5 84.5t25.5 61.5t45.5 24q35 0 46 -26t11 -86l-9 -266q0 -38 7 -60.5t29 -35.5z" />
    <glyph glyph-name="uni12B9" unicode="&#x12b9;" horiz-adv-x="847" 
d="M839 211q-17 24 -24 39t-7 32q0 10 5 32q2 6 2.5 8.5t0.5 4.5q0 10 -11 18l-176 -38q1 63 -8 96.5t-26 51.5q-32 38 -127 38q-30 0 -54 -4t-44.5 -11t-38 -17l-35.5 -21l14 145l42 2q5 -32 24 -45.5t51 -15.5q6 -1 15 -0.5t19.5 1.5t19.5 2t15 1q-13 15 -20.5 40.5
t-5.5 47.5q1 14 5.5 28.5t9.5 20.5q-70 6 -101 -7.5t-34 -55.5l-188 -11q-3 28 -13 43t-29 21t-45.5 4.5t-62.5 -5.5q13 -11 21 -28t6 -30q-2 -24 -12.5 -45.5t-21.5 -29.5q28 -2 60 -2t52 7q17 5 29 18t14 31l33 3l-20 -170q-2 -8 0.5 -13.5t7.5 -4.5l91 11
q-15 -19 -24.5 -42.5t-15 -48.5t-7.5 -51t-2 -50l-1 -112q0 -40 7.5 -63t32.5 -36l131 27q-29 14 -34 31t-5 41v112q0 46 2.5 93t11.5 84.5t26 61.5t46 24q35 0 45.5 -26t10.5 -86l-8 -266q0 -38 7 -60.5t29 -35.5l132 27q-25 10 -29 28t-4 42l5 191l50 11q6 -62 28 -86
t60 -24q16 0 32.5 5t40.5 17z" />
    <glyph glyph-name="uni12BA" unicode="&#x12ba;" horiz-adv-x="858" 
d="M852 -4q-16 20 -26.5 50.5t-10.5 56.5q0 9 2 16t4 12q-9 6 -32 6q-44 -2 -75 -21.5t-31 -65.5l-36 -7q-9 -2 -15.5 13t-6.5 41l7 235q0 86 -35 123q-34 38 -127 38q-31 0 -55 -4t-44 -11t-37.5 -17l-35.5 -21l14 145l42 2q4 -32 23 -45.5t51 -15.5q6 -1 15.5 -0.5
t19.5 1.5t19 2t15 1q-12 15 -20 40.5t-6 47.5q2 14 6 28.5t9 20.5q-70 6 -101 -7.5t-33 -55.5l-188 -11q-3 28 -13 43t-29 21t-46 4.5t-63 -5.5q14 -11 21.5 -28t6.5 -30q-3 -24 -13 -45.5t-21 -29.5q28 -2 60 -2t52 7q17 5 29 18t14 31l33 3l-20 -170q-2 -8 0.5 -13.5
t7.5 -4.5l91 11q-15 -19 -25 -42.5t-15 -48.5t-7 -51t-2 -50l-1 -112q0 -40 7.5 -63t32.5 -36l130 27q-14 7 -22 14.5t-11.5 16.5t-4 19t-0.5 22v112q0 46 2.5 93t11.5 84.5t26 61.5t46 24q35 0 45.5 -26t10.5 -86l-8 -266q0 -38 6.5 -60.5t28.5 -35.5l161 33q8 -30 24 -42
t48 -12q34 0 94 17z" />
    <glyph glyph-name="uni12BB" unicode="&#x12bb;" horiz-adv-x="675" 
d="M656 27q-25 10 -29 28t-4 42l7 235q0 86 -35 123q-32 38 -127 38q-18 0 -42 -4t-48 -10.5t-46 -16.5t-36 -22l14 145l42 2q5 -32 24 -45.5t51 -15.5q6 -1 15 -0.5t19.5 1.5t19.5 2t15 1q-13 15 -20.5 40.5t-5.5 47.5q1 14 5.5 28.5t9.5 20.5q-70 6 -101 -7.5t-34 -55.5
l-188 -11q-3 28 -13 43t-29 21t-45.5 4.5t-62.5 -5.5q13 -11 21 -28t6 -30q-2 -24 -12.5 -45.5t-21.5 -29.5q28 -2 60 -2t52 7q17 5 29 18t14 31l33 3l-20 -170q-2 -8 0.5 -13.5t7.5 -4.5l91 11q-19 -23 -28.5 -48.5t-14 -52.5t-5 -54.5t-0.5 -54.5q0 -13 3 -27.5t9 -26.5
t14 -20t19 -8l124 21q-14 6 -24 31t-10 54q0 70 5 118.5t15 79.5t25 45t36 14q35 0 45.5 -26t10.5 -86l-8 -266q0 -38 7 -60.5t29 -35.5z" />
    <glyph glyph-name="uni12BC" unicode="&#x12bc;" horiz-adv-x="796" 
d="M791 139q-2 31 -26.5 50.5t-59.5 16.5l-77 -6l4 132q0 86 -35 123q-34 38 -127 38q-31 0 -55 -4t-44 -11t-37.5 -17l-35.5 -21l14 145l42 2q4 -32 23 -45.5t51 -15.5q6 -1 15.5 -0.5t19.5 1.5t19 2t15 1q-12 15 -20 40.5t-6 47.5q2 14 6 28.5t9 20.5q-70 6 -101 -7.5
t-33 -55.5l-188 -11q-3 28 -13 43t-29 21t-46 4.5t-63 -5.5q14 -11 21.5 -28t6.5 -30q-3 -24 -13 -45.5t-21 -29.5q28 -2 60 -2t52 7q17 5 29 18t14 31l33 3l-20 -170q-2 -8 0.5 -13.5t7.5 -4.5l91 11q-15 -19 -25 -42.5t-15 -48.5t-7 -51t-2 -50l-1 -112q0 -40 7.5 -63
t32.5 -36l130 27q-14 7 -22 14.5t-11.5 16.5t-4 19t-0.5 22v112q0 46 2.5 93t11.5 84.5t26 61.5t46 24q35 0 45.5 -26t10.5 -86l-8 -266q0 -38 6.5 -60.5t28.5 -35.5l97 9q13 0 35 -4.5t48 -2.5q18 1 35 5.5t29.5 18.5t19 41t2.5 72zM695 104q1 -26 -2.5 -42t-9.5 -25
t-13.5 -12.5t-13.5 -3.5q-13 0 -22 17t-9 59l2 86l32 3q20 2 26.5 -17t9.5 -65z" />
    <glyph glyph-name="uni12BD" unicode="&#x12bd;" horiz-adv-x="659" 
d="M622 27q-17 17 -20 35.5t-3 40.5l19 256q5 71 -34.5 101t-127.5 30q-50 0 -92.5 -13.5t-62.5 -32.5l14 142l42 2q5 -33 24 -46t51 -15q6 -1 15 -0.5t19 1.5l19.5 2t14.5 1q-12 15 -19.5 40.5t-5.5 47.5q1 14 5.5 28.5t9.5 20.5q-70 6 -101 -7.5t-34 -55.5l-188 -11
q-3 28 -13 43t-29 21t-45.5 4.5t-62.5 -5.5q13 -11 21 -28t6 -31q-2 -23 -12.5 -44.5t-21.5 -29.5q28 -2 60 -2t52 7q17 5 29 18t14 31l33 2l-20 -167v-5q0 -18 13 -18l66 11q-11 -8 -23 -23.5t-22 -33t-17 -34.5t-7 -27q0 -12 10 -12h4l58 11q-15 -8 -28 -26.5t-23 -42.5
t-16.5 -50t-7.5 -50v-33q1 -12 3.5 -25.5t6.5 -24.5t9 -19t12 -11l142 27q-17 3 -26.5 28t-9.5 57q0 27 3.5 55t9.5 52.5t14 44t17 29.5q6 7 12 13t4 14q-3 7 -10 7t-11 -1l-24 -4q-8 -2 -12 -2q-15 0 -15 17v6q0 4 2 8q9 25 21.5 47.5t27.5 39t32 26t34 9.5q21 0 33 -13.5
t17.5 -34.5t6 -46t-1.5 -47l-20 -238q-4 -45 3 -64.5t25 -29.5z" />
    <glyph glyph-name="uni12BE" unicode="&#x12be;" horiz-adv-x="675" 
d="M656 163q-14 3 -24 22t-9 42l7 117q2 42 -8 71t-30.5 46t-51.5 24.5t-70 7.5q-31 0 -55 -4t-44 -11t-37.5 -17l-35.5 -21l14 145l42 2q4 -32 23 -45.5t51 -15.5q6 -1 15.5 -0.5t19.5 1.5t19 2t15 1q-12 15 -20 40.5t-6 47.5q2 14 6 28.5t9 20.5q-70 6 -101 -7.5
t-33 -55.5l-188 -11q-3 28 -13 43t-29 21t-46 4.5t-63 -5.5q14 -11 21.5 -28t6.5 -30q-3 -24 -13 -45.5t-21 -29.5q28 -2 60 -2t52 7q17 5 29 18t14 31l33 3l-20 -170q-2 -8 0.5 -13.5t7.5 -4.5l91 11q-15 -19 -25 -42.5t-15 -48.5t-7 -51t-2 -50l-1 -112q0 -40 7.5 -63
t32.5 -36l130 27q-14 7 -22 14.5t-11.5 16.5t-4 19t-0.5 22v112q0 46 2.5 93t11.5 85.5t26 62.5t46 24q17 0 28.5 -11t17.5 -28t8.5 -37t1.5 -38l-8 -136q-2 -28 9 -51t26 -28z" />
    <glyph glyph-name="uni12C0" unicode="&#x12c0;" horiz-adv-x="922" 
d="M919 255q1 28 -2.5 47t-10 31t-16 17t-20.5 4l-237 -25v3q0 88 -35 123q-32 38 -127 38q-30 0 -54 -4t-44 -11t-37.5 -17l-35.5 -21l14 145l41 2q5 -32 24 -45.5t51 -15.5q6 -1 15.5 -0.5t19.5 1.5t19 2t15 1q-13 15 -20.5 40.5t-5.5 47.5q2 14 6 28.5t9 20.5
q-70 6 -101 -7.5t-33 -55.5l-189 -11q-2 28 -12.5 43t-29 21t-45.5 4.5t-63 -5.5q13 -11 21 -28t6 -30q-2 -24 -12.5 -45.5t-21.5 -29.5q29 -2 60 -2q32 0 52 7q17 5 29.5 18t14.5 31l33 3l-20 -170q-2 -8 0 -13.5t7 -4.5l92 11q-11 -13 -19.5 -34.5t-15.5 -47.5
t-10.5 -54.5t-3.5 -55.5l-1 -112q0 -40 7 -63t33 -36l130 27q-14 7 -22 14.5t-11.5 16.5t-4 19t-0.5 22v112q0 46 2.5 93t11.5 84.5t25.5 61.5t45.5 24q35 0 46 -26t11 -86l-9 -266q0 -38 7 -60.5t29 -35.5l132 27q-24 10 -28 28t-4 42l5 215l39 3q-4 -82 9 -116.5t37 -35.5
q12 -1 22 1t21 4.5t24 4.5t31 2q35 0 55.5 6.5t31 17.5t13.5 25.5t4 30.5zM803 191q-17 -2 -24.5 14.5t-11.5 50.5q-4 35 3.5 52t21.5 19q17 1 24.5 -14t10.5 -48q7 -71 -24 -74z" />
    <glyph glyph-name="uni12C2" unicode="&#x12c2;" horiz-adv-x="1009" 
d="M838 274q5 -57 27 -84.5t75 -27.5q31 0 58 14q-18 25 -26 43.5t-8 34.5q0 7 4.5 22t5.5 25q0 8 -11 8l-154 -22l18 147q2 23 -6 37.5t-23 12.5l-137 -21q15 -6 23.5 -21.5t6.5 -36.5l-8 -65l-50 -6q-2 86 -35 121q-32 38 -127 38q-30 0 -54 -4t-44 -11t-37.5 -17
l-35.5 -21l14 145l41 2q5 -32 24 -45.5t51 -15.5q6 -1 15.5 -0.5t19.5 1.5t19 2t15 1q-13 15 -20.5 40.5t-5.5 47.5q2 14 6 28.5t9 20.5q-70 6 -101 -7.5t-33 -55.5l-189 -11q-2 28 -12.5 43t-29 21t-45.5 4.5t-63 -5.5q13 -11 21 -28t6 -30q-2 -24 -12.5 -45.5t-21.5 -29.5
q29 -2 60 -2q32 0 52 7q17 5 29.5 18t14.5 31l33 3l-20 -170q-2 -8 0 -13.5t7 -4.5l92 11q-11 -13 -19.5 -34.5t-15.5 -47.5t-10.5 -54.5t-3.5 -55.5l-1 -112q0 -40 7 -63t33 -36l130 27q-14 7 -22 14.5t-11.5 16.5t-4 19t-0.5 22v112q0 46 2.5 93t11.5 84.5t25.5 61.5
t45.5 24q35 0 46 -26t11 -86l-9 -266q0 -38 7 -60.5t29 -35.5l132 27q-24 10 -28 28t-4 42l5 218l49 6l-6 -65z" />
    <glyph glyph-name="uni12C3" unicode="&#x12c3;" horiz-adv-x="818" 
d="M808 -86q-14 6 -23 21.5t-7 31.5l4 88q2 51 -20.5 73t-85.5 22q-16 0 -29 -0.5t-25 -1.5l8 184q2 44 -8 74.5t-27 48.5q-32 38 -127 38q-18 0 -42 -4t-48 -10.5t-46 -16.5t-36 -22l14 145l42 2q5 -32 24 -45.5t51 -15.5q6 -1 15 -0.5t19.5 1.5t19.5 2t15 1
q-13 15 -20.5 40.5t-5.5 47.5q1 14 5.5 28.5t9.5 20.5q-70 6 -101 -7.5t-34 -55.5l-188 -11q-3 28 -13 43t-29 21t-45.5 4.5t-62.5 -5.5q13 -11 21 -28t6 -30q-2 -24 -12.5 -45.5t-21.5 -29.5q28 -2 60 -2t52 7q17 5 29 18t14 31l33 3l-20 -170q-2 -8 0.5 -13.5t7.5 -4.5
l91 11q-19 -23 -28.5 -44.5t-14 -43.5t-5 -45.5t-0.5 -49.5q0 -14 3 -28.5t9 -26.5t14 -20t19 -8l124 21q-14 6 -24 31t-10 54q0 48 6.5 90t17.5 73.5t25.5 49.5t31.5 18q35 0 45.5 -26t10.5 -86l-7 -222l-139 -24q-9 -2 -9 -7q0 -2 2 -10q5 -17 5 -27q0 -17 -4.5 -33
t-24.5 -42q25 -22 64 -22q43 0 73.5 38.5t34.5 112.5l127 8q20 2 31.5 -19.5t8.5 -53.5l-10 -133q0 -7 2.5 -15t7 -14t10.5 -10t13 -2z" />
    <glyph glyph-name="uni12C4" unicode="&#x12c4;" horiz-adv-x="675" 
d="M793 161q0 22 -7.5 36t-19.5 22t-28 10t-32 0l-80 -7l4 110q2 44 -8 74.5t-27 48.5q-32 38 -127 38q-18 0 -42 -4t-48 -10.5t-46 -16.5t-36 -22l14 145l42 2q5 -32 24 -45.5t51 -15.5q6 -1 15 -0.5t19.5 1.5t19.5 2t15 1q-13 15 -20.5 40.5t-5.5 47.5q1 14 5.5 28.5
t9.5 20.5q-70 6 -101 -7.5t-34 -55.5l-188 -11q-3 28 -13 43t-29 21t-45.5 4.5t-62.5 -5.5q13 -11 21 -28t6 -30q-2 -24 -12.5 -45.5t-21.5 -29.5q28 -2 60 -2t52 7q17 5 29 18t14 31l33 3l-20 -170q-2 -8 0.5 -13.5t7.5 -4.5l91 11q-19 -23 -28.5 -48.5t-14 -52.5t-5 -54.5
t-0.5 -54.5q0 -13 3 -27.5t9 -26.5t14 -20t19 -8l124 21q-14 6 -24 31t-10 54q0 70 5 118.5t15 79.5t25 45t36 14q35 0 45.5 -26t10.5 -86l-12 -315q-5 -4 -24.5 -8.5t-42 -8t-43.5 -6t-30 -2.5q-10 -6 -10 -13q0 -5 5 -14.5t5 -17.5q0 -14 -8 -28t-30 -36q14 -12 29 -19.5
t34 -7.5q21 0 40.5 9.5t35 27t25 42.5t9.5 57l142 12q12 0 35.5 -6t49.5 -4q26 1 43 6t26.5 19t13.5 40.5t4 71.5zM697 157q0 -36 -0.5 -58.5t-4.5 -35t-11 -16.5t-19 -4q-13 0 -21 5.5t-12.5 15t-6.5 21.5t-2 24l4 96q14 1 23 1h14q20 -3 28 -14.5t8 -34.5z" />
    <glyph glyph-name="uni12C5" unicode="&#x12c5;" horiz-adv-x="973" 
d="M667 337l-34 -6v1q0 88 -35 123q-32 38 -127 38q-30 0 -54 -4t-44 -11t-37.5 -17l-35.5 -21l14 145l41 2q5 -32 24 -45.5t51 -15.5q6 -1 15.5 -0.5t19.5 1.5t19 2t15 1q-13 15 -20.5 40.5t-5.5 47.5q2 14 6 28.5t9 20.5q-70 6 -101 -7.5t-33 -55.5l-189 -11
q-2 28 -12.5 43t-29 21t-45.5 4.5t-63 -5.5q13 -11 21 -28t6 -30q-2 -24 -12.5 -45.5t-21.5 -29.5q29 -2 60 -2q32 0 52 7q17 5 29.5 18t14.5 31l33 3l-20 -170q-2 -8 0 -13.5t7 -4.5l92 11q-11 -13 -19.5 -34.5t-15.5 -47.5t-10.5 -54.5t-3.5 -55.5l-1 -112q0 -40 7 -63
t33 -36l130 27q-14 7 -22 14.5t-11.5 16.5t-4 19t-0.5 22v112q0 46 2.5 93t11.5 84.5t25.5 61.5t45.5 24q35 0 46 -26t11 -86l-9 -266q0 -38 7 -60.5t29 -35.5l132 27q-24 10 -28 28t-4 42l5 216l168 17q6 -66 35 -94.5t69 -28.5q32 0 64 18q-17 24 -25 45t-8 37q0 7 3.5 20
l5.5 21q0 8 -11 14l-140 -14l10 113q3 23 -6 35.5t-23 10.5l-118 -25q14 -11 17.5 -21t3.5 -24z" />
    <glyph glyph-name="uni12C8" unicode="&#x12c8;" horiz-adv-x="651" 
d="M614 393v-34q0 -18 -2 -31q-8 -62 -22 -103t-40 -65.5t-66.5 -36t-101.5 -14.5l-101 -7q-68 -33 -117 -33q-59 0 -92.5 42.5t-30.5 128.5q4 127 58 204t170 91l152 7v-14q14 10 34.5 14.5t40.5 4.5q22 0 43.5 -8t38 -26t26.5 -47.5t10 -72.5zM281 476q0 38 -23 38
q-13 1 -28.5 -15t-29 -50t-24 -86t-12.5 -123q0 -78 7 -113.5t37 -35.5q11 0 20.5 13t17 32.5t12 41.5t5.5 41l9.5 127l5.5 75t2.5 38t0.5 17zM497 393q0 62 -15 96t-35 34q-18 0 -27 -18l-23 -277q-3 -53 5.5 -75.5t34.5 -22.5q15 8 23 20.5t16 36.5q8 25 13.5 75t7.5 131z
" />
    <glyph glyph-name="uni12C9" unicode="&#x12c9;" horiz-adv-x="781" 
d="M774 58q-14 20 -21.5 40.5t-5.5 46.5q0 4 1 11.5t2.5 15t3 14t3.5 8.5q-10 9 -32 10t-42 -2.5t-35.5 -12t-25.5 -24t-11 -38.5l-65 -5q17 12 27.5 28.5t17.5 38.5t11.5 50.5t9.5 63.5q2 13 2 31v35q0 43 -10 72.5t-26.5 47.5t-38 26t-43.5 8q-20 0 -40.5 -4.5
t-34.5 -14.5v13l-149 -7q-57 -6 -98 -29.5t-68.5 -61.5t-42 -89.5t-19.5 -113.5q0 -85 32.5 -128t90.5 -43q48 0 117 32q23 2 47.5 3.5t46.5 3.5q21 -1 38 1.5t31 6t25 7t20 3.5l120 6q6 -31 21 -44.5t47 -15.5q17 -2 41 0.5t53 9.5zM285 452q0 -6 -1 -17.5t-3 -38.5
l-5.5 -75l-9.5 -127q-1 -18 -5.5 -40.5t-11.5 -41.5t-16.5 -32t-20.5 -13q-30 0 -37.5 35.5t-7.5 113.5q2 71 12.5 123t24 85.5t29 49.5t28.5 16q24 0 24 -38zM497 369q-2 -81 -7.5 -131t-13.5 -75t-16 -37.5t-23 -20.5q-26 0 -34.5 23t-5.5 75l23 278q10 18 27 18
q20 0 35 -34t15 -96z" />
    <glyph glyph-name="uni12CA" unicode="&#x12ca;" horiz-adv-x="632" 
d="M580 18q-17 13 -29.5 35.5t-15.5 44.5q-3 25 9 41q-36 -5 -61.5 -12t-39.5 -15q-26 -16 -21 -55l-36 -8q-13 0 -15.5 21.5t-1.5 50.5l7 188q107 15 153 52q11 10 19.5 20.5t14.5 25t9.5 34t3.5 48.5q1 65 -18 101t-62 36h-22q-13 0 -28 -1t-30 -3.5t-25 -6.5v7l-118 -6
q-51 -4 -92.5 -16.5t-70.5 -37t-45.5 -61.5t-19.5 -91q-3 -63 22 -99.5t72 -36.5q18 0 41.5 6t58.5 17l-13 -203q-2 -29 3.5 -56.5t22.5 -37.5l175 39q11 -30 30 -38t46 -4q9 2 23.5 5.5t33.5 9.5q4 1 9.5 2t10.5 4zM257 571l-12 -216q-2 -29 -9 -37t-21 -8q-33 0 -42 32
t-7 86q2 49 9.5 80.5t17 50t20.5 26.5t20 10q24 0 24 -24zM461 504q0 -27 -2 -56t-8 -54.5t-17 -43.5t-30 -22q-15 -3 -20.5 5t-5.5 13l14 238q6 21 23 23q20 0 33 -28t13 -75z" />
    <glyph glyph-name="uni12CB" unicode="&#x12cb;" horiz-adv-x="602" 
d="M247 571q0 24 -24 24q-9 -2 -20 -10t-20.5 -26.5t-17 -50t-9.5 -80.5q-2 -54 7 -86t42 -32q14 0 21 8t9 37zM571 489q0 -29 -3.5 -48.5t-9.5 -34t-14.5 -25t-19.5 -20.5q-23 -19 -63.5 -31.5t-94.5 -20.5l-6 -192q-1 -31 4 -54.5t24 -31.5l-145 -31q-17 10 -22.5 37.5
t-3.5 56.5l12 203q-35 -11 -58.5 -17t-41.5 -6q-47 0 -72 36.5t-22 99.5q3 54 19.5 91t45.5 61.5t70.5 37t92.5 16.5l118 6v-7q10 4 25.5 7t32 4.5t30.5 2.5t22 1q43 0 62 -32.5t18 -108.5zM457 504q0 47 -16 75t-36 28q-17 -2 -23 -23l-13 -238q-1 -5 4.5 -13t20.5 -5
q19 4 31 22t19 43.5t10 54.5t3 56z" />
    <glyph glyph-name="uni12CC" unicode="&#x12cc;" horiz-adv-x="609" 
d="M569 485q0 29 -5.5 54.5t-16 44.5t-25 30t-33.5 11h-23t-31.5 -1t-32.5 -3t-26 -6v7l-118 -6q-51 -4 -92.5 -16.5t-70.5 -37t-45.5 -61.5t-19.5 -91q-3 -63 22 -99.5t72 -36.5q18 0 41.5 6t58.5 17l-12 -213q-2 -29 5 -51.5t24 -32.5q54 3 78 4.5t35 2.5t19 1t17 -0.5
t20 -1t28 0.5t32 4.5t26.5 15.5t18 35t6.5 63q0 34 -23 55.5t-60 16.5l-82 -11l5 123q54 8 95.5 18.5t64.5 29.5q11 10 19.5 20.5t15 25t10 34t3.5 48.5zM242 571l-12 -216q-2 -29 -9 -37t-21 -8q-33 0 -42 32t-7 86q2 49 9.5 80.5t17 50t20.5 26.5t20 10q24 0 24 -24z
M454 500q0 -27 -3 -55.5t-10.5 -53t-20 -42t-31.5 -21.5q-15 -3 -20.5 5t-4.5 13l13 238q6 21 23 23q20 0 37 -30t17 -77zM429 129q0 -36 -1 -57t-4.5 -32t-11 -14t-19.5 -3q-26 0 -34.5 20t-6.5 56l3 73l38 5q20 -2 28 -14t8 -34z" />
    <glyph glyph-name="uni12CD" unicode="&#x12cd;" horiz-adv-x="815" 
d="M809 309q-15 15 -25 38.5t-10 45.5q0 26 13 40q-36 0 -62 -4.5t-41 -10.5q-14 -7 -20 -20t-6 -33l-45 -6v23q0 43 -10 72.5t-26.5 47.5t-37.5 25.5t-43 7.5q-21 0 -41.5 -4.5t-34.5 -13.5v13l-149 -7q-58 -6 -99 -29.5t-68 -61.5t-42 -89.5t-20 -113.5q0 -85 32.5 -128
t90.5 -43q52 0 117 32l99 7q61 3 101.5 14.5t66.5 36t40 65.5t22 103q1 5 1.5 11.5t0.5 14.5l47 6q7 -30 25.5 -41t44.5 -10q11 1 35.5 5zM283 464q0 -6 -1 -17t-2.5 -38t-5 -75l-9.5 -127q-2 -19 -6.5 -41t-11.5 -41.5t-16.5 -32.5t-20.5 -13q-30 0 -37.5 36t-7.5 114
q3 71 13 122.5t24 85.5t29.5 50t28.5 15q23 0 23 -38zM496 382q-2 -81 -7 -131t-13 -76q-8 -24 -16 -36.5t-23 -20.5q-27 0 -35.5 23t-5.5 75l23 277q9 18 28 18q20 0 34.5 -34t14.5 -95z" />
    <glyph glyph-name="uni12CE" unicode="&#x12ce;" horiz-adv-x="625" 
d="M588 487q-3 -91 -49 -137q-22 -23 -59.5 -31.5t-91.5 -8.5q-31 -18 -67 -46t-67 -57.5t-52.5 -56t-23.5 -42.5q-4 -11 -5.5 -23.5t0.5 -19.5q3 -13 7 -24t9 -14l-146 -27q-11 6 -17.5 16.5t-6.5 33.5q0 22 12 52t38.5 64t67.5 71t100 74q-51 -12 -83 -12
q-43 0 -67.5 29.5t-24.5 91.5q0 40 10.5 76t36.5 65q22 24 62 42t105 24l137 6q12 0 29.5 1t28.5 1q24 0 45.5 -5.5t37 -22t25 -45.5t9.5 -75zM478 515q0 50 -10 77t-26 27q-8 0 -16.5 -4t-9.5 -15l-27 -255q0 -10 9 -15t23 -5q26 0 38.5 43.5t17.5 118.5v10q0 6 1 18z
M279 584q-2 12 -7 18t-16 6q-23 0 -43.5 -41t-28.5 -113q-1 -14 -2 -36t1 -43t9.5 -36t24.5 -15q3 0 8.5 1t11.5 2.5t10.5 4.5t5.5 7z" />
    <glyph glyph-name="uni12D0" unicode="&#x12d0;" horiz-adv-x="520" 
d="M490 487l-13 -292q-2 -30 -9 -56t-22 -45t-37.5 -30.5t-54.5 -12.5q-9 4 -20.5 2t-21.5 -2q-30 -2 -53.5 -10.5t-52.5 -22.5q-20 -10 -38 -14t-28 -5q-45 0 -66 27.5t-21 87.5l10 264q3 57 14.5 94.5t34 61.5t56.5 38.5t80 25.5l70 17t40.5 8.5t20.5 3t11 0.5
q21 0 39.5 -9.5t33 -27.5t22 -44t5.5 -59zM357 507q3 80 -56 80q-27 0 -46 -14.5t-31 -40t-18 -59t-7 -72.5l-10 -280q-1 -34 10.5 -51.5t37.5 -12.5q32 5 52 14t31 29t16 54.5t8 90.5z" />
    <glyph glyph-name="uni12D1" unicode="&#x12d1;" horiz-adv-x="690" 
d="M683 306q-17 24 -24 39t-7 32q0 10 5 32q2 7 2.5 9t0.5 4q0 12 -11 18l-176 -39l3 87q2 33 -5.5 59t-21.5 44t-32.5 27.5t-39.5 9.5q-5 0 -11 -0.5t-20.5 -3t-40.5 -8.5l-70 -17q-46 -11 -80 -25.5t-56.5 -38.5t-34.5 -61.5t-14 -94.5l-10 -264q0 -60 20.5 -87.5
t66.5 -27.5q9 1 27.5 5t38.5 14q29 14 52.5 22.5t53.5 10.5q10 0 21.5 2t19.5 -2q64 2 92.5 42.5t31.5 101.5l8 187l50 11q6 -62 28 -86t60 -24q16 0 32.5 5.5t40.5 16.5zM344 508l-13 -262q-3 -56 -8 -90.5t-16 -54.5t-31 -29t-53 -14q-25 -5 -37 12.5t-10 51.5l10 280
q1 39 7 72.5t18 59t31 40t46 14.5q28 0 43 -19.5t13 -60.5z" />
    </font>
</defs>
</svg>
