<?xml version="1.0" standalone="no"?>
<!DOCTYPE svg PUBLIC "-//W3C//DTD SVG 1.1//EN" "http://www.w3.org/Graphics/SVG/1.1/DTD/svg11.dtd" >
<svg>
<metadata>
Created by FontForge 20090622 at Sat Oct  3 18:08:17 2015
 By deploy user
Copyright (c) 2006-2008 Senamirmir Project. All Right Reserved.  Released under the SIL Open Font License; http://scripts.sil.org/OFL
</metadata>
<defs>
<font id="EthiopicFantuwua" horiz-adv-x="600" >
  <font-face 
    font-family="Ethiopic Fantuwua"
    font-weight="400"
    font-stretch="normal"
    units-per-em="1000"
    panose-1="0 0 5 9 3 0 0 2 0 4"
    ascent="800"
    descent="-200"
    x-height="430"
    cap-height="563"
    bbox="-48 -185 1090 806"
    underline-thickness="50"
    underline-position="-175"
    unicode-range="U+0020-U+2122"
  />
<missing-glyph horiz-adv-x="500" 
 />
    <glyph glyph-name=".notdef" horiz-adv-x="500" 
 />
    <glyph glyph-name=".null" horiz-adv-x="0" 
 />
    <glyph glyph-name="nonmarkingreturn" horiz-adv-x="500" 
 />
    <glyph glyph-name="space" unicode=" " horiz-adv-x="272" 
 />
    <glyph glyph-name="space" unicode="&#xa0;" horiz-adv-x="272" 
 />
    <glyph glyph-name="exclam" unicode="!" 
d="M300 106q-29 0 -49 -17.5t-20 -43.5t20 -44t49 -18t49 17.5t20 43.5t-19.5 44t-49.5 18zM323 193l19 378h-83l18 -378h46z" />
    <glyph glyph-name="quotedbl" unicode="&#x22;" 
d="M443 563h-95l10 -281h74zM252 563h-95l11 -281h74z" />
    <glyph glyph-name="numbersign" unicode="#" 
d="M233 389h145l-10 -167h-145zM248 659h-47l-12 -205h-111v-65h108l-10 -167h-98v-65h94l-11 -214h47l11 214h146l-12 -214h47l12 214h110v65h-107l10 167h97v65h-94l12 205h-47l-12 -205h-145z" />
    <glyph glyph-name="dollar" unicode="$" 
d="M322 62v187q21 -6 42 -13t37.5 -17.5t27 -26t10.5 -38.5q0 -26 -12.5 -43.5t-30.5 -28t-38 -15t-36 -5.5zM274 504v-191q-20 6 -39 13t-34 17.5t-24.5 26t-9.5 39.5q0 29 12.5 46.5t29.5 28t35 14.5t30 6zM476 547h-47q-2 -15 -4 -20t-10 -5q-4 0 -7.5 1.5t-16.5 7.5
q-35 17 -69 21v104h-48v-104q-72 -6 -115.5 -44t-43.5 -101q0 -39 15.5 -64t39 -41t51.5 -25t53 -16v-199q-39 5 -63 21t-37.5 37t-19.5 43.5t-9 39.5h-47q7 -50 10 -94.5t0 -99.5h47q1 17 2.5 23t11.5 6q2 0 6.5 -0.5t15.5 -4.5q19 -6 31.5 -9.5l21.5 -6t15.5 -3t14.5 -0.5
v-150h48v150q35 3 66 13.5t54 28.5t36 42.5t13 56.5q0 36 -14.5 60t-38.5 39.5t-54.5 25.5t-61.5 19v204q14 -3 31.5 -9t34 -22t30.5 -45.5t21 -78.5l46 5q-3 25 -7 61.5t-4 84.5q0 15 0.5 26.5t1.5 21.5z" />
    <glyph glyph-name="percent" unicode="%" 
d="M513 373l-20 47l-406 -180l20 -47zM187 567q42 0 64.5 -27t22.5 -60q0 -34 -22.5 -60t-64.5 -26q-21 0 -37.5 7.5t-27.5 19.5t-17 27.5t-6 31.5t5.5 31.5t16.5 28t27.5 20t38.5 7.5zM186 614q-35 0 -61 -12t-44 -31.5t-27 -43.5t-9 -47q0 -24 9.5 -48t27.5 -42.5
t44.5 -30.5t59.5 -12q34 0 60.5 11.5t44.5 30.5t27.5 43t9.5 48t-9.5 47.5t-27.5 43t-44.5 31.5t-60.5 12zM401 206q22 0 38.5 -7.5t27.5 -20t16.5 -28t5.5 -30.5q0 -16 -5.5 -31.5t-17 -28t-28 -20t-37.5 -7.5q-42 0 -64.5 26.5t-22.5 60.5q0 16 6 31.5t17 27.5t27 19.5
t37 7.5zM401 253q-35 0 -61.5 -12.5t-44 -32t-26.5 -43.5t-9 -46q0 -23 9 -46.5t27 -43t44 -31.5t61 -12q34 0 60.5 12t44.5 31t27.5 42.5t9.5 47.5q0 23 -9 47t-27 43.5t-44.5 31.5t-61.5 12z" />
    <glyph glyph-name="ampersand" unicode="&#x26;" 
d="M244 264l110 -164q-6 -7 -15 -16.5t-21 -18.5t-28 -15t-35 -6q-24 0 -41 9.5t-28.5 25t-16.5 34.5t-5 37q0 23 7.5 41.5t19 32.5t25.5 24t28 16zM529 280h-95l-13 -41.5t-9.5 -27.5t-10 -24l-14.5 -31l-130 193q-19 28 -29 45.5t-10 35.5q0 9 3 20t11 20.5t21.5 15.5
t34.5 6q38 0 65 -15t46 -29l46 72l-15.5 -5t-21.5 -3q-6 0 -13 1.5t-28 9.5q-19 8 -38 12.5t-41 4.5q-60 0 -94.5 -32.5t-34.5 -81.5q0 -14 2 -25t8 -24t16.5 -29l27.5 -41q4 -4 4 -7q-57 -21 -88 -66t-31 -96q0 -27 9.5 -53t28 -47t45.5 -33.5t62 -12.5q27 0 49 7t39 17.5
t29 22t21 21.5l41 -60h114v47h-75l-44 64q8 14 21 41.5t31 80.5h60v47z" />
    <glyph glyph-name="quotesingle" unicode="'" 
d="M357 563h-114l19 -282h75z" />
    <glyph glyph-name="parenleft" unicode="(" 
d="M463 649h-51q-29 -43 -52 -91.5t-39.5 -97.5t-25 -96.5t-8.5 -87.5q0 -41 9 -88.5t25.5 -96.5t39.5 -97t51 -90h51l-36 70.5t-38 88.5t-30 102t-12 111t12 111t30 102t38 88.5z" />
    <glyph glyph-name="parenright" unicode=")" 
d="M137 -96h52q29 44 52.5 92.5t39.5 97t24.5 95t8.5 87.5q0 78 -31.5 177.5t-93.5 195.5h-52l35 -69.5t38.5 -88.5t31 -102.5t12.5 -112.5t-12.5 -113t-31 -103.5t-38.5 -88.5t-35 -67z" />
    <glyph glyph-name="asterisk" unicode="*" 
d="M334 563h-68l6 -147l-140 51l-21 -64l144 -40l-93 -116l55 -41l83 125l83 -125l55 41l-93 116l144 40l-21 64l-140 -51z" />
    <glyph glyph-name="plus" unicode="+" 
d="M325 533h-50v-205h-209v-50h209v-205h50v205h209v50h-209v205z" />
    <glyph glyph-name="comma" unicode="," 
d="M357 133h-104l-76 -242h71z" />
    <glyph glyph-name="hyphen" unicode="-" 
d="M194 317h212v-55h-212v55z" />
    <glyph glyph-name="hyphen" unicode="&#xad;" 
d="M194 317h212v-55h-212v55z" />
    <glyph glyph-name="period" unicode="." 
d="M300 119q-14 0 -27.5 -4.5t-24.5 -13.5t-18 -21.5t-7 -28.5q0 -17 7 -29.5t18.5 -21t25 -13t26.5 -4.5q14 0 27.5 4.5t24.5 13.5t18 21.5t7 28.5q0 15 -6.5 27.5t-17.5 21.5t-24.5 14t-28.5 5z" />
    <glyph glyph-name="slash" unicode="/" 
d="M509 684l-43 18l-375 -815l43 -20z" />
    <glyph glyph-name="zero" unicode="0" 
d="M300 576q45 0 72 -27.5t41.5 -68.5t19 -88.5t4.5 -87.5q0 -39 -4.5 -87t-19.5 -89t-42 -69t-72 -28q-44 0 -71 27.5t-41.5 69t-19 89t-4.5 87.5q0 39 4.5 86.5t19 88.5t41.5 69t72 28zM300 621q-61 0 -98.5 -31.5t-57.5 -79t-27 -103t-7 -104.5q0 -48 7 -104t27 -103
t57.5 -78.5t98.5 -31.5t98.5 31t57.5 78.5t27 103t7 104.5t-7 104.5t-27 103t-57.5 79t-98.5 31.5z" />
    <glyph glyph-name="one" unicode="1" 
d="M302 621l-198 -88l20 -44l160 74v-516h-174v-47h395v47h-171v574h-32z" />
    <glyph glyph-name="two" unicode="2" 
d="M472 146h-47v-99h-276v2l97 81l86 78t67 67.5t40 49.5q18 29 26 54t8 57q0 42 -16.5 76.5t-43.5 58.5t-61 37t-69 13q-6 0 -24.5 -1.5t-44 -9.5t-55 -26.5t-57.5 -51.5v-65h52q-2 31 12.5 51t35 32t43 16.5t36.5 4.5q19 0 43 -7.5t45 -23.5t35.5 -41t14.5 -61
q0 -35 -11.5 -64.5t-47.5 -65.5q-30 -31 -71.5 -69.5l-82 -75l-74.5 -66.5l-50 -44v-53h390v146z" />
    <glyph glyph-name="three" unicode="3" 
d="M103 79l-19 -44l55 -21t44.5 -15.5t40 -9.5t42.5 -3q42 0 78.5 13t64 37t43 58.5t15.5 76.5q0 34 -11 61t-27.5 46.5t-35 32.5t-34.5 19q7 4 19.5 13t25.5 25.5t22.5 40.5t9.5 57q0 37 -14.5 65.5t-38.5 48.5t-54.5 30.5t-62.5 10.5q-48 0 -88 -19.5t-82 -46.5l25 -39
l18 11q23 14 55 30.5t71 16.5q51 0 85 -29t34 -80q0 -29 -13.5 -55t-38.5 -43q-23 -15 -48.5 -18t-47.5 -3v-47q24 2 47.5 1t49.5 -10q3 -1 16.5 -7t28 -19.5t26.5 -36.5t12 -58q0 -33 -12.5 -58.5t-33.5 -43t-47.5 -26t-53.5 -8.5q-42 0 -85 14t-81 32z" />
    <glyph glyph-name="four" unicode="4" 
d="M342 194h-219l217 369h2v-369zM390 194v427h-68l-248 -417v-58h268v-99h-135v-47h273v47h-90v99h90v48h-90z" />
    <glyph glyph-name="five" unicode="5" 
d="M460 606h-334v-303l25 -14q31 23 63 35.5t70 12.5q36 0 64 -12t47.5 -33t29.5 -48.5t10 -57.5q0 -32 -9.5 -59t-29.5 -47.5t-50 -32t-71 -11.5q-26 0 -51 4.5t-46.5 10.5t-39 13l-29.5 12l-18 -45l47.5 -18.5t45 -14.5t45.5 -9t50 -3q60 0 100.5 20.5t65 50.5t34.5 65.5
t10 65.5q0 40 -14 76t-39.5 62.5t-62 42t-81.5 15.5q-40 0 -69 -9t-52 -19v202h289v48z" />
    <glyph glyph-name="six" unicode="6" 
d="M158 212q16 39 38 60.5t43.5 32t39.5 13t26 2.5q27 0 49.5 -12t38 -31.5t24.5 -46t9 -54.5q0 -33 -10 -59t-27.5 -44t-39.5 -27.5t-46 -9.5q-19 0 -43 8t-45.5 28t-37.5 54t-19 86zM486 571v50q-44 2 -76 0.5t-54.5 -4.5t-38 -7t-26.5 -8q-66 -24 -104 -71.5t-56.5 -100
t-23.5 -99.5t-5 -71q0 -80 20 -132.5t50 -84t65.5 -44.5t65.5 -13q39 0 71.5 15.5t56 41.5t36.5 60.5t13 72.5t-12.5 73t-35.5 62t-55.5 43t-71.5 16q-32 0 -56 -9t-42 -21t-29.5 -25l-17.5 -20l-2 2q11 103 42.5 160t76.5 83t99 30t110 1z" />
    <glyph glyph-name="seven" unicode="7" 
d="M488 606h-393v-139h49v92h294l-202 -559h58l194 559v47z" />
    <glyph glyph-name="eight" unicode="8" 
d="M300 285q34 0 60 -11.5t43.5 -29.5t26.5 -41t9 -45q0 -25 -10.5 -47.5t-29.5 -40t-44 -27.5t-55 -10t-55 10t-44 27.5t-29.5 40t-10.5 47.5q0 22 8.5 44.5t26 41t43.5 30t61 11.5zM300 574q23 0 46 -7.5t41 -22t29.5 -36.5t11.5 -52q0 -29 -11 -51.5t-29 -39t-41 -25
t-47 -8.5q-29 0 -53 11t-40.5 28.5t-25.5 39.5t-9 45q0 18 7 38.5t22 38.5t39.5 29.5t59.5 11.5zM208 309q-45 -20 -73 -62t-28 -89q0 -28 11.5 -58.5t35.5 -55.5t60 -41.5t86 -16.5q49 0 85.5 16.5t60.5 41.5t35.5 55.5t11.5 58.5q0 19 -5.5 40.5t-18 42t-31.5 38.5t-46 30
q47 26 68.5 67t21.5 81q0 34 -14 63.5t-38.5 52t-57.5 35.5t-72 13t-72 -13t-57.5 -35.5t-38.5 -52t-14 -63.5q0 -32 10.5 -57t24.5 -43.5t29.5 -30.5t25.5 -17z" />
    <glyph glyph-name="nine" unicode="9" 
d="M409 395q-16 -39 -38 -61t-44 -32.5t-40 -12.5t-25 -2q-27 0 -49.5 12t-38 31.5t-24.5 45.5t-9 55q0 33 10 59t27.5 44t39.5 27.5t46 9.5q19 0 43 -8t45.5 -28t37.5 -54t19 -86zM81 36v-50q44 -2 76 -1t54.5 4t38 7.5t26.5 8.5q66 24 104 71.5t56.5 100t23.5 99.5t5 71
q0 79 -20 132t-50 84.5t-65.5 44.5t-65.5 13q-39 0 -71.5 -15.5t-56 -41.5t-36.5 -60.5t-13 -72.5t12.5 -73t35.5 -62t55.5 -43t71.5 -16q31 0 55.5 9t42.5 21t29.5 24.5t17.5 20.5l2 -2q-12 -103 -43.5 -160t-76 -83t-98 -30t-110.5 -1z" />
    <glyph glyph-name="colon" unicode=":" 
d="M300 119q-14 0 -27.5 -4.5t-24.5 -13.5t-18 -21.5t-7 -28.5q0 -17 7 -29.5t18.5 -21t25 -13t26.5 -4.5t27 4.5t25 13.5t18 21.5t7 28.5t-7 28.5t-18 21.5t-24.5 13.5t-27.5 4.5zM300 390q-14 0 -27.5 -4.5t-24.5 -13.5t-18 -21.5t-7 -28.5q0 -17 7 -29.5t18.5 -21t25 -13
t26.5 -4.5t27 4.5t25 13.5t18 21.5t7 28.5t-7 28.5t-18 21.5t-24.5 13.5t-27.5 4.5z" />
    <glyph glyph-name="semicolon" unicode=";" 
d="M300 390q-14 0 -27.5 -4.5t-24.5 -13.5t-18 -21.5t-7 -28.5q0 -17 7 -29.5t18.5 -21t25 -13t26.5 -4.5t27 4.5t25 13.5t18 21.5t7 28.5t-7 28.5t-18 21.5t-24.5 13.5t-27.5 4.5zM361 134h-103l-77 -242h71z" />
    <glyph glyph-name="less" unicode="&#x3c;" 
d="M54 308l472 -219l20 44l-381 175l381 179l-20 45z" />
    <glyph glyph-name="equal" unicode="=" 
d="M536 238h-472v-50h472v50zM536 419h-472v-50h472v50z" />
    <glyph glyph-name="greater" unicode="&#x3e;" 
d="M546 308l-472 219l-20 -44l381 -175l-381 -179l20 -45z" />
    <glyph glyph-name="question" unicode="?" 
d="M266 106q-29 0 -49 -17.5t-20 -43.5q0 -27 20.5 -44.5t48.5 -17.5t48.5 17.5t20.5 44.5q0 26 -20 43.5t-49 17.5zM120 537v-102h50v64q25 10 50.5 17t62.5 7q42 0 69 -11.5t42.5 -29t21.5 -37t6 -34.5q0 -34 -15.5 -56.5t-38.5 -37t-51 -23t-53 -14.5q-5 -1 -11.5 -2.5
t-8.5 -2.5v-97h49v60q25 7 56.5 18t59 30t46.5 48.5t19 73.5q0 31 -12 61t-36 52.5t-60 36.5t-84 14q-21 0 -39.5 -2t-37 -6.5t-39 -11z" />
    <glyph glyph-name="at" unicode="@" 
d="M253 153q-9 0 -15 5t-10 12.5t-5.5 15.5t-1.5 15q0 22 7.5 49t20 50t29 38.5t33.5 15.5q14 0 25 -13.5t11 -36.5q0 -22 -7.5 -48.5t-20.5 -49t-30 -38t-36 -15.5zM533 57l-21 42q-1 0 -3.5 -1.5t-3.5 -1.5l-15 -8q-35 -19 -85.5 -37t-113.5 -18q-57 0 -96.5 20.5t-64 53
t-35.5 72.5t-11 80q0 45 12.5 88t39.5 76.5t69 54.5t102 21q44 0 82.5 -12t67.5 -36.5t45.5 -61.5t16.5 -86q0 -31 -7 -58t-19.5 -47.5t-29 -32.5t-35.5 -12q-23 0 -34.5 14.5t-11.5 25.5q0 12 5 29t5 21l43 156h-52l-9 -35q-7 11 -19.5 25.5t-37.5 14.5q-31 0 -57.5 -18.5
t-46.5 -47.5t-31.5 -64.5t-11.5 -68.5q0 -30 8.5 -50t21 -31t26 -15.5t22.5 -4.5q18 0 33 5.5t27 14t20.5 17.5t14.5 16q0 -5 1.5 -9.5t9.5 -10.5l22.5 -16t15 -9.5t13 -4.5t17.5 -1q32 0 58.5 14t46 39t30 60.5t10.5 77.5q0 59 -20 105.5t-54.5 78.5t-81.5 48.5t-102 16.5
q-66 0 -118 -22.5t-87 -61t-53.5 -90.5t-18.5 -112q0 -53 15.5 -102.5t47 -87.5t79.5 -61t114 -23t127 19.5t112 48.5q1 0 3 1.5t3 1.5z" />
    <glyph glyph-name="A" unicode="A" 
d="M300 504l113 -274h-226zM328 563h-215v-47h143l-193 -469h-53v-47h205v47h-102l56 139h261l57 -139h-102v-47h205v47h-51z" />
    <glyph glyph-name="B" unicode="B" 
d="M178 269h125q40 0 75 -6.5t60 -20t39.5 -35.5t14.5 -53q0 -41 -19 -62.5t-47 -31.5t-60 -11.5t-59 -1.5h-129v222zM178 516h138q8 0 31 -1.5t47.5 -10.5t43.5 -28.5t19 -55.5q0 -12 -4.5 -29.5t-19.5 -34t-44 -28.5t-78 -12h-133v200zM318 563h-273v-47h83v-469h-83v-47
h264q34 0 57.5 1t42 4t33.5 8.5t31 14.5q32 17 51.5 50.5t19.5 75.5q0 54 -30 89t-84 51q10 5 23.5 15t26 25t21 36t8.5 48q0 32 -13 58t-34 45t-53 30.5t-91 11.5z" />
    <glyph glyph-name="C" unicode="C" 
d="M594 99l-33 36q-49 -43 -104 -72.5t-123 -29.5q-65 0 -106.5 26t-66 64.5t-34 83t-9.5 82.5q0 49 14.5 93t42 77t66.5 52t89 19q55 0 85 -19t44 -40q17 -26 23.5 -52.5t9.5 -43.5l47 8q-5 40 -8.5 84t-1.5 107h-37q-1 -7 -2.5 -15l-3 -15.5t-4 -12.5t-5.5 -5
q-2 0 -4.5 1.5t-12.5 9.5q-3 3 -12 10t-25 14.5t-38.5 13t-52.5 5.5q-57 0 -106 -21t-85 -59.5t-56.5 -92.5t-20.5 -119q0 -62 17.5 -117t51.5 -97t84.5 -66.5t116.5 -24.5q15 0 42 3t61.5 15t74.5 35t82 63z" />
    <glyph glyph-name="D" unicode="D" 
d="M163 516h122q43 0 74.5 -5.5t57.5 -25.5q11 -9 24.5 -23.5t25.5 -37t20.5 -55.5t9.5 -80q0 -69 -20 -118.5t-47 -76.5q-18 -18 -39 -27.5t-41.5 -14t-38.5 -5t-31 -0.5h-117v469zM284 563h-250v-47h79v-469h-79v-47h246q14 0 36.5 1t48.5 6.5t53 17t50 33.5
q32 31 57.5 87.5t25.5 146.5q0 13 -1.5 35t-7.5 49t-18.5 56t-34.5 56q-21 25 -43.5 40t-47 22.5t-53 10t-61.5 2.5z" />
    <glyph glyph-name="E" unicode="E" 
d="M532 563h-475v-47h85v-469h-85v-47h484v184h-46l-5 -137h-298v227h162v-72h46v192h-46v-73h-162v195h288l10 -137h46z" />
    <glyph glyph-name="F" unicode="F" 
d="M541 563h-469v-47h81v-469h-81v-47h261v47h-130v227h162v-72h46v192h-46v-73h-162v195h286l12 -133h45z" />
    <glyph glyph-name="G" unicode="G" 
d="M522 574h-48q-4 -33 -5.5 -41t-9.5 -8q-4 0 -8 2t-12 10q-29 23 -59 33t-66 10q-64 0 -113.5 -25.5t-83.5 -67.5t-51.5 -96t-17.5 -112q0 -50 14.5 -102t47 -95.5t85.5 -71t130 -27.5q91 0 205 49v168h48v47h-247v-47h148v-135q-59 -20 -93.5 -26t-59.5 -6
q-57 0 -99 19.5t-70 53t-41.5 78.5t-13.5 96q0 55 16.5 101t45 79t66.5 51.5t82 18.5q53 0 84.5 -18t49 -42.5t24 -51t9.5 -43.5l43 8q-2 18 -4 42t-2 49q0 10 0.5 22t1.5 24t1.5 21.5t0.5 13.5q0 2 0.5 9t1.5 10z" />
    <glyph glyph-name="H" unicode="H" 
d="M239 563h-200v-47h75v-469h-75v-47h200v47h-75v220h272v-220h-75v-47h201v47h-76v469h76v47h-201v-47h75v-202h-272v202h75v47z" />
    <glyph glyph-name="I" unicode="I" 
d="M500 563h-400v-47h175v-469h-175v-47h400v47h-175v469h175v47z" />
    <glyph glyph-name="J" unicode="J" 
d="M579 563h-374v-47h197v-312q0 -30 -2 -60.5t-14 -55t-37.5 -40t-71.5 -15.5q-26 0 -57.5 6.5t-60.5 24.5q-30 18 -38 41t-9 61l-4 97h-49l9 -216l19 -8q42 -19 91.5 -37.5t109.5 -18.5q16 0 34.5 3.5t36.5 11t35 20t29 29.5q20 31 24.5 73t4.5 84v312h127v47z" />
    <glyph glyph-name="K" unicode="K" 
d="M279 563h-219v-47h84v-469h-84v-47h219v47h-85v158l69 66q44 -22 73.5 -54t58.5 -82q11 -18 30 -55.5t35 -79.5h128v47h-92q-30 68 -57.5 113t-52.5 74t-47.5 45t-41.5 26l217 211h45v47h-195v-47h82l-252 -245v245h85v47z" />
    <glyph glyph-name="L" unicode="L" 
d="M332 563h-273v-47h100v-469h-100v-47h483l11 249h-47l-14 -202h-283v469h123v47z" />
    <glyph glyph-name="M" unicode="M" 
d="M175 563h-167v-47h71l-17 -469h-61v-47h212v47h-107l15 469h18l130 -372h52l140 372h18l15 -469h-107v-47h212v47h-61l-17 469h71v47h-161l-124 -339h-18z" />
    <glyph glyph-name="N" unicode="N" 
d="M199 563h-171v-47h78v-469h-78v-47h237v47h-113v469h17l268 -529h89v529h65v47h-223v-47h112v-474h-18z" />
    <glyph glyph-name="O" unicode="O" 
d="M97 282q0 43 12.5 87.5t37.5 80t63 58t90 22.5q49 0 86.5 -21t63.5 -55.5t39.5 -79.5t13.5 -92t-13 -91.5t-39 -79.5t-64 -56.5t-87 -21.5q-50 0 -88 22t-63.5 57.5t-38.5 80t-13 89.5zM43 281q0 -62 18 -116t51.5 -94.5t81 -64t106.5 -23.5q60 0 107.5 24t80.5 64.5
t51 95t18 114.5q0 61 -17.5 115t-51 95t-81 65t-107.5 24q-59 0 -106.5 -23.5t-81 -64t-51.5 -95t-18 -116.5z" />
    <glyph glyph-name="P" unicode="P" 
d="M202 516h98q27 0 45.5 -1.5t32 -4t23.5 -6t19 -8.5q20 -10 40 -37.5t20 -68.5q0 -36 -14 -60t-28 -35q-26 -21 -72 -24t-107 -3h-57v248zM300 563h-229v-47h81v-469h-81v-47h278v47h-147v174h56q45 0 75.5 0.5t52.5 3.5t39.5 9t35.5 17q16 9 29.5 24t23 33t15 38.5
t5.5 41.5q0 46 -24 87t-62 62q-27 15 -60.5 20.5t-87.5 5.5z" />
    <glyph glyph-name="Q" unicode="Q" 
d="M97 282q0 43 12.5 87.5t37.5 80t63 58t90 22.5q49 0 86.5 -21t63.5 -55.5t39.5 -79.5t13.5 -92t-13 -91.5t-39 -79.5t-64 -56.5t-87 -21.5q-50 0 -88 22t-63.5 57.5t-38.5 80t-13 89.5zM547 -88l-31 36q-14 -9 -31.5 -17.5t-42.5 -8.5q-6 0 -11 0.5t-12 3l-17.5 6.5
l-28.5 11q-26 11 -48 15.5t-40 4.5q-8 0 -12.5 -0.5t-9.5 -0.5v2h2q-1 -2 0 -1t2 3l10 10t6 7q78 -1 130.5 25.5t84.5 69.5t45.5 95.5t13.5 103.5q0 69 -20 125t-55 95.5t-82 61t-101 21.5q-50 0 -96.5 -20t-82 -58.5t-56.5 -94t-21 -126.5q0 -52 13 -98.5t37 -84t58 -65
t76 -40.5q-2 -2 -8.5 -10.5t-17.5 -20t-26 -25t-33 -25.5l23 -37q35 20 60 30.5t58 10.5q19 0 35.5 -4.5t42.5 -15.5t44 -17.5t41 -6.5q35 0 59.5 14t41.5 26z" />
    <glyph glyph-name="R" unicode="R" 
d="M177 516h123q27 0 44.5 -1.5t28.5 -3.5t17.5 -5t12.5 -7q20 -14 31 -36.5t11 -47.5q0 -42 -20 -64.5t-47.5 -32.5t-57.5 -11.5t-50 -1.5h-93v211zM302 563h-257v-47h82v-469h-82v-47h221v47h-89v211h72q20 0 33.5 -5t25 -15.5t22.5 -27l26 -39.5l16.5 -26.5l25 -42
l28 -50.5t26.5 -52h125v47h-88l-34.5 55.5l-39 61.5t-38 55.5t-31.5 39.5q43 4 72.5 20.5t47.5 38.5t25.5 47t7.5 47q0 37 -17.5 71.5t-43.5 52.5t-57 22.5t-79 4.5z" />
    <glyph glyph-name="S" unicode="S" 
d="M507 574h-45q0 -2 -0.5 -5t-1.5 -8q-5 -24 -6.5 -30t-8.5 -6q-3 0 -7 2.5t-16 11.5q-5 4 -15 11t-25 13.5t-36 11.5t-48 5q-43 0 -79.5 -14t-63 -38t-41.5 -55t-15 -65q0 -50 23.5 -79.5t57.5 -45.5t72.5 -22t67.5 -9q19 -2 43.5 -6t45.5 -14.5t35.5 -30t14.5 -52.5
q0 -19 -7.5 -39.5t-25.5 -37.5t-48.5 -28t-76.5 -11q-54 0 -81.5 17.5t-41.5 35.5q-17 22 -23.5 46t-10.5 43h-45q1 -11 2.5 -25.5l3 -30t2.5 -29t1 -21.5v-10q0 -11 -2 -33t-7 -46h45q4 25 5.5 31.5t3.5 13.5q2 2 4.5 5t5.5 3q2 0 4.5 -1.5t3.5 -2.5q7 -6 18 -13.5
t27.5 -15t39 -12.5t52.5 -5q37 0 73.5 10t65.5 31t47.5 53t18.5 76q0 43 -18 71t-44 45t-58 23.5t-88 12.5q-18 2 -44 6t-50 15t-41 31t-17 55q0 19 9 39.5t27.5 38t47 29t67.5 11.5q30 0 51 -6.5t36 -15.5t24.5 -19.5t15.5 -19.5q17 -26 23 -52t8 -42l45 8q-5 43 -7 72.5
t-2 46.5q0 19 2 34t7 38z" />
    <glyph glyph-name="T" unicode="T" 
d="M540 563h-480l-17 -236l48 -6l14 195h170v-469h-121v-47h292v47h-121v469h170l14 -195l48 6z" />
    <glyph glyph-name="U" unicode="U" 
d="M248 563h-224v-47h72v-282q0 -17 0.5 -39.5t3.5 -46t10 -46.5t20 -41q17 -24 39 -39t45 -24t45.5 -12t40.5 -3q33 0 60.5 7t49 18t36.5 23.5t23 24.5q8 11 14.5 24.5t11.5 33t7.5 46t2.5 64.5v292h72v47h-224v-47h102v-292q0 -34 -2.5 -67.5t-17.5 -60.5
q-14 -28 -45.5 -45.5t-90.5 -17.5q-58 0 -89 20.5t-45 50.5q-14 29 -16.5 64t-2.5 66v282h102v47z" />
    <glyph glyph-name="V" unicode="V" 
d="M220 563h-214v-47h69l196 -516h62l198 516h63v47h-213v-47h102l-180 -460l-177 460h94v47z" />
    <glyph glyph-name="W" unicode="W" 
d="M199 563h-197v-47h47l70 -516h50l129 364h2l127 -364h50l75 516h46v47h-195v-47h102l-58 -420h-2l-126 364h-34l-129 -364h-2l-56 420h101v47z" />
    <glyph glyph-name="X" unicode="X" 
d="M246 563h-194v-47h53l168 -220l-189 -249h-51v-47h213v47h-106l161 212l154 -212h-90v-47h202v47h-52l-186 249l168 220h51v47h-183v-47h76l-140 -183l-137 183h82v47z" />
    <glyph glyph-name="Y" unicode="Y" 
d="M228 563h-196v-47h63l181 -298v-171h-119v-47h287v47h-118v171l179 298h63v47h-194v-47h78l-149 -248l-151 248h76v47z" />
    <glyph glyph-name="Z" unicode="Z" 
d="M493 563h-402v-193h47v146h291l-345 -469v-47h432v209h-47v-162h-325l349 475v41z" />
    <glyph glyph-name="bracketleft" unicode="[" 
d="M485 654h-176v-748h176v50h-126v648h126v50z" />
    <glyph glyph-name="backslash" unicode="\" 
d="M511 -119l-375 824l-43 -19l375 -825z" />
    <glyph glyph-name="bracketright" unicode="]" 
d="M115 -94h176v748h-176v-50h126v-648h-126v-50z" />
    <glyph glyph-name="asciicircum" unicode="^" 
d="M137 154l163 349l163 -349h64l-190 409h-74l-190 -409h64z" />
    <glyph glyph-name="underscore" unicode="_" 
d="M648 -75h-696v-50h696v50z" />
    <glyph glyph-name="grave" unicode="`" 
d="M297 618h-107l132 -115h52z" />
    <glyph glyph-name="a" unicode="a" 
d="M411 219v-80q-32 -36 -61.5 -57t-54.5 -31.5t-44.5 -13.5t-31.5 -3q-21 0 -40 7.5t-34 20t-23.5 29t-8.5 35.5q0 4 3 21t19 35.5t50 33t96 14.5q42 0 77.5 -4t52.5 -7zM461 47v249q0 15 -2.5 40.5t-18.5 51t-50.5 44t-98.5 18.5q-60 0 -109.5 -15.5t-81.5 -29.5l19 -45
q60 26 102 34t69 8q45 0 70 -12t36 -29t13 -35t2 -30v-31q-23 4 -46.5 6.5t-43 4t-33.5 2t-17 0.5q-62 0 -103 -16t-65 -39.5t-34 -49.5t-10 -46q0 -26 11 -51t32 -45t50.5 -32.5t67.5 -12.5q31 0 59 8t52 20.5t44.5 28t35.5 29.5v-72h139v47h-89z" />
    <glyph glyph-name="b" unicode="b" 
d="M148 213q0 34 13.5 65t37 54.5t55 37.5t68.5 14q36 0 67 -14t53.5 -37.5t35 -55t12.5 -65.5t-12 -65t-34 -55t-53 -38t-68 -14q-38 0 -70 14t-55 37.5t-36.5 55t-13.5 66.5zM147 629l-142 -9v-47l92 5v-531h-80v-47h130v77l22.5 -25t34.5 -28.5t50 -23.5t70 -10
q49 0 89.5 19t69.5 50t45 70.5t16 81.5q0 46 -17.5 87t-48 71t-71.5 47.5t-87 17.5q-55 0 -97.5 -23t-73.5 -65h-2v283z" />
    <glyph glyph-name="c" unicode="c" 
d="M523 438l-46 5q-5 -20 -6 -32q-1 -5 -3.5 -13.5t-6.5 -8.5q-1 0 -4 3q-45 36 -81.5 44.5t-65.5 8.5q-61 0 -106 -20.5t-74.5 -53.5t-44 -74t-14.5 -81q0 -48 17 -89.5t48 -73t74 -49.5t96 -18q42 0 79 10.5t68 26t55.5 32t40.5 28.5l-26 38q-55 -38 -106.5 -61.5
t-105.5 -23.5q-50 0 -85 16.5t-57.5 43t-33 58.5t-10.5 63q0 32 11.5 64t35 57.5t59.5 41t84 15.5t77 -12.5t44.5 -29.5t21.5 -35t9 -28l4 -17l46 7q-3 39 -3 66q0 26 3.5 51.5z" />
    <glyph glyph-name="d" unicode="d" 
d="M444 210q0 -37 -13.5 -68t-37 -53.5t-54 -35.5t-64.5 -13t-64.5 12.5t-53.5 35.5t-36.5 55t-13.5 70q0 39 14 70.5t37 54t53.5 34.5t63.5 12q42 0 73.5 -16t52.5 -41.5t32 -56t11 -60.5zM496 627l-214 -19l3 -45l161 10v-225h-2q-28 42 -76 64t-95 22q-41 0 -80 -15.5
t-70.5 -44.5t-50.5 -70t-19 -92q0 -45 17 -85.5t47 -70.5t70.5 -48t87.5 -18q7 0 25.5 1t43 9t51 25t49.5 49h2v-74h135v47h-85v580z" />
    <glyph glyph-name="e" unicode="e" 
d="M484 248h-356q3 17 13.5 42.5t31.5 49t54.5 40.5t83.5 17q45 0 77.5 -14t53.5 -36t31.5 -48.5t10.5 -50.5zM559 57l-23 44l-40 -19.5t-53 -22t-61.5 -18t-63.5 -7.5q-58 0 -94.5 19t-57.5 45t-29 54.5t-9 48.5h408q0 5 1 19t1 26q0 34 -14 69.5t-42.5 64.5t-71 47
t-99.5 18q-55 0 -99 -18.5t-74.5 -50.5t-47 -74t-16.5 -88q0 -44 15 -85.5t45.5 -73t76 -50.5t106.5 -19q35 0 70 7t66.5 17.5t58.5 23t47 23.5z" />
    <glyph glyph-name="f" unicode="f" 
d="M201 418h-104v-47h104v-324h-104v-47h367v47h-213v324h213v47h-213v53q0 20 1.5 39t10.5 33.5t28 23t54 8.5q32 0 69.5 -4t70.5 -12l21 50q-32 6 -69 11t-79 5q-54 0 -85.5 -12t-47 -32.5t-20 -48t-4.5 -58.5v-56z" />
    <glyph glyph-name="g" unicode="g" 
d="M422 220q0 -31 -11.5 -60t-32.5 -51t-50.5 -35.5t-64.5 -13.5q-33 0 -62.5 12.5t-51.5 34.5t-35 51.5t-13 64.5q0 36 13.5 65.5t36 50.5t51.5 33t61 12q31 0 60 -11.5t51 -33t35 -52t13 -67.5zM553 430h-131v-73h-2q-21 29 -47 44.5t-49.5 23t-41 8.5t-21.5 1
q-42 0 -80.5 -16t-68 -44t-47.5 -67t-18 -85q0 -42 16.5 -80.5t45 -68t67.5 -46.5t85 -17q33 0 60.5 9t47.5 22t33 26t18 21h2v-58q0 -51 -14.5 -79.5t-44 -42t-75 -16t-108.5 -2.5v-47h63q67 0 111 12t70.5 35.5t37 58.5t10.5 81v353h81v47z" />
    <glyph glyph-name="h" unicode="h" 
d="M172 629l-147 -12l4 -47l93 8v-531h-84v-47h213v47h-79v268q18 15 38 29t42.5 25.5t45.5 18.5t47 7q45 0 70.5 -32.5t25.5 -86.5v-229h-85v-47h219v47h-84v233q0 36 -10 66.5t-29.5 52.5t-47 34t-61.5 12q-27 0 -51 -6.5t-45 -17t-40 -23t-35 -24.5v255z" />
    <glyph glyph-name="i" unicode="i" 
d="M255 656v-119h72v119h-72zM327 430h-197v-47h147v-336h-176v-47h399v47h-173v383z" />
    <glyph glyph-name="j" unicode="j" 
d="M298 656v-119h72v119h-72zM390 430h-305v-47h255v-336q0 -21 -2 -47t-14.5 -48.5t-40 -37.5t-77.5 -15q-38 0 -72.5 5t-54.5 10l-11 -48q29 -6 62 -11.5t73 -5.5q70 0 108 22.5t55.5 53t20.5 63t3 52.5v390z" />
    <glyph glyph-name="k" unicode="k" 
d="M185 629l-149 -13l4 -47l95 8v-530h-83v-47h133v183l56 43l62.5 -59.5l47 -46l37 -38t31.5 -35.5h-64v-47h208v47h-84l-35.5 41.5t-48 52l-56.5 57l-60 56.5l168 129h78v47h-209v-47h56v-2l-187 -142v390z" />
    <glyph glyph-name="l" unicode="l" 
d="M325 611l-218 -14l5 -46l163 12v-516h-174v-47h398v47h-174v564z" />
    <glyph glyph-name="m" unicode="m" 
d="M114 430h-114v-47h68v-336h-68v-47h186v47h-68v288q6 8 15 17.5t21 18t27 14.5t33 6q25 0 38.5 -12t19.5 -29t7 -37.5t1 -36.5v-276h112v47h-62v278q28 39 52.5 52.5t45.5 13.5q24 0 37 -10.5t19 -28t7 -38.5t1 -42v-272h107v47h-57v225q0 28 -1.5 47.5t-4.5 33t-8 24
t-12 21.5q-13 20 -38 31.5t-51 11.5q-35 0 -63.5 -18.5t-50.5 -44.5q-14 30 -41 46.5t-59 16.5q-18 0 -33.5 -5t-26.5 -11.5t-18 -12t-8 -6.5l-13 -11v35z" />
    <glyph glyph-name="n" unicode="n" 
d="M166 430h-132v-47h82v-336h-82v-47h216v47h-84v268q34 27 60.5 42.5t47.5 24t37 11t28 2.5q45 0 71.5 -32t26.5 -87v-229h-86v-47h216v47h-80v233q0 36 -10.5 66.5t-30 52.5t-47 34t-61.5 12q-27 0 -51 -6.5t-45.5 -17t-40.5 -23t-35 -24.5v56z" />
    <glyph glyph-name="o" unicode="o" 
d="M106 218q0 36 12.5 68.5t37.5 58t61 40.5t83 15q48 0 84.5 -15.5t60.5 -41t36.5 -58.5t12.5 -67q0 -35 -12.5 -67.5t-36.5 -58t-60.5 -41t-84.5 -15.5q-47 0 -83.5 15t-61 40.5t-37 58.5t-12.5 68zM52 218q0 -45 16 -86.5t47 -74t77.5 -52t107.5 -19.5q63 0 109.5 20
t77 53t46 74.5t15.5 84.5t-15.5 84.5t-46 74.5t-77 53t-109.5 20q-61 0 -107.5 -19.5t-77.5 -51.5t-47 -74t-16 -87z" />
    <glyph glyph-name="p" unicode="p" 
d="M147 222q0 34 13.5 65.5t37 54.5t56.5 37t72 14q42 0 73.5 -15.5t52.5 -40t31.5 -55.5t10.5 -62q0 -38 -14 -70.5t-37 -56t-53.5 -37t-64.5 -13.5q-29 0 -60.5 11.5t-57.5 34t-43 56t-17 77.5zM151 430h-132v-47h82v-493h-82v-47h281v47h-149v189h2q26 -32 54 -49.5
t53 -25.5t43 -9.5t24 -1.5q40 0 80 16.5t71 46.5t50.5 71.5t19.5 91.5q0 43 -15.5 83t-45 71.5t-70.5 50.5t-92 19q-40 0 -69.5 -10t-50.5 -23.5t-33.5 -27.5t-18.5 -23h-2v71z" />
    <glyph glyph-name="q" unicode="q" 
d="M453 222q0 -44 -17 -77.5t-43 -56t-57.5 -34t-60.5 -11.5q-34 0 -64.5 13.5t-54 37t-37 56t-13.5 70.5q0 31 10.5 62t31.5 55.5t52.5 40t73.5 15.5q39 0 72 -14t56.5 -37t37 -54.5t13.5 -65.5zM581 383v47h-132v-71h-2q-6 9 -18.5 23t-33.5 27.5t-50.5 23.5t-69.5 10
q-51 0 -92 -19t-70.5 -50.5t-45 -71.5t-15.5 -83q0 -50 19.5 -91.5t50.5 -71.5t70.5 -46.5t80.5 -16.5q6 0 24 1.5t43 9.5t53 25.5t54 49.5h2v-189h-149v-47h281v47h-82v493h82z" />
    <glyph glyph-name="r" unicode="r" 
d="M249 430h-166v-47h116v-336h-124v-47h364v47h-190v219l33.5 36t46.5 42.5t56 35t63 14.5q15 0 25.5 -3.5t17.5 -9t11.5 -12l8.5 -12.5q0 -2 1.5 -4t2.5 -3l53 39q-8 10 -17.5 19.5t-23 17.5t-31 13t-40.5 5q-36 0 -66.5 -11.5t-56 -28.5t-46.5 -37l-38 -37v100z" />
    <glyph glyph-name="s" unicode="s" 
d="M482 443l-45 7q-2 -5 -3 -8t-3 -13l-6 -14.5t-12 -9.5q-6 0 -13 3.5t-9 5.5q-14 8 -42 18.5t-73 10.5q-39 0 -72 -9.5t-56 -26.5t-36 -40t-13 -50q0 -45 25 -70.5t59 -38t69 -16t55 -4.5q31 -1 57.5 -3t45.5 -8.5t29.5 -19.5t10.5 -35q0 -29 -17.5 -46t-41.5 -26t-49 -12
t-40 -3q-52 0 -83 14t-47.5 33t-22.5 39t-8 33l-44 -5q2 -17 4 -42t2 -57q0 -25 -2 -37.5l-4 -25.5h44l9 29.5t11 12.5q2 0 3 -1l2 -1l22.5 -12t32.5 -14t42 -11.5t50 -4.5q33 0 66.5 8t61.5 25t45.5 43.5t17.5 62.5q0 39 -19.5 61.5t-44.5 33.5t-48.5 14t-32.5 3
q-44 2 -81.5 5t-65.5 11.5t-43.5 24t-15.5 42.5q0 31 32 52.5t92 21.5q52 0 82 -11t45.5 -26.5t21 -33.5t8.5 -33l44 5q-2 13 -3.5 27.5t-1.5 35.5q0 29 3 49.5t6 36.5z" />
    <glyph glyph-name="t" unicode="t" 
d="M223 563h-50v-147h-68v-47h68v-189q0 -50 4.5 -86.5t30.5 -62.5q16 -16 46 -30.5t78 -14.5q49 0 103.5 17.5t102.5 39.5l-18 45q-44 -18 -75 -28.5t-53 -15.5t-37.5 -6.5t-27.5 -1.5q-39 0 -60.5 12t-31 32t-11 46t-1.5 54v189h242v47h-242v147z" />
    <glyph glyph-name="u" unicode="u" 
d="M164 430h-132v-47h82v-218q0 -30 6.5 -61.5t23.5 -57.5t47 -43t77 -17q29 0 53 7.5t43.5 18t34.5 22.5l26 21v-55h131v47h-81v383h-136v-47h86v-260q-42 -45 -80.5 -66t-80.5 -21q-38 0 -58 16.5t-29.5 38t-11 43t-1.5 31.5v265z" />
    <glyph glyph-name="v" unicode="v" 
d="M234 430h-213v-47h74l182 -383h47l181 383h74v47h-203v-47h79l-152 -325l-150 325h81v47z" />
    <glyph glyph-name="w" unicode="w" 
d="M181 430h-179v-47h43l113 -383h49l93 258l95 -258h52l112 383h39v47h-170v-47h84l-90 -307h-2l-99 276h-35l-98 -272h-2l-88 303h83v47z" />
    <glyph glyph-name="x" unicode="x" 
d="M234 430h-193v-47h64l159 -158l-176 -178h-62v-47h197v47h-70l145 146l144 -146h-71v-47h203v47h-63l-180 178l157 158h61v47h-184v-47h58l-125 -125l-125 125h61v47z" />
    <glyph glyph-name="y" unicode="y" 
d="M211 430h-187v-47h61l186 -356l-77 -133h-154v-47h300v47h-89l280 489h58v47h-183v-47h68l-174 -304l-158 304h69v47z" />
    <glyph glyph-name="z" unicode="z" 
d="M496 430h-382v-136h47v89h264l-321 -336v-47h392v139h-47v-92h-277l324 340v43z" />
    <glyph glyph-name="braceleft" unicode="{" 
d="M461 604v48q-10 0 -37 -1t-55.5 -12.5t-50.5 -37.5t-22 -76q0 -9 1 -16t2.5 -16t4.5 -22t7 -34q1 -4 2.5 -11.5t3 -17.5t2.5 -20t1 -19q0 -31 -23.5 -46t-61.5 -19v-51q7 -1 21.5 -3.5t28.5 -9t24.5 -18.5t10.5 -32q0 -17 -3 -35.5t-6 -34.5q-1 -3 -2.5 -8.5t-3 -12
t-2.5 -12t-1 -8.5q-4 -17 -5 -30t-1 -20q0 -40 21.5 -71.5t61.5 -44.5q24 -8 42 -8h40v48q-16 0 -35.5 1.5t-37 8.5t-29 22t-11.5 42q0 17 2 33.5t10 48.5l8 35q1 5 3 18.5t2 25.5q0 18 -5 32t-13.5 24.5t-18 18.5l-18.5 15l19 15.5t18 19t13 24.5t5 32q0 12 -2 25.5
t-3 18.5l-8 35q-8 32 -10 48.5t-2 32.5q0 27 11 42t27.5 22.5t36.5 9t38 1.5z" />
    <glyph glyph-name="bar" unicode="|" 
d="M327 -185v858h-53v-858h53z" />
    <glyph glyph-name="braceright" unicode="}" 
d="M139 -47v-48q10 0 37 1t55.5 12t50.5 37.5t22 76.5q0 9 -1 16t-2.5 16t-4.5 22t-7 34q-1 4 -2.5 11.5t-3 17.5t-2.5 20t-1 19q0 31 23.5 46t61.5 19v51q-8 1 -22 3.5t-28 9t-24.5 18.5t-10.5 32q0 17 3 35.5t6 34.5q1 3 2.5 8.5t3 12t2.5 12t1 8.5q4 17 5 30t1 20
q0 40 -21.5 71.5t-61.5 44.5q-24 8 -43 8h-39v-48q16 0 35.5 -1.5t36.5 -8.5t29 -22t12 -42q0 -17 -2 -33.5t-10 -48.5l-8 -35q-1 -5 -3 -18.5t-2 -25.5q0 -36 18.5 -56.5t36.5 -33.5l-19 -15.5t-18 -19t-13 -24.5t-5 -32q0 -12 2 -25.5t3 -18.5l8 -35q8 -32 10 -48.5
t2 -32.5q0 -27 -11 -42t-27.5 -22.5t-36.5 -9t-38 -1.5z" />
    <glyph glyph-name="asciitilde" unicode="~" 
d="M515 349l-34 38q-1 -1 -3 -4t-2 -5q-13 -23 -25.5 -36t-24 -20t-20.5 -9t-15 -2q-5 0 -10.5 1t-13.5 4l-21 8l-33 13q-39 17 -61 24.5t-44 7.5q-24 0 -42 -9.5t-32.5 -24t-26 -32.5l-21.5 -35l33 -39q21 36 40 59.5t49 23.5q7 0 13.5 -1t15.5 -4t23 -9l38 -16
q26 -11 42.5 -16.5t26.5 -8t15.5 -3t9.5 -0.5q25 0 45 11t35.5 26t26 31t16.5 27z" />
    <glyph glyph-name="exclamdown" unicode="&#xa1;" 
d="M300 327q29 0 49 17.5t20 43.5t-20 44t-49 18t-49 -17.5t-20 -43.5t19.5 -44t49.5 -18zM277 240l-19 -378h83l-18 378h-46z" />
    <glyph glyph-name="cent" unicode="&#xa2;" 
d="M283 427v-290q-22 5 -44 13.5t-42 34.5q-18 23 -26 49t-8 48q0 3 2 22.5t13 43.5t35.5 46.5t69.5 32.5zM332 136v294q13 0 35 -5.5t42 -19.5q13 -9 20.5 -21.5t11.5 -25t5 -24.5t1 -21l47 6q-2 23 -2.5 36.5t-0.5 23.5q0 20 3 41.5t6 39.5l-47 5q0 -2 -2 -12l-1 -4
q0 -4 -1.5 -8t-3 -7.5t-4.5 -3.5q-2 0 -3 1.5t-3 2.5q-2 2 -9.5 8.5t-20 13t-31 12.5t-42.5 8v136h-49v-136q-42 -7 -74 -25t-53.5 -44t-33 -58.5t-11.5 -67.5q0 -36 10 -64t25 -51q12 -17 24.5 -29.5t28 -21.5t36 -15.5t48.5 -12.5v-144h49v144q30 5 51.5 10t40 12t37 17.5
t42.5 26.5q1 0 3 1.5t3 1.5l-24 41q-27 -17 -46 -27t-35.5 -16t-33 -10t-38.5 -8z" />
    <glyph glyph-name="sterling" unicode="&#xa3;" 
d="M187 339h-91v-47h105q12 -38 12 -77q0 -12 -2 -32t-10.5 -45.5t-25.5 -55t-46 -59.5l33 -43q42 24 67.5 31.5t45.5 7.5q16 0 30 -4t42 -14q24 -9 40 -12t30 -3q21 0 38.5 5.5t31 13.5t24 17t17.5 16l-29 36q-24 -20 -42.5 -30.5t-42.5 -10.5q-11 0 -23 3.5t-34 11.5
q-27 11 -43 14.5t-34 3.5q-23 0 -40 -6t-31 -13l-2 2q9 12 18 28t17 36.5t13 46.5t5 59q0 21 -2 37t-7 36h229v47h-243q-8 23 -13 39t-8 28.5t-4.5 22t-1.5 20.5q0 20 8.5 40.5t25 37t41.5 26.5t57 10t61 -9t40 -15q8 -5 10.5 -13.5t2.5 -14.5q0 -4 -0.5 -12.5t-1.5 -20.5
l45 5q2 36 6.5 60t12.5 52h-45q-3 -7 -4.5 -8.5t-3.5 -1.5t-5.5 1t-5.5 2q-21 8 -48.5 16t-65.5 8q-36 0 -68 -12.5t-57 -34.5t-39.5 -52t-14.5 -65q0 -23 5.5 -46t20.5 -63z" />
    <glyph glyph-name="currency" unicode="&#xa4;" 
d="M432 283q0 -26 -9.5 -49.5t-26.5 -42t-42 -29.5t-55 -11t-54.5 11t-41 29.5t-25.5 42t-9 49.5q0 24 9 47.5t26 42t41 30t55 11.5q30 0 54.5 -11t42 -29.5t26.5 -42t9 -48.5zM525 95l-82 80q5 7 11 17t11.5 23.5t9.5 32t4 42.5q0 11 -5.5 38t-30.5 62l82 81l-35 33
l-81 -80l-15.5 10.5t-23 12.5t-31 10t-39.5 4q-20 0 -49 -6.5t-60 -30.5l-81 80l-35 -33l82 -81q-11 -15 -23 -41t-12 -74q0 -8 4.5 -35t30.5 -65l-82 -80l35 -34l81 80q17 -13 34 -20.5t31.5 -11t26 -4.5t17.5 -1q16 0 47 6t62 31l81 -80z" />
    <glyph glyph-name="yen" unicode="&#xa5;" 
d="M327 47v92h144v47h-144v58h144v47h-144v13l181 242h60v47h-194v-47h76l-147 -195l-150 195h76v47h-197v-47h61l186 -242v-13h-147v-47h147v-58h-147v-47h147v-92h-119v-47h286v47h-119z" />
    <glyph glyph-name="brokenbar" unicode="&#xa6;" 
d="M327 -185v373h-53v-373h53zM327 300v373h-53v-373h53z" />
    <glyph glyph-name="section" unicode="&#xa7;" 
d="M248 352l128 -99q19 -15 31 -25.5t19 -19t9.5 -16.5t2.5 -17q0 -6 -3 -15.5t-11.5 -18t-23 -15t-38.5 -7.5l-136 105q-32 24 -41 38t-9 27q0 2 1 11t8 19.5t21.5 20t41.5 12.5zM469 430v133h-148q-17 0 -44 -3t-50 -17q-16 -11 -31 -32.5t-15 -53.5q0 -6 3.5 -27
t20.5 -40q-17 -3 -31.5 -13t-25.5 -24t-17.5 -31t-6.5 -34q0 -35 21.5 -58.5t53.5 -48.5l134 -103q27 -20 34 -33.5t7 -27.5q0 -17 -7.5 -28.5t-18.5 -18.5t-25.5 -10.5t-27.5 -3.5h-117v97h-47v-144h158q63 0 100 29t37 80q0 24 -7 38t-12 22q24 5 40 16t25.5 25t13.5 29
t4 27q0 19 -6 34.5t-17 29t-26.5 26.5l-33.5 27l-138 106q-14 11 -25 25.5t-11 34.5q0 22 8.5 33.5t20.5 17t24.5 6.5t20.5 1h115v-86h47z" />
    <glyph glyph-name="dieresis" unicode="&#xa8;" 
d="M329 621v-108h72v108h-72zM199 621v-108h72v108h-72z" />
    <glyph glyph-name="copyright" unicode="&#xa9;" 
d="M300 542q52 0 98 -20t80 -54t54 -80.5t20 -98.5t-20 -98t-54.5 -80t-80 -54t-97.5 -20t-97.5 20t-80 54t-54.5 80t-20 98q0 53 20 99t54.5 80.5t80 54t97.5 19.5zM300 580q-59 0 -112 -22.5t-92.5 -61.5t-62.5 -92t-23 -114q0 -60 23 -113t62.5 -92.5t92 -62.5t112.5 -23
t113 23t92 62.5t62 92.5t23 113t-23 113t-62 92.5t-92 62t-113 22.5zM430 342v97q-26 9 -59.5 15.5t-58.5 6.5q-43 0 -75.5 -14.5t-54 -38t-32.5 -54.5t-11 -64q0 -35 11 -66t32 -54.5t50.5 -37.5t66.5 -14q21 0 42.5 5.5t40 17t33 28.5t23.5 41l-24 10q-5 -10 -12.5 -22
t-19 -23t-28.5 -18.5t-41 -7.5q-29 0 -51.5 11.5t-38.5 31.5t-24.5 46.5t-8.5 55.5q0 28 8 53t24 44t39.5 30t54.5 11q26 0 47 -8.5t29 -21.5q5 -8 6.5 -23t3.5 -37h28z" />
    <glyph glyph-name="ordfeminine" unicode="&#xaa;" 
d="M422 302h-244v-36h244v36zM346 454v-31q-42 -48 -88 -48q-19 0 -33 11.5t-14 27.5q0 21 21.5 33t56.5 12q12 0 24 -1t33 -4zM191 555l14 -34q28 12 48 17.5t39 5.5q29 0 41.5 -11t12.5 -36v-7q-22 3 -34.5 4t-27.5 1q-51 0 -81 -22.5t-30 -58.5q0 -32 25 -53.5t60 -21.5
q23 0 42.5 7.5t45.5 27.5v-28h81v36h-43v118q0 80 -91 80q-23 0 -45 -5.5t-57 -19.5z" />
    <glyph glyph-name="guillemotleft" unicode="&#xab;" horiz-adv-x="533" 
d="M375 50h108l-135 219l135 218h-108l-135 -218zM185 50h109l-135 219l135 218h-109l-135 -218z" />
    <glyph glyph-name="logicalnot" unicode="&#xac;" 
d="M519 438h-429v-50h379v-219h50v269z" />
    <glyph glyph-name="registered" unicode="&#xae;" 
d="M300 542q51 0 97 -19.5t80.5 -53.5t54.5 -80t20 -99q0 -52 -19.5 -97.5t-54 -80t-80.5 -54.5t-98 -20q-53 0 -98.5 20t-80 54.5t-54 80t-19.5 97.5t20 98t54.5 80.5t80 54t97.5 19.5zM300 580q-59 0 -112 -22.5t-92.5 -61.5t-62.5 -92t-23 -114q0 -60 23 -112.5t62 -92
t92 -62.5t113 -23t113 23t92 62.5t62 92t23 112.5q0 61 -23 114t-62.5 92t-92 61.5t-112.5 22.5zM246 309v112q0 15 6.5 18t34.5 3q10 0 24 -1.5t27 -7.5t22 -19t9 -36q0 -39 -27.5 -54t-72.5 -15h-23zM160 466v-25q11 -1 18.5 -1.5t9.5 -0.5q6 0 7 -1q5 -2 5.5 -5t0.5 -15
v-233q0 -17 -4.5 -20t-22.5 -5q-1 -1 -7 -1q-5 0 -7 -1v-23h127v23q-8 1 -20 2t-14 2q-5 3 -6 6.5t-1 16.5v100h18q18 0 28.5 -1.5t18.5 -9t15 -22t17 -41.5q13 -35 26.5 -55.5t42.5 -20.5h40v24q-13 0 -21 0.5t-14 5t-11.5 14t-13.5 27.5q-16 36 -27 57t-27 32
q28 7 43.5 19.5t22.5 26t8.5 24.5t1.5 16q0 31 -15 48.5t-35 25.5t-39 9.5t-27 1.5h-138z" />
    <glyph glyph-name="macron" unicode="&#xaf;" 
d="M470 592h-340v-50h340v50z" />
    <glyph glyph-name="degree" unicode="&#xb0;" 
d="M202 468q0 21 7.5 39t21 31t31 20.5t38.5 7.5q42 0 70 -28t28 -70q0 -21 -7.5 -38.5t-20.5 -31t-31 -21t-39 -7.5q-42 0 -70 28t-28 70zM147 467q0 -32 12 -59.5t32.5 -48t48.5 -32.5t60 -12t60 12t48.5 33t32.5 48.5t12 58.5t-11.5 59t-32 49t-48.5 33.5t-61 12.5
q-32 0 -60 -12t-48.5 -33t-32.5 -49t-12 -60z" />
    <glyph glyph-name="plusminus" unicode="&#xb1;" 
d="M534 81h-468v-50h468v50zM325 576h-50v-196h-209v-50h209v-196h50v196h209v50h-209v196z" />
    <glyph glyph-name="twosuperior" unicode="&#xb2;" 
d="M406 345h-39v-57h-139l69 63l54.5 51t33.5 38.5t17 33t5 34.5q0 24 -9 44.5t-25 35.5t-37.5 24t-45.5 9q-68 0 -111 -55v-47h42l-1 12q1 20 21 35t48 15q31 0 53 -21t22 -51q0 -14 -2.5 -24.5t-10 -22.5t-23 -27.5t-40.5 -38.5l-25 -22.5l-31 -28l-31 -28l-25 -22.5
l-9 -8v-39h239v97z" />
    <glyph glyph-name="threesuperior" unicode="&#xb3;" 
d="M173 579l21 -34l15 10q23 16 38.5 21t32.5 5q27 0 45 -16t18 -41q0 -30 -25 -49q-11 -8 -23 -10.5t-39 -3.5v-40h24q39 0 60 -17.5t21 -50.5q0 -32 -22 -53t-57 -21q-21 0 -44.5 7t-55.5 22l-16 -37l19 -8q34 -14 53.5 -19t41.5 -5q54 0 88.5 31.5t34.5 82.5q0 59 -56 94
q38 32 38 78q0 42 -30 69t-75 27q-25 0 -47.5 -9t-59.5 -33z" />
    <glyph glyph-name="acute" unicode="&#xb4;" 
d="M268 503l143 115h-107l-89 -115h53z" />
    <glyph glyph-name="mu" unicode="&#xb5;" 
d="M168 430h-132v-42h82v-537h49v196q9 -7 12 -10l12 -12q4 -5 14 -11.5t24.5 -12.5t31.5 -10.5t35 -4.5q35 0 70 14.5t54 40.5l8 12h2v-53h132v41h-83v389h-132v-42h82v-193q0 -20 -1 -36t-4 -29t-8.5 -24.5t-14.5 -23.5q-17 -22 -48 -34t-59 -12t-56 12t-47 37
q-7 9 -11.5 18t-7 21.5t-3.5 29.5t-1 41v235z" />
    <glyph glyph-name="paragraph" unicode="&#xb6;" 
d="M272 533v-242q-32 -3 -50 9t-27 28.5t-11 32.5t-2 22v60q0 33 8 51t20.5 26.5t28.5 10.5t33 2zM444 -47v580h48v30h-207q-32 0 -64.5 -2.5t-59 -16.5t-43.5 -44.5t-17 -85.5q0 -48 16 -78.5t41 -47.5t55 -23t59 -4v-308h-62v-30h126v30h-19v580h82v-580h-19v-30h116v30
h-52z" />
    <glyph glyph-name="periodcentered" unicode="&#xb7;" 
d="M300 371q-14 0 -27.5 -4.5t-24.5 -13.5t-18 -21.5t-7 -28.5q0 -17 7 -29.5t18.5 -21t25 -13t26.5 -4.5q14 0 27.5 4.5t24.5 13.5t18 21.5t7 28.5q0 15 -6.5 27.5t-17.5 21.5t-24.5 14t-28.5 5z" />
    <glyph glyph-name="cedilla" unicode="&#xb8;" 
d="M322 -25l3 23h-45l-7 -60q29 -2 50.5 -6.5t21.5 -18.5q0 -7 -8.5 -10t-16.5 -3h-9q-32 0 -59 5t-43 9l-7 -44l43.5 -9t66.5 -6q28 0 44.5 7.5t24 17t9.5 19t2 14.5q0 3 -1.5 11.5t-8.5 18.5t-21 19t-39 13z" />
    <glyph glyph-name="onesuperior" unicode="&#xb9;" 
d="M300 621l-122 -54l16 -36l91 40v-283h-102v-40h243v40h-100v333h-26z" />
    <glyph glyph-name="ordmasculine" unicode="&#xba;" 
d="M422 302h-244v-36h244v36zM212 460q0 37 24.5 60.5t63.5 23.5t63.5 -23.5t24.5 -60.5q0 -38 -24.5 -61.5t-63.5 -23.5t-63.5 23.5t-24.5 61.5zM172 459q0 -54 35.5 -87t92.5 -33t92.5 33t35.5 87t-35.5 87.5t-92.5 33.5t-92.5 -33.5t-35.5 -87.5z" />
    <glyph glyph-name="guillemotright" unicode="&#xbb;" horiz-adv-x="533" 
d="M158 50l136 219l-136 218h-108l136 -218l-136 -219h108zM348 50l135 219l-135 218h-108l134 -218l-134 -219h108z" />
    <glyph glyph-name="onequarter" unicode="&#xbc;" 
d="M598 613l-28 20l-510 -701l28 -22zM129 622l-103 -43l16 -34l73 30v-288h-77v-38h191v38h-76v335h-24zM497 241v-195h-117l115 195h2zM535 46v250h-48l-149 -247v-40h159v-50h-67v-36h158v36h-53v50h53v37h-53z" />
    <glyph glyph-name="onehalf" unicode="&#xbd;" 
d="M590 18h-34v-57h-141l19 18l62 55q54 48 74.5 81t20.5 68q0 24 -8.5 44.5t-23.5 35.5t-36 23.5t-45 8.5q-63 0 -106 -54v-45h38q0 5 -0.5 7.5t-0.5 4.5q0 20 20.5 34.5t46.5 14.5q33 0 54.5 -21t21.5 -53q0 -17 -4.5 -31t-18.5 -31q-8 -9 -16.5 -17.5l-21 -20.5
l-30.5 -29l-43 -41l-34.5 -31.5t-14.5 -12.5t-4.5 -3.5l-3.5 -3.5v-39h229v95zM585 613l-29 20l-509 -701l28 -22zM123 622l-104 -43l16 -34l73 30v-288h-77v-38h191v38h-76v335h-23z" />
    <glyph glyph-name="threequarters" unicode="&#xbe;" 
d="M605 613l-28 20l-510 -701l28 -22zM29 581l19 -32l15 9q24 14 40 20t33 6q29 0 47.5 -16t18.5 -42q0 -33 -26 -51q-11 -8 -23.5 -10.5t-38.5 -3.5v-37l22 1q42 2 63 -17.5t21 -53.5t-23 -54.5t-59 -20.5q-22 0 -44.5 6t-56.5 22l-15 -35l18 -7q18 -7 31 -11.5t24 -7.5
t20.5 -4t20.5 -1q54 0 89 31.5t35 81.5q0 61 -58 94q21 17 30.5 35.5t9.5 43.5q0 20 -8 37.5t-22.5 30t-34 20t-41.5 7.5q-25 0 -48 -9t-59 -32zM542 46v250h-48l-149 -247v-40h159v-50h-67v-36h158v36h-53v50h53v37h-53zM504 241v-195h-117l115 195h2z" />
    <glyph glyph-name="questiondown" unicode="&#xbf;" 
d="M329 327q29 0 49 17.5t20 43.5q0 27 -20.5 44.5t-48.5 17.5t-48.5 -17.5t-20.5 -44.5q0 -26 20 -43.5t49 -17.5zM474 -105v102h-50v-64q-25 -10 -50.5 -17t-62.5 -7q-42 0 -69 11.5t-42.5 29t-21.5 37t-6 34.5q0 34 15.5 56.5t38.5 37t51 23t53 14.5q5 1 11.5 2.5
t8.5 2.5v97h-49v-60q-25 -7 -56.5 -18t-59 -30t-46.5 -48.5t-19 -73.5q0 -32 12 -61.5t36 -52t60 -36.5t84 -14q21 0 39.5 2t37 6.5t39 11z" />
    <glyph glyph-name="Agrave" unicode="&#xc0;" 
d="M300 504l113 -274h-226zM328 563h-215v-47h143l-193 -469h-53v-47h205v47h-102l56 139h261l57 -139h-102v-47h205v47h-51zM297 751h-107l132 -115h52z" />
    <glyph glyph-name="Aacute" unicode="&#xc1;" 
d="M300 504l113 -274h-226zM328 563h-215v-47h143l-193 -469h-53v-47h205v47h-102l56 139h261l57 -139h-102v-47h205v47h-51zM268 636l143 115h-107l-89 -115h53z" />
    <glyph glyph-name="Acircumflex" unicode="&#xc2;" 
d="M300 504l113 -274h-226zM328 563h-215v-47h143l-193 -469h-53v-47h205v47h-102l56 139h261l57 -139h-102v-47h205v47h-51zM336 754h-77l-88 -95l33 -24l91 66l101 -66l32 25z" />
    <glyph glyph-name="Atilde" unicode="&#xc3;" 
d="M300 504l113 -274h-226zM328 563h-215v-47h143l-193 -469h-53v-47h205v47h-102l56 139h261l57 -139h-102v-47h205v47h-51zM460 739l-40 13l-7 -18t-11 -19.5t-16.5 -16t-22.5 -6.5q-11 0 -23.5 6.5t-31.5 20.5q-16 14 -33 24t-41 10q-37 0 -58.5 -25.5t-35.5 -63.5
l40 -14l1 3q1 2 1 3q8 20 20 36t32 16q11 0 21 -5.5t34 -23.5q23 -18 38.5 -25t32.5 -7q32 0 59 21.5t39 63.5q0 5 2 7z" />
    <glyph glyph-name="Adieresis" unicode="&#xc4;" 
d="M300 504l113 -274h-226zM328 563h-215v-47h143l-193 -469h-53v-47h205v47h-102l56 139h261l57 -139h-102v-47h205v47h-51zM329 754v-108h72v108h-72zM199 754v-108h72v108h-72z" />
    <glyph glyph-name="Aring" unicode="&#xc5;" 
d="M301 737q16 0 26.5 -11t10.5 -27t-10.5 -27t-26.5 -11t-27.5 11t-11.5 27q0 18 11.5 28t27.5 10zM300 775q-32 0 -54 -22t-22 -54t22 -54t54 -22t54 22t22 54t-22 54t-54 22zM300 504l113 -274h-226zM328 563h-215v-47h143l-193 -469h-53v-47h205v47h-102l56 139h261
l57 -139h-102v-47h205v47h-51z" />
    <glyph glyph-name="AE" unicode="&#xc6;" 
d="M302 504v-273h-106l104 273h2zM549 563h-391v-47h103l-189 -469h-53v-47h192v47h-89l57 137h123v-184h254v186h-46l-6 -139h-152v228h65v-73h46v193h-46v-73h-65v194h143l9 -133h45v180z" />
    <glyph glyph-name="Ccedilla" unicode="&#xc7;" 
d="M354 -25v8q69 6 129 37t111 79l-33 36l-34.5 -28.5t-50 -34t-64.5 -28t-78 -11.5q-57 0 -98 22t-67.5 58t-38.5 82t-12 94q0 62 19 107.5t49.5 75t68 44t75.5 14.5q52 0 82.5 -18t47 -42.5t23 -51t9.5 -43.5l47 8q-5 40 -8.5 84t-1.5 107h-37q-1 -7 -2.5 -15l-3 -15.5
t-4 -12.5t-5.5 -5q-2 0 -7 3t-10.5 7.5l-10.5 8.5t-7 6q-32 20 -63 24.5t-47 4.5q-57 0 -106 -21t-85 -59.5t-56.5 -92.5t-20.5 -119q0 -44 12 -94.5t40.5 -95t76 -76.5t118.5 -39l-6 -45q29 -2 50.5 -6.5t21.5 -18.5q0 -7 -8.5 -10t-16.5 -3h-7q-34 0 -59 4.5t-45 9.5
l-7 -44l43.5 -9t66.5 -6q28 0 44.5 7.5t24 17.5t9.5 19.5t2 13.5q0 15 -7.5 26.5t-18 19.5t-22.5 12t-22 4z" />
    <glyph glyph-name="Egrave" unicode="&#xc8;" 
d="M532 563h-475v-47h85v-469h-85v-47h484v184h-46l-5 -137h-298v227h162v-72h46v192h-46v-73h-162v195h288l10 -137h46zM297 751h-107l132 -115h52z" />
    <glyph glyph-name="Eacute" unicode="&#xc9;" 
d="M532 563h-475v-47h85v-469h-85v-47h484v184h-46l-5 -137h-298v227h162v-72h46v192h-46v-73h-162v195h288l10 -137h46zM268 636l143 115h-107l-89 -115h53z" />
    <glyph glyph-name="Ecircumflex" unicode="&#xca;" 
d="M532 563h-475v-47h85v-469h-85v-47h484v184h-46l-5 -137h-298v227h162v-72h46v192h-46v-73h-162v195h288l10 -137h46zM336 754h-77l-88 -95l33 -24l91 66l101 -66l32 25z" />
    <glyph glyph-name="Edieresis" unicode="&#xcb;" 
d="M532 563h-475v-47h85v-469h-85v-47h484v184h-46l-5 -137h-298v227h162v-72h46v192h-46v-73h-162v195h288l10 -137h46zM329 754v-108h72v108h-72zM199 754v-108h72v108h-72z" />
    <glyph glyph-name="Igrave" unicode="&#xcc;" 
d="M500 563h-400v-47h175v-469h-175v-47h400v47h-175v469h175v47zM297 751h-107l132 -115h52z" />
    <glyph glyph-name="Iacute" unicode="&#xcd;" 
d="M500 563h-400v-47h175v-469h-175v-47h400v47h-175v469h175v47zM268 636l143 115h-107l-89 -115h53z" />
    <glyph glyph-name="Icircumflex" unicode="&#xce;" 
d="M500 563h-400v-47h175v-469h-175v-47h400v47h-175v469h175v47zM336 754h-77l-88 -95l33 -24l91 66l101 -66l32 25z" />
    <glyph glyph-name="Idieresis" unicode="&#xcf;" 
d="M500 563h-400v-47h175v-469h-175v-47h400v47h-175v469h175v47zM329 754v-108h72v108h-72zM199 754v-108h72v108h-72z" />
    <glyph glyph-name="Eth" unicode="&#xd0;" 
d="M163 274h166v47h-166v195h122q43 0 74.5 -5.5t57.5 -25.5q11 -9 24.5 -23.5t25.5 -37t20.5 -55.5t9.5 -80q0 -69 -20 -118.5t-47 -76.5q-18 -18 -39 -27.5t-41.5 -14t-38.5 -5t-31 -0.5h-117v227zM34 274h79v-227h-79v-47h246q14 0 36.5 1t48.5 6.5t53 17t50 33.5
q32 31 57.5 87.5t25.5 146.5q0 13 -1.5 35t-7.5 49t-18.5 56t-34.5 56q-21 25 -43.5 40t-47 22.5t-53 10t-61.5 2.5h-250v-47h79v-195h-79v-47z" />
    <glyph glyph-name="Ntilde" unicode="&#xd1;" 
d="M199 563h-171v-47h78v-469h-78v-47h237v47h-113v469h17l268 -529h89v529h65v47h-223v-47h112v-474h-18zM460 739l-40 13l-7 -18t-11 -19.5t-16.5 -16t-22.5 -6.5q-11 0 -23.5 6.5t-31.5 20.5q-16 14 -33 24t-41 10q-37 0 -58.5 -25.5t-35.5 -63.5l40 -14l1 3q1 2 1 3
q8 20 20 36t32 16q11 0 21 -5.5t34 -23.5q23 -18 38.5 -25t32.5 -7q32 0 59 21.5t39 63.5q0 5 2 7z" />
    <glyph glyph-name="Ograve" unicode="&#xd2;" 
d="M97 282q0 43 12.5 87.5t37.5 80t63 58t90 22.5q49 0 86.5 -21t63.5 -55.5t39.5 -79.5t13.5 -92t-13 -91.5t-39 -79.5t-64 -56.5t-87 -21.5q-50 0 -88 22t-63.5 57.5t-38.5 80t-13 89.5zM43 281q0 -62 18 -116t51.5 -94.5t81 -64t106.5 -23.5q60 0 107.5 24t80.5 64.5
t51 95t18 114.5q0 61 -17.5 115t-51 95t-81 65t-107.5 24q-59 0 -106.5 -23.5t-81 -64t-51.5 -95t-18 -116.5zM297 751h-107l132 -115h52z" />
    <glyph glyph-name="Oacute" unicode="&#xd3;" 
d="M97 282q0 43 12.5 87.5t37.5 80t63 58t90 22.5q49 0 86.5 -21t63.5 -55.5t39.5 -79.5t13.5 -92t-13 -91.5t-39 -79.5t-64 -56.5t-87 -21.5q-50 0 -88 22t-63.5 57.5t-38.5 80t-13 89.5zM43 281q0 -62 18 -116t51.5 -94.5t81 -64t106.5 -23.5q60 0 107.5 24t80.5 64.5
t51 95t18 114.5q0 61 -17.5 115t-51 95t-81 65t-107.5 24q-59 0 -106.5 -23.5t-81 -64t-51.5 -95t-18 -116.5zM268 636l143 115h-107l-89 -115h53z" />
    <glyph glyph-name="Ocircumflex" unicode="&#xd4;" 
d="M97 282q0 43 12.5 87.5t37.5 80t63 58t90 22.5q49 0 86.5 -21t63.5 -55.5t39.5 -79.5t13.5 -92t-13 -91.5t-39 -79.5t-64 -56.5t-87 -21.5q-50 0 -88 22t-63.5 57.5t-38.5 80t-13 89.5zM43 281q0 -62 18 -116t51.5 -94.5t81 -64t106.5 -23.5q60 0 107.5 24t80.5 64.5
t51 95t18 114.5q0 61 -17.5 115t-51 95t-81 65t-107.5 24q-59 0 -106.5 -23.5t-81 -64t-51.5 -95t-18 -116.5zM336 754h-77l-88 -95l33 -24l91 66l101 -66l32 25z" />
    <glyph glyph-name="Otilde" unicode="&#xd5;" 
d="M97 282q0 43 12.5 87.5t37.5 80t63 58t90 22.5q49 0 86.5 -21t63.5 -55.5t39.5 -79.5t13.5 -92t-13 -91.5t-39 -79.5t-64 -56.5t-87 -21.5q-50 0 -88 22t-63.5 57.5t-38.5 80t-13 89.5zM43 281q0 -62 18 -116t51.5 -94.5t81 -64t106.5 -23.5q60 0 107.5 24t80.5 64.5
t51 95t18 114.5q0 61 -17.5 115t-51 95t-81 65t-107.5 24q-59 0 -106.5 -23.5t-81 -64t-51.5 -95t-18 -116.5zM460 739l-40 13l-7 -18t-11 -19.5t-16.5 -16t-22.5 -6.5q-11 0 -23.5 6.5t-31.5 20.5q-16 14 -33 24t-41 10q-37 0 -58.5 -25.5t-35.5 -63.5l40 -14l1 3q1 2 1 3
q8 20 20 36t32 16q11 0 21 -5.5t34 -23.5q23 -18 38.5 -25t32.5 -7q32 0 59 21.5t39 63.5q0 5 2 7z" />
    <glyph glyph-name="Odieresis" unicode="&#xd6;" 
d="M97 282q0 43 12.5 87.5t37.5 80t63 58t90 22.5q49 0 86.5 -21t63.5 -55.5t39.5 -79.5t13.5 -92t-13 -91.5t-39 -79.5t-64 -56.5t-87 -21.5q-50 0 -88 22t-63.5 57.5t-38.5 80t-13 89.5zM43 281q0 -62 18 -116t51.5 -94.5t81 -64t106.5 -23.5q60 0 107.5 24t80.5 64.5
t51 95t18 114.5q0 61 -17.5 115t-51 95t-81 65t-107.5 24q-59 0 -106.5 -23.5t-81 -64t-51.5 -95t-18 -116.5zM329 754v-108h72v108h-72zM199 754v-108h72v108h-72z" />
    <glyph glyph-name="multiply" unicode="&#xd7;" 
d="M118 453l147 -147l-147 -146l36 -36l146 147l146 -147l36 36l-147 146l147 147l-36 35l-146 -146l-146 146z" />
    <glyph glyph-name="Oslash" unicode="&#xd8;" 
d="M431 477l-283 -365q-15 18 -25 42t-16 48t-8 45.5t-2 35.5q0 47 13.5 91.5t39.5 79t63.5 55.5t85.5 21q13 0 30 -2t34.5 -7.5t35 -16t32.5 -27.5zM177 78l282 363q44 -73 44 -161q0 -51 -14.5 -96t-41 -78.5t-64 -53t-83.5 -19.5q-26 0 -45.5 5t-34.5 12t-25.5 14.5
t-17.5 13.5zM98 -23l50 60q45 -36 85.5 -45t70.5 -9q58 0 105 24t80 64.5t50.5 94.5t17.5 113q0 7 -1 29t-7 52t-19 63t-37 62l44 56l-35 26l-39 -49q-11 8 -24.5 19t-33 20.5t-45 16t-59.5 6.5q-60 0 -107.5 -23.5t-81 -64.5t-51.5 -95.5t-18 -116.5q0 -39 6 -70.5t16 -57
t23 -46t26 -37.5l-50 -65z" />
    <glyph glyph-name="Ugrave" unicode="&#xd9;" 
d="M248 563h-224v-47h72v-282q0 -17 0.5 -39.5t3.5 -46t10 -46.5t20 -41q17 -24 39 -39t45 -24t45.5 -12t40.5 -3q33 0 60.5 7t49 18t36.5 23.5t23 24.5q8 11 14.5 24.5t11.5 33t7.5 46t2.5 64.5v292h72v47h-224v-47h102v-292q0 -34 -2.5 -67.5t-17.5 -60.5
q-14 -28 -45.5 -45.5t-90.5 -17.5q-58 0 -89 20.5t-45 50.5q-14 29 -16.5 64t-2.5 66v282h102v47zM297 751h-107l132 -115h52z" />
    <glyph glyph-name="Uacute" unicode="&#xda;" 
d="M248 563h-224v-47h72v-282q0 -17 0.5 -39.5t3.5 -46t10 -46.5t20 -41q17 -24 39 -39t45 -24t45.5 -12t40.5 -3q33 0 60.5 7t49 18t36.5 23.5t23 24.5q8 11 14.5 24.5t11.5 33t7.5 46t2.5 64.5v292h72v47h-224v-47h102v-292q0 -34 -2.5 -67.5t-17.5 -60.5
q-14 -28 -45.5 -45.5t-90.5 -17.5q-58 0 -89 20.5t-45 50.5q-14 29 -16.5 64t-2.5 66v282h102v47zM268 636l143 115h-107l-89 -115h53z" />
    <glyph glyph-name="Ucircumflex" unicode="&#xdb;" 
d="M248 563h-224v-47h72v-282q0 -17 0.5 -39.5t3.5 -46t10 -46.5t20 -41q17 -24 39 -39t45 -24t45.5 -12t40.5 -3q33 0 60.5 7t49 18t36.5 23.5t23 24.5q8 11 14.5 24.5t11.5 33t7.5 46t2.5 64.5v292h72v47h-224v-47h102v-292q0 -34 -2.5 -67.5t-17.5 -60.5
q-14 -28 -45.5 -45.5t-90.5 -17.5q-58 0 -89 20.5t-45 50.5q-14 29 -16.5 64t-2.5 66v282h102v47zM336 754h-77l-88 -95l33 -24l91 66l101 -66l32 25z" />
    <glyph glyph-name="Udieresis" unicode="&#xdc;" 
d="M248 563h-224v-47h72v-282q0 -17 0.5 -39.5t3.5 -46t10 -46.5t20 -41q17 -24 39 -39t45 -24t45.5 -12t40.5 -3q33 0 60.5 7t49 18t36.5 23.5t23 24.5q8 11 14.5 24.5t11.5 33t7.5 46t2.5 64.5v292h72v47h-224v-47h102v-292q0 -34 -2.5 -67.5t-17.5 -60.5
q-14 -28 -45.5 -45.5t-90.5 -17.5q-58 0 -89 20.5t-45 50.5q-14 29 -16.5 64t-2.5 66v282h102v47zM329 754v-108h72v108h-72zM199 754v-108h72v108h-72z" />
    <glyph glyph-name="Yacute" unicode="&#xdd;" 
d="M228 563h-196v-47h63l181 -298v-171h-119v-47h287v47h-118v171l179 298h63v47h-194v-47h78l-149 -248l-151 248h76v47zM268 636l143 115h-107l-89 -115h53z" />
    <glyph glyph-name="Thorn" unicode="&#xde;" 
d="M202 418h98q27 0 45.5 -1.5t32 -4t23.5 -6t19 -8.5q20 -10 40 -37.5t20 -68.5q0 -36 -14 -60t-28 -35q-26 -21 -72 -24t-107 -3h-57v248zM315 47h-113v76h55q45 0 75.5 0.5t53 3.5t39.5 9t35 17q32 18 53 57.5t21 84.5q0 46 -21 82.5t-53 56.5q-16 10 -32.5 16t-39 9.5
t-54 4.5t-77.5 1h-55v51h113v47h-244v-47h81v-469h-81v-47h244v47z" />
    <glyph glyph-name="germandbls" unicode="&#xdf;" 
d="M141 47h-76v-47h126v443q0 38 10 63.5t26 40.5t35.5 21.5t38.5 6.5q46 0 69 -27t23 -67q0 -38 -17.5 -59t-40.5 -32t-45.5 -14t-32.5 -4v-46q202 -8 202 -160q0 -34 -10.5 -57.5t-27 -38t-36 -21t-37.5 -6.5q-40 0 -68 12t-46 23v-52q12 -8 39 -20.5t76 -12.5
q40 0 70.5 14t51.5 37t31.5 53.5t10.5 63.5q0 54 -18.5 89.5t-43 57t-50 32t-39.5 15.5q35 14 59 48t24 79q0 29 -10 55t-28 45.5t-44.5 31t-59.5 11.5q-32 0 -61 -12t-51.5 -34.5t-36 -55t-13.5 -72.5v-404z" />
    <glyph glyph-name="agrave" unicode="&#xe0;" 
d="M411 219v-80q-32 -36 -61.5 -57t-54.5 -31.5t-44.5 -13.5t-31.5 -3q-21 0 -40 7.5t-34 20t-23.5 29t-8.5 35.5q0 4 3 21t19 35.5t50 33t96 14.5q42 0 77.5 -4t52.5 -7zM461 47v249q0 15 -2.5 40.5t-18.5 51t-50.5 44t-98.5 18.5q-60 0 -109.5 -15.5t-81.5 -29.5l19 -45
q60 26 102 34t69 8q45 0 70 -12t36 -29t13 -35t2 -30v-31q-23 4 -46.5 6.5t-43 4t-33.5 2t-17 0.5q-62 0 -103 -16t-65 -39.5t-34 -49.5t-10 -46q0 -26 11 -51t32 -45t50.5 -32.5t67.5 -12.5q31 0 59 8t52 20.5t44.5 28t35.5 29.5v-72h139v47h-89zM297 618h-107l132 -115h52
z" />
    <glyph glyph-name="aacute" unicode="&#xe1;" 
d="M411 219v-80q-32 -36 -61.5 -57t-54.5 -31.5t-44.5 -13.5t-31.5 -3q-21 0 -40 7.5t-34 20t-23.5 29t-8.5 35.5q0 4 3 21t19 35.5t50 33t96 14.5q42 0 77.5 -4t52.5 -7zM461 47v249q0 15 -2.5 40.5t-18.5 51t-50.5 44t-98.5 18.5q-60 0 -109.5 -15.5t-81.5 -29.5l19 -45
q60 26 102 34t69 8q45 0 70 -12t36 -29t13 -35t2 -30v-31q-23 4 -46.5 6.5t-43 4t-33.5 2t-17 0.5q-62 0 -103 -16t-65 -39.5t-34 -49.5t-10 -46q0 -26 11 -51t32 -45t50.5 -32.5t67.5 -12.5q31 0 59 8t52 20.5t44.5 28t35.5 29.5v-72h139v47h-89zM268 503l143 115h-107
l-89 -115h53z" />
    <glyph glyph-name="acircumflex" unicode="&#xe2;" 
d="M411 219v-80q-32 -36 -61.5 -57t-54.5 -31.5t-44.5 -13.5t-31.5 -3q-21 0 -40 7.5t-34 20t-23.5 29t-8.5 35.5q0 4 3 21t19 35.5t50 33t96 14.5q42 0 77.5 -4t52.5 -7zM461 47v249q0 15 -2.5 40.5t-18.5 51t-50.5 44t-98.5 18.5q-60 0 -109.5 -15.5t-81.5 -29.5l19 -45
q60 26 102 34t69 8q45 0 70 -12t36 -29t13 -35t2 -30v-31q-23 4 -46.5 6.5t-43 4t-33.5 2t-17 0.5q-62 0 -103 -16t-65 -39.5t-34 -49.5t-10 -46q0 -26 11 -51t32 -45t50.5 -32.5t67.5 -12.5q31 0 59 8t52 20.5t44.5 28t35.5 29.5v-72h139v47h-89zM319 621h-77l-88 -95
l33 -24l91 66l101 -66l32 25z" />
    <glyph glyph-name="atilde" unicode="&#xe3;" 
d="M411 219v-80q-32 -36 -61.5 -57t-54.5 -31.5t-44.5 -13.5t-31.5 -3q-21 0 -40 7.5t-34 20t-23.5 29t-8.5 35.5q0 4 3 21t19 35.5t50 33t96 14.5q42 0 77.5 -4t52.5 -7zM461 47v249q0 15 -2.5 40.5t-18.5 51t-50.5 44t-98.5 18.5q-60 0 -109.5 -15.5t-81.5 -29.5l19 -45
q60 26 102 34t69 8q45 0 70 -12t36 -29t13 -35t2 -30v-31q-23 4 -46.5 6.5t-43 4t-33.5 2t-17 0.5q-62 0 -103 -16t-65 -39.5t-34 -49.5t-10 -46q0 -26 11 -51t32 -45t50.5 -32.5t67.5 -12.5q31 0 59 8t52 20.5t44.5 28t35.5 29.5v-72h139v47h-89zM460 606l-40 13l-7 -18
t-11 -19.5t-16.5 -16t-22.5 -6.5q-11 0 -23.5 6.5t-31.5 20.5q-16 14 -33 24t-41 10q-37 0 -58.5 -25.5t-35.5 -63.5l40 -14l1 3q1 2 1 3q8 20 20 36t32 16q11 0 21 -5.5t34 -23.5q23 -18 38.5 -25t32.5 -7q32 0 59 21.5t39 63.5q0 5 2 7z" />
    <glyph glyph-name="adieresis" unicode="&#xe4;" 
d="M411 219v-80q-32 -36 -61.5 -57t-54.5 -31.5t-44.5 -13.5t-31.5 -3q-21 0 -40 7.5t-34 20t-23.5 29t-8.5 35.5q0 4 3 21t19 35.5t50 33t96 14.5q42 0 77.5 -4t52.5 -7zM461 47v249q0 15 -2.5 40.5t-18.5 51t-50.5 44t-98.5 18.5q-60 0 -109.5 -15.5t-81.5 -29.5l19 -45
q60 26 102 34t69 8q45 0 70 -12t36 -29t13 -35t2 -30v-31q-23 4 -46.5 6.5t-43 4t-33.5 2t-17 0.5q-62 0 -103 -16t-65 -39.5t-34 -49.5t-10 -46q0 -26 11 -51t32 -45t50.5 -32.5t67.5 -12.5q31 0 59 8t52 20.5t44.5 28t35.5 29.5v-72h139v47h-89zM312 621v-108h72v108h-72z
M182 621v-108h72v108h-72z" />
    <glyph glyph-name="aring" unicode="&#xe5;" 
d="M301 604q16 0 26.5 -11t10.5 -27t-10.5 -27t-26.5 -11t-27.5 11t-11.5 27q0 18 11.5 28t27.5 10zM300 642q-32 0 -54 -22t-22 -54t22 -54t54 -22t54 22t22 54t-22 54t-54 22zM411 219v-80q-32 -36 -61.5 -57t-54.5 -31.5t-44.5 -13.5t-31.5 -3q-21 0 -40 7.5t-34 20
t-23.5 29t-8.5 35.5q0 4 3 21t19 35.5t50 33t96 14.5q42 0 77.5 -4t52.5 -7zM461 47v249q0 15 -2.5 40.5t-18.5 51t-50.5 44t-98.5 18.5q-60 0 -109.5 -15.5t-81.5 -29.5l19 -45q60 26 102 34t69 8q45 0 70 -12t36 -29t13 -35t2 -30v-31q-23 4 -46.5 6.5t-43 4t-33.5 2
t-17 0.5q-62 0 -103 -16t-65 -39.5t-34 -49.5t-10 -46q0 -26 11 -51t32 -45t50.5 -32.5t67.5 -12.5q31 0 59 8t52 20.5t44.5 28t35.5 29.5v-72h139v47h-89z" />
    <glyph glyph-name="ae" unicode="&#xe6;" 
d="M513 250h-193q1 32 5 58.5t26 53.5q11 13 29 26.5t44 13.5q42 0 64.5 -38.5t24.5 -113.5zM270 209v-120q-8 -7 -20 -16.5t-26.5 -18.5t-32 -15t-35.5 -6q-19 0 -32.5 7.5t-22.5 19.5t-13.5 26.5t-4.5 29.5q0 13 4.5 31t17 33.5t34 26.5t55.5 11q17 0 33.5 -2t42.5 -7z
M320 203h243q3 61 -5 103t-22 69.5t-31.5 42.5t-34 22t-29 8.5t-16.5 1.5q-24 0 -42.5 -8t-33 -19t-25 -24.5l-18.5 -23.5q-5 15 -12.5 28.5t-19.5 24t-30.5 16.5t-45.5 6q-31 0 -62 -7.5t-73 -23.5l14 -44q42 15 68 21t52 6q23 0 37 -7.5t22 -21.5t11 -34.5t3 -46.5v-35
q-28 4 -44 6.5t-33 2.5q-41 0 -71 -14t-49.5 -35.5t-29.5 -48.5t-10 -52t8 -48.5t24 -42t39 -29.5t53 -11q13 0 29 3t35 11t40.5 23t44.5 38l14.5 -19.5t25 -24.5t37.5 -21t52 -9q13 0 46 4t87 23l-18 43q-25 -8 -54 -15t-59 -7q-14 0 -38 6t-47 36q-20 26 -25 55t-7 72z
" />
    <glyph glyph-name="ccedilla" unicode="&#xe7;" 
d="M330 -26v13q32 3 59.5 11t53.5 20t52 28t54 37l-26 38q-55 -38 -106.5 -61.5t-105.5 -23.5q-49 0 -84 16.5t-57.5 42.5t-33.5 58t-11 64q0 33 11.5 64.5t35.5 57t59.5 41t83.5 15.5q10 0 24 -1t29.5 -4.5t31.5 -10t30 -17.5q19 -16 26 -35.5t15 -53.5l46 7q-3 39 -3 66
q0 26 3.5 51.5l5.5 40.5l-46 5l-8 -41q-1 -2 -3 -7.5t-5 -5.5l-3 2l-6.5 4.5l-7 5t-4.5 3.5q-31 22 -61 31.5t-69 9.5q-62 0 -107 -21t-74 -54t-43.5 -73.5t-14.5 -80.5q0 -53 19 -95t49.5 -71.5t69 -45.5t77.5 -17l-4 -54q5 1 10 1.5t13 0.5q4 0 12.5 -2t8.5 -15
q0 -5 -3.5 -11.5t-15.5 -6.5q-7 0 -11.5 2t-20.5 13l-22 -37q12 -8 25 -15t33 -7q18 0 29.5 6.5t18 16.5t9.5 21t3 19q0 17 -10 33.5t-31 21.5z" />
    <glyph glyph-name="egrave" unicode="&#xe8;" 
d="M484 248h-356q3 17 13.5 42.5t31.5 49t54.5 40.5t83.5 17q45 0 77.5 -14t53.5 -36t31.5 -48.5t10.5 -50.5zM559 57l-23 44l-40 -19.5t-53 -22t-61.5 -18t-63.5 -7.5q-58 0 -94.5 19t-57.5 45t-29 54.5t-9 48.5h408q0 5 1 19t1 26q0 34 -14 69.5t-42.5 64.5t-71 47
t-99.5 18q-55 0 -99 -18.5t-74.5 -50.5t-47 -74t-16.5 -88q0 -44 15 -85.5t45.5 -73t76 -50.5t106.5 -19q35 0 70 7t66.5 17.5t58.5 23t47 23.5zM314 618h-107l132 -115h52z" />
    <glyph glyph-name="eacute" unicode="&#xe9;" 
d="M484 248h-356q3 17 13.5 42.5t31.5 49t54.5 40.5t83.5 17q45 0 77.5 -14t53.5 -36t31.5 -48.5t10.5 -50.5zM559 57l-23 44l-40 -19.5t-53 -22t-61.5 -18t-63.5 -7.5q-58 0 -94.5 19t-57.5 45t-29 54.5t-9 48.5h408q0 5 1 19t1 26q0 34 -14 69.5t-42.5 64.5t-71 47
t-99.5 18q-55 0 -99 -18.5t-74.5 -50.5t-47 -74t-16.5 -88q0 -44 15 -85.5t45.5 -73t76 -50.5t106.5 -19q35 0 70 7t66.5 17.5t58.5 23t47 23.5zM268 503l143 115h-107l-89 -115h53z" />
    <glyph glyph-name="ecircumflex" unicode="&#xea;" 
d="M484 248h-356q3 17 13.5 42.5t31.5 49t54.5 40.5t83.5 17q45 0 77.5 -14t53.5 -36t31.5 -48.5t10.5 -50.5zM559 57l-23 44l-40 -19.5t-53 -22t-61.5 -18t-63.5 -7.5q-58 0 -94.5 19t-57.5 45t-29 54.5t-9 48.5h408q0 5 1 19t1 26q0 34 -14 69.5t-42.5 64.5t-71 47
t-99.5 18q-55 0 -99 -18.5t-74.5 -50.5t-47 -74t-16.5 -88q0 -44 15 -85.5t45.5 -73t76 -50.5t106.5 -19q35 0 70 7t66.5 17.5t58.5 23t47 23.5zM336 621h-77l-88 -95l33 -24l91 66l101 -66l32 25z" />
    <glyph glyph-name="edieresis" unicode="&#xeb;" 
d="M484 248h-356q3 17 13.5 42.5t31.5 49t54.5 40.5t83.5 17q45 0 77.5 -14t53.5 -36t31.5 -48.5t10.5 -50.5zM559 57l-23 44l-40 -19.5t-53 -22t-61.5 -18t-63.5 -7.5q-58 0 -94.5 19t-57.5 45t-29 54.5t-9 48.5h408q0 5 1 19t1 26q0 34 -14 69.5t-42.5 64.5t-71 47
t-99.5 18q-55 0 -99 -18.5t-74.5 -50.5t-47 -74t-16.5 -88q0 -44 15 -85.5t45.5 -73t76 -50.5t106.5 -19q35 0 70 7t66.5 17.5t58.5 23t47 23.5zM329 621v-108h72v108h-72zM199 621v-108h72v108h-72z" />
    <glyph glyph-name="igrave" unicode="&#xec;" 
d="M327 430h-197v-47h147v-336h-176v-47h399v47h-173v383zM297 618h-107l132 -115h52z" />
    <glyph glyph-name="iacute" unicode="&#xed;" 
d="M327 430h-197v-47h147v-336h-176v-47h399v47h-173v383zM268 503l143 115h-107l-89 -115h53z" />
    <glyph glyph-name="icircumflex" unicode="&#xee;" 
d="M327 430h-197v-47h147v-336h-176v-47h399v47h-173v383zM336 621h-77l-88 -95l33 -24l91 66l101 -66l32 25z" />
    <glyph glyph-name="idieresis" unicode="&#xef;" 
d="M327 430h-197v-47h147v-336h-176v-47h399v47h-173v383zM329 621v-108h72v108h-72zM199 621v-108h72v108h-72z" />
    <glyph glyph-name="eth" unicode="&#xf0;" 
d="M106 218q0 36 13 69.5t37.5 59t60.5 41t83 15.5q48 0 84 -16t60.5 -42t37 -59.5t12.5 -67.5q0 -35 -12.5 -68t-36.5 -59t-60.5 -42t-84.5 -16q-47 0 -83 15.5t-61 41.5t-37.5 59t-12.5 69zM213 486l52 82q36 -21 61 -39t43.5 -35.5t32.5 -34l28 -34.5l-2 -2
q-22 11 -60 19t-77 8q-46 0 -89 -15.5t-76.5 -45.5t-53.5 -73t-20 -98q0 -44 15.5 -85.5t46.5 -74t77.5 -52.5t108.5 -20q52 0 97.5 16t79 46.5t52.5 75.5t19 103t-14.5 106.5t-38 88.5t-52 71.5t-57 55t-53.5 40t-40 25.5l39 62l-43 28l-41 -67q-18 9 -32.5 15.5l-28 12
t-28 10.5t-33.5 11l-17 -49l27 -9t24.5 -9t26.5 -11.5l33 -15.5l-50 -76z" />
    <glyph glyph-name="ntilde" unicode="&#xf1;" 
d="M166 430h-132v-47h82v-336h-82v-47h216v47h-84v268q34 27 60.5 42.5t47.5 24t37 11t28 2.5q45 0 71.5 -32t26.5 -87v-229h-86v-47h216v47h-80v233q0 36 -10.5 66.5t-30 52.5t-47 34t-61.5 12q-27 0 -51 -6.5t-45.5 -17t-40.5 -23t-35 -24.5v56zM460 606l-40 13l-7 -18
t-11 -19.5t-16.5 -16t-22.5 -6.5q-11 0 -23.5 6.5t-31.5 20.5q-16 14 -33 24t-41 10q-37 0 -58.5 -25.5t-35.5 -63.5l40 -14l1 3q1 2 1 3q8 20 20 36t32 16q11 0 21 -5.5t34 -23.5q23 -18 38.5 -25t32.5 -7q32 0 59 21.5t39 63.5q0 5 2 7z" />
    <glyph glyph-name="ograve" unicode="&#xf2;" 
d="M106 218q0 36 12.5 68.5t37.5 58t61 40.5t83 15q48 0 84.5 -15.5t60.5 -41t36.5 -58.5t12.5 -67q0 -35 -12.5 -67.5t-36.5 -58t-60.5 -41t-84.5 -15.5q-47 0 -83.5 15t-61 40.5t-37 58.5t-12.5 68zM52 218q0 -45 16 -86.5t47 -74t77.5 -52t107.5 -19.5q63 0 109.5 20
t77 53t46 74.5t15.5 84.5t-15.5 84.5t-46 74.5t-77 53t-109.5 20q-61 0 -107.5 -19.5t-77.5 -51.5t-47 -74t-16 -87zM297 618h-107l132 -115h52z" />
    <glyph glyph-name="oacute" unicode="&#xf3;" 
d="M106 218q0 36 12.5 68.5t37.5 58t61 40.5t83 15q48 0 84.5 -15.5t60.5 -41t36.5 -58.5t12.5 -67q0 -35 -12.5 -67.5t-36.5 -58t-60.5 -41t-84.5 -15.5q-47 0 -83.5 15t-61 40.5t-37 58.5t-12.5 68zM52 218q0 -45 16 -86.5t47 -74t77.5 -52t107.5 -19.5q63 0 109.5 20
t77 53t46 74.5t15.5 84.5t-15.5 84.5t-46 74.5t-77 53t-109.5 20q-61 0 -107.5 -19.5t-77.5 -51.5t-47 -74t-16 -87zM268 503l143 115h-107l-89 -115h53z" />
    <glyph glyph-name="ocircumflex" unicode="&#xf4;" 
d="M106 218q0 36 12.5 68.5t37.5 58t61 40.5t83 15q48 0 84.5 -15.5t60.5 -41t36.5 -58.5t12.5 -67q0 -35 -12.5 -67.5t-36.5 -58t-60.5 -41t-84.5 -15.5q-47 0 -83.5 15t-61 40.5t-37 58.5t-12.5 68zM52 218q0 -45 16 -86.5t47 -74t77.5 -52t107.5 -19.5q63 0 109.5 20
t77 53t46 74.5t15.5 84.5t-15.5 84.5t-46 74.5t-77 53t-109.5 20q-61 0 -107.5 -19.5t-77.5 -51.5t-47 -74t-16 -87zM336 621h-77l-88 -95l33 -24l91 66l101 -66l32 25z" />
    <glyph glyph-name="otilde" unicode="&#xf5;" 
d="M106 218q0 36 12.5 68.5t37.5 58t61 40.5t83 15q48 0 84.5 -15.5t60.5 -41t36.5 -58.5t12.5 -67q0 -35 -12.5 -67.5t-36.5 -58t-60.5 -41t-84.5 -15.5q-47 0 -83.5 15t-61 40.5t-37 58.5t-12.5 68zM52 218q0 -45 16 -86.5t47 -74t77.5 -52t107.5 -19.5q63 0 109.5 20
t77 53t46 74.5t15.5 84.5t-15.5 84.5t-46 74.5t-77 53t-109.5 20q-61 0 -107.5 -19.5t-77.5 -51.5t-47 -74t-16 -87zM460 606l-40 13l-7 -18t-11 -19.5t-16.5 -16t-22.5 -6.5q-11 0 -23.5 6.5t-31.5 20.5q-16 14 -33 24t-41 10q-37 0 -58.5 -25.5t-35.5 -63.5l40 -14l1 3
q1 2 1 3q8 20 20 36t32 16q11 0 21 -5.5t34 -23.5q23 -18 38.5 -25t32.5 -7q32 0 59 21.5t39 63.5q0 5 2 7z" />
    <glyph glyph-name="odieresis" unicode="&#xf6;" 
d="M106 218q0 36 12.5 68.5t37.5 58t61 40.5t83 15q48 0 84.5 -15.5t60.5 -41t36.5 -58.5t12.5 -67q0 -35 -12.5 -67.5t-36.5 -58t-60.5 -41t-84.5 -15.5q-47 0 -83.5 15t-61 40.5t-37 58.5t-12.5 68zM52 218q0 -45 16 -86.5t47 -74t77.5 -52t107.5 -19.5q63 0 109.5 20
t77 53t46 74.5t15.5 84.5t-15.5 84.5t-46 74.5t-77 53t-109.5 20q-61 0 -107.5 -19.5t-77.5 -51.5t-47 -74t-16 -87zM329 621v-108h72v108h-72zM199 621v-108h72v108h-72z" />
    <glyph glyph-name="divide" unicode="&#xf7;" 
d="M300 168q-18 0 -31.5 -12.5t-13.5 -32.5q0 -19 13.5 -32t31.5 -13q17 0 31 12.5t14 32.5t-14 32.5t-31 12.5zM534 328h-468v-50h468v50zM300 528q-17 0 -31 -12.5t-14 -32.5q0 -18 13 -31.5t32 -13.5q20 0 32.5 13.5t12.5 31.5q0 20 -13.5 32.5t-31.5 12.5z" />
    <glyph glyph-name="oslash" unicode="&#xf8;" 
d="M415 369l-271 -264q-23 29 -30.5 61t-7.5 52q0 34 12 66.5t36.5 58t61 41.5t84.5 16q23 0 39.5 -2.5t29 -7t23.5 -10zM184 68l270 264q40 -49 40 -114q0 -35 -12.5 -67.5t-36.5 -58t-60.5 -41t-84.5 -15.5q-26 0 -44 3t-31 7.5t-22.5 10t-18.5 11.5zM99 -14l46 46
q24 -17 50 -26.5t48 -14t38 -5t21 -0.5q59 0 105 19t77.5 51.5t47.5 74.5t16 87q0 11 -2 28.5t-7.5 38t-16.5 43t-29 43.5l46 46l-38 38l-49 -50q-32 26 -74.5 35.5t-77.5 9.5q-62 0 -108 -20t-77.5 -52t-47 -74t-15.5 -85q0 -12 2 -29t8 -37t16.5 -41.5t27.5 -42.5l-46 -46
z" />
    <glyph glyph-name="ugrave" unicode="&#xf9;" 
d="M164 430h-132v-47h82v-218q0 -30 6.5 -61.5t23.5 -57.5t47 -43t77 -17q29 0 53 7.5t43.5 18t34.5 22.5l26 21v-55h131v47h-81v383h-136v-47h86v-260q-42 -45 -80.5 -66t-80.5 -21q-38 0 -58 16.5t-29.5 38t-11 43t-1.5 31.5v265zM297 618h-107l132 -115h52z" />
    <glyph glyph-name="uacute" unicode="&#xfa;" 
d="M164 430h-132v-47h82v-218q0 -30 6.5 -61.5t23.5 -57.5t47 -43t77 -17q29 0 53 7.5t43.5 18t34.5 22.5l26 21v-55h131v47h-81v383h-136v-47h86v-260q-42 -45 -80.5 -66t-80.5 -21q-38 0 -58 16.5t-29.5 38t-11 43t-1.5 31.5v265zM268 503l143 115h-107l-89 -115h53z" />
    <glyph glyph-name="ucircumflex" unicode="&#xfb;" 
d="M164 430h-132v-47h82v-218q0 -30 6.5 -61.5t23.5 -57.5t47 -43t77 -17q29 0 53 7.5t43.5 18t34.5 22.5l26 21v-55h131v47h-81v383h-136v-47h86v-260q-42 -45 -80.5 -66t-80.5 -21q-38 0 -58 16.5t-29.5 38t-11 43t-1.5 31.5v265zM336 621h-77l-88 -95l33 -24l91 66
l101 -66l32 25z" />
    <glyph glyph-name="udieresis" unicode="&#xfc;" 
d="M164 430h-132v-47h82v-218q0 -30 6.5 -61.5t23.5 -57.5t47 -43t77 -17q29 0 53 7.5t43.5 18t34.5 22.5l26 21v-55h131v47h-81v383h-136v-47h86v-260q-42 -45 -80.5 -66t-80.5 -21q-38 0 -58 16.5t-29.5 38t-11 43t-1.5 31.5v265zM329 621v-108h72v108h-72zM199 621v-108
h72v108h-72z" />
    <glyph glyph-name="yacute" unicode="&#xfd;" 
d="M211 430h-187v-47h61l186 -356l-77 -133h-154v-47h300v47h-89l280 489h58v47h-183v-47h68l-174 -304l-158 304h69v47zM268 503l143 115h-107l-89 -115h53z" />
    <glyph glyph-name="thorn" unicode="&#xfe;" 
d="M147 222q0 34 13.5 65.5t37 54.5t56.5 37t72 14q42 0 73.5 -15.5t52.5 -40t31.5 -55.5t10.5 -62q0 -38 -14 -70.5t-37 -56t-53.5 -37t-64.5 -13.5q-29 0 -60.5 11.5t-57.5 34t-43 56t-17 77.5zM151 359v270l-139 -9v-47l89 4v-687h-82v-47h281v47h-149v189h2
q26 -32 54 -49.5t53 -25.5t43 -9.5t24 -1.5q40 0 80 16.5t71 46t50.5 71t19.5 92.5q0 43 -16 83.5t-45 71.5t-70 50t-92 19q-40 0 -69.5 -10t-50.5 -23.5t-33.5 -27.5t-18.5 -23h-2z" />
    <glyph glyph-name="ydieresis" unicode="&#xff;" 
d="M329 621v-108h72v108h-72zM199 621v-108h72v108h-72zM164 430h-132v-47h82v-218q0 -30 6.5 -61.5t23.5 -57.5t47 -43t77 -17q29 0 53 7.5t43.5 18t34.5 22.5l26 21v-55h131v47h-81v383h-136v-47h86v-260q-42 -45 -80.5 -66t-80.5 -21q-38 0 -58 16.5t-29.5 38t-11 43
t-1.5 31.5v265z" />
    <glyph glyph-name="OE" unicode="&#x152;" 
d="M302 516v-469h-44q-51 0 -86.5 22.5t-58 57t-33 75.5t-10.5 78q0 47 13.5 90t39.5 75.5t64.5 51.5t88.5 19h26zM537 563h-258q-59 0 -107.5 -22t-83 -61t-53.5 -91t-19 -112q0 -44 13.5 -92.5t41 -89.5t70 -68t101.5 -27h308v185h-46l-6 -138h-146v228h65v-73h46v193h-46
v-73h-65v194h132l9 -133h44v180z" />
    <glyph glyph-name="oe" unicode="&#x153;" 
d="M514 249h-194q1 51 14.5 81.5t31 46t34 20.5t24.5 5q24 0 41 -13t28 -35t16 -49.5t5 -55.5zM270 211q0 -9 -0.5 -25.5t-3.5 -36.5t-9.5 -40.5t-18.5 -37.5t-30.5 -27.5t-45.5 -10.5q-29 0 -48 15.5t-30 40t-15.5 54t-4.5 57.5q0 35 6 71t19.5 65.5t34.5 48t52 18.5
q18 0 34.5 -6t30 -26.5t21.5 -58.5t8 -101zM320 205h242q1 7 1.5 20.5t0.5 25.5q0 28 -7.5 62.5t-24 65t-43 51t-65.5 20.5q-33 0 -67 -20t-57 -62q-3 7 -11.5 21t-23.5 27.5t-37 24t-52 10.5q-46 0 -77.5 -21.5t-51 -57.5t-28.5 -81.5t-9 -93.5q0 -9 0.5 -28t5 -42.5
t13.5 -48.5t26 -45.5t43.5 -34t64.5 -13.5q36 0 60 11t40 26.5t24.5 31t12.5 24.5q15 -33 35 -51.5t39.5 -27.5t36.5 -11.5t26 -2.5q14 0 45.5 4.5t85.5 22.5l-18 43q-20 -6 -51.5 -14t-63.5 -8q-17 0 -37 7.5t-38 26.5t-29.5 52.5t-10.5 85.5z" />
    <glyph glyph-name="Scaron" unicode="&#x160;" 
d="M264 642h76l88 94l-32 25l-92 -66l-101 65l-32 -24zM507 574h-45q0 -3 -2 -13q-5 -24 -6.5 -30t-8.5 -6q-3 0 -7 2.5t-16 11.5q-5 4 -15 11t-25 13.5t-36 11.5t-48 5q-43 0 -79.5 -14t-63 -38t-41.5 -55t-15 -65q0 -50 23.5 -79.5t57.5 -45.5t72.5 -22t67.5 -9
q19 -2 43.5 -6t45.5 -14.5t35.5 -30t14.5 -52.5q0 -19 -7.5 -39.5t-25.5 -37.5t-48.5 -28t-76.5 -11q-54 0 -81.5 17.5t-41.5 35.5q-17 22 -23.5 46t-10.5 43h-45q1 -11 2.5 -25.5l3 -30t2.5 -29t1 -21.5v-10q0 -11 -2 -33t-7 -46h45q4 25 5.5 31.5t3.5 13.5q2 2 4.5 5
t5.5 3q2 0 4.5 -1.5t3.5 -2.5q7 -6 18 -13.5t27.5 -15t39 -12.5t52.5 -5q37 0 73.5 10t65.5 31t47.5 53t18.5 76q0 43 -18 71t-44 45t-58 23.5t-88 12.5q-18 2 -44 6t-50 15t-41 31t-17 55q0 19 9 39.5t27.5 38t47 29t67.5 11.5q30 0 51 -6.5t36 -15.5t24.5 -19.5
t15.5 -19.5q17 -26 23 -52t8 -42l45 8q-5 43 -7 72.5t-2 46.5q0 19 2 34t7 38z" />
    <glyph glyph-name="scaron" unicode="&#x161;" 
d="M264 509h76l88 94l-32 25l-92 -66l-101 65l-32 -24zM482 443l-45 7q-2 -5 -3 -8t-3 -13l-6 -14.5t-12 -9.5q-6 0 -13 3.5t-9 5.5q-14 8 -42 18.5t-73 10.5q-39 0 -72 -9.5t-56 -26.5t-36 -40t-13 -50q0 -45 25 -70.5t59 -38t69 -16t55 -4.5q31 -1 57.5 -3t45.5 -8.5
t29.5 -19.5t10.5 -35q0 -29 -17.5 -46t-41.5 -26t-49 -12t-40 -3q-52 0 -83 14t-47.5 33t-22.5 39t-8 33l-44 -5q2 -17 4 -42t2 -57q0 -25 -2 -37.5l-4 -25.5h44l9 29.5t11 12.5q2 0 3 -1l2 -1l22.5 -12t32.5 -14t42 -11.5t50 -4.5q33 0 66.5 8t61.5 25t45.5 43.5t17.5 62.5
q0 39 -19.5 61.5t-44.5 33.5t-48.5 14t-32.5 3q-44 2 -81.5 5t-65.5 11.5t-43.5 24t-15.5 42.5q0 31 32 52.5t92 21.5q52 0 82 -11t45.5 -26.5t21 -33.5t8.5 -33l44 5q-2 13 -3.5 27.5t-1.5 35.5q0 29 3 49.5t6 36.5z" />
    <glyph glyph-name="Ydieresis" unicode="&#x178;" 
d="M228 563h-196v-47h63l181 -298v-171h-119v-47h287v47h-118v171l179 298h63v47h-194v-47h78l-149 -248l-151 248h76v47zM329 754v-108h72v108h-72zM199 754v-108h72v108h-72z" />
    <glyph glyph-name="Zcaron" unicode="&#x17d;" 
d="M264 642h76l88 94l-32 25l-92 -66l-101 65l-32 -24zM493 563h-402v-193h47v146h291l-345 -469v-47h432v209h-47v-162h-325l349 475v41z" />
    <glyph glyph-name="zcaron" unicode="&#x17e;" 
d="M264 509h76l88 94l-32 25l-92 -66l-101 65l-32 -24zM496 430h-382v-136h47v89h264l-321 -336v-47h392v139h-47v-92h-277l324 340v43z" />
    <glyph glyph-name="florin" unicode="&#x192;" 
d="M504 609l5 51q-20 4 -64 4q-76 0 -119 -19.5t-64.5 -47.5t-26.5 -59t-5 -53v-60h-107v-42h107v-325q0 -20 -2 -39t-13 -33q-16 -19 -51 -28t-68 -9q-17 0 -35 2t-33 4l-4 -50q11 -2 24 -3t26 -1q43 0 86 9t76 34q28 21 36 46.5t8 60.5v332h176v42h-176v55q0 19 2.5 42.5
t17 44.5t45 35.5t87.5 14.5q24 0 41.5 -2.5t30.5 -5.5z" />
    <glyph glyph-name="circumflex" unicode="&#x2c6;" 
d="M336 621h-77l-88 -95l33 -24l91 66l101 -66l32 25z" />
    <glyph glyph-name="tilde" unicode="&#x2dc;" 
d="M460 606l-40 13l-7 -18t-11 -19.5t-16.5 -16t-22.5 -6.5q-11 0 -23.5 6.5t-31.5 20.5q-16 14 -33 24t-41 10q-37 0 -58.5 -25.5t-35.5 -63.5l40 -14l1 3q1 2 1 3q8 20 20 36t32 16q11 0 21 -5.5t34 -23.5q23 -18 38.5 -25t32.5 -7q32 0 59 21.5t39 63.5q0 5 2 7z" />
    <glyph glyph-name="FL1200h" unicode="&#x1200;" horiz-adv-x="615" 
d="M220 647v-587q0 -15 25 -27t64 -12q34 0 60 11.5t26 23.5v565h-50v26h230v-26h-50v-441q0 -94 -54 -137t-163 -43q-33 0 -68 -0.5t-65.5 -2.5t-53 -6.5t-31.5 -13.5v618q0 7 -4.5 16.5t-19.5 9.5h-26v26h180z" />
    <glyph glyph-name="FL1201h" unicode="&#x1201;" horiz-adv-x="682" 
d="M525 366v-186q0 -94 -54 -137t-163 -43q-35 0 -69 -1t-63 -4t-51.5 -10t-34.5 -19v629q0 7 -4.5 16.5t-19.5 9.5h-26v26h180v-587q0 -15 25 -27t64 -12q34 0 60 11.5t26 23.5v565h-50v26h230v-26h-50v-178h117v-129h-25q0 21 -7 36.5t-32 15.5h-53z" />
    <glyph glyph-name="FL1202h" unicode="&#x1202;" horiz-adv-x="657" 
d="M502 26h31q22 0 37.5 26t21.5 77h25v-129h-265v26h20v308q-9 -9 -20.5 -16t-24 -12t-25 -7.5t-21.5 -2.5q-24 0 -52 -0.5t-54.5 -2t-49 -5.5t-35.5 -11v344h-50v26h175v-284q0 -14 6 -23t15.5 -14t21 -7t23.5 -2q10 0 23.5 3.5t27 9t24.5 12.5t16 14v265h-50v26h230v-26
h-50v-595z" />
    <glyph glyph-name="FL1203h" unicode="&#x1203;" horiz-adv-x="592" 
d="M502 621v-600h50v-21h-230v21h50v315q-25 -18 -48.5 -28t-42.5 -10q-29 0 -58.5 -0.5t-56 -3.5t-46.5 -9.5t-30 -18.5v355h-50v26h175v-284q0 -14 6 -23t15.5 -14t21 -7t23.5 -2q20 0 42 11.5t49 28.5v264h-50v26h230v-26h-50z" />
    <glyph glyph-name="FL1204h" unicode="&#x1204;" horiz-adv-x="699" 
d="M502 234q6 6 16 9t18 3q17 0 31.5 -3.5t33.5 -3.5q25 0 58 11v-132q0 -39 -6.5 -62.5t-22 -36t-41 -16t-62.5 -3.5h-175v21h20v315q-25 -18 -48.5 -28t-42.5 -10q-15 0 -43.5 -0.5t-58.5 -3.5t-55 -9t-34 -17v353h-50v26h175v-284q0 -14 6 -23t15.5 -14t21 -7t23.5 -2
q20 0 42 11.5t49 28.5v264h-50v26h230v-26h-50v-387zM502 218v-181q0 -14 5.5 -21.5t21.5 -7.5q17 0 23.5 4t9.5 22v185q-9 17 -26 17q-18 0 -34 -18z" />
    <glyph glyph-name="FL1205h" unicode="&#x1205;" horiz-adv-x="615" 
d="M220 60q0 -15 25 -27t64 -12q34 0 60 11.5t26 23.5v565h-50v26h230v-26h-50v-441q0 -94 -54 -137t-163 -43q-34 0 -68 -0.5t-63 -4t-52 -11t-35 -20.5v396q20 -38 69 -38q8 0 16.5 5t15 13.5t11 18t4.5 18.5q-7 -5 -19 -11t-29 -6q-12 0 -24 3t-22 12.5t-16 28t-6 49.5
v142q0 7 -4.5 16.5t-19.5 9.5h-26v26h180v-587z" />
    <glyph glyph-name="FL1206h" unicode="&#x1206;" horiz-adv-x="722" 
d="M220 638v-578q0 -15 25 -27t64 -12q34 0 60 11.5t26 23.5v556h-33v26h163q51 0 93 3t64 17v-148q0 -45 -8.5 -71.5t-27.5 -40.5t-49 -18.5t-72 -5.5v-194q0 -94 -54 -137t-163 -43q-35 0 -70 -1t-65 -4t-52 -10t-31 -19v620q0 6 -4.5 16t-19.5 10h-26v26h180zM525 614
v-198q0 -14 5.5 -21.5t21.5 -7.5q17 0 25 5.5t8 20.5v198q-9 16 -26 16q-8 0 -17 -2.5t-17 -10.5z" />
    <glyph glyph-name="FL1208h" unicode="&#x1208;" horiz-adv-x="615" 
d="M395 397v-376h-50v-21h230v21h-50v437q-12 0 -22 -4.5t-27.5 -10.5t-48 -10.5t-82.5 -4.5q-18 0 -37.5 -5.5t-36.5 -16t-30.5 -25t-20.5 -32.5v298h-180v-26h26q15 0 19.5 -9.5t4.5 -16.5v-574h-50v-21h230v21h-50v289q3 10 12 26.5t24 32.5t37 27.5t52 11.5q22 0 50 -11
z" />
    <glyph glyph-name="FL1209h" unicode="&#x1209;" horiz-adv-x="680" 
d="M640 184h-25q0 21 -7 36.5t-32 15.5h-51v-215h50v-21h-230v21h50v376q-28 11 -50 11q-30 0 -52 -11.5t-37 -27.5t-24 -32.5t-12 -26.5v-289h50v-21h-230v21h50v574q0 7 -4.5 16.5t-19.5 9.5h-26v26h180v-298q7 18 20.5 32.5t30.5 25t36.5 16t37.5 5.5q52 0 82.5 4.5
t48 10.5t27.5 10.5t22 4.5v-145h115v-129z" />
    <glyph glyph-name="FL120Ah" unicode="&#x120a;" horiz-adv-x="680" 
d="M525 26h31q22 0 37.5 26t21.5 77h25v-129h-265v26h20v371q-28 11 -50 11q-30 0 -52 -11.5t-37 -27.5t-24 -32.5t-12 -26.5v-289h50v-21h-230v21h50v574q0 7 -4.5 16.5t-19.5 9.5h-26v26h180v-298q7 18 20.5 32.5t30.5 25t36.5 16t37.5 5.5q52 0 82.5 4.5t48 10.5
t27.5 10.5t22 4.5v-432z" />
    <glyph glyph-name="FL120Bh" unicode="&#x120b;" horiz-adv-x="615" 
d="M395 397v-376h-50v-21h230v21h-50v437q-12 0 -22 -4.5t-27.5 -10.5t-48 -10.5t-82.5 -4.5q-18 0 -37.5 -5.5t-36.5 -16t-30.5 -25t-20.5 -32.5v298h-180v-26h26q15 0 19.5 -9.5t4.5 -16.5v-451h-50v-20h230v20h-50v166q3 10 12 26.5t24 32.5t37 27.5t52 11.5q22 0 50 -11
z" />
    <glyph glyph-name="FL120Ch" unicode="&#x120c;" horiz-adv-x="722" 
d="M525 234q6 6 16 9t18 3q17 0 30.5 -1t27.5 -1q15 0 31 2t34 10v-138q0 -39 -6.5 -62.5t-22 -36t-41 -16t-62.5 -3.5h-175v21h20v376q-28 11 -50 11q-30 0 -52 -11.5t-37 -27.5t-24 -32.5t-12 -26.5v-289h50v-21h-230v21h50v574q0 7 -4.5 16.5t-19.5 9.5h-26v26h180v-298
q7 18 20.5 32.5t30.5 25t36.5 16t37.5 5.5q52 0 82.5 4.5t48 10.5t27.5 10.5t22 4.5v-224zM525 218v-181q0 -14 5.5 -21.5t21.5 -7.5q17 0 23.5 4t9.5 22v185q-9 17 -26 17q-18 0 -34 -18z" />
    <glyph glyph-name="FL120Dh" unicode="&#x120d;" horiz-adv-x="643" 
d="M220 234q6 6 16 9t18 3q11 0 27 -0.5t33 -0.5q21 0 39 2t24 10v-139q0 -39 -6.5 -62.5t-22 -36t-41 -16t-62.5 -3.5h-175v21h20v574q0 7 -4.5 16.5t-19.5 9.5h-26v26h180v-298q7 18 25 32.5t40.5 25t46 16t41.5 5.5q52 0 82.5 4.5t48 10.5t27.5 10.5t22 4.5v-437h50v-21
h-230v21h50v376q-28 11 -50 11q-30 0 -56.5 -11.5t-47 -27.5t-33.5 -32.5t-16 -26.5v-76zM220 215v-178q0 -14 5.5 -21.5t21.5 -7.5q17 0 27.5 4t13.5 22v182q-5 9 -15.5 13t-18.5 4q-18 0 -34 -18z" />
    <glyph glyph-name="FL120Eh" unicode="&#x120e;" horiz-adv-x="806" 
d="M560 297h-35v-276h50v-21h-230v21h50v376q-28 11 -50 11q-30 0 -52 -11.5t-37 -27.5t-24 -32.5t-12 -26.5v-289h50v-21h-230v21h50v574q0 7 -4.5 16.5t-19.5 9.5h-26v26h180v-298q7 18 20.5 32.5t30.5 25t36.5 16t37.5 5.5q52 0 82.5 4.5t48 10.5t27.5 10.5t22 4.5v-145
h148q30 0 53.5 1.5t39.5 9.5v-102q0 -32 -5 -51.5t-17.5 -30t-33 -13.5t-50.5 -3q-32 0 -52 2.5t-30.5 10.5t-14 23t-3.5 40v97zM639 154q3 -11 10 -15t16 -4q8 0 14.5 3.5t8.5 14.5v137q-6 14 -23 14q-6 0 -12.5 -4t-13.5 -10v-136z" />
    <glyph glyph-name="l8" unicode="&#x120f;" horiz-adv-x="691" 
d="M276 -32v99h119v330q-28 11 -50 11q-30 0 -52 -11.5t-37 -27.5t-24 -32.5t-12 -26.5v-166h50v-20h-230v20h50v451q0 7 -4.5 16.5t-19.5 9.5h-26v26h180v-298q7 18 20.5 32.5t30.5 25t36.5 16t37.5 5.5q52 0 82.5 4.5t48 10.5t27.5 10.5t22 4.5v-391h126v-99h-45
q0 9 -2.5 22.5t-10.5 26t-23 21t-40 8.5h-133q-24 0 -39 -8.5t-23.5 -21t-11 -26t-2.5 -22.5h-45z" />
    <glyph glyph-name="hh1" unicode="&#x1210;" horiz-adv-x="811" 
d="M313 21h28v343q-66 0 -91.5 -16.5t-29.5 -41.5v-285h28v-21h-208v21h50v170q0 78 45.5 131t140.5 64h65v200q0 20 -4.5 27.5t-20.5 7.5h-26v26h181v-262q97 0 160.5 4t89.5 27v-395h50v-21h-208v21h28v296q-2 9 -7.5 18t-18.5 15.5t-35.5 10.5t-58.5 4v-344h28v-21h-186
v21z" />
    <glyph glyph-name="hh2" unicode="&#x1211;" horiz-adv-x="877" 
d="M837 158h-25q0 20 -7 35.5t-32 15.5h-52v-188h50v-21h-208v21h28v296q-2 9 -7.5 18t-18.5 15.5t-35.5 10.5t-58.5 4v-344h28v-21h-186v21h28v343q-66 0 -91.5 -16.5t-29.5 -41.5v-285h28v-21h-208v21h50v170q0 78 45.5 131t140.5 64h65v200q0 20 -4.5 27.5t-20.5 7.5h-26
v26h181v-262q97 0 160.5 4t89.5 27v-130h116v-128z" />
    <glyph glyph-name="hh3" unicode="&#x1212;" horiz-adv-x="876" 
d="M721 26h31q22 0 37.5 26t21.5 77h25v-129h-265v26h20v291q-2 9 -7.5 18t-18.5 15.5t-35.5 10.5t-58.5 4v-344h28v-21h-186v21h28v343q-66 0 -91.5 -16.5t-29.5 -41.5v-285h28v-21h-208v21h50v170q0 78 45.5 131t140.5 64h65v200q0 20 -4.5 27.5t-20.5 7.5h-26v26h181
v-262q97 0 160.5 4t89.5 27v-390z" />
    <glyph glyph-name="hh4" unicode="&#x1213;" horiz-adv-x="797" 
d="M299 117h28v247q-66 0 -91.5 -16.5t-29.5 -41.5v-189h28v-20h-194v20h36v74q0 78 45.5 131t140.5 64h65v200q0 20 -4.5 27.5t-20.5 7.5h-26v26h181v-262q97 0 160.5 4t89.5 27v-395h50v-21h-208v21h28v296q-2 9 -7.5 18t-18.5 15.5t-35.5 10.5t-58.5 4v-248h28v-20h-186
v20z" />
    <glyph glyph-name="hh5" unicode="&#x1214;" horiz-adv-x="918" 
d="M571 21h20v296q-2 9 -7.5 18t-18.5 15.5t-35.5 10.5t-58.5 4v-344h28v-21h-186v21h28v343q-66 0 -91.5 -16.5t-29.5 -41.5v-285h28v-21h-208v21h50v170q0 78 45.5 131t140.5 64h65v200q0 20 -4.5 27.5t-20.5 7.5h-26v26h181v-262q97 0 160.5 4t89.5 27v-218q6 6 16 9.5
t18 3.5q12 0 20 -1.5t15 -3t14 -2.5t16 -1q10 0 27 2.5t31 6.5v-109q0 -38 -6.5 -58.5t-22 -30.5t-41 -12t-62.5 -2h-175v21zM721 183v-146q0 -14 5.5 -21.5t21.5 -7.5q17 0 23.5 4t9.5 22v150q-9 17 -26 17q-18 0 -34 -18z" />
    <glyph glyph-name="hh6" unicode="&#x1215;" horiz-adv-x="811" 
d="M313 21h28v343q-66 0 -91.5 -16.5t-29.5 -41.5v-285h28v-21h-208v21h50v170q0 78 45.5 131t140.5 64h65v157h-125v154h25q0 -27 12 -50.5t28.5 -40.5t33.5 -27t27 -10l104 52q17 0 21 -12t4 -37v-187q97 0 160.5 4t89.5 27v-395h50v-21h-208v21h28v296q-2 9 -7.5 18
t-18.5 15.5t-35.5 10.5t-58.5 4v-344h28v-21h-186v21z" />
    <glyph glyph-name="hh7" unicode="&#x1216;" horiz-adv-x="811" 
d="M313 144h28v220q-66 0 -91.5 -16.5t-29.5 -41.5v-285h28v-21h-208v21h50v170q0 78 45.5 131t140.5 64h65v200q0 20 -4.5 27.5t-20.5 7.5h-26v26h181v-262q97 0 160.5 4t89.5 27v-272h50v-20h-208v20h28v173q-2 9 -7.5 18t-18.5 15.5t-35.5 10.5t-58.5 4v-221h28v-20h-186
v20z" />
    <glyph glyph-name="FL1217h" unicode="&#x1217;" horiz-adv-x="847" 
d="M480 -32v99h97v250q-2 9 -7.5 18t-18.5 15.5t-35.5 10.5t-58.5 4v-248h28v-20h-186v20h28v247q-66 0 -91.5 -16.5t-29.5 -41.5v-189h28v-20h-194v20h36v74q0 78 45.5 131t140.5 64h65v200q0 20 -4.5 27.5t-20.5 7.5h-26v26h181v-262q97 0 160.5 4t89.5 27v-349h100v-99
h-34q0 9 -3 22.5t-10.5 26t-20.5 21t-32 8.5h-131q-19 0 -31 -8.5t-19 -21t-9.5 -26t-2.5 -22.5h-34z" />
    <glyph glyph-name="FL1218h" unicode="&#x1218;" horiz-adv-x="973" 
d="M69 411v-449q26 19 68.5 29t117.5 10q26 0 59 2.5t62 16t49 42t20 79.5v241q0 35 17 58t39 23q13 0 24 -4.5t18 -18t11 -38.5t4 -65v-195q0 -58 47 -91t138 -33q54 0 90.5 8.5t58.5 24.5t31.5 39t9.5 52v397q-12 -11 -51.5 -17t-93.5 -9t-115 -3.5t-115 -0.5
q-14 0 -31.5 -4.5t-33.5 -13t-29 -20t-19 -26.5q-22 33 -51 48.5t-80 15.5q-18 0 -36 -5t-34 -14t-27.5 -22t-16.5 -29q0 25 -3.5 39t-8 21t-8.5 8.5t-5 1.5l-135 -36q19 -8 24 -21t5 -41zM689 436q7 26 18.5 35.5t37.5 9.5q28 0 40 -8t18 -36v-358q-3 -19 -15 -29t-47 -10
q-30 0 -39 11t-13 27v358zM257 22q-29 0 -41.5 12t-15.5 32v331q1 13 8.5 26.5t19 25t25.5 19t28 7.5q16 0 23 -4t10 -14v-391q-2 -20 -21 -32t-36 -12z" />
    <glyph glyph-name="FL1219h" unicode="&#x1219;" horiz-adv-x="1080" 
d="M1040 230h-25q0 20 -7 35.5t-32 15.5h-43v-140q0 -29 -9.5 -52.5t-31.5 -39.5t-58.5 -24.5t-90.5 -8.5q-91 0 -138 33.5t-47 91.5v195q0 40 -4 65t-11 38.5t-18 18t-24 4.5q-22 0 -39 -23t-17 -58v-249q0 -49 -20 -75.5t-49 -38.5t-62 -14t-59 -2q-75 0 -119 -8.5
t-67 -38.5v455q0 28 -5 41t-24 21l135 36q1 0 5 -1.5t8.5 -8.5t8 -21t3.5 -39q5 16 16.5 29t27.5 22t34 14t36 5q51 0 80 -15.5t51 -48.5q6 15 19 26.5t29 20t33.5 13t31.5 4.5q54 0 115 1t115 4.5t93.5 11t51.5 20.5v-187h107v-128zM257 23q17 0 36 12t21 32v389
q-3 10 -10 14t-23 4q-14 0 -28 -7.5t-25.5 -19t-19 -25t-8.5 -26.5v-329q3 -20 15.5 -32t41.5 -12zM689 435v-358q4 -16 13 -27t39 -11q35 0 47 10t15 29v358q-6 28 -18 36t-40 8q-26 0 -37.5 -9.5t-18.5 -35.5z" />
    <glyph glyph-name="FL121Ah" unicode="&#x121a;" horiz-adv-x="1088" 
d="M933 21h31q22 0 37.5 26t21.5 77h25v-124h-265v21h19v245q-9 -7 -27.5 -11t-34.5 -4q-55 0 -90.5 8t-55.5 23t-28 37.5t-8 51.5v89q0 41 -4 66t-11 38.5t-18 18t-24 4.5q-22 0 -39 -23t-17 -58v-123q0 -51 -20 -79.5t-49 -41.5t-62 -15.5t-59 -2.5q-75 0 -117.5 -7
t-68.5 -33v331q0 28 -5 41t-24 20l135 36q1 0 5 -1.5t8.5 -8.5t8 -21t3.5 -39q5 17 16.5 30t27.5 22t34 13.5t36 4.5q51 0 80 -15t51 -48q6 15 19 26.5t29 19.5t33.5 12.5t31.5 4.5q54 0 115 0.5t115 3.5t93.5 9t51.5 17v-641zM257 265q17 0 36 12t21 32v272q-3 9 -10 13
t-23 4q-14 0 -28 -7.5t-25.5 -19t-19 -25t-8.5 -26.5v-211q3 -20 15.5 -32t41.5 -12zM689 559v-242q4 -16 12.5 -28.5t38.5 -12.5q35 0 49 10t14 26v248q-6 28 -18 36.5t-40 8.5q-26 0 -37.5 -10t-18.5 -36z" />
    <glyph glyph-name="FL121Bh" unicode="&#x121b;" horiz-adv-x="1023" 
d="M752 21h50v245q-9 -7 -27.5 -11t-34.5 -4q-60 0 -96 8t-55 23t-25 37.5t-6 51.5v89q0 41 -4 66t-11 38.5t-18 18t-24 4.5q-22 0 -39 -23t-17 -58v-123q0 -51 -20 -80t-49 -43t-62 -17t-59 -3q-38 0 -66.5 -0.5t-51 -4t-39 -10t-29.5 -18.5v328q0 28 -5 41t-24 20l135 36
q1 0 5 -1.5t8.5 -8.5t8 -21t3.5 -39q5 17 16.5 30t27.5 22t34 13.5t36 4.5q51 0 80 -15t51 -48q6 15 19 26.5t29 19.5t33.5 12.5t31.5 4.5q54 0 115 0.5t115 3.5t93.5 9t51.5 17v-641h50v-21h-231v21zM257 261q17 0 36 12t21 32v276q-3 9 -10 13t-23 4q-14 0 -28 -7.5
t-25.5 -19t-19 -25t-8.5 -26.5v-215q3 -20 15.5 -32t41.5 -12zM689 559v-242q4 -16 12.5 -28.5t38.5 -12.5q35 0 49 10t14 26v248q-6 28 -18 36.5t-40 8.5q-26 0 -37.5 -10t-18.5 -36z" />
    <glyph glyph-name="FL121Ch" unicode="&#x121c;" horiz-adv-x="1130" 
d="M933 224q6 6 16 9t18 3q18 0 31 -4t32 -4q12 0 29 2.5t31 10.5v-123q0 -39 -6.5 -62.5t-21.5 -36t-40 -16t-62 -3.5h-178v21h20v245q-9 -7 -27.5 -11t-34.5 -4q-61 0 -97 8t-55 23t-24.5 37.5t-5.5 51.5v90q0 41 -4 66t-11 38.5t-18 18t-24 4.5q-22 0 -39 -23t-17 -58
v-124q0 -51 -20 -80t-49 -42.5t-62 -16.5t-59 -3q-38 0 -67 -1t-51 -5t-38.5 -11.5t-29.5 -20.5v333q0 28 -5 41t-24 20l135 36q1 0 5 -1.5t8.5 -8.5t8 -21t3.5 -39q5 17 16.5 30t27.5 22t34 13.5t36 4.5q51 0 80 -15t51 -48q6 15 19 26.5t29 19.5t33.5 12.5t31.5 4.5
q54 0 115 0.5t115 3.5t93.5 9t51.5 17v-439zM257 262q17 0 36 12t21 32v276q-3 9 -10 13t-23 4q-14 0 -28 -7.5t-25.5 -19t-19 -25t-8.5 -26.5v-215q3 -20 15.5 -32t41.5 -12zM689 560v-243q4 -16 12.5 -28.5t38.5 -12.5q35 0 49 10t14 26v249q-6 28 -18 36.5t-40 8.5
q-26 0 -37.5 -10t-18.5 -36zM933 204v-162q0 -14 5.5 -21.5t21.5 -7.5q17 0 23.5 4t9.5 22v166q-9 16 -26 16t-34 -17z" />
    <glyph glyph-name="FL121Dh" unicode="&#x121d;" horiz-adv-x="990" 
d="M220 12h50v-25h-230v25h50v115q0 38 23 55t52 17q34 0 62 8.5t49.5 22t35.5 31t19 35.5q-11 -12 -29 -14t-30 -2q-38 0 -65.5 -0.5t-49 -4t-38.5 -11t-33 -20.5v292q0 28 -5 41t-24 20l135 36q1 0 5 -1.5t8.5 -8.5t8 -21t3.5 -39q5 17 16.5 30t27.5 22t34 13.5t36 4.5
q51 0 80 -15t51 -48q6 15 19 26.5t29 19.5t33.5 12.5t31.5 4.5q54 0 115 0.5t115 3.5t93.5 9.5t51.5 17.5v-294q0 -30 -9.5 -53t-31.5 -39t-58.5 -24.5t-90.5 -8.5q-91 0 -138 33.5t-47 91.5v91q0 41 -4 66t-11 38.5t-18 18t-24 4.5q-22 0 -39 -22.5t-17 -58.5v-203
q0 -63 -38 -94t-126 -33q-11 0 -24.5 -2.5t-25.5 -9.5t-20 -19t-8 -31v-103zM706 560v-254q4 -17 13 -27.5t39 -10.5q35 0 47 9.5t15 29.5v254q-6 28 -18 36.5t-40 8.5q-26 0 -37.5 -10t-18.5 -36zM274 301q17 0 36 8t21 28v245q-3 9 -10 13t-23 4q-14 0 -28 -7.5t-25.5 -19
t-19 -25t-8.5 -26.5v-176q3 -20 15.5 -32t41.5 -12z" />
    <glyph glyph-name="FL121Eh" unicode="&#x121e;" horiz-adv-x="973" 
d="M445 12h49v-25h-230v25h50v261q-11 -12 -29 -14t-30 -2q-38 0 -65 -0.5t-48 -4t-38.5 -10.5t-34.5 -20v315q0 28 -5 41t-24 20l135 36q1 0 5 -1.5t8.5 -8.5t8 -21t3.5 -39q5 17 16.5 30t27.5 22t34 13.5t36 4.5q51 0 80 -15t51 -48q6 15 19 26.5t29 19.5t33.5 12.5
t31.5 4.5q38 0 94.5 0.5t113 3.5t103 9t64.5 17v-294q0 -30 -9.5 -53t-31.5 -39t-58.5 -24.5t-90.5 -8.5q-91 0 -138 33.5t-47 91.5v92q0 41 -4 66t-11 38.5t-18 18t-24 4.5q-22 0 -39 -22.5t-17 -58.5v-496zM689 561v-255q4 -17 13 -27.5t39 -10.5q35 0 47 9.5t15 29.5v255
q-6 28 -18 36.5t-40 8.5q-26 0 -37.5 -10t-18.5 -36zM257 278q17 0 36 8t21 28v269q-3 9 -10 13t-23 4q-14 0 -28 -7.5t-25.5 -19t-19 -25t-8.5 -26.5v-200q3 -19 15.5 -31.5t41.5 -12.5z" />
    <glyph glyph-name="m8" unicode="&#x121f;" horiz-adv-x="1072" 
d="M705 -32v99h97v199q-9 -7 -27.5 -11t-34.5 -4q-91 0 -136.5 31t-45.5 89v92q0 41 -4 66t-11 38.5t-18 18t-24 4.5q-22 0 -39 -23t-17 -58v-126q0 -47 -20 -72.5t-49 -37.5t-62 -14t-59 -2q-75 0 -118.5 -10t-67.5 -40v331q0 28 -5 41t-24 20l135 37q1 0 5 -2t8.5 -9
t8 -21t3.5 -39q5 17 16.5 30t27.5 22t34 14t36 5q51 0 80 -15.5t51 -48.5q6 15 19 26.5t29 20t33.5 13t31.5 4.5q54 0 115 0.5t115 3t93.5 8.5t51.5 17v-598h99v-99h-34q0 9 -3 22.5t-10.5 26t-20.5 21t-32 8.5h-131q-19 0 -31 -8.5t-19 -21t-9.5 -26t-2.5 -22.5h-34z
M257 278q17 0 36 12t21 32v262q-3 9 -10 13.5t-23 4.5q-14 0 -28 -7.5t-25.5 -19t-19 -25.5t-8.5 -27v-201q3 -19 15.5 -31.5t41.5 -12.5zM689 562v-245q4 -16 12.5 -28.5t38.5 -12.5q35 0 49 10t14 26v251q-6 28 -18 36.5t-40 8.5q-26 0 -37.5 -10t-18.5 -36z" />
    <glyph glyph-name="cc1" unicode="&#x1220;" horiz-adv-x="805" 
d="M765 501v-327q0 -48 -11 -77.5t-29 -45t-42 -21t-50 -5.5t-44.5 1t-34.5 6t-30.5 15.5t-31.5 29.5q-35 -35 -83.5 -53.5t-117.5 -18.5q-34 0 -67.5 -0.5t-61.5 -3t-47 -7t-24 -12.5v458q0 20 -4.5 27.5t-20.5 7.5h-26v26h181v-397q0 -26 6.5 -41.5t16.5 -24t22.5 -12
t24.5 -4.5q33 1 52.5 11.5t19.5 27.5v379q0 20 -4.5 27.5t-20.5 7.5h-26v26h181v-383q0 -11 8 -22.5t19.5 -21.5t24 -16.5t21.5 -6.5q31 0 50 7t19 24v358q0 20 -4.5 27.5t-20.5 7.5h-26v26h181z" />
    <glyph glyph-name="cc2" unicode="&#x1221;" horiz-adv-x="916" 
d="M876 215h-25q0 21 -7 36.5t-32 15.5h-47v-92q0 -48 -11 -77.5t-29 -45t-42 -21t-50 -5.5t-44.5 1t-34.5 6t-30.5 15.5t-31.5 29.5q-35 -35 -83.5 -53.5t-117.5 -18.5q-34 0 -66.5 -0.5t-59.5 -2.5t-46.5 -6.5t-27.5 -12.5v457q0 20 -4.5 27.5t-20.5 7.5h-26v26h181v-397
q0 -26 6.5 -41.5t16.5 -24t22.5 -12t24.5 -4.5q33 1 52.5 11.5t19.5 27.5v379q0 20 -4.5 27.5t-20.5 7.5h-26v26h181v-383q0 -10 8 -21.5t19.5 -21.5t24 -16.5t21.5 -6.5q31 0 50 6.5t19 23.5v358q0 20 -4.5 27.5t-20.5 7.5h-26v26h181v-158h111v-129z" />
    <glyph glyph-name="cc3" unicode="&#x1222;" horiz-adv-x="883" 
d="M728 26h31q22 0 37.5 26t21.5 77h25v-129h-265v26h20v321q-6 -10 -26 -14.5t-37 -4.5q-16 0 -33 8t-35 29q-35 -36 -80.5 -54t-114.5 -18q-39 0 -73 3t-59 3q-18 0 -30.5 -4.5t-18.5 -19.5v311q0 20 -4.5 27.5t-20.5 7.5h-26v26h181v-256q0 -26 3.5 -41.5t10 -24t16 -12
t21.5 -4.5q33 1 49.5 12t16.5 27v238q0 20 -4.5 27.5t-20.5 7.5h-26v26h181v-241q0 -8 7 -18t17.5 -19t22 -15t20.5 -6q30 0 48 11.5t18 24.5v209q0 16 -3 24.5t-18 8.5h-23v21h171v-621z" />
    <glyph glyph-name="cc4" unicode="&#x1223;" horiz-adv-x="821" 
d="M598 347q-6 -10 -26 -14.5t-37 -4.5q-16 0 -33 8t-35 29q-35 -36 -80.5 -54t-114.5 -18q-34 0 -64 3t-55 3q-20 0 -37 -5.5t-25 -20.5v313q0 20 -4.5 27.5t-20.5 7.5h-26v26h181v-256q0 -26 3.5 -41.5t10 -24t16 -12t21.5 -4.5q33 1 49.5 12t16.5 27v238q0 20 -4.5 27.5
t-20.5 7.5h-26v26h181v-241q0 -8 7 -18t17.5 -19t22 -15t20.5 -6q30 0 48 11.5t18 24.5v209q0 16 -3 24.5t-18 8.5h-23v21h174v-621h50v-26h-233v26h50v321z" />
    <glyph glyph-name="cc5" unicode="&#x1224;" horiz-adv-x="925" 
d="M728 234q6 6 16 9t18 3q20 0 37 -4.5t35 -4.5q11 0 24 3.5t27 11.5v-134q0 -39 -6.5 -62.5t-22 -36t-41 -16t-62.5 -3.5h-175v21h20v326q-6 -10 -26 -14.5t-37 -4.5q-16 0 -33 8t-35 29q-35 -36 -80.5 -54t-114.5 -18q-33 0 -63 3.5t-55 3.5q-21 0 -37 -6t-26 -26v317
q0 20 -4.5 27.5t-20.5 7.5h-26v26h181v-255q0 -26 3.5 -41.5t10 -24t16 -12t21.5 -4.5q33 1 49.5 12t16.5 27v237q0 20 -4.5 27.5t-20.5 7.5h-26v26h181v-240q0 -8 7 -18t17.5 -19t22 -15t20.5 -6q30 0 48 11.5t18 24.5v208q0 16 -3 24.5t-18 8.5h-23v21h171v-412zM728 218
v-181q0 -14 5.5 -21.5t21.5 -7.5q17 0 23.5 4t9.5 22v185q-9 17 -26 17q-18 0 -34 -18z" />
    <glyph glyph-name="cc6" unicode="&#x1225;" horiz-adv-x="821" 
d="M90 21v179q0 15 2.5 28.5t14.5 23.5q24 0 53.5 15t49.5 34q-53 0 -53 27v258q0 20 -4.5 27.5t-20.5 7.5h-26v26h181v-256q0 -26 3.5 -41.5t10 -24t16 -12t21.5 -4.5q33 1 49.5 12t16.5 27v238q0 20 -4.5 27.5t-20.5 7.5h-26v26h181v-300q8 -14 25.5 -23t29.5 -9
q25 0 43.5 6.5t18.5 21.5v255q0 16 -4 22t-19 6h-23v21h176v-229q0 -37 -11.5 -61t-30 -38t-41.5 -19.5t-47 -5.5q-57 0 -91.5 9t-64.5 37q-29 -24 -72 -35.5t-85 -11.5q-27 0 -51 2t-45 4q-8 -15 -15 -33t-7 -40v-205h50v-21h-230v21h50z" />
    <glyph glyph-name="cc7" unicode="&#x1226;" horiz-adv-x="755" 
d="M209 21v170q0 15 2.5 28.5t14.5 23.5q9 0 28.5 6t38.5 15t33.5 19.5t14.5 19.5q-17 -4 -34.5 -7t-34.5 -3q-9 0 -22.5 0.5t-29.5 1.5t-31.5 1.5t-27.5 0.5q-29 0 -44 -3.5t-26 -20.5v313q0 20 -4.5 27.5t-20.5 7.5h-26v26h181v-256q0 -26 3.5 -41.5t10 -24t16 -12
t21.5 -4.5q33 1 49.5 12t16.5 27v238q0 20 -4.5 27.5t-20.5 7.5h-26v26h181v-300q8 -14 25.5 -23t29.5 -9q25 0 43.5 6.5t18.5 21.5v255q0 16 -4 22t-19 6h-23v21h176v-229q0 -37 -11.5 -61t-30 -38t-41.5 -19.5t-47 -5.5q-29 0 -50.5 1t-39.5 5.5t-33 13t-30 22.5
q-11 -3 -27 -9.5t-27 -17.5q-5 -5 -11.5 -15.5t-12.5 -24t-10.5 -28t-4.5 -25.5v-195h50v-21h-230v21h50z" />
    <glyph glyph-name="FL1227h" unicode="&#x1227;" horiz-adv-x="893" 
d="M478 -32v99h120v280q-6 -10 -26 -14.5t-37 -4.5q-16 0 -33 8t-35 29q-35 -36 -80.5 -54t-114.5 -18q-45 0 -80.5 4.5t-61.5 4.5q-30 0 -39 -12v296q0 20 -4.5 27.5t-20.5 7.5h-26v26h181v-256q0 -26 3.5 -41.5t10 -24t16 -12t21.5 -4.5q33 1 49.5 12t16.5 27v238
q0 20 -4.5 27.5t-20.5 7.5h-26v26h181v-241q0 -8 7 -18t17.5 -19t22 -15t20.5 -6q30 0 48 11.5t18 24.5v209q0 16 -3 24.5t-18 8.5h-23v21h174v-580h122v-99h-45q0 9 -2.5 22.5t-10.5 26t-23 21t-40 8.5h-133q-24 0 -39 -8.5t-23.5 -21t-11 -26t-2.5 -22.5h-45z" />
    <glyph glyph-name="FL1228h" unicode="&#x1228;" horiz-adv-x="503" 
d="M431 0h-262q-48 0 -81 -4.5t-48 -28.5v212q0 67 19 111.5t72 68.5q25 14 59 26l65 24t53 26t22 32v132q0 13 -3.5 17.5t-17.5 4.5h-26v26h180v-166q0 -24 -27 -41.5t-65 -32t-80 -28t-73 -29.5q-27 -14 -37 -35.5t-10 -59.5v-134q0 -34 5.5 -53.5t16 -30t25.5 -13.5
t34 -3h98q22 0 37.5 28.5t21.5 79.5h54v-107q0 -14 -8 -18t-24 -4z" />
    <glyph glyph-name="FL1229h" unicode="&#x1229;" horiz-adv-x="522" 
d="M364 114v-88h50v-26h-250v26h50v88h-48q-48 0 -83 -3t-43 -21v190q0 26 20 55.5t71 61.5q22 14 52 23t57 19.5t46 25t19 39.5v94q0 13 -3.5 17.5t-17.5 4.5h-26v26h180v-109q0 -26 -14 -45.5t-36 -34.5t-50 -26.5t-55 -20.5q-29 -10 -50.5 -21t-35 -26t-20 -35.5
t-6.5 -50.5v-75q0 -40 21.5 -53.5t59.5 -13.5h135q22 0 31.5 28.5t15.5 79.5h48v-129h-118z" />
    <glyph glyph-name="FL122Ah" unicode="&#x122a;" horiz-adv-x="534" 
d="M494 187v-159q0 -16 -13 -22t-37 -6h-310q-32 0 -58 -6.5t-36 -25.5v211q0 67 19.5 109.5t71.5 70.5q25 13 59.5 23.5t65.5 22t52.5 26t21.5 36.5v132q0 13 -3.5 17.5t-17.5 4.5h-26v26h180v-166q0 -27 -27 -48.5t-65 -39t-80 -33t-73 -31.5q-28 -14 -37.5 -35.5
t-9.5 -59.5v-124q0 -39 21.5 -63t59.5 -24h185q0 70 -14.5 99t-36.5 29h-30v36h138z" />
    <glyph glyph-name="FL122Bh" unicode="&#x122b;" horiz-adv-x="586" 
d="M546 239v-141h-43q0 24 -3.5 45.5t-10.5 38t-16 26.5t-20 10h-17q-23 0 -31 -8.5t-8 -30.5v-158h35v-21h-259q-48 0 -83.5 -3.5t-49.5 -24.5v207q0 67 19.5 109.5t71.5 70.5q25 13 59.5 23t65.5 21.5t52.5 26t21.5 37.5v132q0 13 -3.5 17.5t-17.5 4.5h-26v26h180v-166
q0 -22 -12.5 -38.5t-33 -30.5t-46.5 -25.5t-53 -21.5l-53.5 -19.5t-46.5 -20.5q-27 -14 -37 -35t-10 -59v-110q0 -34 5.5 -53.5t16 -30t25.5 -13.5t34 -3h15v185q0 14 9.5 23.5t20.5 9.5h249z" />
    <glyph glyph-name="FL122Ch" unicode="&#x122c;" horiz-adv-x="565" 
d="M525 119q0 -41 -5 -64.5t-18 -35.5t-37 -15.5t-61 -3.5h-233q-48 0 -84.5 -4t-46.5 -24v207q0 67 19 111.5t72 68.5q25 14 59 24.5t65 22t53 26t22 35.5v132q0 13 -3.5 17.5t-17.5 4.5h-26v26h180v-166q0 -28 -27 -51t-65 -42.5t-80 -36t-73 -32.5q-27 -14 -37 -35
t-10 -59v-104q0 -34 5.5 -53.5t16 -30t25.5 -13.5t34 -3h51q-10 12 -12.5 30.5t-2.5 57.5q0 31 4.5 51.5t18 32.5t37 17t62.5 5q45 0 72 2t43 14v-112zM436 33v155q-9 17 -26 17q-8 0 -21 -5.5t-13 -17.5v-146q0 -15 6 -22t21 -7q14 0 23.5 4.5t9.5 21.5z" />
    <glyph glyph-name="FL122Dh" unicode="&#x122d;" horiz-adv-x="503" 
d="M432 0h-264q-48 0 -79.5 -4.5t-48.5 -22.5v571q0 48 29 75.5t77 27.5h317v-129h-25q-6 51 -21.5 79.5t-37.5 28.5h-127q-38 0 -59.5 -8.5t-21.5 -30.5v-466q0 -34 5.5 -53.5t16 -30t25.5 -13.5t34 -3h127q22 0 37.5 28.5t21.5 79.5h25v-107q0 -13 -9 -17.5t-22 -4.5z" />
    <glyph glyph-name="FL122Eh" unicode="&#x122e;" horiz-adv-x="520" 
d="M480 511q0 -41 -5.5 -64t-19 -33.5t-38 -12.5t-61.5 -2q-39 0 -61.5 2t-34 12.5t-14.5 33.5t-3 64q0 42 4 66.5t17 38.5h-31q-38 0 -50 -8.5t-12 -30.5v-456q0 -34 5.5 -53.5t16 -30t25.5 -13.5t34 -3h127q22 0 37.5 28.5t21.5 79.5h25v-108q0 -10 -6 -15.5t-26 -5.5
h-259q-48 0 -83 -3.5t-49 -21.5v559q0 48 29 75.5t77 27.5h178q5 1 9 1h10h22q38 0 65 1.5t50 11.5v-140zM391 433v178q-9 16 -26 16q-8 0 -21 -5.5t-13 -16.5v-169q0 -15 6 -22t21 -7q14 0 23.5 4.5t9.5 21.5z" />
    <glyph glyph-name="r8" unicode="&#x122f;" horiz-adv-x="626" 
d="M199 709h45q0 -9 3.5 -21t13 -22.5t26 -17.5t43.5 -7h125q27 0 43.5 7t26 17.5t13 22.5t3.5 21h45v-89h-123v-139q0 -27 -27 -48t-65 -38.5t-80 -32.5t-73 -31q-28 -14 -37.5 -35.5t-9.5 -59.5v-115q0 -34 5.5 -53.5t16 -30t25.5 -13.5t34 -3h15v185q0 14 9.5 23.5
t20.5 9.5h249v-141h-43q0 24 -3.5 45.5t-10.5 38t-16 26.5t-20 10h-17q-23 0 -31 -8.5t-8 -30.5v-158h35v-21h-286q-48 0 -77 27.5t-29 75.5v76q0 67 19 111.5t72 68.5q26 12 60.5 21.5t65 20.5t52 26.5t21.5 39.5v153h-131v89z" />
    <glyph glyph-name="FL1230h" unicode="&#x1230;" horiz-adv-x="619" 
d="M40 21v-21h230v21h-50v446q8 16 27 30t57 14q45 0 66.5 -13t28.5 -26v-451h-50v-21h230v21h-50v533q-8 0 -22.5 -6l-32.5 -13.5t-37.5 -13.5t-35.5 -6q-20 0 -31 4v143h-170v-25h26q16 0 20 -7t4 -19v-87q-50 -11 -81 -27t-48.5 -37.5t-24 -49t-6.5 -60.5v-329h-50z" />
    <glyph glyph-name="FL1231h" unicode="&#x1231;" horiz-adv-x="686" 
d="M646 188h-25q0 21 -7 36.5t-32 15.5h-52v-219h50v-21h-230v21h50v451q-11 15 -31 27t-65 12q-19 0 -31.5 -3.5t-21.5 -9.5t-16 -14l-15 -17v-446h50v-21h-230v21h50v314q0 33 6.5 62.5t24 54t48.5 43t81 29.5v87q0 12 -4 19t-20 7h-26v25h170v-137q7 -1 15.5 -1.5
t18.5 -0.5q17 0 36.5 5t37 10.5t31.5 10.5t21 5v-237h116v-129z" />
    <glyph glyph-name="FL1232h" unicode="&#x1232;" horiz-adv-x="684" 
d="M529 21h31q22 0 37.5 26t21.5 77h25v-124h-265v21h20v450l-15.5 15t-17.5 12.5t-25 8.5t-37 3q-19 0 -31.5 -3.5t-21.5 -9.5t-16 -14l-15 -17v-445h50v-21h-230v21h50v328q0 33 6.5 60.5t24 49t48.5 37.5t81 27v87q0 12 -4 19t-20 7h-26v25h170v-137q7 -4 23 -4
q18 0 37.5 5.5t38.5 11.5t34.5 11.5t25.5 5.5v-533z" />
    <glyph glyph-name="FL1233h" unicode="&#x1233;" horiz-adv-x="619" 
d="M40 165v-21h230v21h-50v302l15 17t16 14t21.5 9.5t31.5 3.5q23 0 38 -3.5t25.5 -9t17.5 -12.5l14 -14v-451h-50v-21h230v21h-50v533q-9 0 -24 -5l-33.5 -11.5t-38.5 -11.5t-38 -5q-16 0 -25 4v137h-170v-25h26q16 0 20 -7t4 -19v-87q-50 -11 -81 -27t-48.5 -37.5t-24 -49
t-6.5 -60.5v-185h-50z" />
    <glyph glyph-name="FL1234h" unicode="&#x1234;" horiz-adv-x="726" 
d="M529 234q6 6 16 9t18 3q21 0 35.5 -4.5t34.5 -4.5q11 0 25.5 3t27.5 8v-130q0 -39 -6.5 -62.5t-22 -36t-41 -16t-62.5 -3.5h-175v21h20v451q-5 7 -12 14.5t-18 12.5t-27 8.5t-38 3.5q-19 0 -31.5 -3.5t-21.5 -9.5t-16 -14l-15 -17v-446h50v-21h-230v21h50v314
q0 33 6.5 62.5t24 54t48.5 43t81 29.5v87q0 12 -4 19t-20 7h-26v25h170v-137l27.5 -4.5t21.5 -1.5q27 0 44.5 5.5t29.5 12t20 12t16 5.5v-320zM529 218v-181q0 -14 5.5 -21.5t21.5 -7.5q17 0 23.5 4t9.5 22v185q-9 17 -26 17q-18 0 -34 -18z" />
    <glyph glyph-name="FL1235h" unicode="&#x1235;" horiz-adv-x="619" 
d="M40 21v-21h230v21h-50v445l15 17t16 14t21.5 9.5t31.5 3.5q22 0 37.5 -2.5t26 -8t17.5 -12.5t14 -16v-450h-50v-21h230v21h-50v533q-12 0 -28 -5t-33.5 -11.5t-36.5 -11.5t-37 -5q-12 0 -24 3q-13 0 -26.5 9t-25 26t-18.5 43t-7 59h-160v-25h12q12 0 22 -6.5t10 -19.5
q0 -44 22 -63t51 -24q-50 -11 -81 -27t-48.5 -37.5t-24 -49t-6.5 -60.5v-328h-50z" />
    <glyph glyph-name="FL1236h" unicode="&#x1236;" horiz-adv-x="619" 
d="M40 21v-21h230v21h-50v446l15 17t16 14t21.5 9.5t31.5 3.5q22 0 37.5 -3.5t26 -9t18 -12.5t13.5 -14v-303h-50v-21h230v21h-50v385q-8 0 -20.5 -5.5t-28.5 -11.5t-35.5 -11.5t-40.5 -5.5q-12 0 -34 5v137h-170v-25h26q16 0 20 -7t4 -19v-87q-50 -11 -81 -27t-48.5 -37.5
t-24 -49t-6.5 -60.5v-329h-50z" />
    <glyph glyph-name="c8" unicode="&#x1237;" horiz-adv-x="689" 
d="M274 -32v99h125v405l-14 14t-17.5 12.5t-25.5 9t-38 3.5q-19 0 -31.5 -3.5t-21.5 -9.5t-16 -14l-15 -17v-302h50v-21h-230v21h50v185q0 33 6.5 60.5t24 49t48.5 37.5t81 27v87q0 12 -4 19t-20 7h-26v25h170v-137q9 -4 25 -4q18 0 38 5t38.5 11.5l33.5 11.5t24 5v-487h120
v-99h-45q0 9 -2.5 22.5t-10.5 26t-23 21t-40 8.5h-133q-24 0 -39 -8.5t-23.5 -21t-11 -26t-2.5 -22.5h-45z" />
    <glyph glyph-name="FL1238h" unicode="&#x1238;" horiz-adv-x="619" 
d="M89 695h65q0 -9 3.5 -26t13 -33.5t26 -29t43.5 -12.5h145q27 0 43.5 12.5t26 29t13 33.5t3.5 26h65v-121h-156v-74q12 -5 25 -6.5t26 -1.5q16 0 30.5 4t27.5 9l23 9t17 4v-497h50v-21h-230v21h50v425q-12 16 -31.5 27.5t-63.5 11.5q-19 0 -31.5 -3.5t-21.5 -9.5t-16 -14
l-15 -17v-420h50v-21h-230v21h50v303q0 33 6.5 60.5t24 49.5t48.5 38t81 27v75h-161v121z" />
    <glyph glyph-name="FL1239h" unicode="&#x1239;" horiz-adv-x="681" 
d="M93 696h65q0 -9 3.5 -24t13 -29.5t26 -25t43.5 -10.5h138q27 0 43.5 10.5t26 25t13 29.5t3.5 24h65v-110h-153v-77q15 -5 31 -7t31 -2q32 0 52.5 9t34.5 9v-175h112v-129h-25q0 21 -7 36.5t-32 15.5h-48v-245h50v-21h-230v21h50v434q-12 16 -31.5 27.5t-63.5 11.5
q-19 0 -31.5 -3.5t-21.5 -9.5t-16 -14l-15 -17v-429h50v-21h-230v21h50v313q0 33 6.5 60t24 49t48.5 38t81 27v78h-157v110z" />
    <glyph glyph-name="FL123Ah" unicode="&#x123a;" horiz-adv-x="684" 
d="M93 691h65q0 -9 3.5 -24.5t13 -29.5t26 -24.5t43.5 -10.5h138q27 0 43.5 10.5t26 24.5t13 29.5t3.5 24.5h65v-110h-153v-77l23 -6.5t24 -3.5q16 0 31.5 3.5t28.5 8t23.5 8.5t18.5 4v-497h31q22 0 37.5 26t21.5 77h25v-124h-265v21h20v429q-12 16 -31.5 27.5t-63.5 11.5
q-19 0 -31.5 -3.5t-21.5 -9.5t-16 -14l-15 -17v-424h50v-21h-230v21h50v308q0 33 6.5 60t24 49t48.5 38t81 27v78h-157v110z" />
    <glyph glyph-name="FL123Bh" unicode="&#x123b;" horiz-adv-x="615" 
d="M91 690h65q0 -9 3.5 -24.5t13 -30t26 -25t43.5 -10.5h138q27 0 43.5 10.5t26 25t13 30t3.5 24.5h65v-110h-155v-77q14 -5 26.5 -7t23.5 -2q18 0 34 3.5t28.5 8t22 8.5t14.5 4v-497h50v-21h-230v21h50v428q-12 16 -31.5 27.5t-63.5 11.5q-19 0 -31.5 -3.5t-21.5 -9.5
t-16 -14l-15 -17v-296h50v-20h-226v20h46v180q0 33 6.5 60t24 49t48.5 38t81 27v78h-155v110z" />
    <glyph glyph-name="FL123Ch" unicode="&#x123c;" horiz-adv-x="725" 
d="M95 685h65q0 -9 3.5 -24.5t13 -30t26 -25t43.5 -10.5h138q27 0 43.5 10.5t26 25t13 30t3.5 24.5h65v-110h-155v-78q24 -7 48 -7q20 0 36.5 4.5t29 9.5t21.5 9.5t14 4.5v-284q6 6 16 9t18 3l65 -7q11 0 27 2t30 7v-130q0 -39 -6.5 -62.5t-21.5 -36t-40.5 -16t-62.5 -3.5
h-175v21h20v423q-12 16 -31.5 27.5t-63.5 11.5q-19 0 -31.5 -3.5t-21.5 -9.5t-16 -14l-15 -17v-418h50v-21h-230v21h50v316q0 33 6.5 58t24 44.5t48.5 33t81 23.5v79h-155v110zM529 218v-181q0 -14 5.5 -21.5t21.5 -7.5q17 0 23.5 4t9.5 22v185q-9 17 -26 17q-18 0 -34 -18z
" />
    <glyph glyph-name="FL123Dh" unicode="&#x123d;" horiz-adv-x="645" 
d="M40 689h65q0 -12 1.5 -28t8.5 -29.5t21 -23t39 -9.5h138q27 0 43.5 10.5t26 25t13 30t3.5 24.5h65v-110h-157q0 -22 8 -40.5t22 -32t31.5 -21t37.5 -7.5q35 0 59 6t40.5 13.5t28 14t21.5 6.5v-497h50v-21h-230v21h50v403q-10 14 -30 26.5t-65 12.5q-38 0 -57 -13t-27 -31
v-398h50v-21h-230v21h50v295q0 33 6.5 58.5t24 44.5t48.5 33t81 25q-27 9 -46 18t-31 20t-17 26.5t-5 37.5h-137v110z" />
    <glyph glyph-name="FL123Eh" unicode="&#x123e;" horiz-adv-x="619" 
d="M96 685h65q0 -9 3.5 -24.5t13 -30t26 -25t43.5 -10.5h138q27 0 43.5 10.5t26 25t13 30t3.5 24.5h65v-110h-156v-78q28 -6 51 -6q21 0 36.5 4t27 9.5l19.5 9.5t15 4v-370h50v-20h-230v20h50v296q-12 16 -31.5 27.5t-63.5 11.5q-19 0 -31.5 -3.5t-21.5 -9.5t-16 -14
l-15 -17v-418h50v-21h-230v21h50v301q0 33 6.5 60.5t24 49.5t48.5 38t81 26v79h-154v110z" />
    <glyph glyph-name="sh8" unicode="&#x123f;" horiz-adv-x="687" 
d="M272 -32v99h123v382q-12 16 -31.5 27.5t-63.5 11.5q-19 0 -31.5 -3.5t-21.5 -9.5t-16 -14l-15 -17v-296h50v-20h-226v20h46v180q0 33 6.5 60t24 49t48.5 38t81 27v78h-155v110h65q0 -9 3.5 -24.5t13 -30t26 -25t43.5 -10.5h138q27 0 43.5 10.5t26 25t13 30t3.5 24.5h65
v-110h-155v-77q14 -5 26.5 -7t23.5 -2q18 0 34 3.5t28.5 8t22 8.5t14.5 4v-451h122v-99h-45q0 9 -2.5 22.5t-10.5 26t-23 21t-40 8.5h-133q-24 0 -39 -8.5t-23.5 -21t-11 -26t-2.5 -22.5h-45z" />
    <glyph glyph-name="FL1240h" unicode="&#x1240;" horiz-adv-x="570" 
d="M220 620v-117h-11q-23 0 -52.5 -5.5t-55.5 -20.5t-43.5 -42t-17.5 -70v-152q6 8 28 12.5t49.5 7t56 3t46.5 0.5v-215h-50v-21h230v21h-50v215h17q36 0 66 4.5t51.5 18t33.5 39t12 67.5v155q-9 -6 -33.5 -9.5t-52.5 -5t-54.5 -2t-39.5 -0.5v169h-180v-26h26q16 0 20 -6.5
t4 -19.5zM420 442v-139q0 -28 -20.5 -39.5t-49.5 -11.5v234h17q6 0 15.5 -1t17.5 -5.5t14 -13t6 -24.5zM150 293v150q0 17 15 30t44 13h11v-234h-20q-3 0 -11 0.5t-17 4.5t-15.5 12.5t-6.5 23.5z" />
    <glyph glyph-name="FL1241h" unicode="&#x1241;" horiz-adv-x="570" 
d="M350 672v-169q13 0 39.5 0.5t54.5 2t52.5 5t33.5 9.5v-155q0 -42 -12 -67.5t-33.5 -39t-51.5 -18t-66 -4.5h-17v-44h143v-129h-25q0 21 -7 36t-32 15h-79v-93h50v-21h-230v21h50v215q-18 0 -46.5 -0.5t-56 -3t-49.5 -7t-28 -12.5v152q0 43 17.5 70t43.5 42t55.5 20.5
t52.5 5.5h11v117q0 13 -4 19.5t-20 6.5h-26v26h180zM150 293q0 -15 6.5 -23.5t15.5 -12.5t17 -4.5t11 -0.5h20v234h-11q-29 0 -44 -13t-15 -30v-150zM420 442q0 16 -6 24.5t-14 13t-17.5 5.5t-15.5 1h-17v-234q29 0 49.5 11.5t20.5 39.5v139z" />
    <glyph glyph-name="FL1242h" unicode="&#x1242;" horiz-adv-x="570" 
d="M350 672v-169q13 0 39.5 0.5t54.5 2t52.5 5t33.5 9.5v-155q0 -42 -12 -67.5t-33.5 -39t-51.5 -18t-66 -4.5h-17v-210h31q22 0 37.5 26t21.5 77h25v-129h-265v26h20v210q-18 0 -46.5 -0.5t-56 -3t-49.5 -7t-28 -12.5v152q0 43 17.5 70t43.5 42t55.5 20.5t52.5 5.5h11v117
q0 13 -4 19.5t-20 6.5h-26v26h180zM150 293q0 -15 6.5 -23.5t15.5 -12.5t17 -4.5t11 -0.5h20v234h-11q-29 0 -44 -13t-15 -30v-150zM420 442q0 16 -6 24.5t-14 13t-17.5 5.5t-15.5 1h-17v-234q29 0 49.5 11.5t20.5 39.5v139z" />
    <glyph glyph-name="FL1243h" unicode="&#x1243;" horiz-adv-x="582" 
d="M362 672v-169q13 0 39.5 0.5t54.5 2t52.5 5t33.5 9.5v-155q0 -42 -12 -67.5t-33.5 -39t-51.5 -18t-66 -4.5h-17v-78q0 -29 -13.5 -47.5t-38 -30.5t-59.5 -18.5t-77 -11.5q-24 -1 -44.5 -14.5t-35 -33t-23 -42.5t-8.5 -43h-23v152h117q42 0 58.5 20.5t16.5 56.5v90
q-18 0 -46.5 -0.5t-56 -3t-49.5 -7t-28 -12.5v152q0 43 17.5 70t43.5 42t55.5 20.5t52.5 5.5h11v117q0 13 -4 19.5t-20 6.5h-26v26h180zM162 293q0 -15 6.5 -23.5t15.5 -12.5t17 -4.5t11 -0.5h20v234h-11q-29 0 -44 -13t-15 -30v-150zM432 442q0 16 -6 24.5t-14 13
t-17.5 5.5t-15.5 1h-17v-234q29 0 49.5 11.5t20.5 39.5v139z" />
    <glyph glyph-name="FL1244h" unicode="&#x1244;" horiz-adv-x="570" 
d="M350 672v-169q13 0 39.5 0.5t54.5 2t52.5 5t33.5 9.5v-155q0 -42 -12 -67.5t-33.5 -39t-51.5 -18t-66 -4.5h-17v-51q6 7 16 10t18 3q16 0 27.5 -2.5t27.5 -2.5q10 0 24.5 1.5t24.5 7.5v-106q0 -35 -6.5 -54t-20 -28.5t-35 -11.5t-51.5 -2h-175v21h20v215
q-18 0 -46.5 -0.5t-56 -3t-49.5 -7t-28 -12.5v152q0 43 17.5 70t43.5 42t55.5 20.5t52.5 5.5h11v117q0 13 -4 19.5t-20 6.5h-26v26h180zM150 293q0 -15 6.5 -23.5t15.5 -12.5t17 -4.5t11 -0.5h20v234h-11q-29 0 -44 -13t-15 -30v-150zM420 442q0 16 -6 24.5t-14 13
t-17.5 5.5t-15.5 1h-17v-234q29 0 49.5 11.5t20.5 39.5v139zM350 170v-133q0 -14 5.5 -21.5t21.5 -7.5q17 0 23.5 4t9.5 22v137q-9 16 -26 16t-34 -17z" />
    <glyph glyph-name="FL1245h" unicode="&#x1245;" horiz-adv-x="570" 
d="M350 610v-121q13 0 39.5 0.5t55 2t52.5 5t33 10.5v-156q0 -42 -12 -67t-33.5 -39t-51.5 -18.5t-66 -4.5h-17v-201h50v-21h-230v21h50v201q-18 0 -46.5 -0.5t-56 -2.5t-49.5 -6.5t-28 -12.5v151q0 44 17.5 71t43.5 42t55.5 20t52.5 5h11v92h-143v154h25q0 -27 12 -50.5
t28.5 -40.5t33.5 -27t27 -10l124 52q17 0 20 -12t3 -37zM150 279q0 -15 6.5 -23t15.5 -12t17 -4.5t11 -0.5h20v234h-11q-29 0 -44 -13.5t-15 -29.5v-151zM420 428q0 16 -6 25t-14 13.5t-17.5 5.5t-15.5 1h-17v-234q29 0 49.5 11t20.5 39v139z" />
    <glyph glyph-name="FL1246h" unicode="&#x1246;" horiz-adv-x="570" 
d="M195 657l196 51q54 0 85 -18t31 -68q0 -58 -29 -79t-92 -22q17 3 24 34v120q-9 16 -26 16t-34 -17v-188q13 0 39.5 0.5t55 2t52.5 5t33 10.5v-156q0 -42 -12 -67t-33.5 -39t-51.5 -18.5t-66 -4.5h-17v-198h50v-21h-230v21h50v198q-18 0 -46.5 -0.5t-56 -2.5t-49.5 -6.5
t-28 -12.5v151q0 44 17.5 71t43.5 42t55.5 20t52.5 5h11v125q0 22 -5 34t-20 12zM150 276q0 -15 6.5 -23t15.5 -12t17 -4.5t11 -0.5h20v234h-11q-29 0 -44 -13.5t-15 -30.5v-150zM420 425q0 16 -6 25t-14 13.5t-17.5 5.5t-15.5 1h-17v-234q29 0 49.5 11t20.5 39v139z" />
    <glyph glyph-name="FL1248h" unicode="&#x1248;" horiz-adv-x="643" 
d="M350 672v-169q13 0 39.5 0.5t54.5 2t52.5 5t33.5 9.5v-155q0 -42 -12 -67.5t-33.5 -39t-51.5 -18t-66 -4.5h-17v-35h152q30 0 60 2t41 13v-70q0 -32 -4.5 -52t-15.5 -30.5t-31 -14t-50 -3.5q-32 0 -52.5 3t-32 11.5t-16 23.5t-4.5 40v60h-47v-163h50v-21h-230v21h50v215
q-18 0 -46.5 -0.5t-56 -3t-49.5 -7t-28 -12.5v152q0 43 17.5 70t43.5 42t55.5 20.5t52.5 5.5h11v117q0 13 -4 19.5t-20 6.5h-26v26h180zM150 293q0 -15 6.5 -23.5t15.5 -12.5t17 -4.5t11 -0.5h20v234h-11q-29 0 -44 -13t-15 -30v-150zM420 442q0 16 -6 24.5t-14 13
t-17.5 5.5t-15.5 1h-17v-234q29 0 49.5 11.5t20.5 39.5v139zM476 78q3 -11 10 -15t16 -4q8 0 14.5 3.5t8.5 14.5v101q-8 14 -23 14q-6 0 -12.5 -4.5l-13.5 -9.5v-100z" />
    <glyph glyph-name="FL124Ah" unicode="&#x124a;" horiz-adv-x="870" 
d="M591 398h-61v-31q0 -42 -12 -67.5t-33.5 -39t-51.5 -18t-66 -4.5h-17v-217h50v-21h-230v21h50v217q-18 0 -46.5 -0.5t-56 -3t-49.5 -7t-28 -12.5v152q0 43 17.5 70t43.5 42t55.5 20.5t52.5 5.5h11v115q0 13 -4 19.5t-20 6.5h-26v26h180v-167q13 0 39.5 0.5t54.5 2t52.5 5
t33.5 9.5v-104h61v61q50 0 74.5 6t40.5 18v-147h124v-99h-30q0 9 -3 22.5t-11.5 26t-23.5 21.5t-38 9h-38q-29 0 -58 -3t-37 -11v76zM150 295q0 -15 6.5 -23.5t15.5 -12.5t17 -4.5t11 -0.5h20v234h-11q-29 0 -44 -13t-15 -30v-150zM420 444q0 16 -6 24.5t-14 13t-17.5 5.5
t-15.5 1h-17v-234q29 0 49.5 11.5t20.5 39.5v139z" />
    <glyph glyph-name="FL124Bh" unicode="&#x124b;" horiz-adv-x="610" 
d="M350 672v-169q13 0 39.5 0.5t54.5 2t52.5 5t33.5 9.5v-155q0 -42 -12 -67.5t-33.5 -39t-51.5 -18t-66 -4.5h-17v-92q25 1 52 3t51 5t41.5 7t25.5 9v-228h50v-20h-230v20h50v184h-170q-30 -3 -49 -18.5t-29 -35t-13.5 -38.5t-3.5 -28h-47v140h142v92q-18 0 -46.5 -0.5
t-56 -3t-49.5 -7t-28 -12.5v152q0 43 17.5 70t43.5 42t55.5 20.5t52.5 5.5h11v117q0 13 -4 19.5t-20 6.5h-26v26h180zM150 293q0 -15 6.5 -23.5t15.5 -12.5t17 -4.5t11 -0.5h20v234h-11q-29 0 -44 -13t-15 -30v-150zM420 442q0 16 -6 24.5t-14 13t-17.5 5.5t-15.5 1h-17
v-234q29 0 49.5 11.5t20.5 39.5v139z" />
    <glyph glyph-name="FL124Ch" unicode="&#x124c;" horiz-adv-x="575" 
d="M355 672v-169q13 0 39.5 0.5t54.5 2t52.5 5t33.5 9.5v-155q0 -42 -12 -67.5t-33.5 -39t-51.5 -18t-66 -4.5h-17v-51q6 7 16 10t18 3q18 0 29 -4t26 -4q10 0 23.5 2.5t25.5 8.5v-105q0 -35 -6.5 -54t-20 -28.5t-35 -11.5t-51.5 -2h-197q-27 0 -43.5 -15t-26 -35.5t-13 -40
t-3.5 -28.5h-57v140h185v215q-18 0 -46.5 -0.5t-56 -3t-49.5 -7t-28 -12.5v152q0 43 17.5 70t43.5 42t55.5 20.5t52.5 5.5h11v117q0 13 -4 19.5t-20 6.5h-26v26h180zM155 293q0 -15 6.5 -23.5t15.5 -12.5t17 -4.5t11 -0.5h20v234h-11q-29 0 -44 -13t-15 -30v-150zM425 442
q0 16 -6 24.5t-14 13t-17.5 5.5t-15.5 1h-17v-234q29 0 49.5 11.5t20.5 39.5v139zM355 170v-133q0 -14 5.5 -21.5t21.5 -7.5q17 0 23.5 4t9.5 22v137q-9 16 -26 16t-34 -17z" />
    <glyph glyph-name="FL124Dh" unicode="&#x124d;" horiz-adv-x="885" 
d="M725 367h-195v-2q0 -42 -12 -67.5t-33.5 -39t-51.5 -18t-66 -4.5h-17v-215h50v-21h-230v21h50v215q-18 0 -46.5 -0.5t-56 -3t-49.5 -7t-28 -12.5v152q0 43 17.5 70t43.5 42t55.5 20.5t52.5 5.5h11v117q0 13 -4 19.5t-20 6.5h-26v26h180v-169q13 0 39.5 0.5t54.5 2t52.5 5
t33.5 9.5v-133h62v123q50 0 74.5 6t40.5 18v-147h138v-108h-35q0 9 -3.5 24t-12.5 29.5t-25.5 24.5t-43.5 10zM150 293q0 -15 6.5 -23.5t15.5 -12.5t17 -4.5t11 -0.5h20v234h-11q-29 0 -44 -13t-15 -30v-150zM420 442q0 16 -6 24.5t-14 13t-17.5 5.5t-15.5 1h-17v-234
q29 0 49.5 11.5t20.5 39.5v139z" />
    <glyph glyph-name="FL1250h" unicode="&#x1250;" horiz-adv-x="570" 
d="M60 717h51q0 -9 5.5 -24.5t17.5 -30t31 -25t46 -10.5h138q27 0 46 10.5t31 25t17.5 30t5.5 24.5h51v-110h-150v-104q13 0 39.5 0.5t54.5 2t52.5 5t33.5 9.5v-155q0 -42 -12 -67.5t-33.5 -39t-51.5 -18t-66 -4.5h-17v-215h50v-21h-230v21h50v215q-18 0 -46.5 -0.5t-56 -3
t-49.5 -7t-28 -12.5v152q0 43 17.5 70t43.5 42t55.5 20.5t52.5 5.5h11v104h-160v110zM150 293q0 -15 6.5 -23.5t15.5 -12.5t17 -4.5t11 -0.5h20v234h-11q-29 0 -44 -13t-15 -30v-150zM420 442q0 16 -6 24.5t-14 13t-17.5 5.5t-15.5 1h-17v-234q29 0 49.5 11.5t20.5 39.5v139
z" />
    <glyph glyph-name="FL1251h" unicode="&#x1251;" horiz-adv-x="570" 
d="M65 716h41q0 -9 7 -24.5t21 -30t34.5 -25t47.5 -10.5h138q27 0 47.5 10.5t34.5 25t21 30t7 24.5h41v-110h-155v-103q13 0 39.5 0.5t54.5 2t52.5 5t33.5 9.5v-155q0 -42 -12 -67.5t-33.5 -39t-51.5 -18t-66 -4.5h-17v-44h143v-129h-25q0 21 -7 36t-32 15h-79v-93h50v-21
h-230v21h50v215q-18 0 -46.5 -0.5t-56 -3t-49.5 -7t-28 -12.5v152q0 43 17.5 70t43.5 42t55.5 20.5t52.5 5.5h11v103h-155v110zM150 293q0 -15 6.5 -23.5t15.5 -12.5t17 -4.5t11 -0.5h20v234h-11q-29 0 -44 -13t-15 -30v-150zM420 442q0 16 -6 24.5t-14 13t-17.5 5.5
t-15.5 1h-17v-234q29 0 49.5 11.5t20.5 39.5v139z" />
    <glyph glyph-name="FL1252h" unicode="&#x1252;" horiz-adv-x="570" 
d="M63 716h41q0 -9 7 -24.5t21 -30t34.5 -25t47.5 -10.5h138q27 0 47.5 10.5t34.5 25t21 30t7 24.5h41v-110h-153v-103q13 0 39.5 0.5t54.5 2t52.5 5t33.5 9.5v-155q0 -42 -12 -67.5t-33.5 -39t-51.5 -18t-66 -4.5h-17v-210h31q22 0 37.5 26t21.5 77h25v-129h-265v26h20v210
q-18 0 -46.5 -0.5t-56 -3t-49.5 -7t-28 -12.5v152q0 43 17.5 70t43.5 42t55.5 20.5t52.5 5.5h11v103h-157v110zM150 293q0 -15 6.5 -23.5t15.5 -12.5t17 -4.5t11 -0.5h20v234h-11q-29 0 -44 -13t-15 -30v-150zM420 442q0 16 -6 24.5t-14 13t-17.5 5.5t-15.5 1h-17v-234
q29 0 49.5 11.5t20.5 39.5v139z" />
    <glyph glyph-name="FL1253h" unicode="&#x1253;" horiz-adv-x="582" 
d="M74 716h41q0 -9 7 -24.5t21 -30t34.5 -25t47.5 -10.5h138q27 0 47.5 10.5t34.5 25t21 30t7 24.5h41v-110h-152v-103q13 0 39.5 0.5t54.5 2t52.5 5t33.5 9.5v-155q0 -42 -12 -67.5t-33.5 -39t-51.5 -18t-66 -4.5h-17v-78q0 -29 -13.5 -47.5t-38 -30.5t-59.5 -18.5
t-77 -11.5q-24 -1 -44.5 -14.5t-35 -33t-23 -42.5t-8.5 -43h-23v152h117q42 1 58.5 21t16.5 56v90q-18 0 -46.5 -0.5t-56 -3t-49.5 -7t-28 -12.5v152q0 43 17.5 70t43.5 42t55.5 20.5t52.5 5.5h11v103h-158v110zM162 293q0 -15 6.5 -23.5t15.5 -12.5t17 -4.5t11 -0.5h20v234
h-11q-29 0 -44 -13t-15 -30v-150zM432 442q0 16 -6 24.5t-14 13t-17.5 5.5t-15.5 1h-17v-234q29 0 49.5 11.5t20.5 39.5v139z" />
    <glyph glyph-name="FL1254h" unicode="&#x1254;" horiz-adv-x="570" 
d="M65 716h41q0 -9 7 -24.5t21 -30t34.5 -25t47.5 -10.5h138q27 0 47.5 10.5t34.5 25t21 30t7 24.5h41v-110h-155v-103q13 0 39.5 0.5t54.5 2t52.5 5t33.5 9.5v-155q0 -42 -12 -67.5t-33.5 -39t-51.5 -18t-66 -4.5h-17v-51q6 7 16 10t18 3l57 -6q9 0 22.5 1.5t24.5 5.5v-103
q0 -35 -6.5 -54t-20 -28.5t-35 -11.5t-51.5 -2h-175v21h20v215q-18 0 -46.5 -0.5t-56 -3t-49.5 -7t-28 -12.5v152q0 43 17.5 70t43.5 42t55.5 20.5t52.5 5.5h11v103h-155v110zM150 293q0 -15 6.5 -23.5t15.5 -12.5t17 -4.5t11 -0.5h20v234h-11q-29 0 -44 -13t-15 -30v-150z
M420 442q0 16 -6 24.5t-14 13t-17.5 5.5t-15.5 1h-17v-234q29 0 49.5 11.5t20.5 39.5v139zM350 170v-133q0 -14 5.5 -21.5t21.5 -7.5q17 0 23.5 4t9.5 22v137q-9 16 -26 16t-34 -17z" />
    <glyph glyph-name="FL1255h" unicode="&#x1255;" horiz-adv-x="644" 
d="M40 757h31q0 -9 5.5 -21t17.5 -22.5t31 -18t46 -7.5h84q27 0 46 7.5t31 18t17.5 22.5t5.5 21h31v-90h-210q0 -27 12 -44t28.5 -27t33.5 -13.5t27 -3.5l124 52q17 0 20 -12t3 -37v-93q13 0 39.5 0.5t55 2t52.5 5t33 10.5v-156q0 -42 -12 -67t-33.5 -39t-51.5 -18.5
t-66 -4.5h-17v-201h50v-21h-230v21h50v201q-18 0 -46.5 -0.5t-56 -2.5t-49.5 -6.5t-28 -12.5v151q0 44 17.5 71t43.5 42t55.5 20t52.5 5h11v64h-143v114h-111v90zM224 279q0 -15 6.5 -23t15.5 -12t17 -4.5t11 -0.5h20v234h-11q-29 0 -44 -13.5t-15 -29.5v-151zM494 428
q0 16 -6 25t-14 13.5t-17.5 5.5t-15.5 1h-17v-234q29 0 49.5 11t20.5 39v139z" />
    <glyph glyph-name="FL1256h" unicode="&#x1256;" horiz-adv-x="570" 
d="M66 749h41q0 -9 5 -24.5t16.5 -30t29.5 -25t45 -10.5l188 49q54 0 85 -18t31 -68q0 -58 -29.5 -79t-90.5 -22q16 3 23 34v120q-9 16 -26 16t-34 -17v-193q13 0 39.5 0.5t55 2t52.5 5t33 10.5v-156q0 -42 -12 -67t-33.5 -39t-51.5 -18.5t-66 -4.5h-17v-193h50v-21h-230v21
h50v193q-18 0 -46.5 -0.5t-56 -2.5t-49.5 -6.5t-28 -12.5v151q0 43 17.5 70t43.5 42t55.5 20.5t52.5 5.5h11v158h-154v110zM150 271q0 -15 6.5 -23t15.5 -12t17 -4.5t11 -0.5h20v234h-11q-29 0 -44 -13.5t-15 -30.5v-150zM420 420q0 16 -6 25t-14 13.5t-17.5 5.5t-15.5 1
h-17v-234q29 0 49.5 11t20.5 39v139z" />
    <glyph glyph-name="kkx1" unicode="&#x1258;" horiz-adv-x="643" 
d="M62 716h41q0 -9 7 -24.5t21 -30t34.5 -25t47.5 -10.5h138q27 0 47.5 10.5t34.5 25t21 30t7 24.5h41v-110h-152v-97q13 0 39.5 0.5t54.5 2t52.5 5t33.5 9.5v-155q0 -42 -12 -67t-33.5 -39t-51.5 -18.5t-66 -4.5h-17v-41h152q30 0 60 2t41 13v-70q0 -32 -4.5 -52
t-15.5 -30.5t-31 -14t-50 -3.5q-32 0 -52.5 3t-32 11.5t-16 23.5t-4.5 40v60h-47v-163h50v-21h-230v21h50v221q-18 0 -46.5 -0.5t-56 -3t-49.5 -7t-28 -12.5v152q0 43 17.5 70t43.5 42t55.5 20.5t52.5 5.5h11v97h-158v110zM150 299q0 -15 6.5 -23t15.5 -12t17 -4.5t11 -0.5
h20v233h-11q-29 0 -44 -13t-15 -30v-150zM420 448q0 16 -6 24.5t-14 13t-17.5 5.5t-15.5 1h-17v-233q29 0 49.5 11t20.5 39v139zM476 78q3 -11 10 -15t16 -4q8 0 14.5 3.5t8.5 14.5v101q-8 14 -23 14q-6 0 -12.5 -4.5l-13.5 -9.5v-100z" />
    <glyph glyph-name="FL125Ah" unicode="&#x125a;" horiz-adv-x="870" 
d="M591 398h-61v-33q0 -42 -12 -67.5t-33.5 -39t-51.5 -18t-66 -4.5h-17v-215h50v-21h-230v21h50v215q-18 0 -46.5 -0.5t-56 -3t-49.5 -7t-28 -12.5v152q0 43 17.5 70t43.5 42t55.5 20.5t52.5 5.5h11v103h-156v110h41q0 -9 7 -24.5t21 -30t34.5 -25t47.5 -10.5h138
q27 0 47.5 10.5t34.5 25t21 30t7 24.5h41v-110h-154v-103q13 0 39.5 0.5t54.5 2t52.5 5t33.5 9.5v-102h61v61q50 0 74.5 6t40.5 18v-147h124v-99h-30q0 9 -3 22.5t-11.5 26t-23.5 21.5t-38 9h-38q-29 0 -58 -3t-37 -11v76zM150 293q0 -15 6.5 -23.5t15.5 -12.5t17 -4.5
t11 -0.5h20v234h-11q-29 0 -44 -13t-15 -30v-150zM420 442q0 16 -6 24.5t-14 13t-17.5 5.5t-15.5 1h-17v-234q29 0 49.5 11.5t20.5 39.5v139z" />
    <glyph glyph-name="FL125Bh" unicode="&#x125b;" horiz-adv-x="610" 
d="M63 716h41q0 -9 7 -24.5t21 -30t34.5 -25t47.5 -10.5h138q27 0 47.5 10.5t34.5 25t21 30t7 24.5h41v-110h-153v-103q13 0 39.5 0.5t54.5 2t52.5 5t33.5 9.5v-155q0 -42 -12 -67.5t-33.5 -39t-51.5 -18t-66 -4.5h-17v-92q25 1 52 3t51 5t41.5 7t25.5 9v-228h50v-20h-230
v20h50v184h-170q-30 -3 -49 -18.5t-29 -35t-13.5 -38.5t-3.5 -28h-47v140h142v92q-18 0 -46.5 -0.5t-56 -3t-49.5 -7t-28 -12.5v152q0 43 17.5 70t43.5 42t55.5 20.5t52.5 5.5h11v103h-157v110zM150 293q0 -15 6.5 -23.5t15.5 -12.5t17 -4.5t11 -0.5h20v234h-11
q-29 0 -44 -13t-15 -30v-150zM420 442q0 16 -6 24.5t-14 13t-17.5 5.5t-15.5 1h-17v-234q29 0 49.5 11.5t20.5 39.5v139z" />
    <glyph glyph-name="FL125Ch" unicode="&#x125c;" horiz-adv-x="575" 
d="M69 716h41q0 -9 7 -24.5t21 -30t34.5 -25t47.5 -10.5h138q27 0 47.5 10.5t34.5 25t21 30t7 24.5h41v-110h-154v-103q13 0 39.5 0.5t54.5 2t52.5 5t33.5 9.5v-155q0 -42 -12 -67.5t-33.5 -39t-51.5 -18t-66 -4.5h-17v-51q6 7 16 10t18 3q18 0 33 -3t31 -3q20 0 40 8v-104
q0 -35 -6.5 -54t-20 -28.5t-35 -11.5t-51.5 -2h-197q-27 0 -43.5 -15t-26 -35.5t-13 -40t-3.5 -28.5h-57v140h185v215q-18 0 -46.5 -0.5t-56 -3t-49.5 -7t-28 -12.5v152q0 43 17.5 70t43.5 42t55.5 20.5t52.5 5.5h11v103h-156v110zM155 293q0 -15 6.5 -23.5t15.5 -12.5
t17 -4.5t11 -0.5h20v234h-11q-29 0 -44 -13t-15 -30v-150zM425 442q0 16 -6 24.5t-14 13t-17.5 5.5t-15.5 1h-17v-234q29 0 49.5 11.5t20.5 39.5v139zM355 170v-133q0 -14 5.5 -21.5t21.5 -7.5q17 0 23.5 4t9.5 22v137q-9 16 -26 16t-34 -17z" />
    <glyph glyph-name="FL125Dh" unicode="&#x125d;" horiz-adv-x="886" 
d="M726 367h-196v-9q0 -42 -12 -67t-33.5 -38.5t-51.5 -18t-66 -4.5h-17v-209h50v-21h-230v21h50v209q-18 0 -46.5 -0.5t-56 -3t-49.5 -7t-28 -12.5v151q0 44 17.5 71t43.5 42t55.5 20t52.5 5h11v110h-157v110h41q0 -9 7 -24.5t21 -30t34.5 -25t47.5 -10.5h138
q27 0 47.5 10.5t34.5 25t21 30t7 24.5h41v-110h-153v-110q13 0 39.5 0.5t55 2t52.5 5t33 10.5v-127h63v123q50 0 74.5 6t40.5 18v-147h138v-108h-35q0 9 -3.5 24t-12.5 29.5t-25.5 24.5t-43.5 10zM150 286q0 -15 6.5 -23t15.5 -12t17 -4.5t11 -0.5h20v234h-11
q-29 0 -44 -13.5t-15 -29.5v-151zM420 436q0 16 -6 24.5t-14 13t-17.5 5.5t-15.5 1h-17v-234q29 0 49.5 11.5t20.5 39.5v139z" />
    <glyph glyph-name="FL1260h" unicode="&#x1260;" horiz-adv-x="615" 
d="M395 598v-577h-50v-21h230v21h-50v646q-11 -8 -36.5 -12t-57 -6t-64.5 -2h-58q-105 0 -162 -44.5t-57 -135.5v-446h-50v-21h230v21h-50v574q16 19 35.5 27t54.5 8q34 0 53 -7.5t32 -24.5z" />
    <glyph glyph-name="FL1261h" unicode="&#x1261;" horiz-adv-x="681" 
d="M641 245h-25q0 21 -7 36.5t-32 15.5h-52v-276h50v-21h-230v21h50v577q-13 17 -32.5 24.5t-53.5 7.5q-35 0 -54 -8t-35 -27v-574h50v-21h-230v21h50v446q0 91 57 135.5t162 44.5q32 0 66.5 0.5t65 3t53 7.5t31.5 15v-299h116v-129z" />
    <glyph glyph-name="FL1262h" unicode="&#x1262;" horiz-adv-x="680" 
d="M525 21h31q22 0 37.5 28.5t21.5 79.5h25v-129h-265v21h20v576q-13 17 -32.5 25t-53.5 8q-35 0 -54 -8.5t-35 -27.5v-573h50v-21h-230v21h50v446q0 91 57 135t162 44q38 0 73 0.5t64 3t49.5 8t29.5 15.5v-652z" />
    <glyph glyph-name="FL1263h" unicode="&#x1263;" horiz-adv-x="615" 
d="M395 597v-576h-50v-21h230v21h-50v650q-25 -19 -82 -22t-134 -3q-105 0 -162 -44t-57 -135v-228h-50v-21h230v21h-50v355q16 19 34.5 27.5t53.5 8.5q34 0 54 -8t33 -25z" />
    <glyph glyph-name="FL1264h" unicode="&#x1264;" horiz-adv-x="722" 
d="M525 234q6 6 16 9t18 3l75 -6q11 0 23 2t25 7v-131q0 -39 -6.5 -62.5t-22 -36t-41 -16t-62.5 -3.5h-175v21h20v576q-13 17 -32.5 25t-53.5 8q-35 0 -54 -8.5t-35 -27.5v-573h50v-21h-230v21h50v446q0 91 57 135t162 44q78 0 134 4.5t82 27.5v-444zM525 218v-181
q0 -14 5.5 -21.5t21.5 -7.5q17 0 23.5 4t9.5 22v185q-9 17 -26 17q-18 0 -34 -18z" />
    <glyph glyph-name="FL1265h" unicode="&#x1265;" horiz-adv-x="673" 
d="M453 597q-13 17 -32.5 25t-53.5 8q-35 0 -54 -8.5t-35 -27.5v-573h50v-21h-230v21h50v277h-44q-25 0 -32 -15.5t-7 -36.5h-25v129h108v92q0 91 57 135t162 44q34 0 67.5 0.5t62.5 3.5t51.5 9t34.5 17v-655h50v-21h-230v21h50v576z" />
    <glyph glyph-name="FL1266h" unicode="&#x1266;" horiz-adv-x="615" 
d="M395 597v-403h-50v-21h230v21h-50v481q-12 -11 -25.5 -17t-36.5 -8.5t-59.5 -3t-94.5 -0.5q-105 0 -162 -44t-57 -135v-446h-50v-21h230v21h-50v573q16 19 35 27.5t54 8.5q34 0 53.5 -8t32.5 -25z" />
    <glyph glyph-name="b8" unicode="&#x1267;" horiz-adv-x="688" 
d="M273 -32v99h122v530q-13 17 -33 25t-54 8q-35 0 -53.5 -8.5t-34.5 -27.5v-355h50v-21h-230v21h50v228q0 91 57 135t162 44q77 0 134 3t82 22v-604h123v-99h-45q0 9 -2.5 22.5t-10.5 26t-23 21t-40 8.5h-133q-24 0 -39 -8.5t-23.5 -21t-11 -26t-2.5 -22.5h-45z" />
    <glyph glyph-name="FL1268h" unicode="&#x1268;" horiz-adv-x="605" 
d="M385 538v-517h-45v-21h225v21h-50v585q-20 -13 -71.5 -16t-139.5 -4q-52 0 -92 -15.5t-67 -41t-41 -59t-14 -71.5v-378h-50v-21h225v21h-45v514q16 18 32.5 25.5t51.5 7.5q34 0 51 -7t30 -23zM85 742v-110h451v110h-65q0 -9 -3.5 -24.5t-13 -29.5t-26 -24.5t-43.5 -10.5
h-149q-27 0 -43.5 10.5t-26 24.5t-13 29.5t-3.5 24.5h-65z" />
    <glyph glyph-name="FL1269h" unicode="&#x1269;" horiz-adv-x="671" 
d="M631 174h-25q0 21 -7 36.5t-32 15.5h-52v-205h50v-21h-225v21h45v517q-13 16 -30 21.5t-51 5.5q-18 0 -30 -1.5t-21.5 -4.5t-17 -9t-15.5 -15v-514h44v-21h-224v21h50v378q0 38 14 72t41 59.5t67 40.5t92 15q82 0 131 2.5t80 17.5v-303h116v-129zM89 740v-110h437v110
h-65q0 -9 -3.5 -24.5t-13 -29.5t-26 -24.5t-43.5 -10.5h-135q-27 0 -43.5 10.5t-26 24.5t-13 29.5t-3.5 24.5h-65z" />
    <glyph glyph-name="FL126Ah" unicode="&#x126a;" horiz-adv-x="668" 
d="M513 21h31q22 0 37.5 28.5t21.5 79.5h25v-129h-265v21h20v517q-13 16 -29.5 23.5t-50.5 7.5q-35 0 -51 -8t-32 -26v-514h43v-21h-223v21h50v378q0 38 14 72t41 59.5t66.5 40.5t91.5 15q58 0 95 0.5t59.5 2.5t34.5 6t21 11v-585zM83 744v-110h447v110h-65q0 -9 -3.5 -24.5
t-13 -29.5t-26 -24.5t-43.5 -10.5h-145q-27 0 -43.5 10.5t-26 24.5t-13 29.5t-3.5 24.5h-65z" />
    <glyph glyph-name="FL126Bh" unicode="&#x126b;" horiz-adv-x="602" 
d="M382 538v-517h-44v-21h224v21h-50v585q-9 -8 -21 -12t-34.5 -6t-59 -2.5t-94.5 -0.5q-52 0 -91.5 -15t-66.5 -40.5t-41 -59t-14 -71.5v-234h-50v-21h224v21h-44v370q16 18 32 26t51 8q34 0 50 -7.5t29 -23.5zM80 742v-110h451v110h-65q0 -9 -3.5 -24.5t-13 -29.5
t-26 -24.5t-43.5 -10.5h-149q-27 0 -43.5 10.5t-26 24.5t-13 29.5t-3.5 24.5h-65z" />
    <glyph glyph-name="FL126Ch" unicode="&#x126c;" horiz-adv-x="710" 
d="M513 234h5q12 12 29 12q20 0 33 -2.5t32 -2.5q11 0 28.5 1.5t29.5 5.5v-130q0 -39 -6.5 -62.5t-22 -36t-41 -16t-62.5 -3.5h-175v21h20v517q-13 16 -29.5 23.5t-50.5 7.5q-35 0 -51 -8t-32 -26v-514h50v-21h-230v21h50v378q0 38 14 71.5t41 59t66.5 40.5t91.5 15
q58 0 93 0.5t56.5 2.5t34 6t26.5 12v-372zM513 218v-181q0 -14 5.5 -21.5t21.5 -7.5q17 0 23.5 4t9.5 22v185q-9 17 -26 17q-18 0 -34 -18zM85 742v-110h453v110h-65q0 -9 -3.5 -24.5t-13 -29.5t-26 -24.5t-43.5 -10.5h-151q-27 0 -43.5 10.5t-26 24.5t-13 29.5t-3.5 24.5
h-65z" />
    <glyph glyph-name="FL126Dh" unicode="&#x126d;" horiz-adv-x="661" 
d="M441 538q-13 16 -29.5 23.5t-50.5 7.5q-35 0 -51 -8t-32 -26v-514h44v-21h-224v21h50v235h-44q-25 0 -32 -15t-7 -36h-25v129h108v65q0 38 14 72t41 59.5t66.5 40.5t91.5 15q58 0 94 0.5t58.5 2t34.5 5.5t23 12v-585h50v-21h-224v21h44v517zM135 743v-110h456v110h-65
q0 -9 -3.5 -24.5t-13 -29.5t-26 -24.5t-43.5 -10.5h-154q-27 0 -43.5 10.5t-26 24.5t-13 29.5t-3.5 24.5h-65z" />
    <glyph glyph-name="FL126Eh" unicode="&#x126e;" horiz-adv-x="603" 
d="M383 538v-344h-44v-21h224v21h-50v412q-15 -8 -28 -12t-34 -6t-55.5 -2.5t-92.5 -0.5q-52 0 -91.5 -14.5t-66.5 -39.5t-41 -59t-14 -72v-379h-50v-21h224v21h-44v514q8 9 15 15.5t16 11t21 7t29 2.5q34 0 51.5 -8.5t30.5 -24.5zM85 742v-110h445v110h-65q0 -9 -3.5 -24.5
t-13 -29.5t-26 -24.5t-43.5 -10.5h-143q-27 0 -43.5 10.5t-26 24.5t-13 29.5t-3.5 24.5h-65z" />
    <glyph glyph-name="FL126Fh" unicode="&#x126f;" horiz-adv-x="673" 
d="M258 -32v99h124v471q-13 16 -29 23.5t-50 7.5q-35 0 -51 -8t-32 -26v-370h44v-21h-224v21h50v234q0 38 14 71.5t41 59t66.5 40.5t91.5 15q58 0 94.5 0.5t59 2.5t34.5 6t21 12v-539h121v-99h-45q0 9 -2.5 22.5t-10.5 26t-23 21t-40 8.5h-133q-24 0 -39 -8.5t-23.5 -21
t-11 -26t-2.5 -22.5h-45zM80 742h65q0 -9 3.5 -24.5t13 -29.5t26 -24.5t43.5 -10.5h155q27 0 43.5 10.5t26 24.5t13 29.5t3.5 24.5h65v-110h-457v110z" />
    <glyph glyph-name="FL1270h" unicode="&#x1270;" horiz-adv-x="534" 
d="M333 646v-231h161v-119h-25q0 5 -1.5 20t-10.5 31.5t-28 29t-55 12.5h-41v-368h50v-21h-229v21h50v368h-40q-35 0 -55 -12.5t-30 -29t-12 -31.5t-2 -20h-25v119h163v179q0 7 -4.5 16.5t-19.5 9.5h-26v26h180z" />
    <glyph glyph-name="FL1271h" unicode="&#x1271;" horiz-adv-x="534" 
d="M333 646v-231h161v-119h-25q0 5 -1.5 20t-10.5 31.5t-28 29t-55 12.5h-41v-133h103v-128h-25q0 21 -7 36t-32 15h-39v-158h50v-21h-229v21h50v368h-40q-35 0 -55 -12.5t-30 -29t-12 -31.5t-2 -20h-25v119h163v179q0 7 -4.5 16.5t-19.5 9.5h-26v26h180z" />
    <glyph glyph-name="FL1272h" unicode="&#x1272;" horiz-adv-x="534" 
d="M334 646v-231h160v-119h-25q0 5 -1.5 20t-10.5 31.5t-28 29t-55 12.5h-40v-368h31q22 0 37.5 28.5t21.5 79.5h25v-129h-265v21h20v368h-40q-35 0 -55 -12.5t-30 -29t-12 -31.5t-2 -20h-25v119h163v184q-1 7 -6 14t-17 7h-26v26h180z" />
    <glyph glyph-name="FL1273h" unicode="&#x1273;" horiz-adv-x="597" 
d="M396 646v-216h161v-125h-25q0 19 -3.5 37t-13.5 31.5t-27.5 22t-45.5 8.5h-46v-276q0 -28 -19 -46.5t-50 -30.5t-71 -19t-82 -11q-24 -1 -44.5 -14.5t-35 -33.5t-23 -43t-8.5 -43h-23v152h117q21 0 40.5 5.5t34.5 15.5t24.5 24t9.5 32v288h-66q-27 0 -44.5 -8.5t-27 -22
t-13.5 -31.5t-4 -37h-25v125h180v164q0 7 -4.5 16.5t-19.5 9.5h-26v26h180z" />
    <glyph glyph-name="FL1274h" unicode="&#x1274;" horiz-adv-x="534" 
d="M333 646v-231h161v-119h-25q0 5 -1.5 20t-10.5 31.5t-28 29t-55 12.5h-41v-184q6 6 16 9t18 3l69 -8q12 0 25 3t29 11v-105q0 -39 -6.5 -62.5t-22 -36t-41 -16t-62.5 -3.5h-174v21h20v368h-40q-35 0 -55 -12.5t-30 -29t-12 -31.5t-2 -20h-25v119h163v178q0 7 -4.5 17.5
t-19.5 10.5h-26v25h180zM333 190v-153q0 -14 5.5 -21.5t21.5 -7.5q17 0 23.5 4t9.5 22v157q-9 16 -26 16t-34 -17z" />
    <glyph glyph-name="FL1275h" unicode="&#x1275;" horiz-adv-x="550" 
d="M210 573q-11 0 -30.5 10t-39 27t-34 40.5t-14.5 50.5h-25v-154h142v-151h-169v-140h25q0 5 2 23.5t12 38.5t30 36t55 16h45v-349h-50v-21h230v21h-50v349h46q36 0 56 -16t29.5 -36t12 -38.5t2.5 -23.5h25v140h-171v180q0 25 -4 37t-21 12z" />
    <glyph glyph-name="FL1276h" unicode="&#x1276;" horiz-adv-x="560" 
d="M344 645q17 17 34 17t26 -16v-141q-4 -20 -12 -27t-23 -7q68 0 100 21t32 80q0 51 -31 75t-85 24q-14 0 -41 -13l-155 -51q15 0 20 -12.5t5 -34.5v-147h-174v-137h25q0 5 2 23t12 37.5t30 35t55 15.5h50v-366h-50v-21h230v21h-50v366h51q36 0 56 -15.5t29.5 -35t12 -37.5
t2.5 -23h25v137h-176v232z" />
    <glyph glyph-name="t8" unicode="&#x1277;" horiz-adv-x="534" 
d="M80 -32v99h124v322h-40q-35 0 -55 -12.5t-30 -29t-12 -31.5t-2 -20h-25v119h163v179q0 7 -4.5 16.5t-19.5 9.5h-26v26h180v-231h161v-119h-25q0 5 -1.5 20t-10.5 31.5t-28 29t-55 12.5h-41v-322h122v-99h-45q0 9 -2.5 22.5t-10.5 26t-23 21t-40 8.5h-133q-24 0 -39 -8.5
t-23.5 -21t-11 -26t-2.5 -22.5h-45z" />
    <glyph glyph-name="FL1278h" unicode="&#x1278;" horiz-adv-x="544" 
d="M40 669h55q0 -9 6 -24t18 -29.5t31 -25t46 -10.5h155q27 0 45.5 10.5t30 25t17 29.5t5.5 24h55v-110h-167v-153h161v-120h-25q0 5 -1.5 20.5t-10.5 32t-28 29t-55 12.5h-41v-359h50v-21h-229v21h50v359h-40q-35 0 -55 -12.5t-30 -29t-12 -32t-2 -20.5h-25v120h163v153
h-167v110z" />
    <glyph glyph-name="FL1279h" unicode="&#x1279;" horiz-adv-x="544" 
d="M40 671h55q0 -9 6 -24.5t18 -30t31 -25t46 -10.5h155q27 0 45.5 10.5t30 25t17 30t5.5 24.5h55v-111h-167v-145h161v-119h-25q0 5 -1.5 20t-10.5 31.5t-28 29t-55 12.5h-41v-133h103v-128h-25q0 21 -7 36t-32 15h-39v-158h50v-21h-229v21h50v368h-40q-35 0 -55 -12.5
t-30 -29t-12 -31.5t-2 -20h-25v119h163v145h-167v111z" />
    <glyph glyph-name="FL127Ah" unicode="&#x127a;" horiz-adv-x="544" 
d="M40 669h55q0 -9 6 -24t18 -29.5t31 -25t46 -10.5h155q27 0 45.5 10.5t30 25t17 29.5t5.5 24h55v-110h-166v-144h160v-119h-25q0 5 -1.5 20t-10.5 31.5t-28 29t-55 12.5h-40v-368h31q22 0 37.5 28.5t21.5 79.5h25v-129h-265v21h20v368h-40q-35 0 -55 -12.5t-30 -29
t-12 -31.5t-2 -20h-25v119h163v144h-167v110z" />
    <glyph glyph-name="FL127Bh" unicode="&#x127b;" horiz-adv-x="603" 
d="M99 669h55q0 -9 6 -24t18 -29.5t31 -25t46 -10.5h155q27 0 45.5 10.5t30 25t17 29.5t5.5 24h55v-110h-167v-150h161v-133h-25q0 19 -3.5 38.5t-13.5 34.5t-27.5 24.5t-45.5 9.5h-46v-224q0 -29 -19 -47.5t-50 -30.5t-71 -18.5t-82 -11.5q-24 -1 -44.5 -14.5t-35 -33
t-23 -42.5t-8.5 -43h-23v152h117q21 0 40.5 5.5t34.5 15t24.5 24t9.5 32.5v236h-66q-27 0 -44.5 -9.5t-27 -24.5t-13.5 -34.5t-4 -38.5h-25v133h180v150h-167v110z" />
    <glyph glyph-name="FL127Ch" unicode="&#x127c;" horiz-adv-x="544" 
d="M40 669h55q0 -9 6 -24t18 -29.5t31 -25t46 -10.5h155q27 0 45.5 10.5t30 25t17 29.5t5.5 24h55v-110h-167v-144h161v-119h-25q0 5 -1.5 20t-10.5 31.5t-28 29t-55 12.5h-41v-184q6 6 16 9t18 3q22 0 40 -4.5t37 -4.5q23 0 46 11v-101q0 -39 -6.5 -62.5t-22 -36t-41 -16
t-62.5 -3.5h-174v21h20v368h-40q-35 0 -55 -12.5t-30 -29t-12 -31.5t-2 -20h-25v119h163v144h-167v110zM337 190v-153q0 -14 5.5 -21.5t21.5 -7.5q17 0 23.5 4t9.5 22v157q-9 16 -26 16t-34 -17z" />
    <glyph glyph-name="FL127Dh" unicode="&#x127d;" horiz-adv-x="649" 
d="M309 520l104 53q17 0 21 -12.5t4 -37.5v-152h171v-139h-25q0 4 -2.5 22.5t-12 38.5t-29.5 36t-56 16h-46v-324h50v-21h-230v21h50v324h-45q-35 0 -55 -16t-30 -36t-12 -38.5t-2 -22.5h-25v139h169v123h-142v91h-126v105h47q0 -9 1.5 -23.5t7.5 -28t17.5 -23t31.5 -9.5h69
q27 0 43 6t24.5 17t11 26.5t2.5 34.5h40v-105h-144q3 -23 18 -36t34 -19.5t37.5 -8t28.5 -1.5z" />
    <glyph glyph-name="FL127Eh" unicode="&#x127e;" horiz-adv-x="560" 
d="M54 681h50q0 -9 3.5 -21t13 -22.5t26 -17.5t43.5 -7h205q54 0 85 -20.5t31 -78.5q0 -29 -9 -45.5t-26 -25t-41.5 -11.5t-55.5 -4q11 2 21 10t14 24v118q-5 8 -15.5 12t-18.5 4q-19 0 -36 -17v-198h176v-137h-25q0 5 -2.5 23t-12 37.5t-29.5 35t-56 15.5h-51v-334h50v-21
h-230v21h50v334h-50q-35 0 -55 -15.5t-30 -35t-12 -37.5t-2 -23h-25v137h174v211h-160v89z" />
    <glyph glyph-name="ch8" unicode="&#x127f;" horiz-adv-x="544" 
d="M85 -32v99h123v313h-40q-35 0 -55 -12.5t-30 -29t-12 -32t-2 -20.5h-25v120h163v153h-167v110h55q0 -9 6 -24t18 -29.5t31 -25t46 -10.5h155q27 0 45.5 10.5t30 25t17 29.5t5.5 24h55v-110h-167v-153h161v-120h-25q0 5 -1.5 20.5t-10.5 32t-28 29t-55 12.5h-41v-313h123
v-99h-45q0 9 -2.5 22.5t-10.5 26t-23 21t-40 8.5h-133q-24 0 -39 -8.5t-23.5 -21t-11 -26t-2.5 -22.5h-45z" />
    <glyph glyph-name="hhh1" unicode="&#x1280;" horiz-adv-x="596" 
d="M40 402v140h193v52q0 13 -4 19.5t-20 6.5h-26v26h179v-156q0 -30 4 -40.5t27 -10.5l70 16q27 -1 35 -12.5t8 -33.5v-383h50v-26h-230v26h50v365q0 18 -5 27.5t-21 9.5q-26 -5 -41 -7.5t-23 -4t-12 -2t-8 -0.5q-22 0 -27.5 12.5t-5.5 52.5v42h-70q-27 0 -41 -15t-21 -35.5
t-8 -40t-1 -28.5h-52z" />
    <glyph glyph-name="hhh2" unicode="&#x1281;" horiz-adv-x="662" 
d="M622 209h-25q0 21 -7 36.5t-32 15.5h-52v-235h50v-26h-230v26h50v365q0 18 -4.5 27.5t-21.5 9.5q-26 -5 -41 -7.5t-23 -4t-12 -2t-8 -0.5q-22 0 -27.5 12.5t-5.5 52.5v42h-70q-27 0 -41 -15t-21 -35.5t-8 -40t-1 -28.5h-52v140h193v52q0 13 -4 19.5t-20 6.5h-26v26h179
v-156q0 -30 4 -40.5t27 -10.5l70 16q27 -1 35 -12.5t8 -33.5v-71h116v-129z" />
    <glyph glyph-name="hhh3" unicode="&#x1282;" horiz-adv-x="657" 
d="M502 21h31q22 0 37.5 26t21.5 77h25v-124h-261v21h20v370q0 18 -4.5 27.5t-21.5 9.5q-26 -5 -41 -7.5t-23 -4t-12 -2t-8 -0.5q-22 0 -27.5 12.5t-5.5 52.5v42h-70q-27 0 -41 -15t-21 -35.5t-8 -40t-1 -28.5h-52v140h193v52q0 13 -4 19.5t-20 6.5h-26v26h179v-156
q0 -30 4 -40.5t27 -10.5l66 16q27 -1 35 -12.5t8 -33.5v-388z" />
    <glyph glyph-name="hhh4" unicode="&#x1283;" horiz-adv-x="528" 
d="M198 4q21 0 48.5 5.5t52 15.5t42 24t17.5 32v312q0 18 -4.5 28t-21.5 10l-41 -8l-23 -4.5t-12 -2t-8 -0.5q-22 0 -27.5 12.5t-5.5 52.5v42h-52q-27 0 -41 -15t-21 -35.5t-8 -40t-1 -28.5h-52v140h175v52q0 13 -4 19.5t-20 6.5h-26v26h179v-156q0 -30 4 -40.5t27 -10.5
l70 16q27 -1 35 -12.5t8 -33.5v-318q0 -28 -27 -46.5t-67.5 -30.5t-88.5 -19t-90 -11q-24 -2 -44.5 -15.5t-35 -33t-23 -42.5t-8.5 -43h-23v152h117z" />
    <glyph glyph-name="hhh5" unicode="&#x1284;" horiz-adv-x="703" 
d="M506 234q6 6 16 9t18 3q26 0 40.5 -5t32.5 -5q10 0 24.5 2.5t25.5 8.5v-129q0 -39 -6.5 -62.5t-22 -36t-41 -16t-62.5 -3.5h-175v21h20v370q0 18 -4.5 27.5t-21.5 9.5q-26 -5 -41 -7.5t-23 -4t-12 -2t-8 -0.5q-22 0 -27.5 12.5t-5.5 52.5v42h-70q-27 0 -41 -15t-21 -35.5
t-8 -40t-1 -28.5h-52v140h193v52q0 13 -4 19.5t-20 6.5h-26v26h179v-156q0 -30 4 -40.5t27 -10.5l74 16q27 -1 33 -12.5t6 -33.5v-175zM506 218v-181q0 -14 5.5 -21.5t21.5 -7.5q17 0 23.5 4t9.5 22v185q-9 17 -26 17q-18 0 -34 -18z" />
    <glyph glyph-name="hhh6" unicode="&#x1285;" horiz-adv-x="608" 
d="M198 328h-134q-11 0 -17.5 14t-6.5 33v45q0 24 10 47.5t33.5 42.5t63 31t98.5 13v40q0 13 -4 19.5t-20 6.5h-26v26h179v-156q0 -30 4 -40.5t27 -10.5l70 16q27 -1 35 -12.5t8 -33.5v-383h50v-26h-230v26h50v365q0 18 -4.5 27.5t-21.5 9.5q-26 -5 -41 -7.5t-23 -4t-12 -2
t-8 -0.5q-22 0 -27.5 12.5t-5.5 52.5v55q-37 -3 -54.5 -15t-20.5 -37v-138h28v-16z" />
    <glyph glyph-name="hhh7" unicode="&#x1286;" horiz-adv-x="610" 
d="M40 393v129h116v14q2 42 12.5 67.5t34.5 40t64 19t101 4.5h187v-128h-56q-6 51 -21.5 79.5t-37.5 28.5h-105q-21 0 -35 -16t-14 -46v-191q0 -42 9 -60t44 -18h143q17 0 27.5 -4.5t10.5 -29.5v-261h50v-21h-230v21h50v232q0 43 -25 43h-138q-37 0 -54 22t-17 54v73h-52
q-25 0 -32 -15.5t-7 -36.5h-25z" />
    <glyph glyph-name="hhhx1" unicode="&#x1288;" horiz-adv-x="806" 
d="M560 336h-54v-310h50v-26h-230v26h50v365q0 18 -5 27.5t-21 9.5q-26 -5 -41 -7.5t-23 -4t-12 -2t-8 -0.5q-22 0 -27.5 12.5t-5.5 52.5v42h-70q-27 0 -41 -15t-21 -35.5t-8 -40t-1 -28.5h-52v140h193v52q0 13 -4 19.5t-20 6.5h-26v26h179v-156q0 -30 4 -40.5t27 -10.5
l70 16q27 -1 35 -12.5t8 -33.5v-57h189q24 0 43 3.5t28 12.5v-106q0 -33 -4.5 -52.5t-15.5 -30t-31 -14t-50 -3.5q-32 0 -52.5 2.5t-32 11t-16 23.5t-4.5 40v97zM639 194q3 -12 10 -16t16 -4q8 0 14.5 4t8.5 15v137q-7 13 -23 13q-6 0 -12.5 -4t-13.5 -9v-136z" />
    <glyph glyph-name="FL128A" unicode="&#x128a;" horiz-adv-x="861" 
d="M40 402h52q0 9 1 28.5t8 40t21 35.5t41 15h70v-42q0 -40 5.5 -52.5t27.5 -12.5q4 0 8 0.5t12 2t23 4t41 7.5q16 0 21 -9.5t5 -27.5v-365h-50v-26h230v26h-50v290h76v-75q3 3 13 5.5t23.5 4t29 2.5t29.5 1h38q23 0 38 -8.5t23.5 -21t11.5 -26t3 -22.5h30v99h-124v146
q-16 -11 -40.5 -17t-74.5 -6v-61h-76v72q0 22 -8 33.5t-35 12.5l-70 -16q-23 0 -27 10.5t-4 40.5v156h-179v-26h26q16 0 20 -6.5t4 -19.5v-52h-193v-140z" />
    <glyph glyph-name="FL128Bh" unicode="&#x128b;" horiz-adv-x="725" 
d="M455 -63h50v188q-26 0 -57 -8t-62 -18t-60 -18t-53 -8q-49 0 -75.5 -29.5t-27.5 -71.5h-23v120h109q42 0 72 20.5t30 56.5v224q0 18 -4.5 28t-21.5 10l-41 -8l-23 -4.5t-12 -2t-8 -0.5q-22 0 -27.5 12.5t-5.5 52.5v42h-52q-27 0 -41 -15t-21 -35.5t-8 -40t-1 -28.5h-52
v140h175v52q0 13 -4 19.5t-20 6.5h-26v26h179v-156q0 -30 4 -40.5t27 -10.5l70 16q27 -1 35 -12.5t8 -33.5v-254q54 0 93.5 5t53.5 20v-245h50v-20h-230v20z" />
    <glyph glyph-name="FL128Ch" unicode="&#x128c;" horiz-adv-x="703" 
d="M139 -80v140h237v331q0 18 -4.5 27.5t-21.5 9.5q-26 -5 -41 -7.5t-23 -4t-12 -2t-8 -0.5q-22 0 -27.5 12.5t-5.5 52.5v42h-70q-27 0 -41 -15t-21 -35.5t-8 -40t-1 -28.5h-52v140h193v52q0 13 -4 19.5t-20 6.5h-26v26h179v-156q0 -30 4 -40.5t27 -10.5l74 16
q27 -1 33 -12.5t6 -33.5v-136q6 6 16 9t18 3q21 0 40 -3t37 -3q11 0 22.5 2t23.5 8v-131q0 -39 -6.5 -62.5t-22 -36t-41 -16.5t-62.5 -4h-241q-27 0 -43.5 -15t-26 -35.5t-13 -40t-3.5 -28.5h-65zM506 257v-181q0 -14 5.5 -21.5t21.5 -7.5q17 0 23.5 4t9.5 22v186
q-9 16 -26 16q-18 0 -34 -18z" />
    <glyph glyph-name="FL128Dh" unicode="&#x128d;" horiz-adv-x="879" 
d="M40 402v140h193v52q0 13 -4 19.5t-20 6.5h-26v26h179v-156q0 -30 4 -40.5t27 -10.5l70 16q27 -1 35 -12.5t8 -33.5v-124h80v123q50 0 74.5 6t40.5 18v-147h138v-108h-35q0 9 -3.5 24t-12.5 29.5t-25.5 24.5t-43.5 10h-213v-239h50v-26h-230v26h50v365q0 18 -5 27.5
t-21 9.5q-26 -5 -41 -7.5t-23 -4t-12 -2t-8 -0.5q-22 0 -27.5 12.5t-5.5 52.5v42h-70q-27 0 -41 -15t-21 -35.5t-8 -40t-1 -28.5h-52z" />
    <glyph glyph-name="FL1290h" unicode="&#x1290;" horiz-adv-x="474" 
d="M90 594v-205q6 8 23.5 14t38 9.5t40 5.5t31.5 2q14 0 18.5 -6t8.5 -24v-364h-50v-26h234v26h-50v446q-8 -9 -24 -15t-34.5 -9.5t-37 -5.5t-32.5 -2q-18 0 -25 6t-12 26v174h-179v-26h26q16 0 20 -6.5t4 -19.5z" />
    <glyph glyph-name="FL1291h" unicode="&#x1291;" horiz-adv-x="540" 
d="M90 594v-205q6 8 23.5 14t38 9.5t40 5.5t31.5 2q27 0 27 -30v-364h-50v-26h234v26h-50v242h52q25 0 32 -15.5t7 -36.5h25v129h-116v127q-8 -9 -24 -15t-34.5 -9.5t-37 -5.5t-32.5 -2q-18 0 -25 6t-12 26v174h-179v-26h26q16 0 20 -6.5t4 -19.5z" />
    <glyph glyph-name="FL1292h" unicode="&#x1292;" horiz-adv-x="539" 
d="M90 594v-205q6 8 23.5 14t38 9.5t40 5.5t31.5 2q14 0 20.5 -6t10.5 -24v-364h-20v-26h265v129h-25q-6 -51 -21.5 -77t-37.5 -26h-31v446q-8 -9 -24 -15t-34.5 -9.5t-37 -5.5t-32.5 -2q-18 0 -25 6t-12 26v174h-179v-26h26q16 0 20 -6.5t4 -19.5z" />
    <glyph glyph-name="FL1293h" unicode="&#x1293;" horiz-adv-x="514" 
d="M459 650v-128h-74q-6 51 -21.5 79.5t-37.5 28.5h-87q-21 0 -35 -16t-14 -46v-174q0 -42 9 -60t44 -18h143q17 0 27.5 -4.5t10.5 -29.5v-261h50v-21h-230v21h50v232q0 43 -25 43h-81q-18 0 -40 -1t-43 -4t-38.5 -9t-26.5 -17v201q0 60 11.5 96t38.5 55.5t71.5 26
t110.5 6.5h187z" />
    <glyph glyph-name="FL1294h" unicode="&#x1294;" horiz-adv-x="581" 
d="M90 594v-205q6 8 23.5 14t38 9.5t40 5.5t31.5 2q14 0 20.5 -6t10.5 -24v-369h-20v-21h175q37 0 62.5 3.5t41 16t22 36t6.5 62.5v130q-20 -9 -43 -9q-20 0 -41 3.5t-39 3.5q-8 0 -18 -3t-16 -9v238q-8 -9 -24 -15t-34.5 -9.5t-37 -5.5t-32.5 -2q-18 0 -25 6t-12 26v174
h-179v-26h26q16 0 20 -6.5t4 -19.5zM384 218q16 18 34 18q17 0 26 -17v-185q-3 -18 -9.5 -22t-23.5 -4q-16 0 -21.5 7.5t-5.5 21.5v181z" />
    <glyph glyph-name="FL1295h" unicode="&#x1295;" horiz-adv-x="550" 
d="M40 487v140h211q9 0 26.5 0.5t36.5 2.5t37 5.5t29 10.5v-186q0 -20 -18.5 -35t-41 -25.5t-41 -17.5t-18.5 -11q0 -2 6.5 -4t15.5 -3.5t18.5 -2.5t14.5 -1q8 0 28 3t42.5 8.5t43 12t30.5 14.5v-372h50v-26h-234v26h50v286q0 18 -17 27t-64 10q-17 -1 -39.5 -10t-54.5 -18
v25q9 0 25.5 8.5t33 23t29 34t12.5 40.5v126q0 13 -4 20.5t-20 7.5h-74q-17 0 -28.5 -15t-19.5 -35.5t-11.5 -40t-3.5 -28.5h-50z" />
    <glyph glyph-name="FL1296h" unicode="&#x1296;" horiz-adv-x="550" 
d="M510 543q0 -26 -4.5 -45t-17 -31.5t-36 -19t-60.5 -6.5q-39 0 -62.5 6t-36 18.5t-16.5 32t-4 45.5q0 21 1 35t3 24t6.5 17t10.5 14h-55q-21 0 -35 -16t-14 -46v-177q0 -42 9 -60t44 -18h174q17 0 27.5 -4.5t10.5 -29.5v-261h50v-21h-230v21h50v232q0 43 -25 43h-110
q-18 0 -39.5 -0.5t-42.5 -3.5t-39 -10t-29 -19v188q0 60 11.5 99.5t39 62.5t73 32t113.5 9q67 0 108 0.5t65.5 2t37 5.5t22.5 12v-131zM421 478v147q-10 15 -29 15q-8 0 -18.5 -5t-12.5 -16v-142q2 -12 10 -16.5t23 -4.5q14 0 19.5 4t7.5 18z" />
    <glyph glyph-name="n8" unicode="&#x1297;" horiz-adv-x="566" 
d="M199 -32v99h95v186q0 43 -25 43h-79q-18 0 -40.5 -0.5t-43.5 -3t-38.5 -8t-27.5 -15.5v214q0 54 11.5 87t38.5 51t71.5 24t110.5 6h187v-128h-68q-6 51 -21.5 79.5t-37.5 28.5h-93q-21 0 -35 -16t-14 -46v-175q0 -42 9 -60t44 -18h143q17 0 27.5 -4.5t10.5 -29.5v-215
h102v-99h-34q0 9 -3 22.5t-10.5 26t-20.5 21t-32 8.5h-131q-19 0 -31 -8.5t-19 -21t-9.5 -26t-2.5 -22.5h-34z" />
    <glyph glyph-name="FL1298h" unicode="&#x1298;" horiz-adv-x="595" 
d="M510 507v140h-470v-140h65q0 9 3.5 28.5t13 40t26 35.5t43.5 15h20v-250q6 8 23.5 14t38 9.5t40 5.5t31.5 2q14 0 20.5 -6.5t6.5 -23.5v-351h-50v-26h234v26h-50v433q-8 -9 -24 -15t-34.5 -9.5t-37 -5.5t-32.5 -2q-18 0 -25 6t-12 26v167h19q27 0 43.5 -15t26 -35.5
t13 -40t3.5 -28.5h65z" />
    <glyph glyph-name="FL1299h" unicode="&#x1299;" horiz-adv-x="661" 
d="M510 507v140h-470v-140h65q0 9 3.5 28.5t13 40t26 35.5t43.5 15h20v-250q6 8 23.5 14t38 9.5t40 5.5t31.5 2q14 0 20.5 -6.5t6.5 -23.5v-351h-50v-26h234v26h-50v208h52q25 0 32 -15.5t7 -36.5h25v129h-116v148q-8 -9 -24 -15t-34.5 -9.5t-37 -5.5t-32.5 -2q-18 0 -25 6
t-12 26v167h19q27 0 43.5 -15t26 -35.5t13 -40t3.5 -28.5h65z" />
    <glyph glyph-name="FL129Ah" unicode="&#x129a;" horiz-adv-x="661" 
d="M510 507v140h-470v-140h65q0 9 3.5 28.5t13 40t26 35.5t43.5 15h21v-250q6 8 23.5 14t38 9.5t40 5.5t31.5 2q14 0 20.5 -6.5t6.5 -23.5v-351h-20v-26h269v129h-25q-6 -51 -21.5 -77t-37.5 -26h-31v433q-8 -9 -24 -15t-34.5 -9.5t-37 -5.5t-32.5 -2q-18 0 -25 6t-12 26
v167h18q27 0 43.5 -15t26 -35.5t13 -40t3.5 -28.5h65z" />
    <glyph glyph-name="FL129Bh" unicode="&#x129b;" horiz-adv-x="487" 
d="M447 723v-99h-146v-70h139v-129h-67q0 57 -18.5 83t-40.5 26h-94q-21 0 -35 -16t-14 -46v-136q0 -43 6.5 -59.5t37.5 -16.5h143q17 0 27.5 -4.5t10.5 -28.5v-206h50v-21h-230v21h50v177q0 19 -6.5 30.5t-18.5 11.5h-68q-15 0 -33 -0.5t-36 -2.5t-34.5 -6.5t-28.5 -12.5
v185q0 31 5 58t20 47t41.5 31t70.5 11v74h-138v99h35q0 -9 6.5 -22.5t19.5 -26t32.5 -21t46.5 -8.5h125q27 0 47 8.5t33.5 21t20 26t6.5 22.5h35z" />
    <glyph glyph-name="FL129Ch" unicode="&#x129c;" horiz-adv-x="703" 
d="M510 507v140h-470v-140h65q0 9 3.5 28.5t13 40t26 35.5t43.5 15h20v-250q6 8 23.5 14t38 9.5t40 5.5t31.5 2q14 0 20.5 -6.5t6.5 -23.5v-355h-20v-21h180q37 0 62.5 3.5t41 16t22 36t6.5 62.5v131l-28.5 -8t-25.5 -4q-16 0 -29.5 4.5t-39.5 4.5q-8 0 -18 -3t-16 -9v125
h-1v99q-8 -9 -24 -15t-34.5 -9.5t-37 -5.5t-32.5 -2q-18 0 -25 6t-12 26v167h19q27 0 43.5 -15t26 -35.5t13 -40t3.5 -28.5h65zM508 219q16 18 34 18q17 0 26 -17v-185q-3 -18 -9.5 -22t-23.5 -4q-16 0 -21.5 7.5t-5.5 21.5v181z" />
    <glyph glyph-name="FL129Dh" unicode="&#x129d;" horiz-adv-x="557" 
d="M467 696v-99h-153v-47h21t24 1t21.5 3t14.5 6v-166q-12 0 -31.5 -12t-40.5 -27t-41.5 -27t-33.5 -12v-8q15 1 45.5 4.5t64 8.5t64 12.5t45.5 16.5v-324h50v-26h-234v26h50v236q0 18 -5 27.5t-26 9.5q-12 0 -27.5 -2t-31 -4.5t-30 -4.5t-24.5 -2v27q10 0 23 6t25 17
t20.5 27t8.5 36v103q0 12 -4 20t-20 8h-74q-21 0 -35.5 -15t-23.5 -35.5t-12.5 -40.5t-3.5 -29h-31v140h127v47h-149v99h35q0 -9 8 -22.5t23 -25.5t36.5 -21t48.5 -9h125q27 0 48.5 9t36.5 21t23 25.5t8 22.5h35z" />
    <glyph glyph-name="FL129Eh" unicode="&#x129e;" horiz-adv-x="519" 
d="M472 725v-99h-165v-64q6 1 13 1h15h56q24 0 40.5 1.5t27.5 4t20 7.5v-119q0 -30 -4.5 -48.5t-17 -29t-36 -14t-60.5 -3.5q-39 0 -62.5 3.5t-36 14t-16.5 29t-4 48.5q0 21 1 34.5t3 22.5t6.5 15t10.5 13h-44q-21 0 -35 -16t-14 -46v-143q0 -43 9 -60.5t44 -17.5h141
q17 0 27.5 -5t10.5 -29v-204h50v-21h-230v21h50v175q0 19 -6.5 30.5t-18.5 11.5h-80q-37 0 -71 -4.5t-56 -25.5v199q0 35 4.5 61.5t19.5 45t44 30t79 15.5v67h-145v99h35q0 -9 6.5 -22.5t20 -26t33.5 -21t47 -8.5h153q27 0 46 8.5t31 21t17.5 26t5.5 22.5h35zM390 401v129
q-5 24 -29 24q-28 0 -31 -24v-129q5 -26 31 -26q14 0 20 6t9 20z" />
    <glyph glyph-name="gn8" unicode="&#x129f;" horiz-adv-x="559" 
d="M144 -53v99h122v149q0 19 -6.5 30.5t-18.5 11.5h-72q-37 0 -72.5 -3.5t-55.5 -23.5v193q0 31 5 58t20 47t41.5 31t70.5 11v74h-138v99h35q0 -9 6.5 -22.5t19.5 -26t32.5 -21t46.5 -8.5h125q27 0 47 8.5t33.5 21t20 26t6.5 22.5h35v-99h-146v-70h139v-129h-72q0 31 -5 52
t-13.5 34t-19 18t-21.5 5h-89q-21 0 -35 -16t-14 -46v-136q0 -43 6.5 -61t37.5 -18h143q17 0 27.5 -4.5t10.5 -28.5v-178h123v-99h-45q0 9 -2.5 22.5t-10.5 26t-23 21.5t-40 9h-133q-24 0 -39 -9t-23.5 -21.5t-11 -26t-2.5 -22.5h-45z" />
    <glyph glyph-name="FL12A0h" unicode="&#x12a0;" horiz-adv-x="718" 
d="M205 519v154h-165v-26h34v-75q0 -29 12 -46t31 -26t42 -11.5t46 -2.5q43 0 80.5 15.5t57.5 35.5q-18 -22 -44.5 -45.5l-51 -47t-42 -46t-17.5 -43.5v-334h-50v-21h230v21h-50v337q8 16 20.5 31t27.5 26t31 17.5t30 6.5q21 0 40.5 -4t30.5 -13v-401h-50v-21h230v21h-50
v459q-19 -13 -65.5 -15.5t-116.5 -2.5q-36 0 -71 -13.5t-58 -50.5l57 135v49q-6 -5 -21.5 -17t-36 -24.5t-42.5 -22t-40 -9.5q-19 0 -29 10z" />
    <glyph glyph-name="FL12A1h" unicode="&#x12a1;" horiz-adv-x="783" 
d="M743 183h-25q0 21 -7 36.5t-32 15.5h-51v-214h50v-21h-230v21h50v401q-11 9 -30.5 13t-40.5 4q-14 0 -30 -6.5t-31 -17.5t-27.5 -26t-20.5 -31v-337h50v-21h-230v21h50v334q0 21 17.5 43.5t42 46l51 47t44.5 45.5q-20 -20 -57.5 -35.5t-80.5 -15.5q-23 0 -46 2.5
t-42 11.5t-31 26t-12 46v75h-34v26h165v-154q10 -10 29 -10t41 9.5t42 22t35.5 24.5t21.5 17v-49l-57 -135q23 37 58 50.5t71 13.5q70 0 117.5 2t64.5 16v-168h115v-129z" />
    <glyph glyph-name="FL12A2h" unicode="&#x12a2;" horiz-adv-x="783" 
d="M628 26h31q22 0 37.5 26t21.5 77h25v-129h-265v26h20v396q-11 9 -30.5 13t-40.5 4q-14 0 -30 -6.5t-31 -17.5t-27.5 -26t-20.5 -31v-337h50v-21h-230v21h50v334q0 21 17.5 43.5t42 46l51 47t44.5 45.5q-20 -20 -57.5 -35.5t-80.5 -15.5q-23 0 -46 2.5t-42 11.5t-31 26
t-12 46v75h-34v26h165v-154q10 -10 29 -10q18 0 40 9.5t42.5 22t36 24.5t21.5 17v-49l-57 -135q23 37 58 50.5t71 13.5q70 0 117.5 2t64.5 16v-454z" />
    <glyph glyph-name="FL12A3h" unicode="&#x12a3;" horiz-adv-x="718" 
d="M205 519v154h-165v-26h34v-75q0 -29 12 -46t31 -26t42 -11.5t46 -2.5q43 0 80.5 15.5t57.5 35.5q-18 -22 -44.5 -45.5l-51 -47t-42 -46t-17.5 -43.5v-211h-50v-20h230v20h-50v214q8 16 20.5 31t27.5 26t31 17.5t30 6.5q21 0 40.5 -4t30.5 -13v-401h-50v-21h230v21h-50
v459q-16 -14 -64 -16t-118 -2q-36 0 -71 -13.5t-58 -50.5l57 135v49q-6 -6 -21.5 -18t-35.5 -24.5t-42 -21.5t-41 -9t-29 10z" />
    <glyph glyph-name="FL12A4h" unicode="&#x12a4;" horiz-adv-x="825" 
d="M628 234q6 6 16 9t18 3q22 0 39 -4t35 -4q11 0 23 2.5t26 9.5v-132q0 -39 -6.5 -62.5t-22 -36t-41 -16t-62.5 -3.5h-175v21h20v401q-11 9 -30.5 13t-40.5 4q-14 0 -30 -6.5t-31 -17.5t-27.5 -26t-20.5 -31v-337h50v-21h-230v21h50v334q0 21 17.5 43.5t42 46l51 47
t44.5 45.5q-20 -20 -57.5 -35.5t-80.5 -15.5q-23 0 -46 2.5t-42 11.5t-31 26t-12 46v75h-34v26h165v-154q10 -10 29 -10q18 0 40 9t42.5 21t36 24t21.5 18v-48l-57 -135q23 37 58 50.5t71 13.5q70 0 118 2t64 16v-246zM628 218v-181q0 -14 5.5 -21.5t21.5 -7.5q17 0 23.5 4
t9.5 22v185q-9 17 -26 17q-18 0 -34 -18z" />
    <glyph glyph-name="FL12A5h" unicode="&#x12a5;" horiz-adv-x="711" 
d="M198 682v-74q17 4 26 11v-98q10 -10 29 -10q18 0 36 9.5t33.5 21.5t27 23.5t17.5 16.5v-49l-57 -135q23 37 58 50.5t71 13.5q70 0 118 2t64 16v-459h50v-21h-230v21h50v401q-11 9 -30.5 13t-40.5 4q-14 0 -30 -6.5t-31 -17.5t-27.5 -26t-20.5 -31v-337h50v-21h-230v21h50
v334q0 21 17.5 43.5t42 46l51 47t44.5 45.5q-20 -20 -44.5 -34.5t-67.5 -14.5q-23 0 -37 -0.5t-23.5 -2t-15.5 -5.5t-12 -10v94q-7 -3 -17 -6.5t-19 -3.5q-14 0 -23.5 8t-9.5 27v67h-27v26h158z" />
    <glyph glyph-name="FL12A6h" unicode="&#x12a6;" horiz-adv-x="718" 
d="M205 519v154h-165v-26h34v-75q0 -29 12 -46t31 -26t42 -11.5t46 -2.5q43 0 80.5 15.5t57.5 35.5q-18 -22 -44.5 -45.5l-51 -47t-42 -46t-17.5 -43.5v-334h-50v-21h230v21h-50v337q8 16 20.5 31t27.5 26t31 17.5t30 6.5q21 0 40.5 -4t30.5 -13v-278h-50v-20h230v20h-50
v336q-17 -14 -64.5 -16t-117.5 -2q-36 0 -71 -13.5t-58 -50.5l57 135v49q-6 -6 -21.5 -18t-36 -24.5t-42.5 -21.5t-40 -9q-19 0 -29 10z" />
    <glyph glyph-name="a8" unicode="&#x12a7;" horiz-adv-x="812" 
d="M299 519q10 -10 29 -10t41 9t42 21.5t35.5 24.5t21.5 18v-49l-57 -135q23 37 58 50.5t71 13.5q70 0 116.5 2t65.5 16v-459h50v-21h-230v21h50v401q-11 9 -30.5 13t-40.5 4q-14 0 -30 -6.5t-31 -17.5t-27.5 -26t-20.5 -31v-337h50v-21h-230v21h50v334q0 21 17.5 43.5
t42 46l51 47t44.5 45.5q-20 -20 -57.5 -35.5t-80.5 -15.5q-32 0 -56 2.5t-41 11.5t-25.5 26t-8.5 46v68h-128v100h45q0 -9 3.5 -23t13 -26.5t26 -21.5t43.5 -9h138q27 0 43.5 9t26 21.5t13 26.5t3.5 23h45v-100h-141v-121z" />
    <glyph glyph-name="FL12A8h" unicode="&#x12a8;" horiz-adv-x="726" 
d="M506 496v-475h-50v-21h230v21h-50v533q-12 -6 -35 -9.5t-51.5 -5t-59 -2t-58.5 -0.5q-154 0 -212 -106v216h-180v-26h25q17 0 21 -12t4 -39v-155h111v-394h-50v-21h230v21h-50v471q16 12 39.5 20t57.5 8q48 0 78 -24z" />
    <glyph glyph-name="FL12A9h" unicode="&#x12a9;" horiz-adv-x="788" 
d="M748 235h-25q0 21 -7 36t-32 15h-48v-265h50v-21h-230v21h50v472q-29 23 -75 23q-34 0 -59 -7.5t-41 -19.5v-468h50v-21h-230v21h50v394h-111v155q0 27 -4 39t-21 12h-25v26h180v-216q29 54 81.5 78t130.5 24q46 0 79 1t56.5 3.5t39.5 6.5t28 10v-190h113v-129z" />
    <glyph glyph-name="FL12AAh" unicode="&#x12aa;" horiz-adv-x="791" 
d="M636 26h31q22 0 37.5 26t21.5 77h25v-129h-265v26h20v468q-15 12 -32.5 17.5t-41.5 5.5q-34 0 -59.5 -7.5t-41.5 -19.5v-469h50v-21h-230v21h50v394h-111v155q0 27 -4 39t-21 12h-25v26h180v-216q57 103 212 103q54 0 88 1t56 3t35 6t25 10v-528z" />
    <glyph glyph-name="FL12ABh" unicode="&#x12ab;" horiz-adv-x="726" 
d="M506 494v-473h-50v-21h230v21h-50v533q-13 -6 -26.5 -10t-35 -6t-55 -3t-87.5 -1q-155 0 -212 -103v216h-180v-26h25q17 0 21 -12t4 -39v-155h111v-267h-50v-20h230v20h-50v342q16 12 41 19.5t59 7.5q46 0 75 -23z" />
    <glyph glyph-name="FL12ACh" unicode="&#x12ac;" horiz-adv-x="833" 
d="M636 234q6 6 16 9t18 3l71 -7q24 0 52 10v-131q0 -39 -6.5 -62.5t-22 -36t-41 -16t-62.5 -3.5h-175v21h20v473q-29 23 -76 23q-34 0 -58.5 -7.5t-40.5 -19.5v-469h50v-21h-230v21h50v394h-111v155q0 27 -4 39t-21 12h-25v26h180v-216q29 54 80.5 78t129.5 24q54 0 86.5 1
t53.5 3.5t35 6.5t31 10v-320zM636 218v-181q0 -14 5.5 -21.5t21.5 -7.5q17 0 23.5 4t9.5 22v185q-9 17 -26 17q-18 0 -34 -18z" />
    <glyph glyph-name="FL12ADh" unicode="&#x12ad;" horiz-adv-x="726" 
d="M331 488v-467h50v-21h-230v21h50v265q9 -18 24.5 -29.5t40.5 -11.5q10 0 19.5 5t17 13.5t12 18.5t4.5 20q-9 -8 -21.5 -15.5t-30.5 -6.5q-25 1 -45.5 17.5t-20.5 51.5v66h-111v155q0 27 -4 39t-21 12h-25v26h180v-216q58 106 212 106q44 0 76.5 0.5t56.5 2t40.5 5
t30.5 9.5v-533h50v-21h-230v21h50v471q-15 12 -32.5 18t-41.5 6q-34 0 -59.5 -8t-41.5 -20z" />
    <glyph glyph-name="FL12AEh" unicode="&#x12ae;" horiz-adv-x="726" 
d="M506 490v-341h-50v-20h230v20h-50v405q-14 -7 -27.5 -11t-35 -6t-54.5 -2.5t-87 -0.5q-155 0 -212 -103v216h-180v-26h25q17 0 21 -12t4 -39v-155h111v-394h-50v-21h230v21h-50v465q16 12 41.5 19.5t59.5 7.5q24 0 41.5 -5.5t32.5 -17.5z" />
    <glyph glyph-name="qx1" unicode="&#x12b0;" horiz-adv-x="934" 
d="M688 356h-52v-335h50v-21h-230v21h50v475q-30 24 -78 24q-34 0 -57.5 -8t-39.5 -20v-471h50v-21h-230v21h50v394h-111v155q0 27 -4 39t-21 12h-25v26h180v-216q58 106 212 106q28 0 58.5 0.5t59 2t51.5 5t35 9.5v-181h157q30 0 60 2t41 13v-106q0 -32 -4.5 -52
t-15.5 -30.5t-31 -14t-50 -3.5q-32 0 -52.5 3t-32 11.5t-16 23.5t-4.5 40v96zM767 214q3 -11 10 -15t16 -4q8 0 14.5 3.5t8.5 14.5v137q-8 14 -23 14q-6 0 -12.5 -4.5l-13.5 -9.5v-136z" />
    <glyph glyph-name="qx2" unicode="&#x12b2;" horiz-adv-x="982" 
d="M703 337h-67v-316h50v-21h-230v21h50v475q-30 24 -78 24q-34 0 -57.5 -8t-39.5 -20v-471h50v-21h-230v21h50v394h-111v155q0 27 -4 39t-21 12h-25v26h180v-216q58 106 212 106q28 0 58.5 0.5t59 2t51.5 5t35 9.5v-197h67v61q50 0 74.5 6t40.5 18v-146h124v-99h-30
q0 9 -3 22.5t-11.5 25.5t-23.5 21t-38 9h-38q-14 0 -29.5 -1t-29 -2.5t-23.5 -4t-13 -5.5v75z" />
    <glyph glyph-name="qx3" unicode="&#x12b3;" horiz-adv-x="875" 
d="M605 -63h50v184h-161q-33 0 -53.5 -15t-32 -35.5t-15 -40.5t-3.5 -29h-47v140h163v353q-29 23 -75 23q-34 0 -59 -7.5t-41 -19.5v-266h50v-21h-230v21h50v191h-111v155q0 27 -4 39t-21 12h-25v26h180v-216q57 103 212 103q54 0 87.5 1t55 3t35 6t26.5 10v-412
q29 0 51.5 3.5t40.5 8l32 8t25 3.5v-228h50v-20h-230v20z" />
    <glyph glyph-name="qx4" unicode="&#x12b4;" horiz-adv-x="833" 
d="M296 -119v140h210v473q-29 23 -76 23q-34 0 -58.5 -7.5t-40.5 -19.5v-321h50v-21h-230v21h50v246h-111v155q0 27 -4 39t-21 12h-25v26h180v-216q29 54 80.5 78t129.5 24q54 0 86.5 1t53.5 3.5t35 6.5t31 10v-320q6 6 16 9t18 3q23 0 40.5 -4t36.5 -4q22 0 46 10v-130
q0 -39 -6.5 -62.5t-22 -36t-41 -16t-62.5 -3.5h-220q-27 0 -43.5 -15t-26.5 -35.5t-13.5 -40t-3.5 -28.5h-58zM636 218v-181q0 -14 5.5 -21.5t21.5 -7.5q17 0 23.5 4t9.5 22v185q-9 17 -26 17q-18 0 -34 -18z" />
    <glyph glyph-name="qx5" unicode="&#x12b5;" horiz-adv-x="990" 
d="M830 316h-194v-295h50v-21h-230v21h50v475q-30 24 -78 24q-34 0 -57.5 -8t-39.5 -20v-471h50v-21h-230v21h50v394h-111v155q0 27 -4 39t-21 12h-25v26h180v-216q58 106 212 106q28 0 58.5 0.5t59 2t51.5 5t35 9.5v-217h61v122q50 0 74.5 6.5t40.5 17.5v-146h138v-108h-35
q0 9 -3.5 23.5t-12.5 29t-25.5 24.5t-43.5 10z" />
    <glyph glyph-name="qq1" unicode="&#x12b8;" horiz-adv-x="837" 
d="M40 692h65q0 -9 2.5 -24.5t11 -30t24 -25t42.5 -10.5h152q27 0 43.5 10.5t26 25t13 30t3.5 24.5h65v-111h-157v-150q29 54 81.5 78t130.5 24q54 0 86.5 0.5t53 2.5t34.5 6t30 12v-533h50v-21h-230v21h50v472q-31 25 -77 25q-34 0 -58 -8.5t-40 -20.5v-468h50v-21h-230v21
h50v394h-111v166h-161v111z" />
    <glyph glyph-name="qq2" unicode="&#x12b9;" horiz-adv-x="887" 
d="M40 697h65q0 -9 3.5 -25.5t13 -32.5t26 -28t43.5 -12h124q27 0 43.5 12t26 28t13 32.5t3.5 25.5h65v-118h-147v-148q58 106 212 106q46 0 79.5 0.5t57 2.5t39 5t27.5 9v-190h113v-129h-25q0 21 -7 36t-32 15h-48v-265h50v-21h-230v21h50v476q-15 12 -33 18t-42 6
q-34 0 -59 -8t-41 -20v-472h50v-21h-230v21h50v394h-111v164h-149v118z" />
    <glyph glyph-name="qq3" unicode="&#x12ba;" horiz-adv-x="879" 
d="M40 691h65q0 -9 3.5 -25.5t13 -32.5t26 -28t43.5 -12h124q27 0 43.5 12t26 28t13 32.5t3.5 25.5h65v-118h-158v-142q58 106 212 106q54 0 86 0.5t52 2t34 5t32 9.5v-528h31q22 0 37.5 26t21.5 77h25v-129h-265v26h20v471q-15 12 -32.5 18t-41.5 6q-34 0 -59.5 -8
t-41.5 -20v-472h50v-21h-230v21h50v394h-111v158h-138v118z" />
    <glyph glyph-name="qq4" unicode="&#x12bb;" horiz-adv-x="818" 
d="M40 686h65q0 -9 3.5 -25.5t13 -32.5t26 -28t43.5 -12h124q27 0 43.5 12t26 28t13 32.5t3.5 25.5h65v-118h-154v-137q58 106 212 106q54 0 85.5 0.5t51.5 2t34 5t33 9.5v-533h50v-21h-230v21h50v476q-29 23 -75 23q-34 0 -59 -7.5t-41 -19.5v-345h50v-20h-230v20h50v267
h-111v153h-142v118z" />
    <glyph glyph-name="qq5" unicode="&#x12bc;" horiz-adv-x="923" 
d="M40 689h65q0 -9 3.5 -25.5t13 -32.5t26 -28t43.5 -12h124q27 0 43.5 12t26 28t13 32.5t3.5 25.5h65v-118h-156v-140q58 106 212 106q54 0 86 0.5t53 2t34.5 5t30.5 9.5v-320q6 6 16 9t18 3q18 0 37 -5t39 -5q11 0 23 2.5t24 10.5v-131q0 -39 -6.5 -62.5t-22 -36t-41 -16
t-62.5 -3.5h-175v21h20v476q-30 24 -76 24q-34 0 -58.5 -8t-40.5 -20v-472h50v-21h-230v21h50v394h-111v156h-140v118zM726 218v-181q0 -14 5.5 -21.5t21.5 -7.5q17 0 23.5 4t9.5 22v185q-9 17 -26 17q-18 0 -34 -18z" />
    <glyph glyph-name="qq6" unicode="&#x12bd;" horiz-adv-x="825" 
d="M40 692h65q0 -9 3.5 -25.5t13 -32.5t26 -28t43.5 -12h124q27 0 43.5 12t26 28t13 32.5t3.5 25.5h65v-118h-147v-143q58 106 212 106h87q25 0 43 1t30.5 2.5t22.5 4t21 6.5v-530h50v-21h-230v21h50v476q-15 12 -33 18.5t-42 6.5q-34 0 -59 -8.5t-41 -20.5v-472h50v-21
h-230v21h50v264q9 -18 27.5 -29.5t43.5 -11.5q17 0 31 17.5t14 44.5q-8 -11 -18 -17.5t-27 -5.5q-13 0 -25.5 6.5t-22.5 16.5t-16.5 23t-6.5 26v60h-111v159h-149v118z" />
    <glyph glyph-name="qq7" unicode="&#x12be;" horiz-adv-x="823" 
d="M40 691h65q0 -9 3.5 -25.5t13 -32.5t26 -28t43.5 -12h124q27 0 43.5 12t26 28t13 32.5t3.5 25.5h65v-118h-149v-142q58 106 212 106q53 0 87 0.5t56 2t35.5 5t25.5 9.5v-405h50v-20h-230v20h50v348q-15 12 -33 18.5t-42 6.5q-34 0 -59 -8.5t-41 -20.5v-472h50v-21h-230
v21h50v394h-111v158h-147v118z" />
    <glyph glyph-name="FL12C0h" unicode="&#x12c0;" horiz-adv-x="1029" 
d="M40 696h65q0 -9 2.5 -24t11 -30t24 -25.5t42.5 -10.5h136q27 0 43.5 10.5t26 25.5t13 30t3.5 24h65v-111h-157v-154q58 106 212 106q28 0 58.5 0.5t59 2t51.5 5t35 9.5v-181h157q30 0 60 2t41 13v-106q0 -32 -4.5 -52t-15.5 -30.5t-31 -14t-50 -3.5q-32 0 -52.5 3
t-32 11.5t-16 23.5t-4.5 40v96h-52v-335h50v-21h-230v21h50v475q-30 24 -78 24q-34 0 -57.5 -8t-39.5 -20v-471h50v-21h-230v21h50v394h-111v170h-145v111zM862 214q3 -11 10 -15t16 -4q8 0 14.5 3.5t8.5 14.5v137q-8 14 -23 14q-6 0 -12.5 -4.5l-13.5 -9.5v-136z" />
    <glyph glyph-name="FL12C2h" unicode="&#x12c2;" horiz-adv-x="1078" 
d="M40 697h65q0 -9 2.5 -24t11 -30t24 -25.5t42.5 -10.5h137q27 0 43.5 10.5t26 25.5t13 30t3.5 24h65v-111h-157v-155q58 106 212 106q28 0 58.5 0.5t59 2t51.5 5t35 9.5v-197h67v61q50 0 74.5 6t40.5 18v-146h124v-99h-30q0 9 -3 22.5t-11.5 25.5t-23.5 21t-38 9h-38
q-14 0 -29.5 -1t-29 -2.5t-23.5 -4t-13 -5.5v75h-67v-316h50v-21h-230v21h50v475q-30 24 -78 24q-34 0 -57.5 -8t-39.5 -20v-471h50v-21h-230v21h50v394h-111v171h-146v111z" />
    <glyph glyph-name="FL12C3h" unicode="&#x12c3;" horiz-adv-x="969" 
d="M40 723h65q0 -9 2.5 -24.5t11 -30.5t24 -25.5t42.5 -10.5h135q27 0 43.5 10.5t26 25.5t13 30.5t3.5 24.5h65v-111h-157v-181q57 103 212 103q54 0 87.5 1t55 3t35 6t26.5 10v-412q29 0 51.5 3.5t40.5 8l32 8t25 3.5v-228h50v-20h-230v20h50v184h-161q-33 0 -53.5 -15
t-32 -35.5t-15 -40.5t-3.5 -29h-47v140h163v353q-29 23 -75 23q-34 0 -59 -7.5t-41 -19.5v-266h50v-21h-230v21h50v191h-111v197h-144v111z" />
    <glyph glyph-name="FL12C4h" unicode="&#x12c4;" horiz-adv-x="929" 
d="M40 696h65q0 -9 2.5 -24t11 -30t24 -25.5t42.5 -10.5h137q27 0 43.5 10.5t26 25.5t13 30t3.5 24h65v-111h-157v-154q29 54 80.5 78t129.5 24q54 0 86.5 1t53.5 3.5t35 6.5t31 10v-320q6 6 16 9t18 3q23 0 41.5 -4.5t37.5 -4.5q11 0 21.5 2.5t22.5 9.5v-131
q0 -39 -6.5 -62.5t-22 -36t-41 -16t-62.5 -3.5h-220q-27 0 -43.5 -15t-26.5 -35.5t-13.5 -40t-3.5 -28.5h-58v140h210v473q-29 23 -76 23q-34 0 -58.5 -7.5t-40.5 -19.5v-321h50v-21h-230v21h50v246h-111v170h-146v111zM732 218v-181q0 -14 5.5 -21.5t21.5 -7.5q17 0 23.5 4
t9.5 22v185q-9 17 -26 17q-18 0 -34 -18z" />
    <glyph glyph-name="FL12C5h" unicode="&#x12c5;" horiz-adv-x="1084" 
d="M40 696h65q0 -9 2.5 -24t11 -30t24 -25.5t42.5 -10.5h135q27 0 43.5 10.5t26 25.5t13 30t3.5 24h65v-111h-157v-154q58 106 212 106q28 0 58.5 0.5t59 2t51.5 5t35 9.5v-217h61v122q50 0 74.5 6.5t40.5 17.5v-146h138v-108h-35q0 9 -3.5 23.5t-12.5 29t-25.5 24.5
t-43.5 10h-194v-295h50v-21h-230v21h50v475q-30 24 -78 24q-34 0 -57.5 -8t-39.5 -20v-471h50v-21h-230v21h50v394h-111v170h-144v111z" />
    <glyph glyph-name="FL12C8h" unicode="&#x12c8;" horiz-adv-x="770" 
d="M220 566v-54q8 17 22 29.5t31.5 21t36 12.5t35.5 4q30 0 50.5 -3t35 -10.5t24.5 -21t18 -33.5q10 17 25.5 28t33 18t35.5 9.5t33 2.5q37 0 71.5 3t58.5 11v-434q0 -61 -30.5 -99t-88.5 -38q-45 0 -81 14t-57 35l-28.5 -21t-26 -15t-30.5 -9t-43 -3q-29 0 -51 2.5t-43 5.5
t-42.5 5.5t-48.5 2.5q-23 0 -39 -3.5t-31 -25.5v481q0 9 -0.5 19.5t-3 19.5t-7 15t-13.5 6h-26v25h180zM345 549l-9 4.5t-10 2.5q-18 0 -36.5 -9t-34 -22.5t-25.5 -29.5t-10 -29v-342q0 -32 9 -48.5t27 -26.5q13 -8 27 -11t26 -3q19 0 36 11v503zM600 42v472
q-2 15 -11.5 20.5t-19.5 5.5q-38 0 -66 -24t-28 -67v-346q0 -13 11.5 -25t28 -21t35.5 -14.5t34 -5.5q8 0 16 5z" />
    <glyph glyph-name="FL12C9h" unicode="&#x12c9;" horiz-adv-x="879" 
d="M839 82h-25q0 21 -7 36.5t-32 15.5h-46q-4 -55 -34 -88t-84 -33q-45 0 -81 14t-57 35l-28.5 -21t-26 -15t-30.5 -9t-43 -3q-29 0 -51 2.5t-43 5.5t-42.5 5.5t-48.5 2.5q-23 0 -39 -3.5t-31 -25.5v500q0 16 -5.5 28.5t-18.5 12.5h-26v26h180v-55q8 17 22 29.5t31.5 21
t36 12.5t35.5 4q30 0 50.5 -3t35 -10.5t24.5 -21t18 -33.5q10 17 25.5 27.5t33 16t35.5 7t33 1.5q81 -1 130 19v-372h109v-129zM345 550l-9 4.5t-10 2.5q-18 0 -36.5 -9t-34 -22.5t-25.5 -29.5t-10 -29v-342q0 -32 9 -48.5t27 -26.5q13 -8 27 -11t26 -3q19 0 36 11v503z
M600 43v469q0 19 -11 24.5t-19 5.5q-11 0 -27 -6.5t-31 -18.5t-26 -29t-11 -38v-346q0 -13 11.5 -25t28 -21t35.5 -14.5t34 -5.5q8 0 16 5z" />
    <glyph glyph-name="FL12CAh" unicode="&#x12ca;" horiz-adv-x="706" 
d="M443 21h31q22 0 37.5 26t21.5 77h25v-124h-265v21h20v304q-24 -9 -37 -8q-16 1 -28 4l-24.5 6t-27 5t-36.5 2q-23 0 -39 -3.5t-31 -25.5v274q0 16 -5.5 28.5t-18.5 12.5h-26v26h180v-55q6 20 20 33t30.5 20.5t33 10.5t27.5 3q48 0 72 -12t38 -43q6 15 16 23.5t23 12.5
t27 5t29 1q36 0 56.5 0.5t33.5 2t21 4.5t19 9v-207q0 -61 -30.5 -99t-88.5 -38q-21 0 -36.5 2t-27 6.5t-21 11t-19.5 16.5v-332zM313 622l-9 4.5t-10 2.5q-15 0 -27.5 -7.5t-21.5 -18t-15.5 -23t-9.5 -22.5v-166q0 -9 6 -19t14.5 -18.5t18.5 -13.5t18 -5q10 0 19 5t17 10
v271zM536 347v251q0 17 -9.5 21t-15.5 4q-29 0 -46 -19.5t-22 -51.5v-154q0 -9 6.5 -18.5t17 -18t24.5 -14t29 -5.5q8 0 16 5z" />
    <glyph glyph-name="FL12CBh" unicode="&#x12cb;" horiz-adv-x="706" 
d="M443 26h50v-26h-230v26h50v284q-24 -9 -37 -8q-16 1 -28 3.5t-24.5 5.5t-27 5t-36.5 2q-23 0 -39 -3.5t-31 -25.5v290q0 16 -5.5 28.5t-18.5 12.5h-26v26h180v-55q6 20 20 33t30.5 20.5t33 10.5t27.5 3q48 0 72 -12t38 -43q6 15 16 23.5t23 12.5t27 5t29 1q29 0 49 0.5
t34.5 2t25 4.5t21.5 9v-222q0 -63 -30.5 -100t-88.5 -37q-22 0 -37 2t-26.5 6t-21 11t-19.5 17v-312zM313 622l-9 4.5t-10 2.5q-15 0 -27.5 -7.5t-21.5 -18t-15.5 -23t-9.5 -22.5v-181q0 -10 6 -20t14.5 -18.5t18.5 -13.5t18 -5q10 0 19 5.5l17 10.5v286zM536 332v263
q0 15 -5.5 21t-12.5 6q-36 0 -53 -19t-22 -51v-170q0 -9 6.5 -18.5t17 -17.5t24.5 -13.5t29 -5.5q8 0 16 5z" />
    <glyph glyph-name="FL12CCh" unicode="&#x12cc;" horiz-adv-x="706" 
d="M443 201q6 6 16 9t18 3q23 0 43 -4t38 -4q21 0 42 11v-109q0 -39 -6.5 -61t-22 -32t-41 -12t-62.5 -2h-176v21h20v300q-11 -5 -20 -6.5t-16 -1.5q-16 0 -28 2.5t-24.5 6t-27 6t-36.5 2.5q-23 0 -39 -3.5t-31 -25.5v278q0 16 -5.5 28.5t-18.5 12.5h-26v26h180v-55
q6 20 20 33t30.5 20.5t33 10.5t27.5 3q48 0 72 -12t38 -43q6 15 16 24t23 13t27 5t29 1h42q27 0 47.5 3t40.5 12v-231q0 -63 -30.5 -90t-88.5 -27q-22 0 -37 2t-26.5 6t-21 11t-19.5 17v-148zM313 622l-9 4.5t-10 2.5q-15 0 -27.5 -7.5t-21.5 -18t-15.5 -23t-9.5 -22.5v-170
q0 -9 6 -19t14.5 -18.5t18.5 -13.5t18 -5q10 0 19 5t17 10v275zM536 343v255q0 17 -8.5 21.5t-14.5 4.5q-27 0 -46 -20t-24 -52v-159q0 -8 6.5 -18t17 -18t24.5 -13.5t29 -5.5q8 0 16 5zM443 185v-148q0 -14 5.5 -21.5t21.5 -7.5q17 0 23.5 4t9.5 22v152q-9 17 -26 17
q-18 0 -34 -18z" />
    <glyph glyph-name="FL12CDh" unicode="&#x12cd;" horiz-adv-x="878" 
d="M838 224h-25q0 20 -7 35.5t-32 15.5h-44v-125q0 -61 -30.5 -99t-88.5 -38q-45 0 -81 14t-57 35l-28.5 -21t-26 -15t-30.5 -9t-43 -3q-29 0 -51 2.5t-43 5.5t-42.5 5.5t-48.5 2.5q-23 0 -39 -3.5t-31 -25.5v481q0 9 -0.5 19.5t-3 19.5t-7.5 15t-13 6h-26v26h180v-55
q8 17 22 29.5t31.5 21t36 12.5t35.5 4q30 0 50.5 -3t35 -10.5t24.5 -21t18 -33.5q10 16 25.5 26t33 15t35.5 6.5t33 1.5q27 0 46.5 0.5t34.5 2.5t26.5 6.5t22.5 12.5v-231h108v-128zM345 550l-9 4.5t-10 2.5q-18 0 -36.5 -9t-34 -22.5t-25.5 -29.5t-10 -29v-342
q0 -32 9 -48.5t27 -26.5q13 -8 27 -11t26 -3q19 0 36 11v503zM600 43v478q0 12 -12 15.5t-17 3.5q-15 0 -31.5 -6t-31 -17.5t-24 -28.5t-9.5 -38v-346q0 -13 11.5 -25t28 -21t35.5 -14.5t34 -5.5q8 0 16 5z" />
    <glyph glyph-name="FL12CEh" unicode="&#x12ce;" horiz-adv-x="710" 
d="M343 26h50v-26h-230v26h50v214q0 13 16 21t35 14.5t35 15.5t16 24q-29 0 -46.5 2.5t-32.5 5.5t-32 5.5t-44 2.5q-23 0 -39 -3.5t-31 -25.5v258q0 9 -0.5 19.5t-2.5 19.5t-7 15t-14 6h-26v26h180v-39q18 28 39.5 39.5t55.5 11.5q30 0 50.5 -2t35 -8t24.5 -16t18 -26
q9 15 20 23.5t23 12.5t25.5 4.5t28.5 0.5q45 0 79 1.5t51 12.5v-210q0 -61 -30.5 -99t-88.5 -38q-44 0 -65 8t-41 28v-16q0 -21 -16 -34.5t-35 -25.5t-35 -24t-16 -30v-194zM315 628q-4 2 -9 5t-10 3q-11 0 -23 -6t-23 -16t-19 -22.5t-11 -25.5v-180q0 -12 6 -21t15 -15
t19.5 -9.5t18.5 -3.5q19 0 36 11v280zM540 344v263q0 12 -8.5 15t-13.5 3q-25 0 -47.5 -19t-25.5 -52v-160q0 -26 24.5 -40.5t54.5 -14.5q8 0 16 5z" />
    <glyph glyph-name="aa1" unicode="&#x12d0;" horiz-adv-x="512" 
d="M40 -21v495q0 44 21.5 76.5t54.5 53.5t71 31.5t71 10.5q25 0 57 0.5t62.5 2t56.5 4.5t38 8v-533q0 -31 -21 -54.5t-52.5 -39.5t-68.5 -24.5t-70 -8.5q-32 0 -66 -1.5t-64.5 -4.5t-54.5 -7t-35 -9zM342 66v514q-4 25 -26.5 36.5t-57.5 11.5q-32 0 -56 -12t-32 -36v-514
q6 -27 32 -36t57 -9q45 0 62 12t21 33z" />
    <glyph glyph-name="aa2" unicode="&#x12d1;" horiz-adv-x="627" 
d="M587 289h-25q0 21 -7 36.5t-32 15.5h-51v-213q0 -31 -21 -54.5t-52.5 -39.5t-68.5 -24.5t-70 -8.5q-32 0 -66 -1.5t-64.5 -4.5t-54.5 -7t-35 -9v495q0 44 21.5 76.5t54.5 53.5t71 31.5t71 10.5q25 0 57 0.5t62.5 2t56.5 4.5t38 8v-243h115v-129zM342 66v514
q-4 25 -26.5 36.5t-57.5 11.5q-32 0 -56 -12t-32 -36v-514q6 -27 32 -36t57 -9q45 0 62 12t21 33z" />
    <glyph glyph-name="aa3" unicode="&#x12d2;" horiz-adv-x="694" 
d="M539 26h31q22 0 37.5 26t21.5 77h25v-129h-265v26h20v306q0 23 -25 33q-27 -31 -70 -42t-86 -11q-78 0 -129 -5.5t-59 -16.5v203q0 44 17 76t44.5 52.5t61 30.5t66.5 10h56q39 0 69.5 3t60.5 11v-238q0 -25 -17 -56q6 -2 13 -2.5t15 -0.5l70 17q27 -2 35 -13.5t8 -33.5
v-323zM285 378v218q-4 25 -15 36.5t-41 11.5q-27 0 -39 -12t-20 -36v-218q5 -27 17.5 -36t40.5 -9q29 0 41 12t16 33z" />
    <glyph glyph-name="aa4" unicode="&#x12d3;" horiz-adv-x="629" 
d="M539 21h50v-21h-230v21h50v310q0 23 -25 33q-27 -31 -70 -42t-86 -11q-78 0 -129 -5.5t-59 -16.5v204q0 44 17 76t44.5 52.5t61 30.5t66.5 10h56q39 0 69.5 3t60.5 11v-239q0 -25 -17 -56q6 -2 13 -2.5t15 -0.5l70 16q27 -1 35 -12.5t8 -33.5v-327zM285 377v219
q-4 25 -15 36.5t-41 11.5q-27 0 -39 -12t-20 -36v-219q5 -27 17.5 -36t40.5 -9q29 0 41 12t16 33z" />
    <glyph glyph-name="aa5" unicode="&#x12d4;" horiz-adv-x="737" 
d="M539 216q6 7 16 10t18 3q18 0 35 -2t34 -2q14 0 27.5 3t27.5 11v-121q0 -39 -6.5 -62.5t-22.5 -36t-41.5 -16t-62.5 -3.5h-175v21h20v310q0 23 -25 33q-27 -31 -70 -42t-86 -11q-78 0 -129 -5.5t-59 -16.5v204q0 44 17 76t44.5 52.5t61 30.5t66.5 10h56q39 0 69.5 3
t60.5 11v-239q0 -25 -17 -56q6 -2 13 -2.5t15 -0.5l70 16q27 -1 35 -12.5t8 -33.5v-132zM285 377v219q-4 25 -15 36.5t-41 11.5q-27 0 -39 -12t-20 -36v-219q5 -27 17.5 -36t40.5 -9q29 0 41 12t16 33zM539 201v-164q0 -14 5.5 -21.5t21.5 -7.5q17 0 23.5 4t9.5 22v168
q-9 16 -26 16t-34 -17z" />
    <glyph glyph-name="aa6" unicode="&#x12d5;" horiz-adv-x="512" 
d="M472 128q0 -31 -21.5 -54.5t-53.5 -40t-69.5 -25t-70.5 -8.5q-32 0 -67 -1t-65.5 -3.5t-53.5 -7t-31 -12.5v390q0 33 12.5 59t33 46t47 33.5t54.5 21.5v92q0 6 -4.5 16t-19.5 10h-26v25h180v-139q29 -7 58 -7q34 0 56.5 10t40.5 21v-426zM342 66v406q-8 48 -75 48
q-32 0 -60.5 -12t-36.5 -36v-406q6 -27 32 -36t57 -9q32 0 55.5 12t27.5 33z" />
    <glyph glyph-name="aa7" unicode="&#x12d6;" horiz-adv-x="577" 
d="M40 26h50v217q0 14 1.5 28t8.5 25t22 17.5t41 6.5v177q0 44 17 74.5t44 49t60.5 26.5t66.5 8q63 0 109 3t77 17v-264q0 -32 -20 -57.5t-49 -43.5t-61.5 -27.5t-56.5 -9.5q-35 0 -66.5 7.5t-56.5 23.5q-5 -11 -6 -23t-1 -24v-231h50v-26h-230v26zM407 339v250
q-4 25 -14.5 36.5t-41.5 11.5q-27 0 -39 -12t-20 -36v-250q5 -27 16.5 -36t41.5 -9q34 0 43.5 12t13.5 33z" />
    <glyph glyph-name="FL12D8h" unicode="&#x12d8;" horiz-adv-x="590" 
d="M370 594v-211h-150v263h-180v-26h26q15 0 19.5 -9.5t4.5 -17.5v-572h-50v-21h230v21h-50v342h150v-342h-50v-21h230v21h-50v625h-180v-26h26q15 0 19.5 -9.5t4.5 -16.5z" />
    <glyph glyph-name="FL12D9h" unicode="&#x12d9;" horiz-adv-x="646" 
d="M606 234h-25q0 21 -7 36t-32 15h-42v-264h50v-21h-230v21h50v342h-150v-342h50v-21h-230v21h50v572q0 8 -4.5 17.5t-19.5 9.5h-26v26h180v-263h150v211q0 7 -4.5 16.5t-19.5 9.5h-26v26h180v-283h106v-129z" />
    <glyph glyph-name="FL12DAh" unicode="&#x12da;" horiz-adv-x="655" 
d="M500 26h31q22 0 37.5 26t21.5 77h25v-129h-265v26h20v337h-150v-342h50v-21h-230v21h50v572q0 8 -4.5 17.5t-19.5 9.5h-26v26h180v-263h150v211q0 7 -4.5 16.5t-19.5 9.5h-26v26h180v-620z" />
    <glyph glyph-name="FL12DBh" unicode="&#x12db;" horiz-adv-x="590" 
d="M370 594v-211h-150v263h-180v-26h26q15 0 19.5 -9.5t4.5 -17.5v-444h-50v-20h230v20h-50v214h150v-342h-50v-21h230v21h-50v625h-180v-26h26q15 0 19.5 -9.5t4.5 -16.5z" />
    <glyph glyph-name="FL12DCh" unicode="&#x12dc;" horiz-adv-x="697" 
d="M500 234q6 6 16 9t18 3q17 0 35 -3t38 -3q13 0 25.5 2t24.5 10v-134q0 -39 -6.5 -62.5t-22 -36t-41 -16t-62.5 -3.5h-175v21h20v342h-150v-342h50v-21h-230v21h50v572q0 8 -4.5 17.5t-19.5 9.5h-26v26h180v-263h150v211q0 7 -4.5 16.5t-19.5 9.5h-26v26h180v-412z
M500 218v-181q0 -14 5.5 -21.5t21.5 -7.5q17 0 23.5 4t9.5 22v185q-9 17 -26 17q-18 0 -34 -18z" />
    <glyph glyph-name="FL12DDh" unicode="&#x12dd;" horiz-adv-x="669" 
d="M40 520v126h259v-263h150v211q0 7 -4.5 16.5t-19.5 9.5h-26v26h180v-625h50v-21h-230v21h50v342h-150v-342h50v-21h-230v21h50v572q0 8 -4.5 20.5t-19.5 12.5h-2q-38 1 -51 -26.5t-13 -79.5h-39z" />
    <glyph glyph-name="FL12DEh" unicode="&#x12de;" horiz-adv-x="590" 
d="M370 594v-211h-150v263h-180v-26h26q15 0 19.5 -9.5t4.5 -17.5v-572h-50v-21h230v21h-50v342h150v-215h-50v-20h230v20h-50v498h-180v-26h26q15 0 19.5 -9.5t4.5 -16.5z" />
    <glyph glyph-name="z8" unicode="&#x12df;" horiz-adv-x="640" 
d="M273 -32v99h97v296h-150v-214h50v-20h-230v20h50v444q0 8 -4.5 17.5t-19.5 9.5h-26v26h180v-263h150v211q0 7 -4.5 16.5t-19.5 9.5h-26v26h180v-579h100v-99h-34q0 9 -3 22.5t-10.5 26t-20.5 21t-32 8.5h-131q-19 0 -31 -8.5t-19 -21t-9.5 -26t-2.5 -22.5h-34z" />
    <glyph glyph-name="zz1" unicode="&#x12e0;" horiz-adv-x="733" 
d="M693 506h-39q0 9 -3 28.5t-9.5 40t-18.5 35.5t-30 15h-21v-604h50v-21h-230v21h50v342h-150v-342h50v-21h-230v21h50v604h-25q-18 0 -29.5 -15t-17.5 -35.5t-8.5 -40t-2.5 -28.5h-39v140h252v-263h150v263h251v-140z" />
    <glyph glyph-name="zz2" unicode="&#x12e1;" horiz-adv-x="733" 
d="M688 235h-25q0 21 -7 36t-32 15h-52v-265h50v-21h-230v21h50v342h-150v-342h50v-21h-230v21h50v604h-25q-18 0 -29.5 -15t-17.5 -35.5t-8.5 -40t-2.5 -28.5h-39v140h252v-263h150v263h251v-140h-39q0 9 -3 28.5t-9.5 40t-18.5 35.5t-30 15h-21v-261h116v-129z" />
    <glyph glyph-name="zz3" unicode="&#x12e2;" horiz-adv-x="733" 
d="M572 21h31q22 0 37.5 26t21.5 77h25v-124h-265v21h20v342h-150v-342h50v-21h-230v21h50v604h-25q-18 0 -29.5 -15t-17.5 -35.5t-8.5 -40t-2.5 -28.5h-39v140h252v-263h150v263h251v-140h-39q0 9 -3 28.5t-9.5 40t-18.5 35.5t-30 15h-21v-604z" />
    <glyph glyph-name="zz4" unicode="&#x12e3;" horiz-adv-x="733" 
d="M693 506h-39q0 9 -3 28.5t-9.5 40t-18.5 35.5t-30 15h-21v-604h50v-21h-230v21h50v342h-150v-221h50v-20h-230v20h50v483h-25q-18 0 -29.5 -15t-17.5 -35.5t-8.5 -40t-2.5 -28.5h-39v140h252v-263h150v263h251v-140z" />
    <glyph glyph-name="zz5" unicode="&#x12e4;" horiz-adv-x="769" 
d="M572 234q6 6 16 9t18 3q19 0 37.5 -4t38.5 -4q11 0 22.5 2t24.5 8v-130q0 -39 -6.5 -62.5t-22 -36t-41 -16t-62.5 -3.5h-175v21h20v342h-150v-342h50v-21h-230v21h50v604h-25q-18 0 -29.5 -15t-17.5 -35.5t-8.5 -40t-2.5 -28.5h-39v140h252v-263h150v263h251v-140h-39
q0 9 -3 28.5t-9.5 40t-18.5 35.5t-30 15h-21v-391zM572 218v-181q0 -14 5.5 -21.5t21.5 -7.5q17 0 23.5 4t9.5 22v185q-9 17 -26 17q-18 0 -34 -18z" />
    <glyph glyph-name="zz6" unicode="&#x12e5;" horiz-adv-x="765" 
d="M40 770h28q0 -9 7.5 -20t21.5 -21t33.5 -16.5t42.5 -6.5h100q21 0 40 6.5t33 16.5t22 21t8 20h30v-85h-135v-39h53v-263h150v263h251v-140h-39q0 9 -3 28.5t-9.5 40t-18.5 35.5t-30 15h-21v-604h50v-21h-230v21h50v342h-150v-342h50v-21h-230v21h50v604h-25
q-18 0 -29.5 -15t-17.5 -35.5t-8.5 -40t-2.5 -28.5h-39v140h102v39h-134v85z" />
    <glyph glyph-name="zz7" unicode="&#x12e6;" horiz-adv-x="733" 
d="M693 506h-39q0 9 -3 28.5t-9.5 40t-18.5 35.5t-30 15h-21v-478h50v-20h-230v20h50v216h-150v-342h50v-21h-230v21h50v604h-25q-18 0 -29.5 -15t-17.5 -35.5t-8.5 -40t-2.5 -28.5h-39v140h252v-263h150v263h251v-140z" />
    <glyph glyph-name="zz8" unicode="&#x12e7;" horiz-adv-x="733" 
d="M346 -32v99h96v296h-150v-221h50v-20h-230v20h50v483h-25q-18 0 -29.5 -15t-17.5 -35.5t-8.5 -40t-2.5 -28.5h-39v140h252v-263h150v263h251v-140h-39q0 9 -3 28.5t-9.5 40t-18.5 35.5t-30 15h-21v-558h101v-99h-34q0 9 -3 22.5t-10.5 26t-20.5 21t-32 8.5h-131
q-19 0 -31 -8.5t-19 -21t-9.5 -26t-2.5 -22.5h-34z" />
    <glyph glyph-name="FL12E8h" unicode="&#x12e8;" horiz-adv-x="455" 
d="M170 363v206q0 41 16 53t45 12q20 0 34.5 -4t19.5 -22v-212q0 -12 -14 -18.5t-33 -10t-38.5 -4t-29.5 -0.5zM415 455v222q-12 -6 -33.5 -10t-47 -6.5t-51 -3.5t-44.5 -1q-45 0 -81.5 -17t-62.5 -44t-40.5 -62t-14.5 -71v-57q0 -35 12 -59t27 -44.5t27 -40.5t12 -47v-193
h-50v-21h230v21h-50v172q0 23 -5.5 46.5t-15 44t-21 36t-23.5 22.5q26 0 65.5 4t76.5 16t63.5 34t26.5 59z" />
    <glyph glyph-name="FL12E9h" unicode="&#x12e9;" horiz-adv-x="455" 
d="M407 274v-129h-25q0 21 -7 36.5t-32 15.5h-95v-176h50v-21h-230v21h50v193q0 27 -12 47t-27 40.5t-27 44.5t-12 59v57q0 36 14.5 70.5t40.5 62t62.5 44t81.5 16.5h44q18 0 37.5 0.5t37.5 2t33 3.5t24 6v-212q0 -37 -26.5 -59t-63.5 -34t-76.5 -16t-65.5 -4
q12 -5 20 -14.5t13.5 -20t8.5 -20t4 -13.5h178zM170 363q11 0 30.5 1t38 5.5t32.5 14.5t14 28v195q-5 18 -19.5 22t-34.5 4q-29 0 -45 -12t-16 -53v-205z" />
    <glyph glyph-name="FL12EAh" unicode="&#x12ea;" 
d="M560 46h-38q0 9 -1 27t-6.5 35t-17.5 30t-34 13h-160v46h-55v-176h50v-21h-230v21h51v193q0 27 -12.5 47t-27 40.5t-27 44.5t-12.5 59v57q0 36 14.5 70.5t40.5 62t62.5 44t81.5 16.5h44q18 0 37.5 0.5t37.5 2t33 3.5t24 6v-212q0 -37 -26.5 -59t-63.5 -34t-76.5 -16
t-65.5 -4q21 -13 39 -47.5t24 -77.5h57v86q29 0 50 4.5t35.5 10.5t24 10.5t15.5 4.5v-161h132v-126zM170 363q11 0 30.5 1.5t38 7t32.5 15t14 25.5v195q-5 18 -19.5 22t-34.5 4q-29 0 -45 -12t-16 -53v-205z" />
    <glyph glyph-name="FL12EBh" unicode="&#x12eb;" horiz-adv-x="481" 
d="M40 -80v140h145q-12 15 -32 46t-39.5 68.5t-33.5 77.5t-14 73v147q0 36 14.5 69t40.5 58.5t62.5 41t81.5 15.5h44q18 0 37.5 0.5t37.5 2t33 3.5t24 6v-213q0 -37 -28.5 -59.5t-68.5 -35t-81.5 -16.5t-67.5 -4v-35q0 -20 14 -54.5t33 -71.5t39.5 -70t33.5 -49
q0 -21 -15 -21h-125q-27 0 -42 -15t-23 -35.5t-10 -40t-2 -28.5h-58zM196 363q11 0 30.5 1t38 5.5t32.5 14.5t14 28v196q-5 18 -19.5 22t-34.5 4q-29 0 -45 -12t-16 -53v-206z" />
    <glyph glyph-name="FL12ECh" unicode="&#x12ec;" horiz-adv-x="606" 
d="M312 272h-80q16 -39 16 -79v-172h50v-21h-230v21h50v193q0 27 -12 47t-27 40.5t-27 44.5t-12 59v57q0 36 14.5 71t40.5 62t62.5 44t81.5 17h44q19 0 38.5 0.5t37.5 2t32.5 4t23.5 6.5v-214q0 -37 -26.5 -59t-63.5 -34t-76.5 -16t-65.5 -4q11 -6 21 -19t19 -30h186
q51 0 93.5 2t63.5 14v-131q0 -34 -6.5 -56t-22 -35t-41 -18.5t-62.5 -5.5q-38 0 -61.5 5.5t-37 18.5t-18.5 35t-5 56v94zM170 363q11 0 30.5 1t38 5.5t32.5 14.5t14 28v196q-5 18 -19.5 22t-34.5 4q-29 0 -45 -12t-16 -53v-206zM409 257v-157q6 -29 28 -29q14 0 22 8.5
t10 20.5v159q-9 16 -27 16q-17 0 -33 -18z" />
    <glyph glyph-name="FL12EDh" unicode="&#x12ed;" horiz-adv-x="510" 
d="M470 279v-185q0 -5 -5.5 -11.5t-13.5 -6.5h-273q-27 0 -42.5 -14t-24 -32.5t-11 -37.5t-2.5 -28h-58v133h138l-22.5 36.5t-31.5 57t-28 64.5t-12 60v158q0 36 14.5 69t40.5 57.5t62.5 39.5t81.5 15q19 0 44 0.5t50 2t47 4t35 7.5v-212q0 -37 -28.5 -59.5t-68.5 -35
t-81.5 -16.5t-67.5 -4v-56q0 -18 12 -46t27.5 -56t31.5 -52t24 -35h101q0 72 -14.5 109.5t-36.5 37.5h-30v36h142zM214 364q11 0 30.5 1t38 5.5t32.5 14.5t14 28v193q-5 18 -19.5 22t-34.5 4q-29 0 -45 -12.5t-16 -53.5v-202z" />
    <glyph glyph-name="FL12EEh" unicode="&#x12ee;" horiz-adv-x="608" 
d="M415 455q0 -37 -26.5 -59t-63.5 -34t-76.5 -16t-65.5 -4q12 -7 23.5 -22.5t21 -36t15 -44t5.5 -46.5v-172h50v-21h-230v21h50v193q0 27 -12 47t-27 40.5t-27 44.5t-12 59v57q0 36 14.5 70.5t40.5 61.5t62.5 43.5t81.5 16.5h44t50 1.5t47 4t35 7.5v-104h153v-123h-43
q0 9 -2 26.5t-10 34.5t-23 29.5t-42 12.5h-33v-88zM170 363q11 0 30.5 1t38 5.5t32.5 14.5t14 28v194q-5 18 -19.5 22t-34.5 4q-29 0 -45 -12.5t-16 -53.5v-203z" />
    <glyph glyph-name="FL12F0h" unicode="&#x12f0;" horiz-adv-x="517" 
d="M477 -12h-58q0 9 -5 27.5t-16.5 37.5t-30 33t-45.5 14h-134q-27 0 -44 -14t-27.5 -33t-14.5 -37.5t-4 -27.5h-58v133h138q-9 11 -24.5 36t-31 56t-27 64t-11.5 60v128q0 36 14.5 69t40.5 58.5t62.5 41t81.5 15.5q19 0 44 0.5t50 2.5t47 5t35 8v-217q0 -37 -28.5 -59.5
t-68.5 -35t-81.5 -16.5t-67.5 -4v-30q0 -19 14 -50t32.5 -61t36 -51.5t24.5 -21.5h157v-131zM214 355q11 0 30.5 2t38 7.5t32.5 15t14 25.5v195q-5 19 -19.5 23t-34.5 4q-29 0 -45 -12.5t-16 -53.5v-206z" />
    <glyph glyph-name="FL12F1h" unicode="&#x12f1;" horiz-adv-x="618" 
d="M477 10h50v-20h-230v20h50v158h-155q-27 0 -45 -14t-29 -33t-15.5 -37.5t-4.5 -27.5h-58v132h138l-19.5 29.5t-25 41.5t-22 49.5t-9.5 53.5v115q0 36 14.5 67.5t40.5 54.5t62.5 36.5t81.5 13.5h44q18 0 37.5 0.5t37.5 2t33 3.5t24 6v-213q0 -37 -28.5 -59.5t-68.5 -35
t-81.5 -16.5t-67.5 -4q0 -21 11.5 -46t26.5 -47t29.5 -37t21.5 -15h7q19 0 41.5 2t43.5 6.5t38.5 10.5t26.5 15v-45h101v-111h-37q0 9 -3 24.5t-10 30.5t-19.5 25.5t-31.5 10.5v-147zM232 355q11 0 30.5 1.5t38 6.5t32.5 15t14 27v195q-5 19 -19.5 23t-34.5 4
q-29 0 -45 -12.5t-16 -53.5v-206z" />
    <glyph glyph-name="FL12F2h" unicode="&#x12f2;" horiz-adv-x="632" 
d="M477 12h31q22 0 37.5 26t21.5 77h25v-128h-265v25h20v156h-148q-27 0 -46 -14t-31 -33t-18 -37.5t-6 -27.5h-58v132h138l-19.5 29.5t-25 41.5t-22 49.5t-9.5 53.5v115q0 36 14.5 67.5t40.5 54.5t62.5 36.5t81.5 13.5h44q18 0 37.5 0.5t37.5 2t33 3.5t24 6v-213
q0 -37 -28.5 -59.5t-68.5 -35t-81.5 -16.5t-67.5 -4q0 -21 11.5 -46t26.5 -47t29.5 -37t21.5 -15h9q19 0 41 2t42 6t37.5 10.5t27.5 15.5v-210zM232 355q11 0 30.5 1.5t38 6.5t32.5 15t14 27v195q-5 19 -19.5 23t-34.5 4q-29 0 -45 -12.5t-16 -53.5v-206z" />
    <glyph glyph-name="FL12F3h" unicode="&#x12f3;" horiz-adv-x="567" 
d="M477 10h50v-20h-230v20h50v158h-155q-27 0 -45 -14t-29 -33t-15.5 -37.5t-4.5 -27.5h-58v132h138l-19.5 29.5t-25 41.5t-22 49.5t-9.5 53.5v115q0 36 14.5 67.5t40.5 54.5t62.5 36.5t81.5 13.5h44q18 0 37.5 0.5t37.5 2t33 3.5t24 6v-213q0 -37 -28.5 -59.5t-68.5 -35
t-81.5 -16.5t-67.5 -4q0 -21 11.5 -46t26.5 -47t29.5 -37t21.5 -15h9q19 0 41 2t42 6t37.5 10.5t27.5 15.5v-212zM232 355q11 0 30.5 1.5t38 6.5t32.5 15t14 27v195q-5 19 -19.5 23t-34.5 4q-29 0 -45 -12.5t-16 -53.5v-206z" />
    <glyph glyph-name="FL12F4h" unicode="&#x12f4;" horiz-adv-x="528" 
d="M488 48q0 -21 -4 -34t-13.5 -20.5t-26 -10.5t-40.5 -3q-47 0 -69 13.5t-22 54.5q0 19 -2 29t-5 15t-7 6t-8 1h-102q-27 0 -44.5 -14t-28 -33t-14.5 -37.5t-4 -27.5h-58v132h138l-22.5 36.5t-31.5 57t-28 64.5t-12 60v128q0 36 14.5 69t40.5 58.5t62.5 41t81.5 15.5h44
q18 0 37.5 0.5t37.5 2t33 3.5t24 6v-213q0 -37 -28.5 -59.5t-68.5 -35t-81.5 -16.5t-67.5 -4v-30q0 -18 11 -45.5t25.5 -54.5t29.5 -50.5t23 -34.5h103q28 0 44.5 -4t25 -12t11 -21.5t2.5 -32.5zM214 355q11 0 30.5 1.5t38 6.5t32.5 15t14 27v195q-5 19 -19.5 23t-34.5 4
q-29 0 -45 -12.5t-16 -53.5v-206zM423 5v89q-4 16 -18 16q-7 0 -16 -4t-11 -12v-88q2 -11 10 -15t16 -4t12.5 3t6.5 15z" />
    <glyph glyph-name="FL12F5h" unicode="&#x12f5;" horiz-adv-x="609" 
d="M569 435h-25q0 20 -7 35.5t-32 15.5h-46v-38q0 -37 -28.5 -59.5t-68.5 -35t-81.5 -16.5t-67.5 -4v-30q0 -18 12 -45.5t27.5 -54.5t31.5 -50.5l24 -34.5h169v-131h-58q0 9 -6.5 27.5t-19 37.5t-32 33t-46.5 14h-125q-27 0 -44.5 -14t-28 -33t-15 -37.5t-4.5 -27.5h-58v132
h138l-22.5 36.5t-31.5 57t-28 64.5t-12 60v128q0 36 14.5 69t40.5 58.5t62.5 41t81.5 15.5h44q18 0 37.5 0.5t37.5 2t33 3.5t24 6v-98h110v-128zM214 355q11 0 30.5 1.5t38 6.5t32.5 15t14 27v195q-5 19 -19.5 23t-34.5 4q-29 0 -45 -12.5t-16 -53.5v-206z" />
    <glyph glyph-name="FL12F6h" unicode="&#x12f6;" horiz-adv-x="538" 
d="M220 7h50v-20h-230v20h50v201q14 -8 35 -8t44.5 5t38.5 12q-11 9 -25.5 24.5t-27.5 36t-22.5 44.5t-9.5 48v107q0 36 14.5 67.5t40.5 54.5t62.5 36.5t81.5 13.5h44q18 0 37.5 0.5t37.5 2t33 3.5t24 6v-213q0 -37 -28.5 -59.5t-68.5 -35t-81.5 -16.5t-67.5 -4
q0 -21 13.5 -43t32.5 -40t38.5 -29.5t31.5 -11.5h130v-111h-52q0 19 -4.5 35.5t-15 28.5t-28 19t-44.5 7h-114q-5 0 -12.5 -5t-7.5 -16v-160zM253 355q11 0 30.5 2t38 8t32.5 15.5t14 24.5v195q-5 19 -19.5 23t-34.5 4q-29 0 -45 -12.5t-16 -53.5v-206z" />
    <glyph glyph-name="d8" unicode="&#x12f7;" horiz-adv-x="617" 
d="M250 -32v99h97v101h-155q-27 0 -45 -14t-29 -33t-15.5 -37.5t-4.5 -27.5h-58v132h138l-19.5 29.5t-25 41.5t-22 49.5t-9.5 53.5v115q0 36 14.5 67.5t40.5 54.5t62.5 36.5t81.5 13.5h44q18 0 37.5 0.5t37.5 2t33 3.5t24 6v-213q0 -37 -28.5 -59.5t-68.5 -35t-81.5 -16.5
t-67.5 -4q0 -21 11.5 -46t26.5 -47t29.5 -37t21.5 -15h9q19 0 41 2t42 6t37.5 10.5t27.5 15.5v-155h100v-99h-34q0 9 -3 22.5t-10.5 26t-20.5 21t-32 8.5h-131q-19 0 -31 -8.5t-19 -21t-9.5 -26t-2.5 -22.5h-34zM232 355q11 0 30.5 2t38 7t32.5 15t14 26v195q-5 19 -19.5 23
t-34.5 4q-29 0 -45 -12.5t-16 -53.5v-206z" />
    <glyph glyph-name="FL12F8h" unicode="&#x12f8;" horiz-adv-x="517" 
d="M477 -13h-58q0 9 -3 27.5t-11.5 37.5t-24.5 33t-43 14h-159q-27 0 -42.5 -14t-24 -33t-11 -37.5t-2.5 -27.5h-58v132h138q-8 11 -24 36.5t-31.5 57t-27 64.5t-11.5 60v128q0 58 36.5 90t99.5 42v51q0 6 -4.5 16t-19.5 10h-26v25h180v-97q32 0 62 2.5t47 8.5v-165
q0 -37 -28.5 -59.5t-68.5 -35t-81.5 -16.5t-67.5 -4v-30q0 -19 14 -50t32.5 -61t36 -52t24.5 -22h157v-131zM214 355q11 0 30.5 1.5t38 6.5t32.5 15t14 27v148q-5 19 -19.5 23t-34.5 4q-29 0 -45 -12.5t-16 -53.5v-159z" />
    <glyph glyph-name="FL12F9h" unicode="&#x12f9;" horiz-adv-x="618" 
d="M477 10h50v-20h-230v20h50v158h-169q-27 0 -42.5 -14t-24 -33t-11 -37.5t-2.5 -27.5h-58v132h138l-19.5 29.5t-25 41.5t-22 49.5t-9.5 53.5v104q0 57 33.5 88t91.5 42v51q0 6 -4.5 16t-19.5 10h-26v25h180v-95q35 0 68.5 2t51.5 9v-166q0 -37 -28.5 -59.5t-68 -35
t-81 -16.5t-68.5 -4q0 -21 11.5 -46t26.5 -47t29.5 -37t21.5 -15h9q19 0 41 2t42 6t37.5 10.5t27.5 15.5v-45h101v-111h-37q0 9 -3 24.5t-10 30.5t-19.5 25.5t-31.5 10.5v-147zM232 355q12 0 31.5 1.5t38 6.5t32 15t13.5 27v149q-5 19 -19.5 23t-34.5 4q-29 0 -45 -12.5
t-16 -53.5v-160z" />
    <glyph glyph-name="FL12FAh" unicode="&#x12fa;" horiz-adv-x="632" 
d="M477 12h31q22 0 37.5 26t21.5 77h25v-128h-265v25h20v156h-169q-27 0 -42.5 -14t-24 -33t-11 -37.5t-2.5 -27.5h-58v132h138l-19.5 29.5t-25 41.5t-22 49.5t-9.5 53.5v87q0 55 32.5 92.5t89.5 52.5v54q0 6 -4.5 16t-19.5 10h-26v25h180v-94q35 0 70 2t53 9v-168
q0 -37 -28.5 -59.5t-68.5 -35t-81.5 -16.5t-67.5 -4q0 -21 11.5 -46t26.5 -47t29.5 -37t21.5 -15h9q19 0 41 2t42 6t37.5 10.5t27.5 15.5v-210zM232 355q11 0 30.5 2t38 7.5t32.5 15t14 25.5v151q-5 19 -19.5 23t-34.5 4q-29 0 -45 -12.5t-16 -53.5v-162z" />
    <glyph glyph-name="FL12FBh" unicode="&#x12fb;" horiz-adv-x="567" 
d="M477 10h50v-20h-230v20h50v158h-169q-27 0 -42.5 -14t-24 -33t-11 -37.5t-2.5 -27.5h-58v132h138l-19.5 29.5t-25 41.5t-22 49.5t-9.5 53.5v101q0 55 31.5 90.5t88.5 50.5v53q0 6 -4.5 16t-19.5 10h-26v26h180v-96q35 0 70.5 2t54.5 9v-176q0 -37 -28.5 -59.5t-68.5 -35
t-81.5 -16.5t-67.5 -4q0 -21 11.5 -46t26.5 -47t29.5 -37t21.5 -15h9q19 0 41 2t42 6t37.5 10.5t27.5 15.5v-212zM232 355q11 0 30.5 2t38 7t32.5 15t14 26v159q-5 19 -19.5 23t-34.5 4q-29 0 -45 -12.5t-16 -53.5v-170z" />
    <glyph glyph-name="FL12FCh" unicode="&#x12fc;" horiz-adv-x="528" 
d="M488 48q0 -21 -4 -34t-13.5 -20.5t-26 -10.5t-40.5 -3q-47 0 -66 13.5t-19 54.5q0 19 -2 29t-5 15t-7 6t-8 1h-119q-27 0 -42.5 -14t-24 -33t-11 -37.5t-2.5 -27.5h-58v132h138l-22.5 36.5t-31.5 57t-28 64.5t-12 60v117q0 55 33 90.5t90 49.5v52q0 6 -4.5 16t-19.5 10
h-26v25h180v-94q35 0 69.5 2t52.5 9v-166q0 -37 -28.5 -59.5t-68.5 -35t-81.5 -16.5t-67.5 -4v-30q0 -19 12 -46t28 -54t32 -50t23 -35h97q28 0 44.5 -4t25 -12t11 -21.5t2.5 -32.5zM214 355q8 0 19.5 -1t23.5 -1q13 0 25.5 3t23.5 11q10 7 16.5 15.5t6.5 22.5v149
q-5 19 -19.5 23t-34.5 4q-29 0 -45 -14t-16 -52v-160zM423 5v89q-4 16 -18 16q-7 0 -13 -4t-8 -12v-88q3 -19 20 -19q8 0 12.5 3t6.5 15z" />
    <glyph glyph-name="FL12FDh" unicode="&#x12fd;" horiz-adv-x="609" 
d="M569 398h-25q0 20 -7 35.5t-32 15.5h-46v-16q0 -37 -28.5 -59.5t-68.5 -35t-81.5 -17t-67.5 -4.5v-30q0 -18 12 -42.5t27.5 -49t31.5 -46l24 -31.5h169v-131h-58q0 9 -3 27.5t-11.5 37.5t-24.5 33t-43 14h-159q-27 0 -42.5 -14t-24 -33t-11 -37.5t-2.5 -27.5h-58v132h138
l-22.5 34t-31.5 51.5t-28 59t-12 57.5v106q0 29 9 56t26 50t41.5 41t54.5 28v48q0 6 -4.5 16t-19.5 10h-26v25h180v-89q33 0 65 2.5t49 8.5v-97h110v-128zM214 340q11 0 30.5 1.5t38 6.5t32.5 14.5t14 26.5v174q-5 19 -19.5 23t-34.5 4q-29 0 -45 -12.5t-16 -53.5v-184z" />
    <glyph glyph-name="FL12FEh" unicode="&#x12fe;" horiz-adv-x="538" 
d="M220 7h50v-20h-230v20h50v180q14 -8 35 -8t44.5 5t38.5 13q-11 8 -25.5 23.5t-28 36t-22.5 44.5t-9 48v107q0 54 31.5 90.5t88.5 50.5v53q0 6 -4.5 16t-19.5 10h-26v25h180v-94q35 0 70.5 2t54.5 9v-191q0 -36 -28.5 -58.5t-68.5 -35t-81.5 -17t-67.5 -4.5
q0 -21 13.5 -43t32.5 -40t38.5 -29.5t31.5 -11.5h130v-111h-42q0 39 -21.5 65t-75.5 26h-119q-5 0 -12.5 -5.5t-7.5 -16.5v-139zM253 335q11 0 30.5 2t38 7t32.5 15t14 25v174q-5 19 -19.5 23t-34.5 4q-29 0 -45 -12.5t-16 -53.5v-184z" />
    <glyph glyph-name="FL12FFh" unicode="&#x12ff;" horiz-adv-x="567" 
d="M477 10h50v-20h-230v20h50v158h-169q-27 0 -42.5 -14t-24 -33t-11 -37.5t-2.5 -27.5h-58v132h138l-19.5 29.5t-25 41.5t-22 49.5t-9.5 53.5v101q0 55 31.5 90.5t88.5 50.5v53q0 6 -4.5 16t-19.5 10h-26v26h180v-96q35 0 70.5 2t54.5 9v-176q0 -37 -28.5 -59.5t-68.5 -35
t-81.5 -16.5t-67.5 -4q0 -21 11.5 -46t26.5 -47t29.5 -37t21.5 -15h9q19 0 41 2t42 6t37.5 10.5t27.5 15.5v-212zM232 355q11 0 30.5 1.5t38 6.5t32.5 15t14 27v159q-5 19 -19.5 23t-34.5 4q-29 0 -45 -12.5t-16 -53.5v-170z" />
    <glyph glyph-name="FL1300h" unicode="&#x1300;" horiz-adv-x="517" 
d="M59 758h65q0 -9 2 -24.5t9 -30.5t20.5 -25.5t36.5 -10.5h152q21 0 34.5 10.5t21 25.5t10 30.5t2.5 24.5h65v-111h-139v-55q35 0 69 2t52 10v-167q0 -37 -28.5 -59.5t-68.5 -35t-81.5 -17t-67.5 -4.5v-30q0 -18 14 -49t32.5 -61t36 -52t24.5 -22h157v-132h-58q0 9 -3 28
t-11.5 38t-24.5 33t-43 14h-159q-27 0 -42.5 -14t-24 -33t-11 -38t-2.5 -28h-58v133h138l-22.5 36t-31.5 56.5t-28 64.5t-12 60v128q0 57 33 89t91 43v62h-149v111zM214 344q11 0 30.5 1t38 6t32.5 15t14 27v151q-5 19 -19.5 23t-34.5 4q-29 0 -45 -12.5t-16 -53.5v-161z
" />
    <glyph glyph-name="FL1301h" unicode="&#x1301;" horiz-adv-x="618" 
d="M79 757h65q0 -9 2 -24.5t9 -30.5t20.5 -25.5t36.5 -10.5h152q21 0 34.5 10.5t21 25.5t10 30.5t2.5 24.5h65v-111h-139v-53q34 0 67.5 2.5t51.5 9.5v-166q0 -37 -28.5 -59.5t-68.5 -35t-81.5 -17t-67.5 -4.5q0 -20 11.5 -45t26.5 -47t29.5 -37t21.5 -15h9q19 0 41 1.5
t42 5.5t37.5 10.5t27.5 16.5v-45h101v-111h-37q0 9 -3 24t-10 30t-19.5 25.5t-31.5 10.5v-146h50v-21h-230v21h50v158h-169q-27 0 -42.5 -14t-24 -33t-11 -38t-2.5 -28h-58v133h138l-19.5 29.5t-25 41.5t-22 49t-9.5 53v116q0 57 33 84t93 36v58h-149v111zM232 346
q11 0 30.5 1.5t38 6.5t32.5 15t14 27v149q-5 19 -19.5 23t-34.5 4q-29 0 -45 -12.5t-16 -53.5v-160z" />
    <glyph glyph-name="FL1302h" unicode="&#x1302;" horiz-adv-x="632" 
d="M78 757h65q0 -9 2 -24.5t9 -30.5t20.5 -25.5t36.5 -10.5h152q21 0 34.5 10.5t21 25.5t10 30.5t2.5 24.5h65v-111h-139v-54q35 0 68.5 2t51.5 10v-165q0 -37 -28.5 -59.5t-68.5 -35t-81.5 -17t-67.5 -4.5q0 -20 11.5 -45t26.5 -47t29.5 -37t21.5 -15h9q19 0 41 1.5t42 5.5
t37.5 10.5t27.5 16.5v-210h31q22 0 37.5 26t21.5 77h25v-129h-265v26h20v156h-169q-27 0 -42.5 -14t-24 -33t-11 -38t-2.5 -28h-58v133h138l-19.5 29.5t-25 41.5t-22 49t-9.5 53v116q0 57 33.5 84t91.5 35v59h-149v111zM232 346q11 0 30.5 1.5t38 7t32.5 15t14 26.5v148
q-5 19 -19.5 23t-34.5 4q-29 0 -45 -12.5t-16 -53.5v-159z" />
    <glyph glyph-name="FL1303h" unicode="&#x1303;" horiz-adv-x="567" 
d="M78 753h65q0 -9 2 -24.5t9 -30.5t20.5 -25.5t36.5 -10.5h152q21 0 34.5 10.5t21 25.5t10 30.5t2.5 24.5h65v-111h-139v-50q35 0 68.5 2t51.5 10v-166q0 -37 -28.5 -59.5t-68.5 -35t-81.5 -17t-67.5 -4.5q0 -20 11.5 -45t26.5 -47t29.5 -37t21.5 -15h9q19 0 41 1.5t42 5.5
t37.5 10.5t27.5 16.5v-212h50v-21h-230v21h50v158h-169q-27 0 -42.5 -14t-24 -33t-11 -38t-2.5 -28h-58v133h138l-19.5 29.5t-25 41.5t-22 49t-9.5 53v116q0 57 33.5 84t91.5 36v55h-149v111zM232 345q11 0 30.5 1t38 6t32.5 14.5t14 27.5v150q-5 19 -19.5 23t-34.5 4
q-29 0 -45 -12.5t-16 -53.5v-160z" />
    <glyph glyph-name="FL1304h" unicode="&#x1304;" horiz-adv-x="528" 
d="M60 755h65q0 -9 2 -24.5t9 -30.5t20.5 -25.5t36.5 -10.5h152q21 0 34.5 10.5t21 25.5t10 30.5t2.5 24.5h65v-111h-139v-52q35 0 68.5 2t51.5 10v-166q0 -37 -28.5 -59.5t-68.5 -35t-81.5 -17t-67.5 -4.5v-29q0 -19 11.5 -46t27.5 -54t32 -50.5l24 -34.5h97q28 0 44.5 -4
t25 -12t11 -21.5t2.5 -32.5q0 -21 -4 -34.5t-13.5 -21t-25.5 -10t-41 -2.5q-47 0 -66 13t-19 55q0 19 -2 29t-5 15t-7 6t-8 1h-119q-27 0 -42.5 -14t-24 -33t-11 -38t-2.5 -28h-58v133h138l-22.5 36t-31.5 56.5t-28 65t-12 60.5v127q0 57 33.5 88.5t91.5 42.5v59h-149v111z
M214 345q10 0 29.5 1.5t38.5 7t33 15t14 25.5v150q-5 19 -19.5 23t-34.5 4q-29 0 -45 -12.5t-16 -53.5v-160zM423 -5v88q-5 17 -18 17q-7 0 -13 -4t-8 -13v-87q3 -20 20 -20q8 0 12.5 3t6.5 16z" />
    <glyph glyph-name="FL1305h" unicode="&#x1305;" horiz-adv-x="609" 
d="M69 755h65q0 -9 2 -24.5t9 -30.5t20.5 -25.5t36.5 -10.5h152q21 0 34.5 10.5t21 25.5t10 30.5t2.5 24.5h65v-111h-139v-51q32 0 63 2.5t48 9.5v-97h110v-129h-25q0 21 -7 36.5t-32 15.5h-46v-22q0 -37 -28.5 -59.5t-68.5 -35t-81.5 -16.5t-67.5 -4v-30q0 -19 12 -41.5
t27.5 -44.5t31.5 -40.5t24 -29.5h169v-132h-58q0 9 -3 28t-11.5 38t-24.5 33t-43 14h-159q-27 0 -42.5 -14t-24 -33t-11 -38t-2.5 -28h-58v133h138q-7 11 -22.5 32t-31.5 47t-28 54.5t-12 55.5v127q0 60 35.5 102t98.5 58v59h-149v111zM214 316q11 0 30.5 1t38 5.5
t32.5 14.5t14 29v179q-5 19 -19.5 23t-34.5 4q-29 0 -45 -12.5t-16 -53.5v-190z" />
    <glyph glyph-name="FL1306h" unicode="&#x1306;" horiz-adv-x="560" 
d="M102 753h65q0 -9 2 -24.5t9 -30.5t20.5 -25.5t36.5 -10.5h152q21 0 34.5 10.5t21 25.5t10 30.5t2.5 24.5h65v-111h-139v-50q34 0 67 2.5t50 9.5v-178q0 -36 -28.5 -58.5t-68.5 -35t-81.5 -17t-67.5 -4.5q0 -21 13.5 -43t32.5 -40t38.5 -29.5t31.5 -11.5h130v-111h-42
q0 39 -21.5 65t-75.5 26h-119q-5 0 -12.5 -5.5t-7.5 -16.5v-148h50v-21h-230v21h50v189q14 -8 35 -8t44.5 5t38.5 13q-11 8 -25.5 23.5t-28 36t-22.5 44.5t-9 48v107q0 57 34 88.5t94 42.5v56h-149v111zM253 334q11 0 30.5 1t38 5.5t32.5 14.5t14 28v161q-5 19 -19.5 23
t-34.5 4q-29 0 -45 -12.5t-16 -53.5v-171z" />
    <glyph glyph-name="c157" unicode="&#x1307;" horiz-adv-x="615" 
d="M248 -32v99h99v91h-169q-27 0 -42.5 -14t-24 -33t-11 -38t-2.5 -28h-58v133h138l-19.5 29.5t-25 41.5t-22 49t-9.5 53v116q0 57 33.5 84t91.5 36v55h-149v111h65q0 -9 2 -24.5t9 -30.5t20.5 -25.5t36.5 -10.5h152q21 0 34.5 10.5t21 25.5t10 30.5t2.5 24.5h65v-111h-139
v-50q35 0 68.5 2t51.5 10v-166q0 -37 -28.5 -59.5t-68.5 -35t-81.5 -17t-67.5 -4.5q0 -20 11.5 -45t26.5 -47t29.5 -37t21.5 -15h9q19 0 41 1.5t42 5.5t37.5 10.5t27.5 16.5v-145h98v-99h-34q0 9 -3 22.5t-10.5 26t-20.5 21t-32 8.5h-131q-19 0 -31 -8.5t-19 -21t-9.5 -26
t-2.5 -22.5h-34zM232 345q11 0 30.5 1t38 5.5t32.5 14.5t14 28v150q-5 19 -19.5 23t-34.5 4q-29 0 -45 -12.5t-16 -53.5v-160z" />
    <glyph glyph-name="FL1308h" unicode="&#x1308;" horiz-adv-x="508" 
d="M40 484v140h244q18 0 38.5 0.5t39.5 3t34 8t22 15.5v-630h50v-21h-230v21h50v552q-3 18 -11 24.5t-15 6.5h-86q-27 0 -43.5 -15t-26 -35.5t-13 -40.5t-3.5 -29h-50z" />
    <glyph glyph-name="FL1309h" unicode="&#x1309;" horiz-adv-x="574" 
d="M534 272h-25q0 21 -7 36t-32 15h-52v-302h50v-21h-230v21h50v555q-3 18 -11 24.5t-15 6.5h-86q-27 0 -43.5 -15t-26 -35.5t-13 -40.5t-3.5 -29h-50v140h255q5 0 22.5 0.5t37.5 3t38 6.5t25 12v-248h116v-129z" />
    <glyph glyph-name="FL130Ah" unicode="&#x130a;" horiz-adv-x="573" 
d="M418 21h31q22 0 37.5 26t21.5 77h25v-124h-265v21h20v553q-3 18 -11 24.5t-15 6.5h-86q-27 0 -43.5 -15t-26 -35.5t-13 -40.5t-3.5 -29h-50v140h248q6 0 24 0.5t39.5 3.5t40.5 8.5t26 14.5v-631z" />
    <glyph glyph-name="FL130Bh" unicode="&#x130b;" horiz-adv-x="465" 
d="M157 95q21 0 45 5.5t44.5 15.5t34.5 24t14 32v405q-3 19 -11 25t-15 6h-86q-27 0 -43.5 -15t-26 -35.5t-13 -40.5t-3.5 -29h-50v140h248q5 0 22 0.5t37.5 4t40 10.5t30.5 21v-481q0 -29 -23.5 -47t-60 -30t-81 -18.5t-86.5 -11.5q-24 -1 -44.5 -14.5t-35 -33.5t-23 -43
t-8.5 -43h-23v153h117z" />
    <glyph glyph-name="FL130Ch" unicode="&#x130c;" horiz-adv-x="615" 
d="M418 272q6 6 16 9t18 3l78 -9q11 0 21.5 2t23.5 8v-148q0 -39 -6.5 -65.5t-22 -42.5t-41 -22.5t-62.5 -6.5h-175v21h20v555q-3 18 -11.5 24.5t-15.5 6.5h-85q-27 0 -43.5 -15t-26 -35.5t-13 -40.5t-3.5 -29h-50v140h248q6 0 23 0.5t37.5 3.5t40 9.5t29.5 17.5v-386z
M418 256v-219q0 -14 5.5 -21.5t21.5 -7.5q17 0 23.5 4t9.5 22v223q-9 17 -26 17q-18 0 -34 -18z" />
    <glyph glyph-name="FL130Dh" unicode="&#x130d;" horiz-adv-x="565" 
d="M277 512q0 -41 -5.5 -65t-19 -36.5t-38 -16t-61.5 -3.5q-43 0 -69.5 -1.5t-43.5 -11.5v132q0 37 4.5 59.5t18 35t37 16.5t62.5 4h184q5 0 21.5 0.5t36.5 3.5t39.5 9t31.5 18v-635h50v-21h-230v21h50v552q-3 18 -11.5 24.5t-15.5 6.5h-54q8 -13 10.5 -35t2.5 -57zM188 425
v173q-9 17 -26 17q-8 0 -21 -5.5t-13 -17.5v-164q0 -14 6 -21t21 -7q14 0 23.5 4.5t9.5 20.5z" />
    <glyph glyph-name="FL130Eh" unicode="&#x130e;" horiz-adv-x="520" 
d="M40 417v140h141v100h112v-100h50q5 0 16 0.5t23.5 4t25.5 10.5t22 19v-570h50v-21h-230v21h50v485q-3 18 -11 24.5t-15 6.5h-101q-27 0 -44.5 -15t-28 -35.5t-14.5 -40.5t-4 -29h-42z" />
    <glyph glyph-name="gx1" unicode="&#x1310;" horiz-adv-x="708" 
d="M462 426h-44v-405h50v-21h-230v21h50v556q-3 19 -11 25t-15 6h-86q-27 0 -43.5 -15t-26 -35.5t-13 -40.5t-3.5 -29h-50v140h248q5 0 21.5 0.5t36.5 2.5t40 7t32 14v-209h149q30 0 60 2t41 13v-106q0 -32 -4.5 -52t-15.5 -30.5t-31 -14t-50 -3.5q-32 0 -52.5 3t-32 11.5
t-16 23.5t-4.5 40v96zM541 284q3 -11 10 -15t16 -4q8 0 14.5 3.5t8.5 14.5v137q-8 14 -23 14q-6 0 -12.5 -4.5l-13.5 -9.5v-136z" />
    <glyph glyph-name="gx2" unicode="&#x1312;" horiz-adv-x="769" 
d="M40 481v140h248q5 0 20 0.5t34.5 3.5t40 9t35.5 18v-234h72v61q50 0 74.5 6t40.5 18v-147h124v-99h-30q0 9 -3 22.5t-11.5 26t-23.5 21.5t-38 9h-38q-29 0 -58 -3t-37 -11v76h-72v-377h50v-21h-230v21h50v549q-3 18 -11 24t-15 6h-86q-27 0 -43.5 -15t-26 -35t-13 -40
t-3.5 -29h-50z" />
    <glyph glyph-name="gx3" unicode="&#x1313;" horiz-adv-x="602" 
d="M332 21h50v339q-26 0 -43.5 -8t-32.5 -17.5t-30.5 -17.5t-39.5 -8q-49 0 -75.5 -22t-27.5 -62h-23v103h109q41 0 55 20t14 57v189q-3 19 -11 25t-15 6h-86q-27 0 -43.5 -15t-26 -35.5t-13 -40t-3.5 -28.5h-50v140h248q5 0 22 0.5t37 2t40 5.5t31 11v-273q33 0 56.5 5.5
t37.5 20.5v-397h50v-21h-230v21z" />
    <glyph glyph-name="gx4" unicode="&#x1314;" horiz-adv-x="620" 
d="M40 -68v140h253v507q-3 19 -11.5 25t-15.5 6h-85q-27 0 -43.5 -15t-26 -35.5t-13 -40.5t-3.5 -29h-50v140h248q5 0 22 0.5t37.5 2.5t40 6.5t30.5 13.5v-330q6 7 16 10t18 3q22 0 40 -4t38 -4q22 0 45 8v-148q0 -39 -6.5 -65.5t-22 -42.5t-41 -22.5t-62.5 -6.5h-274
q-27 0 -44.5 -15t-28 -35t-14.5 -40t-4 -29h-43zM423 308v-219q0 -15 5.5 -22t21.5 -7q17 0 23.5 4t9.5 21v224q-9 16 -26 16t-34 -17z" />
    <glyph glyph-name="gx5" unicode="&#x1315;" horiz-adv-x="777" 
d="M40 486v140h248q5 0 21.5 0.5t36.5 2.5t40 7t32 14v-265h66v123q50 0 74.5 6t40.5 17v-146h138v-108h-35q0 9 -3.5 24t-12.5 29.5t-25.5 24.5t-43.5 10h-199v-344h50v-21h-230v21h50v554q-3 18 -11 24.5t-15 6.5h-86q-27 0 -43.5 -15t-26 -35.5t-13 -40.5t-3.5 -29h-50z
" />
    <glyph glyph-name="gh1" unicode="&#x1318;" horiz-adv-x="515" 
d="M47 440v140h249q5 0 22.5 0.5t38 2.5t40 6t28.5 11v-579h50v-21h-230v21h51v507q-3 19 -11.5 25t-15.5 6h-86q-27 0 -43.5 -15t-26 -35t-13 -40t-3.5 -29h-50zM40 743v-118h405v118h-44q0 -9 -3.5 -25.5t-13 -32.5t-26 -27.5t-43.5 -11.5h-144q-27 0 -43.5 11.5t-26 27.5
t-13 32.5t-3.5 25.5h-45z" />
    <glyph glyph-name="gh2" unicode="&#x1319;" horiz-adv-x="579" 
d="M539 237h-25q0 21 -7 36t-32 15h-52v-267h50v-21h-230v21h51v507q-3 19 -11.5 25t-15.5 6h-86q-27 0 -43.5 -15t-26 -35t-13 -40t-3.5 -29h-50v140h250q5 0 20.5 0.5t35 2.5t39 5.5t33.5 10.5v-233h116v-129zM40 744v-118h405v118h-44q0 -9 -3.5 -25.5t-13 -32.5
t-26 -27.5t-43.5 -11.5h-144q-27 0 -43.5 11.5t-26 27.5t-13 32.5t-3.5 25.5h-45z" />
    <glyph glyph-name="gh3" unicode="&#x131a;" horiz-adv-x="579" 
d="M424 21h31q22 0 37.5 26t21.5 77h25v-124h-265v21h21v507q-3 19 -11.5 25t-15.5 6h-86q-27 0 -43.5 -15t-26 -35t-13 -40t-3.5 -29h-50v140h249q5 0 22.5 0.5t38 2.5t39.5 5.5t28 10.5zM40 744v-118h405v118h-44q0 -9 -3.5 -25.5t-13 -32.5t-26 -27.5t-43.5 -11.5h-144
q-27 0 -43.5 11.5t-26 27.5t-13 32.5t-3.5 25.5h-45z" />
    <glyph glyph-name="gh4" unicode="&#x131b;" horiz-adv-x="485" 
d="M158 95q21 0 45 5.5t45 15.5t35 24t14 32v356q-3 19 -11.5 25t-15.5 6h-86q-27 0 -43.5 -15t-26 -35t-13 -40t-3.5 -29h-50v140h245q5 0 23 0.5t39 3t41 6t30 9.5v-416q0 -29 -23.5 -47t-60 -30t-81 -18.5t-86.5 -11.5q-24 -1 -44.5 -14.5t-35 -33.5t-23 -43t-8.5 -43
h-23v153h117zM40 744v-118h405v118h-44q0 -9 -3.5 -25.5t-13 -32.5t-26 -27.5t-43.5 -11.5h-144q-27 0 -43.5 11.5t-26 27.5t-13 32.5t-3.5 25.5h-45z" />
    <glyph glyph-name="gh5" unicode="&#x131c;" horiz-adv-x="622" 
d="M425 272q6 6 16 9t18 3l76 -6q11 0 23 1.5t24 6.5v-149q0 -39 -6.5 -65.5t-22 -42.5t-41 -22.5t-62.5 -6.5h-175v21h20v507q-3 19 -11.5 25t-15.5 6h-85q-27 0 -43.5 -15t-26 -35t-13 -40t-3.5 -29h-50v140h250q5 0 21.5 0.5t36 2.5t39 6.5t31.5 13.5v-331zM425 256v-219
q0 -14 5.5 -21.5t21.5 -7.5q17 0 23.5 4t9.5 22v223q-9 17 -26 17q-18 0 -34 -18zM40 744v-118h405v118h-44q0 -9 -3.5 -25.5t-13 -32.5t-26 -27.5t-43.5 -11.5h-144q-27 0 -43.5 11.5t-26 27.5t-13 32.5t-3.5 25.5h-45z" />
    <glyph glyph-name="gh6" unicode="&#x131d;" horiz-adv-x="565" 
d="M277 468q0 -42 -5.5 -66t-19 -36t-38 -15.5t-61.5 -3.5h-42t-31 -1t-22.5 -3.5t-17.5 -6.5v130q0 34 4.5 56t18 35t37 18.5t62.5 5.5h191q5 0 20.5 0.5t34 2.5t37 6.5t30.5 12.5v-582h50v-21h-230v21h50v507q-3 19 -11.5 25t-15.5 6h-54q8 -12 10.5 -34t2.5 -57zM188 381
v173q-9 17 -26 17q-8 0 -21 -6t-13 -17v-164q0 -14 6 -21.5t21 -7.5q14 0 23.5 4.5t9.5 21.5zM60 744v-118h405v118h-44q0 -9 -3.5 -25.5t-13 -32.5t-26 -27.5t-43.5 -11.5h-144q-27 0 -43.5 11.5t-26 27.5t-13 32.5t-3.5 25.5h-45z" />
    <glyph glyph-name="gh7" unicode="&#x131e;" horiz-adv-x="521" 
d="M41 359v141h141v99h112v-99h47q5 0 17 0.5t25.5 3t26.5 8t21 16.5v-507h50v-21h-229v21h50v427q-3 19 -11.5 25t-15.5 6h-101q-27 0 -44.5 -15t-28 -35.5t-14.5 -40.5t-4 -29h-42zM40 744v-118h405v118h-44q0 -9 -3.5 -25.5t-13 -32.5t-26 -27.5t-43.5 -11.5h-144
q-27 0 -43.5 11.5t-26 27.5t-13 32.5t-3.5 25.5h-45z" />
    <glyph glyph-name="FL1320h" unicode="&#x1320;" horiz-adv-x="870" 
d="M347 21h28v447q-10 18 -31 23.5t-44 5.5q-38 0 -56.5 -12t-23.5 -45v-419h50v-21h-230v21h50v267q0 70 19 114t50 69t70 34t80 9q18 0 47 0.5t59 2t55.5 4.5t34.5 8v-42q8 7 16 12t20 8t29.5 4t45.5 1q42 0 69 0.5t44.5 3.5t28.5 8.5t22 15.5v-519h50v-21h-230v21h50v421
q-5 25 -22.5 35t-48.5 10q-10 0 -22.5 -1.5t-23.5 -5t-19 -10t-9 -16.5v-433h28v-21h-186v21z" />
    <glyph glyph-name="FL1321h" unicode="&#x1321;" horiz-adv-x="930" 
d="M890 183h-25q0 21 -7 36.5t-32 15.5h-46v-214h50v-21h-230v21h50v424q-7 27 -23.5 36t-47.5 9q-10 0 -22 -2.5t-23 -7.5t-19 -13t-10 -19v-427h28v-21h-186v21h28v441q-11 18 -31.5 26.5t-43.5 8.5q-38 0 -55 -12.5t-25 -44.5v-419h50v-21h-230v21h50v267q0 70 19 114
t50 69t70 34t80 9h58q22 0 44 1t40.5 2.5t32.5 4.5t21 8v-49l16 13.5t20 11t29.5 7t45.5 2.5h69q21 0 35.5 1t25 2.5t18.5 4.5t16 8v-219h110v-129z" />
    <glyph glyph-name="FL1322h" unicode="&#x1322;" horiz-adv-x="935" 
d="M780 26h31q22 0 37.5 26t21.5 77h25v-129h-265v26h20v420q-5 28 -22.5 36.5t-48.5 8.5q-9 0 -21.5 -2.5t-24 -7.5t-19.5 -13t-9 -19v-428h28v-21h-186v21h28v444q-10 19 -31 25.5t-44 6.5q-38 0 -56 -12t-24 -45v-419h50v-21h-230v21h50v267q0 70 19 114t50 69t70 34
t80 9h54q44 0 84.5 3.5t57.5 12.5v-48l16 13.5t20 11t29.5 7t45.5 2.5q42 0 68.5 0.5t44 2t28.5 4t23 7.5v-504z" />
    <glyph glyph-name="FL1323h" unicode="&#x1323;" horiz-adv-x="870" 
d="M347 259h28v315q-11 19 -31.5 26t-43.5 7q-38 0 -56.5 -13t-23.5 -45v-290h50v-21h-230v21h50v139q0 69 19 113t50 69t70 34t80 9q24 0 54 0.5t58.5 2t51.5 5t32 10.5v-46l16 13.5t20 11t29.5 7t45.5 2.5h67q26 0 43 1.5t28.5 5t25.5 9.5v-624h50v-21h-230v21h50v538
q-5 27 -22.5 36.5t-48.5 9.5q-10 0 -22 -2.5t-23 -8t-19 -13.5t-10 -19v-303h28v-21h-186v21z" />
    <glyph glyph-name="FL1324h" unicode="&#x1324;" horiz-adv-x="977" 
d="M780 234q6 6 16 9t18 3q22 0 39.5 -2.5t35.5 -2.5q11 0 22.5 1.5t25.5 6.5v-131q0 -39 -6.5 -62.5t-22 -36t-41 -16t-62.5 -3.5h-175v21h20v427q-4 28 -22 36.5t-49 8.5q-10 0 -22 -2.5t-22.5 -7.5t-18.5 -13t-11 -19v-430h28v-21h-186v21h28v447q-11 17 -31.5 23
t-43.5 6q-38 0 -56 -12.5t-24 -44.5v-419h50v-21h-230v21h50v267q0 70 19 114t50 69t70 34t80 9q22 0 51.5 0.5t58 2t52 5.5t34.5 11v-49l16 13.5t20 11t29.5 7t45.5 2.5h67q20 0 33.5 0.5t24 2.5t19.5 4.5t20 7.5v-299zM780 218v-181q0 -14 5.5 -21.5t21.5 -7.5
q17 0 23.5 4t9.5 22v185q-9 17 -26 17q-18 0 -34 -18z" />
    <glyph glyph-name="FL1325h" unicode="&#x1325;" horiz-adv-x="802" 
d="M437 457q0 -19 11 -32t24 -25t24 -25.5t11 -32.5v-321h49v-21h-230v21h52v324q0 18 -11 30.5t-24.5 24.5t-24.5 25t-11 33v124q-5 19 -12 26t-30 7q-29 0 -44 -15t-20 -47v-233h33v-20h-194v20h31v123q0 46 16.5 81t44.5 59t64.5 36t77.5 12q43 0 72 0.5t47.5 2t28.5 4
t15 7.5v-51q17 15 52 24.5t73 9.5q42 0 70 0.5t46.5 2.5t29.5 6.5t18 12.5v-329h36v-20h-196v20h30v237q-3 17 -13.5 26.5t-24.5 14t-30.5 5.5t-32.5 1q-20 0 -36.5 -10.5t-21.5 -33.5v-104z" />
    <glyph glyph-name="FL1326h" unicode="&#x1326;" horiz-adv-x="861" 
d="M338 248h28v320q-9 17 -30.5 23t-44.5 6q-38 0 -52 -12.5t-19 -44.5v-519h50v-21h-230v21h50v367q0 70 18 114t47 69t67 34t78 9q22 0 52.5 1t59 3.5t52 6.5t32.5 11v-48l16 13.5t20 11t29.5 7t45.5 2.5q42 0 67.5 0.5t42 2.5t28 7t26.5 14v-398h50v-20h-230v20h50v304
q-6 28 -23 36.5t-48 8.5q-10 0 -22 -2.5t-22.5 -7.5t-18.5 -13t-11 -19v-307h28v-20h-186v20z" />
    <glyph glyph-name="td8" unicode="&#x1327;" horiz-adv-x="942" 
d="M527 -32v99h123v492q-5 27 -22.5 36.5t-48.5 9.5q-10 0 -22 -2.5t-23 -8t-19 -13.5t-10 -19v-306h28v-20h-186v20h28v316q-11 19 -31.5 26t-43.5 7q-38 0 -56.5 -13t-23.5 -45v-291h50v-20h-230v20h50v140q0 69 19 113t50 69t70 34t80 9q24 0 54 0.5t58.5 2t51.5 5
t32 10.5v-44l16 13.5t20 11t29.5 7t45.5 2.5q42 0 67 0.5t41 2.5t27.5 5.5t28.5 9.5v-580h122v-99h-45q0 9 -2.5 22.5t-10.5 26t-23 21t-40 8.5h-133q-24 0 -39 -8.5t-23.5 -21t-11 -26t-2.5 -22.5h-45z" />
    <glyph glyph-name="FL1328h" unicode="&#x1328;" horiz-adv-x="861" 
d="M476 219q5 5 12 9.5t18 4.5q15 0 31 -4.5t33 -4.5q8 0 15.5 1.5t15.5 6.5v-110q0 -38 -5.5 -61.5t-17.5 -37t-31 -18.5t-47 -5h-175v21h21v447q-13 17 -32.5 23t-42.5 6q-38 0 -56.5 -12.5t-23.5 -44.5v-221q5 5 12 9.5t18 4.5q14 0 29 -3.5t32 -3.5q16 0 34 6v-110
q0 -38 -5.5 -61.5t-17.5 -37t-31 -18.5t-47 -5h-175v21h21v267q0 70 19 114t50 69t70 34t80 9q18 0 47.5 0.5t59.5 2t55 5.5t34 11v-49l16 13.5t20 11t29.5 7t45.5 2.5h70q21 0 37 0.5t28.5 2t24 4t24.5 6.5v-510h50v-21h-180v448q-6 27 -32.5 36t-58.5 9q-10 0 -22 -2.5
t-23 -7.5t-19 -13t-10 -19v-232zM191 198v-170q3 -11 9 -15t17 -4t16.5 4t7.5 15v171q-9 16 -24 16q-18 0 -26 -17zM476 198v-170q3 -11 9 -15t17 -4t16.5 4t7.5 15v171q-9 16 -24 16q-18 0 -26 -17z" />
    <glyph glyph-name="FL1329h" unicode="&#x1329;" horiz-adv-x="927" 
d="M887 158h-25q0 20 -7 35.5t-32 15.5h-52v-188h50v-21h-180v443q-6 27 -32.5 36t-58.5 9q-10 0 -22 -2.5t-22.5 -7.5t-18.5 -13t-11 -19v-227q5 5 12 9.5t18 4.5l62 -8q17 0 32 8v-111q0 -38 -5 -61.5t-17 -37t-31 -18.5t-47 -5h-175v21h21v446q-12 19 -32 24.5t-43 5.5
q-38 0 -56.5 -12.5t-23.5 -44.5v-221q5 5 12 9.5t18 4.5q14 0 29.5 -4t32.5 -4q18 0 33 8v-111q0 -38 -5.5 -61.5t-17.5 -37t-31 -18.5t-47 -5h-175v21h21v267q0 70 19 114t50 69t70 34t80 9q18 0 47.5 0.5t59.5 2.5t55 5.5t34 10.5v-54l17 13.5t19.5 11t29 7t45.5 2.5
q42 0 71.5 0.5t50.5 2t35.5 5t26.5 8.5v-243h116v-128zM476 198v-170q3 -11 9 -15t17 -4t16.5 4t7.5 15v171q-9 16 -24 16q-18 0 -26 -17zM191 198v-170q3 -11 9 -15t17 -4t16.5 4t7.5 15v171q-9 16 -24 16q-18 0 -26 -17z" />
    <glyph glyph-name="FL132Ah" unicode="&#x132a;" horiz-adv-x="926" 
d="M771 26h31q22 0 37.5 26t21.5 77h25v-129h-245v448q-7 26 -33.5 35.5t-57.5 9.5q-10 0 -22 -2.5t-23 -8t-19 -13.5t-10 -18v-232q5 5 12 9.5t18 4.5q12 0 27 -4t32 -4q19 0 35 8v-111q0 -38 -5 -61.5t-17 -37t-31 -18.5t-47 -5h-175v21h21v446q-11 17 -31.5 23.5
t-43.5 6.5q-38 0 -57 -12.5t-23 -44.5v-221q5 5 12 9.5t18 4.5q13 0 28.5 -4t32.5 -4q19 0 34 8v-111q0 -38 -5.5 -61.5t-17.5 -37t-31 -18.5t-47 -5h-175v21h21v267q0 70 19 114t50 69t70 34t80 9q18 0 48.5 0.5t61 2.5t55.5 6t31 12v-51l16 13.5t20 11t29.5 7t45.5 2.5
q42 0 71.5 0.5t50.5 2t35.5 5t26.5 10.5v-510zM476 198v-170q3 -11 9 -15t17 -4t16.5 4t7.5 15v171q-9 16 -24 16q-18 0 -26 -17zM191 198v-170q3 -11 9 -15t17 -4t16.5 4t7.5 15v171q-9 16 -24 16q-18 0 -26 -17z" />
    <glyph glyph-name="FL132Bh" unicode="&#x132b;" horiz-adv-x="861" 
d="M476 446q5 5 12 9t18 4q14 0 30.5 -3.5t32.5 -3.5q19 0 32 8v-112q0 -38 -5.5 -61.5t-17.5 -36.5t-31 -18t-47 -5h-175v20h21v327q-11 17 -31.5 23t-43.5 6q-38 0 -56 -13t-24 -45v-99q5 5 12 9t18 4q14 0 30.5 -4t33.5 -4q19 0 31 8v-111q0 -38 -5.5 -61.5t-17.5 -36.5
t-31 -18t-47 -5h-175v20h21v146q0 70 19 114t50 69t70 34t80 9q18 0 48 0.5t60 2.5t55 6.5t33 12.5v-49l16 13.5t20 11t29.5 7t45.5 2.5q42 0 69.5 0.5t48 2t35.5 5.5t31 12v-625h50v-21h-230v21h50v535q-6 26 -33 36t-58 10q-10 0 -22 -3t-22.5 -8t-18.5 -13.5t-11 -18.5
v-113zM191 424v-170q3 -11 9 -14.5t17 -3.5t16.5 3.5t7.5 14.5v171q-9 17 -24 17q-19 0 -26 -18zM476 424v-170q3 -11 9 -14.5t17 -3.5t16.5 3.5t7.5 14.5v171q-9 17 -24 17q-19 0 -26 -18z" />
    <glyph glyph-name="FL132Ch" unicode="&#x132c;" horiz-adv-x="1037" 
d="M476 219q5 5 12 9.5t18 4.5t27.5 -5t34.5 -5q17 0 32 9v-110q0 -38 -5 -61.5t-17 -37t-31 -18.5t-47 -5h-175v21h21v445q-10 19 -31 25t-44 6q-38 0 -55.5 -12.5t-24.5 -44.5v-221q5 5 12 9.5t18 4.5q15 0 31 -5t33 -5q16 0 31 9v-110q0 -38 -5.5 -61.5t-17.5 -37
t-31 -18.5t-47 -5h-175v21h21v267q0 70 19 114t50 69t70 34t80 9q18 0 48 1t60 3.5t55 7t33 12.5v-54l16 13.5t20 11t29.5 7t45.5 2.5q69 0 112.5 5t71.5 18v-205h133q29 0 51.5 1.5t41.5 6.5v-99q0 -56 -24 -76t-72 -20q-26 0 -43.5 4.5t-28 15.5t-15 29.5t-4.5 46.5v71
h-39v-295h50v-21h-180v448q-7 27 -33.5 36t-57.5 9q-10 0 -21.5 -3t-22 -8t-19 -13t-11.5 -18v-232zM476 198v-170q3 -11 9 -15t17 -4t16.5 4t7.5 15v171q-9 16 -24 16q-18 0 -26 -17zM191 198v-170q3 -11 9 -15t17 -4t16.5 4t7.5 15v171q-9 16 -24 16q-18 0 -26 -17z
M880 311v-135q3 -16 22 -16q9 0 16 3.5t9 13.5v134q-8 11 -23 11q-7 0 -12 -3t-12 -8z" />
    <glyph glyph-name="FL132Dh" unicode="&#x132d;" horiz-adv-x="894" 
d="M578 290h21v268q0 27 -18.5 37t-42.5 10q-20 0 -39 -10.5t-19 -33.5v-118q0 -23 8.5 -35t18 -20t18 -16t8.5 -24v-327h46v-21h-226v21h50v330q0 15 -8.5 22.5t-18 15t-18 19t-8.5 34.5v140q-13 17 -32.5 21.5t-42.5 4.5q-14 0 -29 -4t-27 -11.5t-20 -19t-8 -27.5v-83
q5 5 12 9.5t18 4.5q13 0 27.5 -4.5t31.5 -4.5q8 0 17.5 2t19.5 7v-97q0 -34 -5.5 -55.5t-17.5 -33.5t-31.5 -16.5t-47.5 -4.5h-175v20h21v115q0 67 20 109.5t51.5 67t71.5 33.5t80 9h61q20 0 41.5 0.5t41 2t33.5 4t19 7.5v-44q8 7 13 13.5t12 11t17.5 7t29.5 2.5
q42 0 70.5 1.5t48.5 4t33.5 6.5t24.5 9v-186q5 5 12 9.5t18 4.5q14 0 29 -4.5t31 -4.5q8 0 17 2t18 8v-98q0 -34 -5.5 -55.5t-17.5 -33.5t-31 -16.5t-47 -4.5h-175v20zM729 442v-144q3 -11 9 -15t17 -4t16.5 4t7.5 15v145q-9 16 -24 16q-18 0 -26 -17zM191 442v-144
q3 -11 9 -15t17 -4t16.5 4t7.5 15v145q-9 16 -24 16q-18 0 -26 -17z" />
    </font>
</defs>
</svg>
